<?xml version="1.0" encoding="utf-8"?>
<!-- Generator: Adobe Illustrator 24.3.0, SVG Export Plug-In . SVG Version: 6.00 Build 0)  -->
<svg version="1.1" id="Layer_1" xmlns="http://www.w3.org/2000/svg" xmlns:xlink="http://www.w3.org/1999/xlink" x="0px" y="0px"
	 viewBox="0 0 1024 1024" style="enable-background:new 0 0 1024 1024;" xml:space="preserve">
<style type="text/css">
	.st0{fill:#311024;}
	.st1{fill:#333333;}
	.st2{fill:url(#SVGID_1_);}
	.st3{fill:#736357;}
	.st4{fill:#666666;}
</style>
<g>
	<polygon class="st0" points="393.91,225.36 291.01,225.36 235,198.64 	"/>
</g>
<g>
	<polygon class="st1" points="394.02,225.36 291.12,225.36 458.16,61 630.54,61 	"/>
</g>
<g>
	<linearGradient id="SVGID_1_" gradientUnits="userSpaceOnUse" x1="291.1245" y1="143.1822" x2="630.5437" y2="143.1822">
		<stop  offset="0" style="stop-color:#736357"/>
		<stop  offset="0.2225" style="stop-color:#726156"/>
		<stop  offset="0.3459" style="stop-color:#6F5951"/>
		<stop  offset="0.4449" style="stop-color:#6A4B4A"/>
		<stop  offset="0.5306" style="stop-color:#62373F"/>
		<stop  offset="0.5838" style="stop-color:#5C2736"/>
		<stop  offset="0.7573" style="stop-color:#5A2220"/>
		<stop  offset="0.7793" style="stop-color:#5A211D"/>
		<stop  offset="1" style="stop-color:#581C19"/>
	</linearGradient>
	<polygon class="st2" points="394.02,225.36 291.12,225.36 458.16,61 630.54,61 	"/>
</g>
<g>
	<polygon class="st0" points="394.02,225.36 328.54,225.36 508.94,61 630.54,61 	"/>
</g>
<g>
	<polygon class="st3" points="630.54,730.48 508.94,813.33 458.16,759.88 458.16,61 630.54,61 	"/>
</g>
<g>
	<polygon class="st0" points="630.54,730.48 508.94,813.33 508.94,61 630.54,61 	"/>
</g>
<path class="st4" d="M307.77,202.65"/>
<polygon class="st3" points="508.94,878.84 488.9,901.53 508.94,963 788.23,758.55 788.23,683.74 "/>
<polygon class="st0" points="508.94,878.81 341.9,707.77 341.9,786.61 508.94,963 "/>
<path d="M508.94,874.8"/>
</svg>
