<?xml version="1.0" encoding="utf-8"?>
<!-- Generator: Adobe Illustrator 24.3.0, SVG Export Plug-In . SVG Version: 6.00 Build 0)  -->
<svg version="1.1" id="Layer_1" xmlns="http://www.w3.org/2000/svg" xmlns:xlink="http://www.w3.org/1999/xlink" x="0px" y="0px"
	 viewBox="0 0 1024 1024" style="enable-background:new 0 0 1024 1024;" xml:space="preserve">
<style type="text/css">
	.st0{fill:#EDE0C7;}
	.st1{display:none;}
	.st2{display:inline;fill:#333333;}
	.st3{fill:url(#SVGID_1_);}
	.st4{fill:#E8B8E7;}
	.st5{fill:#666666;}
</style>
<g>
	<polygon class="st0" points="291.01,225.36 235,198.64 320.2,212.97 	"/>
</g>
<g class="st1">
	<polygon class="st2" points="394.02,225.36 291.12,225.36 458.16,61 630.54,61 	"/>
</g>
<g>
	<linearGradient id="SVGID_1_" gradientUnits="userSpaceOnUse" x1="291.1245" y1="143.1822" x2="509" y2="143.1822">
		<stop  offset="0" style="stop-color:#E8B8E7"/>
		<stop  offset="0.3075" style="stop-color:#E9BCE3"/>
		<stop  offset="0.6422" style="stop-color:#EACAD9"/>
		<stop  offset="0.9886" style="stop-color:#EDDFC8"/>
		<stop  offset="1" style="stop-color:#EDE0C7"/>
	</linearGradient>
	<polygon class="st3" points="328.52,225.36 291.12,225.36 458.16,61 509,61 	"/>
</g>
<g>
	<polygon class="st0" points="394.02,225.36 328.54,225.36 509,61 630.54,61 	"/>
</g>
<g>
	<polygon class="st4" points="508.94,813.33 458.16,759.88 458.16,61 508.94,61 	"/>
</g>
<g>
	<polygon class="st0" points="630.54,730.48 508.94,813.33 508.94,61 630.54,61 	"/>
</g>
<path class="st5" d="M307.77,202.65"/>
<polygon class="st4" points="508.94,878.84 488.9,901.53 508.94,963 738,795.55 738,720.74 "/>
<polygon class="st0" points="508.94,878.81 341.9,707.77 341.9,786.61 508.94,963 "/>
<path d="M508.94,874.8"/>
</svg>
