<?xml version="1.0" encoding="utf-8"?>
<!-- Generator: Adobe Illustrator 24.3.0, SVG Export Plug-In . SVG Version: 6.00 Build 0)  -->
<svg version="1.1" id="Layer_1" xmlns="http://www.w3.org/2000/svg" xmlns:xlink="http://www.w3.org/1999/xlink" x="0px" y="0px"
	 viewBox="0 0 1920 1080" style="enable-background:new 0 0 1920 1080;" xml:space="preserve">
<style type="text/css">
	.st0{fill:#828246;}
	.st1{fill:#5A5A2D;}
	.st2{display:none;}
	.st3{display:inline;fill:#333333;}
	.st4{fill:#3C3C23;}
	.st5{fill:#1E1E0A;}
	.st6{fill:#0A0A00;}
	.st7{fill:#666666;}
</style>
<g>
	<polygon class="st0" points="813.92,347 765,353 736.92,347 695,327 	"/>
</g>
<g>
	<polygon class="st1" points="813.92,347 765,356 695,327 	"/>
</g>
<g class="st2">
	<polygon class="st3" points="814,347 737,347 862,224 900,242 991,224 	"/>
</g>
<g>
	<polygon class="st4" points="814,347 765,356 737,347 862,224 900,249 991,224 	"/>
</g>
<g>
	<polygon class="st5" points="814,347 765,356 900,249 991,224 	"/>
</g>
<g>
	<polygon class="st6" points="991,846 900,908 862,868 862,224 900,249 991,224 	"/>
</g>
<g>
	<polygon class="st5" points="991,846 900,908 900,249 991,224 	"/>
</g>
<path class="st7" d="M749.46,330"/>
<polygon class="st6" points="900,926.02 885,943 900,1004 1109,851 1109,780.02 "/>
<polygon class="st5" points="900,926 775,798 775,872 900,1004 "/>
<path d="M900,923"/>
<path class="st4" d="M723.56,337"/>
</svg>
