
    <svg width="230" height="230" viewBox="0 0 230 230" fill="none" xmlns="http://www.w3.org/2000/svg">
        
<path fill-rule="evenodd" clip-rule="evenodd" d="M62.8849 72.5518H66.6147C67.3025 72.5518 67.8668 73.1073 67.858 73.795L67.4876 109.885H62.8761C62.1883 109.885 61.6328 109.33 61.6328 108.642V73.795C61.6416 73.1073 62.206 72.5518 62.8849 72.5518Z" fill="#6D6E70"/>
<path d="M61.7577 78.1738L67.6406 78.1738L67.6406 75.8676L61.7577 75.8676L61.7577 78.1738Z" fill="#404041"/>
<path d="M61.7369 78.1738L67.6621 78.1738L67.6621 75.8676L61.7369 75.8676L61.7369 78.1738Z" stroke="black" stroke-width="0.429643"/>
<path d="M66.9117 78.0801L67.2266 78.0801L67.2266 76.2219L66.9117 76.2219L66.9117 78.0801Z" fill="black"/>
<path d="M66.2319 78.0801L66.5469 78.0801L66.5469 76.2219L66.2319 76.2219L66.2319 78.0801Z" fill="black"/>
<path d="M62.8491 78.0801L63.1641 78.0801L63.1641 76.2219L62.8491 76.2219L62.8491 78.0801Z" fill="black"/>
<path d="M62.1714 78.0801L62.4863 78.0801L62.4863 76.2219L62.1714 76.2219L62.1714 78.0801Z" fill="black"/>
<path d="M61.71 76.0581L62.8052 76.0581L67.6882 76.0581L68.1113 75.57L67.4371 71.9998L62.8052 71.9998L61.961 71.9998L61.2874 75.57L61.71 76.0581Z" fill="#6D6E70"/>
<path d="M61.7096 76.0581L62.7718 76.0581L62.3492 75.57L63.0234 71.9998L61.9607 71.9998L61.287 75.57L61.7096 76.0581Z" fill="white"/>
<path d="M66.2721 76.0581L67.6882 76.0581L68.1113 75.57L67.4371 71.9998L66.021 71.9998L66.6952 75.57L66.2721 76.0581Z" fill="#404041"/>
<path d="M61.71 76.0581L62.8052 76.0581L67.6882 76.0581L68.1113 75.57L67.4371 71.9998L62.8052 71.9998L61.961 71.9998L61.2874 75.57L61.71 76.0581Z" stroke="black" stroke-width="0.811667"/>
<path d="M61.432 74.8716L67.9648 74.8716L67.9648 74.1541L61.432 74.1541L61.432 74.8716Z" fill="black"/>
<path d="M61.2707 79.4902L68.125 79.4902L68.125 79.0032L61.2707 79.0032L61.2707 79.4902Z" fill="white"/>
<path d="M61.1991 113.662L68.1973 113.662L68.1973 77.6598L61.1991 77.6598L61.1991 113.662Z" fill="#6D6E70"/>
<path d="M61.1988 113.662L63.5078 113.662L63.5078 77.6598L61.1988 77.6598L61.1988 113.662Z" fill="white"/>
<path d="M68.1973 113.662L68.1973 77.6593L65.5999 77.6593L65.5999 113.662L68.1973 113.662Z" fill="#404041"/>
<path d="M61.1991 113.662L68.1973 113.662L68.1973 77.6598L61.1991 77.6598L61.1991 113.662Z" stroke="black" stroke-width="0.811667"/>
<path d="M61.2707 79.1655L68.125 79.1655L68.125 78.6785L61.2707 78.6785L61.2707 79.1655Z" fill="black"/>
<mask id="path-19-outside-1_1233_2887" maskUnits="userSpaceOnUse" x="58.3125" y="97.6016" width="49" height="56" fill="black">
<rect fill="white" x="58.3125" y="97.6016" width="49" height="56"/>
<path fill-rule="evenodd" clip-rule="evenodd" d="M70.433 119.86L75.0005 130L104.851 138.137V142.108C104.851 143.396 104.242 144.517 103.148 145.209L94.1628 150.886C93.5537 151.273 92.9445 151.453 92.2384 151.453C82.6994 151.453 73.1604 151.453 63.6352 151.453C61.8077 151.453 60.3125 149.958 60.3125 148.13V100.602L69.4777 105.655C69.4777 109.573 69.4777 113.477 69.4777 117.395C69.4777 118.35 69.7961 119.167 70.433 119.86Z"/>
</mask>
<path fill-rule="evenodd" clip-rule="evenodd" d="M70.433 119.86L75.0005 130L104.851 138.137V142.108C104.851 143.396 104.242 144.517 103.148 145.209L94.1628 150.886C93.5537 151.273 92.9445 151.453 92.2384 151.453C82.6994 151.453 73.1604 151.453 63.6352 151.453C61.8077 151.453 60.3125 149.958 60.3125 148.13V100.602L69.4777 105.655C69.4777 109.573 69.4777 113.477 69.4777 117.395C69.4777 118.35 69.7961 119.167 70.433 119.86Z" fill="#6D6E70"/>
<path fill-rule="evenodd" clip-rule="evenodd" d="M70.433 119.86L75.0005 130L104.851 138.137V142.108C104.851 143.396 104.242 144.517 103.148 145.209L94.1628 150.886C93.5537 151.273 92.9445 151.453 92.2384 151.453C82.6994 151.453 73.1604 151.453 63.6352 151.453C61.8077 151.453 60.3125 149.958 60.3125 148.13V100.602L69.4777 105.655C69.4777 109.573 69.4777 113.477 69.4777 117.395C69.4777 118.35 69.7961 119.167 70.433 119.86Z" stroke="black" stroke-width="3" mask="url(#path-19-outside-1_1233_2887)"/>
<path d="M69.3564 118L69.3008 142.035L71.3008 119.793L69.3564 118Z" fill="black"/>
<path d="M105 144L70 138L64.5 103.5L60 101V153.5L97.5 156L105 144Z" fill="#404041"/>
<path d="M61.4645 141.629L71.2876 151.452L61.7876 140.164V101.586L60 100.6V138.093C60 139.419 60.5268 140.691 61.4645 141.629Z" fill="white"/>
<path fill-rule="evenodd" clip-rule="evenodd" d="M47.2853 86.5518H51.0151C51.7029 86.5518 52.2672 87.1073 52.2584 87.795L51.888 123.885H47.2765C46.5887 123.885 46.0332 123.33 46.0332 122.642V87.795C46.042 87.1073 46.6063 86.5518 47.2853 86.5518Z" fill="#6D6E70"/>
<path d="M46.1581 92.1738L52.041 92.1738L52.041 89.8676L46.1581 89.8676L46.1581 92.1738Z" fill="#404041"/>
<path d="M46.1373 92.1738L52.0625 92.1738L52.0625 89.8676L46.1373 89.8676L46.1373 92.1738Z" stroke="black" stroke-width="0.429643"/>
<path d="M51.3121 92.0801L51.627 92.0801L51.627 90.2219L51.3121 90.2219L51.3121 92.0801Z" fill="black"/>
<path d="M50.6323 92.0801L50.9473 92.0801L50.9473 90.2219L50.6323 90.2219L50.6323 92.0801Z" fill="black"/>
<path d="M47.2495 92.0801L47.5645 92.0801L47.5645 90.2219L47.2495 90.2219L47.2495 92.0801Z" fill="black"/>
<path d="M46.5718 92.0801L46.8867 92.0801L46.8867 90.2219L46.5718 90.2219L46.5718 92.0801Z" fill="black"/>
<path d="M46.1104 90.0581L47.2056 90.0581L52.0886 90.0581L52.5117 89.57L51.8375 85.9998L47.2056 85.9998L46.3614 85.9998L45.6877 89.57L46.1104 90.0581Z" fill="#6D6E70"/>
<path d="M46.11 90.0581L47.1722 90.0581L46.7496 89.57L47.4238 85.9998L46.3611 85.9998L45.6874 89.57L46.11 90.0581Z" fill="white"/>
<path d="M50.6725 90.0581L52.0886 90.0581L52.5117 89.57L51.8375 85.9998L50.4214 85.9998L51.0956 89.57L50.6725 90.0581Z" fill="#404041"/>
<path d="M46.1104 90.0581L47.2056 90.0581L52.0886 90.0581L52.5117 89.57L51.8375 85.9998L47.2056 85.9998L46.3614 85.9998L45.6877 89.57L46.1104 90.0581Z" stroke="black" stroke-width="0.811667"/>
<path d="M45.8324 88.8716L52.3652 88.8716L52.3652 88.1541L45.8324 88.1541L45.8324 88.8716Z" fill="black"/>
<path d="M45.6711 93.4902L52.5254 93.4902L52.5254 93.0032L45.6711 93.0032L45.6711 93.4902Z" fill="white"/>
<path d="M45.5995 127.662L52.5977 127.662L52.5977 91.6598L45.5995 91.6598L45.5995 127.662Z" fill="#6D6E70"/>
<path d="M45.5992 127.662L47.9082 127.662L47.9082 91.6598L45.5992 91.6598L45.5992 127.662Z" fill="white"/>
<path d="M52.5977 127.662L52.5977 91.6593L50.0003 91.6593L50.0003 127.662L52.5977 127.662Z" fill="#404041"/>
<path d="M45.5995 127.662L52.5977 127.662L52.5977 91.6598L45.5995 91.6598L45.5995 127.662Z" stroke="black" stroke-width="0.811667"/>
<path d="M45.6711 93.1655L52.5254 93.1655L52.5254 92.6785L45.6711 92.6785L45.6711 93.1655Z" fill="black"/>
<mask id="path-41-outside-2_1233_2887" maskUnits="userSpaceOnUse" x="42.7129" y="111.602" width="78" height="56" fill="black">
<rect fill="white" x="42.7129" y="111.602" width="78" height="56"/>
<path d="M66.1722 146.278L54.8334 133.86C54.1965 133.167 53.8781 132.35 53.8781 131.395V119.655L44.7129 114.602V152.095C44.7129 153.421 45.2397 154.692 46.1774 155.63L54.2834 163.736C55.3676 164.82 56.8678 165.35 58.3906 165.171C67.3815 164.114 98.9969 160.453 105.639 160.453C106.345 160.453 106.954 160.273 107.563 159.886L116.548 154.209C117.642 153.517 118.251 152.396 118.251 151.108V142.137L66.1722 146.278Z"/>
</mask>
<path d="M66.1722 146.278L54.8334 133.86C54.1965 133.167 53.8781 132.35 53.8781 131.395V119.655L44.7129 114.602V152.095C44.7129 153.421 45.2397 154.692 46.1774 155.63L54.2834 163.736C55.3676 164.82 56.8678 165.35 58.3906 165.171C67.3815 164.114 98.9969 160.453 105.639 160.453C106.345 160.453 106.954 160.273 107.563 159.886L116.548 154.209C117.642 153.517 118.251 152.396 118.251 151.108V142.137L66.1722 146.278Z" fill="#6D6E70"/>
<path d="M66.1722 146.278L54.8334 133.86C54.1965 133.167 53.8781 132.35 53.8781 131.395V119.655L44.7129 114.602V152.095C44.7129 153.421 45.2397 154.692 46.1774 155.63L54.2834 163.736C55.3676 164.82 56.8678 165.35 58.3906 165.171C67.3815 164.114 98.9969 160.453 105.639 160.453C106.345 160.453 106.954 160.273 107.563 159.886L116.548 154.209C117.642 153.517 118.251 152.396 118.251 151.108V142.137L66.1722 146.278Z" stroke="black" stroke-width="3" mask="url(#path-41-outside-2_1233_2887)"/>
<path d="M118.25 142.136L66.1709 146.278L95.4991 161.152C100.105 160.729 103.813 160.453 105.637 160.453C106.344 160.453 106.953 160.273 107.562 159.885L116.547 154.209C117.641 153.517 118.25 152.395 118.25 151.108V142.136Z" fill="#404041"/>
<path d="M46.1774 155.63L56.0005 165.453L46.5005 154.166V115.587L44.7129 114.602V152.095C44.7129 153.421 45.2397 154.692 46.1774 155.63Z" fill="white"/>
<path d="M53.8564 131L53.8008 155.035L55.8008 132.793L53.8564 131Z" fill="black"/>
<path d="M44.0996 141.84C44.0996 141.84 47.3516 139.368 47.3516 137.254V127.271C47.3516 124.8 44.1321 123.206 44.1321 123.206L44.0996 141.84Z" fill="#404041"/>
<path d="M43.4285 123C43.4285 123 41 124.604 41 126.858V137.699C41 139.52 43.7746 141.644 43.7746 141.644L45.7699 136.441V127.252L43.4285 123Z" fill="#F39DB1"/>
<path d="M44.4692 124.889V133.84L42.4738 139.043C41.9448 138.622 41.4518 138.159 41 137.656V137.699C41 139.52 43.7746 141.644 43.7746 141.644L45.7699 136.441V127.253L44.4692 124.889Z" fill="#9E3E63"/>
<path d="M43.4285 123C43.4285 123 41 124.604 41 126.858V137.699C41 139.52 43.7746 141.644 43.7746 141.644C43.7746 141.644 45.7699 137.644 45.7699 136.441V127.252C45.7699 125.71 43.4285 123 43.4285 123Z" stroke="black"/>
<path d="M42.2583 132.929C42.2583 132.929 41.1526 125.602 43.2339 124.777C43.2339 124.781 42.3012 131.086 42.2583 132.929Z" fill="white"/>
<path d="M59.6328 125C59.6328 125 62.3946 122.901 62.3946 121.106V112.627C62.3946 110.528 59.6604 109.175 59.6604 109.175L59.6328 125Z" fill="#404041"/>
<path d="M59.0625 109C59.0625 109 57 110.362 57 112.277V121.483C57 123.03 59.3564 124.834 59.3564 124.834L61.051 120.415V112.611L59.0625 109Z" fill="#F39DB1"/>
<path d="M59.9463 110.604V118.206L58.2517 122.625C57.8024 122.268 57.3837 121.874 57 121.447V121.484C57 123.03 59.3564 124.834 59.3564 124.834L61.051 120.415V112.612L59.9463 110.604Z" fill="#9E3E63"/>
<path d="M59.0625 109C59.0625 109 57 110.362 57 112.277V121.483C57 123.03 59.3564 124.834 59.3564 124.834C59.3564 124.834 61.051 121.437 61.051 120.415V112.611C61.051 111.301 59.0625 109 59.0625 109Z" stroke="black"/>
<path d="M58.0676 117.433C58.0676 117.433 57.1285 111.21 58.8961 110.509C58.8961 110.513 58.104 115.867 58.0676 117.433Z" fill="white"/>
<path fill-rule="evenodd" clip-rule="evenodd" d="M167.67 72.5518H163.94C163.252 72.5518 162.688 73.1073 162.697 73.795L163.067 109.885H167.679C168.366 109.885 168.922 109.33 168.922 108.642V73.795C168.913 73.1073 168.349 72.5518 167.67 72.5518Z" fill="#6D6E70"/>
<path d="M168.797 78.1738L162.914 78.1738L162.914 75.8676L168.797 75.8676L168.797 78.1738Z" fill="#404041"/>
<path d="M168.818 78.1738L162.893 78.1738L162.893 75.8676L168.818 75.8676L168.818 78.1738Z" stroke="black" stroke-width="0.429643"/>
<path d="M163.643 78.0801L163.328 78.0801L163.328 76.2219L163.643 76.2219L163.643 78.0801Z" fill="black"/>
<path d="M164.323 78.0801L164.008 78.0801L164.008 76.2219L164.323 76.2219L164.323 78.0801Z" fill="black"/>
<path d="M167.706 78.0801L167.391 78.0801L167.391 76.2219L167.706 76.2219L167.706 78.0801Z" fill="black"/>
<path d="M168.383 78.0801L168.068 78.0801L168.068 76.2219L168.383 76.2219L168.383 78.0801Z" fill="black"/>
<path d="M168.845 76.0581L167.749 76.0581L162.867 76.0581L162.443 75.57L163.118 71.9998L167.749 71.9998L168.594 71.9998L169.267 75.57L168.845 76.0581Z" fill="#6D6E70"/>
<path d="M168.845 76.0581L167.783 76.0581L168.206 75.57L167.531 71.9998L168.594 71.9998L169.268 75.57L168.845 76.0581Z" fill="white"/>
<path d="M164.283 76.0581L162.867 76.0581L162.443 75.57L163.118 71.9998L164.534 71.9998L163.859 75.57L164.283 76.0581Z" fill="#404041"/>
<path d="M168.845 76.0581L167.749 76.0581L162.867 76.0581L162.443 75.57L163.118 71.9998L167.749 71.9998L168.594 71.9998L169.267 75.57L168.845 76.0581Z" stroke="black" stroke-width="0.811667"/>
<path d="M169.123 74.8716L162.59 74.8716L162.59 74.1541L169.123 74.1541L169.123 74.8716Z" fill="black"/>
<path d="M169.284 79.4902L162.43 79.4902L162.43 79.0032L169.284 79.0032L169.284 79.4902Z" fill="white"/>
<path d="M169.356 113.662L162.357 113.662L162.357 77.6598L169.356 77.6598L169.356 113.662Z" fill="#6D6E70"/>
<path d="M169.356 113.662L167.047 113.662L167.047 77.6598L169.356 77.6598L169.356 113.662Z" fill="white"/>
<path d="M162.357 113.662L162.357 77.6593L164.955 77.6593L164.955 113.662L162.357 113.662Z" fill="#404041"/>
<path d="M169.356 113.662L162.357 113.662L162.357 77.6598L169.356 77.6598L169.356 113.662Z" stroke="black" stroke-width="0.811667"/>
<path d="M169.284 79.1655L162.43 79.1655L162.43 78.6785L169.284 78.6785L169.284 79.1655Z" fill="black"/>
<mask id="path-73-outside-3_1233_2887" maskUnits="userSpaceOnUse" x="123.242" y="97.6016" width="49" height="56" fill="black">
<rect fill="white" x="123.242" y="97.6016" width="49" height="56"/>
<path fill-rule="evenodd" clip-rule="evenodd" d="M160.122 119.86L155.554 130L125.704 138.137V142.108C125.704 143.396 126.313 144.517 127.407 145.209L136.392 150.886C137.001 151.273 137.61 151.453 138.316 151.453C147.855 151.453 157.394 151.453 166.919 151.453C168.747 151.453 170.242 149.958 170.242 148.13V100.602L161.077 105.655C161.077 109.573 161.077 113.477 161.077 117.395C161.077 118.35 160.759 119.167 160.122 119.86Z"/>
</mask>
<path fill-rule="evenodd" clip-rule="evenodd" d="M160.122 119.86L155.554 130L125.704 138.137V142.108C125.704 143.396 126.313 144.517 127.407 145.209L136.392 150.886C137.001 151.273 137.61 151.453 138.316 151.453C147.855 151.453 157.394 151.453 166.919 151.453C168.747 151.453 170.242 149.958 170.242 148.13V100.602L161.077 105.655C161.077 109.573 161.077 113.477 161.077 117.395C161.077 118.35 160.759 119.167 160.122 119.86Z" fill="#6D6E70"/>
<path fill-rule="evenodd" clip-rule="evenodd" d="M160.122 119.86L155.554 130L125.704 138.137V142.108C125.704 143.396 126.313 144.517 127.407 145.209L136.392 150.886C137.001 151.273 137.61 151.453 138.316 151.453C147.855 151.453 157.394 151.453 166.919 151.453C168.747 151.453 170.242 149.958 170.242 148.13V100.602L161.077 105.655C161.077 109.573 161.077 113.477 161.077 117.395C161.077 118.35 160.759 119.167 160.122 119.86Z" stroke="black" stroke-width="3" mask="url(#path-73-outside-3_1233_2887)"/>
<path d="M161.198 118L161.254 142.035L159.254 119.793L161.198 118Z" fill="black"/>
<path d="M125.555 144L160.555 138L166.055 103.5L170.555 101V153.5L133.055 156L125.555 144Z" fill="#404041"/>
<path d="M169.09 141.629L159.267 151.452L168.767 140.164V101.586L170.555 100.6V138.093C170.555 139.419 170.028 140.691 169.09 141.629Z" fill="white"/>
<path fill-rule="evenodd" clip-rule="evenodd" d="M183.269 86.5518H179.54C178.852 86.5518 178.288 87.1073 178.296 87.795L178.667 123.885H183.278C183.966 123.885 184.521 123.33 184.521 122.642V87.795C184.513 87.1073 183.948 86.5518 183.269 86.5518Z" fill="#6D6E70"/>
<path d="M184.397 92.1738L178.514 92.1738L178.514 89.8676L184.397 89.8676L184.397 92.1738Z" fill="#404041"/>
<path d="M184.417 92.1738L178.492 92.1738L178.492 89.8676L184.417 89.8676L184.417 92.1738Z" stroke="black" stroke-width="0.429643"/>
<path d="M179.243 92.0801L178.928 92.0801L178.928 90.2219L179.243 90.2219L179.243 92.0801Z" fill="black"/>
<path d="M179.922 92.0801L179.607 92.0801L179.607 90.2219L179.922 90.2219L179.922 92.0801Z" fill="black"/>
<path d="M183.305 92.0801L182.99 92.0801L182.99 90.2219L183.305 90.2219L183.305 92.0801Z" fill="black"/>
<path d="M183.983 92.0801L183.668 92.0801L183.668 90.2219L183.983 90.2219L183.983 92.0801Z" fill="black"/>
<path d="M184.444 90.0581L183.349 90.0581L178.466 90.0581L178.043 89.57L178.717 85.9998L183.349 85.9998L184.193 85.9998L184.867 89.57L184.444 90.0581Z" fill="#6D6E70"/>
<path d="M184.445 90.0581L183.382 90.0581L183.805 89.57L183.131 85.9998L184.194 85.9998L184.867 89.57L184.445 90.0581Z" fill="white"/>
<path d="M179.882 90.0581L178.466 90.0581L178.043 89.57L178.717 85.9998L180.133 85.9998L179.459 89.57L179.882 90.0581Z" fill="#404041"/>
<path d="M184.444 90.0581L183.349 90.0581L178.466 90.0581L178.043 89.57L178.717 85.9998L183.349 85.9998L184.193 85.9998L184.867 89.57L184.444 90.0581Z" stroke="black" stroke-width="0.811667"/>
<path d="M184.722 88.8716L178.189 88.8716L178.189 88.1541L184.722 88.1541L184.722 88.8716Z" fill="black"/>
<path d="M184.884 93.4902L178.029 93.4902L178.029 93.0032L184.884 93.0032L184.884 93.4902Z" fill="white"/>
<path d="M184.955 127.662L177.957 127.662L177.957 91.6598L184.955 91.6598L184.955 127.662Z" fill="#6D6E70"/>
<path d="M184.955 127.662L182.646 127.662L182.646 91.6598L184.955 91.6598L184.955 127.662Z" fill="white"/>
<path d="M177.957 127.662L177.957 91.6593L180.554 91.6593L180.554 127.662L177.957 127.662Z" fill="#404041"/>
<path d="M184.955 127.662L177.957 127.662L177.957 91.6598L184.955 91.6598L184.955 127.662Z" stroke="black" stroke-width="0.811667"/>
<path d="M184.884 93.1655L178.029 93.1655L178.029 92.6785L184.884 92.6785L184.884 93.1655Z" fill="black"/>
<mask id="path-95-outside-4_1233_2887" maskUnits="userSpaceOnUse" x="109.842" y="111.602" width="78" height="56" fill="black">
<rect fill="white" x="109.842" y="111.602" width="78" height="56"/>
<path d="M164.382 146.278L175.721 133.86C176.358 133.167 176.677 132.35 176.677 131.395V119.655L185.842 114.602V152.095C185.842 153.421 185.315 154.692 184.377 155.63L176.271 163.736C175.187 164.82 173.687 165.35 172.164 165.171C163.173 164.114 131.558 160.453 124.916 160.453C124.21 160.453 123.601 160.273 122.991 159.886L114.006 154.209C112.913 153.517 112.303 152.396 112.303 151.108V142.137L164.382 146.278Z"/>
</mask>
<path d="M164.382 146.278L175.721 133.86C176.358 133.167 176.677 132.35 176.677 131.395V119.655L185.842 114.602V152.095C185.842 153.421 185.315 154.692 184.377 155.63L176.271 163.736C175.187 164.82 173.687 165.35 172.164 165.171C163.173 164.114 131.558 160.453 124.916 160.453C124.21 160.453 123.601 160.273 122.991 159.886L114.006 154.209C112.913 153.517 112.303 152.396 112.303 151.108V142.137L164.382 146.278Z" fill="#6D6E70"/>
<path d="M164.382 146.278L175.721 133.86C176.358 133.167 176.677 132.35 176.677 131.395V119.655L185.842 114.602V152.095C185.842 153.421 185.315 154.692 184.377 155.63L176.271 163.736C175.187 164.82 173.687 165.35 172.164 165.171C163.173 164.114 131.558 160.453 124.916 160.453C124.21 160.453 123.601 160.273 122.991 159.886L114.006 154.209C112.913 153.517 112.303 152.396 112.303 151.108V142.137L164.382 146.278Z" stroke="black" stroke-width="3" mask="url(#path-95-outside-4_1233_2887)"/>
<path d="M112.305 142.136L164.384 146.278L135.056 161.152C130.45 160.729 126.741 160.453 124.917 160.453C124.211 160.453 123.602 160.273 122.993 159.885L114.008 154.209C112.914 153.517 112.305 152.395 112.305 151.108V142.136Z" fill="#404041"/>
<path d="M184.377 155.63L174.554 165.453L184.054 154.166V115.587L185.842 114.602V152.095C185.842 153.421 185.315 154.692 184.377 155.63Z" fill="white"/>
<path d="M176.698 131L176.754 155.035L174.754 132.793L176.698 131Z" fill="black"/>
<path d="M186.455 141.84C186.455 141.84 183.203 139.368 183.203 137.254V127.271C183.203 124.8 186.423 123.206 186.423 123.206L186.455 141.84Z" fill="#404041"/>
<path d="M187.126 123C187.126 123 189.555 124.604 189.555 126.858V137.699C189.555 139.52 186.78 141.644 186.78 141.644L184.785 136.441V127.252L187.126 123Z" fill="#F39DB1"/>
<path d="M186.086 124.889V133.84L188.081 139.043C188.61 138.622 189.103 138.159 189.555 137.656V137.699C189.555 139.52 186.78 141.644 186.78 141.644L184.785 136.441V127.253L186.086 124.889Z" fill="#9E3E63"/>
<path d="M187.126 123C187.126 123 189.555 124.604 189.555 126.858V137.699C189.555 139.52 186.78 141.644 186.78 141.644C186.78 141.644 184.785 137.644 184.785 136.441V127.252C184.785 125.71 187.126 123 187.126 123Z" stroke="black"/>
<path d="M188.296 132.929C188.296 132.929 189.402 125.602 187.321 124.777C187.321 124.781 188.253 131.086 188.296 132.929Z" fill="white"/>
<path d="M170.922 125C170.922 125 168.16 122.901 168.16 121.106V112.627C168.16 110.528 170.894 109.175 170.894 109.175L170.922 125Z" fill="#404041"/>
<path d="M171.492 109C171.492 109 173.555 110.362 173.555 112.277V121.483C173.555 123.03 171.198 124.834 171.198 124.834L169.504 120.415V112.611L171.492 109Z" fill="#F39DB1"/>
<path d="M170.608 110.604V118.206L172.303 122.625C172.752 122.268 173.171 121.874 173.555 121.447V121.484C173.555 123.03 171.198 124.834 171.198 124.834L169.504 120.415V112.612L170.608 110.604Z" fill="#9E3E63"/>
<path d="M171.492 109C171.492 109 173.555 110.362 173.555 112.277V121.483C173.555 123.03 171.198 124.834 171.198 124.834C171.198 124.834 169.504 121.437 169.504 120.415V112.611C169.504 111.301 171.492 109 171.492 109Z" stroke="black"/>
<path d="M172.487 117.433C172.487 117.433 173.426 111.21 171.659 110.509C171.659 110.513 172.451 115.867 172.487 117.433Z" fill="white"/>

        
<mask id="path-1-outside-1_1233_2887" maskUnits="userSpaceOnUse" x="71.9716" y="144.637" width="38.1799" height="38.1799" fill="black">
<rect fill="white" x="71.9716" y="144.637" width="38.1799" height="38.1799"/>
<path fill-rule="evenodd" clip-rule="evenodd" d="M85.6639 154.215L101.388 158.078C102.252 158.262 102.812 159.096 102.678 159.969L101.011 170.146C100.894 170.862 100.363 171.389 99.6603 171.516L84.7619 171.988L85.6639 154.215Z"/>
</mask>
<path fill-rule="evenodd" clip-rule="evenodd" d="M85.6639 154.215L101.388 158.078C102.252 158.262 102.812 159.096 102.678 159.969L101.011 170.146C100.894 170.862 100.363 171.389 99.6603 171.516L84.7619 171.988L85.6639 154.215Z" fill="#6D6E70"/>
<path fill-rule="evenodd" clip-rule="evenodd" d="M85.6639 154.215L101.388 158.078C102.252 158.262 102.812 159.096 102.678 159.969L101.011 170.146C100.894 170.862 100.363 171.389 99.6603 171.516L84.7619 171.988L85.6639 154.215Z" stroke="black" stroke-width="3" mask="url(#path-1-outside-1_1233_2887)"/>
<path d="M101.388 158.078L85.6639 154.215L102.45 161.361L102.678 159.969C102.812 159.096 102.252 158.262 101.388 158.078Z" fill="white"/>
<mask id="path-3-outside-2_1233_2887" maskUnits="userSpaceOnUse" x="32.1872" y="127.226" width="65.148" height="64.9464" fill="black">
<rect fill="white" x="32.1872" y="127.226" width="65.148" height="64.9464"/>
<path fill-rule="evenodd" clip-rule="evenodd" d="M81.9831 153.573L59.1812 163.924L55.4838 150.426C55.2981 149.763 54.9674 149.229 54.442 148.777L48.4554 143.653C47.9599 143.23 47.2223 143.691 47.3782 144.325L55.4439 175.795C55.8998 177.55 57.6873 178.631 59.4434 178.195L84.7615 171.97C85.4541 171.793 86.0077 171.482 86.5095 170.966L92.1543 165.158C93.4279 163.847 93.3978 161.733 92.0873 160.459L85.6637 154.216C84.6709 153.251 83.2478 153.007 81.9831 153.573Z"/>
</mask>
<path fill-rule="evenodd" clip-rule="evenodd" d="M81.9831 153.573L59.1812 163.924L55.4838 150.426C55.2981 149.763 54.9674 149.229 54.442 148.777L48.4554 143.653C47.9599 143.23 47.2223 143.691 47.3782 144.325L55.4439 175.795C55.8998 177.55 57.6873 178.631 59.4434 178.195L84.7615 171.97C85.4541 171.793 86.0077 171.482 86.5095 170.966L92.1543 165.158C93.4279 163.847 93.3978 161.733 92.0873 160.459L85.6637 154.216C84.6709 153.251 83.2478 153.007 81.9831 153.573Z" fill="#6D6E70"/>
<path fill-rule="evenodd" clip-rule="evenodd" d="M81.9831 153.573L59.1812 163.924L55.4838 150.426C55.2981 149.763 54.9674 149.229 54.442 148.777L48.4554 143.653C47.9599 143.23 47.2223 143.691 47.3782 144.325L55.4439 175.795C55.8998 177.55 57.6873 178.631 59.4434 178.195L84.7615 171.97C85.4541 171.793 86.0077 171.482 86.5095 170.966L92.1543 165.158C93.4279 163.847 93.3978 161.733 92.0873 160.459L85.6637 154.216C84.6709 153.251 83.2478 153.007 81.9831 153.573Z" stroke="black" stroke-width="3" mask="url(#path-3-outside-2_1233_2887)"/>
<path d="M59.4433 178.195C57.6872 178.631 55.8997 177.55 55.4438 175.794L53.4502 168.016C55.9475 171.903 56.715 176.135 64.1237 174.968C70.0507 174.035 80.3517 172.58 84.7614 171.969L59.4433 178.195Z" fill="#404041"/>
<path d="M62.8652 162.252L81.9831 153.573C83.2478 153.007 84.6709 153.251 85.6637 154.216L91.0545 159.455C89.8906 158.74 86.7101 157.038 83.3003 155.955C80.4369 155.046 70.0428 159.091 62.8652 162.252L59.1812 163.924L57.7224 158.598C56.7747 156.943 54.4385 153.025 52.6753 150.595C50.9121 148.164 48.8683 147.193 48.0668 147.011L47.3782 144.325C47.2223 143.691 47.9599 143.23 48.4554 143.653L54.442 148.777C54.9674 149.229 55.2981 149.763 55.4838 150.426L57.7224 158.598L59.1812 163.924C60.2422 163.426 61.4951 162.855 62.8652 162.252Z" fill="white"/>
<path d="M58.9084 162.847L62.1571 174.417L60.0881 163.444L58.9084 162.847Z" fill="black"/>
<mask id="path-7-inside-3_1233_2887" fill="white">
<path fill-rule="evenodd" clip-rule="evenodd" d="M73.5465 170.105L76.7298 169.32C77.2019 169.216 77.4544 169.668 77.3118 170.087L76.5057 172.454C76.4065 172.745 76.1308 173.048 75.8292 173.128L72.6581 173.907C72.1798 174.029 71.9059 173.58 72.0547 173.143L72.8609 170.776C72.9601 170.485 73.2358 170.182 73.5465 170.105Z"/>
</mask>
<path fill-rule="evenodd" clip-rule="evenodd" d="M73.5465 170.105L76.7298 169.32C77.2019 169.216 77.4544 169.668 77.3118 170.087L76.5057 172.454C76.4065 172.745 76.1308 173.048 75.8292 173.128L72.6581 173.907C72.1798 174.029 71.9059 173.58 72.0547 173.143L72.8609 170.776C72.9601 170.485 73.2358 170.182 73.5465 170.105Z" fill="#9E3E63" stroke="black" stroke-width="0.691728" mask="url(#path-7-inside-3_1233_2887)"/>
<path fill-rule="evenodd" clip-rule="evenodd" d="M73.5819 170.476L75.5027 170.002C75.7875 169.94 75.9399 170.212 75.8538 170.465L75.3674 171.893C75.3076 172.069 75.1412 172.251 74.9593 172.3L73.0459 172.77C72.7573 172.843 72.5921 172.572 72.6819 172.309L73.1683 170.881C73.2281 170.705 73.3945 170.522 73.5819 170.476Z" fill="#F39DB1"/>
<path d="M73.7888 170.65C73.5797 170.702 73.3942 170.905 73.3274 171.102L73.0562 171.898L73.7847 170.962L74.8599 170.386L73.7888 170.65Z" fill="white"/>
<mask id="path-10-inside-4_1233_2887" fill="white">
<path fill-rule="evenodd" clip-rule="evenodd" d="M68.3199 171.337L71.5033 170.552C71.9753 170.448 72.2279 170.9 72.0853 171.319L71.2791 173.686C71.1799 173.977 70.9042 174.28 70.6026 174.36L67.4315 175.139C66.9532 175.261 66.6793 174.812 66.8282 174.375L67.6343 172.008C67.7335 171.716 68.0092 171.414 68.3199 171.337Z"/>
</mask>
<path fill-rule="evenodd" clip-rule="evenodd" d="M68.3199 171.337L71.5033 170.552C71.9753 170.448 72.2279 170.9 72.0853 171.319L71.2791 173.686C71.1799 173.977 70.9042 174.28 70.6026 174.36L67.4315 175.139C66.9532 175.261 66.6793 174.812 66.8282 174.375L67.6343 172.008C67.7335 171.716 68.0092 171.414 68.3199 171.337Z" fill="#9E3E63" stroke="black" stroke-width="0.691728" mask="url(#path-10-inside-4_1233_2887)"/>
<path fill-rule="evenodd" clip-rule="evenodd" d="M68.3554 171.708L70.2761 171.234C70.561 171.172 70.7133 171.444 70.6273 171.697L70.1409 173.125C70.081 173.301 69.9147 173.483 69.7327 173.532L67.8193 174.002C67.5308 174.075 67.3655 173.804 67.4553 173.541L67.9417 172.113C68.0016 171.937 68.1679 171.754 68.3554 171.708Z" fill="#F39DB1"/>
<path d="M68.5623 171.882C68.3532 171.934 68.1676 172.137 68.1009 172.333L67.8297 173.13L68.5581 172.194L69.6333 171.618L68.5623 171.882Z" fill="white"/>
<mask id="path-13-inside-5_1233_2887" fill="white">
<path fill-rule="evenodd" clip-rule="evenodd" d="M78.7711 168.875L81.9544 168.089C82.4265 167.986 82.6791 168.438 82.5364 168.857L81.7303 171.224C81.6311 171.515 81.3554 171.817 81.0538 171.897L77.8827 172.677C77.4044 172.798 77.1305 172.349 77.2794 171.912L78.0855 169.545C78.1847 169.254 78.4604 168.952 78.7711 168.875Z"/>
</mask>
<path fill-rule="evenodd" clip-rule="evenodd" d="M78.7711 168.875L81.9544 168.089C82.4265 167.986 82.6791 168.438 82.5364 168.857L81.7303 171.224C81.6311 171.515 81.3554 171.817 81.0538 171.897L77.8827 172.677C77.4044 172.798 77.1305 172.349 77.2794 171.912L78.0855 169.545C78.1847 169.254 78.4604 168.952 78.7711 168.875Z" fill="#9E3E63" stroke="black" stroke-width="0.691728" mask="url(#path-13-inside-5_1233_2887)"/>
<path fill-rule="evenodd" clip-rule="evenodd" d="M78.8066 169.245L80.7273 168.772C81.0121 168.709 81.1645 168.982 81.0784 169.234L80.5921 170.663C80.5322 170.838 80.3659 171.021 80.1839 171.069L78.2705 171.539C77.9819 171.613 77.8167 171.342 77.9065 171.078L78.3929 169.65C78.4527 169.474 78.6191 169.292 78.8066 169.245Z" fill="#F39DB1"/>
<path d="M79.0134 169.42C78.8043 169.472 78.6188 169.675 78.5521 169.871L78.2808 170.667L79.0093 169.732L80.0845 169.155L79.0134 169.42Z" fill="white"/>
<mask id="path-16-outside-6_1233_2887" maskUnits="userSpaceOnUse" x="119.87" y="144.637" width="38.1799" height="38.1799" fill="black">
<rect fill="white" x="119.87" y="144.637" width="38.1799" height="38.1799"/>
<path fill-rule="evenodd" clip-rule="evenodd" d="M144.358 154.215L128.634 158.078C127.77 158.262 127.209 159.096 127.344 159.969L129.01 170.146C129.127 170.862 129.658 171.389 130.361 171.516L145.26 171.988L144.358 154.215Z"/>
</mask>
<path fill-rule="evenodd" clip-rule="evenodd" d="M144.358 154.215L128.634 158.078C127.77 158.262 127.209 159.096 127.344 159.969L129.01 170.146C129.127 170.862 129.658 171.389 130.361 171.516L145.26 171.988L144.358 154.215Z" fill="#6D6E70"/>
<path fill-rule="evenodd" clip-rule="evenodd" d="M144.358 154.215L128.634 158.078C127.77 158.262 127.209 159.096 127.344 159.969L129.01 170.146C129.127 170.862 129.658 171.389 130.361 171.516L145.26 171.988L144.358 154.215Z" stroke="black" stroke-width="3" mask="url(#path-16-outside-6_1233_2887)"/>
<path d="M128.634 158.078L144.358 154.215L127.572 161.361L127.344 159.969C127.209 159.096 127.77 158.262 128.634 158.078Z" fill="white"/>
<mask id="path-18-outside-7_1233_2887" maskUnits="userSpaceOnUse" x="132.686" y="127.226" width="65.148" height="64.9464" fill="black">
<rect fill="white" x="132.686" y="127.226" width="65.148" height="64.9464"/>
<path fill-rule="evenodd" clip-rule="evenodd" d="M148.038 153.573L170.84 163.924L174.538 150.426C174.723 149.763 175.054 149.229 175.579 148.777L181.566 143.653C182.062 143.23 182.799 143.691 182.643 144.325L174.578 175.795C174.122 177.55 172.334 178.631 170.578 178.195L145.26 171.97C144.567 171.793 144.014 171.482 143.512 170.966L137.867 165.158C136.594 163.847 136.624 161.733 137.934 160.459L144.358 154.216C145.351 153.251 146.774 153.007 148.038 153.573Z"/>
</mask>
<path fill-rule="evenodd" clip-rule="evenodd" d="M148.038 153.573L170.84 163.924L174.538 150.426C174.723 149.763 175.054 149.229 175.579 148.777L181.566 143.653C182.062 143.23 182.799 143.691 182.643 144.325L174.578 175.795C174.122 177.55 172.334 178.631 170.578 178.195L145.26 171.97C144.567 171.793 144.014 171.482 143.512 170.966L137.867 165.158C136.594 163.847 136.624 161.733 137.934 160.459L144.358 154.216C145.351 153.251 146.774 153.007 148.038 153.573Z" fill="#6D6E70"/>
<path fill-rule="evenodd" clip-rule="evenodd" d="M148.038 153.573L170.84 163.924L174.538 150.426C174.723 149.763 175.054 149.229 175.579 148.777L181.566 143.653C182.062 143.23 182.799 143.691 182.643 144.325L174.578 175.795C174.122 177.55 172.334 178.631 170.578 178.195L145.26 171.97C144.567 171.793 144.014 171.482 143.512 170.966L137.867 165.158C136.594 163.847 136.624 161.733 137.934 160.459L144.358 154.216C145.351 153.251 146.774 153.007 148.038 153.573Z" stroke="black" stroke-width="3" mask="url(#path-18-outside-7_1233_2887)"/>
<path d="M170.578 178.195C172.334 178.631 174.122 177.55 174.578 175.794L176.571 168.016C174.074 171.903 173.306 176.135 165.898 174.968C159.971 174.035 149.67 172.58 145.26 171.969L170.578 178.195Z" fill="#404041"/>
<path d="M167.156 162.252L148.038 153.573C146.774 153.007 145.351 153.251 144.358 154.216L138.967 159.455C140.131 158.74 143.311 157.038 146.721 155.955C149.585 155.046 159.979 159.091 167.156 162.252L170.84 163.924L172.299 158.598C173.247 156.943 175.583 153.025 177.346 150.595C179.109 148.164 181.153 147.193 181.955 147.011L182.643 144.325C182.799 143.691 182.062 143.23 181.566 143.653L175.579 148.777C175.054 149.229 174.723 149.763 174.538 150.426L172.299 158.598L170.84 163.924C169.779 163.426 168.526 162.855 167.156 162.252Z" fill="white"/>
<path d="M171.113 162.847L167.864 174.417L169.933 163.444L171.113 162.847Z" fill="black"/>
<mask id="path-22-inside-8_1233_2887" fill="white">
<path fill-rule="evenodd" clip-rule="evenodd" d="M156.475 170.105L153.292 169.32C152.82 169.216 152.567 169.668 152.71 170.087L153.516 172.454C153.615 172.745 153.891 173.048 154.192 173.128L157.363 173.907C157.842 174.029 158.116 173.58 157.967 173.143L157.161 170.776C157.061 170.485 156.786 170.182 156.475 170.105Z"/>
</mask>
<path fill-rule="evenodd" clip-rule="evenodd" d="M156.475 170.105L153.292 169.32C152.82 169.216 152.567 169.668 152.71 170.087L153.516 172.454C153.615 172.745 153.891 173.048 154.192 173.128L157.363 173.907C157.842 174.029 158.116 173.58 157.967 173.143L157.161 170.776C157.061 170.485 156.786 170.182 156.475 170.105Z" fill="#9E3E63" stroke="black" stroke-width="0.691728" mask="url(#path-22-inside-8_1233_2887)"/>
<path fill-rule="evenodd" clip-rule="evenodd" d="M156.44 170.476L154.519 170.002C154.234 169.94 154.082 170.212 154.168 170.465L154.654 171.893C154.714 172.069 154.88 172.251 155.062 172.3L156.976 172.77C157.264 172.843 157.429 172.572 157.34 172.309L156.853 170.881C156.793 170.705 156.627 170.522 156.44 170.476Z" fill="#F39DB1"/>
<path d="M156.233 170.65C156.442 170.702 156.627 170.905 156.694 171.102L156.965 171.898L156.237 170.962L155.162 170.386L156.233 170.65Z" fill="white"/>
<mask id="path-25-inside-9_1233_2887" fill="white">
<path fill-rule="evenodd" clip-rule="evenodd" d="M161.702 171.337L158.518 170.552C158.046 170.448 157.794 170.9 157.936 171.319L158.742 173.686C158.842 173.977 159.117 174.28 159.419 174.36L162.59 175.139C163.068 175.261 163.342 174.812 163.193 174.375L162.387 172.008C162.288 171.716 162.012 171.414 161.702 171.337Z"/>
</mask>
<path fill-rule="evenodd" clip-rule="evenodd" d="M161.702 171.337L158.518 170.552C158.046 170.448 157.794 170.9 157.936 171.319L158.742 173.686C158.842 173.977 159.117 174.28 159.419 174.36L162.59 175.139C163.068 175.261 163.342 174.812 163.193 174.375L162.387 172.008C162.288 171.716 162.012 171.414 161.702 171.337Z" fill="#9E3E63" stroke="black" stroke-width="0.691728" mask="url(#path-25-inside-9_1233_2887)"/>
<path fill-rule="evenodd" clip-rule="evenodd" d="M161.666 171.708L159.745 171.234C159.461 171.172 159.308 171.444 159.394 171.697L159.881 173.125C159.94 173.301 160.107 173.483 160.289 173.532L162.202 174.002C162.491 174.075 162.656 173.804 162.566 173.541L162.08 172.113C162.02 171.937 161.854 171.754 161.666 171.708Z" fill="#F39DB1"/>
<path d="M161.459 171.882C161.668 171.934 161.854 172.137 161.921 172.333L162.192 173.13L161.463 172.194L160.388 171.618L161.459 171.882Z" fill="white"/>
<mask id="path-28-inside-10_1233_2887" fill="white">
<path fill-rule="evenodd" clip-rule="evenodd" d="M151.25 168.875L148.067 168.089C147.595 167.986 147.342 168.438 147.485 168.857L148.291 171.224C148.39 171.515 148.666 171.817 148.968 171.897L152.139 172.677C152.617 172.798 152.891 172.349 152.742 171.912L151.936 169.545C151.837 169.254 151.561 168.952 151.25 168.875Z"/>
</mask>
<path fill-rule="evenodd" clip-rule="evenodd" d="M151.25 168.875L148.067 168.089C147.595 167.986 147.342 168.438 147.485 168.857L148.291 171.224C148.39 171.515 148.666 171.817 148.968 171.897L152.139 172.677C152.617 172.798 152.891 172.349 152.742 171.912L151.936 169.545C151.837 169.254 151.561 168.952 151.25 168.875Z" fill="#9E3E63" stroke="black" stroke-width="0.691728" mask="url(#path-28-inside-10_1233_2887)"/>
<path fill-rule="evenodd" clip-rule="evenodd" d="M151.215 169.245L149.294 168.772C149.009 168.709 148.857 168.982 148.943 169.234L149.429 170.663C149.489 170.838 149.656 171.021 149.838 171.069L151.751 171.539C152.04 171.613 152.205 171.342 152.115 171.078L151.629 169.65C151.569 169.474 151.402 169.292 151.215 169.245Z" fill="#F39DB1"/>
<path d="M151.008 169.42C151.217 169.472 151.403 169.675 151.469 169.871L151.741 170.667L151.012 169.732L149.937 169.155L151.008 169.42Z" fill="white"/>

        
<mask id="path-1-outside-1_1233_2887" maskUnits="userSpaceOnUse" x="105.4" y="170.678" width="19" height="20" fill="black">
<rect fill="white" x="105.4" y="170.678" width="19" height="20"/>
<path d="M107.4 172.678H122.2L114.801 188.5L107.4 172.678Z"/>
</mask>
<path d="M107.4 172.678H122.2L114.801 188.5L107.4 172.678Z" fill="#6D6E70"/>
<path d="M107.4 172.678H122.2L114.801 188.5L107.4 172.678Z" stroke="black" stroke-width="3" stroke-linejoin="round" mask="url(#path-1-outside-1_1233_2887)"/>
<path d="M114.801 188.5L107.4 172.678H110.5L114.801 188.5Z" fill="#BBBDBF"/>
<path d="M114.801 188.5L122.201 172.678H119.101L114.801 188.5Z" fill="#404041"/>
<mask id="path-4-outside-2_1233_2887" maskUnits="userSpaceOnUse" x="94.5293" y="126" width="41" height="52" fill="black">
<rect fill="white" x="94.5293" y="126" width="41" height="52"/>
<path fill-rule="evenodd" clip-rule="evenodd" d="M101.472 145.957C100.115 146.649 98.7721 147.341 97.4154 148.033C96.8477 148.324 96.5293 148.809 96.5293 149.376C96.5293 153.045 96.5293 156.728 96.5293 160.397C96.5293 160.826 96.6954 161.186 97.0415 161.49C97.6092 161.989 98.163 162.487 98.7306 162.972C98.7306 166.184 98.7306 169.41 98.7306 172.622C98.7306 176.996 131.127 176.996 131.127 172.622C131.127 169.41 131.127 166.184 131.127 162.972C131.681 162.473 132.249 161.975 132.816 161.49C133.162 161.186 133.329 160.826 133.329 160.397C133.329 156.728 133.329 153.045 133.329 149.376C133.329 148.809 133.01 148.324 132.442 148.033C131.086 147.341 129.743 146.649 128.386 145.957C128.386 140.488 128.386 135.019 128.386 129.564C128.386 128.706 127.569 128 126.558 128C118.805 128 111.066 128 103.313 128C102.303 128 101.486 128.706 101.486 129.564C101.472 135.019 101.472 140.488 101.472 145.957Z"/>
</mask>
<path fill-rule="evenodd" clip-rule="evenodd" d="M101.472 145.957C100.115 146.649 98.7721 147.341 97.4154 148.033C96.8477 148.324 96.5293 148.809 96.5293 149.376C96.5293 153.045 96.5293 156.728 96.5293 160.397C96.5293 160.826 96.6954 161.186 97.0415 161.49C97.6092 161.989 98.163 162.487 98.7306 162.972C98.7306 166.184 98.7306 169.41 98.7306 172.622C98.7306 176.996 131.127 176.996 131.127 172.622C131.127 169.41 131.127 166.184 131.127 162.972C131.681 162.473 132.249 161.975 132.816 161.49C133.162 161.186 133.329 160.826 133.329 160.397C133.329 156.728 133.329 153.045 133.329 149.376C133.329 148.809 133.01 148.324 132.442 148.033C131.086 147.341 129.743 146.649 128.386 145.957C128.386 140.488 128.386 135.019 128.386 129.564C128.386 128.706 127.569 128 126.558 128C118.805 128 111.066 128 103.313 128C102.303 128 101.486 128.706 101.486 129.564C101.472 135.019 101.472 140.488 101.472 145.957Z" fill="#6D6E70"/>
<path fill-rule="evenodd" clip-rule="evenodd" d="M101.472 145.957C100.115 146.649 98.7721 147.341 97.4154 148.033C96.8477 148.324 96.5293 148.809 96.5293 149.376C96.5293 153.045 96.5293 156.728 96.5293 160.397C96.5293 160.826 96.6954 161.186 97.0415 161.49C97.6092 161.989 98.163 162.487 98.7306 162.972C98.7306 166.184 98.7306 169.41 98.7306 172.622C98.7306 176.996 131.127 176.996 131.127 172.622C131.127 169.41 131.127 166.184 131.127 162.972C131.681 162.473 132.249 161.975 132.816 161.49C133.162 161.186 133.329 160.826 133.329 160.397C133.329 156.728 133.329 153.045 133.329 149.376C133.329 148.809 133.01 148.324 132.442 148.033C131.086 147.341 129.743 146.649 128.386 145.957C128.386 140.488 128.386 135.019 128.386 129.564C128.386 128.706 127.569 128 126.558 128C118.805 128 111.066 128 103.313 128C102.303 128 101.486 128.706 101.486 129.564C101.472 135.019 101.472 140.488 101.472 145.957Z" stroke="black" stroke-width="3" mask="url(#path-4-outside-2_1233_2887)"/>
<mask id="path-5-outside-3_1233_2887" maskUnits="userSpaceOnUse" x="94.5293" y="126" width="41" height="52" fill="black">
<rect fill="white" x="94.5293" y="126" width="41" height="52"/>
<path fill-rule="evenodd" clip-rule="evenodd" d="M101.472 145.957C100.115 146.649 98.7721 147.341 97.4154 148.033C96.8477 148.324 96.5293 148.809 96.5293 149.376C96.5293 153.045 96.5293 156.728 96.5293 160.397C96.5293 160.826 96.6954 161.186 97.0415 161.49C97.6092 161.989 98.163 162.487 98.7306 162.972C98.7306 166.184 98.7306 169.41 98.7306 172.622C98.7306 176.996 131.127 176.996 131.127 172.622C131.127 169.41 131.127 166.184 131.127 162.972C131.681 162.473 132.249 161.975 132.816 161.49C133.162 161.186 133.329 160.826 133.329 160.397C133.329 156.728 133.329 153.045 133.329 149.376C133.329 148.809 133.01 148.324 132.442 148.033C131.086 147.341 129.743 146.649 128.386 145.957C128.386 140.488 128.386 135.019 128.386 129.564C128.386 128.706 127.569 128 126.558 128C118.805 128 111.066 128 103.313 128C102.303 128 101.486 128.706 101.486 129.564C101.472 135.019 101.472 140.488 101.472 145.957Z"/>
</mask>
<path fill-rule="evenodd" clip-rule="evenodd" d="M101.472 145.957C100.115 146.649 98.7721 147.341 97.4154 148.033C96.8477 148.324 96.5293 148.809 96.5293 149.376C96.5293 153.045 96.5293 156.728 96.5293 160.397C96.5293 160.826 96.6954 161.186 97.0415 161.49C97.6092 161.989 98.163 162.487 98.7306 162.972C98.7306 166.184 98.7306 169.41 98.7306 172.622C98.7306 176.996 131.127 176.996 131.127 172.622C131.127 169.41 131.127 166.184 131.127 162.972C131.681 162.473 132.249 161.975 132.816 161.49C133.162 161.186 133.329 160.826 133.329 160.397C133.329 156.728 133.329 153.045 133.329 149.376C133.329 148.809 133.01 148.324 132.442 148.033C131.086 147.341 129.743 146.649 128.386 145.957C128.386 140.488 128.386 135.019 128.386 129.564C128.386 128.706 127.569 128 126.558 128C118.805 128 111.066 128 103.313 128C102.303 128 101.486 128.706 101.486 129.564C101.472 135.019 101.472 140.488 101.472 145.957Z" fill="#6D6E70"/>
<path fill-rule="evenodd" clip-rule="evenodd" d="M101.472 145.957C100.115 146.649 98.7721 147.341 97.4154 148.033C96.8477 148.324 96.5293 148.809 96.5293 149.376C96.5293 153.045 96.5293 156.728 96.5293 160.397C96.5293 160.826 96.6954 161.186 97.0415 161.49C97.6092 161.989 98.163 162.487 98.7306 162.972C98.7306 166.184 98.7306 169.41 98.7306 172.622C98.7306 176.996 131.127 176.996 131.127 172.622C131.127 169.41 131.127 166.184 131.127 162.972C131.681 162.473 132.249 161.975 132.816 161.49C133.162 161.186 133.329 160.826 133.329 160.397C133.329 156.728 133.329 153.045 133.329 149.376C133.329 148.809 133.01 148.324 132.442 148.033C131.086 147.341 129.743 146.649 128.386 145.957C128.386 140.488 128.386 135.019 128.386 129.564C128.386 128.706 127.569 128 126.558 128C118.805 128 111.066 128 103.313 128C102.303 128 101.486 128.706 101.486 129.564C101.472 135.019 101.472 140.488 101.472 145.957Z" stroke="black" stroke-width="3" mask="url(#path-5-outside-3_1233_2887)"/>
<path d="M97.4154 148.033C98.7721 147.341 100.115 146.649 101.472 145.957C101.472 140.488 101.472 135.019 101.486 129.564C101.486 128.706 102.303 128 103.313 128L104 146.967L98.7306 150.467V162.972L100.5 165.467V174.219C99.3818 173.774 98.7306 173.242 98.7306 172.622V162.972C98.163 162.487 97.6092 161.989 97.0415 161.49C96.6954 161.186 96.5293 160.826 96.5293 160.397V149.376C96.5293 148.809 96.8477 148.324 97.4154 148.033Z" fill="#BBBDBF"/>
<path d="M131.128 162.972V172.622C131.128 174.818 122.965 175.911 114.834 175.903V128H126.559C127.57 128 128.387 128.706 128.387 129.564V145.957C129.744 146.649 131.087 147.341 132.443 148.033C133.011 148.324 133.33 148.809 133.33 149.376V160.397C133.33 160.826 133.163 161.186 132.817 161.49C132.25 161.975 131.682 162.473 131.128 162.972Z" fill="#404041"/>
<path d="M132.385 148.033C131.029 147.341 129.686 146.649 128.329 145.957C128.329 140.488 128.329 135.019 128.315 129.564C128.315 128.706 127.498 128 126.488 128L125.801 146.967L131.07 150.467V162.972L129.301 165.467V174.219C130.419 173.774 131.07 173.242 131.07 172.622V162.972C131.638 162.487 132.192 161.989 132.759 161.49C133.105 161.186 133.271 160.826 133.271 160.397V149.376C133.271 148.809 132.953 148.324 132.385 148.033Z" fill="#231F20"/>
<rect x="101.85" y="155.317" width="1.7" height="4.3" rx="0.65" fill="black" stroke="black" stroke-width="0.3"/>
<rect x="101.801" y="155.467" width="1.4" height="4" rx="0.5" fill="#9E3E63"/>
<path fill-rule="evenodd" clip-rule="evenodd" d="M102.177 156.174H102.559C102.715 156.174 102.845 156.238 102.845 156.314V158.962C102.845 159.039 102.715 159.103 102.559 159.103H102.177C102.021 159.103 101.891 159.039 101.891 158.962V156.317C101.891 156.238 102.021 156.174 102.177 156.174Z" fill="#F39DB1"/>
<path d="M102.526 156.275C102.614 156.275 102.685 156.207 102.685 156.124C102.685 156.04 102.614 155.972 102.526 155.972C102.438 155.972 102.367 156.04 102.367 156.124C102.367 156.207 102.438 156.275 102.526 156.275Z" fill="white"/>
<path d="M102.049 158.725V157.419C102.049 157.306 102.25 157.124 102.569 156.944C102.603 156.921 102.642 156.9 102.685 156.881C102.645 156.902 102.606 156.923 102.569 156.944C102.325 157.102 102.293 157.32 102.312 157.419L102.312 158.725C102.293 158.825 102.421 158.952 102.85 159.023C102.5 159.023 102.049 158.839 102.049 158.725Z" fill="white"/>
<rect x="125.85" y="155.318" width="1.7" height="4.3" rx="0.65" fill="black" stroke="black" stroke-width="0.3"/>
<rect x="126.199" y="155.467" width="1.4" height="4" rx="0.5" fill="#9E3E63"/>
<path fill-rule="evenodd" clip-rule="evenodd" d="M126.575 156.174H126.957C127.113 156.174 127.243 156.238 127.243 156.314V158.962C127.243 159.039 127.113 159.103 126.957 159.103H126.575C126.419 159.103 126.289 159.039 126.289 158.962V156.317C126.289 156.238 126.419 156.174 126.575 156.174Z" fill="#F39DB1"/>
<path d="M126.925 156.275C127.013 156.275 127.084 156.207 127.084 156.124C127.084 156.04 127.013 155.972 126.925 155.972C126.837 155.972 126.766 156.04 126.766 156.124C126.766 156.207 126.837 156.275 126.925 156.275Z" fill="white"/>
<path d="M126.447 158.725V157.419C126.447 157.306 126.649 157.124 126.967 156.944C127.002 156.921 127.04 156.9 127.084 156.881C127.043 156.902 127.004 156.923 126.967 156.944C126.724 157.102 126.692 157.32 126.71 157.419L126.71 158.725C126.692 158.825 126.819 158.952 127.249 159.023C126.899 159.023 126.447 158.839 126.447 158.725Z" fill="white"/>
<path d="M97.6309 162.622C97.6309 166.997 132.227 166.997 132.227 162.622" stroke="black" stroke-width="1.5"/>
<mask id="path-20-inside-4_1233_2887" fill="white">
<path d="M132.227 164.921C132.227 169.296 97.6309 169.296 97.6309 164.921V161.821C97.6309 166.196 132.227 166.196 132.227 161.821V164.921Z"/>
</mask>
<path d="M132.227 164.921C132.227 169.296 97.6309 169.296 97.6309 164.921V161.821C97.6309 166.196 132.227 166.196 132.227 161.821V164.921Z" fill="#404041" stroke="black" stroke-width="2" mask="url(#path-20-inside-4_1233_2887)"/>
<path d="M100.631 144.867C100.631 149.242 129.227 149.242 129.227 144.867" stroke="black"/>
<path d="M96 148.466C96 150.654 105.5 152.748 115 152.748C124.5 152.748 134 150.654 134 148.466" stroke="black"/>
<path d="M114.701 165.168V167.468" stroke="black"/>
<path d="M118.701 165.168V167.468" stroke="black"/>
<path d="M122.701 165.168V167.468" stroke="black"/>
<path d="M126.701 164.968V167.268" stroke="black"/>
<path d="M130.701 163.668V165.968" stroke="black"/>
<path d="M110.701 165.168V167.468" stroke="black"/>
<path d="M106.701 165.168V167.468" stroke="black"/>
<path d="M102.701 164.968V167.268" stroke="black"/>
<path d="M98.7012 164.168V166.468" stroke="black"/>

        
<mask id="path-1-outside-1_1233_2887" maskUnits="userSpaceOnUse" x="92" y="42.3003" width="27" height="21" fill="black">
<rect fill="white" x="92" y="42.3003" width="27" height="21"/>
<path d="M117.271 44.4496C117.271 44.3784 117.199 44.33 117.133 44.3571L94.0619 53.8543C94.0245 53.8697 94 53.9062 94 53.9467V61.0228C94 61.078 94.0448 61.1228 94.1 61.1228H117.171C117.226 61.1228 117.271 61.078 117.271 61.0228V44.4496Z"/>
</mask>
<path d="M117.271 44.4496C117.271 44.3784 117.199 44.33 117.133 44.3571L94.0619 53.8543C94.0245 53.8697 94 53.9062 94 53.9467V61.0228C94 61.078 94.0448 61.1228 94.1 61.1228H117.171C117.226 61.1228 117.271 61.078 117.271 61.0228V44.4496Z" fill="#6D6E70"/>
<path d="M117.271 44.4496C117.271 44.3784 117.199 44.33 117.133 44.3571L94.0619 53.8543C94.0245 53.8697 94 53.9062 94 53.9467V61.0228C94 61.078 94.0448 61.1228 94.1 61.1228H117.171C117.226 61.1228 117.271 61.078 117.271 61.0228V44.4496Z" stroke="black" stroke-width="3" mask="url(#path-1-outside-1_1233_2887)"/>
<path d="M94 53.8798L117.271 44.3003L95.4 54.9004L94 61.1228V53.8798Z" fill="white"/>
<path d="M117.271 44.3003V61.1228H101.223L104 49.7633L117.271 44.3003Z" fill="#404041"/>
<mask id="path-4-outside-2_1233_2887" maskUnits="userSpaceOnUse" x="111.57" y="42.3003" width="27" height="21" fill="black">
<rect fill="white" x="111.57" y="42.3003" width="27" height="21"/>
<path d="M113.299 44.4496C113.299 44.3784 113.371 44.33 113.437 44.3571L136.508 53.8543C136.546 53.8697 136.57 53.9062 136.57 53.9467V61.0228C136.57 61.078 136.526 61.1228 136.47 61.1228H113.399C113.344 61.1228 113.299 61.078 113.299 61.0228V44.4496Z"/>
</mask>
<path d="M113.299 44.4496C113.299 44.3784 113.371 44.33 113.437 44.3571L136.508 53.8543C136.546 53.8697 136.57 53.9062 136.57 53.9467V61.0228C136.57 61.078 136.526 61.1228 136.47 61.1228H113.399C113.344 61.1228 113.299 61.078 113.299 61.0228V44.4496Z" fill="#6D6E70"/>
<path d="M113.299 44.4496C113.299 44.3784 113.371 44.33 113.437 44.3571L136.508 53.8543C136.546 53.8697 136.57 53.9062 136.57 53.9467V61.0228C136.57 61.078 136.526 61.1228 136.47 61.1228H113.399C113.344 61.1228 113.299 61.078 113.299 61.0228V44.4496Z" stroke="black" stroke-width="3" mask="url(#path-4-outside-2_1233_2887)"/>
<path d="M136.57 53.8798L113.299 44.3003L135.17 54.9004L136.57 61.1228V53.8798Z" fill="white"/>
<path d="M113.299 44.3003V61.1228H129.348L126.57 49.7633L113.299 44.3003Z" fill="#404041"/>
<mask id="path-7-outside-3_1233_2887" maskUnits="userSpaceOnUse" x="107.67" y="21.4004" width="15" height="33" fill="black">
<rect fill="white" x="107.67" y="21.4004" width="15" height="33"/>
<path fill-rule="evenodd" clip-rule="evenodd" d="M115.277 23.4004C114.723 23.4004 112.619 28.6752 112.619 31.5411V37.079C111.137 38.0896 109.67 39.4879 109.67 40.4294C109.67 44.3059 109.67 48.1824 109.67 52.0589C113.408 52.0589 117.16 52.0589 120.898 52.0589C120.898 48.1824 120.898 44.3059 120.898 40.4294C120.898 39.4879 119.417 38.0896 117.949 37.079V31.5411C117.935 28.6614 115.831 23.4004 115.277 23.4004Z"/>
</mask>
<path fill-rule="evenodd" clip-rule="evenodd" d="M115.277 23.4004C114.723 23.4004 112.619 28.6752 112.619 31.5411V37.079C111.137 38.0896 109.67 39.4879 109.67 40.4294C109.67 44.3059 109.67 48.1824 109.67 52.0589C113.408 52.0589 117.16 52.0589 120.898 52.0589C120.898 48.1824 120.898 44.3059 120.898 40.4294C120.898 39.4879 119.417 38.0896 117.949 37.079V31.5411C117.935 28.6614 115.831 23.4004 115.277 23.4004Z" fill="#6D6E70"/>
<path fill-rule="evenodd" clip-rule="evenodd" d="M115.277 23.4004C114.723 23.4004 112.619 28.6752 112.619 31.5411V37.079C111.137 38.0896 109.67 39.4879 109.67 40.4294C109.67 44.3059 109.67 48.1824 109.67 52.0589C113.408 52.0589 117.16 52.0589 120.898 52.0589C120.898 48.1824 120.898 44.3059 120.898 40.4294C120.898 39.4879 119.417 38.0896 117.949 37.079V31.5411C117.935 28.6614 115.831 23.4004 115.277 23.4004Z" stroke="black" stroke-width="3" mask="url(#path-7-outside-3_1233_2887)"/>
<path d="M112.702 28.3994H117.951V28.7592H112.702V28.3994Z" fill="#BBBDBF"/>
<path d="M112.702 30.2256H117.951V30.5853H112.702V30.2256Z" fill="#BBBDBF"/>
<path d="M112.702 32.0664H117.951V32.4262H112.702V32.0664Z" fill="#BBBDBF"/>
<path d="M112.702 33.8931H117.951V34.2528H112.702V33.8931Z" fill="#BBBDBF"/>
<path d="M112.702 35.7334H117.951V36.0932H112.702V35.7334Z" fill="#BBBDBF"/>
<mask id="path-13-outside-4_1233_2887" maskUnits="userSpaceOnUse" x="107.67" y="21.4004" width="15" height="33" fill="black">
<rect fill="white" x="107.67" y="21.4004" width="15" height="33"/>
<path fill-rule="evenodd" clip-rule="evenodd" d="M115.277 23.4004C114.723 23.4004 112.619 28.6752 112.619 31.5411V37.079C111.137 38.0896 109.67 39.4879 109.67 40.4294C109.67 44.3059 109.67 48.1824 109.67 52.0589C113.408 52.0589 117.16 52.0589 120.898 52.0589C120.898 48.1824 120.898 44.3059 120.898 40.4294C120.898 39.4879 119.417 38.0896 117.949 37.079V31.5411C117.935 28.6614 115.831 23.4004 115.277 23.4004Z"/>
</mask>
<path fill-rule="evenodd" clip-rule="evenodd" d="M115.277 23.4004C114.723 23.4004 112.619 28.6752 112.619 31.5411V37.079C111.137 38.0896 109.67 39.4879 109.67 40.4294C109.67 44.3059 109.67 48.1824 109.67 52.0589C113.408 52.0589 117.16 52.0589 120.898 52.0589C120.898 48.1824 120.898 44.3059 120.898 40.4294C120.898 39.4879 119.417 38.0896 117.949 37.079V31.5411C117.935 28.6614 115.831 23.4004 115.277 23.4004Z" stroke="black" stroke-width="3" mask="url(#path-13-outside-4_1233_2887)"/>
<path d="M112.619 31.5411C112.619 28.6752 114.723 23.4004 115.277 23.4004V52.0589H109.67V40.4294C109.67 39.4879 111.137 38.0896 112.619 37.079V31.5411Z" fill="#BBBDBF"/>
<mask id="path-15-outside-5_1233_2887" maskUnits="userSpaceOnUse" x="95.5" y="39.98" width="40" height="101" fill="black">
<rect fill="white" x="95.5" y="39.98" width="40" height="101"/>
<path d="M112.84 49.0269C112.826 50.2176 112.549 52.0589 115.277 52.0589C118.004 52.0589 117.727 50.2176 117.741 49.0269V41.98C119.444 41.98 122.808 42.2707 123.113 44.472C126.602 69.3925 127.571 85.4247 127.585 110.774C127.585 111.273 127.751 111.688 128.097 112.048C129.758 113.765 131.42 115.468 133.081 117.184V129.354C131.433 131.472 129.786 133.604 128.138 135.723C128.138 140.095 102.459 140.075 102.431 135.708C100.787 133.594 99.1436 131.467 97.5 129.354V117.184C99.1614 115.468 100.823 113.765 102.484 112.048C102.83 111.688 102.996 111.273 102.996 110.774C103.01 85.4109 103.979 69.3925 107.468 44.472C107.773 42.2707 111.137 41.98 112.84 41.98V49.0269Z"/>
</mask>
<path d="M112.84 49.0269C112.826 50.2176 112.549 52.0589 115.277 52.0589C118.004 52.0589 117.727 50.2176 117.741 49.0269V41.98C119.444 41.98 122.808 42.2707 123.113 44.472C126.602 69.3925 127.571 85.4247 127.585 110.774C127.585 111.273 127.751 111.688 128.097 112.048C129.758 113.765 131.42 115.468 133.081 117.184V129.354C131.433 131.472 129.786 133.604 128.138 135.723C128.138 140.095 102.459 140.075 102.431 135.708C100.787 133.594 99.1436 131.467 97.5 129.354V117.184C99.1614 115.468 100.823 113.765 102.484 112.048C102.83 111.688 102.996 111.273 102.996 110.774C103.01 85.4109 103.979 69.3925 107.468 44.472C107.773 42.2707 111.137 41.98 112.84 41.98V49.0269Z" fill="#6D6E70"/>
<path d="M102.431 135.708L101.681 135.712L101.683 135.967L101.839 136.168L102.431 135.708ZM101.839 136.168C101.841 136.17 101.843 136.173 101.845 136.175C101.847 136.178 101.849 136.18 101.851 136.183L103.035 135.262C103.033 135.26 103.031 135.257 103.029 135.255C103.027 135.252 103.025 135.25 103.023 135.247L101.839 136.168ZM101.681 135.7C101.681 135.705 101.681 135.709 101.681 135.712L103.181 135.703C103.181 135.702 103.181 135.701 103.181 135.7H101.681ZM112.84 49.0269L114.34 49.0444L114.34 49.0357V49.0269H112.84ZM112.84 41.98H114.34V40.48H112.84V41.98ZM107.468 44.472L108.954 44.68L108.954 44.6776L107.468 44.472ZM102.996 110.774L101.496 110.774V110.774H102.996ZM102.484 112.048L103.562 113.091L103.565 113.088L102.484 112.048ZM97.5 117.184L96.4221 116.141L96 116.577V117.184H97.5ZM97.5 129.354H96V129.869L96.316 130.275L97.5 129.354ZM102.431 135.708L103.931 135.698L103.928 135.189L103.615 134.787L102.431 135.708ZM128.138 135.723L126.954 134.802L126.638 135.208V135.723H128.138ZM133.081 129.354L134.265 130.275L134.581 129.869V129.354H133.081ZM133.081 117.184H134.581V116.577L134.159 116.141L133.081 117.184ZM128.097 112.048L127.016 113.088L127.019 113.091L128.097 112.048ZM127.585 110.774L129.085 110.774L129.085 110.774L127.585 110.774ZM123.113 44.472L121.627 44.6776L121.627 44.68L123.113 44.472ZM117.741 41.98V40.48H116.241V41.98H117.741ZM117.741 49.0269L119.241 49.0444L119.241 49.0357V49.0269H117.741ZM115.277 50.5589C114.751 50.5589 114.523 50.4684 114.451 50.4301C114.411 50.4085 114.412 50.4047 114.402 50.3817C114.376 50.3228 114.341 50.1942 114.33 49.9382C114.317 49.6492 114.335 49.441 114.34 49.0444L111.34 49.0095C111.338 49.2082 111.316 49.6766 111.333 50.0678C111.351 50.4919 111.415 51.0469 111.659 51.5972C111.919 52.1833 112.361 52.7143 113.036 53.0752C113.679 53.4193 114.439 53.5589 115.277 53.5589V50.5589ZM114.34 49.0269V41.98H111.34V49.0269H114.34ZM112.84 40.48C111.937 40.48 110.487 40.5531 109.174 40.9713C107.914 41.3728 106.257 42.2819 105.982 44.2664L108.954 44.6776C108.984 44.4609 109.161 44.1239 110.085 43.8298C110.956 43.5522 112.04 43.48 112.84 43.48V40.48ZM105.983 44.2641C102.483 69.2606 101.51 85.3486 101.496 110.774L104.496 110.775C104.51 85.4731 105.475 69.5245 108.954 44.68L105.983 44.2641ZM101.496 110.774C101.496 110.853 101.484 110.889 101.478 110.904C101.472 110.919 101.456 110.953 101.403 111.008L103.565 113.088C104.182 112.447 104.496 111.658 104.496 110.774H101.496ZM101.406 111.005C100.577 111.862 99.7471 112.716 98.9163 113.571C98.0857 114.426 97.254 115.282 96.4221 116.141L98.5779 118.228C99.4074 117.37 100.237 116.517 101.068 115.662C101.898 114.807 102.73 113.951 103.562 113.091L101.406 111.005ZM96 117.184V129.354H99V117.184H96ZM96.316 130.275C97.1369 131.33 97.958 132.39 98.78 133.45C99.6016 134.51 100.424 135.571 101.247 136.628L103.615 134.787C102.794 133.731 101.973 132.672 101.151 131.612C100.329 130.552 99.5067 129.491 98.684 128.433L96.316 130.275ZM129.322 136.643C130.147 135.583 130.971 134.52 131.795 133.457C132.619 132.395 133.442 131.333 134.265 130.275L131.897 128.433C131.072 129.493 130.248 130.557 129.424 131.619C128.6 132.682 127.777 133.744 126.954 134.802L129.322 136.643ZM134.581 129.354V117.184H131.581V129.354H134.581ZM134.159 116.141C133.327 115.282 132.495 114.426 131.665 113.571C130.834 112.716 130.004 111.862 129.175 111.005L127.019 113.091C127.851 113.951 128.683 114.807 129.513 115.662C130.344 116.517 131.174 117.37 132.003 118.228L134.159 116.141ZM129.178 111.008C129.125 110.953 129.109 110.919 129.103 110.904C129.097 110.889 129.085 110.853 129.085 110.774H126.085C126.085 111.658 126.399 112.447 127.016 113.088L129.178 111.008ZM129.085 110.774C129.071 85.3625 128.098 69.2606 124.598 44.2641L121.627 44.68C125.105 69.5245 126.071 85.4869 126.085 110.775L129.085 110.774ZM124.599 44.2664C124.324 42.2819 122.667 41.3728 121.406 40.9713C120.094 40.5531 118.644 40.48 117.741 40.48V43.48C118.541 43.48 119.625 43.5522 120.496 43.8298C121.419 44.1239 121.597 44.4609 121.627 44.6776L124.599 44.2664ZM116.241 41.98V49.0269H119.241V41.98H116.241ZM116.241 49.0095C116.236 49.4329 116.253 49.6102 116.236 49.9211C116.222 50.1812 116.186 50.3128 116.158 50.3752C116.146 50.4019 116.145 50.4075 116.103 50.4297C116.031 50.4685 115.802 50.5589 115.277 50.5589V53.5589C116.115 53.5589 116.874 53.4192 117.517 53.0755C118.191 52.7153 118.633 52.1861 118.895 51.6037C119.14 51.0569 119.208 50.5049 119.231 50.0849C119.252 49.7157 119.239 49.2164 119.241 49.0444L116.241 49.0095ZM100.931 135.717C100.94 137.085 101.951 137.951 102.789 138.438C103.686 138.96 104.861 139.343 106.127 139.63C108.684 140.211 112.017 140.49 115.294 140.493C118.571 140.495 121.902 140.22 124.456 139.642C125.721 139.356 126.895 138.974 127.79 138.452C128.629 137.964 129.638 137.094 129.638 135.723H126.638C126.638 135.444 126.846 135.53 126.279 135.861C125.77 136.158 124.938 136.457 123.794 136.716C121.533 137.228 118.443 137.495 115.296 137.493C112.15 137.491 109.057 137.219 106.792 136.705C105.646 136.445 104.811 136.144 104.298 135.845C103.726 135.512 103.929 135.422 103.931 135.698L100.931 135.717Z" fill="black" mask="url(#path-15-outside-5_1233_2887)"/>
<path d="M102.996 110.775C103.01 85.4111 103.979 69.3927 107.468 44.4722C107.563 43.7869 107.954 43.2867 108.5 42.9229C107.986 52.8936 106.145 67.3094 105.477 80.4006C104.63 97.005 104.8 113.401 104.8 113.401L98.8 117.901V130.401L102.443 135.723C100.795 133.605 99.1475 131.472 97.5 129.354V117.185C99.1614 115.468 100.823 113.765 102.484 112.048C102.83 111.688 102.996 111.273 102.996 110.775Z" fill="#BBBDBF"/>
<path d="M133.082 129.354C131.434 131.472 129.787 133.604 128.139 135.723C128.139 137.911 121.707 138.999 115.277 138.993V52.0589C118.005 52.0589 117.728 50.2176 117.742 49.0269V41.98C119.445 41.98 122.809 42.2707 123.113 44.472C126.602 69.3925 127.571 85.4247 127.585 110.774C127.585 111.273 127.751 111.688 128.098 112.048C129.759 113.765 131.42 115.468 133.082 117.184V129.354Z" fill="#404041"/>
<path d="M127.603 110.775C127.589 85.4111 126.62 69.3927 123.131 44.4722C123.037 43.7869 122.645 43.2867 122.1 42.9229C122.614 52.8936 124.455 67.3094 125.123 80.4006C125.97 97.005 125.8 113.401 125.8 113.401L131.8 117.901V130.401L128.157 135.723C129.805 133.605 131.452 131.472 133.1 129.354V117.185C131.438 115.468 129.777 113.765 128.116 112.048C127.769 111.688 127.603 111.273 127.603 110.775Z" fill="#231F20"/>
<path d="M97 128.9C97.0143 131.143 106.639 133.235 116 133.175C124.868 133.118 133.5 131.027 133.5 128.9" stroke="black"/>
<path d="M97 116.4C97.0143 118.643 106.639 120.736 116 120.676C124.868 120.619 133.5 118.528 133.5 116.4" stroke="black"/>
<path d="M102.5 111.4C102.528 115.768 128 115.773 128 111.4" stroke="black"/>
<mask id="path-23-inside-6_1233_2887" fill="white">
<path fill-rule="evenodd" clip-rule="evenodd" d="M115.319 122.9H110.197C109.186 122.9 108.369 123.717 108.369 124.727V128.881C108.369 129.891 109.186 130.708 110.197 130.708H115.319H120.442C121.452 130.708 122.269 129.891 122.269 128.881V124.727C122.269 123.717 121.452 122.9 120.442 122.9H115.319Z"/>
</mask>
<path fill-rule="evenodd" clip-rule="evenodd" d="M115.319 122.9H110.197C109.186 122.9 108.369 123.717 108.369 124.727V128.881C108.369 129.891 109.186 130.708 110.197 130.708H115.319H120.442C121.452 130.708 122.269 129.891 122.269 128.881V124.727C122.269 123.717 121.452 122.9 120.442 122.9H115.319Z" fill="#6D6E70" stroke="black" stroke-width="2" mask="url(#path-23-inside-6_1233_2887)"/>
<path d="M107.35 49.7243C107.35 49.7243 107.839 45.0622 108.219 44.2315C108.599 43.4007 111.085 42.8914 111.085 42.8914L108.899 44.7006L107.35 49.7243Z" fill="white"/>
<path d="M123.134 49.7243C123.134 49.7243 122.646 45.0622 122.265 44.2315C121.885 43.4007 119.4 42.8914 119.4 42.8914L121.585 44.7006L123.134 49.7243Z" fill="white"/>
<rect x="102.35" y="123.551" width="1.7" height="4.3" rx="0.65" fill="black" stroke="black" stroke-width="0.3"/>
<rect x="102.301" y="123.701" width="1.4" height="4" rx="0.5" fill="#9E3E63"/>
<path fill-rule="evenodd" clip-rule="evenodd" d="M102.677 124.407H103.059C103.215 124.407 103.345 124.471 103.345 124.548V127.196C103.345 127.272 103.215 127.336 103.059 127.336H102.677C102.521 127.336 102.391 127.272 102.391 127.196V124.551C102.391 124.471 102.521 124.407 102.677 124.407Z" fill="#F39DB1"/>
<path d="M103.026 124.509C103.114 124.509 103.185 124.441 103.185 124.357C103.185 124.273 103.114 124.206 103.026 124.206C102.938 124.206 102.867 124.273 102.867 124.357C102.867 124.441 102.938 124.509 103.026 124.509Z" fill="white"/>
<path d="M102.549 126.959V125.653C102.549 125.539 102.75 125.357 103.069 125.177C103.103 125.155 103.142 125.134 103.185 125.114C103.145 125.135 103.106 125.156 103.069 125.177C102.825 125.335 102.793 125.553 102.812 125.653L102.812 126.959C102.793 127.059 102.921 127.185 103.35 127.256C103 127.256 102.549 127.072 102.549 126.959Z" fill="white"/>
<rect x="126.35" y="123.551" width="1.7" height="4.3" rx="0.65" fill="black" stroke="black" stroke-width="0.3"/>
<rect x="126.699" y="123.701" width="1.4" height="4" rx="0.5" fill="#9E3E63"/>
<path fill-rule="evenodd" clip-rule="evenodd" d="M127.075 124.407H127.457C127.613 124.407 127.743 124.471 127.743 124.548V127.196C127.743 127.272 127.613 127.336 127.457 127.336H127.075C126.919 127.336 126.789 127.272 126.789 127.196V124.551C126.789 124.471 126.919 124.407 127.075 124.407Z" fill="#F39DB1"/>
<path d="M127.425 124.509C127.513 124.509 127.584 124.441 127.584 124.357C127.584 124.273 127.513 124.206 127.425 124.206C127.337 124.206 127.266 124.273 127.266 124.357C127.266 124.441 127.337 124.509 127.425 124.509Z" fill="white"/>
<path d="M126.947 126.959V125.653C126.947 125.539 127.149 125.357 127.467 125.177C127.502 125.155 127.54 125.134 127.584 125.114C127.543 125.135 127.504 125.156 127.467 125.177C127.224 125.335 127.192 125.553 127.21 125.653L127.21 126.959C127.192 127.059 127.319 127.185 127.749 127.256C127.399 127.256 126.947 127.072 126.947 126.959Z" fill="white"/>
<mask id="path-36-outside-7_1233_2887" maskUnits="userSpaceOnUse" x="108.5" y="57.4004" width="14" height="41" fill="black">
<rect fill="white" x="108.5" y="57.4004" width="14" height="41"/>
<path fill-rule="evenodd" clip-rule="evenodd" d="M111.065 67.3718C111.992 61.9585 113.391 58.4004 115.315 58.4004C117.239 58.4004 118.638 61.9446 119.565 67.3718C120.618 73.5327 121.13 82.1995 121.13 90.7416C121.13 91.8492 120.244 93.4137 119.025 94.632C117.932 95.7257 116.547 96.5703 115.315 96.5703C114.069 96.5703 112.698 95.7396 111.605 94.632C110.386 93.4137 109.5 91.8492 109.5 90.7416C109.486 82.1856 109.999 73.5327 111.065 67.3718Z"/>
</mask>
<path fill-rule="evenodd" clip-rule="evenodd" d="M111.065 67.3718C111.992 61.9585 113.391 58.4004 115.315 58.4004C117.239 58.4004 118.638 61.9446 119.565 67.3718C120.618 73.5327 121.13 82.1995 121.13 90.7416C121.13 91.8492 120.244 93.4137 119.025 94.632C117.932 95.7257 116.547 96.5703 115.315 96.5703C114.069 96.5703 112.698 95.7396 111.605 94.632C110.386 93.4137 109.5 91.8492 109.5 90.7416C109.486 82.1856 109.999 73.5327 111.065 67.3718Z" fill="#AA3964"/>
<path fill-rule="evenodd" clip-rule="evenodd" d="M111.065 67.3718C111.992 61.9585 113.391 58.4004 115.315 58.4004C117.239 58.4004 118.638 61.9446 119.565 67.3718C120.618 73.5327 121.13 82.1995 121.13 90.7416C121.13 91.8492 120.244 93.4137 119.025 94.632C117.932 95.7257 116.547 96.5703 115.315 96.5703C114.069 96.5703 112.698 95.7396 111.605 94.632C110.386 93.4137 109.5 91.8492 109.5 90.7416C109.486 82.1856 109.999 73.5327 111.065 67.3718Z" stroke="black" stroke-width="2" mask="url(#path-36-outside-7_1233_2887)"/>
<path fill-rule="evenodd" clip-rule="evenodd" d="M115.319 65.9204C114.004 65.9204 113.672 66.5296 113.049 68.8001C111.872 73.0781 111.18 80.7342 112.329 85.4968C112.869 87.7674 113.519 88.3765 115.333 88.3765C117.133 88.3765 117.783 87.7812 118.337 85.4968C119.473 80.7342 118.78 73.0781 117.617 68.8001C116.967 66.5296 116.634 65.9204 115.319 65.9204Z" fill="#DB5C87"/>
<path d="M115 59.6006C113.345 59.6006 112.143 62.9008 111.345 67.9219C110.429 73.6363 109.988 81.6622 110 89.5983C110 90.1759 110.241 90.8874 110.638 91.6006C109.986 88.3542 110.784 75.3162 111.72 70.2673C112.58 65.6296 114.336 60.665 115 59.6006Z" fill="white"/>
<mask id="path-39-outside-8_1233_2887" maskUnits="userSpaceOnUse" x="106.699" y="90.4004" width="17" height="14" fill="black">
<rect fill="white" x="106.699" y="90.4004" width="17" height="14"/>
<path fill-rule="evenodd" clip-rule="evenodd" d="M115.271 93.3598C117.048 93.3598 119.442 93.3901 120.987 92.4964C121.389 92.2692 121.899 92.557 121.837 93.0114C121.528 95.0714 120.956 97.1011 120.524 99.146C120.045 101.388 117.295 102.085 115.271 102.085C113.247 102.085 110.528 101.388 110.018 99.1612C109.57 97.1617 109.014 95.026 108.705 93.0114C108.643 92.5872 109.106 92.254 109.508 92.4661C111.084 93.3598 113.494 93.3598 115.271 93.3598Z"/>
</mask>
<path fill-rule="evenodd" clip-rule="evenodd" d="M115.271 93.3598C117.048 93.3598 119.442 93.3901 120.987 92.4964C121.389 92.2692 121.899 92.557 121.837 93.0114C121.528 95.0714 120.956 97.1011 120.524 99.146C120.045 101.388 117.295 102.085 115.271 102.085C113.247 102.085 110.528 101.388 110.018 99.1612C109.57 97.1617 109.014 95.026 108.705 93.0114C108.643 92.5872 109.106 92.254 109.508 92.4661C111.084 93.3598 113.494 93.3598 115.271 93.3598Z" fill="#6D6E70"/>
<path fill-rule="evenodd" clip-rule="evenodd" d="M115.271 93.3598C117.048 93.3598 119.442 93.3901 120.987 92.4964C121.389 92.2692 121.899 92.557 121.837 93.0114C121.528 95.0714 120.956 97.1011 120.524 99.146C120.045 101.388 117.295 102.085 115.271 102.085C113.247 102.085 110.528 101.388 110.018 99.1612C109.57 97.1617 109.014 95.026 108.705 93.0114C108.643 92.5872 109.106 92.254 109.508 92.4661C111.084 93.3598 113.494 93.3598 115.271 93.3598Z" stroke="black" stroke-width="2.97443" mask="url(#path-39-outside-8_1233_2887)"/>
<path d="M120.988 92.4964C119.443 93.3901 117.048 93.3598 115.271 93.3598V102.085C117.295 102.085 120.045 101.388 120.524 99.146C120.957 97.1012 121.529 95.0714 121.838 93.0114C121.899 92.557 121.39 92.2692 120.988 92.4964Z" fill="#404041"/>
<path d="M108.705 93.0114C109.014 95.026 109.57 97.1617 110.018 99.1612L109.508 93.438L111.12 93.0921L109.508 92.4661C109.106 92.254 108.643 92.5872 108.705 93.0114Z" fill="#BBBDBF"/>
<path d="M121.836 93.0114C121.527 95.026 120.971 97.1617 120.523 99.1612L121.033 93.438L119.421 93.0921L121.033 92.4661C121.435 92.254 121.898 92.5872 121.836 93.0114Z" fill="#BBBDBF"/>
<path d="M119.42 93.7842C117.955 93.9409 116.452 94.2496 115.17 94.2496C113.949 94.2496 112.526 93.9293 111.119 93.7842C111.119 93.7842 113.511 95.1431 115.17 95.1673C116.903 95.1926 119.42 93.7842 119.42 93.7842Z" fill="white"/>
<path d="M107.605 89.7854C107.605 89.7854 107.603 89.7026 107.602 89.5444C107.6 89.7574 107.599 90.1178 107.601 90.6063L106.865 91.4006C106.856 90.8019 106.85 90.193 106.848 89.5741C106.848 89.6285 106.847 89.683 106.847 89.7376L106.847 90.3205C106.847 90.1252 106.847 89.9309 106.847 89.7376L106.847 89.4194C106.847 89.2092 106.847 88.9979 106.847 88.7854L106.847 89.4194C106.847 89.471 106.848 89.5226 106.848 89.5741C106.904 70.9815 110.509 61.5057 110.509 61.5057C107.586 73.2265 107.587 87.5264 107.602 89.5444C107.603 89.3973 107.605 89.3205 107.605 89.3205L107.605 89.7854Z" fill="white"/>
<path d="M123.02 89.7854C123.02 89.7854 123.022 89.7026 123.023 89.5444C123.025 89.7574 123.026 90.1178 123.024 90.6063L123.76 91.4006C123.769 90.8019 123.775 90.193 123.777 89.5741C123.777 89.6285 123.778 89.683 123.778 89.7376L123.778 90.3205C123.778 90.1252 123.778 89.9309 123.778 89.7376L123.778 89.4194C123.778 89.2092 123.778 88.9979 123.778 88.7854L123.778 89.4194C123.778 89.471 123.777 89.5226 123.777 89.5741C123.721 70.9815 120.116 61.5057 120.116 61.5057C123.039 73.2265 123.038 87.5264 123.023 89.5444C123.022 89.3973 123.02 89.3205 123.02 89.3205L123.02 89.7854Z" fill="white"/>
<path d="M119.672 88.4753C119.497 89.5477 118.994 90.3562 118.548 90.2837C118.102 90.2113 117.882 89.2837 118.06 88.2113C118.237 87.1388 118.74 86.3304 119.183 86.4052C119.627 86.48 119.849 87.4052 119.672 88.4753Z" fill="white"/>
<path d="M112.149 87.3101C112.622 87.3101 113.006 86.8917 113.006 86.3755C113.006 85.8593 112.622 85.4409 112.149 85.4409C111.675 85.4409 111.291 85.8593 111.291 86.3755C111.291 86.8917 111.675 87.3101 112.149 87.3101Z" fill="white"/>
<path d="M113.599 89.5319C113.874 89.5319 114.097 89.3091 114.097 89.0343C114.097 88.7594 113.874 88.5366 113.599 88.5366C113.324 88.5366 113.102 88.7594 113.102 89.0343C113.102 89.3091 113.324 89.5319 113.599 89.5319Z" fill="white"/>
<path d="M118.72 70.459C119.084 72.9812 119.013 75.0783 118.564 75.1423C118.115 75.2063 117.46 73.2146 117.099 70.6928C116.737 68.171 116.804 66.073 117.255 66.0095C117.706 65.9459 118.357 67.9367 118.72 70.459Z" fill="white"/>
<path d="M119.505 78.3851C119.465 79.4708 119.069 80.3384 118.618 80.3213C118.167 80.3042 117.836 79.4133 117.871 78.3267C117.907 77.2402 118.307 76.3758 118.758 76.3929C119.208 76.41 119.544 77.3017 119.505 78.3851Z" fill="white"/>
<path d="M115.967 60.3184C115.967 60.3184 117.068 62.5023 116.268 65.9587C116.268 65.9587 114.778 63.7408 115.967 60.3184Z" fill="white"/>

    </svg>
