
    <svg width="230" height="230" viewBox="0 0 230 230" fill="none" xmlns="http://www.w3.org/2000/svg">
        
<path fill-rule="evenodd" clip-rule="evenodd" d="M62.8849 72.5518H66.6147C67.3025 72.5518 67.8668 73.1073 67.858 73.795L67.4876 109.885H62.8761C62.1883 109.885 61.6328 109.33 61.6328 108.642V73.795C61.6416 73.1073 62.206 72.5518 62.8849 72.5518Z" fill="#6D6E70"/>
<path d="M61.7577 78.1738L67.6406 78.1738L67.6406 75.8676L61.7577 75.8676L61.7577 78.1738Z" fill="#404041"/>
<path d="M61.7369 78.1738L67.6621 78.1738L67.6621 75.8676L61.7369 75.8676L61.7369 78.1738Z" stroke="black" stroke-width="0.429643"/>
<path d="M66.9117 78.0801L67.2266 78.0801L67.2266 76.2219L66.9117 76.2219L66.9117 78.0801Z" fill="black"/>
<path d="M66.2319 78.0801L66.5469 78.0801L66.5469 76.2219L66.2319 76.2219L66.2319 78.0801Z" fill="black"/>
<path d="M62.8491 78.0801L63.1641 78.0801L63.1641 76.2219L62.8491 76.2219L62.8491 78.0801Z" fill="black"/>
<path d="M62.1714 78.0801L62.4863 78.0801L62.4863 76.2219L62.1714 76.2219L62.1714 78.0801Z" fill="black"/>
<path d="M61.71 76.0581L62.8052 76.0581L67.6882 76.0581L68.1113 75.57L67.4371 71.9998L62.8052 71.9998L61.961 71.9998L61.2874 75.57L61.71 76.0581Z" fill="#6D6E70"/>
<path d="M61.7096 76.0581L62.7718 76.0581L62.3492 75.57L63.0234 71.9998L61.9607 71.9998L61.287 75.57L61.7096 76.0581Z" fill="white"/>
<path d="M66.2721 76.0581L67.6882 76.0581L68.1113 75.57L67.4371 71.9998L66.021 71.9998L66.6952 75.57L66.2721 76.0581Z" fill="#404041"/>
<path d="M61.71 76.0581L62.8052 76.0581L67.6882 76.0581L68.1113 75.57L67.4371 71.9998L62.8052 71.9998L61.961 71.9998L61.2874 75.57L61.71 76.0581Z" stroke="black" stroke-width="0.811667"/>
<path d="M61.432 74.8716L67.9648 74.8716L67.9648 74.1541L61.432 74.1541L61.432 74.8716Z" fill="black"/>
<path d="M61.2707 79.4902L68.125 79.4902L68.125 79.0032L61.2707 79.0032L61.2707 79.4902Z" fill="white"/>
<path d="M61.1991 113.662L68.1973 113.662L68.1973 77.6598L61.1991 77.6598L61.1991 113.662Z" fill="#6D6E70"/>
<path d="M61.1988 113.662L63.5078 113.662L63.5078 77.6598L61.1988 77.6598L61.1988 113.662Z" fill="white"/>
<path d="M68.1973 113.662L68.1973 77.6593L65.5999 77.6593L65.5999 113.662L68.1973 113.662Z" fill="#404041"/>
<path d="M61.1991 113.662L68.1973 113.662L68.1973 77.6598L61.1991 77.6598L61.1991 113.662Z" stroke="black" stroke-width="0.811667"/>
<path d="M61.2707 79.1655L68.125 79.1655L68.125 78.6785L61.2707 78.6785L61.2707 79.1655Z" fill="black"/>
<mask id="path-19-outside-1_1233_2887" maskUnits="userSpaceOnUse" x="58.3125" y="97.6016" width="49" height="56" fill="black">
<rect fill="white" x="58.3125" y="97.6016" width="49" height="56"/>
<path fill-rule="evenodd" clip-rule="evenodd" d="M70.433 119.86L75.0005 130L104.851 138.137V142.108C104.851 143.396 104.242 144.517 103.148 145.209L94.1628 150.886C93.5537 151.273 92.9445 151.453 92.2384 151.453C82.6994 151.453 73.1604 151.453 63.6352 151.453C61.8077 151.453 60.3125 149.958 60.3125 148.13V100.602L69.4777 105.655C69.4777 109.573 69.4777 113.477 69.4777 117.395C69.4777 118.35 69.7961 119.167 70.433 119.86Z"/>
</mask>
<path fill-rule="evenodd" clip-rule="evenodd" d="M70.433 119.86L75.0005 130L104.851 138.137V142.108C104.851 143.396 104.242 144.517 103.148 145.209L94.1628 150.886C93.5537 151.273 92.9445 151.453 92.2384 151.453C82.6994 151.453 73.1604 151.453 63.6352 151.453C61.8077 151.453 60.3125 149.958 60.3125 148.13V100.602L69.4777 105.655C69.4777 109.573 69.4777 113.477 69.4777 117.395C69.4777 118.35 69.7961 119.167 70.433 119.86Z" fill="#6D6E70"/>
<path fill-rule="evenodd" clip-rule="evenodd" d="M70.433 119.86L75.0005 130L104.851 138.137V142.108C104.851 143.396 104.242 144.517 103.148 145.209L94.1628 150.886C93.5537 151.273 92.9445 151.453 92.2384 151.453C82.6994 151.453 73.1604 151.453 63.6352 151.453C61.8077 151.453 60.3125 149.958 60.3125 148.13V100.602L69.4777 105.655C69.4777 109.573 69.4777 113.477 69.4777 117.395C69.4777 118.35 69.7961 119.167 70.433 119.86Z" stroke="black" stroke-width="3" mask="url(#path-19-outside-1_1233_2887)"/>
<path d="M69.3564 118L69.3008 142.035L71.3008 119.793L69.3564 118Z" fill="black"/>
<path d="M105 144L70 138L64.5 103.5L60 101V153.5L97.5 156L105 144Z" fill="#404041"/>
<path d="M61.4645 141.629L71.2876 151.452L61.7876 140.164V101.586L60 100.6V138.093C60 139.419 60.5268 140.691 61.4645 141.629Z" fill="white"/>
<path fill-rule="evenodd" clip-rule="evenodd" d="M47.2853 86.5518H51.0151C51.7029 86.5518 52.2672 87.1073 52.2584 87.795L51.888 123.885H47.2765C46.5887 123.885 46.0332 123.33 46.0332 122.642V87.795C46.042 87.1073 46.6063 86.5518 47.2853 86.5518Z" fill="#6D6E70"/>
<path d="M46.1581 92.1738L52.041 92.1738L52.041 89.8676L46.1581 89.8676L46.1581 92.1738Z" fill="#404041"/>
<path d="M46.1373 92.1738L52.0625 92.1738L52.0625 89.8676L46.1373 89.8676L46.1373 92.1738Z" stroke="black" stroke-width="0.429643"/>
<path d="M51.3121 92.0801L51.627 92.0801L51.627 90.2219L51.3121 90.2219L51.3121 92.0801Z" fill="black"/>
<path d="M50.6323 92.0801L50.9473 92.0801L50.9473 90.2219L50.6323 90.2219L50.6323 92.0801Z" fill="black"/>
<path d="M47.2495 92.0801L47.5645 92.0801L47.5645 90.2219L47.2495 90.2219L47.2495 92.0801Z" fill="black"/>
<path d="M46.5718 92.0801L46.8867 92.0801L46.8867 90.2219L46.5718 90.2219L46.5718 92.0801Z" fill="black"/>
<path d="M46.1104 90.0581L47.2056 90.0581L52.0886 90.0581L52.5117 89.57L51.8375 85.9998L47.2056 85.9998L46.3614 85.9998L45.6877 89.57L46.1104 90.0581Z" fill="#6D6E70"/>
<path d="M46.11 90.0581L47.1722 90.0581L46.7496 89.57L47.4238 85.9998L46.3611 85.9998L45.6874 89.57L46.11 90.0581Z" fill="white"/>
<path d="M50.6725 90.0581L52.0886 90.0581L52.5117 89.57L51.8375 85.9998L50.4214 85.9998L51.0956 89.57L50.6725 90.0581Z" fill="#404041"/>
<path d="M46.1104 90.0581L47.2056 90.0581L52.0886 90.0581L52.5117 89.57L51.8375 85.9998L47.2056 85.9998L46.3614 85.9998L45.6877 89.57L46.1104 90.0581Z" stroke="black" stroke-width="0.811667"/>
<path d="M45.8324 88.8716L52.3652 88.8716L52.3652 88.1541L45.8324 88.1541L45.8324 88.8716Z" fill="black"/>
<path d="M45.6711 93.4902L52.5254 93.4902L52.5254 93.0032L45.6711 93.0032L45.6711 93.4902Z" fill="white"/>
<path d="M45.5995 127.662L52.5977 127.662L52.5977 91.6598L45.5995 91.6598L45.5995 127.662Z" fill="#6D6E70"/>
<path d="M45.5992 127.662L47.9082 127.662L47.9082 91.6598L45.5992 91.6598L45.5992 127.662Z" fill="white"/>
<path d="M52.5977 127.662L52.5977 91.6593L50.0003 91.6593L50.0003 127.662L52.5977 127.662Z" fill="#404041"/>
<path d="M45.5995 127.662L52.5977 127.662L52.5977 91.6598L45.5995 91.6598L45.5995 127.662Z" stroke="black" stroke-width="0.811667"/>
<path d="M45.6711 93.1655L52.5254 93.1655L52.5254 92.6785L45.6711 92.6785L45.6711 93.1655Z" fill="black"/>
<mask id="path-41-outside-2_1233_2887" maskUnits="userSpaceOnUse" x="42.7129" y="111.602" width="78" height="56" fill="black">
<rect fill="white" x="42.7129" y="111.602" width="78" height="56"/>
<path d="M66.1722 146.278L54.8334 133.86C54.1965 133.167 53.8781 132.35 53.8781 131.395V119.655L44.7129 114.602V152.095C44.7129 153.421 45.2397 154.692 46.1774 155.63L54.2834 163.736C55.3676 164.82 56.8678 165.35 58.3906 165.171C67.3815 164.114 98.9969 160.453 105.639 160.453C106.345 160.453 106.954 160.273 107.563 159.886L116.548 154.209C117.642 153.517 118.251 152.396 118.251 151.108V142.137L66.1722 146.278Z"/>
</mask>
<path d="M66.1722 146.278L54.8334 133.86C54.1965 133.167 53.8781 132.35 53.8781 131.395V119.655L44.7129 114.602V152.095C44.7129 153.421 45.2397 154.692 46.1774 155.63L54.2834 163.736C55.3676 164.82 56.8678 165.35 58.3906 165.171C67.3815 164.114 98.9969 160.453 105.639 160.453C106.345 160.453 106.954 160.273 107.563 159.886L116.548 154.209C117.642 153.517 118.251 152.396 118.251 151.108V142.137L66.1722 146.278Z" fill="#6D6E70"/>
<path d="M66.1722 146.278L54.8334 133.86C54.1965 133.167 53.8781 132.35 53.8781 131.395V119.655L44.7129 114.602V152.095C44.7129 153.421 45.2397 154.692 46.1774 155.63L54.2834 163.736C55.3676 164.82 56.8678 165.35 58.3906 165.171C67.3815 164.114 98.9969 160.453 105.639 160.453C106.345 160.453 106.954 160.273 107.563 159.886L116.548 154.209C117.642 153.517 118.251 152.396 118.251 151.108V142.137L66.1722 146.278Z" stroke="black" stroke-width="3" mask="url(#path-41-outside-2_1233_2887)"/>
<path d="M118.25 142.136L66.1709 146.278L95.4991 161.152C100.105 160.729 103.813 160.453 105.637 160.453C106.344 160.453 106.953 160.273 107.562 159.885L116.547 154.209C117.641 153.517 118.25 152.395 118.25 151.108V142.136Z" fill="#404041"/>
<path d="M46.1774 155.63L56.0005 165.453L46.5005 154.166V115.587L44.7129 114.602V152.095C44.7129 153.421 45.2397 154.692 46.1774 155.63Z" fill="white"/>
<path d="M53.8564 131L53.8008 155.035L55.8008 132.793L53.8564 131Z" fill="black"/>
<path d="M44.0996 141.84C44.0996 141.84 47.3516 139.368 47.3516 137.254V127.271C47.3516 124.8 44.1321 123.206 44.1321 123.206L44.0996 141.84Z" fill="#404041"/>
<path d="M43.4285 123C43.4285 123 41 124.604 41 126.858V137.699C41 139.52 43.7746 141.644 43.7746 141.644L45.7699 136.441V127.252L43.4285 123Z" fill="#F39DB1"/>
<path d="M44.4692 124.889V133.84L42.4738 139.043C41.9448 138.622 41.4518 138.159 41 137.656V137.699C41 139.52 43.7746 141.644 43.7746 141.644L45.7699 136.441V127.253L44.4692 124.889Z" fill="#9E3E63"/>
<path d="M43.4285 123C43.4285 123 41 124.604 41 126.858V137.699C41 139.52 43.7746 141.644 43.7746 141.644C43.7746 141.644 45.7699 137.644 45.7699 136.441V127.252C45.7699 125.71 43.4285 123 43.4285 123Z" stroke="black"/>
<path d="M42.2583 132.929C42.2583 132.929 41.1526 125.602 43.2339 124.777C43.2339 124.781 42.3012 131.086 42.2583 132.929Z" fill="white"/>
<path d="M59.6328 125C59.6328 125 62.3946 122.901 62.3946 121.106V112.627C62.3946 110.528 59.6604 109.175 59.6604 109.175L59.6328 125Z" fill="#404041"/>
<path d="M59.0625 109C59.0625 109 57 110.362 57 112.277V121.483C57 123.03 59.3564 124.834 59.3564 124.834L61.051 120.415V112.611L59.0625 109Z" fill="#F39DB1"/>
<path d="M59.9463 110.604V118.206L58.2517 122.625C57.8024 122.268 57.3837 121.874 57 121.447V121.484C57 123.03 59.3564 124.834 59.3564 124.834L61.051 120.415V112.612L59.9463 110.604Z" fill="#9E3E63"/>
<path d="M59.0625 109C59.0625 109 57 110.362 57 112.277V121.483C57 123.03 59.3564 124.834 59.3564 124.834C59.3564 124.834 61.051 121.437 61.051 120.415V112.611C61.051 111.301 59.0625 109 59.0625 109Z" stroke="black"/>
<path d="M58.0676 117.433C58.0676 117.433 57.1285 111.21 58.8961 110.509C58.8961 110.513 58.104 115.867 58.0676 117.433Z" fill="white"/>
<path fill-rule="evenodd" clip-rule="evenodd" d="M167.67 72.5518H163.94C163.252 72.5518 162.688 73.1073 162.697 73.795L163.067 109.885H167.679C168.366 109.885 168.922 109.33 168.922 108.642V73.795C168.913 73.1073 168.349 72.5518 167.67 72.5518Z" fill="#6D6E70"/>
<path d="M168.797 78.1738L162.914 78.1738L162.914 75.8676L168.797 75.8676L168.797 78.1738Z" fill="#404041"/>
<path d="M168.818 78.1738L162.893 78.1738L162.893 75.8676L168.818 75.8676L168.818 78.1738Z" stroke="black" stroke-width="0.429643"/>
<path d="M163.643 78.0801L163.328 78.0801L163.328 76.2219L163.643 76.2219L163.643 78.0801Z" fill="black"/>
<path d="M164.323 78.0801L164.008 78.0801L164.008 76.2219L164.323 76.2219L164.323 78.0801Z" fill="black"/>
<path d="M167.706 78.0801L167.391 78.0801L167.391 76.2219L167.706 76.2219L167.706 78.0801Z" fill="black"/>
<path d="M168.383 78.0801L168.068 78.0801L168.068 76.2219L168.383 76.2219L168.383 78.0801Z" fill="black"/>
<path d="M168.845 76.0581L167.749 76.0581L162.867 76.0581L162.443 75.57L163.118 71.9998L167.749 71.9998L168.594 71.9998L169.267 75.57L168.845 76.0581Z" fill="#6D6E70"/>
<path d="M168.845 76.0581L167.783 76.0581L168.206 75.57L167.531 71.9998L168.594 71.9998L169.268 75.57L168.845 76.0581Z" fill="white"/>
<path d="M164.283 76.0581L162.867 76.0581L162.443 75.57L163.118 71.9998L164.534 71.9998L163.859 75.57L164.283 76.0581Z" fill="#404041"/>
<path d="M168.845 76.0581L167.749 76.0581L162.867 76.0581L162.443 75.57L163.118 71.9998L167.749 71.9998L168.594 71.9998L169.267 75.57L168.845 76.0581Z" stroke="black" stroke-width="0.811667"/>
<path d="M169.123 74.8716L162.59 74.8716L162.59 74.1541L169.123 74.1541L169.123 74.8716Z" fill="black"/>
<path d="M169.284 79.4902L162.43 79.4902L162.43 79.0032L169.284 79.0032L169.284 79.4902Z" fill="white"/>
<path d="M169.356 113.662L162.357 113.662L162.357 77.6598L169.356 77.6598L169.356 113.662Z" fill="#6D6E70"/>
<path d="M169.356 113.662L167.047 113.662L167.047 77.6598L169.356 77.6598L169.356 113.662Z" fill="white"/>
<path d="M162.357 113.662L162.357 77.6593L164.955 77.6593L164.955 113.662L162.357 113.662Z" fill="#404041"/>
<path d="M169.356 113.662L162.357 113.662L162.357 77.6598L169.356 77.6598L169.356 113.662Z" stroke="black" stroke-width="0.811667"/>
<path d="M169.284 79.1655L162.43 79.1655L162.43 78.6785L169.284 78.6785L169.284 79.1655Z" fill="black"/>
<mask id="path-73-outside-3_1233_2887" maskUnits="userSpaceOnUse" x="123.242" y="97.6016" width="49" height="56" fill="black">
<rect fill="white" x="123.242" y="97.6016" width="49" height="56"/>
<path fill-rule="evenodd" clip-rule="evenodd" d="M160.122 119.86L155.554 130L125.704 138.137V142.108C125.704 143.396 126.313 144.517 127.407 145.209L136.392 150.886C137.001 151.273 137.61 151.453 138.316 151.453C147.855 151.453 157.394 151.453 166.919 151.453C168.747 151.453 170.242 149.958 170.242 148.13V100.602L161.077 105.655C161.077 109.573 161.077 113.477 161.077 117.395C161.077 118.35 160.759 119.167 160.122 119.86Z"/>
</mask>
<path fill-rule="evenodd" clip-rule="evenodd" d="M160.122 119.86L155.554 130L125.704 138.137V142.108C125.704 143.396 126.313 144.517 127.407 145.209L136.392 150.886C137.001 151.273 137.61 151.453 138.316 151.453C147.855 151.453 157.394 151.453 166.919 151.453C168.747 151.453 170.242 149.958 170.242 148.13V100.602L161.077 105.655C161.077 109.573 161.077 113.477 161.077 117.395C161.077 118.35 160.759 119.167 160.122 119.86Z" fill="#6D6E70"/>
<path fill-rule="evenodd" clip-rule="evenodd" d="M160.122 119.86L155.554 130L125.704 138.137V142.108C125.704 143.396 126.313 144.517 127.407 145.209L136.392 150.886C137.001 151.273 137.61 151.453 138.316 151.453C147.855 151.453 157.394 151.453 166.919 151.453C168.747 151.453 170.242 149.958 170.242 148.13V100.602L161.077 105.655C161.077 109.573 161.077 113.477 161.077 117.395C161.077 118.35 160.759 119.167 160.122 119.86Z" stroke="black" stroke-width="3" mask="url(#path-73-outside-3_1233_2887)"/>
<path d="M161.198 118L161.254 142.035L159.254 119.793L161.198 118Z" fill="black"/>
<path d="M125.555 144L160.555 138L166.055 103.5L170.555 101V153.5L133.055 156L125.555 144Z" fill="#404041"/>
<path d="M169.09 141.629L159.267 151.452L168.767 140.164V101.586L170.555 100.6V138.093C170.555 139.419 170.028 140.691 169.09 141.629Z" fill="white"/>
<path fill-rule="evenodd" clip-rule="evenodd" d="M183.269 86.5518H179.54C178.852 86.5518 178.288 87.1073 178.296 87.795L178.667 123.885H183.278C183.966 123.885 184.521 123.33 184.521 122.642V87.795C184.513 87.1073 183.948 86.5518 183.269 86.5518Z" fill="#6D6E70"/>
<path d="M184.397 92.1738L178.514 92.1738L178.514 89.8676L184.397 89.8676L184.397 92.1738Z" fill="#404041"/>
<path d="M184.417 92.1738L178.492 92.1738L178.492 89.8676L184.417 89.8676L184.417 92.1738Z" stroke="black" stroke-width="0.429643"/>
<path d="M179.243 92.0801L178.928 92.0801L178.928 90.2219L179.243 90.2219L179.243 92.0801Z" fill="black"/>
<path d="M179.922 92.0801L179.607 92.0801L179.607 90.2219L179.922 90.2219L179.922 92.0801Z" fill="black"/>
<path d="M183.305 92.0801L182.99 92.0801L182.99 90.2219L183.305 90.2219L183.305 92.0801Z" fill="black"/>
<path d="M183.983 92.0801L183.668 92.0801L183.668 90.2219L183.983 90.2219L183.983 92.0801Z" fill="black"/>
<path d="M184.444 90.0581L183.349 90.0581L178.466 90.0581L178.043 89.57L178.717 85.9998L183.349 85.9998L184.193 85.9998L184.867 89.57L184.444 90.0581Z" fill="#6D6E70"/>
<path d="M184.445 90.0581L183.382 90.0581L183.805 89.57L183.131 85.9998L184.194 85.9998L184.867 89.57L184.445 90.0581Z" fill="white"/>
<path d="M179.882 90.0581L178.466 90.0581L178.043 89.57L178.717 85.9998L180.133 85.9998L179.459 89.57L179.882 90.0581Z" fill="#404041"/>
<path d="M184.444 90.0581L183.349 90.0581L178.466 90.0581L178.043 89.57L178.717 85.9998L183.349 85.9998L184.193 85.9998L184.867 89.57L184.444 90.0581Z" stroke="black" stroke-width="0.811667"/>
<path d="M184.722 88.8716L178.189 88.8716L178.189 88.1541L184.722 88.1541L184.722 88.8716Z" fill="black"/>
<path d="M184.884 93.4902L178.029 93.4902L178.029 93.0032L184.884 93.0032L184.884 93.4902Z" fill="white"/>
<path d="M184.955 127.662L177.957 127.662L177.957 91.6598L184.955 91.6598L184.955 127.662Z" fill="#6D6E70"/>
<path d="M184.955 127.662L182.646 127.662L182.646 91.6598L184.955 91.6598L184.955 127.662Z" fill="white"/>
<path d="M177.957 127.662L177.957 91.6593L180.554 91.6593L180.554 127.662L177.957 127.662Z" fill="#404041"/>
<path d="M184.955 127.662L177.957 127.662L177.957 91.6598L184.955 91.6598L184.955 127.662Z" stroke="black" stroke-width="0.811667"/>
<path d="M184.884 93.1655L178.029 93.1655L178.029 92.6785L184.884 92.6785L184.884 93.1655Z" fill="black"/>
<mask id="path-95-outside-4_1233_2887" maskUnits="userSpaceOnUse" x="109.842" y="111.602" width="78" height="56" fill="black">
<rect fill="white" x="109.842" y="111.602" width="78" height="56"/>
<path d="M164.382 146.278L175.721 133.86C176.358 133.167 176.677 132.35 176.677 131.395V119.655L185.842 114.602V152.095C185.842 153.421 185.315 154.692 184.377 155.63L176.271 163.736C175.187 164.82 173.687 165.35 172.164 165.171C163.173 164.114 131.558 160.453 124.916 160.453C124.21 160.453 123.601 160.273 122.991 159.886L114.006 154.209C112.913 153.517 112.303 152.396 112.303 151.108V142.137L164.382 146.278Z"/>
</mask>
<path d="M164.382 146.278L175.721 133.86C176.358 133.167 176.677 132.35 176.677 131.395V119.655L185.842 114.602V152.095C185.842 153.421 185.315 154.692 184.377 155.63L176.271 163.736C175.187 164.82 173.687 165.35 172.164 165.171C163.173 164.114 131.558 160.453 124.916 160.453C124.21 160.453 123.601 160.273 122.991 159.886L114.006 154.209C112.913 153.517 112.303 152.396 112.303 151.108V142.137L164.382 146.278Z" fill="#6D6E70"/>
<path d="M164.382 146.278L175.721 133.86C176.358 133.167 176.677 132.35 176.677 131.395V119.655L185.842 114.602V152.095C185.842 153.421 185.315 154.692 184.377 155.63L176.271 163.736C175.187 164.82 173.687 165.35 172.164 165.171C163.173 164.114 131.558 160.453 124.916 160.453C124.21 160.453 123.601 160.273 122.991 159.886L114.006 154.209C112.913 153.517 112.303 152.396 112.303 151.108V142.137L164.382 146.278Z" stroke="black" stroke-width="3" mask="url(#path-95-outside-4_1233_2887)"/>
<path d="M112.305 142.136L164.384 146.278L135.056 161.152C130.45 160.729 126.741 160.453 124.917 160.453C124.211 160.453 123.602 160.273 122.993 159.885L114.008 154.209C112.914 153.517 112.305 152.395 112.305 151.108V142.136Z" fill="#404041"/>
<path d="M184.377 155.63L174.554 165.453L184.054 154.166V115.587L185.842 114.602V152.095C185.842 153.421 185.315 154.692 184.377 155.63Z" fill="white"/>
<path d="M176.698 131L176.754 155.035L174.754 132.793L176.698 131Z" fill="black"/>
<path d="M186.455 141.84C186.455 141.84 183.203 139.368 183.203 137.254V127.271C183.203 124.8 186.423 123.206 186.423 123.206L186.455 141.84Z" fill="#404041"/>
<path d="M187.126 123C187.126 123 189.555 124.604 189.555 126.858V137.699C189.555 139.52 186.78 141.644 186.78 141.644L184.785 136.441V127.252L187.126 123Z" fill="#F39DB1"/>
<path d="M186.086 124.889V133.84L188.081 139.043C188.61 138.622 189.103 138.159 189.555 137.656V137.699C189.555 139.52 186.78 141.644 186.78 141.644L184.785 136.441V127.253L186.086 124.889Z" fill="#9E3E63"/>
<path d="M187.126 123C187.126 123 189.555 124.604 189.555 126.858V137.699C189.555 139.52 186.78 141.644 186.78 141.644C186.78 141.644 184.785 137.644 184.785 136.441V127.252C184.785 125.71 187.126 123 187.126 123Z" stroke="black"/>
<path d="M188.296 132.929C188.296 132.929 189.402 125.602 187.321 124.777C187.321 124.781 188.253 131.086 188.296 132.929Z" fill="white"/>
<path d="M170.922 125C170.922 125 168.16 122.901 168.16 121.106V112.627C168.16 110.528 170.894 109.175 170.894 109.175L170.922 125Z" fill="#404041"/>
<path d="M171.492 109C171.492 109 173.555 110.362 173.555 112.277V121.483C173.555 123.03 171.198 124.834 171.198 124.834L169.504 120.415V112.611L171.492 109Z" fill="#F39DB1"/>
<path d="M170.608 110.604V118.206L172.303 122.625C172.752 122.268 173.171 121.874 173.555 121.447V121.484C173.555 123.03 171.198 124.834 171.198 124.834L169.504 120.415V112.612L170.608 110.604Z" fill="#9E3E63"/>
<path d="M171.492 109C171.492 109 173.555 110.362 173.555 112.277V121.483C173.555 123.03 171.198 124.834 171.198 124.834C171.198 124.834 169.504 121.437 169.504 120.415V112.611C169.504 111.301 171.492 109 171.492 109Z" stroke="black"/>
<path d="M172.487 117.433C172.487 117.433 173.426 111.21 171.659 110.509C171.659 110.513 172.451 115.867 172.487 117.433Z" fill="white"/>

        
<mask id="path-1-outside-1_1233_2887" maskUnits="userSpaceOnUse" x="83.3574" y="125" width="26" height="31" fill="black">
<rect fill="white" x="83.3574" y="125" width="26" height="31"/>
<path fill-rule="evenodd" clip-rule="evenodd" d="M86.3574 154.274H95.5088L106.28 127H97.1148L86.3574 154.274Z"/>
</mask>
<path fill-rule="evenodd" clip-rule="evenodd" d="M86.3574 154.274H95.5088L106.28 127H97.1148L86.3574 154.274Z" fill="#6D6E70"/>
<path fill-rule="evenodd" clip-rule="evenodd" d="M86.3574 154.274H95.5088L106.28 127H97.1148L86.3574 154.274Z" stroke="black" stroke-width="3" mask="url(#path-1-outside-1_1233_2887)"/>
<path d="M86.3574 154.274L97.1148 127H97.6748L89.1748 154.274H86.3574Z" fill="white"/>
<mask id="path-3-outside-2_1233_2887" maskUnits="userSpaceOnUse" x="43" y="147.847" width="60" height="36" fill="black">
<rect fill="white" x="43" y="147.847" width="60" height="36"/>
<path fill-rule="evenodd" clip-rule="evenodd" d="M98.375 149.941L82.7858 154.939C82.329 155.091 81.9828 155.368 81.7475 155.797L73.5929 170.486C73.2053 171.192 72.43 171.552 71.627 171.4L47.3157 166.541C44.8929 166.056 44.0899 170.209 46.2773 170.902L82.5089 182.213C83.3535 182.476 84.2395 182.116 84.6549 181.354L100.549 152.599C101.338 151.118 99.9533 149.429 98.375 149.941Z"/>
</mask>
<path fill-rule="evenodd" clip-rule="evenodd" d="M98.375 149.941L82.7858 154.939C82.329 155.091 81.9828 155.368 81.7475 155.797L73.5929 170.486C73.2053 171.192 72.43 171.552 71.627 171.4L47.3157 166.541C44.8929 166.056 44.0899 170.209 46.2773 170.902L82.5089 182.213C83.3535 182.476 84.2395 182.116 84.6549 181.354L100.549 152.599C101.338 151.118 99.9533 149.429 98.375 149.941Z" fill="#6D6E70"/>
<path fill-rule="evenodd" clip-rule="evenodd" d="M98.375 149.941L82.7858 154.939C82.329 155.091 81.9828 155.368 81.7475 155.797L73.5929 170.486C73.2053 171.192 72.43 171.552 71.627 171.4L47.3157 166.541C44.8929 166.056 44.0899 170.209 46.2773 170.902L82.5089 182.213C83.3535 182.476 84.2395 182.116 84.6549 181.354L100.549 152.599C101.338 151.118 99.9533 149.429 98.375 149.941Z" stroke="black" stroke-width="3" mask="url(#path-3-outside-2_1233_2887)"/>
<path d="M82.7858 154.939L98.3749 149.941C93.8016 151.893 84.681 155.739 83.1858 156.706C81.6906 157.674 76.767 165.076 74.6921 168.506L81.7474 155.797C81.9828 155.368 82.3289 155.091 82.7858 154.939Z" fill="white"/>
<path d="M47.3157 166.541L70.4656 171.168C68.1753 171.007 52.6748 168.507 47.1748 167.626C45.5561 167.842 45.3867 169.079 46.2773 170.902C44.0899 170.21 44.8929 166.056 47.3157 166.541Z" fill="white"/>
<path d="M100.549 152.599L84.6557 181.354L94.1756 151.287L98.3758 149.941C99.9541 149.429 101.339 151.118 100.549 152.599Z" fill="#404041"/>
<path d="M75.6758 165.392L81.5095 167.213C82.354 167.476 83.24 167.116 83.6554 166.354L91.8622 151.506" stroke="black"/>
<mask id="path-8-inside-3_1233_2887" fill="white">
<path fill-rule="evenodd" clip-rule="evenodd" d="M89.0272 162.172L90.5834 159.286C90.8239 158.867 91.3282 158.983 91.5427 159.37L92.7549 161.557C92.9041 161.826 92.943 162.233 92.7998 162.511L91.2473 165.383C91.0162 165.819 90.4997 165.721 90.2759 165.317L89.0636 163.13C88.9144 162.861 88.8756 162.454 89.0272 162.172Z"/>
</mask>
<path fill-rule="evenodd" clip-rule="evenodd" d="M89.0272 162.172L90.5834 159.286C90.8239 158.867 91.3282 158.983 91.5427 159.37L92.7549 161.557C92.9041 161.826 92.943 162.233 92.7998 162.511L91.2473 165.383C91.0162 165.819 90.4997 165.721 90.2759 165.317L89.0636 163.13C88.9144 162.861 88.8756 162.454 89.0272 162.172Z" fill="#9E3E63" stroke="black" stroke-width="0.691728" mask="url(#path-8-inside-3_1233_2887)"/>
<path fill-rule="evenodd" clip-rule="evenodd" d="M89.3253 162.394L90.2643 160.653C90.4094 160.4 90.7137 160.47 90.8431 160.704L91.5745 162.023C91.6645 162.185 91.688 162.431 91.6016 162.599L90.6649 164.332C90.5254 164.595 90.2138 164.536 90.0787 164.292L89.3473 162.972C89.2573 162.81 89.2338 162.564 89.3253 162.394Z" fill="#F39DB1"/>
<path d="M89.5941 162.358C89.4921 162.548 89.5183 162.822 89.6187 163.003L90.0266 163.739L89.8226 162.571L90.1177 161.387L89.5941 162.358Z" fill="white"/>
<mask id="path-11-inside-4_1233_2887" fill="white">
<path fill-rule="evenodd" clip-rule="evenodd" d="M86.4295 166.871L87.9857 163.985C88.2262 163.566 88.7305 163.682 88.945 164.069L90.1573 166.256C90.3065 166.525 90.3453 166.932 90.2021 167.21L88.6497 170.083C88.4185 170.519 87.902 170.42 87.6782 170.016L86.466 167.829C86.3168 167.56 86.2779 167.153 86.4295 166.871Z"/>
</mask>
<path fill-rule="evenodd" clip-rule="evenodd" d="M86.4295 166.871L87.9857 163.985C88.2262 163.566 88.7305 163.682 88.945 164.069L90.1573 166.256C90.3065 166.525 90.3453 166.932 90.2021 167.21L88.6497 170.083C88.4185 170.519 87.902 170.42 87.6782 170.016L86.466 167.829C86.3168 167.56 86.2779 167.153 86.4295 166.871Z" fill="#9E3E63" stroke="black" stroke-width="0.691728" mask="url(#path-11-inside-4_1233_2887)"/>
<path fill-rule="evenodd" clip-rule="evenodd" d="M86.7276 167.093L87.6666 165.352C87.8117 165.099 88.116 165.169 88.2454 165.403L88.9769 166.722C89.0669 166.885 89.0903 167.13 89.0039 167.298L88.0672 169.031C87.9277 169.294 87.6161 169.235 87.4811 168.991L86.7496 167.672C86.6596 167.509 86.6362 167.263 86.7276 167.093Z" fill="#F39DB1"/>
<path d="M86.9965 167.057C86.8945 167.247 86.9206 167.521 87.021 167.702L87.4289 168.438L87.225 167.27L87.5201 166.086L86.9965 167.057Z" fill="white"/>
<mask id="path-14-inside-5_1233_2887" fill="white">
<path fill-rule="evenodd" clip-rule="evenodd" d="M91.6248 157.473L93.181 154.587C93.4215 154.168 93.9258 154.284 94.1403 154.671L95.3526 156.858C95.5018 157.127 95.5406 157.535 95.3975 157.812L93.845 160.685C93.6138 161.121 93.0974 161.022 92.8736 160.618L91.6613 158.431C91.5121 158.162 91.4732 157.755 91.6248 157.473Z"/>
</mask>
<path fill-rule="evenodd" clip-rule="evenodd" d="M91.6248 157.473L93.181 154.587C93.4215 154.168 93.9258 154.284 94.1403 154.671L95.3526 156.858C95.5018 157.127 95.5406 157.535 95.3975 157.812L93.845 160.685C93.6138 161.121 93.0974 161.022 92.8736 160.618L91.6613 158.431C91.5121 158.162 91.4732 157.755 91.6248 157.473Z" fill="#9E3E63" stroke="black" stroke-width="0.691728" mask="url(#path-14-inside-5_1233_2887)"/>
<path fill-rule="evenodd" clip-rule="evenodd" d="M91.9229 157.695L92.8619 155.954C93.007 155.701 93.3113 155.771 93.4407 156.005L94.1722 157.324C94.2622 157.487 94.2856 157.733 94.1992 157.9L93.2625 159.633C93.1231 159.896 92.8114 159.837 92.6764 159.593L91.9449 158.274C91.8549 158.111 91.8315 157.865 91.9229 157.695Z" fill="#F39DB1"/>
<path d="M92.1918 157.659C92.0898 157.849 92.1159 158.123 92.2163 158.304L92.6242 159.04L92.4203 157.872L92.7154 156.688L92.1918 157.659Z" fill="white"/>
<path d="M71.5801 171.361L83.3714 173.681L72.6455 170.577L71.5801 171.361Z" fill="black"/>
<mask id="path-18-outside-6_1233_2887" maskUnits="userSpaceOnUse" x="120.623" y="125" width="26" height="31" fill="black">
<rect fill="white" x="120.623" y="125" width="26" height="31"/>
<path fill-rule="evenodd" clip-rule="evenodd" d="M143.623 154.274H134.472L123.7 127H132.866L143.623 154.274Z"/>
</mask>
<path fill-rule="evenodd" clip-rule="evenodd" d="M143.623 154.274H134.472L123.7 127H132.866L143.623 154.274Z" fill="#6D6E70"/>
<path fill-rule="evenodd" clip-rule="evenodd" d="M143.623 154.274H134.472L123.7 127H132.866L143.623 154.274Z" stroke="black" stroke-width="3" mask="url(#path-18-outside-6_1233_2887)"/>
<path d="M143.623 154.274L132.866 127H132.306L140.806 154.274H143.623Z" fill="white"/>
<mask id="path-20-outside-7_1233_2887" maskUnits="userSpaceOnUse" x="126.98" y="147.847" width="60" height="36" fill="black">
<rect fill="white" x="126.98" y="147.847" width="60" height="36"/>
<path fill-rule="evenodd" clip-rule="evenodd" d="M131.605 149.941L147.195 154.939C147.652 155.091 147.998 155.368 148.233 155.797L156.388 170.486C156.775 171.192 157.55 171.552 158.353 171.4L182.665 166.541C185.088 166.056 185.891 170.209 183.703 170.902L147.472 182.213C146.627 182.476 145.741 182.116 145.326 181.354L129.432 152.599C128.643 151.118 130.027 149.429 131.605 149.941Z"/>
</mask>
<path fill-rule="evenodd" clip-rule="evenodd" d="M131.605 149.941L147.195 154.939C147.652 155.091 147.998 155.368 148.233 155.797L156.388 170.486C156.775 171.192 157.55 171.552 158.353 171.4L182.665 166.541C185.088 166.056 185.891 170.209 183.703 170.902L147.472 182.213C146.627 182.476 145.741 182.116 145.326 181.354L129.432 152.599C128.643 151.118 130.027 149.429 131.605 149.941Z" fill="#6D6E70"/>
<path fill-rule="evenodd" clip-rule="evenodd" d="M131.605 149.941L147.195 154.939C147.652 155.091 147.998 155.368 148.233 155.797L156.388 170.486C156.775 171.192 157.55 171.552 158.353 171.4L182.665 166.541C185.088 166.056 185.891 170.209 183.703 170.902L147.472 182.213C146.627 182.476 145.741 182.116 145.326 181.354L129.432 152.599C128.643 151.118 130.027 149.429 131.605 149.941Z" stroke="black" stroke-width="3" mask="url(#path-20-outside-7_1233_2887)"/>
<path d="M147.195 154.939L131.606 149.941C136.179 151.893 145.299 155.739 146.795 156.706C148.29 157.674 153.213 165.076 155.288 168.506L148.233 155.797C147.998 155.368 147.652 155.091 147.195 154.939Z" fill="white"/>
<path d="M182.665 166.541L159.515 171.168C161.805 171.007 177.306 168.507 182.806 167.626C184.424 167.842 184.594 169.079 183.703 170.902C185.891 170.21 185.088 166.056 182.665 166.541Z" fill="white"/>
<path d="M129.431 152.599L145.325 181.354L135.805 151.287L131.605 149.941C130.026 149.429 128.642 151.118 129.431 152.599Z" fill="#404041"/>
<path d="M154.305 165.392L148.471 167.213C147.626 167.476 146.74 167.116 146.325 166.354L138.118 151.506" stroke="black"/>
<mask id="path-25-inside-8_1233_2887" fill="white">
<path fill-rule="evenodd" clip-rule="evenodd" d="M140.953 162.172L139.397 159.286C139.157 158.867 138.652 158.983 138.438 159.37L137.226 161.557C137.076 161.826 137.037 162.233 137.181 162.511L138.733 165.383C138.964 165.819 139.481 165.721 139.705 165.317L140.917 163.13C141.066 162.861 141.105 162.454 140.953 162.172Z"/>
</mask>
<path fill-rule="evenodd" clip-rule="evenodd" d="M140.953 162.172L139.397 159.286C139.157 158.867 138.652 158.983 138.438 159.37L137.226 161.557C137.076 161.826 137.037 162.233 137.181 162.511L138.733 165.383C138.964 165.819 139.481 165.721 139.705 165.317L140.917 163.13C141.066 162.861 141.105 162.454 140.953 162.172Z" fill="#9E3E63" stroke="black" stroke-width="0.691728" mask="url(#path-25-inside-8_1233_2887)"/>
<path fill-rule="evenodd" clip-rule="evenodd" d="M140.655 162.394L139.716 160.653C139.571 160.4 139.267 160.47 139.137 160.704L138.406 162.023C138.316 162.185 138.292 162.431 138.379 162.599L139.316 164.332C139.455 164.595 139.767 164.536 139.902 164.292L140.633 162.972C140.723 162.81 140.747 162.564 140.655 162.394Z" fill="#F39DB1"/>
<path d="M140.386 162.358C140.488 162.548 140.462 162.822 140.362 163.003L139.954 163.739L140.158 162.571L139.863 161.387L140.386 162.358Z" fill="white"/>
<mask id="path-28-inside-9_1233_2887" fill="white">
<path fill-rule="evenodd" clip-rule="evenodd" d="M143.551 166.871L141.995 163.985C141.754 163.566 141.25 163.682 141.035 164.069L139.823 166.256C139.674 166.525 139.635 166.932 139.778 167.21L141.331 170.083C141.562 170.519 142.078 170.42 142.302 170.016L143.515 167.829C143.664 167.56 143.703 167.153 143.551 166.871Z"/>
</mask>
<path fill-rule="evenodd" clip-rule="evenodd" d="M143.551 166.871L141.995 163.985C141.754 163.566 141.25 163.682 141.035 164.069L139.823 166.256C139.674 166.525 139.635 166.932 139.778 167.21L141.331 170.083C141.562 170.519 142.078 170.42 142.302 170.016L143.515 167.829C143.664 167.56 143.703 167.153 143.551 166.871Z" fill="#9E3E63" stroke="black" stroke-width="0.691728" mask="url(#path-28-inside-9_1233_2887)"/>
<path fill-rule="evenodd" clip-rule="evenodd" d="M143.253 167.093L142.314 165.352C142.169 165.099 141.864 165.169 141.735 165.403L141.004 166.722C140.914 166.885 140.89 167.13 140.977 167.298L141.913 169.031C142.053 169.294 142.364 169.235 142.499 168.991L143.231 167.672C143.321 167.509 143.344 167.263 143.253 167.093Z" fill="#F39DB1"/>
<path d="M142.984 167.057C143.086 167.247 143.06 167.521 142.959 167.702L142.552 168.438L142.755 167.27L142.46 166.086L142.984 167.057Z" fill="white"/>
<mask id="path-31-inside-10_1233_2887" fill="white">
<path fill-rule="evenodd" clip-rule="evenodd" d="M138.356 157.473L136.799 154.587C136.559 154.168 136.055 154.284 135.84 154.671L134.628 156.858C134.479 157.127 134.44 157.535 134.583 157.812L136.135 160.685C136.367 161.121 136.883 161.022 137.107 160.618L138.319 158.431C138.468 158.162 138.507 157.755 138.356 157.473Z"/>
</mask>
<path fill-rule="evenodd" clip-rule="evenodd" d="M138.356 157.473L136.799 154.587C136.559 154.168 136.055 154.284 135.84 154.671L134.628 156.858C134.479 157.127 134.44 157.535 134.583 157.812L136.135 160.685C136.367 161.121 136.883 161.022 137.107 160.618L138.319 158.431C138.468 158.162 138.507 157.755 138.356 157.473Z" fill="#9E3E63" stroke="black" stroke-width="0.691728" mask="url(#path-31-inside-10_1233_2887)"/>
<path fill-rule="evenodd" clip-rule="evenodd" d="M138.058 157.695L137.119 155.954C136.973 155.701 136.669 155.771 136.54 156.005L135.808 157.324C135.718 157.487 135.695 157.733 135.781 157.9L136.718 159.633C136.857 159.896 137.169 159.837 137.304 159.593L138.036 158.274C138.126 158.111 138.149 157.865 138.058 157.695Z" fill="#F39DB1"/>
<path d="M137.789 157.659C137.891 157.849 137.865 158.123 137.764 158.304L137.356 159.04L137.56 157.872L137.265 156.688L137.789 157.659Z" fill="white"/>
<path d="M158.4 171.361L146.609 173.681L157.335 170.577L158.4 171.361Z" fill="black"/>

        
<mask id="path-1-outside-1_1233_2887" maskUnits="userSpaceOnUse" x="101.699" y="181.1" width="27" height="16" fill="black">
<rect fill="white" x="101.699" y="181.1" width="27" height="16"/>
<path fill-rule="evenodd" clip-rule="evenodd" d="M126.792 183.1C126.792 188.111 124.342 192.473 120.742 194.702H109.749C106.15 192.473 103.699 188.111 103.699 183.1C111.397 183.1 119.095 183.1 126.792 183.1Z"/>
</mask>
<path fill-rule="evenodd" clip-rule="evenodd" d="M126.792 183.1C126.792 188.111 124.342 192.473 120.742 194.702H109.749C106.15 192.473 103.699 188.111 103.699 183.1C111.397 183.1 119.095 183.1 126.792 183.1Z" fill="#6D6E70"/>
<path fill-rule="evenodd" clip-rule="evenodd" d="M126.792 183.1C126.792 188.111 124.342 192.473 120.742 194.702H109.749C106.15 192.473 103.699 188.111 103.699 183.1C111.397 183.1 119.095 183.1 126.792 183.1Z" stroke="black" stroke-width="3" mask="url(#path-1-outside-1_1233_2887)"/>
<path d="M103.699 183.1C103.699 188.111 106.15 192.473 109.749 194.702H111.749C109.15 192.473 107.699 188.111 107.699 183.1H103.699Z" fill="#BBBDBF"/>
<path d="M126.85 183.1C126.85 188.111 124.399 192.473 120.799 194.702H118.799C121.399 192.473 122.85 188.111 122.85 183.1H126.85Z" fill="#404041"/>
<mask id="path-4-outside-2_1233_2887" maskUnits="userSpaceOnUse" x="96.6992" y="134" width="36" height="54" fill="black">
<rect fill="white" x="96.6992" y="134" width="36" height="54"/>
<path fill-rule="evenodd" clip-rule="evenodd" d="M98.6992 180.635C98.6992 184.54 106.646 185.578 114.898 185.578C123.149 185.578 131.096 184.54 131.096 180.635C131.096 161.862 128.355 153.417 128.355 137.564C128.355 136.706 127.538 136 126.527 136C121.834 136 119.605 136 114.911 136C110.218 136 107.989 136 103.296 136C102.285 136 101.468 136.706 101.468 137.564C101.44 153.43 98.6992 161.876 98.6992 180.635Z"/>
</mask>
<path fill-rule="evenodd" clip-rule="evenodd" d="M98.6992 180.635C98.6992 184.54 106.646 185.578 114.898 185.578C123.149 185.578 131.096 184.54 131.096 180.635C131.096 161.862 128.355 153.417 128.355 137.564C128.355 136.706 127.538 136 126.527 136C121.834 136 119.605 136 114.911 136C110.218 136 107.989 136 103.296 136C102.285 136 101.468 136.706 101.468 137.564C101.44 153.43 98.6992 161.876 98.6992 180.635Z" fill="#6D6E70"/>
<path fill-rule="evenodd" clip-rule="evenodd" d="M98.6992 180.635C98.6992 184.54 106.646 185.578 114.898 185.578C123.149 185.578 131.096 184.54 131.096 180.635C131.096 161.862 128.355 153.417 128.355 137.564C128.355 136.706 127.538 136 126.527 136C121.834 136 119.605 136 114.911 136C110.218 136 107.989 136 103.296 136C102.285 136 101.468 136.706 101.468 137.564C101.44 153.43 98.6992 161.876 98.6992 180.635Z" stroke="black" stroke-width="3" mask="url(#path-4-outside-2_1233_2887)"/>
<path d="M114.463 185.577C106.369 185.541 98.6992 184.471 98.6992 180.635C98.6992 161.876 101.44 153.43 101.468 137.564C101.468 136.706 102.285 136 103.296 136H104.319C103.308 136 102.468 136.706 102.468 137.564C102.44 153.43 100.699 161.876 100.699 180.635C100.699 184.471 106.438 185.54 114.463 185.577Z" fill="#BBBDBF"/>
<path d="M128.356 137.564C128.356 153.417 131.097 161.862 131.097 180.635C131.097 184.537 123.159 185.577 114.912 185.578V136H126.528C127.539 136 128.356 136.706 128.356 137.564Z" fill="#404041"/>
<path fill-rule="evenodd" clip-rule="evenodd" d="M106.714 169.607L108.791 141.571C108.86 140.546 109.719 139.757 110.743 139.757H119.452C120.476 139.757 121.321 140.546 121.404 141.571L123.48 169.607C123.785 173.829 119.438 175.934 115.09 175.934C110.743 175.934 106.41 173.815 106.714 169.607Z" fill="#404041"/>
<mask id="path-8-inside-3_1233_2887" fill="white">
<path fill-rule="evenodd" clip-rule="evenodd" d="M106.714 167.907L108.791 139.871C108.86 138.847 109.719 138.058 110.743 138.058H119.452C120.476 138.058 121.321 138.847 121.404 139.871L123.48 167.907C123.785 172.129 119.438 174.234 115.09 174.234C110.743 174.234 106.41 172.116 106.714 167.907Z"/>
</mask>
<path fill-rule="evenodd" clip-rule="evenodd" d="M106.714 167.907L108.791 139.871C108.86 138.847 109.719 138.058 110.743 138.058H119.452C120.476 138.058 121.321 138.847 121.404 139.871L123.48 167.907C123.785 172.129 119.438 174.234 115.09 174.234C110.743 174.234 106.41 172.116 106.714 167.907Z" fill="#6D6E70" stroke="black" stroke-width="2" mask="url(#path-8-inside-3_1233_2887)"/>
<path d="M121.405 139.871C121.322 138.847 120.477 138.058 119.453 138.058H115.092V174.234C119.439 174.234 123.786 172.129 123.482 167.907L121.405 139.871Z" fill="#404041"/>
<mask id="path-10-inside-4_1233_2887" fill="white">
<path fill-rule="evenodd" clip-rule="evenodd" d="M106.714 167.907L108.791 139.871C108.86 138.847 109.719 138.058 110.743 138.058H119.452C120.476 138.058 121.321 138.847 121.404 139.871L123.48 167.907C123.785 172.129 119.438 174.234 115.09 174.234C110.743 174.234 106.41 172.116 106.714 167.907Z"/>
</mask>
<path fill-rule="evenodd" clip-rule="evenodd" d="M106.714 167.907L108.791 139.871C108.86 138.847 109.719 138.058 110.743 138.058H119.452C120.476 138.058 121.321 138.847 121.404 139.871L123.48 167.907C123.785 172.129 119.438 174.234 115.09 174.234C110.743 174.234 106.41 172.116 106.714 167.907Z" stroke="black" stroke-width="2" mask="url(#path-10-inside-4_1233_2887)"/>
<path d="M115.334 185.577C123.428 185.541 131.098 184.471 131.098 180.635C131.098 161.876 128.356 153.43 128.329 137.564C128.329 136.706 127.512 136 126.501 136H125.478C126.489 136 127.329 136.706 127.329 137.564C127.356 153.43 129.098 161.876 129.098 180.635C129.098 184.471 123.359 185.54 115.334 185.577Z" fill="#231F20"/>
<rect x="0.255127" y="-0.298716" width="2.77778" height="20.5556" rx="0.833333" transform="matrix(-0.996917 0.0784593 0.0784589 0.996917 126.162 142.349)" fill="black" stroke="black" stroke-width="0.555556"/>
<rect width="2.22222" height="20" rx="0.555556" transform="matrix(-0.996917 0.0784593 0.0784589 0.996917 125.961 142.344)" fill="#9E3E63"/>
<path fill-rule="evenodd" clip-rule="evenodd" d="M125.756 145.905L125.152 145.953C124.905 145.972 124.724 146.308 124.754 146.689L125.793 159.887C125.823 160.268 126.054 160.571 126.301 160.552L126.905 160.504C127.152 160.485 127.333 160.149 127.303 159.768L126.265 146.585C126.234 146.189 126.003 145.886 125.756 145.905Z" fill="#F39DB1"/>
<path d="M125.242 146.452C125.103 146.463 124.964 146.134 124.931 145.717C124.898 145.3 124.984 144.953 125.123 144.942C125.262 144.931 125.402 145.26 125.434 145.677C125.467 146.095 125.381 146.441 125.242 146.452Z" fill="white"/>
<path d="M126.958 158.607L126.446 152.098C126.401 151.531 126.011 150.65 125.436 149.792C125.373 149.685 125.304 149.584 125.228 149.493C125.299 149.592 125.369 149.692 125.436 149.792C125.884 150.55 126.02 151.63 126.029 152.131L126.542 158.64C126.611 159.136 126.458 159.783 125.806 160.189C126.36 160.145 127.003 159.175 126.958 158.607Z" fill="white"/>
<rect x="104.36" y="142.071" width="2.77778" height="20.5556" rx="0.833333" transform="rotate(4.49999 104.36 142.071)" fill="black" stroke="black" stroke-width="0.555556"/>
<rect x="104.283" y="142.344" width="2.22222" height="20" rx="0.555556" transform="rotate(4.49999 104.283 142.344)" fill="#9E3E63"/>
<path fill-rule="evenodd" clip-rule="evenodd" d="M104.488 145.905L105.092 145.953C105.339 145.972 105.52 146.308 105.49 146.689L104.452 159.887C104.422 160.268 104.19 160.571 103.943 160.552L103.339 160.504C103.092 160.485 102.911 160.149 102.941 159.768L103.979 146.585C104.01 146.189 104.241 145.886 104.488 145.905Z" fill="#F39DB1"/>
<path d="M105.002 146.452C105.141 146.463 105.28 146.134 105.313 145.717C105.346 145.3 105.26 144.953 105.121 144.942C104.982 144.931 104.843 145.26 104.81 145.677C104.777 146.095 104.863 146.441 105.002 146.452Z" fill="white"/>
<path d="M103.286 158.607L103.799 152.098C103.843 151.531 104.234 150.65 104.808 149.792C104.871 149.685 104.94 149.584 105.017 149.493C104.945 149.592 104.875 149.692 104.808 149.792C104.36 150.55 104.224 151.63 104.215 152.131L103.702 158.64C103.634 159.136 103.786 159.783 104.438 160.189C103.884 160.145 103.242 159.175 103.286 158.607Z" fill="white"/>
<path fill-rule="evenodd" clip-rule="evenodd" d="M119.974 168.661C119.974 168.232 119.974 167.789 119.974 167.359C119.974 166.82 119.337 166.21 118.603 166.376C116.263 166.916 113.91 166.916 111.57 166.376C110.836 166.21 110.199 166.82 110.199 167.359C110.199 167.789 110.199 168.232 110.199 168.661C110.199 169.201 110.822 169.505 111.57 169.644C113.91 170.073 116.263 170.073 118.603 169.644C119.351 169.505 119.974 169.201 119.974 168.661Z" fill="black"/>
<path fill-rule="evenodd" clip-rule="evenodd" d="M119.517 168.979C119.517 168.55 119.517 168.107 119.517 167.678C119.517 167.318 119.102 166.958 118.603 167.027C116.263 167.332 113.91 167.332 111.57 167.027C111.072 166.958 110.656 167.318 110.656 167.678C110.656 168.107 110.656 168.55 110.656 168.979C110.656 169.339 111.072 169.547 111.57 169.63C113.91 170.059 116.263 170.059 118.603 169.63C119.102 169.547 119.517 169.339 119.517 168.979Z" fill="#9E3E63"/>
<path fill-rule="evenodd" clip-rule="evenodd" d="M118.603 168.854C118.603 168.508 118.603 168.162 118.603 167.816C118.603 167.525 118.271 167.221 117.883 167.29C116.028 167.664 114.159 167.664 112.304 167.29C111.916 167.207 111.584 167.525 111.584 167.816C111.584 168.162 111.584 168.508 111.584 168.854C111.584 169.145 111.916 169.325 112.304 169.38C114.104 169.63 115.959 169.643 117.883 169.38C118.271 169.311 118.603 169.131 118.603 168.854Z" fill="#F39DB1"/>
<path d="M112.201 169.387C111.87 169.347 111.586 169.22 111.586 169.015V168.522C112.023 169.015 113.809 169.133 114.664 169.133C115.519 169.133 117.299 168.78 117.586 168.651V169.015C117.586 169.21 117.302 169.338 116.971 169.387C115.326 169.573 113.74 169.563 112.201 169.387Z" fill="white"/>
<path d="M117.185 167.688C117.185 167.597 117.407 167.522 117.681 167.522C117.955 167.522 118.178 167.597 118.178 167.688C118.178 167.779 117.955 167.854 117.681 167.854C117.407 167.854 117.185 167.779 117.185 167.688Z" fill="white"/>
<path d="M114.898 185.578C106.646 185.578 98.6992 184.539 98.6992 180.635V177.135C98.6992 181.039 106.646 182.078 114.898 182.078C123.149 182.078 131.096 181.039 131.096 177.135V180.635C131.096 184.539 123.149 185.578 114.898 185.578Z" fill="#404041"/>
<path d="M98 177.135C98 181.039 106.647 182.778 114.898 182.778C123.15 182.778 131.797 181.039 131.797 177.135" stroke="black" stroke-width="1.5"/>
<path d="M114.9 183.35V185.85" stroke="black"/>
<path d="M118.9 183.25V185.75" stroke="black"/>
<path d="M122.9 182.75V185.25" stroke="black"/>
<path d="M126.9 181.949V184.449" stroke="black"/>
<path d="M130.9 179.85V182.35" stroke="black"/>
<path d="M110.9 183.35V185.85" stroke="black"/>
<path d="M106.9 182.849V185.349" stroke="black"/>
<path d="M102.9 181.95V184.45" stroke="black"/>
<path d="M98.9004 180.05V182.55" stroke="black"/>

        
<mask id="path-1-outside-1_1233_2887" maskUnits="userSpaceOnUse" x="92" y="42.3003" width="27" height="21" fill="black">
<rect fill="white" x="92" y="42.3003" width="27" height="21"/>
<path d="M117.271 44.4496C117.271 44.3784 117.199 44.33 117.133 44.3571L94.0619 53.8543C94.0245 53.8697 94 53.9062 94 53.9467V61.0228C94 61.078 94.0448 61.1228 94.1 61.1228H117.171C117.226 61.1228 117.271 61.078 117.271 61.0228V44.4496Z"/>
</mask>
<path d="M117.271 44.4496C117.271 44.3784 117.199 44.33 117.133 44.3571L94.0619 53.8543C94.0245 53.8697 94 53.9062 94 53.9467V61.0228C94 61.078 94.0448 61.1228 94.1 61.1228H117.171C117.226 61.1228 117.271 61.078 117.271 61.0228V44.4496Z" fill="#6D6E70"/>
<path d="M117.271 44.4496C117.271 44.3784 117.199 44.33 117.133 44.3571L94.0619 53.8543C94.0245 53.8697 94 53.9062 94 53.9467V61.0228C94 61.078 94.0448 61.1228 94.1 61.1228H117.171C117.226 61.1228 117.271 61.078 117.271 61.0228V44.4496Z" stroke="black" stroke-width="3" mask="url(#path-1-outside-1_1233_2887)"/>
<path d="M94 53.8798L117.271 44.3003L95.4 54.9004L94 61.1228V53.8798Z" fill="white"/>
<path d="M117.271 44.3003V61.1228H101.223L104 49.7633L117.271 44.3003Z" fill="#404041"/>
<mask id="path-4-outside-2_1233_2887" maskUnits="userSpaceOnUse" x="111.57" y="42.3003" width="27" height="21" fill="black">
<rect fill="white" x="111.57" y="42.3003" width="27" height="21"/>
<path d="M113.299 44.4496C113.299 44.3784 113.371 44.33 113.437 44.3571L136.508 53.8543C136.546 53.8697 136.57 53.9062 136.57 53.9467V61.0228C136.57 61.078 136.526 61.1228 136.47 61.1228H113.399C113.344 61.1228 113.299 61.078 113.299 61.0228V44.4496Z"/>
</mask>
<path d="M113.299 44.4496C113.299 44.3784 113.371 44.33 113.437 44.3571L136.508 53.8543C136.546 53.8697 136.57 53.9062 136.57 53.9467V61.0228C136.57 61.078 136.526 61.1228 136.47 61.1228H113.399C113.344 61.1228 113.299 61.078 113.299 61.0228V44.4496Z" fill="#6D6E70"/>
<path d="M113.299 44.4496C113.299 44.3784 113.371 44.33 113.437 44.3571L136.508 53.8543C136.546 53.8697 136.57 53.9062 136.57 53.9467V61.0228C136.57 61.078 136.526 61.1228 136.47 61.1228H113.399C113.344 61.1228 113.299 61.078 113.299 61.0228V44.4496Z" stroke="black" stroke-width="3" mask="url(#path-4-outside-2_1233_2887)"/>
<path d="M136.57 53.8798L113.299 44.3003L135.17 54.9004L136.57 61.1228V53.8798Z" fill="white"/>
<path d="M113.299 44.3003V61.1228H129.348L126.57 49.7633L113.299 44.3003Z" fill="#404041"/>
<mask id="path-7-outside-3_1233_2887" maskUnits="userSpaceOnUse" x="107.67" y="21.4004" width="15" height="33" fill="black">
<rect fill="white" x="107.67" y="21.4004" width="15" height="33"/>
<path fill-rule="evenodd" clip-rule="evenodd" d="M115.277 23.4004C114.723 23.4004 112.619 28.6752 112.619 31.5411V37.079C111.137 38.0896 109.67 39.4879 109.67 40.4294C109.67 44.3059 109.67 48.1824 109.67 52.0589C113.408 52.0589 117.16 52.0589 120.898 52.0589C120.898 48.1824 120.898 44.3059 120.898 40.4294C120.898 39.4879 119.417 38.0896 117.949 37.079V31.5411C117.935 28.6614 115.831 23.4004 115.277 23.4004Z"/>
</mask>
<path fill-rule="evenodd" clip-rule="evenodd" d="M115.277 23.4004C114.723 23.4004 112.619 28.6752 112.619 31.5411V37.079C111.137 38.0896 109.67 39.4879 109.67 40.4294C109.67 44.3059 109.67 48.1824 109.67 52.0589C113.408 52.0589 117.16 52.0589 120.898 52.0589C120.898 48.1824 120.898 44.3059 120.898 40.4294C120.898 39.4879 119.417 38.0896 117.949 37.079V31.5411C117.935 28.6614 115.831 23.4004 115.277 23.4004Z" fill="#6D6E70"/>
<path fill-rule="evenodd" clip-rule="evenodd" d="M115.277 23.4004C114.723 23.4004 112.619 28.6752 112.619 31.5411V37.079C111.137 38.0896 109.67 39.4879 109.67 40.4294C109.67 44.3059 109.67 48.1824 109.67 52.0589C113.408 52.0589 117.16 52.0589 120.898 52.0589C120.898 48.1824 120.898 44.3059 120.898 40.4294C120.898 39.4879 119.417 38.0896 117.949 37.079V31.5411C117.935 28.6614 115.831 23.4004 115.277 23.4004Z" stroke="black" stroke-width="3" mask="url(#path-7-outside-3_1233_2887)"/>
<path d="M112.702 28.3994H117.951V28.7592H112.702V28.3994Z" fill="#BBBDBF"/>
<path d="M112.702 30.2256H117.951V30.5853H112.702V30.2256Z" fill="#BBBDBF"/>
<path d="M112.702 32.0664H117.951V32.4262H112.702V32.0664Z" fill="#BBBDBF"/>
<path d="M112.702 33.8931H117.951V34.2528H112.702V33.8931Z" fill="#BBBDBF"/>
<path d="M112.702 35.7334H117.951V36.0932H112.702V35.7334Z" fill="#BBBDBF"/>
<mask id="path-13-outside-4_1233_2887" maskUnits="userSpaceOnUse" x="107.67" y="21.4004" width="15" height="33" fill="black">
<rect fill="white" x="107.67" y="21.4004" width="15" height="33"/>
<path fill-rule="evenodd" clip-rule="evenodd" d="M115.277 23.4004C114.723 23.4004 112.619 28.6752 112.619 31.5411V37.079C111.137 38.0896 109.67 39.4879 109.67 40.4294C109.67 44.3059 109.67 48.1824 109.67 52.0589C113.408 52.0589 117.16 52.0589 120.898 52.0589C120.898 48.1824 120.898 44.3059 120.898 40.4294C120.898 39.4879 119.417 38.0896 117.949 37.079V31.5411C117.935 28.6614 115.831 23.4004 115.277 23.4004Z"/>
</mask>
<path fill-rule="evenodd" clip-rule="evenodd" d="M115.277 23.4004C114.723 23.4004 112.619 28.6752 112.619 31.5411V37.079C111.137 38.0896 109.67 39.4879 109.67 40.4294C109.67 44.3059 109.67 48.1824 109.67 52.0589C113.408 52.0589 117.16 52.0589 120.898 52.0589C120.898 48.1824 120.898 44.3059 120.898 40.4294C120.898 39.4879 119.417 38.0896 117.949 37.079V31.5411C117.935 28.6614 115.831 23.4004 115.277 23.4004Z" stroke="black" stroke-width="3" mask="url(#path-13-outside-4_1233_2887)"/>
<path d="M112.619 31.5411C112.619 28.6752 114.723 23.4004 115.277 23.4004V52.0589H109.67V40.4294C109.67 39.4879 111.137 38.0896 112.619 37.079V31.5411Z" fill="#BBBDBF"/>
<mask id="path-15-outside-5_1233_2887" maskUnits="userSpaceOnUse" x="95.5" y="39.98" width="40" height="101" fill="black">
<rect fill="white" x="95.5" y="39.98" width="40" height="101"/>
<path d="M112.84 49.0269C112.826 50.2176 112.549 52.0589 115.277 52.0589C118.004 52.0589 117.727 50.2176 117.741 49.0269V41.98C119.444 41.98 122.808 42.2707 123.113 44.472C126.602 69.3925 127.571 85.4247 127.585 110.774C127.585 111.273 127.751 111.688 128.097 112.048C129.758 113.765 131.42 115.468 133.081 117.184V129.354C131.433 131.472 129.786 133.604 128.138 135.723C128.138 140.095 102.459 140.075 102.431 135.708C100.787 133.594 99.1436 131.467 97.5 129.354V117.184C99.1614 115.468 100.823 113.765 102.484 112.048C102.83 111.688 102.996 111.273 102.996 110.774C103.01 85.4109 103.979 69.3925 107.468 44.472C107.773 42.2707 111.137 41.98 112.84 41.98V49.0269Z"/>
</mask>
<path d="M112.84 49.0269C112.826 50.2176 112.549 52.0589 115.277 52.0589C118.004 52.0589 117.727 50.2176 117.741 49.0269V41.98C119.444 41.98 122.808 42.2707 123.113 44.472C126.602 69.3925 127.571 85.4247 127.585 110.774C127.585 111.273 127.751 111.688 128.097 112.048C129.758 113.765 131.42 115.468 133.081 117.184V129.354C131.433 131.472 129.786 133.604 128.138 135.723C128.138 140.095 102.459 140.075 102.431 135.708C100.787 133.594 99.1436 131.467 97.5 129.354V117.184C99.1614 115.468 100.823 113.765 102.484 112.048C102.83 111.688 102.996 111.273 102.996 110.774C103.01 85.4109 103.979 69.3925 107.468 44.472C107.773 42.2707 111.137 41.98 112.84 41.98V49.0269Z" fill="#6D6E70"/>
<path d="M102.431 135.708L101.681 135.712L101.683 135.967L101.839 136.168L102.431 135.708ZM101.839 136.168C101.841 136.17 101.843 136.173 101.845 136.175C101.847 136.178 101.849 136.18 101.851 136.183L103.035 135.262C103.033 135.26 103.031 135.257 103.029 135.255C103.027 135.252 103.025 135.25 103.023 135.247L101.839 136.168ZM101.681 135.7C101.681 135.705 101.681 135.709 101.681 135.712L103.181 135.703C103.181 135.702 103.181 135.701 103.181 135.7H101.681ZM112.84 49.0269L114.34 49.0444L114.34 49.0357V49.0269H112.84ZM112.84 41.98H114.34V40.48H112.84V41.98ZM107.468 44.472L108.954 44.68L108.954 44.6776L107.468 44.472ZM102.996 110.774L101.496 110.774V110.774H102.996ZM102.484 112.048L103.562 113.091L103.565 113.088L102.484 112.048ZM97.5 117.184L96.4221 116.141L96 116.577V117.184H97.5ZM97.5 129.354H96V129.869L96.316 130.275L97.5 129.354ZM102.431 135.708L103.931 135.698L103.928 135.189L103.615 134.787L102.431 135.708ZM128.138 135.723L126.954 134.802L126.638 135.208V135.723H128.138ZM133.081 129.354L134.265 130.275L134.581 129.869V129.354H133.081ZM133.081 117.184H134.581V116.577L134.159 116.141L133.081 117.184ZM128.097 112.048L127.016 113.088L127.019 113.091L128.097 112.048ZM127.585 110.774L129.085 110.774L129.085 110.774L127.585 110.774ZM123.113 44.472L121.627 44.6776L121.627 44.68L123.113 44.472ZM117.741 41.98V40.48H116.241V41.98H117.741ZM117.741 49.0269L119.241 49.0444L119.241 49.0357V49.0269H117.741ZM115.277 50.5589C114.751 50.5589 114.523 50.4684 114.451 50.4301C114.411 50.4085 114.412 50.4047 114.402 50.3817C114.376 50.3228 114.341 50.1942 114.33 49.9382C114.317 49.6492 114.335 49.441 114.34 49.0444L111.34 49.0095C111.338 49.2082 111.316 49.6766 111.333 50.0678C111.351 50.4919 111.415 51.0469 111.659 51.5972C111.919 52.1833 112.361 52.7143 113.036 53.0752C113.679 53.4193 114.439 53.5589 115.277 53.5589V50.5589ZM114.34 49.0269V41.98H111.34V49.0269H114.34ZM112.84 40.48C111.937 40.48 110.487 40.5531 109.174 40.9713C107.914 41.3728 106.257 42.2819 105.982 44.2664L108.954 44.6776C108.984 44.4609 109.161 44.1239 110.085 43.8298C110.956 43.5522 112.04 43.48 112.84 43.48V40.48ZM105.983 44.2641C102.483 69.2606 101.51 85.3486 101.496 110.774L104.496 110.775C104.51 85.4731 105.475 69.5245 108.954 44.68L105.983 44.2641ZM101.496 110.774C101.496 110.853 101.484 110.889 101.478 110.904C101.472 110.919 101.456 110.953 101.403 111.008L103.565 113.088C104.182 112.447 104.496 111.658 104.496 110.774H101.496ZM101.406 111.005C100.577 111.862 99.7471 112.716 98.9163 113.571C98.0857 114.426 97.254 115.282 96.4221 116.141L98.5779 118.228C99.4074 117.37 100.237 116.517 101.068 115.662C101.898 114.807 102.73 113.951 103.562 113.091L101.406 111.005ZM96 117.184V129.354H99V117.184H96ZM96.316 130.275C97.1369 131.33 97.958 132.39 98.78 133.45C99.6016 134.51 100.424 135.571 101.247 136.628L103.615 134.787C102.794 133.731 101.973 132.672 101.151 131.612C100.329 130.552 99.5067 129.491 98.684 128.433L96.316 130.275ZM129.322 136.643C130.147 135.583 130.971 134.52 131.795 133.457C132.619 132.395 133.442 131.333 134.265 130.275L131.897 128.433C131.072 129.493 130.248 130.557 129.424 131.619C128.6 132.682 127.777 133.744 126.954 134.802L129.322 136.643ZM134.581 129.354V117.184H131.581V129.354H134.581ZM134.159 116.141C133.327 115.282 132.495 114.426 131.665 113.571C130.834 112.716 130.004 111.862 129.175 111.005L127.019 113.091C127.851 113.951 128.683 114.807 129.513 115.662C130.344 116.517 131.174 117.37 132.003 118.228L134.159 116.141ZM129.178 111.008C129.125 110.953 129.109 110.919 129.103 110.904C129.097 110.889 129.085 110.853 129.085 110.774H126.085C126.085 111.658 126.399 112.447 127.016 113.088L129.178 111.008ZM129.085 110.774C129.071 85.3625 128.098 69.2606 124.598 44.2641L121.627 44.68C125.105 69.5245 126.071 85.4869 126.085 110.775L129.085 110.774ZM124.599 44.2664C124.324 42.2819 122.667 41.3728 121.406 40.9713C120.094 40.5531 118.644 40.48 117.741 40.48V43.48C118.541 43.48 119.625 43.5522 120.496 43.8298C121.419 44.1239 121.597 44.4609 121.627 44.6776L124.599 44.2664ZM116.241 41.98V49.0269H119.241V41.98H116.241ZM116.241 49.0095C116.236 49.4329 116.253 49.6102 116.236 49.9211C116.222 50.1812 116.186 50.3128 116.158 50.3752C116.146 50.4019 116.145 50.4075 116.103 50.4297C116.031 50.4685 115.802 50.5589 115.277 50.5589V53.5589C116.115 53.5589 116.874 53.4192 117.517 53.0755C118.191 52.7153 118.633 52.1861 118.895 51.6037C119.14 51.0569 119.208 50.5049 119.231 50.0849C119.252 49.7157 119.239 49.2164 119.241 49.0444L116.241 49.0095ZM100.931 135.717C100.94 137.085 101.951 137.951 102.789 138.438C103.686 138.96 104.861 139.343 106.127 139.63C108.684 140.211 112.017 140.49 115.294 140.493C118.571 140.495 121.902 140.22 124.456 139.642C125.721 139.356 126.895 138.974 127.79 138.452C128.629 137.964 129.638 137.094 129.638 135.723H126.638C126.638 135.444 126.846 135.53 126.279 135.861C125.77 136.158 124.938 136.457 123.794 136.716C121.533 137.228 118.443 137.495 115.296 137.493C112.15 137.491 109.057 137.219 106.792 136.705C105.646 136.445 104.811 136.144 104.298 135.845C103.726 135.512 103.929 135.422 103.931 135.698L100.931 135.717Z" fill="black" mask="url(#path-15-outside-5_1233_2887)"/>
<path d="M102.996 110.775C103.01 85.4111 103.979 69.3927 107.468 44.4722C107.563 43.7869 107.954 43.2867 108.5 42.9229C107.986 52.8936 106.145 67.3094 105.477 80.4006C104.63 97.005 104.8 113.401 104.8 113.401L98.8 117.901V130.401L102.443 135.723C100.795 133.605 99.1475 131.472 97.5 129.354V117.185C99.1614 115.468 100.823 113.765 102.484 112.048C102.83 111.688 102.996 111.273 102.996 110.775Z" fill="#BBBDBF"/>
<path d="M133.082 129.354C131.434 131.472 129.787 133.604 128.139 135.723C128.139 137.911 121.707 138.999 115.277 138.993V52.0589C118.005 52.0589 117.728 50.2176 117.742 49.0269V41.98C119.445 41.98 122.809 42.2707 123.113 44.472C126.602 69.3925 127.571 85.4247 127.585 110.774C127.585 111.273 127.751 111.688 128.098 112.048C129.759 113.765 131.42 115.468 133.082 117.184V129.354Z" fill="#404041"/>
<path d="M127.603 110.775C127.589 85.4111 126.62 69.3927 123.131 44.4722C123.037 43.7869 122.645 43.2867 122.1 42.9229C122.614 52.8936 124.455 67.3094 125.123 80.4006C125.97 97.005 125.8 113.401 125.8 113.401L131.8 117.901V130.401L128.157 135.723C129.805 133.605 131.452 131.472 133.1 129.354V117.185C131.438 115.468 129.777 113.765 128.116 112.048C127.769 111.688 127.603 111.273 127.603 110.775Z" fill="#231F20"/>
<path d="M97 128.9C97.0143 131.143 106.639 133.235 116 133.175C124.868 133.118 133.5 131.027 133.5 128.9" stroke="black"/>
<path d="M97 116.4C97.0143 118.643 106.639 120.736 116 120.676C124.868 120.619 133.5 118.528 133.5 116.4" stroke="black"/>
<path d="M102.5 111.4C102.528 115.768 128 115.773 128 111.4" stroke="black"/>
<mask id="path-23-inside-6_1233_2887" fill="white">
<path fill-rule="evenodd" clip-rule="evenodd" d="M115.319 122.9H110.197C109.186 122.9 108.369 123.717 108.369 124.727V128.881C108.369 129.891 109.186 130.708 110.197 130.708H115.319H120.442C121.452 130.708 122.269 129.891 122.269 128.881V124.727C122.269 123.717 121.452 122.9 120.442 122.9H115.319Z"/>
</mask>
<path fill-rule="evenodd" clip-rule="evenodd" d="M115.319 122.9H110.197C109.186 122.9 108.369 123.717 108.369 124.727V128.881C108.369 129.891 109.186 130.708 110.197 130.708H115.319H120.442C121.452 130.708 122.269 129.891 122.269 128.881V124.727C122.269 123.717 121.452 122.9 120.442 122.9H115.319Z" fill="#6D6E70" stroke="black" stroke-width="2" mask="url(#path-23-inside-6_1233_2887)"/>
<path d="M107.35 49.7243C107.35 49.7243 107.839 45.0622 108.219 44.2315C108.599 43.4007 111.085 42.8914 111.085 42.8914L108.899 44.7006L107.35 49.7243Z" fill="white"/>
<path d="M123.134 49.7243C123.134 49.7243 122.646 45.0622 122.265 44.2315C121.885 43.4007 119.4 42.8914 119.4 42.8914L121.585 44.7006L123.134 49.7243Z" fill="white"/>
<rect x="102.35" y="123.551" width="1.7" height="4.3" rx="0.65" fill="black" stroke="black" stroke-width="0.3"/>
<rect x="102.301" y="123.701" width="1.4" height="4" rx="0.5" fill="#9E3E63"/>
<path fill-rule="evenodd" clip-rule="evenodd" d="M102.677 124.407H103.059C103.215 124.407 103.345 124.471 103.345 124.548V127.196C103.345 127.272 103.215 127.336 103.059 127.336H102.677C102.521 127.336 102.391 127.272 102.391 127.196V124.551C102.391 124.471 102.521 124.407 102.677 124.407Z" fill="#F39DB1"/>
<path d="M103.026 124.509C103.114 124.509 103.185 124.441 103.185 124.357C103.185 124.273 103.114 124.206 103.026 124.206C102.938 124.206 102.867 124.273 102.867 124.357C102.867 124.441 102.938 124.509 103.026 124.509Z" fill="white"/>
<path d="M102.549 126.959V125.653C102.549 125.539 102.75 125.357 103.069 125.177C103.103 125.155 103.142 125.134 103.185 125.114C103.145 125.135 103.106 125.156 103.069 125.177C102.825 125.335 102.793 125.553 102.812 125.653L102.812 126.959C102.793 127.059 102.921 127.185 103.35 127.256C103 127.256 102.549 127.072 102.549 126.959Z" fill="white"/>
<rect x="126.35" y="123.551" width="1.7" height="4.3" rx="0.65" fill="black" stroke="black" stroke-width="0.3"/>
<rect x="126.699" y="123.701" width="1.4" height="4" rx="0.5" fill="#9E3E63"/>
<path fill-rule="evenodd" clip-rule="evenodd" d="M127.075 124.407H127.457C127.613 124.407 127.743 124.471 127.743 124.548V127.196C127.743 127.272 127.613 127.336 127.457 127.336H127.075C126.919 127.336 126.789 127.272 126.789 127.196V124.551C126.789 124.471 126.919 124.407 127.075 124.407Z" fill="#F39DB1"/>
<path d="M127.425 124.509C127.513 124.509 127.584 124.441 127.584 124.357C127.584 124.273 127.513 124.206 127.425 124.206C127.337 124.206 127.266 124.273 127.266 124.357C127.266 124.441 127.337 124.509 127.425 124.509Z" fill="white"/>
<path d="M126.947 126.959V125.653C126.947 125.539 127.149 125.357 127.467 125.177C127.502 125.155 127.54 125.134 127.584 125.114C127.543 125.135 127.504 125.156 127.467 125.177C127.224 125.335 127.192 125.553 127.21 125.653L127.21 126.959C127.192 127.059 127.319 127.185 127.749 127.256C127.399 127.256 126.947 127.072 126.947 126.959Z" fill="white"/>
<mask id="path-36-outside-7_1233_2887" maskUnits="userSpaceOnUse" x="108.5" y="57.4004" width="14" height="41" fill="black">
<rect fill="white" x="108.5" y="57.4004" width="14" height="41"/>
<path fill-rule="evenodd" clip-rule="evenodd" d="M111.065 67.3718C111.992 61.9585 113.391 58.4004 115.315 58.4004C117.239 58.4004 118.638 61.9446 119.565 67.3718C120.618 73.5327 121.13 82.1995 121.13 90.7416C121.13 91.8492 120.244 93.4137 119.025 94.632C117.932 95.7257 116.547 96.5703 115.315 96.5703C114.069 96.5703 112.698 95.7396 111.605 94.632C110.386 93.4137 109.5 91.8492 109.5 90.7416C109.486 82.1856 109.999 73.5327 111.065 67.3718Z"/>
</mask>
<path fill-rule="evenodd" clip-rule="evenodd" d="M111.065 67.3718C111.992 61.9585 113.391 58.4004 115.315 58.4004C117.239 58.4004 118.638 61.9446 119.565 67.3718C120.618 73.5327 121.13 82.1995 121.13 90.7416C121.13 91.8492 120.244 93.4137 119.025 94.632C117.932 95.7257 116.547 96.5703 115.315 96.5703C114.069 96.5703 112.698 95.7396 111.605 94.632C110.386 93.4137 109.5 91.8492 109.5 90.7416C109.486 82.1856 109.999 73.5327 111.065 67.3718Z" fill="#AA3964"/>
<path fill-rule="evenodd" clip-rule="evenodd" d="M111.065 67.3718C111.992 61.9585 113.391 58.4004 115.315 58.4004C117.239 58.4004 118.638 61.9446 119.565 67.3718C120.618 73.5327 121.13 82.1995 121.13 90.7416C121.13 91.8492 120.244 93.4137 119.025 94.632C117.932 95.7257 116.547 96.5703 115.315 96.5703C114.069 96.5703 112.698 95.7396 111.605 94.632C110.386 93.4137 109.5 91.8492 109.5 90.7416C109.486 82.1856 109.999 73.5327 111.065 67.3718Z" stroke="black" stroke-width="2" mask="url(#path-36-outside-7_1233_2887)"/>
<path fill-rule="evenodd" clip-rule="evenodd" d="M115.319 65.9204C114.004 65.9204 113.672 66.5296 113.049 68.8001C111.872 73.0781 111.18 80.7342 112.329 85.4968C112.869 87.7674 113.519 88.3765 115.333 88.3765C117.133 88.3765 117.783 87.7812 118.337 85.4968C119.473 80.7342 118.78 73.0781 117.617 68.8001C116.967 66.5296 116.634 65.9204 115.319 65.9204Z" fill="#DB5C87"/>
<path d="M115 59.6006C113.345 59.6006 112.143 62.9008 111.345 67.9219C110.429 73.6363 109.988 81.6622 110 89.5983C110 90.1759 110.241 90.8874 110.638 91.6006C109.986 88.3542 110.784 75.3162 111.72 70.2673C112.58 65.6296 114.336 60.665 115 59.6006Z" fill="white"/>
<mask id="path-39-outside-8_1233_2887" maskUnits="userSpaceOnUse" x="106.699" y="90.4004" width="17" height="14" fill="black">
<rect fill="white" x="106.699" y="90.4004" width="17" height="14"/>
<path fill-rule="evenodd" clip-rule="evenodd" d="M115.271 93.3598C117.048 93.3598 119.442 93.3901 120.987 92.4964C121.389 92.2692 121.899 92.557 121.837 93.0114C121.528 95.0714 120.956 97.1011 120.524 99.146C120.045 101.388 117.295 102.085 115.271 102.085C113.247 102.085 110.528 101.388 110.018 99.1612C109.57 97.1617 109.014 95.026 108.705 93.0114C108.643 92.5872 109.106 92.254 109.508 92.4661C111.084 93.3598 113.494 93.3598 115.271 93.3598Z"/>
</mask>
<path fill-rule="evenodd" clip-rule="evenodd" d="M115.271 93.3598C117.048 93.3598 119.442 93.3901 120.987 92.4964C121.389 92.2692 121.899 92.557 121.837 93.0114C121.528 95.0714 120.956 97.1011 120.524 99.146C120.045 101.388 117.295 102.085 115.271 102.085C113.247 102.085 110.528 101.388 110.018 99.1612C109.57 97.1617 109.014 95.026 108.705 93.0114C108.643 92.5872 109.106 92.254 109.508 92.4661C111.084 93.3598 113.494 93.3598 115.271 93.3598Z" fill="#6D6E70"/>
<path fill-rule="evenodd" clip-rule="evenodd" d="M115.271 93.3598C117.048 93.3598 119.442 93.3901 120.987 92.4964C121.389 92.2692 121.899 92.557 121.837 93.0114C121.528 95.0714 120.956 97.1011 120.524 99.146C120.045 101.388 117.295 102.085 115.271 102.085C113.247 102.085 110.528 101.388 110.018 99.1612C109.57 97.1617 109.014 95.026 108.705 93.0114C108.643 92.5872 109.106 92.254 109.508 92.4661C111.084 93.3598 113.494 93.3598 115.271 93.3598Z" stroke="black" stroke-width="2.97443" mask="url(#path-39-outside-8_1233_2887)"/>
<path d="M120.988 92.4964C119.443 93.3901 117.048 93.3598 115.271 93.3598V102.085C117.295 102.085 120.045 101.388 120.524 99.146C120.957 97.1012 121.529 95.0714 121.838 93.0114C121.899 92.557 121.39 92.2692 120.988 92.4964Z" fill="#404041"/>
<path d="M108.705 93.0114C109.014 95.026 109.57 97.1617 110.018 99.1612L109.508 93.438L111.12 93.0921L109.508 92.4661C109.106 92.254 108.643 92.5872 108.705 93.0114Z" fill="#BBBDBF"/>
<path d="M121.836 93.0114C121.527 95.026 120.971 97.1617 120.523 99.1612L121.033 93.438L119.421 93.0921L121.033 92.4661C121.435 92.254 121.898 92.5872 121.836 93.0114Z" fill="#BBBDBF"/>
<path d="M119.42 93.7842C117.955 93.9409 116.452 94.2496 115.17 94.2496C113.949 94.2496 112.526 93.9293 111.119 93.7842C111.119 93.7842 113.511 95.1431 115.17 95.1673C116.903 95.1926 119.42 93.7842 119.42 93.7842Z" fill="white"/>
<path d="M107.605 89.7854C107.605 89.7854 107.603 89.7026 107.602 89.5444C107.6 89.7574 107.599 90.1178 107.601 90.6063L106.865 91.4006C106.856 90.8019 106.85 90.193 106.848 89.5741C106.848 89.6285 106.847 89.683 106.847 89.7376L106.847 90.3205C106.847 90.1252 106.847 89.9309 106.847 89.7376L106.847 89.4194C106.847 89.2092 106.847 88.9979 106.847 88.7854L106.847 89.4194C106.847 89.471 106.848 89.5226 106.848 89.5741C106.904 70.9815 110.509 61.5057 110.509 61.5057C107.586 73.2265 107.587 87.5264 107.602 89.5444C107.603 89.3973 107.605 89.3205 107.605 89.3205L107.605 89.7854Z" fill="white"/>
<path d="M123.02 89.7854C123.02 89.7854 123.022 89.7026 123.023 89.5444C123.025 89.7574 123.026 90.1178 123.024 90.6063L123.76 91.4006C123.769 90.8019 123.775 90.193 123.777 89.5741C123.777 89.6285 123.778 89.683 123.778 89.7376L123.778 90.3205C123.778 90.1252 123.778 89.9309 123.778 89.7376L123.778 89.4194C123.778 89.2092 123.778 88.9979 123.778 88.7854L123.778 89.4194C123.778 89.471 123.777 89.5226 123.777 89.5741C123.721 70.9815 120.116 61.5057 120.116 61.5057C123.039 73.2265 123.038 87.5264 123.023 89.5444C123.022 89.3973 123.02 89.3205 123.02 89.3205L123.02 89.7854Z" fill="white"/>
<path d="M119.672 88.4753C119.497 89.5477 118.994 90.3562 118.548 90.2837C118.102 90.2113 117.882 89.2837 118.06 88.2113C118.237 87.1388 118.74 86.3304 119.183 86.4052C119.627 86.48 119.849 87.4052 119.672 88.4753Z" fill="white"/>
<path d="M112.149 87.3101C112.622 87.3101 113.006 86.8917 113.006 86.3755C113.006 85.8593 112.622 85.4409 112.149 85.4409C111.675 85.4409 111.291 85.8593 111.291 86.3755C111.291 86.8917 111.675 87.3101 112.149 87.3101Z" fill="white"/>
<path d="M113.599 89.5319C113.874 89.5319 114.097 89.3091 114.097 89.0343C114.097 88.7594 113.874 88.5366 113.599 88.5366C113.324 88.5366 113.102 88.7594 113.102 89.0343C113.102 89.3091 113.324 89.5319 113.599 89.5319Z" fill="white"/>
<path d="M118.72 70.459C119.084 72.9812 119.013 75.0783 118.564 75.1423C118.115 75.2063 117.46 73.2146 117.099 70.6928C116.737 68.171 116.804 66.073 117.255 66.0095C117.706 65.9459 118.357 67.9367 118.72 70.459Z" fill="white"/>
<path d="M119.505 78.3851C119.465 79.4708 119.069 80.3384 118.618 80.3213C118.167 80.3042 117.836 79.4133 117.871 78.3267C117.907 77.2402 118.307 76.3758 118.758 76.3929C119.208 76.41 119.544 77.3017 119.505 78.3851Z" fill="white"/>
<path d="M115.967 60.3184C115.967 60.3184 117.068 62.5023 116.268 65.9587C116.268 65.9587 114.778 63.7408 115.967 60.3184Z" fill="white"/>

    </svg>
