
    <svg width="230" height="230" viewBox="0 0 230 230" fill="none" xmlns="http://www.w3.org/2000/svg">
        
<mask id="path-1-outside-1_1233_2887" maskUnits="userSpaceOnUse" x="71.3008" y="126.955" width="19" height="19" fill="black">
<rect fill="white" x="71.3008" y="126.955" width="19" height="19"/>
<path fill-rule="evenodd" clip-rule="evenodd" d="M87.9485 128.955V136.279C85.3595 136.279 83.3659 136.542 82.2722 137.47C81.22 138.356 80.6246 140.225 80.6246 143.617H73.3008C73.3008 137.843 74.8237 134.216 77.5788 131.89C80.2785 129.62 83.7674 128.955 87.9485 128.955Z"/>
</mask>
<path fill-rule="evenodd" clip-rule="evenodd" d="M87.9485 128.955V136.279C85.3595 136.279 83.3659 136.542 82.2722 137.47C81.22 138.356 80.6246 140.225 80.6246 143.617H73.3008C73.3008 137.843 74.8237 134.216 77.5788 131.89C80.2785 129.62 83.7674 128.955 87.9485 128.955Z" fill="#6D6E70"/>
<path fill-rule="evenodd" clip-rule="evenodd" d="M87.9485 128.955V136.279C85.3595 136.279 83.3659 136.542 82.2722 137.47C81.22 138.356 80.6246 140.225 80.6246 143.617H73.3008C73.3008 137.843 74.8237 134.216 77.5788 131.89C80.2785 129.62 83.7674 128.955 87.9485 128.955Z" stroke="black" stroke-width="3" mask="url(#path-1-outside-1_1233_2887)"/>
<path d="M87.3473 135.778C84.7583 135.778 82.7647 136.041 81.671 136.969C80.6188 137.855 80.0234 139.724 80.0234 143.116" stroke="#404041" stroke-width="1.5"/>
<path d="M88.3469 129.656C84.1658 129.656 80.677 130.32 77.9772 132.591C75.2221 134.917 73.6992 138.544 73.6992 144.317" stroke="white" stroke-width="1.5"/>
<mask id="path-4-outside-2_1233_2887" maskUnits="userSpaceOnUse" x="84.1074" y="123.3" width="27" height="26" fill="black">
<rect fill="white" x="84.1074" y="123.3" width="27" height="26"/>
<path fill-rule="evenodd" clip-rule="evenodd" d="M105.628 125.3H89.7763C87.7549 125.3 86.1074 126.948 86.1074 128.969V143.631C86.1074 145.652 87.7549 147.3 89.7763 147.3H96.6432C97.3632 147.3 97.9862 147.12 98.5953 146.732L107.581 141.056C108.674 140.363 109.283 139.256 109.283 137.954V128.983C109.297 126.948 107.65 125.3 105.628 125.3Z"/>
</mask>
<path fill-rule="evenodd" clip-rule="evenodd" d="M105.628 125.3H89.7763C87.7549 125.3 86.1074 126.948 86.1074 128.969V143.631C86.1074 145.652 87.7549 147.3 89.7763 147.3H96.6432C97.3632 147.3 97.9862 147.12 98.5953 146.732L107.581 141.056C108.674 140.363 109.283 139.256 109.283 137.954V128.983C109.297 126.948 107.65 125.3 105.628 125.3Z" fill="#6D6E70"/>
<path fill-rule="evenodd" clip-rule="evenodd" d="M105.628 125.3H89.7763C87.7549 125.3 86.1074 126.948 86.1074 128.969V143.631C86.1074 145.652 87.7549 147.3 89.7763 147.3H96.6432C97.3632 147.3 97.9862 147.12 98.5953 146.732L107.581 141.056C108.674 140.363 109.283 139.256 109.283 137.954V128.983C109.297 126.948 107.65 125.3 105.628 125.3Z" stroke="black" stroke-width="3" mask="url(#path-4-outside-2_1233_2887)"/>
<path d="M107.58 141.056L98.5949 146.732C98.5491 146.761 98.5032 146.789 98.4571 146.816C97.3599 144.98 97.2627 132.98 97.8599 130.48C98.3377 128.48 103.059 126.314 105.36 125.48L105.628 125.3C107.649 125.3 109.297 126.948 109.283 128.983V137.954C109.283 139.256 108.674 140.363 107.58 141.056Z" fill="#404041"/>
<path d="M89.7763 125.3H105.628C101.706 126.194 93.1604 126.08 90.3604 126.48C86.8604 126.98 87.7604 132.48 87.7604 137.954C87.7604 142.352 89.1376 146.009 89.7763 147.3C87.7549 147.3 86.1074 145.652 86.1074 143.631V128.969C86.1074 126.948 87.7549 125.3 89.7763 125.3Z" fill="white"/>
<path fill-rule="evenodd" clip-rule="evenodd" d="M58.7853 67.5518H62.5151C63.2029 67.5518 63.7672 68.1073 63.7584 68.795L63.388 104.885H58.7765C58.0887 104.885 57.5332 104.33 57.5332 103.642V68.795C57.542 68.1073 58.1063 67.5518 58.7853 67.5518Z" fill="#6D6E70"/>
<path d="M57.6581 73.1738L63.541 73.1738L63.541 70.8676L57.6581 70.8676L57.6581 73.1738Z" fill="#404041"/>
<path d="M57.6373 73.1738L63.5625 73.1738L63.5625 70.8676L57.6373 70.8676L57.6373 73.1738Z" stroke="black" stroke-width="0.429643"/>
<path d="M62.8121 73.0801L63.127 73.0801L63.127 71.2219L62.8121 71.2219L62.8121 73.0801Z" fill="black"/>
<path d="M62.1323 73.0801L62.4473 73.0801L62.4473 71.2219L62.1323 71.2219L62.1323 73.0801Z" fill="black"/>
<path d="M58.7495 73.0801L59.0645 73.0801L59.0645 71.2219L58.7495 71.2219L58.7495 73.0801Z" fill="black"/>
<path d="M58.0718 73.0801L58.3867 73.0801L58.3867 71.2219L58.0718 71.2219L58.0718 73.0801Z" fill="black"/>
<path d="M57.6104 71.0586L58.7056 71.0586L63.5886 71.0586L64.0117 70.5705L63.3375 67.0003L58.7056 67.0003L57.8614 67.0003L57.1877 70.5705L57.6104 71.0586Z" fill="#6D6E70"/>
<path d="M57.61 71.0581L58.6722 71.0581L58.2496 70.57L58.9238 66.9998L57.8611 66.9998L57.1874 70.57L57.61 71.0581Z" fill="white"/>
<path d="M62.1725 71.0581L63.5886 71.0581L64.0117 70.57L63.3375 66.9998L61.9214 66.9998L62.5956 70.57L62.1725 71.0581Z" fill="#404041"/>
<path d="M57.6104 71.0581L58.7056 71.0581L63.5886 71.0581L64.0117 70.57L63.3375 66.9998L58.7056 66.9998L57.8614 66.9998L57.1877 70.57L57.6104 71.0581Z" stroke="black" stroke-width="0.811667"/>
<path d="M57.3324 69.8716L63.8652 69.8716L63.8652 69.1541L57.3324 69.1541L57.3324 69.8716Z" fill="black"/>
<path d="M57.1711 74.4902L64.0254 74.4902L64.0254 74.0032L57.1711 74.0032L57.1711 74.4902Z" fill="white"/>
<path d="M57.0995 108.662L64.0977 108.662L64.0977 72.6598L57.0995 72.6598L57.0995 108.662Z" fill="#6D6E70"/>
<path d="M57.0992 108.662L59.4082 108.662L59.4082 72.6598L57.0992 72.6598L57.0992 108.662Z" fill="white"/>
<path d="M64.0977 108.662L64.0977 72.6593L61.5003 72.6593L61.5003 108.662L64.0977 108.662Z" fill="#404041"/>
<path d="M57.0995 108.662L64.0977 108.662L64.0977 72.6598L57.0995 72.6598L57.0995 108.662Z" stroke="black" stroke-width="0.811667"/>
<path d="M57.1711 74.1655L64.0254 74.1655L64.0254 73.6785L57.1711 73.6785L57.1711 74.1655Z" fill="black"/>
<path fill-rule="evenodd" clip-rule="evenodd" d="M66.0292 80.5381H67.6407C67.9379 80.5381 68.1817 80.7781 68.1779 81.0752L68.0179 96.668H66.0254C65.7283 96.668 65.4883 96.428 65.4883 96.1309V81.0752C65.4921 80.7781 65.7359 80.5381 66.0292 80.5381Z" fill="#6D6E70"/>
<path d="M65.5422 82.9673L68.084 82.9673L68.084 81.9709L65.5422 81.9709L65.5422 82.9673Z" fill="#404041"/>
<path d="M65.5338 82.9673L68.0938 82.9673L68.0938 81.9709L65.5338 81.9709L65.5338 82.9673Z" stroke="black" stroke-width="0.360895"/>
<path d="M67.7682 82.9268L67.9043 82.9268L67.9043 82.1239L67.7682 82.1239L67.7682 82.9268Z" fill="black"/>
<path d="M67.4753 82.9268L67.6113 82.9268L67.6113 82.1239L67.4753 82.1239L67.4753 82.9268Z" fill="black"/>
<path d="M66.0143 82.9268L66.1504 82.9268L66.1504 82.1239L66.0143 82.1239L66.0143 82.9268Z" fill="black"/>
<path d="M65.7213 82.9268L65.8574 82.9268L65.8574 82.1239L65.7213 82.1239L65.7213 82.9268Z" fill="black"/>
<path d="M65.5214 82.0532L65.9946 82.0532L68.1043 82.0532L68.2871 81.8423L67.9958 80.2998L65.9946 80.2998L65.6299 80.2998L65.3388 81.8423L65.5214 82.0532Z" fill="#6D6E70"/>
<path d="M65.5202 82.0532L65.9792 82.0532L65.7966 81.8423L66.0879 80.2998L65.6287 80.2998L65.3376 81.8423L65.5202 82.0532Z" fill="white"/>
<path d="M67.4925 82.0532L68.1043 82.0532L68.2871 81.8423L67.9958 80.2998L67.384 80.2998L67.6753 81.8423L67.4925 82.0532Z" fill="#404041"/>
<path d="M65.5214 82.0532L65.9946 82.0532L68.1043 82.0532L68.2871 81.8423L67.9958 80.2998L65.9946 80.2998L65.6299 80.2998L65.3388 81.8423L65.5214 82.0532Z" stroke="black" stroke-width="0.681792"/>
<path d="M65.4021 81.5405L68.2246 81.5405L68.2246 81.2305L65.4021 81.2305L65.4021 81.5405Z" fill="black"/>
<path d="M65.3316 83.5361L68.293 83.5361L68.293 83.3257L65.3316 83.3257L65.3316 83.5361Z" fill="white"/>
<path d="M65.3006 98.2998L68.3242 98.2998L68.3242 82.7452L65.3006 82.7452L65.3006 98.2998Z" fill="#6D6E70"/>
<path d="M65.3012 98.2998L66.2988 98.2998L66.2988 82.7452L65.3012 82.7452L65.3012 98.2998Z" fill="white"/>
<path d="M68.3242 98.2998L68.3242 82.7449L67.202 82.7449L67.202 98.2998L68.3242 98.2998Z" fill="#404041"/>
<path d="M65.3006 98.2998L68.3242 98.2998L68.3242 82.7452L65.3006 82.7452L65.3006 98.2998Z" stroke="black" stroke-width="0.681792"/>
<path d="M65.3316 83.3955L68.293 83.3955L68.293 83.1851L65.3316 83.1851L65.3316 83.3955Z" fill="black"/>
<mask id="path-43-outside-3_1233_2887" maskUnits="userSpaceOnUse" x="55.0078" y="82.8149" width="61" height="118" fill="black">
<rect fill="white" x="55.0078" y="82.8149" width="61" height="118"/>
<path d="M68.0005 97.8076L57.0078 86.8149V194.901C57.0078 199.954 68.0005 199.954 68.0005 194.901V181.181V165.3L113.799 146.3V126.3L68.0005 145.8V134.87V97.8076Z"/>
</mask>
<path d="M68.0005 97.8076L57.0078 86.8149V194.901C57.0078 199.954 68.0005 199.954 68.0005 194.901V181.181V165.3L113.799 146.3V126.3L68.0005 145.8V134.87V97.8076Z" fill="#6D6E70"/>
<path d="M70.1154 165.232L114.087 146.993L113.512 145.607L69.5407 163.846L70.1154 165.232ZM57.0078 86.8149L58.0685 85.7543L55.5078 83.1936V86.8149H57.0078ZM68.0005 97.8076H69.5005V97.1863L69.0612 96.747L68.0005 97.8076ZM68.0005 145.8H66.5005V148.069L68.5881 147.18L68.0005 145.8ZM113.799 146.3L114.374 147.685L115.299 147.301V146.3H113.799ZM113.799 126.3H115.299V124.031L113.212 124.92L113.799 126.3ZM68.0005 165.3L67.4257 163.914L66.5005 164.298V165.3H68.0005ZM55.9472 87.8756L66.9399 98.8683L69.0612 96.747L58.0685 85.7543L55.9472 87.8756ZM66.5005 97.8076V134.87H69.5005V97.8076H66.5005ZM66.5005 181.181V194.901H69.5005V181.181H66.5005ZM66.5005 194.901C66.5005 195.522 66.1972 196.036 65.499 196.464C64.7618 196.916 63.6776 197.191 62.5042 197.191C61.3307 197.191 60.2466 196.916 59.5093 196.464C58.8111 196.036 58.5078 195.522 58.5078 194.901H55.5078C55.5078 196.805 56.5786 198.187 57.9416 199.022C59.2654 199.833 60.9295 200.191 62.5042 200.191C64.0789 200.191 65.7429 199.833 67.0668 199.022C68.4297 198.187 69.5005 196.805 69.5005 194.901H66.5005ZM58.5078 194.901V86.8149H55.5078V194.901H58.5078ZM69.5005 145.8V134.87H66.5005V145.8H69.5005ZM68.5881 147.18L114.387 127.68L113.212 124.92L67.4129 144.42L68.5881 147.18ZM112.299 126.3V146.3H115.299V126.3H112.299ZM113.225 144.914L67.4257 163.914L68.5753 166.685L114.374 147.685L113.225 144.914ZM66.5005 165.3V181.181H69.5005V165.3H66.5005Z" fill="black" mask="url(#path-43-outside-3_1233_2887)"/>
<rect x="61.6508" y="191.45" width="1.7" height="4.3" rx="0.65" fill="black" stroke="black" stroke-width="0.3"/>
<rect x="61.8008" y="191.6" width="1.4" height="4" rx="0.5" fill="#9E3E63"/>
<path fill-rule="evenodd" clip-rule="evenodd" d="M62.1769 192.307H62.5587C62.7149 192.307 62.845 192.371 62.845 192.447V195.095C62.845 195.171 62.7149 195.235 62.5587 195.235H62.1769C62.0208 195.235 61.8906 195.171 61.8906 195.095V192.45C61.8906 192.371 62.0208 192.307 62.1769 192.307Z" fill="#F39DB1"/>
<path d="M62.5263 192.408C62.6141 192.408 62.6853 192.34 62.6853 192.256C62.6853 192.173 62.6141 192.105 62.5263 192.105C62.4384 192.105 62.3672 192.173 62.3672 192.256C62.3672 192.34 62.4384 192.408 62.5263 192.408Z" fill="white"/>
<path d="M62.0488 194.858V193.552C62.0488 193.438 62.2505 193.257 62.5688 193.077C62.6032 193.054 62.6418 193.033 62.6851 193.014C62.6448 193.035 62.606 193.056 62.5688 193.077C62.3252 193.235 62.2931 193.452 62.3118 193.552L62.3118 194.858C62.2931 194.958 62.4207 195.085 62.8503 195.155C62.5003 195.155 62.0488 194.972 62.0488 194.858Z" fill="white"/>
<path d="M68.002 134.87V97.8081L66.4941 96.3003V197.607C67.4071 196.979 68.002 196.077 68.002 194.901V181.181V165.3L113.801 146.3V137.3L69.8295 145.022L68.002 145.8V134.87Z" fill="#404041"/>
<path d="M70.5363 151.384L70.9409 145.899L75.1417 143.866L71.9328 147.016L70.5363 151.384Z" fill="white"/>
<path d="M64.3008 95.3003L67.3068 98.1569L67.3156 102.727L66.4234 98.6192L64.3008 95.3003Z" fill="white"/>
<path d="M57.0078 86.8154V194.901C57.0078 196.067 57.5927 196.964 58.4927 197.591V88.3003L57.0078 86.8154Z" fill="white"/>
<path d="M56.0996 155.14C56.0996 155.14 59.3516 152.668 59.3516 150.554V140.571C59.3516 138.099 56.1321 136.506 56.1321 136.506L56.0996 155.14Z" fill="#404041"/>
<path d="M55.4285 136.3C55.4285 136.3 53 137.904 53 140.158V150.999C53 152.82 55.7746 154.944 55.7746 154.944L57.7699 149.741V140.552L55.4285 136.3Z" fill="#F39DB1"/>
<path d="M56.4692 138.189V147.14L54.4738 152.343C53.9448 151.922 53.4518 151.459 53 150.956V150.999C53 152.82 55.7746 154.944 55.7746 154.944L57.7699 149.741V140.552L56.4692 138.189Z" fill="#9E3E63"/>
<path d="M55.4285 136.3C55.4285 136.3 53 137.904 53 140.158V150.999C53 152.82 55.7746 154.944 55.7746 154.944C55.7746 154.944 57.7699 150.944 57.7699 149.741V140.552C57.7699 139.009 55.4285 136.3 55.4285 136.3Z" stroke="black"/>
<path d="M54.2583 146.229C54.2583 146.229 53.1526 138.902 55.2339 138.077C55.2339 138.081 54.3012 144.386 54.2583 146.229Z" fill="white"/>
<path d="M68.0556 143.2L68 167.235L70 144.993L68.0556 143.2Z" fill="black"/>
<path d="M61.8008 90.8003V123.3L68.8008 130.3" stroke="black"/>
<mask id="path-61-outside-4_1233_2887" maskUnits="userSpaceOnUse" x="140.197" y="126.955" width="19" height="19" fill="black">
<rect fill="white" x="140.197" y="126.955" width="19" height="19"/>
<path fill-rule="evenodd" clip-rule="evenodd" d="M142.55 128.955V136.279C145.139 136.279 147.132 136.542 148.226 137.47C149.278 138.356 149.873 140.225 149.873 143.617H157.197C157.197 137.843 155.674 134.216 152.919 131.89C150.22 129.62 146.731 128.955 142.55 128.955Z"/>
</mask>
<path fill-rule="evenodd" clip-rule="evenodd" d="M142.55 128.955V136.279C145.139 136.279 147.132 136.542 148.226 137.47C149.278 138.356 149.873 140.225 149.873 143.617H157.197C157.197 137.843 155.674 134.216 152.919 131.89C150.22 129.62 146.731 128.955 142.55 128.955Z" fill="#6D6E70"/>
<path fill-rule="evenodd" clip-rule="evenodd" d="M142.55 128.955V136.279C145.139 136.279 147.132 136.542 148.226 137.47C149.278 138.356 149.873 140.225 149.873 143.617H157.197C157.197 137.843 155.674 134.216 152.919 131.89C150.22 129.62 146.731 128.955 142.55 128.955Z" stroke="black" stroke-width="3" mask="url(#path-61-outside-4_1233_2887)"/>
<path d="M143.151 135.778C145.74 135.778 147.733 136.041 148.827 136.969C149.879 137.855 150.475 139.724 150.475 143.116" stroke="#404041" stroke-width="1.5"/>
<path d="M142.151 129.656C146.332 129.656 149.821 130.32 152.521 132.591C155.276 134.917 156.799 138.544 156.799 144.317" stroke="white" stroke-width="1.5"/>
<mask id="path-64-outside-5_1233_2887" maskUnits="userSpaceOnUse" x="119.391" y="123.3" width="27" height="26" fill="black">
<rect fill="white" x="119.391" y="123.3" width="27" height="26"/>
<path fill-rule="evenodd" clip-rule="evenodd" d="M124.87 125.3H140.722C142.743 125.3 144.391 126.948 144.391 128.969V143.631C144.391 145.652 142.743 147.3 140.722 147.3H133.855C133.135 147.3 132.512 147.12 131.903 146.732L122.917 141.056C121.824 140.363 121.215 139.256 121.215 137.954V128.983C121.201 126.948 122.848 125.3 124.87 125.3Z"/>
</mask>
<path fill-rule="evenodd" clip-rule="evenodd" d="M124.87 125.3H140.722C142.743 125.3 144.391 126.948 144.391 128.969V143.631C144.391 145.652 142.743 147.3 140.722 147.3H133.855C133.135 147.3 132.512 147.12 131.903 146.732L122.917 141.056C121.824 140.363 121.215 139.256 121.215 137.954V128.983C121.201 126.948 122.848 125.3 124.87 125.3Z" fill="#6D6E70"/>
<path fill-rule="evenodd" clip-rule="evenodd" d="M124.87 125.3H140.722C142.743 125.3 144.391 126.948 144.391 128.969V143.631C144.391 145.652 142.743 147.3 140.722 147.3H133.855C133.135 147.3 132.512 147.12 131.903 146.732L122.917 141.056C121.824 140.363 121.215 139.256 121.215 137.954V128.983C121.201 126.948 122.848 125.3 124.87 125.3Z" stroke="black" stroke-width="3" mask="url(#path-64-outside-5_1233_2887)"/>
<path d="M122.918 141.056L131.903 146.732C131.949 146.761 131.995 146.789 132.041 146.816C133.138 144.98 133.235 132.98 132.638 130.48C132.16 128.48 127.439 126.314 125.138 125.48L124.87 125.3C122.849 125.3 121.201 126.948 121.215 128.983V137.954C121.215 139.256 121.824 140.363 122.918 141.056Z" fill="#404041"/>
<path d="M140.722 125.3H124.87C128.792 126.194 137.338 126.08 140.138 126.48C143.638 126.98 142.738 132.48 142.738 137.954C142.738 142.352 141.36 146.009 140.722 147.3C142.743 147.3 144.391 145.652 144.391 143.631V128.969C144.391 126.948 142.743 125.3 140.722 125.3Z" fill="white"/>
<path fill-rule="evenodd" clip-rule="evenodd" d="M171.713 67.5518H167.983C167.295 67.5518 166.731 68.1073 166.74 68.795L167.11 104.885H171.722C172.409 104.885 172.965 104.33 172.965 103.642V68.795C172.956 68.1073 172.392 67.5518 171.713 67.5518Z" fill="#6D6E70"/>
<path d="M172.84 73.1738L166.957 73.1738L166.957 70.8676L172.84 70.8676L172.84 73.1738Z" fill="#404041"/>
<path d="M172.861 73.1738L166.936 73.1738L166.936 70.8676L172.861 70.8676L172.861 73.1738Z" stroke="black" stroke-width="0.429643"/>
<path d="M167.686 73.0801L167.371 73.0801L167.371 71.2219L167.686 71.2219L167.686 73.0801Z" fill="black"/>
<path d="M168.366 73.0801L168.051 73.0801L168.051 71.2219L168.366 71.2219L168.366 73.0801Z" fill="black"/>
<path d="M171.749 73.0801L171.434 73.0801L171.434 71.2219L171.749 71.2219L171.749 73.0801Z" fill="black"/>
<path d="M172.426 73.0801L172.111 73.0801L172.111 71.2219L172.426 71.2219L172.426 73.0801Z" fill="black"/>
<path d="M172.888 71.0586L171.792 71.0586L166.909 71.0586L166.486 70.5705L167.161 67.0003L171.792 67.0003L172.637 67.0003L173.31 70.5705L172.888 71.0586Z" fill="#6D6E70"/>
<path d="M172.888 71.0581L171.826 71.0581L172.248 70.57L171.574 66.9998L172.637 66.9998L173.311 70.57L172.888 71.0581Z" fill="white"/>
<path d="M168.326 71.0581L166.909 71.0581L166.486 70.57L167.161 66.9998L168.577 66.9998L167.902 70.57L168.326 71.0581Z" fill="#404041"/>
<path d="M172.888 71.0581L171.792 71.0581L166.909 71.0581L166.486 70.57L167.161 66.9998L171.792 66.9998L172.637 66.9998L173.31 70.57L172.888 71.0581Z" stroke="black" stroke-width="0.811667"/>
<path d="M173.166 69.8716L166.633 69.8716L166.633 69.1541L173.166 69.1541L173.166 69.8716Z" fill="black"/>
<path d="M173.327 74.4902L166.473 74.4902L166.473 74.0032L173.327 74.0032L173.327 74.4902Z" fill="white"/>
<path d="M173.399 108.662L166.4 108.662L166.4 72.6598L173.399 72.6598L173.399 108.662Z" fill="#6D6E70"/>
<path d="M173.399 108.662L171.09 108.662L171.09 72.6598L173.399 72.6598L173.399 108.662Z" fill="white"/>
<path d="M166.4 108.662L166.4 72.6593L168.998 72.6593L168.998 108.662L166.4 108.662Z" fill="#404041"/>
<path d="M173.399 108.662L166.4 108.662L166.4 72.6598L173.399 72.6598L173.399 108.662Z" stroke="black" stroke-width="0.811667"/>
<path d="M173.327 74.1655L166.473 74.1655L166.473 73.6785L173.327 73.6785L173.327 74.1655Z" fill="black"/>
<path fill-rule="evenodd" clip-rule="evenodd" d="M164.469 80.5381H162.857C162.56 80.5381 162.316 80.7781 162.32 81.0752L162.48 96.668H164.473C164.77 96.668 165.01 96.428 165.01 96.1309V81.0752C165.006 80.7781 164.762 80.5381 164.469 80.5381Z" fill="#6D6E70"/>
<path d="M164.956 82.9673L162.414 82.9673L162.414 81.9709L164.956 81.9709L164.956 82.9673Z" fill="#404041"/>
<path d="M164.964 82.9673L162.404 82.9673L162.404 81.9709L164.964 81.9709L164.964 82.9673Z" stroke="black" stroke-width="0.360895"/>
<path d="M162.73 82.9268L162.594 82.9268L162.594 82.1239L162.73 82.1239L162.73 82.9268Z" fill="black"/>
<path d="M163.023 82.9268L162.887 82.9268L162.887 82.1239L163.023 82.1239L163.023 82.9268Z" fill="black"/>
<path d="M164.484 82.9268L164.348 82.9268L164.348 82.1239L164.484 82.1239L164.484 82.9268Z" fill="black"/>
<path d="M164.777 82.9268L164.641 82.9268L164.641 82.1239L164.777 82.1239L164.777 82.9268Z" fill="black"/>
<path d="M164.977 82.0532L164.503 82.0532L162.394 82.0532L162.211 81.8423L162.502 80.2998L164.503 80.2998L164.868 80.2998L165.159 81.8423L164.977 82.0532Z" fill="#6D6E70"/>
<path d="M164.978 82.0532L164.519 82.0532L164.701 81.8423L164.41 80.2998L164.869 80.2998L165.16 81.8423L164.978 82.0532Z" fill="white"/>
<path d="M163.006 82.0532L162.394 82.0532L162.211 81.8423L162.502 80.2998L163.114 80.2998L162.823 81.8423L163.006 82.0532Z" fill="#404041"/>
<path d="M164.977 82.0532L164.503 82.0532L162.394 82.0532L162.211 81.8423L162.502 80.2998L164.503 80.2998L164.868 80.2998L165.159 81.8423L164.977 82.0532Z" stroke="black" stroke-width="0.681792"/>
<path d="M165.096 81.5405L162.273 81.5405L162.273 81.2305L165.096 81.2305L165.096 81.5405Z" fill="black"/>
<path d="M165.166 83.5361L162.205 83.5361L162.205 83.3257L165.166 83.3257L165.166 83.5361Z" fill="white"/>
<path d="M165.197 98.2998L162.174 98.2998L162.174 82.7452L165.197 82.7452L165.197 98.2998Z" fill="#6D6E70"/>
<path d="M165.197 98.2998L164.199 98.2998L164.199 82.7452L165.197 82.7452L165.197 98.2998Z" fill="white"/>
<path d="M162.174 98.2998L162.174 82.7449L163.296 82.7449L163.296 98.2998L162.174 98.2998Z" fill="#404041"/>
<path d="M165.197 98.2998L162.174 98.2998L162.174 82.7452L165.197 82.7452L165.197 98.2998Z" stroke="black" stroke-width="0.681792"/>
<path d="M165.166 83.3955L162.205 83.3955L162.205 83.1851L165.166 83.1851L165.166 83.3955Z" fill="black"/>
<mask id="path-103-outside-6_1233_2887" maskUnits="userSpaceOnUse" x="114.49" y="82.8149" width="61" height="118" fill="black">
<rect fill="white" x="114.49" y="82.8149" width="61" height="118"/>
<path d="M162.498 97.8076L173.49 86.8149V194.901C173.49 199.954 162.498 199.954 162.498 194.901V181.181V165.3L116.699 146.3V126.3L162.498 145.8V134.87V97.8076Z"/>
</mask>
<path d="M162.498 97.8076L173.49 86.8149V194.901C173.49 199.954 162.498 199.954 162.498 194.901V181.181V165.3L116.699 146.3V126.3L162.498 145.8V134.87V97.8076Z" fill="#6D6E70"/>
<path d="M160.383 165.232L116.411 146.993L116.986 145.607L160.957 163.846L160.383 165.232ZM173.49 86.8149L172.43 85.7543L174.99 83.1936V86.8149H173.49ZM162.498 97.8076H160.998V97.1863L161.437 96.747L162.498 97.8076ZM162.498 145.8H163.998V148.069L161.91 147.18L162.498 145.8ZM116.699 146.3L116.124 147.685L115.199 147.301V146.3H116.699ZM116.699 126.3H115.199V124.031L117.286 124.92L116.699 126.3ZM162.498 165.3L163.072 163.914L163.998 164.298V165.3H162.498ZM174.551 87.8756L163.558 98.8683L161.437 96.747L172.43 85.7543L174.551 87.8756ZM163.998 97.8076V134.87H160.998V97.8076H163.998ZM163.998 181.181V194.901H160.998V181.181H163.998ZM163.998 194.901C163.998 195.522 164.301 196.036 164.999 196.464C165.736 196.916 166.82 197.191 167.994 197.191C169.167 197.191 170.251 196.916 170.989 196.464C171.687 196.036 171.99 195.522 171.99 194.901H174.99C174.99 196.805 173.919 198.187 172.556 199.022C171.233 199.833 169.569 200.191 167.994 200.191C166.419 200.191 164.755 199.833 163.431 199.022C162.068 198.187 160.998 196.805 160.998 194.901H163.998ZM171.99 194.901V86.8149H174.99V194.901H171.99ZM160.998 145.8V134.87H163.998V145.8H160.998ZM161.91 147.18L116.111 127.68L117.286 124.92L163.085 144.42L161.91 147.18ZM118.199 126.3V146.3H115.199V126.3H118.199ZM117.274 144.914L163.072 163.914L161.923 166.685L116.124 147.685L117.274 144.914ZM163.998 165.3V181.181H160.998V165.3H163.998Z" fill="black" mask="url(#path-103-outside-6_1233_2887)"/>
<rect x="0.15" y="-0.15" width="1.7" height="4.3" rx="0.65" transform="matrix(-1 0 0 1 168.997 191.6)" fill="black" stroke="black" stroke-width="0.3"/>
<rect width="1.4" height="4" rx="0.5" transform="matrix(-1 0 0 1 168.697 191.6)" fill="#9E3E63"/>
<path fill-rule="evenodd" clip-rule="evenodd" d="M168.321 192.307H167.939C167.783 192.307 167.653 192.371 167.653 192.447V195.095C167.653 195.171 167.783 195.235 167.939 195.235H168.321C168.477 195.235 168.607 195.171 168.607 195.095V192.45C168.607 192.371 168.477 192.307 168.321 192.307Z" fill="#F39DB1"/>
<path d="M167.972 192.408C167.884 192.408 167.813 192.34 167.813 192.256C167.813 192.173 167.884 192.105 167.972 192.105C168.06 192.105 168.131 192.173 168.131 192.256C168.131 192.34 168.06 192.408 167.972 192.408Z" fill="white"/>
<path d="M168.449 194.858V193.552C168.449 193.438 168.248 193.257 167.929 193.077C167.895 193.054 167.856 193.033 167.813 193.014C167.853 193.035 167.892 193.056 167.929 193.077C168.173 193.235 168.205 193.452 168.186 193.552L168.186 194.858C168.205 194.958 168.077 195.085 167.648 195.155C167.998 195.155 168.449 194.972 168.449 194.858Z" fill="white"/>
<path d="M162.496 134.87V97.8081L164.004 96.3003V197.607C163.091 196.979 162.496 196.077 162.496 194.901V181.181V165.3L116.697 146.3V137.3L160.669 145.022L162.496 145.8V134.87Z" fill="#404041"/>
<path d="M159.962 151.384L159.557 145.899L155.356 143.866L158.565 147.016L159.962 151.384Z" fill="white"/>
<path d="M166.197 95.3003L163.191 98.1569L163.182 102.727L164.075 98.6192L166.197 95.3003Z" fill="white"/>
<path d="M173.49 86.8154V194.901C173.49 196.067 172.905 196.964 172.005 197.591V88.3003L173.49 86.8154Z" fill="white"/>
<path d="M174.398 155.14C174.398 155.14 171.146 152.668 171.146 150.554V140.571C171.146 138.099 174.366 136.506 174.366 136.506L174.398 155.14Z" fill="#404041"/>
<path d="M175.07 136.3C175.07 136.3 177.498 137.904 177.498 140.158V150.999C177.498 152.82 174.723 154.944 174.723 154.944L172.728 149.741V140.552L175.07 136.3Z" fill="#F39DB1"/>
<path d="M174.029 138.189V147.14L176.024 152.343C176.553 151.922 177.046 151.459 177.498 150.956V150.999C177.498 152.82 174.723 154.944 174.723 154.944L172.728 149.741V140.552L174.029 138.189Z" fill="#9E3E63"/>
<path d="M175.07 136.3C175.07 136.3 177.498 137.904 177.498 140.158V150.999C177.498 152.82 174.723 154.944 174.723 154.944C174.723 154.944 172.728 150.944 172.728 149.741V140.552C172.728 139.009 175.07 136.3 175.07 136.3Z" stroke="black"/>
<path d="M176.24 146.229C176.24 146.229 177.345 138.902 175.264 138.077C175.264 138.081 176.197 144.386 176.24 146.229Z" fill="white"/>
<path d="M162.442 143.2L162.498 167.235L160.498 144.993L162.442 143.2Z" fill="black"/>
<path d="M168.697 90.8003V123.3L161.697 130.3" stroke="black"/>

        
<mask id="path-1-outside-1_1233_2887" maskUnits="userSpaceOnUse" x="71.9716" y="144.637" width="38.1799" height="38.1799" fill="black">
<rect fill="white" x="71.9716" y="144.637" width="38.1799" height="38.1799"/>
<path fill-rule="evenodd" clip-rule="evenodd" d="M85.6639 154.215L101.388 158.078C102.252 158.262 102.812 159.096 102.678 159.969L101.011 170.146C100.894 170.862 100.363 171.389 99.6603 171.516L84.7619 171.988L85.6639 154.215Z"/>
</mask>
<path fill-rule="evenodd" clip-rule="evenodd" d="M85.6639 154.215L101.388 158.078C102.252 158.262 102.812 159.096 102.678 159.969L101.011 170.146C100.894 170.862 100.363 171.389 99.6603 171.516L84.7619 171.988L85.6639 154.215Z" fill="#6D6E70"/>
<path fill-rule="evenodd" clip-rule="evenodd" d="M85.6639 154.215L101.388 158.078C102.252 158.262 102.812 159.096 102.678 159.969L101.011 170.146C100.894 170.862 100.363 171.389 99.6603 171.516L84.7619 171.988L85.6639 154.215Z" stroke="black" stroke-width="3" mask="url(#path-1-outside-1_1233_2887)"/>
<path d="M101.388 158.078L85.6639 154.215L102.45 161.361L102.678 159.969C102.812 159.096 102.252 158.262 101.388 158.078Z" fill="white"/>
<mask id="path-3-outside-2_1233_2887" maskUnits="userSpaceOnUse" x="32.1872" y="127.226" width="65.148" height="64.9464" fill="black">
<rect fill="white" x="32.1872" y="127.226" width="65.148" height="64.9464"/>
<path fill-rule="evenodd" clip-rule="evenodd" d="M81.9831 153.573L59.1812 163.924L55.4838 150.426C55.2981 149.763 54.9674 149.229 54.442 148.777L48.4554 143.653C47.9599 143.23 47.2223 143.691 47.3782 144.325L55.4439 175.795C55.8998 177.55 57.6873 178.631 59.4434 178.195L84.7615 171.97C85.4541 171.793 86.0077 171.482 86.5095 170.966L92.1543 165.158C93.4279 163.847 93.3978 161.733 92.0873 160.459L85.6637 154.216C84.6709 153.251 83.2478 153.007 81.9831 153.573Z"/>
</mask>
<path fill-rule="evenodd" clip-rule="evenodd" d="M81.9831 153.573L59.1812 163.924L55.4838 150.426C55.2981 149.763 54.9674 149.229 54.442 148.777L48.4554 143.653C47.9599 143.23 47.2223 143.691 47.3782 144.325L55.4439 175.795C55.8998 177.55 57.6873 178.631 59.4434 178.195L84.7615 171.97C85.4541 171.793 86.0077 171.482 86.5095 170.966L92.1543 165.158C93.4279 163.847 93.3978 161.733 92.0873 160.459L85.6637 154.216C84.6709 153.251 83.2478 153.007 81.9831 153.573Z" fill="#6D6E70"/>
<path fill-rule="evenodd" clip-rule="evenodd" d="M81.9831 153.573L59.1812 163.924L55.4838 150.426C55.2981 149.763 54.9674 149.229 54.442 148.777L48.4554 143.653C47.9599 143.23 47.2223 143.691 47.3782 144.325L55.4439 175.795C55.8998 177.55 57.6873 178.631 59.4434 178.195L84.7615 171.97C85.4541 171.793 86.0077 171.482 86.5095 170.966L92.1543 165.158C93.4279 163.847 93.3978 161.733 92.0873 160.459L85.6637 154.216C84.6709 153.251 83.2478 153.007 81.9831 153.573Z" stroke="black" stroke-width="3" mask="url(#path-3-outside-2_1233_2887)"/>
<path d="M59.4433 178.195C57.6872 178.631 55.8997 177.55 55.4438 175.794L53.4502 168.016C55.9475 171.903 56.715 176.135 64.1237 174.968C70.0507 174.035 80.3517 172.58 84.7614 171.969L59.4433 178.195Z" fill="#404041"/>
<path d="M62.8652 162.252L81.9831 153.573C83.2478 153.007 84.6709 153.251 85.6637 154.216L91.0545 159.455C89.8906 158.74 86.7101 157.038 83.3003 155.955C80.4369 155.046 70.0428 159.091 62.8652 162.252L59.1812 163.924L57.7224 158.598C56.7747 156.943 54.4385 153.025 52.6753 150.595C50.9121 148.164 48.8683 147.193 48.0668 147.011L47.3782 144.325C47.2223 143.691 47.9599 143.23 48.4554 143.653L54.442 148.777C54.9674 149.229 55.2981 149.763 55.4838 150.426L57.7224 158.598L59.1812 163.924C60.2422 163.426 61.4951 162.855 62.8652 162.252Z" fill="white"/>
<path d="M58.9084 162.847L62.1571 174.417L60.0881 163.444L58.9084 162.847Z" fill="black"/>
<mask id="path-7-inside-3_1233_2887" fill="white">
<path fill-rule="evenodd" clip-rule="evenodd" d="M73.5465 170.105L76.7298 169.32C77.2019 169.216 77.4544 169.668 77.3118 170.087L76.5057 172.454C76.4065 172.745 76.1308 173.048 75.8292 173.128L72.6581 173.907C72.1798 174.029 71.9059 173.58 72.0547 173.143L72.8609 170.776C72.9601 170.485 73.2358 170.182 73.5465 170.105Z"/>
</mask>
<path fill-rule="evenodd" clip-rule="evenodd" d="M73.5465 170.105L76.7298 169.32C77.2019 169.216 77.4544 169.668 77.3118 170.087L76.5057 172.454C76.4065 172.745 76.1308 173.048 75.8292 173.128L72.6581 173.907C72.1798 174.029 71.9059 173.58 72.0547 173.143L72.8609 170.776C72.9601 170.485 73.2358 170.182 73.5465 170.105Z" fill="#9E3E63" stroke="black" stroke-width="0.691728" mask="url(#path-7-inside-3_1233_2887)"/>
<path fill-rule="evenodd" clip-rule="evenodd" d="M73.5819 170.476L75.5027 170.002C75.7875 169.94 75.9399 170.212 75.8538 170.465L75.3674 171.893C75.3076 172.069 75.1412 172.251 74.9593 172.3L73.0459 172.77C72.7573 172.843 72.5921 172.572 72.6819 172.309L73.1683 170.881C73.2281 170.705 73.3945 170.522 73.5819 170.476Z" fill="#F39DB1"/>
<path d="M73.7888 170.65C73.5797 170.702 73.3942 170.905 73.3274 171.102L73.0562 171.898L73.7847 170.962L74.8599 170.386L73.7888 170.65Z" fill="white"/>
<mask id="path-10-inside-4_1233_2887" fill="white">
<path fill-rule="evenodd" clip-rule="evenodd" d="M68.3199 171.337L71.5033 170.552C71.9753 170.448 72.2279 170.9 72.0853 171.319L71.2791 173.686C71.1799 173.977 70.9042 174.28 70.6026 174.36L67.4315 175.139C66.9532 175.261 66.6793 174.812 66.8282 174.375L67.6343 172.008C67.7335 171.716 68.0092 171.414 68.3199 171.337Z"/>
</mask>
<path fill-rule="evenodd" clip-rule="evenodd" d="M68.3199 171.337L71.5033 170.552C71.9753 170.448 72.2279 170.9 72.0853 171.319L71.2791 173.686C71.1799 173.977 70.9042 174.28 70.6026 174.36L67.4315 175.139C66.9532 175.261 66.6793 174.812 66.8282 174.375L67.6343 172.008C67.7335 171.716 68.0092 171.414 68.3199 171.337Z" fill="#9E3E63" stroke="black" stroke-width="0.691728" mask="url(#path-10-inside-4_1233_2887)"/>
<path fill-rule="evenodd" clip-rule="evenodd" d="M68.3554 171.708L70.2761 171.234C70.561 171.172 70.7133 171.444 70.6273 171.697L70.1409 173.125C70.081 173.301 69.9147 173.483 69.7327 173.532L67.8193 174.002C67.5308 174.075 67.3655 173.804 67.4553 173.541L67.9417 172.113C68.0016 171.937 68.1679 171.754 68.3554 171.708Z" fill="#F39DB1"/>
<path d="M68.5623 171.882C68.3532 171.934 68.1676 172.137 68.1009 172.333L67.8297 173.13L68.5581 172.194L69.6333 171.618L68.5623 171.882Z" fill="white"/>
<mask id="path-13-inside-5_1233_2887" fill="white">
<path fill-rule="evenodd" clip-rule="evenodd" d="M78.7711 168.875L81.9544 168.089C82.4265 167.986 82.6791 168.438 82.5364 168.857L81.7303 171.224C81.6311 171.515 81.3554 171.817 81.0538 171.897L77.8827 172.677C77.4044 172.798 77.1305 172.349 77.2794 171.912L78.0855 169.545C78.1847 169.254 78.4604 168.952 78.7711 168.875Z"/>
</mask>
<path fill-rule="evenodd" clip-rule="evenodd" d="M78.7711 168.875L81.9544 168.089C82.4265 167.986 82.6791 168.438 82.5364 168.857L81.7303 171.224C81.6311 171.515 81.3554 171.817 81.0538 171.897L77.8827 172.677C77.4044 172.798 77.1305 172.349 77.2794 171.912L78.0855 169.545C78.1847 169.254 78.4604 168.952 78.7711 168.875Z" fill="#9E3E63" stroke="black" stroke-width="0.691728" mask="url(#path-13-inside-5_1233_2887)"/>
<path fill-rule="evenodd" clip-rule="evenodd" d="M78.8066 169.245L80.7273 168.772C81.0121 168.709 81.1645 168.982 81.0784 169.234L80.5921 170.663C80.5322 170.838 80.3659 171.021 80.1839 171.069L78.2705 171.539C77.9819 171.613 77.8167 171.342 77.9065 171.078L78.3929 169.65C78.4527 169.474 78.6191 169.292 78.8066 169.245Z" fill="#F39DB1"/>
<path d="M79.0134 169.42C78.8043 169.472 78.6188 169.675 78.5521 169.871L78.2808 170.667L79.0093 169.732L80.0845 169.155L79.0134 169.42Z" fill="white"/>
<mask id="path-16-outside-6_1233_2887" maskUnits="userSpaceOnUse" x="119.87" y="144.637" width="38.1799" height="38.1799" fill="black">
<rect fill="white" x="119.87" y="144.637" width="38.1799" height="38.1799"/>
<path fill-rule="evenodd" clip-rule="evenodd" d="M144.358 154.215L128.634 158.078C127.77 158.262 127.209 159.096 127.344 159.969L129.01 170.146C129.127 170.862 129.658 171.389 130.361 171.516L145.26 171.988L144.358 154.215Z"/>
</mask>
<path fill-rule="evenodd" clip-rule="evenodd" d="M144.358 154.215L128.634 158.078C127.77 158.262 127.209 159.096 127.344 159.969L129.01 170.146C129.127 170.862 129.658 171.389 130.361 171.516L145.26 171.988L144.358 154.215Z" fill="#6D6E70"/>
<path fill-rule="evenodd" clip-rule="evenodd" d="M144.358 154.215L128.634 158.078C127.77 158.262 127.209 159.096 127.344 159.969L129.01 170.146C129.127 170.862 129.658 171.389 130.361 171.516L145.26 171.988L144.358 154.215Z" stroke="black" stroke-width="3" mask="url(#path-16-outside-6_1233_2887)"/>
<path d="M128.634 158.078L144.358 154.215L127.572 161.361L127.344 159.969C127.209 159.096 127.77 158.262 128.634 158.078Z" fill="white"/>
<mask id="path-18-outside-7_1233_2887" maskUnits="userSpaceOnUse" x="132.686" y="127.226" width="65.148" height="64.9464" fill="black">
<rect fill="white" x="132.686" y="127.226" width="65.148" height="64.9464"/>
<path fill-rule="evenodd" clip-rule="evenodd" d="M148.038 153.573L170.84 163.924L174.538 150.426C174.723 149.763 175.054 149.229 175.579 148.777L181.566 143.653C182.062 143.23 182.799 143.691 182.643 144.325L174.578 175.795C174.122 177.55 172.334 178.631 170.578 178.195L145.26 171.97C144.567 171.793 144.014 171.482 143.512 170.966L137.867 165.158C136.594 163.847 136.624 161.733 137.934 160.459L144.358 154.216C145.351 153.251 146.774 153.007 148.038 153.573Z"/>
</mask>
<path fill-rule="evenodd" clip-rule="evenodd" d="M148.038 153.573L170.84 163.924L174.538 150.426C174.723 149.763 175.054 149.229 175.579 148.777L181.566 143.653C182.062 143.23 182.799 143.691 182.643 144.325L174.578 175.795C174.122 177.55 172.334 178.631 170.578 178.195L145.26 171.97C144.567 171.793 144.014 171.482 143.512 170.966L137.867 165.158C136.594 163.847 136.624 161.733 137.934 160.459L144.358 154.216C145.351 153.251 146.774 153.007 148.038 153.573Z" fill="#6D6E70"/>
<path fill-rule="evenodd" clip-rule="evenodd" d="M148.038 153.573L170.84 163.924L174.538 150.426C174.723 149.763 175.054 149.229 175.579 148.777L181.566 143.653C182.062 143.23 182.799 143.691 182.643 144.325L174.578 175.795C174.122 177.55 172.334 178.631 170.578 178.195L145.26 171.97C144.567 171.793 144.014 171.482 143.512 170.966L137.867 165.158C136.594 163.847 136.624 161.733 137.934 160.459L144.358 154.216C145.351 153.251 146.774 153.007 148.038 153.573Z" stroke="black" stroke-width="3" mask="url(#path-18-outside-7_1233_2887)"/>
<path d="M170.578 178.195C172.334 178.631 174.122 177.55 174.578 175.794L176.571 168.016C174.074 171.903 173.306 176.135 165.898 174.968C159.971 174.035 149.67 172.58 145.26 171.969L170.578 178.195Z" fill="#404041"/>
<path d="M167.156 162.252L148.038 153.573C146.774 153.007 145.351 153.251 144.358 154.216L138.967 159.455C140.131 158.74 143.311 157.038 146.721 155.955C149.585 155.046 159.979 159.091 167.156 162.252L170.84 163.924L172.299 158.598C173.247 156.943 175.583 153.025 177.346 150.595C179.109 148.164 181.153 147.193 181.955 147.011L182.643 144.325C182.799 143.691 182.062 143.23 181.566 143.653L175.579 148.777C175.054 149.229 174.723 149.763 174.538 150.426L172.299 158.598L170.84 163.924C169.779 163.426 168.526 162.855 167.156 162.252Z" fill="white"/>
<path d="M171.113 162.847L167.864 174.417L169.933 163.444L171.113 162.847Z" fill="black"/>
<mask id="path-22-inside-8_1233_2887" fill="white">
<path fill-rule="evenodd" clip-rule="evenodd" d="M156.475 170.105L153.292 169.32C152.82 169.216 152.567 169.668 152.71 170.087L153.516 172.454C153.615 172.745 153.891 173.048 154.192 173.128L157.363 173.907C157.842 174.029 158.116 173.58 157.967 173.143L157.161 170.776C157.061 170.485 156.786 170.182 156.475 170.105Z"/>
</mask>
<path fill-rule="evenodd" clip-rule="evenodd" d="M156.475 170.105L153.292 169.32C152.82 169.216 152.567 169.668 152.71 170.087L153.516 172.454C153.615 172.745 153.891 173.048 154.192 173.128L157.363 173.907C157.842 174.029 158.116 173.58 157.967 173.143L157.161 170.776C157.061 170.485 156.786 170.182 156.475 170.105Z" fill="#9E3E63" stroke="black" stroke-width="0.691728" mask="url(#path-22-inside-8_1233_2887)"/>
<path fill-rule="evenodd" clip-rule="evenodd" d="M156.44 170.476L154.519 170.002C154.234 169.94 154.082 170.212 154.168 170.465L154.654 171.893C154.714 172.069 154.88 172.251 155.062 172.3L156.976 172.77C157.264 172.843 157.429 172.572 157.34 172.309L156.853 170.881C156.793 170.705 156.627 170.522 156.44 170.476Z" fill="#F39DB1"/>
<path d="M156.233 170.65C156.442 170.702 156.627 170.905 156.694 171.102L156.965 171.898L156.237 170.962L155.162 170.386L156.233 170.65Z" fill="white"/>
<mask id="path-25-inside-9_1233_2887" fill="white">
<path fill-rule="evenodd" clip-rule="evenodd" d="M161.702 171.337L158.518 170.552C158.046 170.448 157.794 170.9 157.936 171.319L158.742 173.686C158.842 173.977 159.117 174.28 159.419 174.36L162.59 175.139C163.068 175.261 163.342 174.812 163.193 174.375L162.387 172.008C162.288 171.716 162.012 171.414 161.702 171.337Z"/>
</mask>
<path fill-rule="evenodd" clip-rule="evenodd" d="M161.702 171.337L158.518 170.552C158.046 170.448 157.794 170.9 157.936 171.319L158.742 173.686C158.842 173.977 159.117 174.28 159.419 174.36L162.59 175.139C163.068 175.261 163.342 174.812 163.193 174.375L162.387 172.008C162.288 171.716 162.012 171.414 161.702 171.337Z" fill="#9E3E63" stroke="black" stroke-width="0.691728" mask="url(#path-25-inside-9_1233_2887)"/>
<path fill-rule="evenodd" clip-rule="evenodd" d="M161.666 171.708L159.745 171.234C159.461 171.172 159.308 171.444 159.394 171.697L159.881 173.125C159.94 173.301 160.107 173.483 160.289 173.532L162.202 174.002C162.491 174.075 162.656 173.804 162.566 173.541L162.08 172.113C162.02 171.937 161.854 171.754 161.666 171.708Z" fill="#F39DB1"/>
<path d="M161.459 171.882C161.668 171.934 161.854 172.137 161.921 172.333L162.192 173.13L161.463 172.194L160.388 171.618L161.459 171.882Z" fill="white"/>
<mask id="path-28-inside-10_1233_2887" fill="white">
<path fill-rule="evenodd" clip-rule="evenodd" d="M151.25 168.875L148.067 168.089C147.595 167.986 147.342 168.438 147.485 168.857L148.291 171.224C148.39 171.515 148.666 171.817 148.968 171.897L152.139 172.677C152.617 172.798 152.891 172.349 152.742 171.912L151.936 169.545C151.837 169.254 151.561 168.952 151.25 168.875Z"/>
</mask>
<path fill-rule="evenodd" clip-rule="evenodd" d="M151.25 168.875L148.067 168.089C147.595 167.986 147.342 168.438 147.485 168.857L148.291 171.224C148.39 171.515 148.666 171.817 148.968 171.897L152.139 172.677C152.617 172.798 152.891 172.349 152.742 171.912L151.936 169.545C151.837 169.254 151.561 168.952 151.25 168.875Z" fill="#9E3E63" stroke="black" stroke-width="0.691728" mask="url(#path-28-inside-10_1233_2887)"/>
<path fill-rule="evenodd" clip-rule="evenodd" d="M151.215 169.245L149.294 168.772C149.009 168.709 148.857 168.982 148.943 169.234L149.429 170.663C149.489 170.838 149.656 171.021 149.838 171.069L151.751 171.539C152.04 171.613 152.205 171.342 152.115 171.078L151.629 169.65C151.569 169.474 151.402 169.292 151.215 169.245Z" fill="#F39DB1"/>
<path d="M151.008 169.42C151.217 169.472 151.403 169.675 151.469 169.871L151.741 170.667L151.012 169.732L149.937 169.155L151.008 169.42Z" fill="white"/>

        
<mask id="path-1-outside-1_1233_2887" maskUnits="userSpaceOnUse" x="96.9004" y="172.5" width="18" height="19" fill="black">
<rect fill="white" x="96.9004" y="172.5" width="18" height="19"/>
<path d="M98.9004 174.5H113.1L106 189.681L98.9004 174.5Z"/>
</mask>
<path d="M98.9004 174.5H113.1L106 189.681L98.9004 174.5Z" fill="#6D6E70"/>
<path d="M98.9004 174.5H113.1L106 189.681L98.9004 174.5Z" stroke="black" stroke-width="2.87827" stroke-linejoin="round" mask="url(#path-1-outside-1_1233_2887)"/>
<path d="M106 189.681L98.9004 174.5H101.875L106 189.681Z" fill="#BBBDBF"/>
<path d="M106.002 189.681L113.102 174.5H110.127L106.002 189.681Z" fill="#404041"/>
<mask id="path-4-outside-2_1233_2887" maskUnits="userSpaceOnUse" x="114.801" y="172.5" width="18" height="19" fill="black">
<rect fill="white" x="114.801" y="172.5" width="18" height="19"/>
<path d="M116.801 174.5H131L123.901 189.681L116.801 174.5Z"/>
</mask>
<path d="M116.801 174.5H131L123.901 189.681L116.801 174.5Z" fill="#6D6E70"/>
<path d="M116.801 174.5H131L123.901 189.681L116.801 174.5Z" stroke="black" stroke-width="2.87827" stroke-linejoin="round" mask="url(#path-4-outside-2_1233_2887)"/>
<path d="M123.901 189.681L116.801 174.5H119.775L123.901 189.681Z" fill="#BBBDBF"/>
<path d="M123.9 189.681L131 174.5H128.026L123.9 189.681Z" fill="#404041"/>
<mask id="path-7-outside-3_1233_2887" maskUnits="userSpaceOnUse" x="96.6992" y="171" width="18" height="13" fill="black">
<rect fill="white" x="96.6992" y="171" width="18" height="13"/>
<path fill-rule="evenodd" clip-rule="evenodd" d="M98.6992 173C98.6992 175.298 98.6992 177.61 98.6992 179.908C98.6992 183.051 113.195 183.051 113.195 179.908C113.195 177.61 113.195 175.298 113.195 173H98.6992Z"/>
</mask>
<path fill-rule="evenodd" clip-rule="evenodd" d="M98.6992 173C98.6992 175.298 98.6992 177.61 98.6992 179.908C98.6992 183.051 113.195 183.051 113.195 179.908C113.195 177.61 113.195 175.298 113.195 173H98.6992Z" fill="#6D6E70"/>
<path fill-rule="evenodd" clip-rule="evenodd" d="M98.6992 173C98.6992 175.298 98.6992 177.61 98.6992 179.908C98.6992 183.051 113.195 183.051 113.195 179.908C113.195 177.61 113.195 175.298 113.195 173H98.6992Z" stroke="black" stroke-width="3" mask="url(#path-7-outside-3_1233_2887)"/>
<path d="M98.6992 179.908V173H101.524V181.821C99.8599 181.435 98.6992 180.798 98.6992 179.908Z" fill="#BBBDBF"/>
<path d="M113.324 179.908V173H110.499V181.821C112.164 181.435 113.324 180.798 113.324 179.908Z" fill="#404041"/>
<mask id="path-10-outside-4_1233_2887" maskUnits="userSpaceOnUse" x="114.602" y="171" width="18" height="13" fill="black">
<rect fill="white" x="114.602" y="171" width="18" height="13"/>
<path fill-rule="evenodd" clip-rule="evenodd" d="M116.602 173C116.602 175.298 116.602 177.61 116.602 179.908C116.602 183.051 131.097 183.051 131.097 179.908C131.097 177.61 131.097 175.298 131.097 173H116.602Z"/>
</mask>
<path fill-rule="evenodd" clip-rule="evenodd" d="M116.602 173C116.602 175.298 116.602 177.61 116.602 179.908C116.602 183.051 131.097 183.051 131.097 179.908C131.097 177.61 131.097 175.298 131.097 173H116.602Z" fill="#6D6E70"/>
<path fill-rule="evenodd" clip-rule="evenodd" d="M116.602 173C116.602 175.298 116.602 177.61 116.602 179.908C116.602 183.051 131.097 183.051 131.097 179.908C131.097 177.61 131.097 175.298 131.097 173H116.602Z" stroke="black" stroke-width="3" mask="url(#path-10-outside-4_1233_2887)"/>
<path d="M116.602 179.908V173H119.427V181.821C117.762 181.435 116.602 180.798 116.602 179.908Z" fill="#BBBDBF"/>
<path d="M131.227 179.908V173H128.401V181.821C130.066 181.435 131.227 180.798 131.227 179.908Z" fill="#404041"/>
<mask id="path-13-outside-5_1233_2887" maskUnits="userSpaceOnUse" x="94.5293" y="137" width="41" height="41" fill="black">
<rect fill="white" x="94.5293" y="137" width="41" height="41"/>
<path fill-rule="evenodd" clip-rule="evenodd" d="M101.472 145.957C100.115 146.649 98.7721 147.341 97.4154 148.033C96.8477 148.324 96.5293 148.809 96.5293 149.376C96.5293 153.045 96.5293 156.728 96.5293 160.397C96.5293 160.826 96.6954 161.186 97.0415 161.49C97.6092 161.989 98.163 162.487 98.7306 162.972C98.7306 166.184 98.7306 169.41 98.7306 172.622C98.7306 176.996 131.127 176.996 131.127 172.622C131.127 169.41 131.127 166.184 131.127 162.972C131.681 162.473 132.249 161.975 132.816 161.49C133.162 161.186 133.329 160.826 133.329 160.397C133.329 156.728 133.329 153.045 133.329 149.376C133.329 148.809 133.01 148.324 132.442 148.033C131.086 147.341 129.743 146.649 128.386 145.957C128.386 140.488 128.386 146.019 128.386 140.564C128.386 139.706 127.569 139 126.558 139C118.805 139 111.066 139 103.313 139C102.303 139 101.486 139.706 101.486 140.564C101.472 146.019 101.472 140.488 101.472 145.957Z"/>
</mask>
<path fill-rule="evenodd" clip-rule="evenodd" d="M101.472 145.957C100.115 146.649 98.7721 147.341 97.4154 148.033C96.8477 148.324 96.5293 148.809 96.5293 149.376C96.5293 153.045 96.5293 156.728 96.5293 160.397C96.5293 160.826 96.6954 161.186 97.0415 161.49C97.6092 161.989 98.163 162.487 98.7306 162.972C98.7306 166.184 98.7306 169.41 98.7306 172.622C98.7306 176.996 131.127 176.996 131.127 172.622C131.127 169.41 131.127 166.184 131.127 162.972C131.681 162.473 132.249 161.975 132.816 161.49C133.162 161.186 133.329 160.826 133.329 160.397C133.329 156.728 133.329 153.045 133.329 149.376C133.329 148.809 133.01 148.324 132.442 148.033C131.086 147.341 129.743 146.649 128.386 145.957C128.386 140.488 128.386 146.019 128.386 140.564C128.386 139.706 127.569 139 126.558 139C118.805 139 111.066 139 103.313 139C102.303 139 101.486 139.706 101.486 140.564C101.472 146.019 101.472 140.488 101.472 145.957Z" fill="#6D6E70"/>
<path fill-rule="evenodd" clip-rule="evenodd" d="M101.472 145.957C100.115 146.649 98.7721 147.341 97.4154 148.033C96.8477 148.324 96.5293 148.809 96.5293 149.376C96.5293 153.045 96.5293 156.728 96.5293 160.397C96.5293 160.826 96.6954 161.186 97.0415 161.49C97.6092 161.989 98.163 162.487 98.7306 162.972C98.7306 166.184 98.7306 169.41 98.7306 172.622C98.7306 176.996 131.127 176.996 131.127 172.622C131.127 169.41 131.127 166.184 131.127 162.972C131.681 162.473 132.249 161.975 132.816 161.49C133.162 161.186 133.329 160.826 133.329 160.397C133.329 156.728 133.329 153.045 133.329 149.376C133.329 148.809 133.01 148.324 132.442 148.033C131.086 147.341 129.743 146.649 128.386 145.957C128.386 140.488 128.386 146.019 128.386 140.564C128.386 139.706 127.569 139 126.558 139C118.805 139 111.066 139 103.313 139C102.303 139 101.486 139.706 101.486 140.564C101.472 146.019 101.472 140.488 101.472 145.957Z" stroke="black" stroke-width="3" mask="url(#path-13-outside-5_1233_2887)"/>
<mask id="path-14-outside-6_1233_2887" maskUnits="userSpaceOnUse" x="94.5293" y="126" width="41" height="52" fill="black">
<rect fill="white" x="94.5293" y="126" width="41" height="52"/>
<path fill-rule="evenodd" clip-rule="evenodd" d="M101.472 145.957C100.115 146.649 98.7721 147.341 97.4154 148.033C96.8477 148.324 96.5293 148.809 96.5293 149.376C96.5293 153.045 96.5293 156.728 96.5293 160.397C96.5293 160.826 96.6954 161.186 97.0415 161.49C97.6092 161.989 98.163 162.487 98.7306 162.972C98.7306 166.184 98.7306 169.41 98.7306 172.622C98.7306 176.996 131.127 176.996 131.127 172.622C131.127 169.41 131.127 166.184 131.127 162.972C131.681 162.473 132.249 161.975 132.816 161.49C133.162 161.186 133.329 160.826 133.329 160.397C133.329 156.728 133.329 153.045 133.329 149.376C133.329 148.809 133.01 148.324 132.442 148.033C131.086 147.341 129.743 146.649 128.386 145.957C128.386 140.488 128.386 135.019 128.386 129.564C128.386 128.706 127.569 128 126.558 128C118.805 128 111.066 128 103.313 128C102.303 128 101.486 128.706 101.486 129.564C101.472 135.019 101.472 140.488 101.472 145.957Z"/>
</mask>
<path fill-rule="evenodd" clip-rule="evenodd" d="M101.472 145.957C100.115 146.649 98.7721 147.341 97.4154 148.033C96.8477 148.324 96.5293 148.809 96.5293 149.376C96.5293 153.045 96.5293 156.728 96.5293 160.397C96.5293 160.826 96.6954 161.186 97.0415 161.49C97.6092 161.989 98.163 162.487 98.7306 162.972C98.7306 166.184 98.7306 169.41 98.7306 172.622C98.7306 176.996 131.127 176.996 131.127 172.622C131.127 169.41 131.127 166.184 131.127 162.972C131.681 162.473 132.249 161.975 132.816 161.49C133.162 161.186 133.329 160.826 133.329 160.397C133.329 156.728 133.329 153.045 133.329 149.376C133.329 148.809 133.01 148.324 132.442 148.033C131.086 147.341 129.743 146.649 128.386 145.957C128.386 140.488 128.386 135.019 128.386 129.564C128.386 128.706 127.569 128 126.558 128C118.805 128 111.066 128 103.313 128C102.303 128 101.486 128.706 101.486 129.564C101.472 135.019 101.472 140.488 101.472 145.957Z" fill="#6D6E70"/>
<path fill-rule="evenodd" clip-rule="evenodd" d="M101.472 145.957C100.115 146.649 98.7721 147.341 97.4154 148.033C96.8477 148.324 96.5293 148.809 96.5293 149.376C96.5293 153.045 96.5293 156.728 96.5293 160.397C96.5293 160.826 96.6954 161.186 97.0415 161.49C97.6092 161.989 98.163 162.487 98.7306 162.972C98.7306 166.184 98.7306 169.41 98.7306 172.622C98.7306 176.996 131.127 176.996 131.127 172.622C131.127 169.41 131.127 166.184 131.127 162.972C131.681 162.473 132.249 161.975 132.816 161.49C133.162 161.186 133.329 160.826 133.329 160.397C133.329 156.728 133.329 153.045 133.329 149.376C133.329 148.809 133.01 148.324 132.442 148.033C131.086 147.341 129.743 146.649 128.386 145.957C128.386 140.488 128.386 135.019 128.386 129.564C128.386 128.706 127.569 128 126.558 128C118.805 128 111.066 128 103.313 128C102.303 128 101.486 128.706 101.486 129.564C101.472 135.019 101.472 140.488 101.472 145.957Z" stroke="black" stroke-width="3" mask="url(#path-14-outside-6_1233_2887)"/>
<path d="M131.128 162.972V172.622C131.128 174.812 123.009 175.905 114.9 175.903V128H126.559C127.57 128 128.386 128.706 128.386 129.564V145.957C129.743 146.649 131.086 147.341 132.443 148.033C133.011 148.324 133.329 148.809 133.329 149.376V160.397C133.329 160.826 133.163 161.186 132.817 161.49C132.249 161.975 131.682 162.473 131.128 162.972Z" fill="#404041"/>
<path d="M126.593 168.6C126.847 166.319 128.093 167.9 127.493 164.7L115.343 165L114.9 165.01V174.964C121.901 174.6 126.34 170.881 126.593 168.6Z" fill="#231F20"/>
<path d="M103.007 168.6C102.754 166.319 101.507 167.9 102.108 164.7L114.257 165L114.9 165.01V174.964C107.9 174.6 103.261 170.881 103.007 168.6Z" fill="#404041"/>
<mask id="path-18-inside-7_1233_2887" fill="white">
<path fill-rule="evenodd" clip-rule="evenodd" d="M114.887 173.88C111.454 173.88 108.842 172.91 105.935 171.055C104.702 170.266 103.982 168.909 103.982 167.345V164.991H125.193V167.345C125.193 168.909 124.473 170.266 123.24 171.055C120.333 172.91 118.321 173.88 114.887 173.88Z"/>
</mask>
<path fill-rule="evenodd" clip-rule="evenodd" d="M114.887 173.88C111.454 173.88 108.842 172.91 105.935 171.055C104.702 170.266 103.982 168.909 103.982 167.345V164.991H125.193V167.345C125.193 168.909 124.473 170.266 123.24 171.055C120.333 172.91 118.321 173.88 114.887 173.88Z" fill="#9E3E63" stroke="black" stroke-width="2" mask="url(#path-18-inside-7_1233_2887)"/>
<path d="M108.346 170.187C110.072 171.643 112.198 172.501 114.496 172.501C116.795 172.501 118.92 171.643 120.646 170.187C121.679 169.317 121.193 167.755 119.912 167.324L115.772 165.93C114.944 165.652 114.048 165.652 113.22 165.93L109.08 167.324C107.8 167.755 107.313 169.317 108.346 170.187Z" fill="#DB5C87"/>
<path d="M112.669 172.137C112.873 172.137 113.037 171.972 113.037 171.769C113.037 171.565 112.873 171.4 112.669 171.4C112.466 171.4 112.301 171.565 112.301 171.769C112.301 171.972 112.466 172.137 112.669 172.137Z" fill="white"/>
<path d="M113.543 169.446C112.098 168.576 110.799 168.107 110.642 168.402C110.485 168.697 111.53 169.639 112.974 170.511C114.419 171.383 115.718 171.849 115.875 171.555C116.032 171.26 114.988 170.318 113.543 169.446Z" fill="white"/>
<path d="M109.702 170.991C109.713 171.114 109.759 171.231 109.836 171.329C109.912 171.426 110.015 171.499 110.132 171.538C110.249 171.578 110.375 171.583 110.495 171.552C110.614 171.521 110.722 171.456 110.806 171.365C110.889 171.274 110.944 171.161 110.964 171.039C110.984 170.917 110.968 170.792 110.918 170.679C110.869 170.566 110.787 170.47 110.683 170.402C110.58 170.335 110.459 170.299 110.335 170.299C110.16 170.307 109.994 170.385 109.876 170.514C109.757 170.644 109.695 170.815 109.702 170.991Z" fill="white"/>
<path d="M117.768 171.336C117.565 171.336 117.4 171.171 117.4 170.968C117.4 170.765 117.565 170.6 117.768 170.6C117.972 170.6 118.137 170.765 118.137 170.968C118.137 171.171 117.972 171.336 117.768 171.336Z" fill="white"/>
<mask id="path-24-outside-8_1233_2887" maskUnits="userSpaceOnUse" x="99.4004" y="163.44" width="30" height="8" fill="black">
<rect fill="white" x="99.4004" y="163.44" width="30" height="8"/>
<path d="M105.339 166.819C107.9 168.314 110.434 169.587 114.587 169.587C118.74 169.587 121.274 168.314 123.835 166.819C125.067 166.099 124.307 166.5 125.773 165.44L114.587 166.14L103.4 165.44C104.507 166.24 104.106 166.099 105.339 166.819Z"/>
</mask>
<path d="M105.339 166.819C107.9 168.314 110.434 169.587 114.587 169.587C118.74 169.587 121.274 168.314 123.835 166.819C125.067 166.099 124.307 166.5 125.773 165.44L114.587 166.14L103.4 165.44C104.507 166.24 104.106 166.099 105.339 166.819Z" fill="#6D6E70"/>
<path d="M105.339 166.819C107.9 168.314 110.434 169.587 114.587 169.587C118.74 169.587 121.274 168.314 123.835 166.819C125.067 166.099 124.307 166.5 125.773 165.44L114.587 166.14L103.4 165.44C104.507 166.24 104.106 166.099 105.339 166.819Z" stroke="black" stroke-width="2" mask="url(#path-24-outside-8_1233_2887)"/>
<path d="M123.835 166.819C125.067 166.099 124.307 166.5 125.773 165.44L114.9 166.121V169.585C118.869 169.523 121.339 168.276 123.835 166.819Z" fill="#404041"/>
<path d="M97.4154 148.033C98.7721 147.341 100.115 146.649 101.472 145.957C101.472 140.488 101.472 135.019 101.486 129.564C101.486 128.706 102.303 128 103.313 128L104 146.967L98.7306 150.467V162.972L100.5 165.467V174.219C99.3818 173.774 98.7306 173.242 98.7306 172.622V162.972C98.163 162.487 97.6092 161.989 97.0415 161.49C96.6954 161.186 96.5293 160.826 96.5293 160.397V149.376C96.5293 148.809 96.8477 148.324 97.4154 148.033Z" fill="#BBBDBF"/>
<path d="M132.485 148.033C131.128 147.341 129.785 146.649 128.429 145.957C128.429 140.488 128.429 135.019 128.415 129.564C128.415 128.706 127.598 128 126.587 128L125.901 146.967L131.17 150.467V162.972L129.401 165.467V174.219C130.519 173.774 131.17 173.242 131.17 172.622V162.972C131.737 162.487 132.291 161.989 132.859 161.49C133.205 161.186 133.371 160.826 133.371 160.397V149.376C133.371 148.809 133.053 148.324 132.485 148.033Z" fill="#231F20"/>
<path d="M97.6309 162.421C97.6309 166.796 132.227 166.796 132.227 162.421" stroke="black" stroke-width="1.5"/>
<path d="M100.631 144.867C100.631 149.242 129.227 149.242 129.227 144.867" stroke="black"/>
<path d="M96 148.466C96 150.654 105.5 152.748 115 152.748C124.5 152.748 134 150.654 134 148.466" stroke="black"/>

        
<mask id="path-1-outside-1_1233_2887" maskUnits="userSpaceOnUse" x="107.67" y="21.3994" width="15" height="33" fill="black">
<rect fill="white" x="107.67" y="21.3994" width="15" height="33"/>
<path fill-rule="evenodd" clip-rule="evenodd" d="M115.277 23.3994C114.723 23.3994 112.619 28.6742 112.619 31.5401V37.078C111.137 38.0887 109.67 39.487 109.67 40.4284C109.67 44.3049 109.67 48.1815 109.67 52.058C113.408 52.058 117.16 52.058 120.898 52.058C120.898 48.1815 120.898 44.3049 120.898 40.4284C120.898 39.487 119.417 38.0887 117.949 37.078V31.5401C117.935 28.6604 115.831 23.3994 115.277 23.3994Z"/>
</mask>
<path fill-rule="evenodd" clip-rule="evenodd" d="M115.277 23.3994C114.723 23.3994 112.619 28.6742 112.619 31.5401V37.078C111.137 38.0887 109.67 39.487 109.67 40.4284C109.67 44.3049 109.67 48.1815 109.67 52.058C113.408 52.058 117.16 52.058 120.898 52.058C120.898 48.1815 120.898 44.3049 120.898 40.4284C120.898 39.487 119.417 38.0887 117.949 37.078V31.5401C117.935 28.6604 115.831 23.3994 115.277 23.3994Z" fill="#6D6E70"/>
<path fill-rule="evenodd" clip-rule="evenodd" d="M115.277 23.3994C114.723 23.3994 112.619 28.6742 112.619 31.5401V37.078C111.137 38.0887 109.67 39.487 109.67 40.4284C109.67 44.3049 109.67 48.1815 109.67 52.058C113.408 52.058 117.16 52.058 120.898 52.058C120.898 48.1815 120.898 44.3049 120.898 40.4284C120.898 39.487 119.417 38.0887 117.949 37.078V31.5401C117.935 28.6604 115.831 23.3994 115.277 23.3994Z" stroke="black" stroke-width="3" mask="url(#path-1-outside-1_1233_2887)"/>
<path d="M112.702 28.3984H117.951V28.7582H112.702V28.3984Z" fill="#BBBDBF"/>
<path d="M112.702 30.2246H117.951V30.5844H112.702V30.2246Z" fill="#BBBDBF"/>
<path d="M112.702 32.0654H117.951V32.4252H112.702V32.0654Z" fill="#BBBDBF"/>
<path d="M112.702 33.8921H117.951V34.2518H112.702V33.8921Z" fill="#BBBDBF"/>
<path d="M112.702 35.7324H117.951V36.0922H112.702V35.7324Z" fill="#BBBDBF"/>
<mask id="path-7-outside-2_1233_2887" maskUnits="userSpaceOnUse" x="107.67" y="21.3994" width="15" height="33" fill="black">
<rect fill="white" x="107.67" y="21.3994" width="15" height="33"/>
<path fill-rule="evenodd" clip-rule="evenodd" d="M115.277 23.3994C114.723 23.3994 112.619 28.6742 112.619 31.5401V37.078C111.137 38.0887 109.67 39.487 109.67 40.4284C109.67 44.3049 109.67 48.1815 109.67 52.058C113.408 52.058 117.16 52.058 120.898 52.058C120.898 48.1815 120.898 44.3049 120.898 40.4284C120.898 39.487 119.417 38.0887 117.949 37.078V31.5401C117.935 28.6604 115.831 23.3994 115.277 23.3994Z"/>
</mask>
<path fill-rule="evenodd" clip-rule="evenodd" d="M115.277 23.3994C114.723 23.3994 112.619 28.6742 112.619 31.5401V37.078C111.137 38.0887 109.67 39.487 109.67 40.4284C109.67 44.3049 109.67 48.1815 109.67 52.058C113.408 52.058 117.16 52.058 120.898 52.058C120.898 48.1815 120.898 44.3049 120.898 40.4284C120.898 39.487 119.417 38.0887 117.949 37.078V31.5401C117.935 28.6604 115.831 23.3994 115.277 23.3994Z" stroke="black" stroke-width="3" mask="url(#path-7-outside-2_1233_2887)"/>
<path d="M112.619 31.5401C112.619 28.6742 114.723 23.3994 115.277 23.3994V52.058H109.67V40.4284C109.67 39.487 111.137 38.0887 112.619 37.078V31.5401Z" fill="#BBBDBF"/>
<mask id="path-9-outside-3_1233_2887" maskUnits="userSpaceOnUse" x="80" y="45.3994" width="34" height="39" fill="black">
<rect fill="white" x="80" y="45.3994" width="34" height="39"/>
<path d="M111.656 50.0077C112.141 48.071 109.8 46.6981 108.346 48.0655L82 72.8387V81.25L106.299 71.4369L111.656 50.0077Z"/>
</mask>
<path d="M111.656 50.0077C112.141 48.071 109.8 46.6981 108.346 48.0655L82 72.8387V81.25L106.299 71.4369L111.656 50.0077Z" fill="#6D6E70"/>
<path d="M111.656 50.0077C112.141 48.071 109.8 46.6981 108.346 48.0655L82 72.8387V81.25L106.299 71.4369L111.656 50.0077Z" stroke="black" stroke-width="3" mask="url(#path-9-outside-3_1233_2887)"/>
<path d="M82 72.8387L113.308 43.3994L84 73.8994L82 81.25V72.8387Z" fill="white"/>
<path d="M113.308 43.3994L106.299 71.4369L97.5 74.9904L102.5 53.5626L113.308 43.3994Z" fill="#404041"/>
<path d="M102.526 68.7989L102.241 72.2788L99.5635 73.5481L101.617 71.565L102.526 68.7989Z" fill="white"/>
<mask id="path-13-outside-4_1233_2887" maskUnits="userSpaceOnUse" x="86.5859" y="59.4614" width="37" height="46" fill="black">
<rect fill="white" x="86.5859" y="59.4614" width="37" height="46"/>
<path d="M119.894 64.4614L88.5859 93.9007V102.312L112.885 92.4989L119.894 64.4614Z"/>
</mask>
<path d="M119.894 64.4614L88.5859 93.9007V102.312L112.885 92.4989L119.894 64.4614Z" fill="#6D6E70"/>
<path d="M119.894 64.4614L88.5859 93.9007V102.312L112.885 92.4989L119.894 64.4614Z" stroke="black" stroke-width="3" mask="url(#path-13-outside-4_1233_2887)"/>
<path d="M88.5859 93.9007L119.894 64.4614L90.4993 94.3994L88.5859 102.312V93.9007Z" fill="white"/>
<path d="M119.895 64.4614L112.885 92.4989L96.5996 99.1124L99.9996 83.1688L119.895 64.4614Z" fill="#404041"/>
<path d="M101.325 93.0919L101.04 96.5718L98.3623 97.8411L100.416 95.858L101.325 93.0919Z" fill="white"/>
<mask id="path-17-outside-5_1233_2887" maskUnits="userSpaceOnUse" x="116.695" y="45.3994" width="34" height="39" fill="black">
<rect fill="white" x="116.695" y="45.3994" width="34" height="39"/>
<path d="M119.039 50.0077C118.555 48.071 120.895 46.6981 122.349 48.0655L148.695 72.8387V81.25L124.396 71.4369L119.039 50.0077Z"/>
</mask>
<path d="M119.039 50.0077C118.555 48.071 120.895 46.6981 122.349 48.0655L148.695 72.8387V81.25L124.396 71.4369L119.039 50.0077Z" fill="#6D6E70"/>
<path d="M119.039 50.0077C118.555 48.071 120.895 46.6981 122.349 48.0655L148.695 72.8387V81.25L124.396 71.4369L119.039 50.0077Z" stroke="black" stroke-width="3" mask="url(#path-17-outside-5_1233_2887)"/>
<path d="M148.695 72.8387L117.387 43.3994L146.695 73.8994L148.695 81.25V72.8387Z" fill="white"/>
<path d="M117.387 43.3994L124.396 71.4369L133.195 74.9904L128.195 53.5626L117.387 43.3994Z" fill="#404041"/>
<mask id="path-20-outside-6_1233_2887" maskUnits="userSpaceOnUse" x="107.109" y="59.4614" width="37" height="46" fill="black">
<rect fill="white" x="107.109" y="59.4614" width="37" height="46"/>
<path d="M110.801 64.4614L142.109 93.9007V102.312L117.81 92.4989L110.801 64.4614Z"/>
</mask>
<path d="M110.801 64.4614L142.109 93.9007V102.312L117.81 92.4989L110.801 64.4614Z" fill="#6D6E70"/>
<path d="M110.801 64.4614L142.109 93.9007V102.312L117.81 92.4989L110.801 64.4614Z" stroke="black" stroke-width="3" mask="url(#path-20-outside-6_1233_2887)"/>
<path d="M142.109 93.9007L110.801 64.4614L140.196 94.3994L142.109 102.312V93.9007Z" fill="white"/>
<path d="M110.801 64.4614L117.81 92.4989L134.096 99.1124L130.696 83.1688L110.801 64.4614Z" fill="#404041"/>
<path d="M128.072 68.7989L128.357 72.2788L131.034 73.5481L128.981 71.565L128.072 68.7989Z" fill="white"/>
<path d="M129.373 93.0919L129.658 96.5718L132.335 97.8411L130.282 95.858L129.373 93.0919Z" fill="white"/>
<mask id="path-25-outside-7_1233_2887" maskUnits="userSpaceOnUse" x="95.5" y="39.979" width="40" height="101" fill="black">
<rect fill="white" x="95.5" y="39.979" width="40" height="101"/>
<path d="M112.84 49.026C112.826 50.2166 112.549 52.058 115.277 52.058C118.004 52.058 117.727 50.2166 117.741 49.026V41.979C119.444 41.979 122.808 42.2697 123.113 44.4711C126.602 69.3915 127.571 85.4237 127.585 110.773C127.585 111.272 127.751 111.687 128.097 112.047C129.758 113.764 131.42 115.467 133.081 117.183V129.353C131.433 131.471 129.786 133.603 128.138 135.722C128.138 140.094 102.459 140.074 102.431 135.707C100.787 133.593 99.1436 131.466 97.5 129.353V117.183C99.1614 115.467 100.823 113.764 102.484 112.047C102.83 111.687 102.996 111.272 102.996 110.773C103.01 85.4099 103.979 69.3915 107.468 44.4711C107.773 42.2697 111.137 41.979 112.84 41.979V49.026Z"/>
</mask>
<path d="M112.84 49.026C112.826 50.2166 112.549 52.058 115.277 52.058C118.004 52.058 117.727 50.2166 117.741 49.026V41.979C119.444 41.979 122.808 42.2697 123.113 44.4711C126.602 69.3915 127.571 85.4237 127.585 110.773C127.585 111.272 127.751 111.687 128.097 112.047C129.758 113.764 131.42 115.467 133.081 117.183V129.353C131.433 131.471 129.786 133.603 128.138 135.722C128.138 140.094 102.459 140.074 102.431 135.707C100.787 133.593 99.1436 131.466 97.5 129.353V117.183C99.1614 115.467 100.823 113.764 102.484 112.047C102.83 111.687 102.996 111.272 102.996 110.773C103.01 85.4099 103.979 69.3915 107.468 44.4711C107.773 42.2697 111.137 41.979 112.84 41.979V49.026Z" fill="#6D6E70"/>
<path d="M102.431 135.707L101.681 135.711L101.683 135.966L101.839 136.167L102.431 135.707ZM101.839 136.167C101.841 136.169 101.843 136.172 101.845 136.174C101.847 136.177 101.849 136.179 101.851 136.182L103.035 135.261C103.033 135.259 103.031 135.256 103.029 135.254C103.027 135.251 103.025 135.249 103.023 135.246L101.839 136.167ZM101.681 135.699C101.681 135.704 101.681 135.708 101.681 135.711L103.181 135.702C103.181 135.701 103.181 135.7 103.181 135.699H101.681ZM112.84 49.026L114.34 49.0434L114.34 49.0347V49.026H112.84ZM112.84 41.979H114.34V40.479H112.84V41.979ZM107.468 44.4711L108.954 44.679L108.954 44.6766L107.468 44.4711ZM102.996 110.773L101.496 110.773V110.773H102.996ZM102.484 112.047L103.562 113.09L103.565 113.087L102.484 112.047ZM97.5 117.183L96.4221 116.14L96 116.577V117.183H97.5ZM97.5 129.353H96V129.868L96.316 130.274L97.5 129.353ZM102.431 135.707L103.931 135.697L103.928 135.188L103.615 134.786L102.431 135.707ZM128.138 135.722L126.954 134.801L126.638 135.207V135.722H128.138ZM133.081 129.353L134.265 130.274L134.581 129.868V129.353H133.081ZM133.081 117.183H134.581V116.577L134.159 116.14L133.081 117.183ZM128.097 112.047L127.016 113.087L127.019 113.09L128.097 112.047ZM127.585 110.773L129.085 110.773L129.085 110.773L127.585 110.773ZM123.113 44.4711L121.627 44.6766L121.627 44.679L123.113 44.4711ZM117.741 41.979V40.479H116.241V41.979H117.741ZM117.741 49.026L119.241 49.0434L119.241 49.0347V49.026H117.741ZM115.277 50.558C114.751 50.558 114.523 50.4674 114.451 50.4291C114.411 50.4075 114.412 50.4038 114.402 50.3807C114.376 50.3218 114.341 50.1932 114.33 49.9372C114.317 49.6482 114.335 49.44 114.34 49.0434L111.34 49.0085C111.338 49.2072 111.316 49.6757 111.333 50.0668C111.351 50.491 111.415 51.0459 111.659 51.5962C111.919 52.1823 112.361 52.7133 113.036 53.0742C113.679 53.4183 114.439 53.558 115.277 53.558V50.558ZM114.34 49.026V41.979H111.34V49.026H114.34ZM112.84 40.479C111.937 40.479 110.487 40.5522 109.174 40.9703C107.914 41.3718 106.257 42.2809 105.982 44.2655L108.954 44.6766C108.984 44.4599 109.161 44.1229 110.085 43.8288C110.956 43.5512 112.04 43.479 112.84 43.479V40.479ZM105.983 44.2631C102.483 69.2596 101.51 85.3476 101.496 110.773L104.496 110.774C104.51 85.4721 105.475 69.5235 108.954 44.679L105.983 44.2631ZM101.496 110.773C101.496 110.852 101.484 110.888 101.478 110.903C101.472 110.918 101.456 110.952 101.403 111.007L103.565 113.087C104.182 112.446 104.496 111.657 104.496 110.773H101.496ZM101.406 111.004C100.577 111.861 99.7471 112.715 98.9163 113.57C98.0857 114.425 97.254 115.281 96.4221 116.14L98.5779 118.227C99.4074 117.37 100.237 116.516 101.068 115.661C101.898 114.806 102.73 113.95 103.562 113.09L101.406 111.004ZM96 117.183V129.353H99V117.183H96ZM96.316 130.274C97.1369 131.329 97.958 132.389 98.78 133.449C99.6016 134.509 100.424 135.57 101.247 136.627L103.615 134.786C102.794 133.73 101.973 132.671 101.151 131.611C100.329 130.551 99.5067 129.49 98.684 128.432L96.316 130.274ZM129.322 136.642C130.147 135.582 130.971 134.519 131.795 133.456C132.619 132.394 133.442 131.332 134.265 130.274L131.897 128.432C131.072 129.492 130.248 130.556 129.424 131.618C128.6 132.681 127.777 133.743 126.954 134.801L129.322 136.642ZM134.581 129.353V117.183H131.581V129.353H134.581ZM134.159 116.14C133.327 115.281 132.495 114.425 131.665 113.57C130.834 112.715 130.004 111.861 129.175 111.004L127.019 113.09C127.851 113.95 128.683 114.806 129.513 115.661C130.344 116.516 131.174 117.37 132.003 118.227L134.159 116.14ZM129.178 111.007C129.125 110.952 129.109 110.918 129.103 110.903C129.097 110.888 129.085 110.852 129.085 110.773H126.085C126.085 111.657 126.399 112.446 127.016 113.087L129.178 111.007ZM129.085 110.773C129.071 85.3615 128.098 69.2596 124.598 44.2631L121.627 44.679C125.105 69.5235 126.071 85.4859 126.085 110.774L129.085 110.773ZM124.599 44.2655C124.324 42.2809 122.667 41.3718 121.406 40.9703C120.094 40.5522 118.644 40.479 117.741 40.479V43.479C118.541 43.479 119.625 43.5512 120.496 43.8288C121.419 44.1229 121.597 44.4599 121.627 44.6766L124.599 44.2655ZM116.241 41.979V49.026H119.241V41.979H116.241ZM116.241 49.0085C116.236 49.4319 116.253 49.6092 116.236 49.9201C116.222 50.1802 116.186 50.3118 116.158 50.3742C116.146 50.4009 116.145 50.4065 116.103 50.4287C116.031 50.4675 115.802 50.558 115.277 50.558V53.558C116.115 53.558 116.874 53.4182 117.517 53.0746C118.191 52.7143 118.633 52.1851 118.895 51.6027C119.14 51.0559 119.208 50.504 119.231 50.084C119.252 49.7147 119.239 49.2154 119.241 49.0434L116.241 49.0085ZM100.931 135.716C100.94 137.084 101.951 137.95 102.789 138.437C103.686 138.959 104.861 139.342 106.127 139.629C108.684 140.21 112.017 140.489 115.294 140.492C118.571 140.494 121.902 140.219 124.456 139.641C125.721 139.355 126.895 138.973 127.79 138.451C128.629 137.963 129.638 137.093 129.638 135.722H126.638C126.638 135.443 126.846 135.529 126.279 135.86C125.77 136.157 124.938 136.456 123.794 136.715C121.533 137.227 118.443 137.494 115.296 137.492C112.15 137.49 109.057 137.218 106.792 136.704C105.646 136.444 104.811 136.143 104.298 135.844C103.726 135.512 103.929 135.421 103.931 135.697L100.931 135.716Z" fill="black" mask="url(#path-25-outside-7_1233_2887)"/>
<path d="M102.996 110.774C103.01 85.4101 103.979 69.3918 107.468 44.4713C107.563 43.7859 107.954 43.2857 108.5 42.9219C107.986 52.8926 106.145 67.3084 105.477 80.3996C104.63 97.0041 104.8 113.4 104.8 113.4L99.5 118.4V131.4L103 136.4C101.352 134.281 99.1475 131.471 97.5 129.353V117.184C99.1614 115.467 100.823 113.764 102.484 112.047C102.83 111.687 102.996 111.272 102.996 110.774Z" fill="#BBBDBF"/>
<path d="M133.082 129.353C131.434 131.471 129.787 133.603 128.139 135.722C128.139 137.91 121.707 138.998 115.277 138.992V52.058C118.005 52.058 117.728 50.2166 117.742 49.026V41.979C119.445 41.979 122.809 42.2697 123.113 44.4711C126.602 69.3915 127.571 85.4237 127.585 110.773C127.585 111.272 127.751 111.687 128.098 112.047C129.759 113.764 131.42 115.467 133.082 117.183V129.353Z" fill="#404041"/>
<path d="M127.603 110.774C127.589 85.4101 126.62 69.3918 123.131 44.4713C123.037 43.7859 122.645 43.2857 122.1 42.9219C122.614 52.8926 124.455 67.3084 125.123 80.3996C125.97 97.0041 125.8 113.4 125.8 113.4L131.8 117.9V130.4L128.157 135.722C129.805 133.604 131.452 131.471 133.1 129.353V117.184C131.438 115.467 129.777 113.764 128.116 112.047C127.769 111.687 127.603 111.272 127.603 110.774Z" fill="#231F20"/>
<path d="M97 129.399C97.0143 131.642 106.639 133.735 116 133.675C124.868 133.618 133.5 131.527 133.5 129.399" stroke="black"/>
<path d="M97 116.399C97.0143 118.642 106.639 120.735 116 120.675C124.868 120.618 133.5 118.527 133.5 116.399" stroke="black"/>
<path d="M102.5 111.399C102.528 115.767 128 115.772 128 111.399" stroke="black"/>
<mask id="path-33-inside-8_1233_2887" fill="white">
<path fill-rule="evenodd" clip-rule="evenodd" d="M115.319 122.899H110.197C109.186 122.899 108.369 123.716 108.369 124.726V128.88C108.369 129.891 109.186 130.707 110.197 130.707H115.319H120.442C121.452 130.707 122.269 129.891 122.269 128.88V124.726C122.269 123.716 121.452 122.899 120.442 122.899H115.319Z"/>
</mask>
<path fill-rule="evenodd" clip-rule="evenodd" d="M115.319 122.899H110.197C109.186 122.899 108.369 123.716 108.369 124.726V128.88C108.369 129.891 109.186 130.707 110.197 130.707H115.319H120.442C121.452 130.707 122.269 129.891 122.269 128.88V124.726C122.269 123.716 121.452 122.899 120.442 122.899H115.319Z" fill="#6D6E70" stroke="black" stroke-width="2" mask="url(#path-33-inside-8_1233_2887)"/>
<path d="M107.35 49.7228C107.35 49.7228 107.839 45.0608 108.219 44.23C108.599 43.3992 111.085 42.8899 111.085 42.8899L108.899 44.6992L107.35 49.7228Z" fill="white"/>
<path d="M123.134 49.7228C123.134 49.7228 122.646 45.0608 122.265 44.23C121.885 43.3992 119.4 42.8899 119.4 42.8899L121.585 44.6992L123.134 49.7228Z" fill="white"/>
<path d="M103.984 105.859L103.915 111.358L107.926 112.645L105 110.331L103.984 105.859Z" fill="white"/>
<path d="M126.942 105.858L127.01 111.357L123 112.644L125.926 110.33L126.942 105.858Z" fill="white"/>
<rect x="102.35" y="123.55" width="1.7" height="4.3" rx="0.65" fill="black" stroke="black" stroke-width="0.3"/>
<rect x="102.301" y="123.7" width="1.4" height="4" rx="0.5" fill="#9E3E63"/>
<path fill-rule="evenodd" clip-rule="evenodd" d="M102.677 124.406H103.059C103.215 124.406 103.345 124.47 103.345 124.547V127.195C103.345 127.271 103.215 127.335 103.059 127.335H102.677C102.521 127.335 102.391 127.271 102.391 127.195V124.55C102.391 124.47 102.521 124.406 102.677 124.406Z" fill="#F39DB1"/>
<path d="M103.026 124.508C103.114 124.508 103.185 124.44 103.185 124.356C103.185 124.272 103.114 124.205 103.026 124.205C102.938 124.205 102.867 124.272 102.867 124.356C102.867 124.44 102.938 124.508 103.026 124.508Z" fill="white"/>
<path d="M102.549 126.958V125.652C102.549 125.538 102.75 125.356 103.069 125.176C103.103 125.154 103.142 125.133 103.185 125.113C103.145 125.134 103.106 125.155 103.069 125.176C102.825 125.334 102.793 125.552 102.812 125.652L102.812 126.958C102.793 127.058 102.921 127.184 103.35 127.255C103 127.255 102.549 127.072 102.549 126.958Z" fill="white"/>
<rect x="126.35" y="123.55" width="1.7" height="4.3" rx="0.65" fill="black" stroke="black" stroke-width="0.3"/>
<rect x="126.699" y="123.7" width="1.4" height="4" rx="0.5" fill="#9E3E63"/>
<path fill-rule="evenodd" clip-rule="evenodd" d="M127.075 124.406H127.457C127.613 124.406 127.743 124.47 127.743 124.547V127.195C127.743 127.271 127.613 127.335 127.457 127.335H127.075C126.919 127.335 126.789 127.271 126.789 127.195V124.55C126.789 124.47 126.919 124.406 127.075 124.406Z" fill="#F39DB1"/>
<path d="M127.425 124.508C127.513 124.508 127.584 124.44 127.584 124.356C127.584 124.272 127.513 124.205 127.425 124.205C127.337 124.205 127.266 124.272 127.266 124.356C127.266 124.44 127.337 124.508 127.425 124.508Z" fill="white"/>
<path d="M126.947 126.958V125.652C126.947 125.538 127.149 125.356 127.467 125.176C127.502 125.154 127.54 125.133 127.584 125.113C127.543 125.134 127.504 125.155 127.467 125.176C127.224 125.334 127.192 125.552 127.21 125.652L127.21 126.958C127.192 127.058 127.319 127.184 127.749 127.255C127.399 127.255 126.947 127.072 126.947 126.958Z" fill="white"/>
<mask id="path-48-outside-9_1233_2887" maskUnits="userSpaceOnUse" x="108.5" y="57.3994" width="14" height="41" fill="black">
<rect fill="white" x="108.5" y="57.3994" width="14" height="41"/>
<path fill-rule="evenodd" clip-rule="evenodd" d="M111.065 67.3708C111.992 61.9575 113.391 58.3994 115.315 58.3994C117.239 58.3994 118.638 61.9437 119.565 67.3708C120.618 73.5317 121.13 82.1985 121.13 90.7407C121.13 91.8482 120.244 93.4127 119.025 94.631C117.932 95.7248 116.547 96.5693 115.315 96.5693C114.069 96.5693 112.698 95.7386 111.605 94.631C110.386 93.4127 109.5 91.8482 109.5 90.7407C109.486 82.1846 109.999 73.5317 111.065 67.3708Z"/>
</mask>
<path fill-rule="evenodd" clip-rule="evenodd" d="M111.065 67.3708C111.992 61.9575 113.391 58.3994 115.315 58.3994C117.239 58.3994 118.638 61.9437 119.565 67.3708C120.618 73.5317 121.13 82.1985 121.13 90.7407C121.13 91.8482 120.244 93.4127 119.025 94.631C117.932 95.7248 116.547 96.5693 115.315 96.5693C114.069 96.5693 112.698 95.7386 111.605 94.631C110.386 93.4127 109.5 91.8482 109.5 90.7407C109.486 82.1846 109.999 73.5317 111.065 67.3708Z" fill="#AA3964"/>
<path fill-rule="evenodd" clip-rule="evenodd" d="M111.065 67.3708C111.992 61.9575 113.391 58.3994 115.315 58.3994C117.239 58.3994 118.638 61.9437 119.565 67.3708C120.618 73.5317 121.13 82.1985 121.13 90.7407C121.13 91.8482 120.244 93.4127 119.025 94.631C117.932 95.7248 116.547 96.5693 115.315 96.5693C114.069 96.5693 112.698 95.7386 111.605 94.631C110.386 93.4127 109.5 91.8482 109.5 90.7407C109.486 82.1846 109.999 73.5317 111.065 67.3708Z" stroke="black" stroke-width="2" mask="url(#path-48-outside-9_1233_2887)"/>
<path fill-rule="evenodd" clip-rule="evenodd" d="M115.319 65.9194C114.004 65.9194 113.672 66.5286 113.049 68.7991C111.872 73.0772 111.18 80.7333 112.329 85.4959C112.869 87.7664 113.519 88.3756 115.333 88.3756C117.133 88.3756 117.783 87.7802 118.337 85.4959C119.473 80.7333 118.78 73.0772 117.617 68.7991C116.967 66.5286 116.634 65.9194 115.319 65.9194Z" fill="#DB5C87"/>
<path d="M115 59.5996C113.345 59.5996 112.143 62.8999 111.345 67.9209C110.429 73.6353 109.988 81.6613 110 89.5973C110 90.1749 110.241 90.8865 110.638 91.5996C109.986 88.3532 110.784 75.3152 111.72 70.2663C112.58 65.6286 114.336 60.664 115 59.5996Z" fill="white"/>
<mask id="path-51-outside-10_1233_2887" maskUnits="userSpaceOnUse" x="106.699" y="90.3994" width="17" height="14" fill="black">
<rect fill="white" x="106.699" y="90.3994" width="17" height="14"/>
<path fill-rule="evenodd" clip-rule="evenodd" d="M115.271 93.3588C117.048 93.3588 119.442 93.3891 120.987 92.4954C121.389 92.2682 121.899 92.556 121.837 93.0104C121.528 95.0704 120.956 97.1002 120.524 99.145C120.045 101.387 117.295 102.084 115.271 102.084C113.247 102.084 110.528 101.387 110.018 99.1602C109.57 97.1607 109.014 95.025 108.705 93.0104C108.643 92.5863 109.106 92.253 109.508 92.4651C111.084 93.3588 113.494 93.3588 115.271 93.3588Z"/>
</mask>
<path fill-rule="evenodd" clip-rule="evenodd" d="M115.271 93.3588C117.048 93.3588 119.442 93.3891 120.987 92.4954C121.389 92.2682 121.899 92.556 121.837 93.0104C121.528 95.0704 120.956 97.1002 120.524 99.145C120.045 101.387 117.295 102.084 115.271 102.084C113.247 102.084 110.528 101.387 110.018 99.1602C109.57 97.1607 109.014 95.025 108.705 93.0104C108.643 92.5863 109.106 92.253 109.508 92.4651C111.084 93.3588 113.494 93.3588 115.271 93.3588Z" fill="#6D6E70"/>
<path fill-rule="evenodd" clip-rule="evenodd" d="M115.271 93.3588C117.048 93.3588 119.442 93.3891 120.987 92.4954C121.389 92.2682 121.899 92.556 121.837 93.0104C121.528 95.0704 120.956 97.1002 120.524 99.145C120.045 101.387 117.295 102.084 115.271 102.084C113.247 102.084 110.528 101.387 110.018 99.1602C109.57 97.1607 109.014 95.025 108.705 93.0104C108.643 92.5863 109.106 92.253 109.508 92.4651C111.084 93.3588 113.494 93.3588 115.271 93.3588Z" stroke="black" stroke-width="2.97443" mask="url(#path-51-outside-10_1233_2887)"/>
<path d="M120.988 92.4954C119.443 93.3891 117.048 93.3588 115.271 93.3588V102.084C117.295 102.084 120.045 101.387 120.524 99.1451C120.957 97.1002 121.529 95.0705 121.838 93.0104C121.899 92.556 121.39 92.2682 120.988 92.4954Z" fill="#404041"/>
<path d="M108.705 93.0104C109.014 95.025 109.57 97.1607 110.018 99.1602L109.508 93.437L111.12 93.0911L109.508 92.4651C109.106 92.253 108.643 92.5863 108.705 93.0104Z" fill="#BBBDBF"/>
<path d="M121.836 93.0104C121.527 95.025 120.971 97.1607 120.523 99.1602L121.033 93.437L119.421 93.0911L121.033 92.4651C121.435 92.253 121.898 92.5863 121.836 93.0104Z" fill="#BBBDBF"/>
<path d="M119.42 93.7832C117.955 93.94 116.452 94.2486 115.17 94.2486C113.949 94.2486 112.526 93.9283 111.119 93.7832C111.119 93.7832 113.511 95.1421 115.17 95.1663C116.903 95.1916 119.42 93.7832 119.42 93.7832Z" fill="white"/>
<path d="M107.605 89.7844C107.605 89.7844 107.603 89.7017 107.602 89.5434C107.6 89.7564 107.599 90.1169 107.601 90.6054L106.865 91.3997C106.856 90.8009 106.85 90.1921 106.848 89.5731C106.848 89.6275 106.847 89.682 106.847 89.7366L106.847 90.3195C106.847 90.1242 106.847 89.9299 106.847 89.7366L106.847 89.4184C106.847 89.2082 106.847 88.9969 106.847 88.7844L106.847 89.4184C106.847 89.4701 106.848 89.5216 106.848 89.5731C106.904 70.9805 110.509 61.5047 110.509 61.5047C107.586 73.2256 107.587 87.5255 107.602 89.5434C107.603 89.3963 107.605 89.3195 107.605 89.3195L107.605 89.7844Z" fill="white"/>
<path d="M123.02 89.7844C123.02 89.7844 123.022 89.7017 123.023 89.5434C123.025 89.7564 123.026 90.1169 123.024 90.6054L123.76 91.3997C123.769 90.8009 123.775 90.1921 123.777 89.5731C123.777 89.6275 123.778 89.682 123.778 89.7366L123.778 90.3195C123.778 90.1242 123.778 89.9299 123.778 89.7366L123.778 89.4184C123.778 89.2082 123.778 88.9969 123.778 88.7844L123.778 89.4184C123.778 89.4701 123.777 89.5216 123.777 89.5731C123.721 70.9805 120.116 61.5047 120.116 61.5047C123.039 73.2256 123.038 87.5255 123.023 89.5434C123.022 89.3963 123.02 89.3195 123.02 89.3195L123.02 89.7844Z" fill="white"/>
<path d="M119.672 88.4743C119.497 89.5467 118.994 90.3552 118.548 90.2827C118.102 90.2103 117.882 89.2827 118.06 88.2103C118.237 87.1379 118.74 86.3294 119.183 86.4042C119.627 86.479 119.849 87.4042 119.672 88.4743Z" fill="white"/>
<path d="M112.149 87.3091C112.622 87.3091 113.006 86.8907 113.006 86.3745C113.006 85.8584 112.622 85.4399 112.149 85.4399C111.675 85.4399 111.291 85.8584 111.291 86.3745C111.291 86.8907 111.675 87.3091 112.149 87.3091Z" fill="white"/>
<path d="M113.599 89.5309C113.874 89.5309 114.097 89.3081 114.097 89.0333C114.097 88.7584 113.874 88.5356 113.599 88.5356C113.324 88.5356 113.102 88.7584 113.102 89.0333C113.102 89.3081 113.324 89.5309 113.599 89.5309Z" fill="white"/>
<path d="M118.72 70.458C119.084 72.9803 119.013 75.0774 118.564 75.1413C118.115 75.2053 117.46 73.2136 117.099 70.6918C116.737 68.17 116.804 66.072 117.255 66.0085C117.706 65.9449 118.357 67.9358 118.72 70.458Z" fill="white"/>
<path d="M119.505 78.3841C119.465 79.4698 119.069 80.3374 118.618 80.3203C118.167 80.3032 117.836 79.4123 117.871 78.3257C117.907 77.2392 118.307 76.3748 118.758 76.3919C119.208 76.409 119.544 77.3007 119.505 78.3841Z" fill="white"/>
<path d="M115.967 60.3175C115.967 60.3175 117.068 62.5013 116.268 65.9577C116.268 65.9577 114.778 63.7398 115.967 60.3175Z" fill="white"/>

    </svg>
