
    <svg width="230" height="230" viewBox="0 0 230 230" fill="none" xmlns="http://www.w3.org/2000/svg">
        
<mask id="path-1-outside-1_1233_2887" maskUnits="userSpaceOnUse" x="71.3008" y="126.955" width="19" height="19" fill="black">
<rect fill="white" x="71.3008" y="126.955" width="19" height="19"/>
<path fill-rule="evenodd" clip-rule="evenodd" d="M87.9485 128.955V136.279C85.3595 136.279 83.3659 136.542 82.2722 137.47C81.22 138.356 80.6246 140.225 80.6246 143.617H73.3008C73.3008 137.843 74.8237 134.216 77.5788 131.89C80.2785 129.62 83.7674 128.955 87.9485 128.955Z"/>
</mask>
<path fill-rule="evenodd" clip-rule="evenodd" d="M87.9485 128.955V136.279C85.3595 136.279 83.3659 136.542 82.2722 137.47C81.22 138.356 80.6246 140.225 80.6246 143.617H73.3008C73.3008 137.843 74.8237 134.216 77.5788 131.89C80.2785 129.62 83.7674 128.955 87.9485 128.955Z" fill="#6D6E70"/>
<path fill-rule="evenodd" clip-rule="evenodd" d="M87.9485 128.955V136.279C85.3595 136.279 83.3659 136.542 82.2722 137.47C81.22 138.356 80.6246 140.225 80.6246 143.617H73.3008C73.3008 137.843 74.8237 134.216 77.5788 131.89C80.2785 129.62 83.7674 128.955 87.9485 128.955Z" stroke="black" stroke-width="3" mask="url(#path-1-outside-1_1233_2887)"/>
<path d="M87.3473 135.778C84.7583 135.778 82.7647 136.041 81.671 136.969C80.6188 137.855 80.0234 139.724 80.0234 143.116" stroke="#404041" stroke-width="1.5"/>
<path d="M88.3469 129.656C84.1658 129.656 80.677 130.32 77.9772 132.591C75.2221 134.917 73.6992 138.544 73.6992 144.317" stroke="white" stroke-width="1.5"/>
<mask id="path-4-outside-2_1233_2887" maskUnits="userSpaceOnUse" x="84.1074" y="123.3" width="27" height="26" fill="black">
<rect fill="white" x="84.1074" y="123.3" width="27" height="26"/>
<path fill-rule="evenodd" clip-rule="evenodd" d="M105.628 125.3H89.7763C87.7549 125.3 86.1074 126.948 86.1074 128.969V143.631C86.1074 145.652 87.7549 147.3 89.7763 147.3H96.6432C97.3632 147.3 97.9862 147.12 98.5953 146.732L107.581 141.056C108.674 140.363 109.283 139.256 109.283 137.954V128.983C109.297 126.948 107.65 125.3 105.628 125.3Z"/>
</mask>
<path fill-rule="evenodd" clip-rule="evenodd" d="M105.628 125.3H89.7763C87.7549 125.3 86.1074 126.948 86.1074 128.969V143.631C86.1074 145.652 87.7549 147.3 89.7763 147.3H96.6432C97.3632 147.3 97.9862 147.12 98.5953 146.732L107.581 141.056C108.674 140.363 109.283 139.256 109.283 137.954V128.983C109.297 126.948 107.65 125.3 105.628 125.3Z" fill="#6D6E70"/>
<path fill-rule="evenodd" clip-rule="evenodd" d="M105.628 125.3H89.7763C87.7549 125.3 86.1074 126.948 86.1074 128.969V143.631C86.1074 145.652 87.7549 147.3 89.7763 147.3H96.6432C97.3632 147.3 97.9862 147.12 98.5953 146.732L107.581 141.056C108.674 140.363 109.283 139.256 109.283 137.954V128.983C109.297 126.948 107.65 125.3 105.628 125.3Z" stroke="black" stroke-width="3" mask="url(#path-4-outside-2_1233_2887)"/>
<path d="M107.58 141.056L98.5949 146.732C98.5491 146.761 98.5032 146.789 98.4571 146.816C97.3599 144.98 97.2627 132.98 97.8599 130.48C98.3377 128.48 103.059 126.314 105.36 125.48L105.628 125.3C107.649 125.3 109.297 126.948 109.283 128.983V137.954C109.283 139.256 108.674 140.363 107.58 141.056Z" fill="#404041"/>
<path d="M89.7763 125.3H105.628C101.706 126.194 93.1604 126.08 90.3604 126.48C86.8604 126.98 87.7604 132.48 87.7604 137.954C87.7604 142.352 89.1376 146.009 89.7763 147.3C87.7549 147.3 86.1074 145.652 86.1074 143.631V128.969C86.1074 126.948 87.7549 125.3 89.7763 125.3Z" fill="white"/>
<path fill-rule="evenodd" clip-rule="evenodd" d="M58.7853 67.5518H62.5151C63.2029 67.5518 63.7672 68.1073 63.7584 68.795L63.388 104.885H58.7765C58.0887 104.885 57.5332 104.33 57.5332 103.642V68.795C57.542 68.1073 58.1063 67.5518 58.7853 67.5518Z" fill="#6D6E70"/>
<path d="M57.6581 73.1738L63.541 73.1738L63.541 70.8676L57.6581 70.8676L57.6581 73.1738Z" fill="#404041"/>
<path d="M57.6373 73.1738L63.5625 73.1738L63.5625 70.8676L57.6373 70.8676L57.6373 73.1738Z" stroke="black" stroke-width="0.429643"/>
<path d="M62.8121 73.0801L63.127 73.0801L63.127 71.2219L62.8121 71.2219L62.8121 73.0801Z" fill="black"/>
<path d="M62.1323 73.0801L62.4473 73.0801L62.4473 71.2219L62.1323 71.2219L62.1323 73.0801Z" fill="black"/>
<path d="M58.7495 73.0801L59.0645 73.0801L59.0645 71.2219L58.7495 71.2219L58.7495 73.0801Z" fill="black"/>
<path d="M58.0718 73.0801L58.3867 73.0801L58.3867 71.2219L58.0718 71.2219L58.0718 73.0801Z" fill="black"/>
<path d="M57.6104 71.0586L58.7056 71.0586L63.5886 71.0586L64.0117 70.5705L63.3375 67.0003L58.7056 67.0003L57.8614 67.0003L57.1877 70.5705L57.6104 71.0586Z" fill="#6D6E70"/>
<path d="M57.61 71.0581L58.6722 71.0581L58.2496 70.57L58.9238 66.9998L57.8611 66.9998L57.1874 70.57L57.61 71.0581Z" fill="white"/>
<path d="M62.1725 71.0581L63.5886 71.0581L64.0117 70.57L63.3375 66.9998L61.9214 66.9998L62.5956 70.57L62.1725 71.0581Z" fill="#404041"/>
<path d="M57.6104 71.0581L58.7056 71.0581L63.5886 71.0581L64.0117 70.57L63.3375 66.9998L58.7056 66.9998L57.8614 66.9998L57.1877 70.57L57.6104 71.0581Z" stroke="black" stroke-width="0.811667"/>
<path d="M57.3324 69.8716L63.8652 69.8716L63.8652 69.1541L57.3324 69.1541L57.3324 69.8716Z" fill="black"/>
<path d="M57.1711 74.4902L64.0254 74.4902L64.0254 74.0032L57.1711 74.0032L57.1711 74.4902Z" fill="white"/>
<path d="M57.0995 108.662L64.0977 108.662L64.0977 72.6598L57.0995 72.6598L57.0995 108.662Z" fill="#6D6E70"/>
<path d="M57.0992 108.662L59.4082 108.662L59.4082 72.6598L57.0992 72.6598L57.0992 108.662Z" fill="white"/>
<path d="M64.0977 108.662L64.0977 72.6593L61.5003 72.6593L61.5003 108.662L64.0977 108.662Z" fill="#404041"/>
<path d="M57.0995 108.662L64.0977 108.662L64.0977 72.6598L57.0995 72.6598L57.0995 108.662Z" stroke="black" stroke-width="0.811667"/>
<path d="M57.1711 74.1655L64.0254 74.1655L64.0254 73.6785L57.1711 73.6785L57.1711 74.1655Z" fill="black"/>
<path fill-rule="evenodd" clip-rule="evenodd" d="M66.0292 80.5381H67.6407C67.9379 80.5381 68.1817 80.7781 68.1779 81.0752L68.0179 96.668H66.0254C65.7283 96.668 65.4883 96.428 65.4883 96.1309V81.0752C65.4921 80.7781 65.7359 80.5381 66.0292 80.5381Z" fill="#6D6E70"/>
<path d="M65.5422 82.9673L68.084 82.9673L68.084 81.9709L65.5422 81.9709L65.5422 82.9673Z" fill="#404041"/>
<path d="M65.5338 82.9673L68.0938 82.9673L68.0938 81.9709L65.5338 81.9709L65.5338 82.9673Z" stroke="black" stroke-width="0.360895"/>
<path d="M67.7682 82.9268L67.9043 82.9268L67.9043 82.1239L67.7682 82.1239L67.7682 82.9268Z" fill="black"/>
<path d="M67.4753 82.9268L67.6113 82.9268L67.6113 82.1239L67.4753 82.1239L67.4753 82.9268Z" fill="black"/>
<path d="M66.0143 82.9268L66.1504 82.9268L66.1504 82.1239L66.0143 82.1239L66.0143 82.9268Z" fill="black"/>
<path d="M65.7213 82.9268L65.8574 82.9268L65.8574 82.1239L65.7213 82.1239L65.7213 82.9268Z" fill="black"/>
<path d="M65.5214 82.0532L65.9946 82.0532L68.1043 82.0532L68.2871 81.8423L67.9958 80.2998L65.9946 80.2998L65.6299 80.2998L65.3388 81.8423L65.5214 82.0532Z" fill="#6D6E70"/>
<path d="M65.5202 82.0532L65.9792 82.0532L65.7966 81.8423L66.0879 80.2998L65.6287 80.2998L65.3376 81.8423L65.5202 82.0532Z" fill="white"/>
<path d="M67.4925 82.0532L68.1043 82.0532L68.2871 81.8423L67.9958 80.2998L67.384 80.2998L67.6753 81.8423L67.4925 82.0532Z" fill="#404041"/>
<path d="M65.5214 82.0532L65.9946 82.0532L68.1043 82.0532L68.2871 81.8423L67.9958 80.2998L65.9946 80.2998L65.6299 80.2998L65.3388 81.8423L65.5214 82.0532Z" stroke="black" stroke-width="0.681792"/>
<path d="M65.4021 81.5405L68.2246 81.5405L68.2246 81.2305L65.4021 81.2305L65.4021 81.5405Z" fill="black"/>
<path d="M65.3316 83.5361L68.293 83.5361L68.293 83.3257L65.3316 83.3257L65.3316 83.5361Z" fill="white"/>
<path d="M65.3006 98.2998L68.3242 98.2998L68.3242 82.7452L65.3006 82.7452L65.3006 98.2998Z" fill="#6D6E70"/>
<path d="M65.3012 98.2998L66.2988 98.2998L66.2988 82.7452L65.3012 82.7452L65.3012 98.2998Z" fill="white"/>
<path d="M68.3242 98.2998L68.3242 82.7449L67.202 82.7449L67.202 98.2998L68.3242 98.2998Z" fill="#404041"/>
<path d="M65.3006 98.2998L68.3242 98.2998L68.3242 82.7452L65.3006 82.7452L65.3006 98.2998Z" stroke="black" stroke-width="0.681792"/>
<path d="M65.3316 83.3955L68.293 83.3955L68.293 83.1851L65.3316 83.1851L65.3316 83.3955Z" fill="black"/>
<mask id="path-43-outside-3_1233_2887" maskUnits="userSpaceOnUse" x="55.0078" y="82.8149" width="61" height="118" fill="black">
<rect fill="white" x="55.0078" y="82.8149" width="61" height="118"/>
<path d="M68.0005 97.8076L57.0078 86.8149V194.901C57.0078 199.954 68.0005 199.954 68.0005 194.901V181.181V165.3L113.799 146.3V126.3L68.0005 145.8V134.87V97.8076Z"/>
</mask>
<path d="M68.0005 97.8076L57.0078 86.8149V194.901C57.0078 199.954 68.0005 199.954 68.0005 194.901V181.181V165.3L113.799 146.3V126.3L68.0005 145.8V134.87V97.8076Z" fill="#6D6E70"/>
<path d="M70.1154 165.232L114.087 146.993L113.512 145.607L69.5407 163.846L70.1154 165.232ZM57.0078 86.8149L58.0685 85.7543L55.5078 83.1936V86.8149H57.0078ZM68.0005 97.8076H69.5005V97.1863L69.0612 96.747L68.0005 97.8076ZM68.0005 145.8H66.5005V148.069L68.5881 147.18L68.0005 145.8ZM113.799 146.3L114.374 147.685L115.299 147.301V146.3H113.799ZM113.799 126.3H115.299V124.031L113.212 124.92L113.799 126.3ZM68.0005 165.3L67.4257 163.914L66.5005 164.298V165.3H68.0005ZM55.9472 87.8756L66.9399 98.8683L69.0612 96.747L58.0685 85.7543L55.9472 87.8756ZM66.5005 97.8076V134.87H69.5005V97.8076H66.5005ZM66.5005 181.181V194.901H69.5005V181.181H66.5005ZM66.5005 194.901C66.5005 195.522 66.1972 196.036 65.499 196.464C64.7618 196.916 63.6776 197.191 62.5042 197.191C61.3307 197.191 60.2466 196.916 59.5093 196.464C58.8111 196.036 58.5078 195.522 58.5078 194.901H55.5078C55.5078 196.805 56.5786 198.187 57.9416 199.022C59.2654 199.833 60.9295 200.191 62.5042 200.191C64.0789 200.191 65.7429 199.833 67.0668 199.022C68.4297 198.187 69.5005 196.805 69.5005 194.901H66.5005ZM58.5078 194.901V86.8149H55.5078V194.901H58.5078ZM69.5005 145.8V134.87H66.5005V145.8H69.5005ZM68.5881 147.18L114.387 127.68L113.212 124.92L67.4129 144.42L68.5881 147.18ZM112.299 126.3V146.3H115.299V126.3H112.299ZM113.225 144.914L67.4257 163.914L68.5753 166.685L114.374 147.685L113.225 144.914ZM66.5005 165.3V181.181H69.5005V165.3H66.5005Z" fill="black" mask="url(#path-43-outside-3_1233_2887)"/>
<rect x="61.6508" y="191.45" width="1.7" height="4.3" rx="0.65" fill="black" stroke="black" stroke-width="0.3"/>
<rect x="61.8008" y="191.6" width="1.4" height="4" rx="0.5" fill="#9E3E63"/>
<path fill-rule="evenodd" clip-rule="evenodd" d="M62.1769 192.307H62.5587C62.7149 192.307 62.845 192.371 62.845 192.447V195.095C62.845 195.171 62.7149 195.235 62.5587 195.235H62.1769C62.0208 195.235 61.8906 195.171 61.8906 195.095V192.45C61.8906 192.371 62.0208 192.307 62.1769 192.307Z" fill="#F39DB1"/>
<path d="M62.5263 192.408C62.6141 192.408 62.6853 192.34 62.6853 192.256C62.6853 192.173 62.6141 192.105 62.5263 192.105C62.4384 192.105 62.3672 192.173 62.3672 192.256C62.3672 192.34 62.4384 192.408 62.5263 192.408Z" fill="white"/>
<path d="M62.0488 194.858V193.552C62.0488 193.438 62.2505 193.257 62.5688 193.077C62.6032 193.054 62.6418 193.033 62.6851 193.014C62.6448 193.035 62.606 193.056 62.5688 193.077C62.3252 193.235 62.2931 193.452 62.3118 193.552L62.3118 194.858C62.2931 194.958 62.4207 195.085 62.8503 195.155C62.5003 195.155 62.0488 194.972 62.0488 194.858Z" fill="white"/>
<path d="M68.002 134.87V97.8081L66.4941 96.3003V197.607C67.4071 196.979 68.002 196.077 68.002 194.901V181.181V165.3L113.801 146.3V137.3L69.8295 145.022L68.002 145.8V134.87Z" fill="#404041"/>
<path d="M70.5363 151.384L70.9409 145.899L75.1417 143.866L71.9328 147.016L70.5363 151.384Z" fill="white"/>
<path d="M64.3008 95.3003L67.3068 98.1569L67.3156 102.727L66.4234 98.6192L64.3008 95.3003Z" fill="white"/>
<path d="M57.0078 86.8154V194.901C57.0078 196.067 57.5927 196.964 58.4927 197.591V88.3003L57.0078 86.8154Z" fill="white"/>
<path d="M56.0996 155.14C56.0996 155.14 59.3516 152.668 59.3516 150.554V140.571C59.3516 138.099 56.1321 136.506 56.1321 136.506L56.0996 155.14Z" fill="#404041"/>
<path d="M55.4285 136.3C55.4285 136.3 53 137.904 53 140.158V150.999C53 152.82 55.7746 154.944 55.7746 154.944L57.7699 149.741V140.552L55.4285 136.3Z" fill="#F39DB1"/>
<path d="M56.4692 138.189V147.14L54.4738 152.343C53.9448 151.922 53.4518 151.459 53 150.956V150.999C53 152.82 55.7746 154.944 55.7746 154.944L57.7699 149.741V140.552L56.4692 138.189Z" fill="#9E3E63"/>
<path d="M55.4285 136.3C55.4285 136.3 53 137.904 53 140.158V150.999C53 152.82 55.7746 154.944 55.7746 154.944C55.7746 154.944 57.7699 150.944 57.7699 149.741V140.552C57.7699 139.009 55.4285 136.3 55.4285 136.3Z" stroke="black"/>
<path d="M54.2583 146.229C54.2583 146.229 53.1526 138.902 55.2339 138.077C55.2339 138.081 54.3012 144.386 54.2583 146.229Z" fill="white"/>
<path d="M68.0556 143.2L68 167.235L70 144.993L68.0556 143.2Z" fill="black"/>
<path d="M61.8008 90.8003V123.3L68.8008 130.3" stroke="black"/>
<mask id="path-61-outside-4_1233_2887" maskUnits="userSpaceOnUse" x="140.197" y="126.955" width="19" height="19" fill="black">
<rect fill="white" x="140.197" y="126.955" width="19" height="19"/>
<path fill-rule="evenodd" clip-rule="evenodd" d="M142.55 128.955V136.279C145.139 136.279 147.132 136.542 148.226 137.47C149.278 138.356 149.873 140.225 149.873 143.617H157.197C157.197 137.843 155.674 134.216 152.919 131.89C150.22 129.62 146.731 128.955 142.55 128.955Z"/>
</mask>
<path fill-rule="evenodd" clip-rule="evenodd" d="M142.55 128.955V136.279C145.139 136.279 147.132 136.542 148.226 137.47C149.278 138.356 149.873 140.225 149.873 143.617H157.197C157.197 137.843 155.674 134.216 152.919 131.89C150.22 129.62 146.731 128.955 142.55 128.955Z" fill="#6D6E70"/>
<path fill-rule="evenodd" clip-rule="evenodd" d="M142.55 128.955V136.279C145.139 136.279 147.132 136.542 148.226 137.47C149.278 138.356 149.873 140.225 149.873 143.617H157.197C157.197 137.843 155.674 134.216 152.919 131.89C150.22 129.62 146.731 128.955 142.55 128.955Z" stroke="black" stroke-width="3" mask="url(#path-61-outside-4_1233_2887)"/>
<path d="M143.151 135.778C145.74 135.778 147.733 136.041 148.827 136.969C149.879 137.855 150.475 139.724 150.475 143.116" stroke="#404041" stroke-width="1.5"/>
<path d="M142.151 129.656C146.332 129.656 149.821 130.32 152.521 132.591C155.276 134.917 156.799 138.544 156.799 144.317" stroke="white" stroke-width="1.5"/>
<mask id="path-64-outside-5_1233_2887" maskUnits="userSpaceOnUse" x="119.391" y="123.3" width="27" height="26" fill="black">
<rect fill="white" x="119.391" y="123.3" width="27" height="26"/>
<path fill-rule="evenodd" clip-rule="evenodd" d="M124.87 125.3H140.722C142.743 125.3 144.391 126.948 144.391 128.969V143.631C144.391 145.652 142.743 147.3 140.722 147.3H133.855C133.135 147.3 132.512 147.12 131.903 146.732L122.917 141.056C121.824 140.363 121.215 139.256 121.215 137.954V128.983C121.201 126.948 122.848 125.3 124.87 125.3Z"/>
</mask>
<path fill-rule="evenodd" clip-rule="evenodd" d="M124.87 125.3H140.722C142.743 125.3 144.391 126.948 144.391 128.969V143.631C144.391 145.652 142.743 147.3 140.722 147.3H133.855C133.135 147.3 132.512 147.12 131.903 146.732L122.917 141.056C121.824 140.363 121.215 139.256 121.215 137.954V128.983C121.201 126.948 122.848 125.3 124.87 125.3Z" fill="#6D6E70"/>
<path fill-rule="evenodd" clip-rule="evenodd" d="M124.87 125.3H140.722C142.743 125.3 144.391 126.948 144.391 128.969V143.631C144.391 145.652 142.743 147.3 140.722 147.3H133.855C133.135 147.3 132.512 147.12 131.903 146.732L122.917 141.056C121.824 140.363 121.215 139.256 121.215 137.954V128.983C121.201 126.948 122.848 125.3 124.87 125.3Z" stroke="black" stroke-width="3" mask="url(#path-64-outside-5_1233_2887)"/>
<path d="M122.918 141.056L131.903 146.732C131.949 146.761 131.995 146.789 132.041 146.816C133.138 144.98 133.235 132.98 132.638 130.48C132.16 128.48 127.439 126.314 125.138 125.48L124.87 125.3C122.849 125.3 121.201 126.948 121.215 128.983V137.954C121.215 139.256 121.824 140.363 122.918 141.056Z" fill="#404041"/>
<path d="M140.722 125.3H124.87C128.792 126.194 137.338 126.08 140.138 126.48C143.638 126.98 142.738 132.48 142.738 137.954C142.738 142.352 141.36 146.009 140.722 147.3C142.743 147.3 144.391 145.652 144.391 143.631V128.969C144.391 126.948 142.743 125.3 140.722 125.3Z" fill="white"/>
<path fill-rule="evenodd" clip-rule="evenodd" d="M171.713 67.5518H167.983C167.295 67.5518 166.731 68.1073 166.74 68.795L167.11 104.885H171.722C172.409 104.885 172.965 104.33 172.965 103.642V68.795C172.956 68.1073 172.392 67.5518 171.713 67.5518Z" fill="#6D6E70"/>
<path d="M172.84 73.1738L166.957 73.1738L166.957 70.8676L172.84 70.8676L172.84 73.1738Z" fill="#404041"/>
<path d="M172.861 73.1738L166.936 73.1738L166.936 70.8676L172.861 70.8676L172.861 73.1738Z" stroke="black" stroke-width="0.429643"/>
<path d="M167.686 73.0801L167.371 73.0801L167.371 71.2219L167.686 71.2219L167.686 73.0801Z" fill="black"/>
<path d="M168.366 73.0801L168.051 73.0801L168.051 71.2219L168.366 71.2219L168.366 73.0801Z" fill="black"/>
<path d="M171.749 73.0801L171.434 73.0801L171.434 71.2219L171.749 71.2219L171.749 73.0801Z" fill="black"/>
<path d="M172.426 73.0801L172.111 73.0801L172.111 71.2219L172.426 71.2219L172.426 73.0801Z" fill="black"/>
<path d="M172.888 71.0586L171.792 71.0586L166.909 71.0586L166.486 70.5705L167.161 67.0003L171.792 67.0003L172.637 67.0003L173.31 70.5705L172.888 71.0586Z" fill="#6D6E70"/>
<path d="M172.888 71.0581L171.826 71.0581L172.248 70.57L171.574 66.9998L172.637 66.9998L173.311 70.57L172.888 71.0581Z" fill="white"/>
<path d="M168.326 71.0581L166.909 71.0581L166.486 70.57L167.161 66.9998L168.577 66.9998L167.902 70.57L168.326 71.0581Z" fill="#404041"/>
<path d="M172.888 71.0581L171.792 71.0581L166.909 71.0581L166.486 70.57L167.161 66.9998L171.792 66.9998L172.637 66.9998L173.31 70.57L172.888 71.0581Z" stroke="black" stroke-width="0.811667"/>
<path d="M173.166 69.8716L166.633 69.8716L166.633 69.1541L173.166 69.1541L173.166 69.8716Z" fill="black"/>
<path d="M173.327 74.4902L166.473 74.4902L166.473 74.0032L173.327 74.0032L173.327 74.4902Z" fill="white"/>
<path d="M173.399 108.662L166.4 108.662L166.4 72.6598L173.399 72.6598L173.399 108.662Z" fill="#6D6E70"/>
<path d="M173.399 108.662L171.09 108.662L171.09 72.6598L173.399 72.6598L173.399 108.662Z" fill="white"/>
<path d="M166.4 108.662L166.4 72.6593L168.998 72.6593L168.998 108.662L166.4 108.662Z" fill="#404041"/>
<path d="M173.399 108.662L166.4 108.662L166.4 72.6598L173.399 72.6598L173.399 108.662Z" stroke="black" stroke-width="0.811667"/>
<path d="M173.327 74.1655L166.473 74.1655L166.473 73.6785L173.327 73.6785L173.327 74.1655Z" fill="black"/>
<path fill-rule="evenodd" clip-rule="evenodd" d="M164.469 80.5381H162.857C162.56 80.5381 162.316 80.7781 162.32 81.0752L162.48 96.668H164.473C164.77 96.668 165.01 96.428 165.01 96.1309V81.0752C165.006 80.7781 164.762 80.5381 164.469 80.5381Z" fill="#6D6E70"/>
<path d="M164.956 82.9673L162.414 82.9673L162.414 81.9709L164.956 81.9709L164.956 82.9673Z" fill="#404041"/>
<path d="M164.964 82.9673L162.404 82.9673L162.404 81.9709L164.964 81.9709L164.964 82.9673Z" stroke="black" stroke-width="0.360895"/>
<path d="M162.73 82.9268L162.594 82.9268L162.594 82.1239L162.73 82.1239L162.73 82.9268Z" fill="black"/>
<path d="M163.023 82.9268L162.887 82.9268L162.887 82.1239L163.023 82.1239L163.023 82.9268Z" fill="black"/>
<path d="M164.484 82.9268L164.348 82.9268L164.348 82.1239L164.484 82.1239L164.484 82.9268Z" fill="black"/>
<path d="M164.777 82.9268L164.641 82.9268L164.641 82.1239L164.777 82.1239L164.777 82.9268Z" fill="black"/>
<path d="M164.977 82.0532L164.503 82.0532L162.394 82.0532L162.211 81.8423L162.502 80.2998L164.503 80.2998L164.868 80.2998L165.159 81.8423L164.977 82.0532Z" fill="#6D6E70"/>
<path d="M164.978 82.0532L164.519 82.0532L164.701 81.8423L164.41 80.2998L164.869 80.2998L165.16 81.8423L164.978 82.0532Z" fill="white"/>
<path d="M163.006 82.0532L162.394 82.0532L162.211 81.8423L162.502 80.2998L163.114 80.2998L162.823 81.8423L163.006 82.0532Z" fill="#404041"/>
<path d="M164.977 82.0532L164.503 82.0532L162.394 82.0532L162.211 81.8423L162.502 80.2998L164.503 80.2998L164.868 80.2998L165.159 81.8423L164.977 82.0532Z" stroke="black" stroke-width="0.681792"/>
<path d="M165.096 81.5405L162.273 81.5405L162.273 81.2305L165.096 81.2305L165.096 81.5405Z" fill="black"/>
<path d="M165.166 83.5361L162.205 83.5361L162.205 83.3257L165.166 83.3257L165.166 83.5361Z" fill="white"/>
<path d="M165.197 98.2998L162.174 98.2998L162.174 82.7452L165.197 82.7452L165.197 98.2998Z" fill="#6D6E70"/>
<path d="M165.197 98.2998L164.199 98.2998L164.199 82.7452L165.197 82.7452L165.197 98.2998Z" fill="white"/>
<path d="M162.174 98.2998L162.174 82.7449L163.296 82.7449L163.296 98.2998L162.174 98.2998Z" fill="#404041"/>
<path d="M165.197 98.2998L162.174 98.2998L162.174 82.7452L165.197 82.7452L165.197 98.2998Z" stroke="black" stroke-width="0.681792"/>
<path d="M165.166 83.3955L162.205 83.3955L162.205 83.1851L165.166 83.1851L165.166 83.3955Z" fill="black"/>
<mask id="path-103-outside-6_1233_2887" maskUnits="userSpaceOnUse" x="114.49" y="82.8149" width="61" height="118" fill="black">
<rect fill="white" x="114.49" y="82.8149" width="61" height="118"/>
<path d="M162.498 97.8076L173.49 86.8149V194.901C173.49 199.954 162.498 199.954 162.498 194.901V181.181V165.3L116.699 146.3V126.3L162.498 145.8V134.87V97.8076Z"/>
</mask>
<path d="M162.498 97.8076L173.49 86.8149V194.901C173.49 199.954 162.498 199.954 162.498 194.901V181.181V165.3L116.699 146.3V126.3L162.498 145.8V134.87V97.8076Z" fill="#6D6E70"/>
<path d="M160.383 165.232L116.411 146.993L116.986 145.607L160.957 163.846L160.383 165.232ZM173.49 86.8149L172.43 85.7543L174.99 83.1936V86.8149H173.49ZM162.498 97.8076H160.998V97.1863L161.437 96.747L162.498 97.8076ZM162.498 145.8H163.998V148.069L161.91 147.18L162.498 145.8ZM116.699 146.3L116.124 147.685L115.199 147.301V146.3H116.699ZM116.699 126.3H115.199V124.031L117.286 124.92L116.699 126.3ZM162.498 165.3L163.072 163.914L163.998 164.298V165.3H162.498ZM174.551 87.8756L163.558 98.8683L161.437 96.747L172.43 85.7543L174.551 87.8756ZM163.998 97.8076V134.87H160.998V97.8076H163.998ZM163.998 181.181V194.901H160.998V181.181H163.998ZM163.998 194.901C163.998 195.522 164.301 196.036 164.999 196.464C165.736 196.916 166.82 197.191 167.994 197.191C169.167 197.191 170.251 196.916 170.989 196.464C171.687 196.036 171.99 195.522 171.99 194.901H174.99C174.99 196.805 173.919 198.187 172.556 199.022C171.233 199.833 169.569 200.191 167.994 200.191C166.419 200.191 164.755 199.833 163.431 199.022C162.068 198.187 160.998 196.805 160.998 194.901H163.998ZM171.99 194.901V86.8149H174.99V194.901H171.99ZM160.998 145.8V134.87H163.998V145.8H160.998ZM161.91 147.18L116.111 127.68L117.286 124.92L163.085 144.42L161.91 147.18ZM118.199 126.3V146.3H115.199V126.3H118.199ZM117.274 144.914L163.072 163.914L161.923 166.685L116.124 147.685L117.274 144.914ZM163.998 165.3V181.181H160.998V165.3H163.998Z" fill="black" mask="url(#path-103-outside-6_1233_2887)"/>
<rect x="0.15" y="-0.15" width="1.7" height="4.3" rx="0.65" transform="matrix(-1 0 0 1 168.997 191.6)" fill="black" stroke="black" stroke-width="0.3"/>
<rect width="1.4" height="4" rx="0.5" transform="matrix(-1 0 0 1 168.697 191.6)" fill="#9E3E63"/>
<path fill-rule="evenodd" clip-rule="evenodd" d="M168.321 192.307H167.939C167.783 192.307 167.653 192.371 167.653 192.447V195.095C167.653 195.171 167.783 195.235 167.939 195.235H168.321C168.477 195.235 168.607 195.171 168.607 195.095V192.45C168.607 192.371 168.477 192.307 168.321 192.307Z" fill="#F39DB1"/>
<path d="M167.972 192.408C167.884 192.408 167.813 192.34 167.813 192.256C167.813 192.173 167.884 192.105 167.972 192.105C168.06 192.105 168.131 192.173 168.131 192.256C168.131 192.34 168.06 192.408 167.972 192.408Z" fill="white"/>
<path d="M168.449 194.858V193.552C168.449 193.438 168.248 193.257 167.929 193.077C167.895 193.054 167.856 193.033 167.813 193.014C167.853 193.035 167.892 193.056 167.929 193.077C168.173 193.235 168.205 193.452 168.186 193.552L168.186 194.858C168.205 194.958 168.077 195.085 167.648 195.155C167.998 195.155 168.449 194.972 168.449 194.858Z" fill="white"/>
<path d="M162.496 134.87V97.8081L164.004 96.3003V197.607C163.091 196.979 162.496 196.077 162.496 194.901V181.181V165.3L116.697 146.3V137.3L160.669 145.022L162.496 145.8V134.87Z" fill="#404041"/>
<path d="M159.962 151.384L159.557 145.899L155.356 143.866L158.565 147.016L159.962 151.384Z" fill="white"/>
<path d="M166.197 95.3003L163.191 98.1569L163.182 102.727L164.075 98.6192L166.197 95.3003Z" fill="white"/>
<path d="M173.49 86.8154V194.901C173.49 196.067 172.905 196.964 172.005 197.591V88.3003L173.49 86.8154Z" fill="white"/>
<path d="M174.398 155.14C174.398 155.14 171.146 152.668 171.146 150.554V140.571C171.146 138.099 174.366 136.506 174.366 136.506L174.398 155.14Z" fill="#404041"/>
<path d="M175.07 136.3C175.07 136.3 177.498 137.904 177.498 140.158V150.999C177.498 152.82 174.723 154.944 174.723 154.944L172.728 149.741V140.552L175.07 136.3Z" fill="#F39DB1"/>
<path d="M174.029 138.189V147.14L176.024 152.343C176.553 151.922 177.046 151.459 177.498 150.956V150.999C177.498 152.82 174.723 154.944 174.723 154.944L172.728 149.741V140.552L174.029 138.189Z" fill="#9E3E63"/>
<path d="M175.07 136.3C175.07 136.3 177.498 137.904 177.498 140.158V150.999C177.498 152.82 174.723 154.944 174.723 154.944C174.723 154.944 172.728 150.944 172.728 149.741V140.552C172.728 139.009 175.07 136.3 175.07 136.3Z" stroke="black"/>
<path d="M176.24 146.229C176.24 146.229 177.345 138.902 175.264 138.077C175.264 138.081 176.197 144.386 176.24 146.229Z" fill="white"/>
<path d="M162.442 143.2L162.498 167.235L160.498 144.993L162.442 143.2Z" fill="black"/>
<path d="M168.697 90.8003V123.3L161.697 130.3" stroke="black"/>

        
<mask id="path-1-inside-1_1233_2887" fill="white">
<path fill-rule="evenodd" clip-rule="evenodd" d="M91.1855 145.463V161.716H107.951C109.101 159.183 109.737 156.386 109.737 153.423C109.737 150.585 109.156 147.899 108.09 145.449H91.1855V145.463Z"/>
</mask>
<path fill-rule="evenodd" clip-rule="evenodd" d="M91.1855 145.463V161.716H107.951C109.101 159.183 109.737 156.386 109.737 153.423C109.737 150.585 109.156 147.899 108.09 145.449H91.1855V145.463Z" fill="#404041" stroke="black" stroke-width="3" mask="url(#path-1-inside-1_1233_2887)"/>
<mask id="path-2-outside-2_1233_2887" maskUnits="userSpaceOnUse" x="42" y="131" width="52" height="45" fill="black">
<rect fill="white" x="42" y="131" width="52" height="45"/>
<path fill-rule="evenodd" clip-rule="evenodd" d="M45.9128 173.512H87.9454C90.0498 173.512 91.7527 171.796 91.7527 169.705V136.824C91.7527 133.529 87.8761 131.784 85.4118 133.972L44.6391 170.19C43.3377 171.353 44.1545 173.512 45.9128 173.512Z"/>
</mask>
<path fill-rule="evenodd" clip-rule="evenodd" d="M45.9128 173.512H87.9454C90.0498 173.512 91.7527 171.796 91.7527 169.705V136.824C91.7527 133.529 87.8761 131.784 85.4118 133.972L44.6391 170.19C43.3377 171.353 44.1545 173.512 45.9128 173.512Z" fill="#6D6E70"/>
<path fill-rule="evenodd" clip-rule="evenodd" d="M45.9128 173.512H87.9454C90.0498 173.512 91.7527 171.796 91.7527 169.705V136.824C91.7527 133.529 87.8761 131.784 85.4118 133.972L44.6391 170.19C43.3377 171.353 44.1545 173.512 45.9128 173.512Z" stroke="black" stroke-width="3" mask="url(#path-2-outside-2_1233_2887)"/>
<path d="M91.753 136.824V169.705C91.753 171.548 90.429 173.101 88.6732 173.443V173.004V133.074C88.8428 133.108 89.0099 133.154 89.1732 133.21C90.6113 133.704 91.753 135.036 91.753 136.824Z" fill="#404041"/>
<path d="M90.354 141.275C90.354 141.275 90.6253 136.595 90.3844 135.714C90.1435 134.833 87.7731 133.928 87.7731 133.928L89.6375 136.067L90.354 141.275Z" fill="white"/>
<path d="M83.6753 172.434C83.6753 172.434 88.3596 172.608 89.2357 172.349C90.1118 172.089 90.9667 169.701 90.9667 169.701L88.8672 171.609L83.6753 172.434Z" fill="white"/>
<path d="M64.4758 169.734H71.1674C71.8964 169.734 73.282 172.397 73.7516 173.647H75.9712C75.3931 170.512 73.2913 167.004 71.1674 167.004H64.4758C62.3519 167.004 60.0022 170.512 59.6719 173.647H61.8915C62.3611 172.397 63.7445 169.734 64.4758 169.734Z" fill="#404041"/>
<path d="M70.8151 169.224H64.8268C62.8805 169.224 61.8828 172.883 61.8828 172.883H73.759C73.759 172.883 72.752 169.224 70.8151 169.224Z" fill="black" stroke="black" stroke-width="1.63552"/>
<path d="M68.4888 170.948C68.4888 171.081 68.4496 171.21 68.3762 171.32C68.3027 171.429 68.1985 171.515 68.0764 171.566C67.9543 171.616 67.8199 171.63 67.6903 171.604C67.5607 171.578 67.4415 171.514 67.348 171.421C67.2546 171.327 67.1909 171.208 67.1652 171.079C67.1394 170.949 67.1527 170.815 67.2033 170.693C67.2538 170.571 67.3395 170.466 67.4493 170.393C67.5592 170.319 67.6884 170.28 67.8206 170.28C67.9978 170.28 68.1678 170.35 68.2931 170.476C68.4184 170.601 68.4888 170.771 68.4888 170.948Z" fill="#00ADEE"/>
<path d="M71.77 170.948C71.77 171.081 71.7308 171.21 71.6574 171.32C71.584 171.429 71.4797 171.515 71.3576 171.566C71.2355 171.616 71.1011 171.63 70.9714 171.604C70.8418 171.578 70.7227 171.514 70.6293 171.421C70.5358 171.327 70.4722 171.208 70.4464 171.079C70.4206 170.949 70.4339 170.815 70.4845 170.693C70.5351 170.571 70.6207 170.466 70.7306 170.393C70.8405 170.319 70.9697 170.28 71.1018 170.28C71.2791 170.28 71.4491 170.35 71.5744 170.476C71.6997 170.601 71.77 170.771 71.77 170.948V170.948Z" fill="#00ADEE"/>
<path d="M65.2076 170.948C65.2076 171.081 65.1683 171.21 65.0948 171.32C65.0214 171.429 64.9171 171.515 64.795 171.566C64.6729 171.616 64.5386 171.63 64.409 171.604C64.2793 171.578 64.1603 171.514 64.0668 171.421C63.9734 171.327 63.9097 171.208 63.8839 171.079C63.8582 170.949 63.8714 170.815 63.9219 170.693C63.9725 170.571 64.0581 170.466 64.168 170.393C64.2779 170.319 64.4071 170.28 64.5392 170.28C64.7165 170.28 64.8865 170.35 65.0118 170.476C65.1371 170.601 65.2076 170.771 65.2076 170.948Z" fill="#00ADEE"/>
<path d="M44.6391 170.19L85.4118 133.972C86.1735 133.296 87.07 132.995 87.9454 133L45.9128 173.512C44.1545 173.512 43.3377 171.353 44.6391 170.19Z" fill="white"/>
<path d="M72.0942 144.849C72.0942 144.849 72.636 147.151 72.5968 149.476C72.22 150.321 70.4097 152.645 68.5166 153.804L65.9426 152.421L60.3742 155.421C60.3742 155.421 68.771 145.303 72.0942 144.849Z" fill="#404041"/>
<path d="M70.266 143.332C70.7648 143.471 71.2111 143.756 71.5484 144.149C71.6577 144.779 71.5825 149.046 71.5825 149.046C71.5825 149.046 70.5045 151.07 68.4605 152.372L65.8665 150.968C65.8665 150.968 60.2152 155.179 59.5996 155.32C58.9414 154.774 58.8972 153.7 58.8972 153.7C58.8972 153.7 65.2558 145.476 70.266 143.332Z" fill="#F39DB1"/>
<path d="M59.1686 153.544C59.783 153.402 65.9356 149.137 65.9356 149.137L68.3695 150.324C69.9395 149.322 71.0336 147.709 71.6101 146.893C71.6045 148.016 71.5865 149.046 71.5865 149.046C71.5865 149.046 70.5085 151.07 68.4645 152.372L65.8705 150.968C65.8705 150.968 60.2192 155.179 59.6036 155.32C58.9454 154.774 58.9013 153.7 58.9013 153.7C58.9013 153.7 58.9566 153.608 59.0663 153.447C59.0983 153.481 59.1325 153.514 59.1686 153.544V153.544Z" fill="#9E3E63"/>
<path d="M70.266 143.332C70.7648 143.471 71.2111 143.756 71.5484 144.149C71.6577 144.779 71.5825 149.046 71.5825 149.046C71.5825 149.046 70.5045 151.07 68.4605 152.372L65.8665 150.968C65.8665 150.968 60.2152 155.179 59.5996 155.32C58.9414 154.774 58.8972 153.7 58.8972 153.7C58.8972 153.7 65.2558 145.476 70.266 143.332Z" stroke="black"/>
<path d="M70.59 144.693L69.9512 144.421C69.9512 144.421 65.1008 147.057 60.4394 152.975C60.4394 152.975 67.5192 146.215 70.59 144.693Z" fill="white"/>
<path d="M71.2644 145.569L69.7675 147.027L71.4828 146.772L71.2644 145.569Z" fill="black"/>
<path d="M82.6719 136.004V160.504C82.6719 162.713 80.881 164.504 78.6719 164.504H50.1719" stroke="black"/>
<rect x="87.5234" y="145.254" width="2.5" height="18.5" rx="0.75" fill="black" stroke="black" stroke-width="0.5"/>
<rect x="88.0742" y="145.504" width="2" height="18" rx="0.5" fill="#9E3E63"/>
<path fill-rule="evenodd" clip-rule="evenodd" d="M88.6102 148.685H89.1556C89.3787 148.685 89.5646 148.973 89.5646 149.317V161.232C89.5646 161.576 89.3787 161.864 89.1556 161.864H88.6102C88.3871 161.864 88.2012 161.576 88.2012 161.232V149.331C88.2012 148.973 88.3871 148.685 88.6102 148.685Z" fill="#F39DB1"/>
<path d="M89.1101 149.14C89.2356 149.14 89.3373 148.835 89.3373 148.458C89.3373 148.082 89.2356 147.776 89.1101 147.776C88.9846 147.776 88.8828 148.082 88.8828 148.458C88.8828 148.835 88.9846 149.14 89.1101 149.14Z" fill="white"/>
<path d="M88.4297 160.166V154.29C88.4297 153.778 88.7177 152.959 89.1725 152.149C89.2216 152.049 89.2768 151.954 89.3386 151.866C89.2811 151.96 89.2256 152.055 89.1725 152.149C88.8246 152.861 88.7787 153.84 88.8054 154.29L88.8054 160.166C88.7787 160.616 88.9609 161.185 89.5747 161.504C89.0747 161.504 88.4297 160.678 88.4297 160.166Z" fill="white"/>
<mask id="path-24-inside-3_1233_2887" fill="white">
<path fill-rule="evenodd" clip-rule="evenodd" d="M138.852 145.463V161.716H122.086C120.937 159.183 120.3 156.386 120.3 153.423C120.3 150.585 120.881 147.899 121.947 145.449H138.852V145.463Z"/>
</mask>
<path fill-rule="evenodd" clip-rule="evenodd" d="M138.852 145.463V161.716H122.086C120.937 159.183 120.3 156.386 120.3 153.423C120.3 150.585 120.881 147.899 121.947 145.449H138.852V145.463Z" fill="#404041" stroke="black" stroke-width="3" mask="url(#path-24-inside-3_1233_2887)"/>
<mask id="path-25-outside-4_1233_2887" maskUnits="userSpaceOnUse" x="136.037" y="131" width="52" height="45" fill="black">
<rect fill="white" x="136.037" y="131" width="52" height="45"/>
<path fill-rule="evenodd" clip-rule="evenodd" d="M184.124 173.512H142.092C139.987 173.512 138.284 171.796 138.284 169.705V136.824C138.284 133.529 142.161 131.784 144.625 133.972L185.398 170.19C186.699 171.353 185.883 173.512 184.124 173.512Z"/>
</mask>
<path fill-rule="evenodd" clip-rule="evenodd" d="M184.124 173.512H142.092C139.987 173.512 138.284 171.796 138.284 169.705V136.824C138.284 133.529 142.161 131.784 144.625 133.972L185.398 170.19C186.699 171.353 185.883 173.512 184.124 173.512Z" fill="#6D6E70"/>
<path fill-rule="evenodd" clip-rule="evenodd" d="M184.124 173.512H142.092C139.987 173.512 138.284 171.796 138.284 169.705V136.824C138.284 133.529 142.161 131.784 144.625 133.972L185.398 170.19C186.699 171.353 185.883 173.512 184.124 173.512Z" stroke="black" stroke-width="3" mask="url(#path-25-outside-4_1233_2887)"/>
<path d="M138.284 136.824V169.705C138.284 171.548 139.608 173.101 141.364 173.443V173.004V133.074C141.194 133.108 141.027 133.154 140.864 133.21C139.426 133.704 138.284 135.036 138.284 136.824Z" fill="#404041"/>
<path d="M139.683 141.275C139.683 141.275 139.412 136.595 139.653 135.714C139.894 134.833 142.264 133.928 142.264 133.928L140.4 136.067L139.683 141.275Z" fill="white"/>
<path d="M146.362 172.434C146.362 172.434 141.677 172.608 140.801 172.349C139.925 172.089 139.07 169.701 139.07 169.701L141.17 171.609L146.362 172.434Z" fill="white"/>
<path d="M165.561 169.734H158.87C158.141 169.734 156.755 172.397 156.286 173.647H154.066C154.644 170.512 156.746 167.004 158.87 167.004H165.561C167.685 167.004 170.035 170.512 170.365 173.647H168.146C167.676 172.397 166.293 169.734 165.561 169.734Z" fill="#404041"/>
<path d="M159.222 169.224H165.21C167.157 169.224 168.154 172.883 168.154 172.883H156.278C156.278 172.883 157.285 169.224 159.222 169.224Z" fill="black" stroke="black" stroke-width="1.63552"/>
<path d="M161.548 170.948C161.548 171.081 161.588 171.21 161.661 171.32C161.734 171.429 161.839 171.515 161.961 171.566C162.083 171.616 162.217 171.63 162.347 171.604C162.476 171.578 162.596 171.514 162.689 171.421C162.783 171.327 162.846 171.208 162.872 171.079C162.898 170.949 162.884 170.815 162.834 170.693C162.783 170.571 162.698 170.466 162.588 170.393C162.478 170.319 162.349 170.28 162.217 170.28C162.039 170.28 161.869 170.35 161.744 170.476C161.619 170.601 161.548 170.771 161.548 170.948Z" fill="#00ADEE"/>
<path d="M158.267 170.948C158.267 171.081 158.306 171.21 158.38 171.32C158.453 171.429 158.557 171.515 158.68 171.566C158.802 171.616 158.936 171.63 159.066 171.604C159.195 171.578 159.314 171.514 159.408 171.421C159.501 171.327 159.565 171.208 159.591 171.079C159.616 170.949 159.603 170.815 159.553 170.693C159.502 170.571 159.416 170.466 159.307 170.393C159.197 170.319 159.067 170.28 158.935 170.28C158.758 170.28 158.588 170.35 158.463 170.476C158.337 170.601 158.267 170.771 158.267 170.948V170.948Z" fill="#00ADEE"/>
<path d="M164.83 170.948C164.83 171.081 164.869 171.21 164.942 171.32C165.016 171.429 165.12 171.515 165.242 171.566C165.364 171.616 165.499 171.63 165.628 171.604C165.758 171.578 165.877 171.514 165.97 171.421C166.064 171.327 166.127 171.208 166.153 171.079C166.179 170.949 166.166 170.815 166.115 170.693C166.065 170.571 165.979 170.466 165.869 170.393C165.759 170.319 165.63 170.28 165.498 170.28C165.321 170.28 165.151 170.35 165.025 170.476C164.9 170.601 164.83 170.771 164.83 170.948Z" fill="#00ADEE"/>
<path d="M185.398 170.19L144.625 133.972C143.864 133.296 142.967 132.995 142.092 133L184.124 173.512C185.883 173.512 186.699 171.353 185.398 170.19Z" fill="white"/>
<path d="M157.943 144.849C157.943 144.849 157.401 147.151 157.44 149.476C157.817 150.321 159.627 152.645 161.521 153.804L164.094 152.421L169.663 155.421C169.663 155.421 161.266 145.303 157.943 144.849Z" fill="#404041"/>
<path d="M159.771 143.332C159.272 143.471 158.826 143.756 158.489 144.149C158.379 144.779 158.455 149.046 158.455 149.046C158.455 149.046 159.533 151.07 161.577 152.372L164.171 150.968C164.171 150.968 169.822 155.179 170.437 155.32C171.096 154.774 171.14 153.7 171.14 153.7C171.14 153.7 164.781 145.476 159.771 143.332Z" fill="#F39DB1"/>
<path d="M170.869 153.544C170.254 153.402 164.101 149.137 164.101 149.137L161.668 150.324C160.098 149.322 159.003 147.709 158.427 146.893C158.433 148.016 158.451 149.046 158.451 149.046C158.451 149.046 159.529 151.07 161.573 152.372L164.167 150.968C164.167 150.968 169.818 155.179 170.433 155.32C171.092 154.774 171.136 153.7 171.136 153.7C171.136 153.7 171.08 153.608 170.971 153.447C170.939 153.481 170.905 153.514 170.869 153.544V153.544Z" fill="#9E3E63"/>
<path d="M159.771 143.332C159.272 143.471 158.826 143.756 158.489 144.149C158.379 144.779 158.455 149.046 158.455 149.046C158.455 149.046 159.533 151.07 161.577 152.372L164.171 150.968C164.171 150.968 169.822 155.179 170.437 155.32C171.096 154.774 171.14 153.7 171.14 153.7C171.14 153.7 164.781 145.476 159.771 143.332Z" stroke="black"/>
<path d="M159.447 144.693L160.086 144.421C160.086 144.421 164.936 147.057 169.598 152.975C169.598 152.975 162.518 146.215 159.447 144.693Z" fill="white"/>
<path d="M158.773 145.569L160.27 147.027L158.554 146.772L158.773 145.569Z" fill="black"/>
<path d="M147.365 136.004V160.504C147.365 162.713 149.156 164.504 151.365 164.504H179.865" stroke="black"/>
<rect x="0.25" y="-0.25" width="2.5" height="18.5" rx="0.75" transform="matrix(-1 0 0 1 142.764 145.504)" fill="black" stroke="black" stroke-width="0.5"/>
<rect width="2" height="18" rx="0.5" transform="matrix(-1 0 0 1 141.963 145.504)" fill="#9E3E63"/>
<path fill-rule="evenodd" clip-rule="evenodd" d="M141.427 148.685H140.882C140.658 148.685 140.473 148.973 140.473 149.317V161.232C140.473 161.576 140.658 161.864 140.882 161.864H141.427C141.65 161.864 141.836 161.576 141.836 161.232V149.331C141.836 148.973 141.65 148.685 141.427 148.685Z" fill="#F39DB1"/>
<path d="M140.927 149.14C140.802 149.14 140.7 148.835 140.7 148.458C140.7 148.082 140.802 147.776 140.927 147.776C141.053 147.776 141.154 148.082 141.154 148.458C141.154 148.835 141.053 149.14 140.927 149.14Z" fill="white"/>
<path d="M141.607 160.166V154.29C141.607 153.778 141.319 152.959 140.865 152.149C140.815 152.049 140.76 151.954 140.698 151.866C140.756 151.96 140.811 152.055 140.865 152.149C141.213 152.861 141.258 153.84 141.232 154.29L141.232 160.166C141.258 160.616 141.076 161.185 140.462 161.504C140.962 161.504 141.607 160.678 141.607 160.166Z" fill="white"/>

        
<mask id="path-1-outside-1_1233_2887" maskUnits="userSpaceOnUse" x="105.4" y="170.678" width="19" height="20" fill="black">
<rect fill="white" x="105.4" y="170.678" width="19" height="20"/>
<path d="M107.4 172.678H122.2L114.801 188.5L107.4 172.678Z"/>
</mask>
<path d="M107.4 172.678H122.2L114.801 188.5L107.4 172.678Z" fill="#6D6E70"/>
<path d="M107.4 172.678H122.2L114.801 188.5L107.4 172.678Z" stroke="black" stroke-width="3" stroke-linejoin="round" mask="url(#path-1-outside-1_1233_2887)"/>
<path d="M114.801 188.5L107.4 172.678H110.5L114.801 188.5Z" fill="#BBBDBF"/>
<path d="M114.801 188.5L122.201 172.678H119.101L114.801 188.5Z" fill="#404041"/>
<mask id="path-4-outside-2_1233_2887" maskUnits="userSpaceOnUse" x="94.5293" y="126" width="41" height="52" fill="black">
<rect fill="white" x="94.5293" y="126" width="41" height="52"/>
<path fill-rule="evenodd" clip-rule="evenodd" d="M101.472 145.957C100.115 146.649 98.7721 147.341 97.4154 148.033C96.8477 148.324 96.5293 148.809 96.5293 149.376C96.5293 153.045 96.5293 156.728 96.5293 160.397C96.5293 160.826 96.6954 161.186 97.0415 161.49C97.6092 161.989 98.163 162.487 98.7306 162.972C98.7306 166.184 98.7306 169.41 98.7306 172.622C98.7306 176.996 131.127 176.996 131.127 172.622C131.127 169.41 131.127 166.184 131.127 162.972C131.681 162.473 132.249 161.975 132.816 161.49C133.162 161.186 133.329 160.826 133.329 160.397C133.329 156.728 133.329 153.045 133.329 149.376C133.329 148.809 133.01 148.324 132.442 148.033C131.086 147.341 129.743 146.649 128.386 145.957C128.386 140.488 128.386 135.019 128.386 129.564C128.386 128.706 127.569 128 126.558 128C118.805 128 111.066 128 103.313 128C102.303 128 101.486 128.706 101.486 129.564C101.472 135.019 101.472 140.488 101.472 145.957Z"/>
</mask>
<path fill-rule="evenodd" clip-rule="evenodd" d="M101.472 145.957C100.115 146.649 98.7721 147.341 97.4154 148.033C96.8477 148.324 96.5293 148.809 96.5293 149.376C96.5293 153.045 96.5293 156.728 96.5293 160.397C96.5293 160.826 96.6954 161.186 97.0415 161.49C97.6092 161.989 98.163 162.487 98.7306 162.972C98.7306 166.184 98.7306 169.41 98.7306 172.622C98.7306 176.996 131.127 176.996 131.127 172.622C131.127 169.41 131.127 166.184 131.127 162.972C131.681 162.473 132.249 161.975 132.816 161.49C133.162 161.186 133.329 160.826 133.329 160.397C133.329 156.728 133.329 153.045 133.329 149.376C133.329 148.809 133.01 148.324 132.442 148.033C131.086 147.341 129.743 146.649 128.386 145.957C128.386 140.488 128.386 135.019 128.386 129.564C128.386 128.706 127.569 128 126.558 128C118.805 128 111.066 128 103.313 128C102.303 128 101.486 128.706 101.486 129.564C101.472 135.019 101.472 140.488 101.472 145.957Z" fill="#6D6E70"/>
<path fill-rule="evenodd" clip-rule="evenodd" d="M101.472 145.957C100.115 146.649 98.7721 147.341 97.4154 148.033C96.8477 148.324 96.5293 148.809 96.5293 149.376C96.5293 153.045 96.5293 156.728 96.5293 160.397C96.5293 160.826 96.6954 161.186 97.0415 161.49C97.6092 161.989 98.163 162.487 98.7306 162.972C98.7306 166.184 98.7306 169.41 98.7306 172.622C98.7306 176.996 131.127 176.996 131.127 172.622C131.127 169.41 131.127 166.184 131.127 162.972C131.681 162.473 132.249 161.975 132.816 161.49C133.162 161.186 133.329 160.826 133.329 160.397C133.329 156.728 133.329 153.045 133.329 149.376C133.329 148.809 133.01 148.324 132.442 148.033C131.086 147.341 129.743 146.649 128.386 145.957C128.386 140.488 128.386 135.019 128.386 129.564C128.386 128.706 127.569 128 126.558 128C118.805 128 111.066 128 103.313 128C102.303 128 101.486 128.706 101.486 129.564C101.472 135.019 101.472 140.488 101.472 145.957Z" stroke="black" stroke-width="3" mask="url(#path-4-outside-2_1233_2887)"/>
<mask id="path-5-outside-3_1233_2887" maskUnits="userSpaceOnUse" x="94.5293" y="126" width="41" height="52" fill="black">
<rect fill="white" x="94.5293" y="126" width="41" height="52"/>
<path fill-rule="evenodd" clip-rule="evenodd" d="M101.472 145.957C100.115 146.649 98.7721 147.341 97.4154 148.033C96.8477 148.324 96.5293 148.809 96.5293 149.376C96.5293 153.045 96.5293 156.728 96.5293 160.397C96.5293 160.826 96.6954 161.186 97.0415 161.49C97.6092 161.989 98.163 162.487 98.7306 162.972C98.7306 166.184 98.7306 169.41 98.7306 172.622C98.7306 176.996 131.127 176.996 131.127 172.622C131.127 169.41 131.127 166.184 131.127 162.972C131.681 162.473 132.249 161.975 132.816 161.49C133.162 161.186 133.329 160.826 133.329 160.397C133.329 156.728 133.329 153.045 133.329 149.376C133.329 148.809 133.01 148.324 132.442 148.033C131.086 147.341 129.743 146.649 128.386 145.957C128.386 140.488 128.386 135.019 128.386 129.564C128.386 128.706 127.569 128 126.558 128C118.805 128 111.066 128 103.313 128C102.303 128 101.486 128.706 101.486 129.564C101.472 135.019 101.472 140.488 101.472 145.957Z"/>
</mask>
<path fill-rule="evenodd" clip-rule="evenodd" d="M101.472 145.957C100.115 146.649 98.7721 147.341 97.4154 148.033C96.8477 148.324 96.5293 148.809 96.5293 149.376C96.5293 153.045 96.5293 156.728 96.5293 160.397C96.5293 160.826 96.6954 161.186 97.0415 161.49C97.6092 161.989 98.163 162.487 98.7306 162.972C98.7306 166.184 98.7306 169.41 98.7306 172.622C98.7306 176.996 131.127 176.996 131.127 172.622C131.127 169.41 131.127 166.184 131.127 162.972C131.681 162.473 132.249 161.975 132.816 161.49C133.162 161.186 133.329 160.826 133.329 160.397C133.329 156.728 133.329 153.045 133.329 149.376C133.329 148.809 133.01 148.324 132.442 148.033C131.086 147.341 129.743 146.649 128.386 145.957C128.386 140.488 128.386 135.019 128.386 129.564C128.386 128.706 127.569 128 126.558 128C118.805 128 111.066 128 103.313 128C102.303 128 101.486 128.706 101.486 129.564C101.472 135.019 101.472 140.488 101.472 145.957Z" fill="#6D6E70"/>
<path fill-rule="evenodd" clip-rule="evenodd" d="M101.472 145.957C100.115 146.649 98.7721 147.341 97.4154 148.033C96.8477 148.324 96.5293 148.809 96.5293 149.376C96.5293 153.045 96.5293 156.728 96.5293 160.397C96.5293 160.826 96.6954 161.186 97.0415 161.49C97.6092 161.989 98.163 162.487 98.7306 162.972C98.7306 166.184 98.7306 169.41 98.7306 172.622C98.7306 176.996 131.127 176.996 131.127 172.622C131.127 169.41 131.127 166.184 131.127 162.972C131.681 162.473 132.249 161.975 132.816 161.49C133.162 161.186 133.329 160.826 133.329 160.397C133.329 156.728 133.329 153.045 133.329 149.376C133.329 148.809 133.01 148.324 132.442 148.033C131.086 147.341 129.743 146.649 128.386 145.957C128.386 140.488 128.386 135.019 128.386 129.564C128.386 128.706 127.569 128 126.558 128C118.805 128 111.066 128 103.313 128C102.303 128 101.486 128.706 101.486 129.564C101.472 135.019 101.472 140.488 101.472 145.957Z" stroke="black" stroke-width="3" mask="url(#path-5-outside-3_1233_2887)"/>
<path d="M97.4154 148.033C98.7721 147.341 100.115 146.649 101.472 145.957C101.472 140.488 101.472 135.019 101.486 129.564C101.486 128.706 102.303 128 103.313 128L104 146.967L98.7306 150.467V162.972L100.5 165.467V174.219C99.3818 173.774 98.7306 173.242 98.7306 172.622V162.972C98.163 162.487 97.6092 161.989 97.0415 161.49C96.6954 161.186 96.5293 160.826 96.5293 160.397V149.376C96.5293 148.809 96.8477 148.324 97.4154 148.033Z" fill="#BBBDBF"/>
<path d="M131.128 162.972V172.622C131.128 174.818 122.965 175.911 114.834 175.903V128H126.559C127.57 128 128.387 128.706 128.387 129.564V145.957C129.744 146.649 131.087 147.341 132.443 148.033C133.011 148.324 133.33 148.809 133.33 149.376V160.397C133.33 160.826 133.163 161.186 132.817 161.49C132.25 161.975 131.682 162.473 131.128 162.972Z" fill="#404041"/>
<path d="M132.385 148.033C131.029 147.341 129.686 146.649 128.329 145.957C128.329 140.488 128.329 135.019 128.315 129.564C128.315 128.706 127.498 128 126.488 128L125.801 146.967L131.07 150.467V162.972L129.301 165.467V174.219C130.419 173.774 131.07 173.242 131.07 172.622V162.972C131.638 162.487 132.192 161.989 132.759 161.49C133.105 161.186 133.271 160.826 133.271 160.397V149.376C133.271 148.809 132.953 148.324 132.385 148.033Z" fill="#231F20"/>
<rect x="101.85" y="155.317" width="1.7" height="4.3" rx="0.65" fill="black" stroke="black" stroke-width="0.3"/>
<rect x="101.801" y="155.467" width="1.4" height="4" rx="0.5" fill="#9E3E63"/>
<path fill-rule="evenodd" clip-rule="evenodd" d="M102.177 156.174H102.559C102.715 156.174 102.845 156.238 102.845 156.314V158.962C102.845 159.039 102.715 159.103 102.559 159.103H102.177C102.021 159.103 101.891 159.039 101.891 158.962V156.317C101.891 156.238 102.021 156.174 102.177 156.174Z" fill="#F39DB1"/>
<path d="M102.526 156.275C102.614 156.275 102.685 156.207 102.685 156.124C102.685 156.04 102.614 155.972 102.526 155.972C102.438 155.972 102.367 156.04 102.367 156.124C102.367 156.207 102.438 156.275 102.526 156.275Z" fill="white"/>
<path d="M102.049 158.725V157.419C102.049 157.306 102.25 157.124 102.569 156.944C102.603 156.921 102.642 156.9 102.685 156.881C102.645 156.902 102.606 156.923 102.569 156.944C102.325 157.102 102.293 157.32 102.312 157.419L102.312 158.725C102.293 158.825 102.421 158.952 102.85 159.023C102.5 159.023 102.049 158.839 102.049 158.725Z" fill="white"/>
<rect x="125.85" y="155.318" width="1.7" height="4.3" rx="0.65" fill="black" stroke="black" stroke-width="0.3"/>
<rect x="126.199" y="155.467" width="1.4" height="4" rx="0.5" fill="#9E3E63"/>
<path fill-rule="evenodd" clip-rule="evenodd" d="M126.575 156.174H126.957C127.113 156.174 127.243 156.238 127.243 156.314V158.962C127.243 159.039 127.113 159.103 126.957 159.103H126.575C126.419 159.103 126.289 159.039 126.289 158.962V156.317C126.289 156.238 126.419 156.174 126.575 156.174Z" fill="#F39DB1"/>
<path d="M126.925 156.275C127.013 156.275 127.084 156.207 127.084 156.124C127.084 156.04 127.013 155.972 126.925 155.972C126.837 155.972 126.766 156.04 126.766 156.124C126.766 156.207 126.837 156.275 126.925 156.275Z" fill="white"/>
<path d="M126.447 158.725V157.419C126.447 157.306 126.649 157.124 126.967 156.944C127.002 156.921 127.04 156.9 127.084 156.881C127.043 156.902 127.004 156.923 126.967 156.944C126.724 157.102 126.692 157.32 126.71 157.419L126.71 158.725C126.692 158.825 126.819 158.952 127.249 159.023C126.899 159.023 126.447 158.839 126.447 158.725Z" fill="white"/>
<path d="M97.6309 162.622C97.6309 166.997 132.227 166.997 132.227 162.622" stroke="black" stroke-width="1.5"/>
<mask id="path-20-inside-4_1233_2887" fill="white">
<path d="M132.227 164.921C132.227 169.296 97.6309 169.296 97.6309 164.921V161.821C97.6309 166.196 132.227 166.196 132.227 161.821V164.921Z"/>
</mask>
<path d="M132.227 164.921C132.227 169.296 97.6309 169.296 97.6309 164.921V161.821C97.6309 166.196 132.227 166.196 132.227 161.821V164.921Z" fill="#404041" stroke="black" stroke-width="2" mask="url(#path-20-inside-4_1233_2887)"/>
<path d="M100.631 144.867C100.631 149.242 129.227 149.242 129.227 144.867" stroke="black"/>
<path d="M96 148.466C96 150.654 105.5 152.748 115 152.748C124.5 152.748 134 150.654 134 148.466" stroke="black"/>
<path d="M114.701 165.168V167.468" stroke="black"/>
<path d="M118.701 165.168V167.468" stroke="black"/>
<path d="M122.701 165.168V167.468" stroke="black"/>
<path d="M126.701 164.968V167.268" stroke="black"/>
<path d="M130.701 163.668V165.968" stroke="black"/>
<path d="M110.701 165.168V167.468" stroke="black"/>
<path d="M106.701 165.168V167.468" stroke="black"/>
<path d="M102.701 164.968V167.268" stroke="black"/>
<path d="M98.7012 164.168V166.468" stroke="black"/>

        
<mask id="path-1-outside-1_1233_2887" maskUnits="userSpaceOnUse" x="97.1992" y="19.8989" width="17" height="32" fill="black">
<rect fill="white" x="97.1992" y="19.8989" width="17" height="32"/>
<path d="M99.244 42.9306L105.154 50.2787C105.2 50.3352 105.288 50.3261 105.321 50.2615L112.421 36.3602C112.428 36.3462 112.432 36.3306 112.432 36.3148V22.2449C112.432 22.1446 112.301 22.1067 112.247 22.1915L99.2373 42.8146C99.2145 42.8507 99.2172 42.8973 99.244 42.9306Z"/>
</mask>
<path d="M99.244 42.9306L105.154 50.2787C105.2 50.3352 105.288 50.3261 105.321 50.2615L112.421 36.3602C112.428 36.3462 112.432 36.3306 112.432 36.3148V22.2449C112.432 22.1446 112.301 22.1067 112.247 22.1915L99.2373 42.8146C99.2145 42.8507 99.2172 42.8973 99.244 42.9306Z" fill="#6D6E70"/>
<path d="M99.244 42.9306L105.154 50.2787C105.2 50.3352 105.288 50.3261 105.321 50.2615L112.421 36.3602C112.428 36.3462 112.432 36.3306 112.432 36.3148V22.2449C112.432 22.1446 112.301 22.1067 112.247 22.1915L99.2373 42.8146C99.2145 42.8507 99.2172 42.8973 99.244 42.9306Z" stroke="black" stroke-width="3" mask="url(#path-1-outside-1_1233_2887)"/>
<path d="M99.244 42.9306L105.251 50.399L100.729 42.9248C100.711 42.894 100.71 42.8556 100.728 42.8242L112.432 21.8989L99.2373 42.8146C99.2145 42.8507 99.2172 42.8973 99.244 42.9306Z" fill="white"/>
<path d="M105.321 50.2605L112.42 36.3601C112.427 36.3461 112.431 36.3305 112.431 36.3147V30.5908C112.431 30.4956 112.309 30.4563 112.25 30.5316C108.115 35.8647 106.166 38.5269 103.413 48.0188C103.404 48.0499 103.41 48.0845 103.431 48.1099L105.154 50.2773C105.199 50.3342 105.288 50.3253 105.321 50.2605Z" fill="#404041"/>
<mask id="path-4-outside-2_1233_2887" maskUnits="userSpaceOnUse" x="116.732" y="19.8989" width="17" height="32" fill="black">
<rect fill="white" x="116.732" y="19.8989" width="17" height="32"/>
<path d="M131.688 42.9306L125.777 50.2787C125.732 50.3352 125.643 50.3261 125.61 50.2615L118.511 36.3602C118.504 36.3462 118.5 36.3306 118.5 36.3148V22.2449C118.5 22.1446 118.631 22.1067 118.685 22.1915L131.694 42.8146C131.717 42.8507 131.714 42.8973 131.688 42.9306Z"/>
</mask>
<path d="M131.688 42.9306L125.777 50.2787C125.732 50.3352 125.643 50.3261 125.61 50.2615L118.511 36.3602C118.504 36.3462 118.5 36.3306 118.5 36.3148V22.2449C118.5 22.1446 118.631 22.1067 118.685 22.1915L131.694 42.8146C131.717 42.8507 131.714 42.8973 131.688 42.9306Z" fill="#6D6E70"/>
<path d="M131.688 42.9306L125.777 50.2787C125.732 50.3352 125.643 50.3261 125.61 50.2615L118.511 36.3602C118.504 36.3462 118.5 36.3306 118.5 36.3148V22.2449C118.5 22.1446 118.631 22.1067 118.685 22.1915L131.694 42.8146C131.717 42.8507 131.714 42.8973 131.688 42.9306Z" stroke="black" stroke-width="3" mask="url(#path-4-outside-2_1233_2887)"/>
<path d="M131.688 42.9306L125.681 50.399L130.202 42.9248C130.221 42.894 130.222 42.8556 130.204 42.8242L118.5 21.8989L131.694 42.8146C131.717 42.8507 131.714 42.8973 131.688 42.9306Z" fill="white"/>
<path d="M125.611 50.2605L118.512 36.3601C118.505 36.3461 118.501 36.3305 118.501 36.3147V30.5908C118.501 30.4956 118.623 30.4563 118.681 30.5316C122.817 35.8647 124.766 38.5269 127.519 48.0188C127.528 48.0499 127.521 48.0845 127.501 48.1099L125.778 50.2773C125.733 50.3342 125.644 50.3253 125.611 50.2605Z" fill="#404041"/>
<path d="M97.5 117.183C99.1614 115.467 100.823 113.764 102.484 112.047C102.83 111.687 102.996 111.272 102.996 110.773L102.996 89.5939C103.009 67.0756 104.807 44.9768 112.209 34.3539C113.772 32.1094 116.927 31.9829 118.521 34.2062C125.652 44.1524 127.572 67.2969 127.585 89.5939V110.789C127.588 111.28 127.754 111.691 128.097 112.047C129.758 113.764 131.42 115.467 133.081 117.183V129.353C131.433 131.471 129.786 133.603 128.138 135.721C128.138 140.094 102.459 140.074 102.431 135.706C100.787 133.593 99.1436 131.466 97.5 129.353V117.183Z" fill="#6D6E70"/>
<path fill-rule="evenodd" clip-rule="evenodd" d="M102.425 135.699C101.607 134.647 100.789 133.591 99.9709 132.536C99.1473 131.474 98.3236 130.411 97.5 129.352V117.183C98.3307 116.324 99.1614 115.47 99.992 114.615C100.823 113.76 101.653 112.905 102.484 112.046C102.83 111.686 102.996 111.271 102.996 110.773L102.996 89.5934C103.009 67.0751 104.807 44.9764 112.209 34.3535C113.772 32.1089 116.927 31.9825 118.521 34.2057C125.652 44.152 127.572 67.2964 127.585 89.5934V110.789C127.588 111.28 127.754 111.69 128.097 112.046C128.928 112.905 129.758 113.76 130.589 114.615C131.42 115.47 132.25 116.325 133.081 117.183V129.352C132.257 130.412 131.433 131.474 130.609 132.537C129.786 133.599 128.962 134.662 128.138 135.721C128.138 140.086 102.552 140.074 102.431 135.73C102.431 135.722 102.431 135.714 102.431 135.706C102.429 135.704 102.427 135.701 102.425 135.699ZM129.57 136.324C129.329 137.353 128.498 138.038 127.79 138.451C126.895 138.972 125.721 139.354 124.456 139.64C121.902 140.218 118.571 140.493 115.294 140.491C112.017 140.489 108.684 140.209 106.127 139.629C104.861 139.341 103.686 138.958 102.789 138.437C102.08 138.024 101.247 137.341 101.002 136.312C100.264 135.363 99.5265 134.411 98.7896 133.461L98.78 133.448C97.958 132.388 97.1369 131.329 96.316 130.273L96 129.867V116.576L96.4221 116.14C97.254 115.28 98.0857 114.424 98.9163 113.569L98.9228 113.563C99.7506 112.711 100.577 111.86 101.404 111.006C101.456 110.951 101.472 110.917 101.478 110.902C101.484 110.887 101.496 110.851 101.496 110.773L101.496 89.5934C101.503 78.3048 101.956 67.0697 103.347 57.3013C104.731 47.5795 107.068 39.107 110.978 33.496C113.089 30.4654 117.498 30.2048 119.74 33.3317C123.533 38.622 125.83 47.2124 127.208 57.0602C128.594 66.9736 129.079 78.4109 129.085 89.5926V110.782C129.086 110.855 129.097 110.888 129.103 110.903C129.109 110.918 129.125 110.951 129.177 111.006C130.005 111.862 130.834 112.714 131.663 113.568L131.666 113.571C132.496 114.425 133.327 115.28 134.159 116.14L134.581 116.576V129.867L134.265 130.273C133.442 131.331 132.619 132.393 131.795 133.456C131.054 134.412 130.312 135.369 129.57 136.324Z" fill="black"/>
<path d="M127.585 89.5937C127.572 67.2967 125.652 44.1522 118.521 34.206C117.757 33.1403 116.634 32.6145 115.5 32.603V140.491L126 138.899L128.5 136.399L128.138 135.721C128.962 134.662 129.786 133.6 130.609 132.537C131.433 131.474 132.257 130.412 133.081 129.353V117.183C132.25 116.325 131.42 115.47 130.589 114.615C129.758 113.76 128.928 112.905 128.097 112.047C127.754 111.691 127.588 111.28 127.585 110.789V110.773V89.5937Z" fill="#404041"/>
<path fill-rule="evenodd" clip-rule="evenodd" d="M102.425 135.699C101.607 134.647 100.789 133.591 99.9709 132.536C99.1473 131.474 98.3236 130.411 97.5 129.352V117.183C98.3307 116.324 99.1614 115.47 99.992 114.615C100.823 113.76 101.653 112.905 102.484 112.046C102.83 111.686 102.996 111.271 102.996 110.773L102.996 89.5934C103.009 67.0751 104.807 44.9764 112.209 34.3535C113.772 32.1089 116.927 31.9825 118.521 34.2057C125.652 44.152 127.572 67.2964 127.585 89.5934V110.789C127.588 111.28 127.754 111.69 128.097 112.046C128.928 112.905 129.758 113.76 130.589 114.615C131.42 115.47 132.25 116.325 133.081 117.183V129.352C132.257 130.412 131.433 131.474 130.609 132.537C129.786 133.599 128.962 134.662 128.138 135.721C128.138 140.086 102.552 140.074 102.431 135.73C102.431 135.722 102.431 135.714 102.431 135.706C102.429 135.704 102.427 135.701 102.425 135.699ZM129.57 136.324C129.329 137.353 128.498 138.038 127.79 138.451C126.895 138.972 125.721 139.354 124.456 139.64C121.902 140.218 118.571 140.493 115.294 140.491C112.017 140.489 108.684 140.209 106.127 139.629C104.861 139.341 103.686 138.958 102.789 138.437C102.08 138.024 101.247 137.341 101.002 136.312C100.264 135.363 99.5265 134.411 98.7896 133.461L98.78 133.448C97.958 132.388 97.1369 131.329 96.316 130.273L96 129.867V116.576L96.4221 116.14C97.254 115.28 98.0857 114.424 98.9163 113.569L98.9228 113.563C99.7506 112.711 100.577 111.86 101.404 111.006C101.456 110.951 101.472 110.917 101.478 110.902C101.484 110.887 101.496 110.851 101.496 110.773L101.496 89.5934C101.503 78.3048 101.956 67.0697 103.347 57.3013C104.731 47.5795 107.068 39.107 110.978 33.496C113.089 30.4654 117.498 30.2048 119.74 33.3317C123.533 38.622 125.83 47.2124 127.208 57.0602C128.594 66.9736 129.079 78.4109 129.085 89.5926V110.782C129.086 110.855 129.097 110.888 129.103 110.903C129.109 110.918 129.125 110.951 129.177 111.006C130.005 111.862 130.834 112.714 131.663 113.568L131.666 113.571C132.496 114.425 133.327 115.28 134.159 116.14L134.581 116.576V129.867L134.265 130.273C133.442 131.331 132.619 132.393 131.795 133.456C131.054 134.412 130.312 135.369 129.57 136.324Z" fill="black"/>
<path d="M102.997 89.5937C103.01 67.2967 104.93 44.1522 112.061 34.206C112.826 33.1403 113.948 32.6145 115.082 32.603C110.163 37.8071 107.001 49.8989 105.501 63.8989C104.301 75.0989 104.335 101.232 104.501 112.899L99.0012 118.399V130.399L102.444 135.721C101.62 134.662 100.796 133.6 99.9726 132.537C99.1488 131.474 98.325 130.412 97.5011 129.353V117.183C98.3317 116.325 99.1624 115.47 99.993 114.615C100.824 113.76 101.654 112.905 102.485 112.047C102.828 111.691 102.994 111.28 102.997 110.789V110.773V89.5937Z" fill="#BBBDBF"/>
<path d="M127.585 89.5937C127.572 67.2967 125.652 44.1522 118.521 34.206C117.757 33.1403 116.634 32.6145 115.5 32.603C120.419 37.8071 123.581 49.8989 125.081 63.8989C126.281 75.0989 126.247 101.232 126.081 112.899L131.581 118.399V130.399L128.138 135.721C128.962 134.662 129.786 133.6 130.609 132.537C131.433 131.474 132.257 130.412 133.081 129.353V117.183C132.25 116.325 131.42 115.47 130.589 114.615C129.758 113.76 128.928 112.905 128.097 112.047C127.754 111.691 127.588 111.28 127.585 110.789V110.773V89.5937Z" fill="#231F20"/>
<rect x="108.051" y="99.2138" width="1.7" height="4.3" rx="0.65" fill="black" stroke="black" stroke-width="0.3"/>
<rect x="107.9" y="99.3638" width="1.4" height="4" rx="0.5" fill="#9E3E63"/>
<path fill-rule="evenodd" clip-rule="evenodd" d="M108.277 100.07H108.658C108.814 100.07 108.945 100.134 108.945 100.211V102.859C108.945 102.935 108.814 102.999 108.658 102.999H108.277C108.12 102.999 107.99 102.935 107.99 102.859V100.214C107.99 100.134 108.12 100.07 108.277 100.07Z" fill="#F39DB1"/>
<path d="M108.626 100.172C108.714 100.172 108.785 100.104 108.785 100.02C108.785 99.9365 108.714 99.8687 108.626 99.8687C108.538 99.8687 108.467 99.9365 108.467 100.02C108.467 100.104 108.538 100.172 108.626 100.172Z" fill="white"/>
<path d="M108.148 102.622V101.316C108.148 101.202 108.35 101.02 108.668 100.84C108.703 100.818 108.741 100.797 108.785 100.777C108.744 100.798 108.706 100.819 108.668 100.84C108.425 100.998 108.393 101.216 108.411 101.316L108.411 102.622C108.393 102.722 108.52 102.848 108.95 102.919C108.6 102.919 108.148 102.736 108.148 102.622Z" fill="white"/>
<rect x="0.15" y="-0.15" width="1.7" height="4.3" rx="0.65" transform="matrix(-1 0 0 1 122.698 99.3638)" fill="black" stroke="black" stroke-width="0.3"/>
<rect width="1.4" height="4" rx="0.5" transform="matrix(-1 0 0 1 122.699 99.3638)" fill="#9E3E63"/>
<path fill-rule="evenodd" clip-rule="evenodd" d="M122.323 100.07H121.941C121.785 100.07 121.655 100.134 121.655 100.211V102.859C121.655 102.935 121.785 102.999 121.941 102.999H122.323C122.479 102.999 122.609 102.935 122.609 102.859V100.214C122.609 100.134 122.479 100.07 122.323 100.07Z" fill="#F39DB1"/>
<path d="M121.974 100.172C121.886 100.172 121.815 100.104 121.815 100.02C121.815 99.9365 121.886 99.8687 121.974 99.8687C122.062 99.8687 122.133 99.9365 122.133 100.02C122.133 100.104 122.062 100.172 121.974 100.172Z" fill="white"/>
<path d="M122.451 102.622V101.316C122.451 101.202 122.25 101.02 121.931 100.84C121.897 100.818 121.858 100.797 121.815 100.777C121.855 100.798 121.894 100.819 121.931 100.84C122.175 100.998 122.207 101.216 122.188 101.316L122.188 102.622C122.207 102.722 122.079 102.848 121.65 102.919C122 102.919 122.451 102.736 122.451 102.622Z" fill="white"/>
<mask id="path-23-outside-3_1233_2887" maskUnits="userSpaceOnUse" x="108.584" y="41.8989" width="14" height="40" fill="black">
<rect fill="white" x="108.584" y="41.8989" width="14" height="40"/>
<path d="M115.4 42.8989C113.476 42.8989 112.076 46.457 111.148 51.8703C110.082 58.0312 109.584 74.0814 109.584 75.2402C109.584 76.3989 110.25 77.8837 111.025 78.6589C111.8 79.4342 113.85 80.1758 115.443 80.1758C117.035 80.1758 118.999 79.4342 119.774 78.6589C120.549 77.8837 121.215 76.3989 121.215 75.2402C121.215 74.0814 120.716 58.0312 119.65 51.8703C118.723 46.457 117.324 42.8989 115.4 42.8989Z"/>
</mask>
<path d="M115.4 42.8989C113.476 42.8989 112.076 46.457 111.148 51.8703C110.082 58.0312 109.584 74.0814 109.584 75.2402C109.584 76.3989 110.25 77.8837 111.025 78.6589C111.8 79.4342 113.85 80.1758 115.443 80.1758C117.035 80.1758 118.999 79.4342 119.774 78.6589C120.549 77.8837 121.215 76.3989 121.215 75.2402C121.215 74.0814 120.716 58.0312 119.65 51.8703C118.723 46.457 117.324 42.8989 115.4 42.8989Z" fill="#AA3964"/>
<path d="M115.4 42.8989C113.476 42.8989 112.076 46.457 111.148 51.8703C110.082 58.0312 109.584 74.0814 109.584 75.2402C109.584 76.3989 110.25 77.8837 111.025 78.6589C111.8 79.4342 113.85 80.1758 115.443 80.1758C117.035 80.1758 118.999 79.4342 119.774 78.6589C120.549 77.8837 121.215 76.3989 121.215 75.2402C121.215 74.0814 120.716 58.0312 119.65 51.8703C118.723 46.457 117.324 42.8989 115.4 42.8989Z" stroke="black" stroke-width="2" mask="url(#path-23-outside-3_1233_2887)"/>
<path fill-rule="evenodd" clip-rule="evenodd" d="M115.403 50.4189C114.088 50.4189 113.756 51.0281 113.133 53.2986C111.956 57.5767 111.264 65.2328 112.413 69.9954C112.953 72.2659 113.603 72.8751 115.417 72.8751C117.217 72.8751 117.867 72.2797 118.421 69.9954C119.557 65.2328 118.864 57.5767 117.701 53.2986C117.051 51.0281 116.718 50.4189 115.403 50.4189Z" fill="#DB5C87"/>
<path d="M119.881 76.0026C119.706 77.075 119.203 77.8835 118.757 77.8111C118.311 77.7386 118.091 76.811 118.269 75.7386C118.446 74.6662 118.949 73.8578 119.392 73.9325C119.836 74.0073 120.058 74.9325 119.881 76.0026Z" fill="white"/>
<path d="M112.357 74.8374C112.831 74.8374 113.215 74.419 113.215 73.9028C113.215 73.3867 112.831 72.9683 112.357 72.9683C111.884 72.9683 111.5 73.3867 111.5 73.9028C111.5 74.419 111.884 74.8374 112.357 74.8374Z" fill="white"/>
<path d="M113.808 77.0597C114.083 77.0597 114.306 76.8369 114.306 76.5621C114.306 76.2872 114.083 76.0645 113.808 76.0645C113.533 76.0645 113.311 76.2872 113.311 76.5621C113.311 76.8369 113.533 77.0597 113.808 77.0597Z" fill="white"/>
<path d="M118.929 56.3867C119.293 58.909 119.222 61.0061 118.773 61.0701C118.324 61.134 117.669 59.1423 117.308 56.6205C116.946 54.0987 117.013 52.0008 117.464 51.9372C117.915 51.8736 118.565 53.8645 118.929 56.3867Z" fill="white"/>
<path d="M119.714 64.3128C119.674 65.3985 119.278 66.2661 118.827 66.249C118.376 66.2319 118.045 65.341 118.08 64.2545C118.116 63.1679 118.516 62.3035 118.967 62.3206C119.417 62.3377 119.753 63.2294 119.714 64.3128Z" fill="white"/>
<path d="M116.176 46.2462C116.176 46.2462 117.277 48.43 116.477 51.8864C116.477 51.8864 114.987 49.6685 116.176 46.2462Z" fill="white"/>
<path d="M115.084 44.0991C113.429 44.0991 112.227 47.3994 111.429 52.4204C110.513 58.1349 110.072 66.1608 110.084 74.0968C110.084 74.6744 110.325 75.386 110.722 76.0991C110.07 72.8527 110.868 59.8147 111.804 54.7658C112.663 50.1281 114.42 45.1635 115.084 44.0991Z" fill="white"/>
<path d="M107.689 74.2839C107.689 74.2839 107.687 74.2012 107.686 74.0429C107.684 74.2559 107.683 74.6164 107.685 75.1049L106.949 75.8992C106.94 75.3004 106.934 74.6916 106.932 74.0726C106.932 74.127 106.931 74.1815 106.931 74.2361L106.931 74.819C106.931 74.6237 106.931 74.4294 106.931 74.2361L106.931 73.9179C106.931 73.7078 106.931 73.4964 106.931 73.2839L106.931 73.9179C106.931 73.9696 106.932 74.0211 106.932 74.0726C106.988 55.4801 110.593 46.0043 110.593 46.0043C107.67 57.7251 107.671 72.025 107.686 74.0429C107.687 73.8958 107.689 73.819 107.689 73.819L107.689 74.2839Z" fill="white"/>
<path d="M108.713 87.0873C107.399 80.6093 107.674 74.6728 107.674 74.6728L106.937 74.3051C106.933 74.5565 106.932 74.8109 106.932 75.0683C106.931 75.0148 106.929 74.9612 106.928 74.9076L106.934 75.4087C106.936 75.5256 106.937 75.6432 106.939 75.7613L106.934 75.4087C106.933 75.2947 106.933 75.1812 106.932 75.0683C107.142 81.7017 108.713 87.0873 108.713 87.0873Z" fill="white"/>
<path d="M122.092 87.0873C123.405 80.6093 123.131 74.6728 123.131 74.6728L123.868 74.3051C123.871 74.5565 123.873 74.8109 123.872 75.0683C123.874 75.0148 123.876 74.9612 123.877 74.9076L123.87 75.4087C123.869 75.5256 123.868 75.6432 123.865 75.7613L123.87 75.4087C123.871 75.2947 123.872 75.1812 123.872 75.0683C123.662 81.7017 122.092 87.0873 122.092 87.0873Z" fill="white"/>
<path d="M123.104 74.2839C123.104 74.2839 123.106 74.2012 123.107 74.0429C123.109 74.2559 123.11 74.6164 123.108 75.1049L123.844 75.8992C123.853 75.3004 123.859 74.6916 123.861 74.0726C123.861 74.127 123.862 74.1815 123.862 74.2361L123.862 74.819C123.862 74.6237 123.862 74.4294 123.862 74.2361L123.862 73.9179C123.862 73.7078 123.862 73.4964 123.862 73.2839L123.862 73.9179C123.862 73.9696 123.861 74.0211 123.861 74.0726C123.805 55.4801 120.2 46.0043 120.2 46.0043C123.123 57.7251 123.122 72.025 123.107 74.0429C123.106 73.8958 123.104 73.819 123.104 73.819L123.104 74.2839Z" fill="white"/>
<mask id="path-36-outside-4_1233_2887" maskUnits="userSpaceOnUse" x="108.637" y="80.8989" width="14" height="11" fill="black">
<rect fill="white" x="108.637" y="80.8989" width="14" height="11"/>
<path d="M120.512 81.9866C119.127 82.8035 116.981 83.3758 115.389 83.3758C113.797 83.3758 111.637 82.7758 110.225 81.959C109.865 81.7651 109.588 82.0697 109.644 82.4574C109.644 83.5649 110.53 87.2294 111.748 88.4477C112.842 89.5553 114.213 89.986 115.459 89.986C116.691 89.986 118.075 89.5415 119.169 88.4477C120.387 87.2294 121.273 83.5649 121.273 82.4574C121.329 82.042 120.872 81.779 120.512 81.9866Z"/>
</mask>
<path d="M120.512 81.9866C119.127 82.8035 116.981 83.3758 115.389 83.3758C113.797 83.3758 111.637 82.7758 110.225 81.959C109.865 81.7651 109.588 82.0697 109.644 82.4574C109.644 83.5649 110.53 87.2294 111.748 88.4477C112.842 89.5553 114.213 89.986 115.459 89.986C116.691 89.986 118.075 89.5415 119.169 88.4477C120.387 87.2294 121.273 83.5649 121.273 82.4574C121.329 82.042 120.872 81.779 120.512 81.9866Z" stroke="black" stroke-width="2" mask="url(#path-36-outside-4_1233_2887)"/>
<path d="M120.512 81.9866C119.127 82.8035 116.981 83.3758 115.389 83.3758C113.797 83.3758 111.637 82.7758 110.225 81.959C109.865 81.7651 109.588 82.0697 109.644 82.4574C109.644 83.5649 110.53 87.2294 111.748 88.4477C112.842 89.5553 114.213 89.986 115.459 89.986C116.691 89.986 118.075 89.5415 119.169 88.4477C120.387 87.2294 121.273 83.5649 121.273 82.4574C121.329 82.042 120.872 81.779 120.512 81.9866Z" fill="#AA3964"/>
<path d="M119.842 83.9423C118.653 84.3463 116.809 84.6294 115.442 84.6294C114.074 84.6294 112.218 84.3326 111.005 83.9286C110.696 83.8327 110.459 83.9834 110.506 84.1751C110.506 84.723 111.267 86.5355 112.314 87.1381C113.253 87.6859 114.431 87.8989 115.501 87.8989C116.56 87.8989 117.749 87.6791 118.689 87.1381C119.735 86.5355 120.496 84.723 120.496 84.1751C120.544 83.9697 120.151 83.8396 119.842 83.9423Z" fill="#DB5C87"/>
<path d="M117.989 87.487C117.395 88.3971 116.609 88.9334 116.23 88.6867C115.851 88.4401 116.025 87.5029 116.621 86.5938C117.217 85.6847 118.003 85.1484 118.379 85.3963C118.755 85.6441 118.584 86.5801 117.989 87.487Z" fill="white"/>
<path d="M113.998 86.2233C114.273 86.2233 114.495 86.0005 114.495 85.7257C114.495 85.4508 114.273 85.228 113.998 85.228C113.723 85.228 113.5 85.4508 113.5 85.7257C113.5 86.0005 113.723 86.2233 113.998 86.2233Z" fill="white"/>
<path d="M110.225 81.959C109.865 81.7651 109.588 82.0697 109.644 82.4574C109.644 83.5649 110.53 87.2294 111.748 88.4477C109 82.228 111.5 82.728 113.5 83.128C111.914 82.8108 111.214 82.4917 110.225 81.959Z" fill="white"/>
<path d="M112.801 36.9923C112.801 36.9923 113.916 34.5777 115.319 33.2993C115.319 33.2993 116.578 34.5777 117.801 36.8858L115.283 34.4356L112.801 36.9923Z" fill="white"/>
<path d="M97 128.899C97.0143 131.142 106.639 133.234 116 133.174C124.868 133.117 133.5 131.026 133.5 128.899" stroke="black"/>
<path d="M97 116.399C97.0143 118.642 106.639 120.734 116 120.674C124.868 120.617 133.5 118.526 133.5 116.399" stroke="black"/>
<path d="M102.5 110.798C102.528 115.166 128 115.171 128 110.798" stroke="black"/>
<mask id="path-46-inside-5_1233_2887" fill="white">
<path fill-rule="evenodd" clip-rule="evenodd" d="M115.319 122.899H110.197C109.186 122.899 108.369 123.716 108.369 124.726V128.88C108.369 129.891 109.186 130.707 110.197 130.707H115.319H120.442C121.452 130.707 122.269 129.891 122.269 128.88V124.726C122.269 123.716 121.452 122.899 120.442 122.899H115.319Z"/>
</mask>
<path fill-rule="evenodd" clip-rule="evenodd" d="M115.319 122.899H110.197C109.186 122.899 108.369 123.716 108.369 124.726V128.88C108.369 129.891 109.186 130.707 110.197 130.707H115.319H120.442C121.452 130.707 122.269 129.891 122.269 128.88V124.726C122.269 123.716 121.452 122.899 120.442 122.899H115.319Z" fill="#6D6E70" stroke="black" stroke-width="2" mask="url(#path-46-inside-5_1233_2887)"/>
<rect x="102.35" y="123.55" width="1.7" height="4.3" rx="0.65" fill="black" stroke="black" stroke-width="0.3"/>
<rect x="102.301" y="123.7" width="1.4" height="4" rx="0.5" fill="#9E3E63"/>
<path fill-rule="evenodd" clip-rule="evenodd" d="M102.677 124.406H103.059C103.215 124.406 103.345 124.47 103.345 124.547V127.195C103.345 127.271 103.215 127.335 103.059 127.335H102.677C102.521 127.335 102.391 127.271 102.391 127.195V124.55C102.391 124.47 102.521 124.406 102.677 124.406Z" fill="#F39DB1"/>
<path d="M103.026 124.508C103.114 124.508 103.185 124.44 103.185 124.356C103.185 124.272 103.114 124.205 103.026 124.205C102.938 124.205 102.867 124.272 102.867 124.356C102.867 124.44 102.938 124.508 103.026 124.508Z" fill="white"/>
<path d="M102.549 126.958V125.652C102.549 125.538 102.75 125.356 103.069 125.176C103.103 125.154 103.142 125.133 103.185 125.113C103.145 125.134 103.106 125.155 103.069 125.176C102.825 125.334 102.793 125.552 102.812 125.652L102.812 126.958C102.793 127.058 102.921 127.184 103.35 127.255C103 127.255 102.549 127.072 102.549 126.958Z" fill="white"/>
<rect x="126.35" y="123.55" width="1.7" height="4.3" rx="0.65" fill="black" stroke="black" stroke-width="0.3"/>
<rect x="126.699" y="123.7" width="1.4" height="4" rx="0.5" fill="#9E3E63"/>
<path fill-rule="evenodd" clip-rule="evenodd" d="M127.075 124.406H127.457C127.613 124.406 127.743 124.47 127.743 124.547V127.195C127.743 127.271 127.613 127.335 127.457 127.335H127.075C126.919 127.335 126.789 127.271 126.789 127.195V124.55C126.789 124.47 126.919 124.406 127.075 124.406Z" fill="#F39DB1"/>
<path d="M127.425 124.508C127.513 124.508 127.584 124.44 127.584 124.356C127.584 124.272 127.513 124.205 127.425 124.205C127.337 124.205 127.266 124.272 127.266 124.356C127.266 124.44 127.337 124.508 127.425 124.508Z" fill="white"/>
<path d="M126.947 126.958V125.652C126.947 125.538 127.149 125.356 127.467 125.176C127.502 125.154 127.54 125.133 127.584 125.113C127.543 125.134 127.504 125.155 127.467 125.176C127.224 125.334 127.192 125.552 127.21 125.652L127.21 126.958C127.192 127.058 127.319 127.184 127.749 127.255C127.399 127.255 126.947 127.072 126.947 126.958Z" fill="white"/>

    </svg>
