
    <svg width="230" height="230" viewBox="0 0 230 230" fill="none" xmlns="http://www.w3.org/2000/svg">
        
<path d="M88.4268 80.4502H93V83.7695H88.4268V80.4502Z" fill="#404041"/>
<path d="M88.3953 80.4502H93.0293V83.7695H88.3953V80.4502Z" stroke="black" stroke-width="0.618382"/>
<path d="M91.9491 80.9609H92.4023V83.6354H91.9491V80.9609Z" fill="black"/>
<path d="M90.9745 80.9609H91.4277V83.6354H90.9745V80.9609Z" fill="black"/>
<path d="M89.9979 80.9609H90.4512V83.6354H89.9979V80.9609Z" fill="black"/>
<path d="M89.0233 80.9609H89.4766V83.6354H89.0233V80.9609Z" fill="black"/>
<path d="M88.3584 80.7259H89.9347H93.0695L93.6777 80.0234L92.7073 78H89.9347H88.7206L87.7501 80.0234L88.3584 80.7259Z" fill="#6D6E70"/>
<path d="M88.3571 80.7259H89.8859L89.2776 80.0234L90.248 78H88.7192L87.7488 80.0234L88.3571 80.7259Z" fill="white"/>
<path d="M91.0305 80.7259H93.0695L93.6777 80.0234L92.7073 78H90.6692L91.6396 80.0234L91.0305 80.7259Z" fill="#404041"/>
<path d="M88.3584 80.7259H89.9347H93.0695L93.6777 80.0234L92.7073 78H89.9347H88.7206L87.7501 80.0234L88.3584 80.7259Z" stroke="black" stroke-width="0.700936"/>
<path d="M87.9582 79.6504H93.4668V80.0009H87.9582V79.6504Z" fill="black"/>
<path d="M87.728 85.6643H93.6992V84.9634H87.728V85.6643Z" fill="white"/>
<path d="M87.1797 83.4033H94.1797V122.403H87.1797V83.4033Z" fill="#6D6E70"/>
<path d="M87.1797 83.4033H89.1797V121.903H87.1797V83.4033Z" fill="white"/>
<path d="M92.1797 83.4033H94.1797V122.403H92.1797V83.4033Z" fill="#404041"/>
<path d="M87.6244 83.0293H93.8027V122.011H87.6244V83.0293Z" stroke="black"/>
<path d="M87.728 85.197H93.6992V84.4961H87.728V85.197Z" fill="black"/>
<mask id="path-18-outside-1_1233_2887" maskUnits="userSpaceOnUse" x="82.6875" y="112" width="20" height="21" fill="black">
<rect fill="white" x="82.6875" y="112" width="20" height="21"/>
<path d="M87.715 129.078C86.1506 128.635 85.0014 127.25 85.0014 125.478V114L95.8834 116.839C96.6587 116.936 97.1848 117.67 97.1848 118.459V122.128L100.688 123.346C100.688 127.97 96.8387 131.681 92.7683 130.518L87.715 129.078Z"/>
</mask>
<path d="M87.715 129.078C86.1506 128.635 85.0014 127.25 85.0014 125.478V114L95.8834 116.839C96.6587 116.936 97.1848 117.67 97.1848 118.459V122.128L100.688 123.346C100.688 127.97 96.8387 131.681 92.7683 130.518L87.715 129.078Z" fill="#6D6E70"/>
<path d="M87.715 129.078C86.1506 128.635 85.0014 127.25 85.0014 125.478V114L95.8834 116.839C96.6587 116.936 97.1848 117.67 97.1848 118.459V122.128L100.688 123.346C100.688 127.97 96.8387 131.681 92.7683 130.518L87.715 129.078Z" stroke="black" stroke-width="3" mask="url(#path-18-outside-1_1233_2887)"/>
<path d="M92.7683 130.518L87.715 129.078C91.6792 128.5 97.1848 124.756 97.1848 122.128L100.688 123.346C100.688 127.97 96.8387 131.681 92.7683 130.518Z" fill="#404041"/>
<path d="M85.0009 114L95.8828 116.839L86.4786 116.239L85.0009 125.478V114Z" fill="white"/>
<path d="M142.062 80.4502H137.488V83.7695H142.062V80.4502Z" fill="#404041"/>
<path d="M142.093 80.4502H137.459V83.7695H142.093V80.4502Z" stroke="black" stroke-width="0.618382"/>
<path d="M138.539 80.9609H138.086V83.6354H138.539V80.9609Z" fill="black"/>
<path d="M139.514 80.9609H139.061V83.6354H139.514V80.9609Z" fill="black"/>
<path d="M140.49 80.9609H140.037V83.6354H140.49V80.9609Z" fill="black"/>
<path d="M141.465 80.9609H141.012V83.6354H141.465V80.9609Z" fill="black"/>
<path d="M142.13 80.7259H140.554H137.419L136.811 80.0234L137.781 78H140.554H141.768L142.738 80.0234L142.13 80.7259Z" fill="#6D6E70"/>
<path d="M142.131 80.7259H140.602L141.211 80.0234L140.24 78H141.769L142.739 80.0234L142.131 80.7259Z" fill="white"/>
<path d="M139.458 80.7259H137.419L136.811 80.0234L137.781 78H139.819L138.849 80.0234L139.458 80.7259Z" fill="#404041"/>
<path d="M142.13 80.7259H140.554H137.419L136.811 80.0234L137.781 78H140.554H141.768L142.738 80.0234L142.13 80.7259Z" stroke="black" stroke-width="0.700936"/>
<path d="M142.53 79.6504H137.021V80.0009H142.53V79.6504Z" fill="black"/>
<path d="M142.76 85.6643H136.789V84.9634H142.76V85.6643Z" fill="white"/>
<path d="M143.309 83.4033H136.309V122.403H143.309V83.4033Z" fill="#6D6E70"/>
<path d="M143.309 83.4033H141.309V121.903H143.309V83.4033Z" fill="white"/>
<path d="M138.309 83.4033H136.309V122.403H138.309V83.4033Z" fill="#404041"/>
<path d="M142.864 83.0293H136.686V122.011H142.864V83.0293Z" stroke="black"/>
<path d="M142.76 85.197H136.789V84.4961H142.76V85.197Z" fill="black"/>
<mask id="path-38-outside-2_1233_2887" maskUnits="userSpaceOnUse" x="127.801" y="112" width="20" height="21" fill="black">
<rect fill="white" x="127.801" y="112" width="20" height="21"/>
<path d="M142.773 129.078C144.338 128.635 145.487 127.25 145.487 125.478V114L134.605 116.839C133.83 116.936 133.303 117.67 133.303 118.459V122.128L129.801 123.346C129.801 127.97 133.65 131.681 137.72 130.518L142.773 129.078Z"/>
</mask>
<path d="M142.773 129.078C144.338 128.635 145.487 127.25 145.487 125.478V114L134.605 116.839C133.83 116.936 133.303 117.67 133.303 118.459V122.128L129.801 123.346C129.801 127.97 133.65 131.681 137.72 130.518L142.773 129.078Z" fill="#6D6E70"/>
<path d="M142.773 129.078C144.338 128.635 145.487 127.25 145.487 125.478V114L134.605 116.839C133.83 116.936 133.303 117.67 133.303 118.459V122.128L129.801 123.346C129.801 127.97 133.65 131.681 137.72 130.518L142.773 129.078Z" stroke="black" stroke-width="3" mask="url(#path-38-outside-2_1233_2887)"/>
<path d="M137.72 130.518L142.773 129.078C138.809 128.5 133.303 124.756 133.303 122.128L129.801 123.346C129.801 127.97 133.65 131.681 137.72 130.518Z" fill="#404041"/>
<path d="M145.487 114L134.605 116.839L144.01 116.239L145.487 125.478V114Z" fill="white"/>

        
<mask id="path-1-outside-1_1233_2887" maskUnits="userSpaceOnUse" x="83.3574" y="125" width="26" height="31" fill="black">
<rect fill="white" x="83.3574" y="125" width="26" height="31"/>
<path fill-rule="evenodd" clip-rule="evenodd" d="M86.3574 154.274H95.5088L106.28 127H97.1148L86.3574 154.274Z"/>
</mask>
<path fill-rule="evenodd" clip-rule="evenodd" d="M86.3574 154.274H95.5088L106.28 127H97.1148L86.3574 154.274Z" fill="#6D6E70"/>
<path fill-rule="evenodd" clip-rule="evenodd" d="M86.3574 154.274H95.5088L106.28 127H97.1148L86.3574 154.274Z" stroke="black" stroke-width="3" mask="url(#path-1-outside-1_1233_2887)"/>
<path d="M86.3574 154.274L97.1148 127H97.6748L89.1748 154.274H86.3574Z" fill="white"/>
<mask id="path-3-outside-2_1233_2887" maskUnits="userSpaceOnUse" x="43" y="147.847" width="60" height="36" fill="black">
<rect fill="white" x="43" y="147.847" width="60" height="36"/>
<path fill-rule="evenodd" clip-rule="evenodd" d="M98.375 149.941L82.7858 154.939C82.329 155.091 81.9828 155.368 81.7475 155.797L73.5929 170.486C73.2053 171.192 72.43 171.552 71.627 171.4L47.3157 166.541C44.8929 166.056 44.0899 170.209 46.2773 170.902L82.5089 182.213C83.3535 182.476 84.2395 182.116 84.6549 181.354L100.549 152.599C101.338 151.118 99.9533 149.429 98.375 149.941Z"/>
</mask>
<path fill-rule="evenodd" clip-rule="evenodd" d="M98.375 149.941L82.7858 154.939C82.329 155.091 81.9828 155.368 81.7475 155.797L73.5929 170.486C73.2053 171.192 72.43 171.552 71.627 171.4L47.3157 166.541C44.8929 166.056 44.0899 170.209 46.2773 170.902L82.5089 182.213C83.3535 182.476 84.2395 182.116 84.6549 181.354L100.549 152.599C101.338 151.118 99.9533 149.429 98.375 149.941Z" fill="#6D6E70"/>
<path fill-rule="evenodd" clip-rule="evenodd" d="M98.375 149.941L82.7858 154.939C82.329 155.091 81.9828 155.368 81.7475 155.797L73.5929 170.486C73.2053 171.192 72.43 171.552 71.627 171.4L47.3157 166.541C44.8929 166.056 44.0899 170.209 46.2773 170.902L82.5089 182.213C83.3535 182.476 84.2395 182.116 84.6549 181.354L100.549 152.599C101.338 151.118 99.9533 149.429 98.375 149.941Z" stroke="black" stroke-width="3" mask="url(#path-3-outside-2_1233_2887)"/>
<path d="M82.7858 154.939L98.3749 149.941C93.8016 151.893 84.681 155.739 83.1858 156.706C81.6906 157.674 76.767 165.076 74.6921 168.506L81.7474 155.797C81.9828 155.368 82.3289 155.091 82.7858 154.939Z" fill="white"/>
<path d="M47.3157 166.541L70.4656 171.168C68.1753 171.007 52.6748 168.507 47.1748 167.626C45.5561 167.842 45.3867 169.079 46.2773 170.902C44.0899 170.21 44.8929 166.056 47.3157 166.541Z" fill="white"/>
<path d="M100.549 152.599L84.6557 181.354L94.1756 151.287L98.3758 149.941C99.9541 149.429 101.339 151.118 100.549 152.599Z" fill="#404041"/>
<path d="M75.6758 165.392L81.5095 167.213C82.354 167.476 83.24 167.116 83.6554 166.354L91.8622 151.506" stroke="black"/>
<mask id="path-8-inside-3_1233_2887" fill="white">
<path fill-rule="evenodd" clip-rule="evenodd" d="M89.0272 162.172L90.5834 159.286C90.8239 158.867 91.3282 158.983 91.5427 159.37L92.7549 161.557C92.9041 161.826 92.943 162.233 92.7998 162.511L91.2473 165.383C91.0162 165.819 90.4997 165.721 90.2759 165.317L89.0636 163.13C88.9144 162.861 88.8756 162.454 89.0272 162.172Z"/>
</mask>
<path fill-rule="evenodd" clip-rule="evenodd" d="M89.0272 162.172L90.5834 159.286C90.8239 158.867 91.3282 158.983 91.5427 159.37L92.7549 161.557C92.9041 161.826 92.943 162.233 92.7998 162.511L91.2473 165.383C91.0162 165.819 90.4997 165.721 90.2759 165.317L89.0636 163.13C88.9144 162.861 88.8756 162.454 89.0272 162.172Z" fill="#9E3E63" stroke="black" stroke-width="0.691728" mask="url(#path-8-inside-3_1233_2887)"/>
<path fill-rule="evenodd" clip-rule="evenodd" d="M89.3253 162.394L90.2643 160.653C90.4094 160.4 90.7137 160.47 90.8431 160.704L91.5745 162.023C91.6645 162.185 91.688 162.431 91.6016 162.599L90.6649 164.332C90.5254 164.595 90.2138 164.536 90.0787 164.292L89.3473 162.972C89.2573 162.81 89.2338 162.564 89.3253 162.394Z" fill="#F39DB1"/>
<path d="M89.5941 162.358C89.4921 162.548 89.5183 162.822 89.6187 163.003L90.0266 163.739L89.8226 162.571L90.1177 161.387L89.5941 162.358Z" fill="white"/>
<mask id="path-11-inside-4_1233_2887" fill="white">
<path fill-rule="evenodd" clip-rule="evenodd" d="M86.4295 166.871L87.9857 163.985C88.2262 163.566 88.7305 163.682 88.945 164.069L90.1573 166.256C90.3065 166.525 90.3453 166.932 90.2021 167.21L88.6497 170.083C88.4185 170.519 87.902 170.42 87.6782 170.016L86.466 167.829C86.3168 167.56 86.2779 167.153 86.4295 166.871Z"/>
</mask>
<path fill-rule="evenodd" clip-rule="evenodd" d="M86.4295 166.871L87.9857 163.985C88.2262 163.566 88.7305 163.682 88.945 164.069L90.1573 166.256C90.3065 166.525 90.3453 166.932 90.2021 167.21L88.6497 170.083C88.4185 170.519 87.902 170.42 87.6782 170.016L86.466 167.829C86.3168 167.56 86.2779 167.153 86.4295 166.871Z" fill="#9E3E63" stroke="black" stroke-width="0.691728" mask="url(#path-11-inside-4_1233_2887)"/>
<path fill-rule="evenodd" clip-rule="evenodd" d="M86.7276 167.093L87.6666 165.352C87.8117 165.099 88.116 165.169 88.2454 165.403L88.9769 166.722C89.0669 166.885 89.0903 167.13 89.0039 167.298L88.0672 169.031C87.9277 169.294 87.6161 169.235 87.4811 168.991L86.7496 167.672C86.6596 167.509 86.6362 167.263 86.7276 167.093Z" fill="#F39DB1"/>
<path d="M86.9965 167.057C86.8945 167.247 86.9206 167.521 87.021 167.702L87.4289 168.438L87.225 167.27L87.5201 166.086L86.9965 167.057Z" fill="white"/>
<mask id="path-14-inside-5_1233_2887" fill="white">
<path fill-rule="evenodd" clip-rule="evenodd" d="M91.6248 157.473L93.181 154.587C93.4215 154.168 93.9258 154.284 94.1403 154.671L95.3526 156.858C95.5018 157.127 95.5406 157.535 95.3975 157.812L93.845 160.685C93.6138 161.121 93.0974 161.022 92.8736 160.618L91.6613 158.431C91.5121 158.162 91.4732 157.755 91.6248 157.473Z"/>
</mask>
<path fill-rule="evenodd" clip-rule="evenodd" d="M91.6248 157.473L93.181 154.587C93.4215 154.168 93.9258 154.284 94.1403 154.671L95.3526 156.858C95.5018 157.127 95.5406 157.535 95.3975 157.812L93.845 160.685C93.6138 161.121 93.0974 161.022 92.8736 160.618L91.6613 158.431C91.5121 158.162 91.4732 157.755 91.6248 157.473Z" fill="#9E3E63" stroke="black" stroke-width="0.691728" mask="url(#path-14-inside-5_1233_2887)"/>
<path fill-rule="evenodd" clip-rule="evenodd" d="M91.9229 157.695L92.8619 155.954C93.007 155.701 93.3113 155.771 93.4407 156.005L94.1722 157.324C94.2622 157.487 94.2856 157.733 94.1992 157.9L93.2625 159.633C93.1231 159.896 92.8114 159.837 92.6764 159.593L91.9449 158.274C91.8549 158.111 91.8315 157.865 91.9229 157.695Z" fill="#F39DB1"/>
<path d="M92.1918 157.659C92.0898 157.849 92.1159 158.123 92.2163 158.304L92.6242 159.04L92.4203 157.872L92.7154 156.688L92.1918 157.659Z" fill="white"/>
<path d="M71.5801 171.361L83.3714 173.681L72.6455 170.577L71.5801 171.361Z" fill="black"/>
<mask id="path-18-outside-6_1233_2887" maskUnits="userSpaceOnUse" x="120.623" y="125" width="26" height="31" fill="black">
<rect fill="white" x="120.623" y="125" width="26" height="31"/>
<path fill-rule="evenodd" clip-rule="evenodd" d="M143.623 154.274H134.472L123.7 127H132.866L143.623 154.274Z"/>
</mask>
<path fill-rule="evenodd" clip-rule="evenodd" d="M143.623 154.274H134.472L123.7 127H132.866L143.623 154.274Z" fill="#6D6E70"/>
<path fill-rule="evenodd" clip-rule="evenodd" d="M143.623 154.274H134.472L123.7 127H132.866L143.623 154.274Z" stroke="black" stroke-width="3" mask="url(#path-18-outside-6_1233_2887)"/>
<path d="M143.623 154.274L132.866 127H132.306L140.806 154.274H143.623Z" fill="white"/>
<mask id="path-20-outside-7_1233_2887" maskUnits="userSpaceOnUse" x="126.98" y="147.847" width="60" height="36" fill="black">
<rect fill="white" x="126.98" y="147.847" width="60" height="36"/>
<path fill-rule="evenodd" clip-rule="evenodd" d="M131.605 149.941L147.195 154.939C147.652 155.091 147.998 155.368 148.233 155.797L156.388 170.486C156.775 171.192 157.55 171.552 158.353 171.4L182.665 166.541C185.088 166.056 185.891 170.209 183.703 170.902L147.472 182.213C146.627 182.476 145.741 182.116 145.326 181.354L129.432 152.599C128.643 151.118 130.027 149.429 131.605 149.941Z"/>
</mask>
<path fill-rule="evenodd" clip-rule="evenodd" d="M131.605 149.941L147.195 154.939C147.652 155.091 147.998 155.368 148.233 155.797L156.388 170.486C156.775 171.192 157.55 171.552 158.353 171.4L182.665 166.541C185.088 166.056 185.891 170.209 183.703 170.902L147.472 182.213C146.627 182.476 145.741 182.116 145.326 181.354L129.432 152.599C128.643 151.118 130.027 149.429 131.605 149.941Z" fill="#6D6E70"/>
<path fill-rule="evenodd" clip-rule="evenodd" d="M131.605 149.941L147.195 154.939C147.652 155.091 147.998 155.368 148.233 155.797L156.388 170.486C156.775 171.192 157.55 171.552 158.353 171.4L182.665 166.541C185.088 166.056 185.891 170.209 183.703 170.902L147.472 182.213C146.627 182.476 145.741 182.116 145.326 181.354L129.432 152.599C128.643 151.118 130.027 149.429 131.605 149.941Z" stroke="black" stroke-width="3" mask="url(#path-20-outside-7_1233_2887)"/>
<path d="M147.195 154.939L131.606 149.941C136.179 151.893 145.299 155.739 146.795 156.706C148.29 157.674 153.213 165.076 155.288 168.506L148.233 155.797C147.998 155.368 147.652 155.091 147.195 154.939Z" fill="white"/>
<path d="M182.665 166.541L159.515 171.168C161.805 171.007 177.306 168.507 182.806 167.626C184.424 167.842 184.594 169.079 183.703 170.902C185.891 170.21 185.088 166.056 182.665 166.541Z" fill="white"/>
<path d="M129.431 152.599L145.325 181.354L135.805 151.287L131.605 149.941C130.026 149.429 128.642 151.118 129.431 152.599Z" fill="#404041"/>
<path d="M154.305 165.392L148.471 167.213C147.626 167.476 146.74 167.116 146.325 166.354L138.118 151.506" stroke="black"/>
<mask id="path-25-inside-8_1233_2887" fill="white">
<path fill-rule="evenodd" clip-rule="evenodd" d="M140.953 162.172L139.397 159.286C139.157 158.867 138.652 158.983 138.438 159.37L137.226 161.557C137.076 161.826 137.037 162.233 137.181 162.511L138.733 165.383C138.964 165.819 139.481 165.721 139.705 165.317L140.917 163.13C141.066 162.861 141.105 162.454 140.953 162.172Z"/>
</mask>
<path fill-rule="evenodd" clip-rule="evenodd" d="M140.953 162.172L139.397 159.286C139.157 158.867 138.652 158.983 138.438 159.37L137.226 161.557C137.076 161.826 137.037 162.233 137.181 162.511L138.733 165.383C138.964 165.819 139.481 165.721 139.705 165.317L140.917 163.13C141.066 162.861 141.105 162.454 140.953 162.172Z" fill="#9E3E63" stroke="black" stroke-width="0.691728" mask="url(#path-25-inside-8_1233_2887)"/>
<path fill-rule="evenodd" clip-rule="evenodd" d="M140.655 162.394L139.716 160.653C139.571 160.4 139.267 160.47 139.137 160.704L138.406 162.023C138.316 162.185 138.292 162.431 138.379 162.599L139.316 164.332C139.455 164.595 139.767 164.536 139.902 164.292L140.633 162.972C140.723 162.81 140.747 162.564 140.655 162.394Z" fill="#F39DB1"/>
<path d="M140.386 162.358C140.488 162.548 140.462 162.822 140.362 163.003L139.954 163.739L140.158 162.571L139.863 161.387L140.386 162.358Z" fill="white"/>
<mask id="path-28-inside-9_1233_2887" fill="white">
<path fill-rule="evenodd" clip-rule="evenodd" d="M143.551 166.871L141.995 163.985C141.754 163.566 141.25 163.682 141.035 164.069L139.823 166.256C139.674 166.525 139.635 166.932 139.778 167.21L141.331 170.083C141.562 170.519 142.078 170.42 142.302 170.016L143.515 167.829C143.664 167.56 143.703 167.153 143.551 166.871Z"/>
</mask>
<path fill-rule="evenodd" clip-rule="evenodd" d="M143.551 166.871L141.995 163.985C141.754 163.566 141.25 163.682 141.035 164.069L139.823 166.256C139.674 166.525 139.635 166.932 139.778 167.21L141.331 170.083C141.562 170.519 142.078 170.42 142.302 170.016L143.515 167.829C143.664 167.56 143.703 167.153 143.551 166.871Z" fill="#9E3E63" stroke="black" stroke-width="0.691728" mask="url(#path-28-inside-9_1233_2887)"/>
<path fill-rule="evenodd" clip-rule="evenodd" d="M143.253 167.093L142.314 165.352C142.169 165.099 141.864 165.169 141.735 165.403L141.004 166.722C140.914 166.885 140.89 167.13 140.977 167.298L141.913 169.031C142.053 169.294 142.364 169.235 142.499 168.991L143.231 167.672C143.321 167.509 143.344 167.263 143.253 167.093Z" fill="#F39DB1"/>
<path d="M142.984 167.057C143.086 167.247 143.06 167.521 142.959 167.702L142.552 168.438L142.755 167.27L142.46 166.086L142.984 167.057Z" fill="white"/>
<mask id="path-31-inside-10_1233_2887" fill="white">
<path fill-rule="evenodd" clip-rule="evenodd" d="M138.356 157.473L136.799 154.587C136.559 154.168 136.055 154.284 135.84 154.671L134.628 156.858C134.479 157.127 134.44 157.535 134.583 157.812L136.135 160.685C136.367 161.121 136.883 161.022 137.107 160.618L138.319 158.431C138.468 158.162 138.507 157.755 138.356 157.473Z"/>
</mask>
<path fill-rule="evenodd" clip-rule="evenodd" d="M138.356 157.473L136.799 154.587C136.559 154.168 136.055 154.284 135.84 154.671L134.628 156.858C134.479 157.127 134.44 157.535 134.583 157.812L136.135 160.685C136.367 161.121 136.883 161.022 137.107 160.618L138.319 158.431C138.468 158.162 138.507 157.755 138.356 157.473Z" fill="#9E3E63" stroke="black" stroke-width="0.691728" mask="url(#path-31-inside-10_1233_2887)"/>
<path fill-rule="evenodd" clip-rule="evenodd" d="M138.058 157.695L137.119 155.954C136.973 155.701 136.669 155.771 136.54 156.005L135.808 157.324C135.718 157.487 135.695 157.733 135.781 157.9L136.718 159.633C136.857 159.896 137.169 159.837 137.304 159.593L138.036 158.274C138.126 158.111 138.149 157.865 138.058 157.695Z" fill="#F39DB1"/>
<path d="M137.789 157.659C137.891 157.849 137.865 158.123 137.764 158.304L137.356 159.04L137.56 157.872L137.265 156.688L137.789 157.659Z" fill="white"/>
<path d="M158.4 171.361L146.609 173.681L157.335 170.577L158.4 171.361Z" fill="black"/>

        
<mask id="path-1-outside-1_1233_2887" maskUnits="userSpaceOnUse" x="101.699" y="181.1" width="27" height="16" fill="black">
<rect fill="white" x="101.699" y="181.1" width="27" height="16"/>
<path fill-rule="evenodd" clip-rule="evenodd" d="M126.792 183.1C126.792 188.111 124.342 192.473 120.742 194.702H109.749C106.15 192.473 103.699 188.111 103.699 183.1C111.397 183.1 119.095 183.1 126.792 183.1Z"/>
</mask>
<path fill-rule="evenodd" clip-rule="evenodd" d="M126.792 183.1C126.792 188.111 124.342 192.473 120.742 194.702H109.749C106.15 192.473 103.699 188.111 103.699 183.1C111.397 183.1 119.095 183.1 126.792 183.1Z" fill="#6D6E70"/>
<path fill-rule="evenodd" clip-rule="evenodd" d="M126.792 183.1C126.792 188.111 124.342 192.473 120.742 194.702H109.749C106.15 192.473 103.699 188.111 103.699 183.1C111.397 183.1 119.095 183.1 126.792 183.1Z" stroke="black" stroke-width="3" mask="url(#path-1-outside-1_1233_2887)"/>
<path d="M103.699 183.1C103.699 188.111 106.15 192.473 109.749 194.702H111.749C109.15 192.473 107.699 188.111 107.699 183.1H103.699Z" fill="#BBBDBF"/>
<path d="M126.85 183.1C126.85 188.111 124.399 192.473 120.799 194.702H118.799C121.399 192.473 122.85 188.111 122.85 183.1H126.85Z" fill="#404041"/>
<mask id="path-4-outside-2_1233_2887" maskUnits="userSpaceOnUse" x="96.6992" y="134" width="36" height="54" fill="black">
<rect fill="white" x="96.6992" y="134" width="36" height="54"/>
<path fill-rule="evenodd" clip-rule="evenodd" d="M98.6992 180.635C98.6992 184.54 106.646 185.578 114.898 185.578C123.149 185.578 131.096 184.54 131.096 180.635C131.096 161.862 128.355 153.417 128.355 137.564C128.355 136.706 127.538 136 126.527 136C121.834 136 119.605 136 114.911 136C110.218 136 107.989 136 103.296 136C102.285 136 101.468 136.706 101.468 137.564C101.44 153.43 98.6992 161.876 98.6992 180.635Z"/>
</mask>
<path fill-rule="evenodd" clip-rule="evenodd" d="M98.6992 180.635C98.6992 184.54 106.646 185.578 114.898 185.578C123.149 185.578 131.096 184.54 131.096 180.635C131.096 161.862 128.355 153.417 128.355 137.564C128.355 136.706 127.538 136 126.527 136C121.834 136 119.605 136 114.911 136C110.218 136 107.989 136 103.296 136C102.285 136 101.468 136.706 101.468 137.564C101.44 153.43 98.6992 161.876 98.6992 180.635Z" fill="#6D6E70"/>
<path fill-rule="evenodd" clip-rule="evenodd" d="M98.6992 180.635C98.6992 184.54 106.646 185.578 114.898 185.578C123.149 185.578 131.096 184.54 131.096 180.635C131.096 161.862 128.355 153.417 128.355 137.564C128.355 136.706 127.538 136 126.527 136C121.834 136 119.605 136 114.911 136C110.218 136 107.989 136 103.296 136C102.285 136 101.468 136.706 101.468 137.564C101.44 153.43 98.6992 161.876 98.6992 180.635Z" stroke="black" stroke-width="3" mask="url(#path-4-outside-2_1233_2887)"/>
<path d="M114.463 185.577C106.369 185.541 98.6992 184.471 98.6992 180.635C98.6992 161.876 101.44 153.43 101.468 137.564C101.468 136.706 102.285 136 103.296 136H104.319C103.308 136 102.468 136.706 102.468 137.564C102.44 153.43 100.699 161.876 100.699 180.635C100.699 184.471 106.438 185.54 114.463 185.577Z" fill="#BBBDBF"/>
<path d="M128.356 137.564C128.356 153.417 131.097 161.862 131.097 180.635C131.097 184.537 123.159 185.577 114.912 185.578V136H126.528C127.539 136 128.356 136.706 128.356 137.564Z" fill="#404041"/>
<path fill-rule="evenodd" clip-rule="evenodd" d="M106.714 169.607L108.791 141.571C108.86 140.546 109.719 139.757 110.743 139.757H119.452C120.476 139.757 121.321 140.546 121.404 141.571L123.48 169.607C123.785 173.829 119.438 175.934 115.09 175.934C110.743 175.934 106.41 173.815 106.714 169.607Z" fill="#404041"/>
<mask id="path-8-inside-3_1233_2887" fill="white">
<path fill-rule="evenodd" clip-rule="evenodd" d="M106.714 167.907L108.791 139.871C108.86 138.847 109.719 138.058 110.743 138.058H119.452C120.476 138.058 121.321 138.847 121.404 139.871L123.48 167.907C123.785 172.129 119.438 174.234 115.09 174.234C110.743 174.234 106.41 172.116 106.714 167.907Z"/>
</mask>
<path fill-rule="evenodd" clip-rule="evenodd" d="M106.714 167.907L108.791 139.871C108.86 138.847 109.719 138.058 110.743 138.058H119.452C120.476 138.058 121.321 138.847 121.404 139.871L123.48 167.907C123.785 172.129 119.438 174.234 115.09 174.234C110.743 174.234 106.41 172.116 106.714 167.907Z" fill="#6D6E70" stroke="black" stroke-width="2" mask="url(#path-8-inside-3_1233_2887)"/>
<path d="M121.405 139.871C121.322 138.847 120.477 138.058 119.453 138.058H115.092V174.234C119.439 174.234 123.786 172.129 123.482 167.907L121.405 139.871Z" fill="#404041"/>
<mask id="path-10-inside-4_1233_2887" fill="white">
<path fill-rule="evenodd" clip-rule="evenodd" d="M106.714 167.907L108.791 139.871C108.86 138.847 109.719 138.058 110.743 138.058H119.452C120.476 138.058 121.321 138.847 121.404 139.871L123.48 167.907C123.785 172.129 119.438 174.234 115.09 174.234C110.743 174.234 106.41 172.116 106.714 167.907Z"/>
</mask>
<path fill-rule="evenodd" clip-rule="evenodd" d="M106.714 167.907L108.791 139.871C108.86 138.847 109.719 138.058 110.743 138.058H119.452C120.476 138.058 121.321 138.847 121.404 139.871L123.48 167.907C123.785 172.129 119.438 174.234 115.09 174.234C110.743 174.234 106.41 172.116 106.714 167.907Z" stroke="black" stroke-width="2" mask="url(#path-10-inside-4_1233_2887)"/>
<path d="M115.334 185.577C123.428 185.541 131.098 184.471 131.098 180.635C131.098 161.876 128.356 153.43 128.329 137.564C128.329 136.706 127.512 136 126.501 136H125.478C126.489 136 127.329 136.706 127.329 137.564C127.356 153.43 129.098 161.876 129.098 180.635C129.098 184.471 123.359 185.54 115.334 185.577Z" fill="#231F20"/>
<rect x="0.255127" y="-0.298716" width="2.77778" height="20.5556" rx="0.833333" transform="matrix(-0.996917 0.0784593 0.0784589 0.996917 126.162 142.349)" fill="black" stroke="black" stroke-width="0.555556"/>
<rect width="2.22222" height="20" rx="0.555556" transform="matrix(-0.996917 0.0784593 0.0784589 0.996917 125.961 142.344)" fill="#9E3E63"/>
<path fill-rule="evenodd" clip-rule="evenodd" d="M125.756 145.905L125.152 145.953C124.905 145.972 124.724 146.308 124.754 146.689L125.793 159.887C125.823 160.268 126.054 160.571 126.301 160.552L126.905 160.504C127.152 160.485 127.333 160.149 127.303 159.768L126.265 146.585C126.234 146.189 126.003 145.886 125.756 145.905Z" fill="#F39DB1"/>
<path d="M125.242 146.452C125.103 146.463 124.964 146.134 124.931 145.717C124.898 145.3 124.984 144.953 125.123 144.942C125.262 144.931 125.402 145.26 125.434 145.677C125.467 146.095 125.381 146.441 125.242 146.452Z" fill="white"/>
<path d="M126.958 158.607L126.446 152.098C126.401 151.531 126.011 150.65 125.436 149.792C125.373 149.685 125.304 149.584 125.228 149.493C125.299 149.592 125.369 149.692 125.436 149.792C125.884 150.55 126.02 151.63 126.029 152.131L126.542 158.64C126.611 159.136 126.458 159.783 125.806 160.189C126.36 160.145 127.003 159.175 126.958 158.607Z" fill="white"/>
<rect x="104.36" y="142.071" width="2.77778" height="20.5556" rx="0.833333" transform="rotate(4.49999 104.36 142.071)" fill="black" stroke="black" stroke-width="0.555556"/>
<rect x="104.283" y="142.344" width="2.22222" height="20" rx="0.555556" transform="rotate(4.49999 104.283 142.344)" fill="#9E3E63"/>
<path fill-rule="evenodd" clip-rule="evenodd" d="M104.488 145.905L105.092 145.953C105.339 145.972 105.52 146.308 105.49 146.689L104.452 159.887C104.422 160.268 104.19 160.571 103.943 160.552L103.339 160.504C103.092 160.485 102.911 160.149 102.941 159.768L103.979 146.585C104.01 146.189 104.241 145.886 104.488 145.905Z" fill="#F39DB1"/>
<path d="M105.002 146.452C105.141 146.463 105.28 146.134 105.313 145.717C105.346 145.3 105.26 144.953 105.121 144.942C104.982 144.931 104.843 145.26 104.81 145.677C104.777 146.095 104.863 146.441 105.002 146.452Z" fill="white"/>
<path d="M103.286 158.607L103.799 152.098C103.843 151.531 104.234 150.65 104.808 149.792C104.871 149.685 104.94 149.584 105.017 149.493C104.945 149.592 104.875 149.692 104.808 149.792C104.36 150.55 104.224 151.63 104.215 152.131L103.702 158.64C103.634 159.136 103.786 159.783 104.438 160.189C103.884 160.145 103.242 159.175 103.286 158.607Z" fill="white"/>
<path fill-rule="evenodd" clip-rule="evenodd" d="M119.974 168.661C119.974 168.232 119.974 167.789 119.974 167.359C119.974 166.82 119.337 166.21 118.603 166.376C116.263 166.916 113.91 166.916 111.57 166.376C110.836 166.21 110.199 166.82 110.199 167.359C110.199 167.789 110.199 168.232 110.199 168.661C110.199 169.201 110.822 169.505 111.57 169.644C113.91 170.073 116.263 170.073 118.603 169.644C119.351 169.505 119.974 169.201 119.974 168.661Z" fill="black"/>
<path fill-rule="evenodd" clip-rule="evenodd" d="M119.517 168.979C119.517 168.55 119.517 168.107 119.517 167.678C119.517 167.318 119.102 166.958 118.603 167.027C116.263 167.332 113.91 167.332 111.57 167.027C111.072 166.958 110.656 167.318 110.656 167.678C110.656 168.107 110.656 168.55 110.656 168.979C110.656 169.339 111.072 169.547 111.57 169.63C113.91 170.059 116.263 170.059 118.603 169.63C119.102 169.547 119.517 169.339 119.517 168.979Z" fill="#9E3E63"/>
<path fill-rule="evenodd" clip-rule="evenodd" d="M118.603 168.854C118.603 168.508 118.603 168.162 118.603 167.816C118.603 167.525 118.271 167.221 117.883 167.29C116.028 167.664 114.159 167.664 112.304 167.29C111.916 167.207 111.584 167.525 111.584 167.816C111.584 168.162 111.584 168.508 111.584 168.854C111.584 169.145 111.916 169.325 112.304 169.38C114.104 169.63 115.959 169.643 117.883 169.38C118.271 169.311 118.603 169.131 118.603 168.854Z" fill="#F39DB1"/>
<path d="M112.201 169.387C111.87 169.347 111.586 169.22 111.586 169.015V168.522C112.023 169.015 113.809 169.133 114.664 169.133C115.519 169.133 117.299 168.78 117.586 168.651V169.015C117.586 169.21 117.302 169.338 116.971 169.387C115.326 169.573 113.74 169.563 112.201 169.387Z" fill="white"/>
<path d="M117.185 167.688C117.185 167.597 117.407 167.522 117.681 167.522C117.955 167.522 118.178 167.597 118.178 167.688C118.178 167.779 117.955 167.854 117.681 167.854C117.407 167.854 117.185 167.779 117.185 167.688Z" fill="white"/>
<path d="M114.898 185.578C106.646 185.578 98.6992 184.539 98.6992 180.635V177.135C98.6992 181.039 106.646 182.078 114.898 182.078C123.149 182.078 131.096 181.039 131.096 177.135V180.635C131.096 184.539 123.149 185.578 114.898 185.578Z" fill="#404041"/>
<path d="M98 177.135C98 181.039 106.647 182.778 114.898 182.778C123.15 182.778 131.797 181.039 131.797 177.135" stroke="black" stroke-width="1.5"/>
<path d="M114.9 183.35V185.85" stroke="black"/>
<path d="M118.9 183.25V185.75" stroke="black"/>
<path d="M122.9 182.75V185.25" stroke="black"/>
<path d="M126.9 181.949V184.449" stroke="black"/>
<path d="M130.9 179.85V182.35" stroke="black"/>
<path d="M110.9 183.35V185.85" stroke="black"/>
<path d="M106.9 182.849V185.349" stroke="black"/>
<path d="M102.9 181.95V184.45" stroke="black"/>
<path d="M98.9004 180.05V182.55" stroke="black"/>

        
<mask id="path-1-outside-1_1233_2887" maskUnits="userSpaceOnUse" x="97.1992" y="19.8989" width="17" height="32" fill="black">
<rect fill="white" x="97.1992" y="19.8989" width="17" height="32"/>
<path d="M99.244 42.9306L105.154 50.2787C105.2 50.3352 105.288 50.3261 105.321 50.2615L112.421 36.3602C112.428 36.3462 112.432 36.3306 112.432 36.3148V22.2449C112.432 22.1446 112.301 22.1067 112.247 22.1915L99.2373 42.8146C99.2145 42.8507 99.2172 42.8973 99.244 42.9306Z"/>
</mask>
<path d="M99.244 42.9306L105.154 50.2787C105.2 50.3352 105.288 50.3261 105.321 50.2615L112.421 36.3602C112.428 36.3462 112.432 36.3306 112.432 36.3148V22.2449C112.432 22.1446 112.301 22.1067 112.247 22.1915L99.2373 42.8146C99.2145 42.8507 99.2172 42.8973 99.244 42.9306Z" fill="#6D6E70"/>
<path d="M99.244 42.9306L105.154 50.2787C105.2 50.3352 105.288 50.3261 105.321 50.2615L112.421 36.3602C112.428 36.3462 112.432 36.3306 112.432 36.3148V22.2449C112.432 22.1446 112.301 22.1067 112.247 22.1915L99.2373 42.8146C99.2145 42.8507 99.2172 42.8973 99.244 42.9306Z" stroke="black" stroke-width="3" mask="url(#path-1-outside-1_1233_2887)"/>
<path d="M99.244 42.9306L105.251 50.399L100.729 42.9248C100.711 42.894 100.71 42.8556 100.728 42.8242L112.432 21.8989L99.2373 42.8146C99.2145 42.8507 99.2172 42.8973 99.244 42.9306Z" fill="white"/>
<path d="M105.321 50.2605L112.42 36.3601C112.427 36.3461 112.431 36.3305 112.431 36.3147V30.5908C112.431 30.4956 112.309 30.4563 112.25 30.5316C108.115 35.8647 106.166 38.5269 103.413 48.0188C103.404 48.0499 103.41 48.0845 103.431 48.1099L105.154 50.2773C105.199 50.3342 105.288 50.3253 105.321 50.2605Z" fill="#404041"/>
<mask id="path-4-outside-2_1233_2887" maskUnits="userSpaceOnUse" x="116.732" y="19.8989" width="17" height="32" fill="black">
<rect fill="white" x="116.732" y="19.8989" width="17" height="32"/>
<path d="M131.688 42.9306L125.777 50.2787C125.732 50.3352 125.643 50.3261 125.61 50.2615L118.511 36.3602C118.504 36.3462 118.5 36.3306 118.5 36.3148V22.2449C118.5 22.1446 118.631 22.1067 118.685 22.1915L131.694 42.8146C131.717 42.8507 131.714 42.8973 131.688 42.9306Z"/>
</mask>
<path d="M131.688 42.9306L125.777 50.2787C125.732 50.3352 125.643 50.3261 125.61 50.2615L118.511 36.3602C118.504 36.3462 118.5 36.3306 118.5 36.3148V22.2449C118.5 22.1446 118.631 22.1067 118.685 22.1915L131.694 42.8146C131.717 42.8507 131.714 42.8973 131.688 42.9306Z" fill="#6D6E70"/>
<path d="M131.688 42.9306L125.777 50.2787C125.732 50.3352 125.643 50.3261 125.61 50.2615L118.511 36.3602C118.504 36.3462 118.5 36.3306 118.5 36.3148V22.2449C118.5 22.1446 118.631 22.1067 118.685 22.1915L131.694 42.8146C131.717 42.8507 131.714 42.8973 131.688 42.9306Z" stroke="black" stroke-width="3" mask="url(#path-4-outside-2_1233_2887)"/>
<path d="M131.688 42.9306L125.681 50.399L130.202 42.9248C130.221 42.894 130.222 42.8556 130.204 42.8242L118.5 21.8989L131.694 42.8146C131.717 42.8507 131.714 42.8973 131.688 42.9306Z" fill="white"/>
<path d="M125.611 50.2605L118.512 36.3601C118.505 36.3461 118.501 36.3305 118.501 36.3147V30.5908C118.501 30.4956 118.623 30.4563 118.681 30.5316C122.817 35.8647 124.766 38.5269 127.519 48.0188C127.528 48.0499 127.521 48.0845 127.501 48.1099L125.778 50.2773C125.733 50.3342 125.644 50.3253 125.611 50.2605Z" fill="#404041"/>
<path d="M97.5 117.183C99.1614 115.467 100.823 113.764 102.484 112.047C102.83 111.687 102.996 111.272 102.996 110.773L102.996 89.5939C103.009 67.0756 104.807 44.9768 112.209 34.3539C113.772 32.1094 116.927 31.9829 118.521 34.2062C125.652 44.1524 127.572 67.2969 127.585 89.5939V110.789C127.588 111.28 127.754 111.691 128.097 112.047C129.758 113.764 131.42 115.467 133.081 117.183V129.353C131.433 131.471 129.786 133.603 128.138 135.721C128.138 140.094 102.459 140.074 102.431 135.706C100.787 133.593 99.1436 131.466 97.5 129.353V117.183Z" fill="#6D6E70"/>
<path fill-rule="evenodd" clip-rule="evenodd" d="M102.425 135.699C101.607 134.647 100.789 133.591 99.9709 132.536C99.1473 131.474 98.3236 130.411 97.5 129.352V117.183C98.3307 116.324 99.1614 115.47 99.992 114.615C100.823 113.76 101.653 112.905 102.484 112.046C102.83 111.686 102.996 111.271 102.996 110.773L102.996 89.5934C103.009 67.0751 104.807 44.9764 112.209 34.3535C113.772 32.1089 116.927 31.9825 118.521 34.2057C125.652 44.152 127.572 67.2964 127.585 89.5934V110.789C127.588 111.28 127.754 111.69 128.097 112.046C128.928 112.905 129.758 113.76 130.589 114.615C131.42 115.47 132.25 116.325 133.081 117.183V129.352C132.257 130.412 131.433 131.474 130.609 132.537C129.786 133.599 128.962 134.662 128.138 135.721C128.138 140.086 102.552 140.074 102.431 135.73C102.431 135.722 102.431 135.714 102.431 135.706C102.429 135.704 102.427 135.701 102.425 135.699ZM129.57 136.324C129.329 137.353 128.498 138.038 127.79 138.451C126.895 138.972 125.721 139.354 124.456 139.64C121.902 140.218 118.571 140.493 115.294 140.491C112.017 140.489 108.684 140.209 106.127 139.629C104.861 139.341 103.686 138.958 102.789 138.437C102.08 138.024 101.247 137.341 101.002 136.312C100.264 135.363 99.5265 134.411 98.7896 133.461L98.78 133.448C97.958 132.388 97.1369 131.329 96.316 130.273L96 129.867V116.576L96.4221 116.14C97.254 115.28 98.0857 114.424 98.9163 113.569L98.9228 113.563C99.7506 112.711 100.577 111.86 101.404 111.006C101.456 110.951 101.472 110.917 101.478 110.902C101.484 110.887 101.496 110.851 101.496 110.773L101.496 89.5934C101.503 78.3048 101.956 67.0697 103.347 57.3013C104.731 47.5795 107.068 39.107 110.978 33.496C113.089 30.4654 117.498 30.2048 119.74 33.3317C123.533 38.622 125.83 47.2124 127.208 57.0602C128.594 66.9736 129.079 78.4109 129.085 89.5926V110.782C129.086 110.855 129.097 110.888 129.103 110.903C129.109 110.918 129.125 110.951 129.177 111.006C130.005 111.862 130.834 112.714 131.663 113.568L131.666 113.571C132.496 114.425 133.327 115.28 134.159 116.14L134.581 116.576V129.867L134.265 130.273C133.442 131.331 132.619 132.393 131.795 133.456C131.054 134.412 130.312 135.369 129.57 136.324Z" fill="black"/>
<path d="M127.585 89.5937C127.572 67.2967 125.652 44.1522 118.521 34.206C117.757 33.1403 116.634 32.6145 115.5 32.603V140.491L126 138.899L128.5 136.399L128.138 135.721C128.962 134.662 129.786 133.6 130.609 132.537C131.433 131.474 132.257 130.412 133.081 129.353V117.183C132.25 116.325 131.42 115.47 130.589 114.615C129.758 113.76 128.928 112.905 128.097 112.047C127.754 111.691 127.588 111.28 127.585 110.789V110.773V89.5937Z" fill="#404041"/>
<path fill-rule="evenodd" clip-rule="evenodd" d="M102.425 135.699C101.607 134.647 100.789 133.591 99.9709 132.536C99.1473 131.474 98.3236 130.411 97.5 129.352V117.183C98.3307 116.324 99.1614 115.47 99.992 114.615C100.823 113.76 101.653 112.905 102.484 112.046C102.83 111.686 102.996 111.271 102.996 110.773L102.996 89.5934C103.009 67.0751 104.807 44.9764 112.209 34.3535C113.772 32.1089 116.927 31.9825 118.521 34.2057C125.652 44.152 127.572 67.2964 127.585 89.5934V110.789C127.588 111.28 127.754 111.69 128.097 112.046C128.928 112.905 129.758 113.76 130.589 114.615C131.42 115.47 132.25 116.325 133.081 117.183V129.352C132.257 130.412 131.433 131.474 130.609 132.537C129.786 133.599 128.962 134.662 128.138 135.721C128.138 140.086 102.552 140.074 102.431 135.73C102.431 135.722 102.431 135.714 102.431 135.706C102.429 135.704 102.427 135.701 102.425 135.699ZM129.57 136.324C129.329 137.353 128.498 138.038 127.79 138.451C126.895 138.972 125.721 139.354 124.456 139.64C121.902 140.218 118.571 140.493 115.294 140.491C112.017 140.489 108.684 140.209 106.127 139.629C104.861 139.341 103.686 138.958 102.789 138.437C102.08 138.024 101.247 137.341 101.002 136.312C100.264 135.363 99.5265 134.411 98.7896 133.461L98.78 133.448C97.958 132.388 97.1369 131.329 96.316 130.273L96 129.867V116.576L96.4221 116.14C97.254 115.28 98.0857 114.424 98.9163 113.569L98.9228 113.563C99.7506 112.711 100.577 111.86 101.404 111.006C101.456 110.951 101.472 110.917 101.478 110.902C101.484 110.887 101.496 110.851 101.496 110.773L101.496 89.5934C101.503 78.3048 101.956 67.0697 103.347 57.3013C104.731 47.5795 107.068 39.107 110.978 33.496C113.089 30.4654 117.498 30.2048 119.74 33.3317C123.533 38.622 125.83 47.2124 127.208 57.0602C128.594 66.9736 129.079 78.4109 129.085 89.5926V110.782C129.086 110.855 129.097 110.888 129.103 110.903C129.109 110.918 129.125 110.951 129.177 111.006C130.005 111.862 130.834 112.714 131.663 113.568L131.666 113.571C132.496 114.425 133.327 115.28 134.159 116.14L134.581 116.576V129.867L134.265 130.273C133.442 131.331 132.619 132.393 131.795 133.456C131.054 134.412 130.312 135.369 129.57 136.324Z" fill="black"/>
<path d="M102.997 89.5937C103.01 67.2967 104.93 44.1522 112.061 34.206C112.826 33.1403 113.948 32.6145 115.082 32.603C110.163 37.8071 107.001 49.8989 105.501 63.8989C104.301 75.0989 104.335 101.232 104.501 112.899L99.0012 118.399V130.399L102.444 135.721C101.62 134.662 100.796 133.6 99.9726 132.537C99.1488 131.474 98.325 130.412 97.5011 129.353V117.183C98.3317 116.325 99.1624 115.47 99.993 114.615C100.824 113.76 101.654 112.905 102.485 112.047C102.828 111.691 102.994 111.28 102.997 110.789V110.773V89.5937Z" fill="#BBBDBF"/>
<path d="M127.585 89.5937C127.572 67.2967 125.652 44.1522 118.521 34.206C117.757 33.1403 116.634 32.6145 115.5 32.603C120.419 37.8071 123.581 49.8989 125.081 63.8989C126.281 75.0989 126.247 101.232 126.081 112.899L131.581 118.399V130.399L128.138 135.721C128.962 134.662 129.786 133.6 130.609 132.537C131.433 131.474 132.257 130.412 133.081 129.353V117.183C132.25 116.325 131.42 115.47 130.589 114.615C129.758 113.76 128.928 112.905 128.097 112.047C127.754 111.691 127.588 111.28 127.585 110.789V110.773V89.5937Z" fill="#231F20"/>
<rect x="108.051" y="99.2138" width="1.7" height="4.3" rx="0.65" fill="black" stroke="black" stroke-width="0.3"/>
<rect x="107.9" y="99.3638" width="1.4" height="4" rx="0.5" fill="#9E3E63"/>
<path fill-rule="evenodd" clip-rule="evenodd" d="M108.277 100.07H108.658C108.814 100.07 108.945 100.134 108.945 100.211V102.859C108.945 102.935 108.814 102.999 108.658 102.999H108.277C108.12 102.999 107.99 102.935 107.99 102.859V100.214C107.99 100.134 108.12 100.07 108.277 100.07Z" fill="#F39DB1"/>
<path d="M108.626 100.172C108.714 100.172 108.785 100.104 108.785 100.02C108.785 99.9365 108.714 99.8687 108.626 99.8687C108.538 99.8687 108.467 99.9365 108.467 100.02C108.467 100.104 108.538 100.172 108.626 100.172Z" fill="white"/>
<path d="M108.148 102.622V101.316C108.148 101.202 108.35 101.02 108.668 100.84C108.703 100.818 108.741 100.797 108.785 100.777C108.744 100.798 108.706 100.819 108.668 100.84C108.425 100.998 108.393 101.216 108.411 101.316L108.411 102.622C108.393 102.722 108.52 102.848 108.95 102.919C108.6 102.919 108.148 102.736 108.148 102.622Z" fill="white"/>
<rect x="0.15" y="-0.15" width="1.7" height="4.3" rx="0.65" transform="matrix(-1 0 0 1 122.698 99.3638)" fill="black" stroke="black" stroke-width="0.3"/>
<rect width="1.4" height="4" rx="0.5" transform="matrix(-1 0 0 1 122.699 99.3638)" fill="#9E3E63"/>
<path fill-rule="evenodd" clip-rule="evenodd" d="M122.323 100.07H121.941C121.785 100.07 121.655 100.134 121.655 100.211V102.859C121.655 102.935 121.785 102.999 121.941 102.999H122.323C122.479 102.999 122.609 102.935 122.609 102.859V100.214C122.609 100.134 122.479 100.07 122.323 100.07Z" fill="#F39DB1"/>
<path d="M121.974 100.172C121.886 100.172 121.815 100.104 121.815 100.02C121.815 99.9365 121.886 99.8687 121.974 99.8687C122.062 99.8687 122.133 99.9365 122.133 100.02C122.133 100.104 122.062 100.172 121.974 100.172Z" fill="white"/>
<path d="M122.451 102.622V101.316C122.451 101.202 122.25 101.02 121.931 100.84C121.897 100.818 121.858 100.797 121.815 100.777C121.855 100.798 121.894 100.819 121.931 100.84C122.175 100.998 122.207 101.216 122.188 101.316L122.188 102.622C122.207 102.722 122.079 102.848 121.65 102.919C122 102.919 122.451 102.736 122.451 102.622Z" fill="white"/>
<mask id="path-23-outside-3_1233_2887" maskUnits="userSpaceOnUse" x="108.584" y="41.8989" width="14" height="40" fill="black">
<rect fill="white" x="108.584" y="41.8989" width="14" height="40"/>
<path d="M115.4 42.8989C113.476 42.8989 112.076 46.457 111.148 51.8703C110.082 58.0312 109.584 74.0814 109.584 75.2402C109.584 76.3989 110.25 77.8837 111.025 78.6589C111.8 79.4342 113.85 80.1758 115.443 80.1758C117.035 80.1758 118.999 79.4342 119.774 78.6589C120.549 77.8837 121.215 76.3989 121.215 75.2402C121.215 74.0814 120.716 58.0312 119.65 51.8703C118.723 46.457 117.324 42.8989 115.4 42.8989Z"/>
</mask>
<path d="M115.4 42.8989C113.476 42.8989 112.076 46.457 111.148 51.8703C110.082 58.0312 109.584 74.0814 109.584 75.2402C109.584 76.3989 110.25 77.8837 111.025 78.6589C111.8 79.4342 113.85 80.1758 115.443 80.1758C117.035 80.1758 118.999 79.4342 119.774 78.6589C120.549 77.8837 121.215 76.3989 121.215 75.2402C121.215 74.0814 120.716 58.0312 119.65 51.8703C118.723 46.457 117.324 42.8989 115.4 42.8989Z" fill="#AA3964"/>
<path d="M115.4 42.8989C113.476 42.8989 112.076 46.457 111.148 51.8703C110.082 58.0312 109.584 74.0814 109.584 75.2402C109.584 76.3989 110.25 77.8837 111.025 78.6589C111.8 79.4342 113.85 80.1758 115.443 80.1758C117.035 80.1758 118.999 79.4342 119.774 78.6589C120.549 77.8837 121.215 76.3989 121.215 75.2402C121.215 74.0814 120.716 58.0312 119.65 51.8703C118.723 46.457 117.324 42.8989 115.4 42.8989Z" stroke="black" stroke-width="2" mask="url(#path-23-outside-3_1233_2887)"/>
<path fill-rule="evenodd" clip-rule="evenodd" d="M115.403 50.4189C114.088 50.4189 113.756 51.0281 113.133 53.2986C111.956 57.5767 111.264 65.2328 112.413 69.9954C112.953 72.2659 113.603 72.8751 115.417 72.8751C117.217 72.8751 117.867 72.2797 118.421 69.9954C119.557 65.2328 118.864 57.5767 117.701 53.2986C117.051 51.0281 116.718 50.4189 115.403 50.4189Z" fill="#DB5C87"/>
<path d="M119.881 76.0026C119.706 77.075 119.203 77.8835 118.757 77.8111C118.311 77.7386 118.091 76.811 118.269 75.7386C118.446 74.6662 118.949 73.8578 119.392 73.9325C119.836 74.0073 120.058 74.9325 119.881 76.0026Z" fill="white"/>
<path d="M112.357 74.8374C112.831 74.8374 113.215 74.419 113.215 73.9028C113.215 73.3867 112.831 72.9683 112.357 72.9683C111.884 72.9683 111.5 73.3867 111.5 73.9028C111.5 74.419 111.884 74.8374 112.357 74.8374Z" fill="white"/>
<path d="M113.808 77.0597C114.083 77.0597 114.306 76.8369 114.306 76.5621C114.306 76.2872 114.083 76.0645 113.808 76.0645C113.533 76.0645 113.311 76.2872 113.311 76.5621C113.311 76.8369 113.533 77.0597 113.808 77.0597Z" fill="white"/>
<path d="M118.929 56.3867C119.293 58.909 119.222 61.0061 118.773 61.0701C118.324 61.134 117.669 59.1423 117.308 56.6205C116.946 54.0987 117.013 52.0008 117.464 51.9372C117.915 51.8736 118.565 53.8645 118.929 56.3867Z" fill="white"/>
<path d="M119.714 64.3128C119.674 65.3985 119.278 66.2661 118.827 66.249C118.376 66.2319 118.045 65.341 118.08 64.2545C118.116 63.1679 118.516 62.3035 118.967 62.3206C119.417 62.3377 119.753 63.2294 119.714 64.3128Z" fill="white"/>
<path d="M116.176 46.2462C116.176 46.2462 117.277 48.43 116.477 51.8864C116.477 51.8864 114.987 49.6685 116.176 46.2462Z" fill="white"/>
<path d="M115.084 44.0991C113.429 44.0991 112.227 47.3994 111.429 52.4204C110.513 58.1349 110.072 66.1608 110.084 74.0968C110.084 74.6744 110.325 75.386 110.722 76.0991C110.07 72.8527 110.868 59.8147 111.804 54.7658C112.663 50.1281 114.42 45.1635 115.084 44.0991Z" fill="white"/>
<path d="M107.689 74.2839C107.689 74.2839 107.687 74.2012 107.686 74.0429C107.684 74.2559 107.683 74.6164 107.685 75.1049L106.949 75.8992C106.94 75.3004 106.934 74.6916 106.932 74.0726C106.932 74.127 106.931 74.1815 106.931 74.2361L106.931 74.819C106.931 74.6237 106.931 74.4294 106.931 74.2361L106.931 73.9179C106.931 73.7078 106.931 73.4964 106.931 73.2839L106.931 73.9179C106.931 73.9696 106.932 74.0211 106.932 74.0726C106.988 55.4801 110.593 46.0043 110.593 46.0043C107.67 57.7251 107.671 72.025 107.686 74.0429C107.687 73.8958 107.689 73.819 107.689 73.819L107.689 74.2839Z" fill="white"/>
<path d="M108.713 87.0873C107.399 80.6093 107.674 74.6728 107.674 74.6728L106.937 74.3051C106.933 74.5565 106.932 74.8109 106.932 75.0683C106.931 75.0148 106.929 74.9612 106.928 74.9076L106.934 75.4087C106.936 75.5256 106.937 75.6432 106.939 75.7613L106.934 75.4087C106.933 75.2947 106.933 75.1812 106.932 75.0683C107.142 81.7017 108.713 87.0873 108.713 87.0873Z" fill="white"/>
<path d="M122.092 87.0873C123.405 80.6093 123.131 74.6728 123.131 74.6728L123.868 74.3051C123.871 74.5565 123.873 74.8109 123.872 75.0683C123.874 75.0148 123.876 74.9612 123.877 74.9076L123.87 75.4087C123.869 75.5256 123.868 75.6432 123.865 75.7613L123.87 75.4087C123.871 75.2947 123.872 75.1812 123.872 75.0683C123.662 81.7017 122.092 87.0873 122.092 87.0873Z" fill="white"/>
<path d="M123.104 74.2839C123.104 74.2839 123.106 74.2012 123.107 74.0429C123.109 74.2559 123.11 74.6164 123.108 75.1049L123.844 75.8992C123.853 75.3004 123.859 74.6916 123.861 74.0726C123.861 74.127 123.862 74.1815 123.862 74.2361L123.862 74.819C123.862 74.6237 123.862 74.4294 123.862 74.2361L123.862 73.9179C123.862 73.7078 123.862 73.4964 123.862 73.2839L123.862 73.9179C123.862 73.9696 123.861 74.0211 123.861 74.0726C123.805 55.4801 120.2 46.0043 120.2 46.0043C123.123 57.7251 123.122 72.025 123.107 74.0429C123.106 73.8958 123.104 73.819 123.104 73.819L123.104 74.2839Z" fill="white"/>
<mask id="path-36-outside-4_1233_2887" maskUnits="userSpaceOnUse" x="108.637" y="80.8989" width="14" height="11" fill="black">
<rect fill="white" x="108.637" y="80.8989" width="14" height="11"/>
<path d="M120.512 81.9866C119.127 82.8035 116.981 83.3758 115.389 83.3758C113.797 83.3758 111.637 82.7758 110.225 81.959C109.865 81.7651 109.588 82.0697 109.644 82.4574C109.644 83.5649 110.53 87.2294 111.748 88.4477C112.842 89.5553 114.213 89.986 115.459 89.986C116.691 89.986 118.075 89.5415 119.169 88.4477C120.387 87.2294 121.273 83.5649 121.273 82.4574C121.329 82.042 120.872 81.779 120.512 81.9866Z"/>
</mask>
<path d="M120.512 81.9866C119.127 82.8035 116.981 83.3758 115.389 83.3758C113.797 83.3758 111.637 82.7758 110.225 81.959C109.865 81.7651 109.588 82.0697 109.644 82.4574C109.644 83.5649 110.53 87.2294 111.748 88.4477C112.842 89.5553 114.213 89.986 115.459 89.986C116.691 89.986 118.075 89.5415 119.169 88.4477C120.387 87.2294 121.273 83.5649 121.273 82.4574C121.329 82.042 120.872 81.779 120.512 81.9866Z" stroke="black" stroke-width="2" mask="url(#path-36-outside-4_1233_2887)"/>
<path d="M120.512 81.9866C119.127 82.8035 116.981 83.3758 115.389 83.3758C113.797 83.3758 111.637 82.7758 110.225 81.959C109.865 81.7651 109.588 82.0697 109.644 82.4574C109.644 83.5649 110.53 87.2294 111.748 88.4477C112.842 89.5553 114.213 89.986 115.459 89.986C116.691 89.986 118.075 89.5415 119.169 88.4477C120.387 87.2294 121.273 83.5649 121.273 82.4574C121.329 82.042 120.872 81.779 120.512 81.9866Z" fill="#AA3964"/>
<path d="M119.842 83.9423C118.653 84.3463 116.809 84.6294 115.442 84.6294C114.074 84.6294 112.218 84.3326 111.005 83.9286C110.696 83.8327 110.459 83.9834 110.506 84.1751C110.506 84.723 111.267 86.5355 112.314 87.1381C113.253 87.6859 114.431 87.8989 115.501 87.8989C116.56 87.8989 117.749 87.6791 118.689 87.1381C119.735 86.5355 120.496 84.723 120.496 84.1751C120.544 83.9697 120.151 83.8396 119.842 83.9423Z" fill="#DB5C87"/>
<path d="M117.989 87.487C117.395 88.3971 116.609 88.9334 116.23 88.6867C115.851 88.4401 116.025 87.5029 116.621 86.5938C117.217 85.6847 118.003 85.1484 118.379 85.3963C118.755 85.6441 118.584 86.5801 117.989 87.487Z" fill="white"/>
<path d="M113.998 86.2233C114.273 86.2233 114.495 86.0005 114.495 85.7257C114.495 85.4508 114.273 85.228 113.998 85.228C113.723 85.228 113.5 85.4508 113.5 85.7257C113.5 86.0005 113.723 86.2233 113.998 86.2233Z" fill="white"/>
<path d="M110.225 81.959C109.865 81.7651 109.588 82.0697 109.644 82.4574C109.644 83.5649 110.53 87.2294 111.748 88.4477C109 82.228 111.5 82.728 113.5 83.128C111.914 82.8108 111.214 82.4917 110.225 81.959Z" fill="white"/>
<path d="M112.801 36.9923C112.801 36.9923 113.916 34.5777 115.319 33.2993C115.319 33.2993 116.578 34.5777 117.801 36.8858L115.283 34.4356L112.801 36.9923Z" fill="white"/>
<path d="M97 128.899C97.0143 131.142 106.639 133.234 116 133.174C124.868 133.117 133.5 131.026 133.5 128.899" stroke="black"/>
<path d="M97 116.399C97.0143 118.642 106.639 120.734 116 120.674C124.868 120.617 133.5 118.526 133.5 116.399" stroke="black"/>
<path d="M102.5 110.798C102.528 115.166 128 115.171 128 110.798" stroke="black"/>
<mask id="path-46-inside-5_1233_2887" fill="white">
<path fill-rule="evenodd" clip-rule="evenodd" d="M115.319 122.899H110.197C109.186 122.899 108.369 123.716 108.369 124.726V128.88C108.369 129.891 109.186 130.707 110.197 130.707H115.319H120.442C121.452 130.707 122.269 129.891 122.269 128.88V124.726C122.269 123.716 121.452 122.899 120.442 122.899H115.319Z"/>
</mask>
<path fill-rule="evenodd" clip-rule="evenodd" d="M115.319 122.899H110.197C109.186 122.899 108.369 123.716 108.369 124.726V128.88C108.369 129.891 109.186 130.707 110.197 130.707H115.319H120.442C121.452 130.707 122.269 129.891 122.269 128.88V124.726C122.269 123.716 121.452 122.899 120.442 122.899H115.319Z" fill="#6D6E70" stroke="black" stroke-width="2" mask="url(#path-46-inside-5_1233_2887)"/>
<rect x="102.35" y="123.55" width="1.7" height="4.3" rx="0.65" fill="black" stroke="black" stroke-width="0.3"/>
<rect x="102.301" y="123.7" width="1.4" height="4" rx="0.5" fill="#9E3E63"/>
<path fill-rule="evenodd" clip-rule="evenodd" d="M102.677 124.406H103.059C103.215 124.406 103.345 124.47 103.345 124.547V127.195C103.345 127.271 103.215 127.335 103.059 127.335H102.677C102.521 127.335 102.391 127.271 102.391 127.195V124.55C102.391 124.47 102.521 124.406 102.677 124.406Z" fill="#F39DB1"/>
<path d="M103.026 124.508C103.114 124.508 103.185 124.44 103.185 124.356C103.185 124.272 103.114 124.205 103.026 124.205C102.938 124.205 102.867 124.272 102.867 124.356C102.867 124.44 102.938 124.508 103.026 124.508Z" fill="white"/>
<path d="M102.549 126.958V125.652C102.549 125.538 102.75 125.356 103.069 125.176C103.103 125.154 103.142 125.133 103.185 125.113C103.145 125.134 103.106 125.155 103.069 125.176C102.825 125.334 102.793 125.552 102.812 125.652L102.812 126.958C102.793 127.058 102.921 127.184 103.35 127.255C103 127.255 102.549 127.072 102.549 126.958Z" fill="white"/>
<rect x="126.35" y="123.55" width="1.7" height="4.3" rx="0.65" fill="black" stroke="black" stroke-width="0.3"/>
<rect x="126.699" y="123.7" width="1.4" height="4" rx="0.5" fill="#9E3E63"/>
<path fill-rule="evenodd" clip-rule="evenodd" d="M127.075 124.406H127.457C127.613 124.406 127.743 124.47 127.743 124.547V127.195C127.743 127.271 127.613 127.335 127.457 127.335H127.075C126.919 127.335 126.789 127.271 126.789 127.195V124.55C126.789 124.47 126.919 124.406 127.075 124.406Z" fill="#F39DB1"/>
<path d="M127.425 124.508C127.513 124.508 127.584 124.44 127.584 124.356C127.584 124.272 127.513 124.205 127.425 124.205C127.337 124.205 127.266 124.272 127.266 124.356C127.266 124.44 127.337 124.508 127.425 124.508Z" fill="white"/>
<path d="M126.947 126.958V125.652C126.947 125.538 127.149 125.356 127.467 125.176C127.502 125.154 127.54 125.133 127.584 125.113C127.543 125.134 127.504 125.155 127.467 125.176C127.224 125.334 127.192 125.552 127.21 125.652L127.21 126.958C127.192 127.058 127.319 127.184 127.749 127.255C127.399 127.255 126.947 127.072 126.947 126.958Z" fill="white"/>

    </svg>
