<svg width="230" height="230" viewBox="0 0 230 230" fill="none" xmlns="http://www.w3.org/2000/svg">
<mask id="path-1-outside-1_1233_2887" maskUnits="userSpaceOnUse" x="92" y="42.3003" width="27" height="21" fill="black">
<rect fill="white" x="92" y="42.3003" width="27" height="21"/>
<path d="M117.271 44.4496C117.271 44.3784 117.199 44.33 117.133 44.3571L94.0619 53.8543C94.0245 53.8697 94 53.9062 94 53.9467V61.0228C94 61.078 94.0448 61.1228 94.1 61.1228H117.171C117.226 61.1228 117.271 61.078 117.271 61.0228V44.4496Z"/>
</mask>
<path d="M117.271 44.4496C117.271 44.3784 117.199 44.33 117.133 44.3571L94.0619 53.8543C94.0245 53.8697 94 53.9062 94 53.9467V61.0228C94 61.078 94.0448 61.1228 94.1 61.1228H117.171C117.226 61.1228 117.271 61.078 117.271 61.0228V44.4496Z" fill="#6D6E70"/>
<path d="M117.271 44.4496C117.271 44.3784 117.199 44.33 117.133 44.3571L94.0619 53.8543C94.0245 53.8697 94 53.9062 94 53.9467V61.0228C94 61.078 94.0448 61.1228 94.1 61.1228H117.171C117.226 61.1228 117.271 61.078 117.271 61.0228V44.4496Z" stroke="black" stroke-width="3" mask="url(#path-1-outside-1_1233_2887)"/>
<path d="M94 53.8798L117.271 44.3003L95.4 54.9004L94 61.1228V53.8798Z" fill="white"/>
<path d="M117.271 44.3003V61.1228H101.223L104 49.7633L117.271 44.3003Z" fill="#404041"/>
<mask id="path-4-outside-2_1233_2887" maskUnits="userSpaceOnUse" x="111.57" y="42.3003" width="27" height="21" fill="black">
<rect fill="white" x="111.57" y="42.3003" width="27" height="21"/>
<path d="M113.299 44.4496C113.299 44.3784 113.371 44.33 113.437 44.3571L136.508 53.8543C136.546 53.8697 136.57 53.9062 136.57 53.9467V61.0228C136.57 61.078 136.526 61.1228 136.47 61.1228H113.399C113.344 61.1228 113.299 61.078 113.299 61.0228V44.4496Z"/>
</mask>
<path d="M113.299 44.4496C113.299 44.3784 113.371 44.33 113.437 44.3571L136.508 53.8543C136.546 53.8697 136.57 53.9062 136.57 53.9467V61.0228C136.57 61.078 136.526 61.1228 136.47 61.1228H113.399C113.344 61.1228 113.299 61.078 113.299 61.0228V44.4496Z" fill="#6D6E70"/>
<path d="M113.299 44.4496C113.299 44.3784 113.371 44.33 113.437 44.3571L136.508 53.8543C136.546 53.8697 136.57 53.9062 136.57 53.9467V61.0228C136.57 61.078 136.526 61.1228 136.47 61.1228H113.399C113.344 61.1228 113.299 61.078 113.299 61.0228V44.4496Z" stroke="black" stroke-width="3" mask="url(#path-4-outside-2_1233_2887)"/>
<path d="M136.57 53.8798L113.299 44.3003L135.17 54.9004L136.57 61.1228V53.8798Z" fill="white"/>
<path d="M113.299 44.3003V61.1228H129.348L126.57 49.7633L113.299 44.3003Z" fill="#404041"/>
<mask id="path-7-outside-3_1233_2887" maskUnits="userSpaceOnUse" x="107.67" y="21.4004" width="15" height="33" fill="black">
<rect fill="white" x="107.67" y="21.4004" width="15" height="33"/>
<path fill-rule="evenodd" clip-rule="evenodd" d="M115.277 23.4004C114.723 23.4004 112.619 28.6752 112.619 31.5411V37.079C111.137 38.0896 109.67 39.4879 109.67 40.4294C109.67 44.3059 109.67 48.1824 109.67 52.0589C113.408 52.0589 117.16 52.0589 120.898 52.0589C120.898 48.1824 120.898 44.3059 120.898 40.4294C120.898 39.4879 119.417 38.0896 117.949 37.079V31.5411C117.935 28.6614 115.831 23.4004 115.277 23.4004Z"/>
</mask>
<path fill-rule="evenodd" clip-rule="evenodd" d="M115.277 23.4004C114.723 23.4004 112.619 28.6752 112.619 31.5411V37.079C111.137 38.0896 109.67 39.4879 109.67 40.4294C109.67 44.3059 109.67 48.1824 109.67 52.0589C113.408 52.0589 117.16 52.0589 120.898 52.0589C120.898 48.1824 120.898 44.3059 120.898 40.4294C120.898 39.4879 119.417 38.0896 117.949 37.079V31.5411C117.935 28.6614 115.831 23.4004 115.277 23.4004Z" fill="#6D6E70"/>
<path fill-rule="evenodd" clip-rule="evenodd" d="M115.277 23.4004C114.723 23.4004 112.619 28.6752 112.619 31.5411V37.079C111.137 38.0896 109.67 39.4879 109.67 40.4294C109.67 44.3059 109.67 48.1824 109.67 52.0589C113.408 52.0589 117.16 52.0589 120.898 52.0589C120.898 48.1824 120.898 44.3059 120.898 40.4294C120.898 39.4879 119.417 38.0896 117.949 37.079V31.5411C117.935 28.6614 115.831 23.4004 115.277 23.4004Z" stroke="black" stroke-width="3" mask="url(#path-7-outside-3_1233_2887)"/>
<path d="M112.702 28.3994H117.951V28.7592H112.702V28.3994Z" fill="#BBBDBF"/>
<path d="M112.702 30.2256H117.951V30.5853H112.702V30.2256Z" fill="#BBBDBF"/>
<path d="M112.702 32.0664H117.951V32.4262H112.702V32.0664Z" fill="#BBBDBF"/>
<path d="M112.702 33.8931H117.951V34.2528H112.702V33.8931Z" fill="#BBBDBF"/>
<path d="M112.702 35.7334H117.951V36.0932H112.702V35.7334Z" fill="#BBBDBF"/>
<mask id="path-13-outside-4_1233_2887" maskUnits="userSpaceOnUse" x="107.67" y="21.4004" width="15" height="33" fill="black">
<rect fill="white" x="107.67" y="21.4004" width="15" height="33"/>
<path fill-rule="evenodd" clip-rule="evenodd" d="M115.277 23.4004C114.723 23.4004 112.619 28.6752 112.619 31.5411V37.079C111.137 38.0896 109.67 39.4879 109.67 40.4294C109.67 44.3059 109.67 48.1824 109.67 52.0589C113.408 52.0589 117.16 52.0589 120.898 52.0589C120.898 48.1824 120.898 44.3059 120.898 40.4294C120.898 39.4879 119.417 38.0896 117.949 37.079V31.5411C117.935 28.6614 115.831 23.4004 115.277 23.4004Z"/>
</mask>
<path fill-rule="evenodd" clip-rule="evenodd" d="M115.277 23.4004C114.723 23.4004 112.619 28.6752 112.619 31.5411V37.079C111.137 38.0896 109.67 39.4879 109.67 40.4294C109.67 44.3059 109.67 48.1824 109.67 52.0589C113.408 52.0589 117.16 52.0589 120.898 52.0589C120.898 48.1824 120.898 44.3059 120.898 40.4294C120.898 39.4879 119.417 38.0896 117.949 37.079V31.5411C117.935 28.6614 115.831 23.4004 115.277 23.4004Z" stroke="black" stroke-width="3" mask="url(#path-13-outside-4_1233_2887)"/>
<path d="M112.619 31.5411C112.619 28.6752 114.723 23.4004 115.277 23.4004V52.0589H109.67V40.4294C109.67 39.4879 111.137 38.0896 112.619 37.079V31.5411Z" fill="#BBBDBF"/>
<mask id="path-15-outside-5_1233_2887" maskUnits="userSpaceOnUse" x="95.5" y="39.98" width="40" height="101" fill="black">
<rect fill="white" x="95.5" y="39.98" width="40" height="101"/>
<path d="M112.84 49.0269C112.826 50.2176 112.549 52.0589 115.277 52.0589C118.004 52.0589 117.727 50.2176 117.741 49.0269V41.98C119.444 41.98 122.808 42.2707 123.113 44.472C126.602 69.3925 127.571 85.4247 127.585 110.774C127.585 111.273 127.751 111.688 128.097 112.048C129.758 113.765 131.42 115.468 133.081 117.184V129.354C131.433 131.472 129.786 133.604 128.138 135.723C128.138 140.095 102.459 140.075 102.431 135.708C100.787 133.594 99.1436 131.467 97.5 129.354V117.184C99.1614 115.468 100.823 113.765 102.484 112.048C102.83 111.688 102.996 111.273 102.996 110.774C103.01 85.4109 103.979 69.3925 107.468 44.472C107.773 42.2707 111.137 41.98 112.84 41.98V49.0269Z"/>
</mask>
<path d="M112.84 49.0269C112.826 50.2176 112.549 52.0589 115.277 52.0589C118.004 52.0589 117.727 50.2176 117.741 49.0269V41.98C119.444 41.98 122.808 42.2707 123.113 44.472C126.602 69.3925 127.571 85.4247 127.585 110.774C127.585 111.273 127.751 111.688 128.097 112.048C129.758 113.765 131.42 115.468 133.081 117.184V129.354C131.433 131.472 129.786 133.604 128.138 135.723C128.138 140.095 102.459 140.075 102.431 135.708C100.787 133.594 99.1436 131.467 97.5 129.354V117.184C99.1614 115.468 100.823 113.765 102.484 112.048C102.83 111.688 102.996 111.273 102.996 110.774C103.01 85.4109 103.979 69.3925 107.468 44.472C107.773 42.2707 111.137 41.98 112.84 41.98V49.0269Z" fill="#6D6E70"/>
<path d="M102.431 135.708L101.681 135.712L101.683 135.967L101.839 136.168L102.431 135.708ZM101.839 136.168C101.841 136.17 101.843 136.173 101.845 136.175C101.847 136.178 101.849 136.18 101.851 136.183L103.035 135.262C103.033 135.26 103.031 135.257 103.029 135.255C103.027 135.252 103.025 135.25 103.023 135.247L101.839 136.168ZM101.681 135.7C101.681 135.705 101.681 135.709 101.681 135.712L103.181 135.703C103.181 135.702 103.181 135.701 103.181 135.7H101.681ZM112.84 49.0269L114.34 49.0444L114.34 49.0357V49.0269H112.84ZM112.84 41.98H114.34V40.48H112.84V41.98ZM107.468 44.472L108.954 44.68L108.954 44.6776L107.468 44.472ZM102.996 110.774L101.496 110.774V110.774H102.996ZM102.484 112.048L103.562 113.091L103.565 113.088L102.484 112.048ZM97.5 117.184L96.4221 116.141L96 116.577V117.184H97.5ZM97.5 129.354H96V129.869L96.316 130.275L97.5 129.354ZM102.431 135.708L103.931 135.698L103.928 135.189L103.615 134.787L102.431 135.708ZM128.138 135.723L126.954 134.802L126.638 135.208V135.723H128.138ZM133.081 129.354L134.265 130.275L134.581 129.869V129.354H133.081ZM133.081 117.184H134.581V116.577L134.159 116.141L133.081 117.184ZM128.097 112.048L127.016 113.088L127.019 113.091L128.097 112.048ZM127.585 110.774L129.085 110.774L129.085 110.774L127.585 110.774ZM123.113 44.472L121.627 44.6776L121.627 44.68L123.113 44.472ZM117.741 41.98V40.48H116.241V41.98H117.741ZM117.741 49.0269L119.241 49.0444L119.241 49.0357V49.0269H117.741ZM115.277 50.5589C114.751 50.5589 114.523 50.4684 114.451 50.4301C114.411 50.4085 114.412 50.4047 114.402 50.3817C114.376 50.3228 114.341 50.1942 114.33 49.9382C114.317 49.6492 114.335 49.441 114.34 49.0444L111.34 49.0095C111.338 49.2082 111.316 49.6766 111.333 50.0678C111.351 50.4919 111.415 51.0469 111.659 51.5972C111.919 52.1833 112.361 52.7143 113.036 53.0752C113.679 53.4193 114.439 53.5589 115.277 53.5589V50.5589ZM114.34 49.0269V41.98H111.34V49.0269H114.34ZM112.84 40.48C111.937 40.48 110.487 40.5531 109.174 40.9713C107.914 41.3728 106.257 42.2819 105.982 44.2664L108.954 44.6776C108.984 44.4609 109.161 44.1239 110.085 43.8298C110.956 43.5522 112.04 43.48 112.84 43.48V40.48ZM105.983 44.2641C102.483 69.2606 101.51 85.3486 101.496 110.774L104.496 110.775C104.51 85.4731 105.475 69.5245 108.954 44.68L105.983 44.2641ZM101.496 110.774C101.496 110.853 101.484 110.889 101.478 110.904C101.472 110.919 101.456 110.953 101.403 111.008L103.565 113.088C104.182 112.447 104.496 111.658 104.496 110.774H101.496ZM101.406 111.005C100.577 111.862 99.7471 112.716 98.9163 113.571C98.0857 114.426 97.254 115.282 96.4221 116.141L98.5779 118.228C99.4074 117.37 100.237 116.517 101.068 115.662C101.898 114.807 102.73 113.951 103.562 113.091L101.406 111.005ZM96 117.184V129.354H99V117.184H96ZM96.316 130.275C97.1369 131.33 97.958 132.39 98.78 133.45C99.6016 134.51 100.424 135.571 101.247 136.628L103.615 134.787C102.794 133.731 101.973 132.672 101.151 131.612C100.329 130.552 99.5067 129.491 98.684 128.433L96.316 130.275ZM129.322 136.643C130.147 135.583 130.971 134.52 131.795 133.457C132.619 132.395 133.442 131.333 134.265 130.275L131.897 128.433C131.072 129.493 130.248 130.557 129.424 131.619C128.6 132.682 127.777 133.744 126.954 134.802L129.322 136.643ZM134.581 129.354V117.184H131.581V129.354H134.581ZM134.159 116.141C133.327 115.282 132.495 114.426 131.665 113.571C130.834 112.716 130.004 111.862 129.175 111.005L127.019 113.091C127.851 113.951 128.683 114.807 129.513 115.662C130.344 116.517 131.174 117.37 132.003 118.228L134.159 116.141ZM129.178 111.008C129.125 110.953 129.109 110.919 129.103 110.904C129.097 110.889 129.085 110.853 129.085 110.774H126.085C126.085 111.658 126.399 112.447 127.016 113.088L129.178 111.008ZM129.085 110.774C129.071 85.3625 128.098 69.2606 124.598 44.2641L121.627 44.68C125.105 69.5245 126.071 85.4869 126.085 110.775L129.085 110.774ZM124.599 44.2664C124.324 42.2819 122.667 41.3728 121.406 40.9713C120.094 40.5531 118.644 40.48 117.741 40.48V43.48C118.541 43.48 119.625 43.5522 120.496 43.8298C121.419 44.1239 121.597 44.4609 121.627 44.6776L124.599 44.2664ZM116.241 41.98V49.0269H119.241V41.98H116.241ZM116.241 49.0095C116.236 49.4329 116.253 49.6102 116.236 49.9211C116.222 50.1812 116.186 50.3128 116.158 50.3752C116.146 50.4019 116.145 50.4075 116.103 50.4297C116.031 50.4685 115.802 50.5589 115.277 50.5589V53.5589C116.115 53.5589 116.874 53.4192 117.517 53.0755C118.191 52.7153 118.633 52.1861 118.895 51.6037C119.14 51.0569 119.208 50.5049 119.231 50.0849C119.252 49.7157 119.239 49.2164 119.241 49.0444L116.241 49.0095ZM100.931 135.717C100.94 137.085 101.951 137.951 102.789 138.438C103.686 138.96 104.861 139.343 106.127 139.63C108.684 140.211 112.017 140.49 115.294 140.493C118.571 140.495 121.902 140.22 124.456 139.642C125.721 139.356 126.895 138.974 127.79 138.452C128.629 137.964 129.638 137.094 129.638 135.723H126.638C126.638 135.444 126.846 135.53 126.279 135.861C125.77 136.158 124.938 136.457 123.794 136.716C121.533 137.228 118.443 137.495 115.296 137.493C112.15 137.491 109.057 137.219 106.792 136.705C105.646 136.445 104.811 136.144 104.298 135.845C103.726 135.512 103.929 135.422 103.931 135.698L100.931 135.717Z" fill="black" mask="url(#path-15-outside-5_1233_2887)"/>
<path d="M102.996 110.775C103.01 85.4111 103.979 69.3927 107.468 44.4722C107.563 43.7869 107.954 43.2867 108.5 42.9229C107.986 52.8936 106.145 67.3094 105.477 80.4006C104.63 97.005 104.8 113.401 104.8 113.401L98.8 117.901V130.401L102.443 135.723C100.795 133.605 99.1475 131.472 97.5 129.354V117.185C99.1614 115.468 100.823 113.765 102.484 112.048C102.83 111.688 102.996 111.273 102.996 110.775Z" fill="#BBBDBF"/>
<path d="M133.082 129.354C131.434 131.472 129.787 133.604 128.139 135.723C128.139 137.911 121.707 138.999 115.277 138.993V52.0589C118.005 52.0589 117.728 50.2176 117.742 49.0269V41.98C119.445 41.98 122.809 42.2707 123.113 44.472C126.602 69.3925 127.571 85.4247 127.585 110.774C127.585 111.273 127.751 111.688 128.098 112.048C129.759 113.765 131.42 115.468 133.082 117.184V129.354Z" fill="#404041"/>
<path d="M127.603 110.775C127.589 85.4111 126.62 69.3927 123.131 44.4722C123.037 43.7869 122.645 43.2867 122.1 42.9229C122.614 52.8936 124.455 67.3094 125.123 80.4006C125.97 97.005 125.8 113.401 125.8 113.401L131.8 117.901V130.401L128.157 135.723C129.805 133.605 131.452 131.472 133.1 129.354V117.185C131.438 115.468 129.777 113.765 128.116 112.048C127.769 111.688 127.603 111.273 127.603 110.775Z" fill="#231F20"/>
<path d="M97 128.9C97.0143 131.143 106.639 133.235 116 133.175C124.868 133.118 133.5 131.027 133.5 128.9" stroke="black"/>
<path d="M97 116.4C97.0143 118.643 106.639 120.736 116 120.676C124.868 120.619 133.5 118.528 133.5 116.4" stroke="black"/>
<path d="M102.5 111.4C102.528 115.768 128 115.773 128 111.4" stroke="black"/>
<mask id="path-23-inside-6_1233_2887" fill="white">
<path fill-rule="evenodd" clip-rule="evenodd" d="M115.319 122.9H110.197C109.186 122.9 108.369 123.717 108.369 124.727V128.881C108.369 129.891 109.186 130.708 110.197 130.708H115.319H120.442C121.452 130.708 122.269 129.891 122.269 128.881V124.727C122.269 123.717 121.452 122.9 120.442 122.9H115.319Z"/>
</mask>
<path fill-rule="evenodd" clip-rule="evenodd" d="M115.319 122.9H110.197C109.186 122.9 108.369 123.717 108.369 124.727V128.881C108.369 129.891 109.186 130.708 110.197 130.708H115.319H120.442C121.452 130.708 122.269 129.891 122.269 128.881V124.727C122.269 123.717 121.452 122.9 120.442 122.9H115.319Z" fill="#6D6E70" stroke="black" stroke-width="2" mask="url(#path-23-inside-6_1233_2887)"/>
<path d="M107.35 49.7243C107.35 49.7243 107.839 45.0622 108.219 44.2315C108.599 43.4007 111.085 42.8914 111.085 42.8914L108.899 44.7006L107.35 49.7243Z" fill="white"/>
<path d="M123.134 49.7243C123.134 49.7243 122.646 45.0622 122.265 44.2315C121.885 43.4007 119.4 42.8914 119.4 42.8914L121.585 44.7006L123.134 49.7243Z" fill="white"/>
<rect x="102.35" y="123.551" width="1.7" height="4.3" rx="0.65" fill="black" stroke="black" stroke-width="0.3"/>
<rect x="102.301" y="123.701" width="1.4" height="4" rx="0.5" fill="#9E3E63"/>
<path fill-rule="evenodd" clip-rule="evenodd" d="M102.677 124.407H103.059C103.215 124.407 103.345 124.471 103.345 124.548V127.196C103.345 127.272 103.215 127.336 103.059 127.336H102.677C102.521 127.336 102.391 127.272 102.391 127.196V124.551C102.391 124.471 102.521 124.407 102.677 124.407Z" fill="#F39DB1"/>
<path d="M103.026 124.509C103.114 124.509 103.185 124.441 103.185 124.357C103.185 124.273 103.114 124.206 103.026 124.206C102.938 124.206 102.867 124.273 102.867 124.357C102.867 124.441 102.938 124.509 103.026 124.509Z" fill="white"/>
<path d="M102.549 126.959V125.653C102.549 125.539 102.75 125.357 103.069 125.177C103.103 125.155 103.142 125.134 103.185 125.114C103.145 125.135 103.106 125.156 103.069 125.177C102.825 125.335 102.793 125.553 102.812 125.653L102.812 126.959C102.793 127.059 102.921 127.185 103.35 127.256C103 127.256 102.549 127.072 102.549 126.959Z" fill="white"/>
<rect x="126.35" y="123.551" width="1.7" height="4.3" rx="0.65" fill="black" stroke="black" stroke-width="0.3"/>
<rect x="126.699" y="123.701" width="1.4" height="4" rx="0.5" fill="#9E3E63"/>
<path fill-rule="evenodd" clip-rule="evenodd" d="M127.075 124.407H127.457C127.613 124.407 127.743 124.471 127.743 124.548V127.196C127.743 127.272 127.613 127.336 127.457 127.336H127.075C126.919 127.336 126.789 127.272 126.789 127.196V124.551C126.789 124.471 126.919 124.407 127.075 124.407Z" fill="#F39DB1"/>
<path d="M127.425 124.509C127.513 124.509 127.584 124.441 127.584 124.357C127.584 124.273 127.513 124.206 127.425 124.206C127.337 124.206 127.266 124.273 127.266 124.357C127.266 124.441 127.337 124.509 127.425 124.509Z" fill="white"/>
<path d="M126.947 126.959V125.653C126.947 125.539 127.149 125.357 127.467 125.177C127.502 125.155 127.54 125.134 127.584 125.114C127.543 125.135 127.504 125.156 127.467 125.177C127.224 125.335 127.192 125.553 127.21 125.653L127.21 126.959C127.192 127.059 127.319 127.185 127.749 127.256C127.399 127.256 126.947 127.072 126.947 126.959Z" fill="white"/>
<mask id="path-36-outside-7_1233_2887" maskUnits="userSpaceOnUse" x="108.5" y="57.4004" width="14" height="41" fill="black">
<rect fill="white" x="108.5" y="57.4004" width="14" height="41"/>
<path fill-rule="evenodd" clip-rule="evenodd" d="M111.065 67.3718C111.992 61.9585 113.391 58.4004 115.315 58.4004C117.239 58.4004 118.638 61.9446 119.565 67.3718C120.618 73.5327 121.13 82.1995 121.13 90.7416C121.13 91.8492 120.244 93.4137 119.025 94.632C117.932 95.7257 116.547 96.5703 115.315 96.5703C114.069 96.5703 112.698 95.7396 111.605 94.632C110.386 93.4137 109.5 91.8492 109.5 90.7416C109.486 82.1856 109.999 73.5327 111.065 67.3718Z"/>
</mask>
<path fill-rule="evenodd" clip-rule="evenodd" d="M111.065 67.3718C111.992 61.9585 113.391 58.4004 115.315 58.4004C117.239 58.4004 118.638 61.9446 119.565 67.3718C120.618 73.5327 121.13 82.1995 121.13 90.7416C121.13 91.8492 120.244 93.4137 119.025 94.632C117.932 95.7257 116.547 96.5703 115.315 96.5703C114.069 96.5703 112.698 95.7396 111.605 94.632C110.386 93.4137 109.5 91.8492 109.5 90.7416C109.486 82.1856 109.999 73.5327 111.065 67.3718Z" fill="#AA3964"/>
<path fill-rule="evenodd" clip-rule="evenodd" d="M111.065 67.3718C111.992 61.9585 113.391 58.4004 115.315 58.4004C117.239 58.4004 118.638 61.9446 119.565 67.3718C120.618 73.5327 121.13 82.1995 121.13 90.7416C121.13 91.8492 120.244 93.4137 119.025 94.632C117.932 95.7257 116.547 96.5703 115.315 96.5703C114.069 96.5703 112.698 95.7396 111.605 94.632C110.386 93.4137 109.5 91.8492 109.5 90.7416C109.486 82.1856 109.999 73.5327 111.065 67.3718Z" stroke="black" stroke-width="2" mask="url(#path-36-outside-7_1233_2887)"/>
<path fill-rule="evenodd" clip-rule="evenodd" d="M115.319 65.9204C114.004 65.9204 113.672 66.5296 113.049 68.8001C111.872 73.0781 111.18 80.7342 112.329 85.4968C112.869 87.7674 113.519 88.3765 115.333 88.3765C117.133 88.3765 117.783 87.7812 118.337 85.4968C119.473 80.7342 118.78 73.0781 117.617 68.8001C116.967 66.5296 116.634 65.9204 115.319 65.9204Z" fill="#DB5C87"/>
<path d="M115 59.6006C113.345 59.6006 112.143 62.9008 111.345 67.9219C110.429 73.6363 109.988 81.6622 110 89.5983C110 90.1759 110.241 90.8874 110.638 91.6006C109.986 88.3542 110.784 75.3162 111.72 70.2673C112.58 65.6296 114.336 60.665 115 59.6006Z" fill="white"/>
<mask id="path-39-outside-8_1233_2887" maskUnits="userSpaceOnUse" x="106.699" y="90.4004" width="17" height="14" fill="black">
<rect fill="white" x="106.699" y="90.4004" width="17" height="14"/>
<path fill-rule="evenodd" clip-rule="evenodd" d="M115.271 93.3598C117.048 93.3598 119.442 93.3901 120.987 92.4964C121.389 92.2692 121.899 92.557 121.837 93.0114C121.528 95.0714 120.956 97.1011 120.524 99.146C120.045 101.388 117.295 102.085 115.271 102.085C113.247 102.085 110.528 101.388 110.018 99.1612C109.57 97.1617 109.014 95.026 108.705 93.0114C108.643 92.5872 109.106 92.254 109.508 92.4661C111.084 93.3598 113.494 93.3598 115.271 93.3598Z"/>
</mask>
<path fill-rule="evenodd" clip-rule="evenodd" d="M115.271 93.3598C117.048 93.3598 119.442 93.3901 120.987 92.4964C121.389 92.2692 121.899 92.557 121.837 93.0114C121.528 95.0714 120.956 97.1011 120.524 99.146C120.045 101.388 117.295 102.085 115.271 102.085C113.247 102.085 110.528 101.388 110.018 99.1612C109.57 97.1617 109.014 95.026 108.705 93.0114C108.643 92.5872 109.106 92.254 109.508 92.4661C111.084 93.3598 113.494 93.3598 115.271 93.3598Z" fill="#6D6E70"/>
<path fill-rule="evenodd" clip-rule="evenodd" d="M115.271 93.3598C117.048 93.3598 119.442 93.3901 120.987 92.4964C121.389 92.2692 121.899 92.557 121.837 93.0114C121.528 95.0714 120.956 97.1011 120.524 99.146C120.045 101.388 117.295 102.085 115.271 102.085C113.247 102.085 110.528 101.388 110.018 99.1612C109.57 97.1617 109.014 95.026 108.705 93.0114C108.643 92.5872 109.106 92.254 109.508 92.4661C111.084 93.3598 113.494 93.3598 115.271 93.3598Z" stroke="black" stroke-width="2.97443" mask="url(#path-39-outside-8_1233_2887)"/>
<path d="M120.988 92.4964C119.443 93.3901 117.048 93.3598 115.271 93.3598V102.085C117.295 102.085 120.045 101.388 120.524 99.146C120.957 97.1012 121.529 95.0714 121.838 93.0114C121.899 92.557 121.39 92.2692 120.988 92.4964Z" fill="#404041"/>
<path d="M108.705 93.0114C109.014 95.026 109.57 97.1617 110.018 99.1612L109.508 93.438L111.12 93.0921L109.508 92.4661C109.106 92.254 108.643 92.5872 108.705 93.0114Z" fill="#BBBDBF"/>
<path d="M121.836 93.0114C121.527 95.026 120.971 97.1617 120.523 99.1612L121.033 93.438L119.421 93.0921L121.033 92.4661C121.435 92.254 121.898 92.5872 121.836 93.0114Z" fill="#BBBDBF"/>
<path d="M119.42 93.7842C117.955 93.9409 116.452 94.2496 115.17 94.2496C113.949 94.2496 112.526 93.9293 111.119 93.7842C111.119 93.7842 113.511 95.1431 115.17 95.1673C116.903 95.1926 119.42 93.7842 119.42 93.7842Z" fill="white"/>
<path d="M107.605 89.7854C107.605 89.7854 107.603 89.7026 107.602 89.5444C107.6 89.7574 107.599 90.1178 107.601 90.6063L106.865 91.4006C106.856 90.8019 106.85 90.193 106.848 89.5741C106.848 89.6285 106.847 89.683 106.847 89.7376L106.847 90.3205C106.847 90.1252 106.847 89.9309 106.847 89.7376L106.847 89.4194C106.847 89.2092 106.847 88.9979 106.847 88.7854L106.847 89.4194C106.847 89.471 106.848 89.5226 106.848 89.5741C106.904 70.9815 110.509 61.5057 110.509 61.5057C107.586 73.2265 107.587 87.5264 107.602 89.5444C107.603 89.3973 107.605 89.3205 107.605 89.3205L107.605 89.7854Z" fill="white"/>
<path d="M123.02 89.7854C123.02 89.7854 123.022 89.7026 123.023 89.5444C123.025 89.7574 123.026 90.1178 123.024 90.6063L123.76 91.4006C123.769 90.8019 123.775 90.193 123.777 89.5741C123.777 89.6285 123.778 89.683 123.778 89.7376L123.778 90.3205C123.778 90.1252 123.778 89.9309 123.778 89.7376L123.778 89.4194C123.778 89.2092 123.778 88.9979 123.778 88.7854L123.778 89.4194C123.778 89.471 123.777 89.5226 123.777 89.5741C123.721 70.9815 120.116 61.5057 120.116 61.5057C123.039 73.2265 123.038 87.5264 123.023 89.5444C123.022 89.3973 123.02 89.3205 123.02 89.3205L123.02 89.7854Z" fill="white"/>
<path d="M119.672 88.4753C119.497 89.5477 118.994 90.3562 118.548 90.2837C118.102 90.2113 117.882 89.2837 118.06 88.2113C118.237 87.1388 118.74 86.3304 119.183 86.4052C119.627 86.48 119.849 87.4052 119.672 88.4753Z" fill="white"/>
<path d="M112.149 87.3101C112.622 87.3101 113.006 86.8917 113.006 86.3755C113.006 85.8593 112.622 85.4409 112.149 85.4409C111.675 85.4409 111.291 85.8593 111.291 86.3755C111.291 86.8917 111.675 87.3101 112.149 87.3101Z" fill="white"/>
<path d="M113.599 89.5319C113.874 89.5319 114.097 89.3091 114.097 89.0343C114.097 88.7594 113.874 88.5366 113.599 88.5366C113.324 88.5366 113.102 88.7594 113.102 89.0343C113.102 89.3091 113.324 89.5319 113.599 89.5319Z" fill="white"/>
<path d="M118.72 70.459C119.084 72.9812 119.013 75.0783 118.564 75.1423C118.115 75.2063 117.46 73.2146 117.099 70.6928C116.737 68.171 116.804 66.073 117.255 66.0095C117.706 65.9459 118.357 67.9367 118.72 70.459Z" fill="white"/>
<path d="M119.505 78.3851C119.465 79.4708 119.069 80.3384 118.618 80.3213C118.167 80.3042 117.836 79.4133 117.871 78.3267C117.907 77.2402 118.307 76.3758 118.758 76.3929C119.208 76.41 119.544 77.3017 119.505 78.3851Z" fill="white"/>
<path d="M115.967 60.3184C115.967 60.3184 117.068 62.5023 116.268 65.9587C116.268 65.9587 114.778 63.7408 115.967 60.3184Z" fill="white"/>
</svg>
