<svg width="230" height="230" viewBox="0 0 230 230" fill="none" xmlns="http://www.w3.org/2000/svg">
<mask id="path-1-outside-1_1233_2887" maskUnits="userSpaceOnUse" x="107.67" y="21.3994" width="15" height="33" fill="black">
<rect fill="white" x="107.67" y="21.3994" width="15" height="33"/>
<path fill-rule="evenodd" clip-rule="evenodd" d="M115.277 23.3994C114.723 23.3994 112.619 28.6742 112.619 31.5401V37.078C111.137 38.0887 109.67 39.487 109.67 40.4284C109.67 44.3049 109.67 48.1815 109.67 52.058C113.408 52.058 117.16 52.058 120.898 52.058C120.898 48.1815 120.898 44.3049 120.898 40.4284C120.898 39.487 119.417 38.0887 117.949 37.078V31.5401C117.935 28.6604 115.831 23.3994 115.277 23.3994Z"/>
</mask>
<path fill-rule="evenodd" clip-rule="evenodd" d="M115.277 23.3994C114.723 23.3994 112.619 28.6742 112.619 31.5401V37.078C111.137 38.0887 109.67 39.487 109.67 40.4284C109.67 44.3049 109.67 48.1815 109.67 52.058C113.408 52.058 117.16 52.058 120.898 52.058C120.898 48.1815 120.898 44.3049 120.898 40.4284C120.898 39.487 119.417 38.0887 117.949 37.078V31.5401C117.935 28.6604 115.831 23.3994 115.277 23.3994Z" fill="#6D6E70"/>
<path fill-rule="evenodd" clip-rule="evenodd" d="M115.277 23.3994C114.723 23.3994 112.619 28.6742 112.619 31.5401V37.078C111.137 38.0887 109.67 39.487 109.67 40.4284C109.67 44.3049 109.67 48.1815 109.67 52.058C113.408 52.058 117.16 52.058 120.898 52.058C120.898 48.1815 120.898 44.3049 120.898 40.4284C120.898 39.487 119.417 38.0887 117.949 37.078V31.5401C117.935 28.6604 115.831 23.3994 115.277 23.3994Z" stroke="black" stroke-width="3" mask="url(#path-1-outside-1_1233_2887)"/>
<path d="M112.702 28.3984H117.951V28.7582H112.702V28.3984Z" fill="#BBBDBF"/>
<path d="M112.702 30.2246H117.951V30.5844H112.702V30.2246Z" fill="#BBBDBF"/>
<path d="M112.702 32.0654H117.951V32.4252H112.702V32.0654Z" fill="#BBBDBF"/>
<path d="M112.702 33.8921H117.951V34.2518H112.702V33.8921Z" fill="#BBBDBF"/>
<path d="M112.702 35.7324H117.951V36.0922H112.702V35.7324Z" fill="#BBBDBF"/>
<mask id="path-7-outside-2_1233_2887" maskUnits="userSpaceOnUse" x="107.67" y="21.3994" width="15" height="33" fill="black">
<rect fill="white" x="107.67" y="21.3994" width="15" height="33"/>
<path fill-rule="evenodd" clip-rule="evenodd" d="M115.277 23.3994C114.723 23.3994 112.619 28.6742 112.619 31.5401V37.078C111.137 38.0887 109.67 39.487 109.67 40.4284C109.67 44.3049 109.67 48.1815 109.67 52.058C113.408 52.058 117.16 52.058 120.898 52.058C120.898 48.1815 120.898 44.3049 120.898 40.4284C120.898 39.487 119.417 38.0887 117.949 37.078V31.5401C117.935 28.6604 115.831 23.3994 115.277 23.3994Z"/>
</mask>
<path fill-rule="evenodd" clip-rule="evenodd" d="M115.277 23.3994C114.723 23.3994 112.619 28.6742 112.619 31.5401V37.078C111.137 38.0887 109.67 39.487 109.67 40.4284C109.67 44.3049 109.67 48.1815 109.67 52.058C113.408 52.058 117.16 52.058 120.898 52.058C120.898 48.1815 120.898 44.3049 120.898 40.4284C120.898 39.487 119.417 38.0887 117.949 37.078V31.5401C117.935 28.6604 115.831 23.3994 115.277 23.3994Z" stroke="black" stroke-width="3" mask="url(#path-7-outside-2_1233_2887)"/>
<path d="M112.619 31.5401C112.619 28.6742 114.723 23.3994 115.277 23.3994V52.058H109.67V40.4284C109.67 39.487 111.137 38.0887 112.619 37.078V31.5401Z" fill="#BBBDBF"/>
<mask id="path-9-outside-3_1233_2887" maskUnits="userSpaceOnUse" x="80" y="45.3994" width="34" height="39" fill="black">
<rect fill="white" x="80" y="45.3994" width="34" height="39"/>
<path d="M111.656 50.0077C112.141 48.071 109.8 46.6981 108.346 48.0655L82 72.8387V81.25L106.299 71.4369L111.656 50.0077Z"/>
</mask>
<path d="M111.656 50.0077C112.141 48.071 109.8 46.6981 108.346 48.0655L82 72.8387V81.25L106.299 71.4369L111.656 50.0077Z" fill="#6D6E70"/>
<path d="M111.656 50.0077C112.141 48.071 109.8 46.6981 108.346 48.0655L82 72.8387V81.25L106.299 71.4369L111.656 50.0077Z" stroke="black" stroke-width="3" mask="url(#path-9-outside-3_1233_2887)"/>
<path d="M82 72.8387L113.308 43.3994L84 73.8994L82 81.25V72.8387Z" fill="white"/>
<path d="M113.308 43.3994L106.299 71.4369L97.5 74.9904L102.5 53.5626L113.308 43.3994Z" fill="#404041"/>
<path d="M102.526 68.7989L102.241 72.2788L99.5635 73.5481L101.617 71.565L102.526 68.7989Z" fill="white"/>
<mask id="path-13-outside-4_1233_2887" maskUnits="userSpaceOnUse" x="86.5859" y="59.4614" width="37" height="46" fill="black">
<rect fill="white" x="86.5859" y="59.4614" width="37" height="46"/>
<path d="M119.894 64.4614L88.5859 93.9007V102.312L112.885 92.4989L119.894 64.4614Z"/>
</mask>
<path d="M119.894 64.4614L88.5859 93.9007V102.312L112.885 92.4989L119.894 64.4614Z" fill="#6D6E70"/>
<path d="M119.894 64.4614L88.5859 93.9007V102.312L112.885 92.4989L119.894 64.4614Z" stroke="black" stroke-width="3" mask="url(#path-13-outside-4_1233_2887)"/>
<path d="M88.5859 93.9007L119.894 64.4614L90.4993 94.3994L88.5859 102.312V93.9007Z" fill="white"/>
<path d="M119.895 64.4614L112.885 92.4989L96.5996 99.1124L99.9996 83.1688L119.895 64.4614Z" fill="#404041"/>
<path d="M101.325 93.0919L101.04 96.5718L98.3623 97.8411L100.416 95.858L101.325 93.0919Z" fill="white"/>
<mask id="path-17-outside-5_1233_2887" maskUnits="userSpaceOnUse" x="116.695" y="45.3994" width="34" height="39" fill="black">
<rect fill="white" x="116.695" y="45.3994" width="34" height="39"/>
<path d="M119.039 50.0077C118.555 48.071 120.895 46.6981 122.349 48.0655L148.695 72.8387V81.25L124.396 71.4369L119.039 50.0077Z"/>
</mask>
<path d="M119.039 50.0077C118.555 48.071 120.895 46.6981 122.349 48.0655L148.695 72.8387V81.25L124.396 71.4369L119.039 50.0077Z" fill="#6D6E70"/>
<path d="M119.039 50.0077C118.555 48.071 120.895 46.6981 122.349 48.0655L148.695 72.8387V81.25L124.396 71.4369L119.039 50.0077Z" stroke="black" stroke-width="3" mask="url(#path-17-outside-5_1233_2887)"/>
<path d="M148.695 72.8387L117.387 43.3994L146.695 73.8994L148.695 81.25V72.8387Z" fill="white"/>
<path d="M117.387 43.3994L124.396 71.4369L133.195 74.9904L128.195 53.5626L117.387 43.3994Z" fill="#404041"/>
<mask id="path-20-outside-6_1233_2887" maskUnits="userSpaceOnUse" x="107.109" y="59.4614" width="37" height="46" fill="black">
<rect fill="white" x="107.109" y="59.4614" width="37" height="46"/>
<path d="M110.801 64.4614L142.109 93.9007V102.312L117.81 92.4989L110.801 64.4614Z"/>
</mask>
<path d="M110.801 64.4614L142.109 93.9007V102.312L117.81 92.4989L110.801 64.4614Z" fill="#6D6E70"/>
<path d="M110.801 64.4614L142.109 93.9007V102.312L117.81 92.4989L110.801 64.4614Z" stroke="black" stroke-width="3" mask="url(#path-20-outside-6_1233_2887)"/>
<path d="M142.109 93.9007L110.801 64.4614L140.196 94.3994L142.109 102.312V93.9007Z" fill="white"/>
<path d="M110.801 64.4614L117.81 92.4989L134.096 99.1124L130.696 83.1688L110.801 64.4614Z" fill="#404041"/>
<path d="M128.072 68.7989L128.357 72.2788L131.034 73.5481L128.981 71.565L128.072 68.7989Z" fill="white"/>
<path d="M129.373 93.0919L129.658 96.5718L132.335 97.8411L130.282 95.858L129.373 93.0919Z" fill="white"/>
<mask id="path-25-outside-7_1233_2887" maskUnits="userSpaceOnUse" x="95.5" y="39.979" width="40" height="101" fill="black">
<rect fill="white" x="95.5" y="39.979" width="40" height="101"/>
<path d="M112.84 49.026C112.826 50.2166 112.549 52.058 115.277 52.058C118.004 52.058 117.727 50.2166 117.741 49.026V41.979C119.444 41.979 122.808 42.2697 123.113 44.4711C126.602 69.3915 127.571 85.4237 127.585 110.773C127.585 111.272 127.751 111.687 128.097 112.047C129.758 113.764 131.42 115.467 133.081 117.183V129.353C131.433 131.471 129.786 133.603 128.138 135.722C128.138 140.094 102.459 140.074 102.431 135.707C100.787 133.593 99.1436 131.466 97.5 129.353V117.183C99.1614 115.467 100.823 113.764 102.484 112.047C102.83 111.687 102.996 111.272 102.996 110.773C103.01 85.4099 103.979 69.3915 107.468 44.4711C107.773 42.2697 111.137 41.979 112.84 41.979V49.026Z"/>
</mask>
<path d="M112.84 49.026C112.826 50.2166 112.549 52.058 115.277 52.058C118.004 52.058 117.727 50.2166 117.741 49.026V41.979C119.444 41.979 122.808 42.2697 123.113 44.4711C126.602 69.3915 127.571 85.4237 127.585 110.773C127.585 111.272 127.751 111.687 128.097 112.047C129.758 113.764 131.42 115.467 133.081 117.183V129.353C131.433 131.471 129.786 133.603 128.138 135.722C128.138 140.094 102.459 140.074 102.431 135.707C100.787 133.593 99.1436 131.466 97.5 129.353V117.183C99.1614 115.467 100.823 113.764 102.484 112.047C102.83 111.687 102.996 111.272 102.996 110.773C103.01 85.4099 103.979 69.3915 107.468 44.4711C107.773 42.2697 111.137 41.979 112.84 41.979V49.026Z" fill="#6D6E70"/>
<path d="M102.431 135.707L101.681 135.711L101.683 135.966L101.839 136.167L102.431 135.707ZM101.839 136.167C101.841 136.169 101.843 136.172 101.845 136.174C101.847 136.177 101.849 136.179 101.851 136.182L103.035 135.261C103.033 135.259 103.031 135.256 103.029 135.254C103.027 135.251 103.025 135.249 103.023 135.246L101.839 136.167ZM101.681 135.699C101.681 135.704 101.681 135.708 101.681 135.711L103.181 135.702C103.181 135.701 103.181 135.7 103.181 135.699H101.681ZM112.84 49.026L114.34 49.0434L114.34 49.0347V49.026H112.84ZM112.84 41.979H114.34V40.479H112.84V41.979ZM107.468 44.4711L108.954 44.679L108.954 44.6766L107.468 44.4711ZM102.996 110.773L101.496 110.773V110.773H102.996ZM102.484 112.047L103.562 113.09L103.565 113.087L102.484 112.047ZM97.5 117.183L96.4221 116.14L96 116.577V117.183H97.5ZM97.5 129.353H96V129.868L96.316 130.274L97.5 129.353ZM102.431 135.707L103.931 135.697L103.928 135.188L103.615 134.786L102.431 135.707ZM128.138 135.722L126.954 134.801L126.638 135.207V135.722H128.138ZM133.081 129.353L134.265 130.274L134.581 129.868V129.353H133.081ZM133.081 117.183H134.581V116.577L134.159 116.14L133.081 117.183ZM128.097 112.047L127.016 113.087L127.019 113.09L128.097 112.047ZM127.585 110.773L129.085 110.773L129.085 110.773L127.585 110.773ZM123.113 44.4711L121.627 44.6766L121.627 44.679L123.113 44.4711ZM117.741 41.979V40.479H116.241V41.979H117.741ZM117.741 49.026L119.241 49.0434L119.241 49.0347V49.026H117.741ZM115.277 50.558C114.751 50.558 114.523 50.4674 114.451 50.4291C114.411 50.4075 114.412 50.4038 114.402 50.3807C114.376 50.3218 114.341 50.1932 114.33 49.9372C114.317 49.6482 114.335 49.44 114.34 49.0434L111.34 49.0085C111.338 49.2072 111.316 49.6757 111.333 50.0668C111.351 50.491 111.415 51.0459 111.659 51.5962C111.919 52.1823 112.361 52.7133 113.036 53.0742C113.679 53.4183 114.439 53.558 115.277 53.558V50.558ZM114.34 49.026V41.979H111.34V49.026H114.34ZM112.84 40.479C111.937 40.479 110.487 40.5522 109.174 40.9703C107.914 41.3718 106.257 42.2809 105.982 44.2655L108.954 44.6766C108.984 44.4599 109.161 44.1229 110.085 43.8288C110.956 43.5512 112.04 43.479 112.84 43.479V40.479ZM105.983 44.2631C102.483 69.2596 101.51 85.3476 101.496 110.773L104.496 110.774C104.51 85.4721 105.475 69.5235 108.954 44.679L105.983 44.2631ZM101.496 110.773C101.496 110.852 101.484 110.888 101.478 110.903C101.472 110.918 101.456 110.952 101.403 111.007L103.565 113.087C104.182 112.446 104.496 111.657 104.496 110.773H101.496ZM101.406 111.004C100.577 111.861 99.7471 112.715 98.9163 113.57C98.0857 114.425 97.254 115.281 96.4221 116.14L98.5779 118.227C99.4074 117.37 100.237 116.516 101.068 115.661C101.898 114.806 102.73 113.95 103.562 113.09L101.406 111.004ZM96 117.183V129.353H99V117.183H96ZM96.316 130.274C97.1369 131.329 97.958 132.389 98.78 133.449C99.6016 134.509 100.424 135.57 101.247 136.627L103.615 134.786C102.794 133.73 101.973 132.671 101.151 131.611C100.329 130.551 99.5067 129.49 98.684 128.432L96.316 130.274ZM129.322 136.642C130.147 135.582 130.971 134.519 131.795 133.456C132.619 132.394 133.442 131.332 134.265 130.274L131.897 128.432C131.072 129.492 130.248 130.556 129.424 131.618C128.6 132.681 127.777 133.743 126.954 134.801L129.322 136.642ZM134.581 129.353V117.183H131.581V129.353H134.581ZM134.159 116.14C133.327 115.281 132.495 114.425 131.665 113.57C130.834 112.715 130.004 111.861 129.175 111.004L127.019 113.09C127.851 113.95 128.683 114.806 129.513 115.661C130.344 116.516 131.174 117.37 132.003 118.227L134.159 116.14ZM129.178 111.007C129.125 110.952 129.109 110.918 129.103 110.903C129.097 110.888 129.085 110.852 129.085 110.773H126.085C126.085 111.657 126.399 112.446 127.016 113.087L129.178 111.007ZM129.085 110.773C129.071 85.3615 128.098 69.2596 124.598 44.2631L121.627 44.679C125.105 69.5235 126.071 85.4859 126.085 110.774L129.085 110.773ZM124.599 44.2655C124.324 42.2809 122.667 41.3718 121.406 40.9703C120.094 40.5522 118.644 40.479 117.741 40.479V43.479C118.541 43.479 119.625 43.5512 120.496 43.8288C121.419 44.1229 121.597 44.4599 121.627 44.6766L124.599 44.2655ZM116.241 41.979V49.026H119.241V41.979H116.241ZM116.241 49.0085C116.236 49.4319 116.253 49.6092 116.236 49.9201C116.222 50.1802 116.186 50.3118 116.158 50.3742C116.146 50.4009 116.145 50.4065 116.103 50.4287C116.031 50.4675 115.802 50.558 115.277 50.558V53.558C116.115 53.558 116.874 53.4182 117.517 53.0746C118.191 52.7143 118.633 52.1851 118.895 51.6027C119.14 51.0559 119.208 50.504 119.231 50.084C119.252 49.7147 119.239 49.2154 119.241 49.0434L116.241 49.0085ZM100.931 135.716C100.94 137.084 101.951 137.95 102.789 138.437C103.686 138.959 104.861 139.342 106.127 139.629C108.684 140.21 112.017 140.489 115.294 140.492C118.571 140.494 121.902 140.219 124.456 139.641C125.721 139.355 126.895 138.973 127.79 138.451C128.629 137.963 129.638 137.093 129.638 135.722H126.638C126.638 135.443 126.846 135.529 126.279 135.86C125.77 136.157 124.938 136.456 123.794 136.715C121.533 137.227 118.443 137.494 115.296 137.492C112.15 137.49 109.057 137.218 106.792 136.704C105.646 136.444 104.811 136.143 104.298 135.844C103.726 135.512 103.929 135.421 103.931 135.697L100.931 135.716Z" fill="black" mask="url(#path-25-outside-7_1233_2887)"/>
<path d="M102.996 110.774C103.01 85.4101 103.979 69.3918 107.468 44.4713C107.563 43.7859 107.954 43.2857 108.5 42.9219C107.986 52.8926 106.145 67.3084 105.477 80.3996C104.63 97.0041 104.8 113.4 104.8 113.4L99.5 118.4V131.4L103 136.4C101.352 134.281 99.1475 131.471 97.5 129.353V117.184C99.1614 115.467 100.823 113.764 102.484 112.047C102.83 111.687 102.996 111.272 102.996 110.774Z" fill="#BBBDBF"/>
<path d="M133.082 129.353C131.434 131.471 129.787 133.603 128.139 135.722C128.139 137.91 121.707 138.998 115.277 138.992V52.058C118.005 52.058 117.728 50.2166 117.742 49.026V41.979C119.445 41.979 122.809 42.2697 123.113 44.4711C126.602 69.3915 127.571 85.4237 127.585 110.773C127.585 111.272 127.751 111.687 128.098 112.047C129.759 113.764 131.42 115.467 133.082 117.183V129.353Z" fill="#404041"/>
<path d="M127.603 110.774C127.589 85.4101 126.62 69.3918 123.131 44.4713C123.037 43.7859 122.645 43.2857 122.1 42.9219C122.614 52.8926 124.455 67.3084 125.123 80.3996C125.97 97.0041 125.8 113.4 125.8 113.4L131.8 117.9V130.4L128.157 135.722C129.805 133.604 131.452 131.471 133.1 129.353V117.184C131.438 115.467 129.777 113.764 128.116 112.047C127.769 111.687 127.603 111.272 127.603 110.774Z" fill="#231F20"/>
<path d="M97 129.399C97.0143 131.642 106.639 133.735 116 133.675C124.868 133.618 133.5 131.527 133.5 129.399" stroke="black"/>
<path d="M97 116.399C97.0143 118.642 106.639 120.735 116 120.675C124.868 120.618 133.5 118.527 133.5 116.399" stroke="black"/>
<path d="M102.5 111.399C102.528 115.767 128 115.772 128 111.399" stroke="black"/>
<mask id="path-33-inside-8_1233_2887" fill="white">
<path fill-rule="evenodd" clip-rule="evenodd" d="M115.319 122.899H110.197C109.186 122.899 108.369 123.716 108.369 124.726V128.88C108.369 129.891 109.186 130.707 110.197 130.707H115.319H120.442C121.452 130.707 122.269 129.891 122.269 128.88V124.726C122.269 123.716 121.452 122.899 120.442 122.899H115.319Z"/>
</mask>
<path fill-rule="evenodd" clip-rule="evenodd" d="M115.319 122.899H110.197C109.186 122.899 108.369 123.716 108.369 124.726V128.88C108.369 129.891 109.186 130.707 110.197 130.707H115.319H120.442C121.452 130.707 122.269 129.891 122.269 128.88V124.726C122.269 123.716 121.452 122.899 120.442 122.899H115.319Z" fill="#6D6E70" stroke="black" stroke-width="2" mask="url(#path-33-inside-8_1233_2887)"/>
<path d="M107.35 49.7228C107.35 49.7228 107.839 45.0608 108.219 44.23C108.599 43.3992 111.085 42.8899 111.085 42.8899L108.899 44.6992L107.35 49.7228Z" fill="white"/>
<path d="M123.134 49.7228C123.134 49.7228 122.646 45.0608 122.265 44.23C121.885 43.3992 119.4 42.8899 119.4 42.8899L121.585 44.6992L123.134 49.7228Z" fill="white"/>
<path d="M103.984 105.859L103.915 111.358L107.926 112.645L105 110.331L103.984 105.859Z" fill="white"/>
<path d="M126.942 105.858L127.01 111.357L123 112.644L125.926 110.33L126.942 105.858Z" fill="white"/>
<rect x="102.35" y="123.55" width="1.7" height="4.3" rx="0.65" fill="black" stroke="black" stroke-width="0.3"/>
<rect x="102.301" y="123.7" width="1.4" height="4" rx="0.5" fill="#9E3E63"/>
<path fill-rule="evenodd" clip-rule="evenodd" d="M102.677 124.406H103.059C103.215 124.406 103.345 124.47 103.345 124.547V127.195C103.345 127.271 103.215 127.335 103.059 127.335H102.677C102.521 127.335 102.391 127.271 102.391 127.195V124.55C102.391 124.47 102.521 124.406 102.677 124.406Z" fill="#F39DB1"/>
<path d="M103.026 124.508C103.114 124.508 103.185 124.44 103.185 124.356C103.185 124.272 103.114 124.205 103.026 124.205C102.938 124.205 102.867 124.272 102.867 124.356C102.867 124.44 102.938 124.508 103.026 124.508Z" fill="white"/>
<path d="M102.549 126.958V125.652C102.549 125.538 102.75 125.356 103.069 125.176C103.103 125.154 103.142 125.133 103.185 125.113C103.145 125.134 103.106 125.155 103.069 125.176C102.825 125.334 102.793 125.552 102.812 125.652L102.812 126.958C102.793 127.058 102.921 127.184 103.35 127.255C103 127.255 102.549 127.072 102.549 126.958Z" fill="white"/>
<rect x="126.35" y="123.55" width="1.7" height="4.3" rx="0.65" fill="black" stroke="black" stroke-width="0.3"/>
<rect x="126.699" y="123.7" width="1.4" height="4" rx="0.5" fill="#9E3E63"/>
<path fill-rule="evenodd" clip-rule="evenodd" d="M127.075 124.406H127.457C127.613 124.406 127.743 124.47 127.743 124.547V127.195C127.743 127.271 127.613 127.335 127.457 127.335H127.075C126.919 127.335 126.789 127.271 126.789 127.195V124.55C126.789 124.47 126.919 124.406 127.075 124.406Z" fill="#F39DB1"/>
<path d="M127.425 124.508C127.513 124.508 127.584 124.44 127.584 124.356C127.584 124.272 127.513 124.205 127.425 124.205C127.337 124.205 127.266 124.272 127.266 124.356C127.266 124.44 127.337 124.508 127.425 124.508Z" fill="white"/>
<path d="M126.947 126.958V125.652C126.947 125.538 127.149 125.356 127.467 125.176C127.502 125.154 127.54 125.133 127.584 125.113C127.543 125.134 127.504 125.155 127.467 125.176C127.224 125.334 127.192 125.552 127.21 125.652L127.21 126.958C127.192 127.058 127.319 127.184 127.749 127.255C127.399 127.255 126.947 127.072 126.947 126.958Z" fill="white"/>
<mask id="path-48-outside-9_1233_2887" maskUnits="userSpaceOnUse" x="108.5" y="57.3994" width="14" height="41" fill="black">
<rect fill="white" x="108.5" y="57.3994" width="14" height="41"/>
<path fill-rule="evenodd" clip-rule="evenodd" d="M111.065 67.3708C111.992 61.9575 113.391 58.3994 115.315 58.3994C117.239 58.3994 118.638 61.9437 119.565 67.3708C120.618 73.5317 121.13 82.1985 121.13 90.7407C121.13 91.8482 120.244 93.4127 119.025 94.631C117.932 95.7248 116.547 96.5693 115.315 96.5693C114.069 96.5693 112.698 95.7386 111.605 94.631C110.386 93.4127 109.5 91.8482 109.5 90.7407C109.486 82.1846 109.999 73.5317 111.065 67.3708Z"/>
</mask>
<path fill-rule="evenodd" clip-rule="evenodd" d="M111.065 67.3708C111.992 61.9575 113.391 58.3994 115.315 58.3994C117.239 58.3994 118.638 61.9437 119.565 67.3708C120.618 73.5317 121.13 82.1985 121.13 90.7407C121.13 91.8482 120.244 93.4127 119.025 94.631C117.932 95.7248 116.547 96.5693 115.315 96.5693C114.069 96.5693 112.698 95.7386 111.605 94.631C110.386 93.4127 109.5 91.8482 109.5 90.7407C109.486 82.1846 109.999 73.5317 111.065 67.3708Z" fill="#AA3964"/>
<path fill-rule="evenodd" clip-rule="evenodd" d="M111.065 67.3708C111.992 61.9575 113.391 58.3994 115.315 58.3994C117.239 58.3994 118.638 61.9437 119.565 67.3708C120.618 73.5317 121.13 82.1985 121.13 90.7407C121.13 91.8482 120.244 93.4127 119.025 94.631C117.932 95.7248 116.547 96.5693 115.315 96.5693C114.069 96.5693 112.698 95.7386 111.605 94.631C110.386 93.4127 109.5 91.8482 109.5 90.7407C109.486 82.1846 109.999 73.5317 111.065 67.3708Z" stroke="black" stroke-width="2" mask="url(#path-48-outside-9_1233_2887)"/>
<path fill-rule="evenodd" clip-rule="evenodd" d="M115.319 65.9194C114.004 65.9194 113.672 66.5286 113.049 68.7991C111.872 73.0772 111.18 80.7333 112.329 85.4959C112.869 87.7664 113.519 88.3756 115.333 88.3756C117.133 88.3756 117.783 87.7802 118.337 85.4959C119.473 80.7333 118.78 73.0772 117.617 68.7991C116.967 66.5286 116.634 65.9194 115.319 65.9194Z" fill="#DB5C87"/>
<path d="M115 59.5996C113.345 59.5996 112.143 62.8999 111.345 67.9209C110.429 73.6353 109.988 81.6613 110 89.5973C110 90.1749 110.241 90.8865 110.638 91.5996C109.986 88.3532 110.784 75.3152 111.72 70.2663C112.58 65.6286 114.336 60.664 115 59.5996Z" fill="white"/>
<mask id="path-51-outside-10_1233_2887" maskUnits="userSpaceOnUse" x="106.699" y="90.3994" width="17" height="14" fill="black">
<rect fill="white" x="106.699" y="90.3994" width="17" height="14"/>
<path fill-rule="evenodd" clip-rule="evenodd" d="M115.271 93.3588C117.048 93.3588 119.442 93.3891 120.987 92.4954C121.389 92.2682 121.899 92.556 121.837 93.0104C121.528 95.0704 120.956 97.1002 120.524 99.145C120.045 101.387 117.295 102.084 115.271 102.084C113.247 102.084 110.528 101.387 110.018 99.1602C109.57 97.1607 109.014 95.025 108.705 93.0104C108.643 92.5863 109.106 92.253 109.508 92.4651C111.084 93.3588 113.494 93.3588 115.271 93.3588Z"/>
</mask>
<path fill-rule="evenodd" clip-rule="evenodd" d="M115.271 93.3588C117.048 93.3588 119.442 93.3891 120.987 92.4954C121.389 92.2682 121.899 92.556 121.837 93.0104C121.528 95.0704 120.956 97.1002 120.524 99.145C120.045 101.387 117.295 102.084 115.271 102.084C113.247 102.084 110.528 101.387 110.018 99.1602C109.57 97.1607 109.014 95.025 108.705 93.0104C108.643 92.5863 109.106 92.253 109.508 92.4651C111.084 93.3588 113.494 93.3588 115.271 93.3588Z" fill="#6D6E70"/>
<path fill-rule="evenodd" clip-rule="evenodd" d="M115.271 93.3588C117.048 93.3588 119.442 93.3891 120.987 92.4954C121.389 92.2682 121.899 92.556 121.837 93.0104C121.528 95.0704 120.956 97.1002 120.524 99.145C120.045 101.387 117.295 102.084 115.271 102.084C113.247 102.084 110.528 101.387 110.018 99.1602C109.57 97.1607 109.014 95.025 108.705 93.0104C108.643 92.5863 109.106 92.253 109.508 92.4651C111.084 93.3588 113.494 93.3588 115.271 93.3588Z" stroke="black" stroke-width="2.97443" mask="url(#path-51-outside-10_1233_2887)"/>
<path d="M120.988 92.4954C119.443 93.3891 117.048 93.3588 115.271 93.3588V102.084C117.295 102.084 120.045 101.387 120.524 99.1451C120.957 97.1002 121.529 95.0705 121.838 93.0104C121.899 92.556 121.39 92.2682 120.988 92.4954Z" fill="#404041"/>
<path d="M108.705 93.0104C109.014 95.025 109.57 97.1607 110.018 99.1602L109.508 93.437L111.12 93.0911L109.508 92.4651C109.106 92.253 108.643 92.5863 108.705 93.0104Z" fill="#BBBDBF"/>
<path d="M121.836 93.0104C121.527 95.025 120.971 97.1607 120.523 99.1602L121.033 93.437L119.421 93.0911L121.033 92.4651C121.435 92.253 121.898 92.5863 121.836 93.0104Z" fill="#BBBDBF"/>
<path d="M119.42 93.7832C117.955 93.94 116.452 94.2486 115.17 94.2486C113.949 94.2486 112.526 93.9283 111.119 93.7832C111.119 93.7832 113.511 95.1421 115.17 95.1663C116.903 95.1916 119.42 93.7832 119.42 93.7832Z" fill="white"/>
<path d="M107.605 89.7844C107.605 89.7844 107.603 89.7017 107.602 89.5434C107.6 89.7564 107.599 90.1169 107.601 90.6054L106.865 91.3997C106.856 90.8009 106.85 90.1921 106.848 89.5731C106.848 89.6275 106.847 89.682 106.847 89.7366L106.847 90.3195C106.847 90.1242 106.847 89.9299 106.847 89.7366L106.847 89.4184C106.847 89.2082 106.847 88.9969 106.847 88.7844L106.847 89.4184C106.847 89.4701 106.848 89.5216 106.848 89.5731C106.904 70.9805 110.509 61.5047 110.509 61.5047C107.586 73.2256 107.587 87.5255 107.602 89.5434C107.603 89.3963 107.605 89.3195 107.605 89.3195L107.605 89.7844Z" fill="white"/>
<path d="M123.02 89.7844C123.02 89.7844 123.022 89.7017 123.023 89.5434C123.025 89.7564 123.026 90.1169 123.024 90.6054L123.76 91.3997C123.769 90.8009 123.775 90.1921 123.777 89.5731C123.777 89.6275 123.778 89.682 123.778 89.7366L123.778 90.3195C123.778 90.1242 123.778 89.9299 123.778 89.7366L123.778 89.4184C123.778 89.2082 123.778 88.9969 123.778 88.7844L123.778 89.4184C123.778 89.4701 123.777 89.5216 123.777 89.5731C123.721 70.9805 120.116 61.5047 120.116 61.5047C123.039 73.2256 123.038 87.5255 123.023 89.5434C123.022 89.3963 123.02 89.3195 123.02 89.3195L123.02 89.7844Z" fill="white"/>
<path d="M119.672 88.4743C119.497 89.5467 118.994 90.3552 118.548 90.2827C118.102 90.2103 117.882 89.2827 118.06 88.2103C118.237 87.1379 118.74 86.3294 119.183 86.4042C119.627 86.479 119.849 87.4042 119.672 88.4743Z" fill="white"/>
<path d="M112.149 87.3091C112.622 87.3091 113.006 86.8907 113.006 86.3745C113.006 85.8584 112.622 85.4399 112.149 85.4399C111.675 85.4399 111.291 85.8584 111.291 86.3745C111.291 86.8907 111.675 87.3091 112.149 87.3091Z" fill="white"/>
<path d="M113.599 89.5309C113.874 89.5309 114.097 89.3081 114.097 89.0333C114.097 88.7584 113.874 88.5356 113.599 88.5356C113.324 88.5356 113.102 88.7584 113.102 89.0333C113.102 89.3081 113.324 89.5309 113.599 89.5309Z" fill="white"/>
<path d="M118.72 70.458C119.084 72.9803 119.013 75.0774 118.564 75.1413C118.115 75.2053 117.46 73.2136 117.099 70.6918C116.737 68.17 116.804 66.072 117.255 66.0085C117.706 65.9449 118.357 67.9358 118.72 70.458Z" fill="white"/>
<path d="M119.505 78.3841C119.465 79.4698 119.069 80.3374 118.618 80.3203C118.167 80.3032 117.836 79.4123 117.871 78.3257C117.907 77.2392 118.307 76.3748 118.758 76.3919C119.208 76.409 119.544 77.3007 119.505 78.3841Z" fill="white"/>
<path d="M115.967 60.3175C115.967 60.3175 117.068 62.5013 116.268 65.9577C116.268 65.9577 114.778 63.7398 115.967 60.3175Z" fill="white"/>
</svg>
