<svg width="230" height="230" viewBox="0 0 230 230" fill="none" xmlns="http://www.w3.org/2000/svg">
<mask id="path-1-outside-1_1233_2887" maskUnits="userSpaceOnUse" x="97.1992" y="19.8989" width="17" height="32" fill="black">
<rect fill="white" x="97.1992" y="19.8989" width="17" height="32"/>
<path d="M99.244 42.9306L105.154 50.2787C105.2 50.3352 105.288 50.3261 105.321 50.2615L112.421 36.3602C112.428 36.3462 112.432 36.3306 112.432 36.3148V22.2449C112.432 22.1446 112.301 22.1067 112.247 22.1915L99.2373 42.8146C99.2145 42.8507 99.2172 42.8973 99.244 42.9306Z"/>
</mask>
<path d="M99.244 42.9306L105.154 50.2787C105.2 50.3352 105.288 50.3261 105.321 50.2615L112.421 36.3602C112.428 36.3462 112.432 36.3306 112.432 36.3148V22.2449C112.432 22.1446 112.301 22.1067 112.247 22.1915L99.2373 42.8146C99.2145 42.8507 99.2172 42.8973 99.244 42.9306Z" fill="#6D6E70"/>
<path d="M99.244 42.9306L105.154 50.2787C105.2 50.3352 105.288 50.3261 105.321 50.2615L112.421 36.3602C112.428 36.3462 112.432 36.3306 112.432 36.3148V22.2449C112.432 22.1446 112.301 22.1067 112.247 22.1915L99.2373 42.8146C99.2145 42.8507 99.2172 42.8973 99.244 42.9306Z" stroke="black" stroke-width="3" mask="url(#path-1-outside-1_1233_2887)"/>
<path d="M99.244 42.9306L105.251 50.399L100.729 42.9248C100.711 42.894 100.71 42.8556 100.728 42.8242L112.432 21.8989L99.2373 42.8146C99.2145 42.8507 99.2172 42.8973 99.244 42.9306Z" fill="white"/>
<path d="M105.321 50.2605L112.42 36.3601C112.427 36.3461 112.431 36.3305 112.431 36.3147V30.5908C112.431 30.4956 112.309 30.4563 112.25 30.5316C108.115 35.8647 106.166 38.5269 103.413 48.0188C103.404 48.0499 103.41 48.0845 103.431 48.1099L105.154 50.2773C105.199 50.3342 105.288 50.3253 105.321 50.2605Z" fill="#404041"/>
<mask id="path-4-outside-2_1233_2887" maskUnits="userSpaceOnUse" x="116.732" y="19.8989" width="17" height="32" fill="black">
<rect fill="white" x="116.732" y="19.8989" width="17" height="32"/>
<path d="M131.688 42.9306L125.777 50.2787C125.732 50.3352 125.643 50.3261 125.61 50.2615L118.511 36.3602C118.504 36.3462 118.5 36.3306 118.5 36.3148V22.2449C118.5 22.1446 118.631 22.1067 118.685 22.1915L131.694 42.8146C131.717 42.8507 131.714 42.8973 131.688 42.9306Z"/>
</mask>
<path d="M131.688 42.9306L125.777 50.2787C125.732 50.3352 125.643 50.3261 125.61 50.2615L118.511 36.3602C118.504 36.3462 118.5 36.3306 118.5 36.3148V22.2449C118.5 22.1446 118.631 22.1067 118.685 22.1915L131.694 42.8146C131.717 42.8507 131.714 42.8973 131.688 42.9306Z" fill="#6D6E70"/>
<path d="M131.688 42.9306L125.777 50.2787C125.732 50.3352 125.643 50.3261 125.61 50.2615L118.511 36.3602C118.504 36.3462 118.5 36.3306 118.5 36.3148V22.2449C118.5 22.1446 118.631 22.1067 118.685 22.1915L131.694 42.8146C131.717 42.8507 131.714 42.8973 131.688 42.9306Z" stroke="black" stroke-width="3" mask="url(#path-4-outside-2_1233_2887)"/>
<path d="M131.688 42.9306L125.681 50.399L130.202 42.9248C130.221 42.894 130.222 42.8556 130.204 42.8242L118.5 21.8989L131.694 42.8146C131.717 42.8507 131.714 42.8973 131.688 42.9306Z" fill="white"/>
<path d="M125.611 50.2605L118.512 36.3601C118.505 36.3461 118.501 36.3305 118.501 36.3147V30.5908C118.501 30.4956 118.623 30.4563 118.681 30.5316C122.817 35.8647 124.766 38.5269 127.519 48.0188C127.528 48.0499 127.521 48.0845 127.501 48.1099L125.778 50.2773C125.733 50.3342 125.644 50.3253 125.611 50.2605Z" fill="#404041"/>
<path d="M97.5 117.183C99.1614 115.467 100.823 113.764 102.484 112.047C102.83 111.687 102.996 111.272 102.996 110.773L102.996 89.5939C103.009 67.0756 104.807 44.9768 112.209 34.3539C113.772 32.1094 116.927 31.9829 118.521 34.2062C125.652 44.1524 127.572 67.2969 127.585 89.5939V110.789C127.588 111.28 127.754 111.691 128.097 112.047C129.758 113.764 131.42 115.467 133.081 117.183V129.353C131.433 131.471 129.786 133.603 128.138 135.721C128.138 140.094 102.459 140.074 102.431 135.706C100.787 133.593 99.1436 131.466 97.5 129.353V117.183Z" fill="#6D6E70"/>
<path fill-rule="evenodd" clip-rule="evenodd" d="M102.425 135.699C101.607 134.647 100.789 133.591 99.9709 132.536C99.1473 131.474 98.3236 130.411 97.5 129.352V117.183C98.3307 116.324 99.1614 115.47 99.992 114.615C100.823 113.76 101.653 112.905 102.484 112.046C102.83 111.686 102.996 111.271 102.996 110.773L102.996 89.5934C103.009 67.0751 104.807 44.9764 112.209 34.3535C113.772 32.1089 116.927 31.9825 118.521 34.2057C125.652 44.152 127.572 67.2964 127.585 89.5934V110.789C127.588 111.28 127.754 111.69 128.097 112.046C128.928 112.905 129.758 113.76 130.589 114.615C131.42 115.47 132.25 116.325 133.081 117.183V129.352C132.257 130.412 131.433 131.474 130.609 132.537C129.786 133.599 128.962 134.662 128.138 135.721C128.138 140.086 102.552 140.074 102.431 135.73C102.431 135.722 102.431 135.714 102.431 135.706C102.429 135.704 102.427 135.701 102.425 135.699ZM129.57 136.324C129.329 137.353 128.498 138.038 127.79 138.451C126.895 138.972 125.721 139.354 124.456 139.64C121.902 140.218 118.571 140.493 115.294 140.491C112.017 140.489 108.684 140.209 106.127 139.629C104.861 139.341 103.686 138.958 102.789 138.437C102.08 138.024 101.247 137.341 101.002 136.312C100.264 135.363 99.5265 134.411 98.7896 133.461L98.78 133.448C97.958 132.388 97.1369 131.329 96.316 130.273L96 129.867V116.576L96.4221 116.14C97.254 115.28 98.0857 114.424 98.9163 113.569L98.9228 113.563C99.7506 112.711 100.577 111.86 101.404 111.006C101.456 110.951 101.472 110.917 101.478 110.902C101.484 110.887 101.496 110.851 101.496 110.773L101.496 89.5934C101.503 78.3048 101.956 67.0697 103.347 57.3013C104.731 47.5795 107.068 39.107 110.978 33.496C113.089 30.4654 117.498 30.2048 119.74 33.3317C123.533 38.622 125.83 47.2124 127.208 57.0602C128.594 66.9736 129.079 78.4109 129.085 89.5926V110.782C129.086 110.855 129.097 110.888 129.103 110.903C129.109 110.918 129.125 110.951 129.177 111.006C130.005 111.862 130.834 112.714 131.663 113.568L131.666 113.571C132.496 114.425 133.327 115.28 134.159 116.14L134.581 116.576V129.867L134.265 130.273C133.442 131.331 132.619 132.393 131.795 133.456C131.054 134.412 130.312 135.369 129.57 136.324Z" fill="black"/>
<path d="M127.585 89.5937C127.572 67.2967 125.652 44.1522 118.521 34.206C117.757 33.1403 116.634 32.6145 115.5 32.603V140.491L126 138.899L128.5 136.399L128.138 135.721C128.962 134.662 129.786 133.6 130.609 132.537C131.433 131.474 132.257 130.412 133.081 129.353V117.183C132.25 116.325 131.42 115.47 130.589 114.615C129.758 113.76 128.928 112.905 128.097 112.047C127.754 111.691 127.588 111.28 127.585 110.789V110.773V89.5937Z" fill="#404041"/>
<path fill-rule="evenodd" clip-rule="evenodd" d="M102.425 135.699C101.607 134.647 100.789 133.591 99.9709 132.536C99.1473 131.474 98.3236 130.411 97.5 129.352V117.183C98.3307 116.324 99.1614 115.47 99.992 114.615C100.823 113.76 101.653 112.905 102.484 112.046C102.83 111.686 102.996 111.271 102.996 110.773L102.996 89.5934C103.009 67.0751 104.807 44.9764 112.209 34.3535C113.772 32.1089 116.927 31.9825 118.521 34.2057C125.652 44.152 127.572 67.2964 127.585 89.5934V110.789C127.588 111.28 127.754 111.69 128.097 112.046C128.928 112.905 129.758 113.76 130.589 114.615C131.42 115.47 132.25 116.325 133.081 117.183V129.352C132.257 130.412 131.433 131.474 130.609 132.537C129.786 133.599 128.962 134.662 128.138 135.721C128.138 140.086 102.552 140.074 102.431 135.73C102.431 135.722 102.431 135.714 102.431 135.706C102.429 135.704 102.427 135.701 102.425 135.699ZM129.57 136.324C129.329 137.353 128.498 138.038 127.79 138.451C126.895 138.972 125.721 139.354 124.456 139.64C121.902 140.218 118.571 140.493 115.294 140.491C112.017 140.489 108.684 140.209 106.127 139.629C104.861 139.341 103.686 138.958 102.789 138.437C102.08 138.024 101.247 137.341 101.002 136.312C100.264 135.363 99.5265 134.411 98.7896 133.461L98.78 133.448C97.958 132.388 97.1369 131.329 96.316 130.273L96 129.867V116.576L96.4221 116.14C97.254 115.28 98.0857 114.424 98.9163 113.569L98.9228 113.563C99.7506 112.711 100.577 111.86 101.404 111.006C101.456 110.951 101.472 110.917 101.478 110.902C101.484 110.887 101.496 110.851 101.496 110.773L101.496 89.5934C101.503 78.3048 101.956 67.0697 103.347 57.3013C104.731 47.5795 107.068 39.107 110.978 33.496C113.089 30.4654 117.498 30.2048 119.74 33.3317C123.533 38.622 125.83 47.2124 127.208 57.0602C128.594 66.9736 129.079 78.4109 129.085 89.5926V110.782C129.086 110.855 129.097 110.888 129.103 110.903C129.109 110.918 129.125 110.951 129.177 111.006C130.005 111.862 130.834 112.714 131.663 113.568L131.666 113.571C132.496 114.425 133.327 115.28 134.159 116.14L134.581 116.576V129.867L134.265 130.273C133.442 131.331 132.619 132.393 131.795 133.456C131.054 134.412 130.312 135.369 129.57 136.324Z" fill="black"/>
<path d="M102.997 89.5937C103.01 67.2967 104.93 44.1522 112.061 34.206C112.826 33.1403 113.948 32.6145 115.082 32.603C110.163 37.8071 107.001 49.8989 105.501 63.8989C104.301 75.0989 104.335 101.232 104.501 112.899L99.0012 118.399V130.399L102.444 135.721C101.62 134.662 100.796 133.6 99.9726 132.537C99.1488 131.474 98.325 130.412 97.5011 129.353V117.183C98.3317 116.325 99.1624 115.47 99.993 114.615C100.824 113.76 101.654 112.905 102.485 112.047C102.828 111.691 102.994 111.28 102.997 110.789V110.773V89.5937Z" fill="#BBBDBF"/>
<path d="M127.585 89.5937C127.572 67.2967 125.652 44.1522 118.521 34.206C117.757 33.1403 116.634 32.6145 115.5 32.603C120.419 37.8071 123.581 49.8989 125.081 63.8989C126.281 75.0989 126.247 101.232 126.081 112.899L131.581 118.399V130.399L128.138 135.721C128.962 134.662 129.786 133.6 130.609 132.537C131.433 131.474 132.257 130.412 133.081 129.353V117.183C132.25 116.325 131.42 115.47 130.589 114.615C129.758 113.76 128.928 112.905 128.097 112.047C127.754 111.691 127.588 111.28 127.585 110.789V110.773V89.5937Z" fill="#231F20"/>
<rect x="108.051" y="99.2138" width="1.7" height="4.3" rx="0.65" fill="black" stroke="black" stroke-width="0.3"/>
<rect x="107.9" y="99.3638" width="1.4" height="4" rx="0.5" fill="#9E3E63"/>
<path fill-rule="evenodd" clip-rule="evenodd" d="M108.277 100.07H108.658C108.814 100.07 108.945 100.134 108.945 100.211V102.859C108.945 102.935 108.814 102.999 108.658 102.999H108.277C108.12 102.999 107.99 102.935 107.99 102.859V100.214C107.99 100.134 108.12 100.07 108.277 100.07Z" fill="#F39DB1"/>
<path d="M108.626 100.172C108.714 100.172 108.785 100.104 108.785 100.02C108.785 99.9365 108.714 99.8687 108.626 99.8687C108.538 99.8687 108.467 99.9365 108.467 100.02C108.467 100.104 108.538 100.172 108.626 100.172Z" fill="white"/>
<path d="M108.148 102.622V101.316C108.148 101.202 108.35 101.02 108.668 100.84C108.703 100.818 108.741 100.797 108.785 100.777C108.744 100.798 108.706 100.819 108.668 100.84C108.425 100.998 108.393 101.216 108.411 101.316L108.411 102.622C108.393 102.722 108.52 102.848 108.95 102.919C108.6 102.919 108.148 102.736 108.148 102.622Z" fill="white"/>
<rect x="0.15" y="-0.15" width="1.7" height="4.3" rx="0.65" transform="matrix(-1 0 0 1 122.698 99.3638)" fill="black" stroke="black" stroke-width="0.3"/>
<rect width="1.4" height="4" rx="0.5" transform="matrix(-1 0 0 1 122.699 99.3638)" fill="#9E3E63"/>
<path fill-rule="evenodd" clip-rule="evenodd" d="M122.323 100.07H121.941C121.785 100.07 121.655 100.134 121.655 100.211V102.859C121.655 102.935 121.785 102.999 121.941 102.999H122.323C122.479 102.999 122.609 102.935 122.609 102.859V100.214C122.609 100.134 122.479 100.07 122.323 100.07Z" fill="#F39DB1"/>
<path d="M121.974 100.172C121.886 100.172 121.815 100.104 121.815 100.02C121.815 99.9365 121.886 99.8687 121.974 99.8687C122.062 99.8687 122.133 99.9365 122.133 100.02C122.133 100.104 122.062 100.172 121.974 100.172Z" fill="white"/>
<path d="M122.451 102.622V101.316C122.451 101.202 122.25 101.02 121.931 100.84C121.897 100.818 121.858 100.797 121.815 100.777C121.855 100.798 121.894 100.819 121.931 100.84C122.175 100.998 122.207 101.216 122.188 101.316L122.188 102.622C122.207 102.722 122.079 102.848 121.65 102.919C122 102.919 122.451 102.736 122.451 102.622Z" fill="white"/>
<mask id="path-23-outside-3_1233_2887" maskUnits="userSpaceOnUse" x="108.584" y="41.8989" width="14" height="40" fill="black">
<rect fill="white" x="108.584" y="41.8989" width="14" height="40"/>
<path d="M115.4 42.8989C113.476 42.8989 112.076 46.457 111.148 51.8703C110.082 58.0312 109.584 74.0814 109.584 75.2402C109.584 76.3989 110.25 77.8837 111.025 78.6589C111.8 79.4342 113.85 80.1758 115.443 80.1758C117.035 80.1758 118.999 79.4342 119.774 78.6589C120.549 77.8837 121.215 76.3989 121.215 75.2402C121.215 74.0814 120.716 58.0312 119.65 51.8703C118.723 46.457 117.324 42.8989 115.4 42.8989Z"/>
</mask>
<path d="M115.4 42.8989C113.476 42.8989 112.076 46.457 111.148 51.8703C110.082 58.0312 109.584 74.0814 109.584 75.2402C109.584 76.3989 110.25 77.8837 111.025 78.6589C111.8 79.4342 113.85 80.1758 115.443 80.1758C117.035 80.1758 118.999 79.4342 119.774 78.6589C120.549 77.8837 121.215 76.3989 121.215 75.2402C121.215 74.0814 120.716 58.0312 119.65 51.8703C118.723 46.457 117.324 42.8989 115.4 42.8989Z" fill="#AA3964"/>
<path d="M115.4 42.8989C113.476 42.8989 112.076 46.457 111.148 51.8703C110.082 58.0312 109.584 74.0814 109.584 75.2402C109.584 76.3989 110.25 77.8837 111.025 78.6589C111.8 79.4342 113.85 80.1758 115.443 80.1758C117.035 80.1758 118.999 79.4342 119.774 78.6589C120.549 77.8837 121.215 76.3989 121.215 75.2402C121.215 74.0814 120.716 58.0312 119.65 51.8703C118.723 46.457 117.324 42.8989 115.4 42.8989Z" stroke="black" stroke-width="2" mask="url(#path-23-outside-3_1233_2887)"/>
<path fill-rule="evenodd" clip-rule="evenodd" d="M115.403 50.4189C114.088 50.4189 113.756 51.0281 113.133 53.2986C111.956 57.5767 111.264 65.2328 112.413 69.9954C112.953 72.2659 113.603 72.8751 115.417 72.8751C117.217 72.8751 117.867 72.2797 118.421 69.9954C119.557 65.2328 118.864 57.5767 117.701 53.2986C117.051 51.0281 116.718 50.4189 115.403 50.4189Z" fill="#DB5C87"/>
<path d="M119.881 76.0026C119.706 77.075 119.203 77.8835 118.757 77.8111C118.311 77.7386 118.091 76.811 118.269 75.7386C118.446 74.6662 118.949 73.8578 119.392 73.9325C119.836 74.0073 120.058 74.9325 119.881 76.0026Z" fill="white"/>
<path d="M112.357 74.8374C112.831 74.8374 113.215 74.419 113.215 73.9028C113.215 73.3867 112.831 72.9683 112.357 72.9683C111.884 72.9683 111.5 73.3867 111.5 73.9028C111.5 74.419 111.884 74.8374 112.357 74.8374Z" fill="white"/>
<path d="M113.808 77.0597C114.083 77.0597 114.306 76.8369 114.306 76.5621C114.306 76.2872 114.083 76.0645 113.808 76.0645C113.533 76.0645 113.311 76.2872 113.311 76.5621C113.311 76.8369 113.533 77.0597 113.808 77.0597Z" fill="white"/>
<path d="M118.929 56.3867C119.293 58.909 119.222 61.0061 118.773 61.0701C118.324 61.134 117.669 59.1423 117.308 56.6205C116.946 54.0987 117.013 52.0008 117.464 51.9372C117.915 51.8736 118.565 53.8645 118.929 56.3867Z" fill="white"/>
<path d="M119.714 64.3128C119.674 65.3985 119.278 66.2661 118.827 66.249C118.376 66.2319 118.045 65.341 118.08 64.2545C118.116 63.1679 118.516 62.3035 118.967 62.3206C119.417 62.3377 119.753 63.2294 119.714 64.3128Z" fill="white"/>
<path d="M116.176 46.2462C116.176 46.2462 117.277 48.43 116.477 51.8864C116.477 51.8864 114.987 49.6685 116.176 46.2462Z" fill="white"/>
<path d="M115.084 44.0991C113.429 44.0991 112.227 47.3994 111.429 52.4204C110.513 58.1349 110.072 66.1608 110.084 74.0968C110.084 74.6744 110.325 75.386 110.722 76.0991C110.07 72.8527 110.868 59.8147 111.804 54.7658C112.663 50.1281 114.42 45.1635 115.084 44.0991Z" fill="white"/>
<path d="M107.689 74.2839C107.689 74.2839 107.687 74.2012 107.686 74.0429C107.684 74.2559 107.683 74.6164 107.685 75.1049L106.949 75.8992C106.94 75.3004 106.934 74.6916 106.932 74.0726C106.932 74.127 106.931 74.1815 106.931 74.2361L106.931 74.819C106.931 74.6237 106.931 74.4294 106.931 74.2361L106.931 73.9179C106.931 73.7078 106.931 73.4964 106.931 73.2839L106.931 73.9179C106.931 73.9696 106.932 74.0211 106.932 74.0726C106.988 55.4801 110.593 46.0043 110.593 46.0043C107.67 57.7251 107.671 72.025 107.686 74.0429C107.687 73.8958 107.689 73.819 107.689 73.819L107.689 74.2839Z" fill="white"/>
<path d="M108.713 87.0873C107.399 80.6093 107.674 74.6728 107.674 74.6728L106.937 74.3051C106.933 74.5565 106.932 74.8109 106.932 75.0683C106.931 75.0148 106.929 74.9612 106.928 74.9076L106.934 75.4087C106.936 75.5256 106.937 75.6432 106.939 75.7613L106.934 75.4087C106.933 75.2947 106.933 75.1812 106.932 75.0683C107.142 81.7017 108.713 87.0873 108.713 87.0873Z" fill="white"/>
<path d="M122.092 87.0873C123.405 80.6093 123.131 74.6728 123.131 74.6728L123.868 74.3051C123.871 74.5565 123.873 74.8109 123.872 75.0683C123.874 75.0148 123.876 74.9612 123.877 74.9076L123.87 75.4087C123.869 75.5256 123.868 75.6432 123.865 75.7613L123.87 75.4087C123.871 75.2947 123.872 75.1812 123.872 75.0683C123.662 81.7017 122.092 87.0873 122.092 87.0873Z" fill="white"/>
<path d="M123.104 74.2839C123.104 74.2839 123.106 74.2012 123.107 74.0429C123.109 74.2559 123.11 74.6164 123.108 75.1049L123.844 75.8992C123.853 75.3004 123.859 74.6916 123.861 74.0726C123.861 74.127 123.862 74.1815 123.862 74.2361L123.862 74.819C123.862 74.6237 123.862 74.4294 123.862 74.2361L123.862 73.9179C123.862 73.7078 123.862 73.4964 123.862 73.2839L123.862 73.9179C123.862 73.9696 123.861 74.0211 123.861 74.0726C123.805 55.4801 120.2 46.0043 120.2 46.0043C123.123 57.7251 123.122 72.025 123.107 74.0429C123.106 73.8958 123.104 73.819 123.104 73.819L123.104 74.2839Z" fill="white"/>
<mask id="path-36-outside-4_1233_2887" maskUnits="userSpaceOnUse" x="108.637" y="80.8989" width="14" height="11" fill="black">
<rect fill="white" x="108.637" y="80.8989" width="14" height="11"/>
<path d="M120.512 81.9866C119.127 82.8035 116.981 83.3758 115.389 83.3758C113.797 83.3758 111.637 82.7758 110.225 81.959C109.865 81.7651 109.588 82.0697 109.644 82.4574C109.644 83.5649 110.53 87.2294 111.748 88.4477C112.842 89.5553 114.213 89.986 115.459 89.986C116.691 89.986 118.075 89.5415 119.169 88.4477C120.387 87.2294 121.273 83.5649 121.273 82.4574C121.329 82.042 120.872 81.779 120.512 81.9866Z"/>
</mask>
<path d="M120.512 81.9866C119.127 82.8035 116.981 83.3758 115.389 83.3758C113.797 83.3758 111.637 82.7758 110.225 81.959C109.865 81.7651 109.588 82.0697 109.644 82.4574C109.644 83.5649 110.53 87.2294 111.748 88.4477C112.842 89.5553 114.213 89.986 115.459 89.986C116.691 89.986 118.075 89.5415 119.169 88.4477C120.387 87.2294 121.273 83.5649 121.273 82.4574C121.329 82.042 120.872 81.779 120.512 81.9866Z" stroke="black" stroke-width="2" mask="url(#path-36-outside-4_1233_2887)"/>
<path d="M120.512 81.9866C119.127 82.8035 116.981 83.3758 115.389 83.3758C113.797 83.3758 111.637 82.7758 110.225 81.959C109.865 81.7651 109.588 82.0697 109.644 82.4574C109.644 83.5649 110.53 87.2294 111.748 88.4477C112.842 89.5553 114.213 89.986 115.459 89.986C116.691 89.986 118.075 89.5415 119.169 88.4477C120.387 87.2294 121.273 83.5649 121.273 82.4574C121.329 82.042 120.872 81.779 120.512 81.9866Z" fill="#AA3964"/>
<path d="M119.842 83.9423C118.653 84.3463 116.809 84.6294 115.442 84.6294C114.074 84.6294 112.218 84.3326 111.005 83.9286C110.696 83.8327 110.459 83.9834 110.506 84.1751C110.506 84.723 111.267 86.5355 112.314 87.1381C113.253 87.6859 114.431 87.8989 115.501 87.8989C116.56 87.8989 117.749 87.6791 118.689 87.1381C119.735 86.5355 120.496 84.723 120.496 84.1751C120.544 83.9697 120.151 83.8396 119.842 83.9423Z" fill="#DB5C87"/>
<path d="M117.989 87.487C117.395 88.3971 116.609 88.9334 116.23 88.6867C115.851 88.4401 116.025 87.5029 116.621 86.5938C117.217 85.6847 118.003 85.1484 118.379 85.3963C118.755 85.6441 118.584 86.5801 117.989 87.487Z" fill="white"/>
<path d="M113.998 86.2233C114.273 86.2233 114.495 86.0005 114.495 85.7257C114.495 85.4508 114.273 85.228 113.998 85.228C113.723 85.228 113.5 85.4508 113.5 85.7257C113.5 86.0005 113.723 86.2233 113.998 86.2233Z" fill="white"/>
<path d="M110.225 81.959C109.865 81.7651 109.588 82.0697 109.644 82.4574C109.644 83.5649 110.53 87.2294 111.748 88.4477C109 82.228 111.5 82.728 113.5 83.128C111.914 82.8108 111.214 82.4917 110.225 81.959Z" fill="white"/>
<path d="M112.801 36.9923C112.801 36.9923 113.916 34.5777 115.319 33.2993C115.319 33.2993 116.578 34.5777 117.801 36.8858L115.283 34.4356L112.801 36.9923Z" fill="white"/>
<path d="M97 128.899C97.0143 131.142 106.639 133.234 116 133.174C124.868 133.117 133.5 131.026 133.5 128.899" stroke="black"/>
<path d="M97 116.399C97.0143 118.642 106.639 120.734 116 120.674C124.868 120.617 133.5 118.526 133.5 116.399" stroke="black"/>
<path d="M102.5 110.798C102.528 115.166 128 115.171 128 110.798" stroke="black"/>
<mask id="path-46-inside-5_1233_2887" fill="white">
<path fill-rule="evenodd" clip-rule="evenodd" d="M115.319 122.899H110.197C109.186 122.899 108.369 123.716 108.369 124.726V128.88C108.369 129.891 109.186 130.707 110.197 130.707H115.319H120.442C121.452 130.707 122.269 129.891 122.269 128.88V124.726C122.269 123.716 121.452 122.899 120.442 122.899H115.319Z"/>
</mask>
<path fill-rule="evenodd" clip-rule="evenodd" d="M115.319 122.899H110.197C109.186 122.899 108.369 123.716 108.369 124.726V128.88C108.369 129.891 109.186 130.707 110.197 130.707H115.319H120.442C121.452 130.707 122.269 129.891 122.269 128.88V124.726C122.269 123.716 121.452 122.899 120.442 122.899H115.319Z" fill="#6D6E70" stroke="black" stroke-width="2" mask="url(#path-46-inside-5_1233_2887)"/>
<rect x="102.35" y="123.55" width="1.7" height="4.3" rx="0.65" fill="black" stroke="black" stroke-width="0.3"/>
<rect x="102.301" y="123.7" width="1.4" height="4" rx="0.5" fill="#9E3E63"/>
<path fill-rule="evenodd" clip-rule="evenodd" d="M102.677 124.406H103.059C103.215 124.406 103.345 124.47 103.345 124.547V127.195C103.345 127.271 103.215 127.335 103.059 127.335H102.677C102.521 127.335 102.391 127.271 102.391 127.195V124.55C102.391 124.47 102.521 124.406 102.677 124.406Z" fill="#F39DB1"/>
<path d="M103.026 124.508C103.114 124.508 103.185 124.44 103.185 124.356C103.185 124.272 103.114 124.205 103.026 124.205C102.938 124.205 102.867 124.272 102.867 124.356C102.867 124.44 102.938 124.508 103.026 124.508Z" fill="white"/>
<path d="M102.549 126.958V125.652C102.549 125.538 102.75 125.356 103.069 125.176C103.103 125.154 103.142 125.133 103.185 125.113C103.145 125.134 103.106 125.155 103.069 125.176C102.825 125.334 102.793 125.552 102.812 125.652L102.812 126.958C102.793 127.058 102.921 127.184 103.35 127.255C103 127.255 102.549 127.072 102.549 126.958Z" fill="white"/>
<rect x="126.35" y="123.55" width="1.7" height="4.3" rx="0.65" fill="black" stroke="black" stroke-width="0.3"/>
<rect x="126.699" y="123.7" width="1.4" height="4" rx="0.5" fill="#9E3E63"/>
<path fill-rule="evenodd" clip-rule="evenodd" d="M127.075 124.406H127.457C127.613 124.406 127.743 124.47 127.743 124.547V127.195C127.743 127.271 127.613 127.335 127.457 127.335H127.075C126.919 127.335 126.789 127.271 126.789 127.195V124.55C126.789 124.47 126.919 124.406 127.075 124.406Z" fill="#F39DB1"/>
<path d="M127.425 124.508C127.513 124.508 127.584 124.44 127.584 124.356C127.584 124.272 127.513 124.205 127.425 124.205C127.337 124.205 127.266 124.272 127.266 124.356C127.266 124.44 127.337 124.508 127.425 124.508Z" fill="white"/>
<path d="M126.947 126.958V125.652C126.947 125.538 127.149 125.356 127.467 125.176C127.502 125.154 127.54 125.133 127.584 125.113C127.543 125.134 127.504 125.155 127.467 125.176C127.224 125.334 127.192 125.552 127.21 125.652L127.21 126.958C127.192 127.058 127.319 127.184 127.749 127.255C127.399 127.255 126.947 127.072 126.947 126.958Z" fill="white"/>
</svg>
