<svg width="230" height="230" viewBox="0 0 230 230" fill="none" xmlns="http://www.w3.org/2000/svg">
<mask id="path-1-outside-1_1233_2887" maskUnits="userSpaceOnUse" x="96.9004" y="172.5" width="18" height="19" fill="black">
<rect fill="white" x="96.9004" y="172.5" width="18" height="19"/>
<path d="M98.9004 174.5H113.1L106 189.681L98.9004 174.5Z"/>
</mask>
<path d="M98.9004 174.5H113.1L106 189.681L98.9004 174.5Z" fill="#6D6E70"/>
<path d="M98.9004 174.5H113.1L106 189.681L98.9004 174.5Z" stroke="black" stroke-width="2.87827" stroke-linejoin="round" mask="url(#path-1-outside-1_1233_2887)"/>
<path d="M106 189.681L98.9004 174.5H101.875L106 189.681Z" fill="#BBBDBF"/>
<path d="M106.002 189.681L113.102 174.5H110.127L106.002 189.681Z" fill="#404041"/>
<mask id="path-4-outside-2_1233_2887" maskUnits="userSpaceOnUse" x="114.801" y="172.5" width="18" height="19" fill="black">
<rect fill="white" x="114.801" y="172.5" width="18" height="19"/>
<path d="M116.801 174.5H131L123.901 189.681L116.801 174.5Z"/>
</mask>
<path d="M116.801 174.5H131L123.901 189.681L116.801 174.5Z" fill="#6D6E70"/>
<path d="M116.801 174.5H131L123.901 189.681L116.801 174.5Z" stroke="black" stroke-width="2.87827" stroke-linejoin="round" mask="url(#path-4-outside-2_1233_2887)"/>
<path d="M123.901 189.681L116.801 174.5H119.775L123.901 189.681Z" fill="#BBBDBF"/>
<path d="M123.9 189.681L131 174.5H128.026L123.9 189.681Z" fill="#404041"/>
<mask id="path-7-outside-3_1233_2887" maskUnits="userSpaceOnUse" x="96.6992" y="171" width="18" height="13" fill="black">
<rect fill="white" x="96.6992" y="171" width="18" height="13"/>
<path fill-rule="evenodd" clip-rule="evenodd" d="M98.6992 173C98.6992 175.298 98.6992 177.61 98.6992 179.908C98.6992 183.051 113.195 183.051 113.195 179.908C113.195 177.61 113.195 175.298 113.195 173H98.6992Z"/>
</mask>
<path fill-rule="evenodd" clip-rule="evenodd" d="M98.6992 173C98.6992 175.298 98.6992 177.61 98.6992 179.908C98.6992 183.051 113.195 183.051 113.195 179.908C113.195 177.61 113.195 175.298 113.195 173H98.6992Z" fill="#6D6E70"/>
<path fill-rule="evenodd" clip-rule="evenodd" d="M98.6992 173C98.6992 175.298 98.6992 177.61 98.6992 179.908C98.6992 183.051 113.195 183.051 113.195 179.908C113.195 177.61 113.195 175.298 113.195 173H98.6992Z" stroke="black" stroke-width="3" mask="url(#path-7-outside-3_1233_2887)"/>
<path d="M98.6992 179.908V173H101.524V181.821C99.8599 181.435 98.6992 180.798 98.6992 179.908Z" fill="#BBBDBF"/>
<path d="M113.324 179.908V173H110.499V181.821C112.164 181.435 113.324 180.798 113.324 179.908Z" fill="#404041"/>
<mask id="path-10-outside-4_1233_2887" maskUnits="userSpaceOnUse" x="114.602" y="171" width="18" height="13" fill="black">
<rect fill="white" x="114.602" y="171" width="18" height="13"/>
<path fill-rule="evenodd" clip-rule="evenodd" d="M116.602 173C116.602 175.298 116.602 177.61 116.602 179.908C116.602 183.051 131.097 183.051 131.097 179.908C131.097 177.61 131.097 175.298 131.097 173H116.602Z"/>
</mask>
<path fill-rule="evenodd" clip-rule="evenodd" d="M116.602 173C116.602 175.298 116.602 177.61 116.602 179.908C116.602 183.051 131.097 183.051 131.097 179.908C131.097 177.61 131.097 175.298 131.097 173H116.602Z" fill="#6D6E70"/>
<path fill-rule="evenodd" clip-rule="evenodd" d="M116.602 173C116.602 175.298 116.602 177.61 116.602 179.908C116.602 183.051 131.097 183.051 131.097 179.908C131.097 177.61 131.097 175.298 131.097 173H116.602Z" stroke="black" stroke-width="3" mask="url(#path-10-outside-4_1233_2887)"/>
<path d="M116.602 179.908V173H119.427V181.821C117.762 181.435 116.602 180.798 116.602 179.908Z" fill="#BBBDBF"/>
<path d="M131.227 179.908V173H128.401V181.821C130.066 181.435 131.227 180.798 131.227 179.908Z" fill="#404041"/>
<mask id="path-13-outside-5_1233_2887" maskUnits="userSpaceOnUse" x="94.5293" y="137" width="41" height="41" fill="black">
<rect fill="white" x="94.5293" y="137" width="41" height="41"/>
<path fill-rule="evenodd" clip-rule="evenodd" d="M101.472 145.957C100.115 146.649 98.7721 147.341 97.4154 148.033C96.8477 148.324 96.5293 148.809 96.5293 149.376C96.5293 153.045 96.5293 156.728 96.5293 160.397C96.5293 160.826 96.6954 161.186 97.0415 161.49C97.6092 161.989 98.163 162.487 98.7306 162.972C98.7306 166.184 98.7306 169.41 98.7306 172.622C98.7306 176.996 131.127 176.996 131.127 172.622C131.127 169.41 131.127 166.184 131.127 162.972C131.681 162.473 132.249 161.975 132.816 161.49C133.162 161.186 133.329 160.826 133.329 160.397C133.329 156.728 133.329 153.045 133.329 149.376C133.329 148.809 133.01 148.324 132.442 148.033C131.086 147.341 129.743 146.649 128.386 145.957C128.386 140.488 128.386 146.019 128.386 140.564C128.386 139.706 127.569 139 126.558 139C118.805 139 111.066 139 103.313 139C102.303 139 101.486 139.706 101.486 140.564C101.472 146.019 101.472 140.488 101.472 145.957Z"/>
</mask>
<path fill-rule="evenodd" clip-rule="evenodd" d="M101.472 145.957C100.115 146.649 98.7721 147.341 97.4154 148.033C96.8477 148.324 96.5293 148.809 96.5293 149.376C96.5293 153.045 96.5293 156.728 96.5293 160.397C96.5293 160.826 96.6954 161.186 97.0415 161.49C97.6092 161.989 98.163 162.487 98.7306 162.972C98.7306 166.184 98.7306 169.41 98.7306 172.622C98.7306 176.996 131.127 176.996 131.127 172.622C131.127 169.41 131.127 166.184 131.127 162.972C131.681 162.473 132.249 161.975 132.816 161.49C133.162 161.186 133.329 160.826 133.329 160.397C133.329 156.728 133.329 153.045 133.329 149.376C133.329 148.809 133.01 148.324 132.442 148.033C131.086 147.341 129.743 146.649 128.386 145.957C128.386 140.488 128.386 146.019 128.386 140.564C128.386 139.706 127.569 139 126.558 139C118.805 139 111.066 139 103.313 139C102.303 139 101.486 139.706 101.486 140.564C101.472 146.019 101.472 140.488 101.472 145.957Z" fill="#6D6E70"/>
<path fill-rule="evenodd" clip-rule="evenodd" d="M101.472 145.957C100.115 146.649 98.7721 147.341 97.4154 148.033C96.8477 148.324 96.5293 148.809 96.5293 149.376C96.5293 153.045 96.5293 156.728 96.5293 160.397C96.5293 160.826 96.6954 161.186 97.0415 161.49C97.6092 161.989 98.163 162.487 98.7306 162.972C98.7306 166.184 98.7306 169.41 98.7306 172.622C98.7306 176.996 131.127 176.996 131.127 172.622C131.127 169.41 131.127 166.184 131.127 162.972C131.681 162.473 132.249 161.975 132.816 161.49C133.162 161.186 133.329 160.826 133.329 160.397C133.329 156.728 133.329 153.045 133.329 149.376C133.329 148.809 133.01 148.324 132.442 148.033C131.086 147.341 129.743 146.649 128.386 145.957C128.386 140.488 128.386 146.019 128.386 140.564C128.386 139.706 127.569 139 126.558 139C118.805 139 111.066 139 103.313 139C102.303 139 101.486 139.706 101.486 140.564C101.472 146.019 101.472 140.488 101.472 145.957Z" stroke="black" stroke-width="3" mask="url(#path-13-outside-5_1233_2887)"/>
<mask id="path-14-outside-6_1233_2887" maskUnits="userSpaceOnUse" x="94.5293" y="126" width="41" height="52" fill="black">
<rect fill="white" x="94.5293" y="126" width="41" height="52"/>
<path fill-rule="evenodd" clip-rule="evenodd" d="M101.472 145.957C100.115 146.649 98.7721 147.341 97.4154 148.033C96.8477 148.324 96.5293 148.809 96.5293 149.376C96.5293 153.045 96.5293 156.728 96.5293 160.397C96.5293 160.826 96.6954 161.186 97.0415 161.49C97.6092 161.989 98.163 162.487 98.7306 162.972C98.7306 166.184 98.7306 169.41 98.7306 172.622C98.7306 176.996 131.127 176.996 131.127 172.622C131.127 169.41 131.127 166.184 131.127 162.972C131.681 162.473 132.249 161.975 132.816 161.49C133.162 161.186 133.329 160.826 133.329 160.397C133.329 156.728 133.329 153.045 133.329 149.376C133.329 148.809 133.01 148.324 132.442 148.033C131.086 147.341 129.743 146.649 128.386 145.957C128.386 140.488 128.386 135.019 128.386 129.564C128.386 128.706 127.569 128 126.558 128C118.805 128 111.066 128 103.313 128C102.303 128 101.486 128.706 101.486 129.564C101.472 135.019 101.472 140.488 101.472 145.957Z"/>
</mask>
<path fill-rule="evenodd" clip-rule="evenodd" d="M101.472 145.957C100.115 146.649 98.7721 147.341 97.4154 148.033C96.8477 148.324 96.5293 148.809 96.5293 149.376C96.5293 153.045 96.5293 156.728 96.5293 160.397C96.5293 160.826 96.6954 161.186 97.0415 161.49C97.6092 161.989 98.163 162.487 98.7306 162.972C98.7306 166.184 98.7306 169.41 98.7306 172.622C98.7306 176.996 131.127 176.996 131.127 172.622C131.127 169.41 131.127 166.184 131.127 162.972C131.681 162.473 132.249 161.975 132.816 161.49C133.162 161.186 133.329 160.826 133.329 160.397C133.329 156.728 133.329 153.045 133.329 149.376C133.329 148.809 133.01 148.324 132.442 148.033C131.086 147.341 129.743 146.649 128.386 145.957C128.386 140.488 128.386 135.019 128.386 129.564C128.386 128.706 127.569 128 126.558 128C118.805 128 111.066 128 103.313 128C102.303 128 101.486 128.706 101.486 129.564C101.472 135.019 101.472 140.488 101.472 145.957Z" fill="#6D6E70"/>
<path fill-rule="evenodd" clip-rule="evenodd" d="M101.472 145.957C100.115 146.649 98.7721 147.341 97.4154 148.033C96.8477 148.324 96.5293 148.809 96.5293 149.376C96.5293 153.045 96.5293 156.728 96.5293 160.397C96.5293 160.826 96.6954 161.186 97.0415 161.49C97.6092 161.989 98.163 162.487 98.7306 162.972C98.7306 166.184 98.7306 169.41 98.7306 172.622C98.7306 176.996 131.127 176.996 131.127 172.622C131.127 169.41 131.127 166.184 131.127 162.972C131.681 162.473 132.249 161.975 132.816 161.49C133.162 161.186 133.329 160.826 133.329 160.397C133.329 156.728 133.329 153.045 133.329 149.376C133.329 148.809 133.01 148.324 132.442 148.033C131.086 147.341 129.743 146.649 128.386 145.957C128.386 140.488 128.386 135.019 128.386 129.564C128.386 128.706 127.569 128 126.558 128C118.805 128 111.066 128 103.313 128C102.303 128 101.486 128.706 101.486 129.564C101.472 135.019 101.472 140.488 101.472 145.957Z" stroke="black" stroke-width="3" mask="url(#path-14-outside-6_1233_2887)"/>
<path d="M131.128 162.972V172.622C131.128 174.812 123.009 175.905 114.9 175.903V128H126.559C127.57 128 128.386 128.706 128.386 129.564V145.957C129.743 146.649 131.086 147.341 132.443 148.033C133.011 148.324 133.329 148.809 133.329 149.376V160.397C133.329 160.826 133.163 161.186 132.817 161.49C132.249 161.975 131.682 162.473 131.128 162.972Z" fill="#404041"/>
<path d="M126.593 168.6C126.847 166.319 128.093 167.9 127.493 164.7L115.343 165L114.9 165.01V174.964C121.901 174.6 126.34 170.881 126.593 168.6Z" fill="#231F20"/>
<path d="M103.007 168.6C102.754 166.319 101.507 167.9 102.108 164.7L114.257 165L114.9 165.01V174.964C107.9 174.6 103.261 170.881 103.007 168.6Z" fill="#404041"/>
<mask id="path-18-inside-7_1233_2887" fill="white">
<path fill-rule="evenodd" clip-rule="evenodd" d="M114.887 173.88C111.454 173.88 108.842 172.91 105.935 171.055C104.702 170.266 103.982 168.909 103.982 167.345V164.991H125.193V167.345C125.193 168.909 124.473 170.266 123.24 171.055C120.333 172.91 118.321 173.88 114.887 173.88Z"/>
</mask>
<path fill-rule="evenodd" clip-rule="evenodd" d="M114.887 173.88C111.454 173.88 108.842 172.91 105.935 171.055C104.702 170.266 103.982 168.909 103.982 167.345V164.991H125.193V167.345C125.193 168.909 124.473 170.266 123.24 171.055C120.333 172.91 118.321 173.88 114.887 173.88Z" fill="#9E3E63" stroke="black" stroke-width="2" mask="url(#path-18-inside-7_1233_2887)"/>
<path d="M108.346 170.187C110.072 171.643 112.198 172.501 114.496 172.501C116.795 172.501 118.92 171.643 120.646 170.187C121.679 169.317 121.193 167.755 119.912 167.324L115.772 165.93C114.944 165.652 114.048 165.652 113.22 165.93L109.08 167.324C107.8 167.755 107.313 169.317 108.346 170.187Z" fill="#DB5C87"/>
<path d="M112.669 172.137C112.873 172.137 113.037 171.972 113.037 171.769C113.037 171.565 112.873 171.4 112.669 171.4C112.466 171.4 112.301 171.565 112.301 171.769C112.301 171.972 112.466 172.137 112.669 172.137Z" fill="white"/>
<path d="M113.543 169.446C112.098 168.576 110.799 168.107 110.642 168.402C110.485 168.697 111.53 169.639 112.974 170.511C114.419 171.383 115.718 171.849 115.875 171.555C116.032 171.26 114.988 170.318 113.543 169.446Z" fill="white"/>
<path d="M109.702 170.991C109.713 171.114 109.759 171.231 109.836 171.329C109.912 171.426 110.015 171.499 110.132 171.538C110.249 171.578 110.375 171.583 110.495 171.552C110.614 171.521 110.722 171.456 110.806 171.365C110.889 171.274 110.944 171.161 110.964 171.039C110.984 170.917 110.968 170.792 110.918 170.679C110.869 170.566 110.787 170.47 110.683 170.402C110.58 170.335 110.459 170.299 110.335 170.299C110.16 170.307 109.994 170.385 109.876 170.514C109.757 170.644 109.695 170.815 109.702 170.991Z" fill="white"/>
<path d="M117.768 171.336C117.565 171.336 117.4 171.171 117.4 170.968C117.4 170.765 117.565 170.6 117.768 170.6C117.972 170.6 118.137 170.765 118.137 170.968C118.137 171.171 117.972 171.336 117.768 171.336Z" fill="white"/>
<mask id="path-24-outside-8_1233_2887" maskUnits="userSpaceOnUse" x="99.4004" y="163.44" width="30" height="8" fill="black">
<rect fill="white" x="99.4004" y="163.44" width="30" height="8"/>
<path d="M105.339 166.819C107.9 168.314 110.434 169.587 114.587 169.587C118.74 169.587 121.274 168.314 123.835 166.819C125.067 166.099 124.307 166.5 125.773 165.44L114.587 166.14L103.4 165.44C104.507 166.24 104.106 166.099 105.339 166.819Z"/>
</mask>
<path d="M105.339 166.819C107.9 168.314 110.434 169.587 114.587 169.587C118.74 169.587 121.274 168.314 123.835 166.819C125.067 166.099 124.307 166.5 125.773 165.44L114.587 166.14L103.4 165.44C104.507 166.24 104.106 166.099 105.339 166.819Z" fill="#6D6E70"/>
<path d="M105.339 166.819C107.9 168.314 110.434 169.587 114.587 169.587C118.74 169.587 121.274 168.314 123.835 166.819C125.067 166.099 124.307 166.5 125.773 165.44L114.587 166.14L103.4 165.44C104.507 166.24 104.106 166.099 105.339 166.819Z" stroke="black" stroke-width="2" mask="url(#path-24-outside-8_1233_2887)"/>
<path d="M123.835 166.819C125.067 166.099 124.307 166.5 125.773 165.44L114.9 166.121V169.585C118.869 169.523 121.339 168.276 123.835 166.819Z" fill="#404041"/>
<path d="M97.4154 148.033C98.7721 147.341 100.115 146.649 101.472 145.957C101.472 140.488 101.472 135.019 101.486 129.564C101.486 128.706 102.303 128 103.313 128L104 146.967L98.7306 150.467V162.972L100.5 165.467V174.219C99.3818 173.774 98.7306 173.242 98.7306 172.622V162.972C98.163 162.487 97.6092 161.989 97.0415 161.49C96.6954 161.186 96.5293 160.826 96.5293 160.397V149.376C96.5293 148.809 96.8477 148.324 97.4154 148.033Z" fill="#BBBDBF"/>
<path d="M132.485 148.033C131.128 147.341 129.785 146.649 128.429 145.957C128.429 140.488 128.429 135.019 128.415 129.564C128.415 128.706 127.598 128 126.587 128L125.901 146.967L131.17 150.467V162.972L129.401 165.467V174.219C130.519 173.774 131.17 173.242 131.17 172.622V162.972C131.737 162.487 132.291 161.989 132.859 161.49C133.205 161.186 133.371 160.826 133.371 160.397V149.376C133.371 148.809 133.053 148.324 132.485 148.033Z" fill="#231F20"/>
<path d="M97.6309 162.421C97.6309 166.796 132.227 166.796 132.227 162.421" stroke="black" stroke-width="1.5"/>
<path d="M100.631 144.867C100.631 149.242 129.227 149.242 129.227 144.867" stroke="black"/>
<path d="M96 148.466C96 150.654 105.5 152.748 115 152.748C124.5 152.748 134 150.654 134 148.466" stroke="black"/>
</svg>
