<svg width="230" height="230" viewBox="0 0 230 230" fill="none" xmlns="http://www.w3.org/2000/svg">
<mask id="path-1-outside-1_1233_2887" maskUnits="userSpaceOnUse" x="105.4" y="170.678" width="19" height="20" fill="black">
<rect fill="white" x="105.4" y="170.678" width="19" height="20"/>
<path d="M107.4 172.678H122.2L114.801 188.5L107.4 172.678Z"/>
</mask>
<path d="M107.4 172.678H122.2L114.801 188.5L107.4 172.678Z" fill="#6D6E70"/>
<path d="M107.4 172.678H122.2L114.801 188.5L107.4 172.678Z" stroke="black" stroke-width="3" stroke-linejoin="round" mask="url(#path-1-outside-1_1233_2887)"/>
<path d="M114.801 188.5L107.4 172.678H110.5L114.801 188.5Z" fill="#BBBDBF"/>
<path d="M114.801 188.5L122.201 172.678H119.101L114.801 188.5Z" fill="#404041"/>
<mask id="path-4-outside-2_1233_2887" maskUnits="userSpaceOnUse" x="94.5293" y="126" width="41" height="52" fill="black">
<rect fill="white" x="94.5293" y="126" width="41" height="52"/>
<path fill-rule="evenodd" clip-rule="evenodd" d="M101.472 145.957C100.115 146.649 98.7721 147.341 97.4154 148.033C96.8477 148.324 96.5293 148.809 96.5293 149.376C96.5293 153.045 96.5293 156.728 96.5293 160.397C96.5293 160.826 96.6954 161.186 97.0415 161.49C97.6092 161.989 98.163 162.487 98.7306 162.972C98.7306 166.184 98.7306 169.41 98.7306 172.622C98.7306 176.996 131.127 176.996 131.127 172.622C131.127 169.41 131.127 166.184 131.127 162.972C131.681 162.473 132.249 161.975 132.816 161.49C133.162 161.186 133.329 160.826 133.329 160.397C133.329 156.728 133.329 153.045 133.329 149.376C133.329 148.809 133.01 148.324 132.442 148.033C131.086 147.341 129.743 146.649 128.386 145.957C128.386 140.488 128.386 135.019 128.386 129.564C128.386 128.706 127.569 128 126.558 128C118.805 128 111.066 128 103.313 128C102.303 128 101.486 128.706 101.486 129.564C101.472 135.019 101.472 140.488 101.472 145.957Z"/>
</mask>
<path fill-rule="evenodd" clip-rule="evenodd" d="M101.472 145.957C100.115 146.649 98.7721 147.341 97.4154 148.033C96.8477 148.324 96.5293 148.809 96.5293 149.376C96.5293 153.045 96.5293 156.728 96.5293 160.397C96.5293 160.826 96.6954 161.186 97.0415 161.49C97.6092 161.989 98.163 162.487 98.7306 162.972C98.7306 166.184 98.7306 169.41 98.7306 172.622C98.7306 176.996 131.127 176.996 131.127 172.622C131.127 169.41 131.127 166.184 131.127 162.972C131.681 162.473 132.249 161.975 132.816 161.49C133.162 161.186 133.329 160.826 133.329 160.397C133.329 156.728 133.329 153.045 133.329 149.376C133.329 148.809 133.01 148.324 132.442 148.033C131.086 147.341 129.743 146.649 128.386 145.957C128.386 140.488 128.386 135.019 128.386 129.564C128.386 128.706 127.569 128 126.558 128C118.805 128 111.066 128 103.313 128C102.303 128 101.486 128.706 101.486 129.564C101.472 135.019 101.472 140.488 101.472 145.957Z" fill="#6D6E70"/>
<path fill-rule="evenodd" clip-rule="evenodd" d="M101.472 145.957C100.115 146.649 98.7721 147.341 97.4154 148.033C96.8477 148.324 96.5293 148.809 96.5293 149.376C96.5293 153.045 96.5293 156.728 96.5293 160.397C96.5293 160.826 96.6954 161.186 97.0415 161.49C97.6092 161.989 98.163 162.487 98.7306 162.972C98.7306 166.184 98.7306 169.41 98.7306 172.622C98.7306 176.996 131.127 176.996 131.127 172.622C131.127 169.41 131.127 166.184 131.127 162.972C131.681 162.473 132.249 161.975 132.816 161.49C133.162 161.186 133.329 160.826 133.329 160.397C133.329 156.728 133.329 153.045 133.329 149.376C133.329 148.809 133.01 148.324 132.442 148.033C131.086 147.341 129.743 146.649 128.386 145.957C128.386 140.488 128.386 135.019 128.386 129.564C128.386 128.706 127.569 128 126.558 128C118.805 128 111.066 128 103.313 128C102.303 128 101.486 128.706 101.486 129.564C101.472 135.019 101.472 140.488 101.472 145.957Z" stroke="black" stroke-width="3" mask="url(#path-4-outside-2_1233_2887)"/>
<mask id="path-5-outside-3_1233_2887" maskUnits="userSpaceOnUse" x="94.5293" y="126" width="41" height="52" fill="black">
<rect fill="white" x="94.5293" y="126" width="41" height="52"/>
<path fill-rule="evenodd" clip-rule="evenodd" d="M101.472 145.957C100.115 146.649 98.7721 147.341 97.4154 148.033C96.8477 148.324 96.5293 148.809 96.5293 149.376C96.5293 153.045 96.5293 156.728 96.5293 160.397C96.5293 160.826 96.6954 161.186 97.0415 161.49C97.6092 161.989 98.163 162.487 98.7306 162.972C98.7306 166.184 98.7306 169.41 98.7306 172.622C98.7306 176.996 131.127 176.996 131.127 172.622C131.127 169.41 131.127 166.184 131.127 162.972C131.681 162.473 132.249 161.975 132.816 161.49C133.162 161.186 133.329 160.826 133.329 160.397C133.329 156.728 133.329 153.045 133.329 149.376C133.329 148.809 133.01 148.324 132.442 148.033C131.086 147.341 129.743 146.649 128.386 145.957C128.386 140.488 128.386 135.019 128.386 129.564C128.386 128.706 127.569 128 126.558 128C118.805 128 111.066 128 103.313 128C102.303 128 101.486 128.706 101.486 129.564C101.472 135.019 101.472 140.488 101.472 145.957Z"/>
</mask>
<path fill-rule="evenodd" clip-rule="evenodd" d="M101.472 145.957C100.115 146.649 98.7721 147.341 97.4154 148.033C96.8477 148.324 96.5293 148.809 96.5293 149.376C96.5293 153.045 96.5293 156.728 96.5293 160.397C96.5293 160.826 96.6954 161.186 97.0415 161.49C97.6092 161.989 98.163 162.487 98.7306 162.972C98.7306 166.184 98.7306 169.41 98.7306 172.622C98.7306 176.996 131.127 176.996 131.127 172.622C131.127 169.41 131.127 166.184 131.127 162.972C131.681 162.473 132.249 161.975 132.816 161.49C133.162 161.186 133.329 160.826 133.329 160.397C133.329 156.728 133.329 153.045 133.329 149.376C133.329 148.809 133.01 148.324 132.442 148.033C131.086 147.341 129.743 146.649 128.386 145.957C128.386 140.488 128.386 135.019 128.386 129.564C128.386 128.706 127.569 128 126.558 128C118.805 128 111.066 128 103.313 128C102.303 128 101.486 128.706 101.486 129.564C101.472 135.019 101.472 140.488 101.472 145.957Z" fill="#6D6E70"/>
<path fill-rule="evenodd" clip-rule="evenodd" d="M101.472 145.957C100.115 146.649 98.7721 147.341 97.4154 148.033C96.8477 148.324 96.5293 148.809 96.5293 149.376C96.5293 153.045 96.5293 156.728 96.5293 160.397C96.5293 160.826 96.6954 161.186 97.0415 161.49C97.6092 161.989 98.163 162.487 98.7306 162.972C98.7306 166.184 98.7306 169.41 98.7306 172.622C98.7306 176.996 131.127 176.996 131.127 172.622C131.127 169.41 131.127 166.184 131.127 162.972C131.681 162.473 132.249 161.975 132.816 161.49C133.162 161.186 133.329 160.826 133.329 160.397C133.329 156.728 133.329 153.045 133.329 149.376C133.329 148.809 133.01 148.324 132.442 148.033C131.086 147.341 129.743 146.649 128.386 145.957C128.386 140.488 128.386 135.019 128.386 129.564C128.386 128.706 127.569 128 126.558 128C118.805 128 111.066 128 103.313 128C102.303 128 101.486 128.706 101.486 129.564C101.472 135.019 101.472 140.488 101.472 145.957Z" stroke="black" stroke-width="3" mask="url(#path-5-outside-3_1233_2887)"/>
<path d="M97.4154 148.033C98.7721 147.341 100.115 146.649 101.472 145.957C101.472 140.488 101.472 135.019 101.486 129.564C101.486 128.706 102.303 128 103.313 128L104 146.967L98.7306 150.467V162.972L100.5 165.467V174.219C99.3818 173.774 98.7306 173.242 98.7306 172.622V162.972C98.163 162.487 97.6092 161.989 97.0415 161.49C96.6954 161.186 96.5293 160.826 96.5293 160.397V149.376C96.5293 148.809 96.8477 148.324 97.4154 148.033Z" fill="#BBBDBF"/>
<path d="M131.128 162.972V172.622C131.128 174.818 122.965 175.911 114.834 175.903V128H126.559C127.57 128 128.387 128.706 128.387 129.564V145.957C129.744 146.649 131.087 147.341 132.443 148.033C133.011 148.324 133.33 148.809 133.33 149.376V160.397C133.33 160.826 133.163 161.186 132.817 161.49C132.25 161.975 131.682 162.473 131.128 162.972Z" fill="#404041"/>
<path d="M132.385 148.033C131.029 147.341 129.686 146.649 128.329 145.957C128.329 140.488 128.329 135.019 128.315 129.564C128.315 128.706 127.498 128 126.488 128L125.801 146.967L131.07 150.467V162.972L129.301 165.467V174.219C130.419 173.774 131.07 173.242 131.07 172.622V162.972C131.638 162.487 132.192 161.989 132.759 161.49C133.105 161.186 133.271 160.826 133.271 160.397V149.376C133.271 148.809 132.953 148.324 132.385 148.033Z" fill="#231F20"/>
<rect x="101.85" y="155.317" width="1.7" height="4.3" rx="0.65" fill="black" stroke="black" stroke-width="0.3"/>
<rect x="101.801" y="155.467" width="1.4" height="4" rx="0.5" fill="#9E3E63"/>
<path fill-rule="evenodd" clip-rule="evenodd" d="M102.177 156.174H102.559C102.715 156.174 102.845 156.238 102.845 156.314V158.962C102.845 159.039 102.715 159.103 102.559 159.103H102.177C102.021 159.103 101.891 159.039 101.891 158.962V156.317C101.891 156.238 102.021 156.174 102.177 156.174Z" fill="#F39DB1"/>
<path d="M102.526 156.275C102.614 156.275 102.685 156.207 102.685 156.124C102.685 156.04 102.614 155.972 102.526 155.972C102.438 155.972 102.367 156.04 102.367 156.124C102.367 156.207 102.438 156.275 102.526 156.275Z" fill="white"/>
<path d="M102.049 158.725V157.419C102.049 157.306 102.25 157.124 102.569 156.944C102.603 156.921 102.642 156.9 102.685 156.881C102.645 156.902 102.606 156.923 102.569 156.944C102.325 157.102 102.293 157.32 102.312 157.419L102.312 158.725C102.293 158.825 102.421 158.952 102.85 159.023C102.5 159.023 102.049 158.839 102.049 158.725Z" fill="white"/>
<rect x="125.85" y="155.318" width="1.7" height="4.3" rx="0.65" fill="black" stroke="black" stroke-width="0.3"/>
<rect x="126.199" y="155.467" width="1.4" height="4" rx="0.5" fill="#9E3E63"/>
<path fill-rule="evenodd" clip-rule="evenodd" d="M126.575 156.174H126.957C127.113 156.174 127.243 156.238 127.243 156.314V158.962C127.243 159.039 127.113 159.103 126.957 159.103H126.575C126.419 159.103 126.289 159.039 126.289 158.962V156.317C126.289 156.238 126.419 156.174 126.575 156.174Z" fill="#F39DB1"/>
<path d="M126.925 156.275C127.013 156.275 127.084 156.207 127.084 156.124C127.084 156.04 127.013 155.972 126.925 155.972C126.837 155.972 126.766 156.04 126.766 156.124C126.766 156.207 126.837 156.275 126.925 156.275Z" fill="white"/>
<path d="M126.447 158.725V157.419C126.447 157.306 126.649 157.124 126.967 156.944C127.002 156.921 127.04 156.9 127.084 156.881C127.043 156.902 127.004 156.923 126.967 156.944C126.724 157.102 126.692 157.32 126.71 157.419L126.71 158.725C126.692 158.825 126.819 158.952 127.249 159.023C126.899 159.023 126.447 158.839 126.447 158.725Z" fill="white"/>
<path d="M97.6309 162.622C97.6309 166.997 132.227 166.997 132.227 162.622" stroke="black" stroke-width="1.5"/>
<mask id="path-20-inside-4_1233_2887" fill="white">
<path d="M132.227 164.921C132.227 169.296 97.6309 169.296 97.6309 164.921V161.821C97.6309 166.196 132.227 166.196 132.227 161.821V164.921Z"/>
</mask>
<path d="M132.227 164.921C132.227 169.296 97.6309 169.296 97.6309 164.921V161.821C97.6309 166.196 132.227 166.196 132.227 161.821V164.921Z" fill="#404041" stroke="black" stroke-width="2" mask="url(#path-20-inside-4_1233_2887)"/>
<path d="M100.631 144.867C100.631 149.242 129.227 149.242 129.227 144.867" stroke="black"/>
<path d="M96 148.466C96 150.654 105.5 152.748 115 152.748C124.5 152.748 134 150.654 134 148.466" stroke="black"/>
<path d="M114.701 165.168V167.468" stroke="black"/>
<path d="M118.701 165.168V167.468" stroke="black"/>
<path d="M122.701 165.168V167.468" stroke="black"/>
<path d="M126.701 164.968V167.268" stroke="black"/>
<path d="M130.701 163.668V165.968" stroke="black"/>
<path d="M110.701 165.168V167.468" stroke="black"/>
<path d="M106.701 165.168V167.468" stroke="black"/>
<path d="M102.701 164.968V167.268" stroke="black"/>
<path d="M98.7012 164.168V166.468" stroke="black"/>
</svg>
