<svg width="230" height="230" viewBox="0 0 230 230" fill="none" xmlns="http://www.w3.org/2000/svg">
<path fill-rule="evenodd" clip-rule="evenodd" d="M62.8849 72.5518H66.6147C67.3025 72.5518 67.8668 73.1073 67.858 73.795L67.4876 109.885H62.8761C62.1883 109.885 61.6328 109.33 61.6328 108.642V73.795C61.6416 73.1073 62.206 72.5518 62.8849 72.5518Z" fill="#6D6E70"/>
<path d="M61.7577 78.1738L67.6406 78.1738L67.6406 75.8676L61.7577 75.8676L61.7577 78.1738Z" fill="#404041"/>
<path d="M61.7369 78.1738L67.6621 78.1738L67.6621 75.8676L61.7369 75.8676L61.7369 78.1738Z" stroke="black" stroke-width="0.429643"/>
<path d="M66.9117 78.0801L67.2266 78.0801L67.2266 76.2219L66.9117 76.2219L66.9117 78.0801Z" fill="black"/>
<path d="M66.2319 78.0801L66.5469 78.0801L66.5469 76.2219L66.2319 76.2219L66.2319 78.0801Z" fill="black"/>
<path d="M62.8491 78.0801L63.1641 78.0801L63.1641 76.2219L62.8491 76.2219L62.8491 78.0801Z" fill="black"/>
<path d="M62.1714 78.0801L62.4863 78.0801L62.4863 76.2219L62.1714 76.2219L62.1714 78.0801Z" fill="black"/>
<path d="M61.71 76.0581L62.8052 76.0581L67.6882 76.0581L68.1113 75.57L67.4371 71.9998L62.8052 71.9998L61.961 71.9998L61.2874 75.57L61.71 76.0581Z" fill="#6D6E70"/>
<path d="M61.7096 76.0581L62.7718 76.0581L62.3492 75.57L63.0234 71.9998L61.9607 71.9998L61.287 75.57L61.7096 76.0581Z" fill="white"/>
<path d="M66.2721 76.0581L67.6882 76.0581L68.1113 75.57L67.4371 71.9998L66.021 71.9998L66.6952 75.57L66.2721 76.0581Z" fill="#404041"/>
<path d="M61.71 76.0581L62.8052 76.0581L67.6882 76.0581L68.1113 75.57L67.4371 71.9998L62.8052 71.9998L61.961 71.9998L61.2874 75.57L61.71 76.0581Z" stroke="black" stroke-width="0.811667"/>
<path d="M61.432 74.8716L67.9648 74.8716L67.9648 74.1541L61.432 74.1541L61.432 74.8716Z" fill="black"/>
<path d="M61.2707 79.4902L68.125 79.4902L68.125 79.0032L61.2707 79.0032L61.2707 79.4902Z" fill="white"/>
<path d="M61.1991 113.662L68.1973 113.662L68.1973 77.6598L61.1991 77.6598L61.1991 113.662Z" fill="#6D6E70"/>
<path d="M61.1988 113.662L63.5078 113.662L63.5078 77.6598L61.1988 77.6598L61.1988 113.662Z" fill="white"/>
<path d="M68.1973 113.662L68.1973 77.6593L65.5999 77.6593L65.5999 113.662L68.1973 113.662Z" fill="#404041"/>
<path d="M61.1991 113.662L68.1973 113.662L68.1973 77.6598L61.1991 77.6598L61.1991 113.662Z" stroke="black" stroke-width="0.811667"/>
<path d="M61.2707 79.1655L68.125 79.1655L68.125 78.6785L61.2707 78.6785L61.2707 79.1655Z" fill="black"/>
<mask id="path-19-outside-1_1233_2887" maskUnits="userSpaceOnUse" x="58.3125" y="97.6016" width="49" height="56" fill="black">
<rect fill="white" x="58.3125" y="97.6016" width="49" height="56"/>
<path fill-rule="evenodd" clip-rule="evenodd" d="M70.433 119.86L75.0005 130L104.851 138.137V142.108C104.851 143.396 104.242 144.517 103.148 145.209L94.1628 150.886C93.5537 151.273 92.9445 151.453 92.2384 151.453C82.6994 151.453 73.1604 151.453 63.6352 151.453C61.8077 151.453 60.3125 149.958 60.3125 148.13V100.602L69.4777 105.655C69.4777 109.573 69.4777 113.477 69.4777 117.395C69.4777 118.35 69.7961 119.167 70.433 119.86Z"/>
</mask>
<path fill-rule="evenodd" clip-rule="evenodd" d="M70.433 119.86L75.0005 130L104.851 138.137V142.108C104.851 143.396 104.242 144.517 103.148 145.209L94.1628 150.886C93.5537 151.273 92.9445 151.453 92.2384 151.453C82.6994 151.453 73.1604 151.453 63.6352 151.453C61.8077 151.453 60.3125 149.958 60.3125 148.13V100.602L69.4777 105.655C69.4777 109.573 69.4777 113.477 69.4777 117.395C69.4777 118.35 69.7961 119.167 70.433 119.86Z" fill="#6D6E70"/>
<path fill-rule="evenodd" clip-rule="evenodd" d="M70.433 119.86L75.0005 130L104.851 138.137V142.108C104.851 143.396 104.242 144.517 103.148 145.209L94.1628 150.886C93.5537 151.273 92.9445 151.453 92.2384 151.453C82.6994 151.453 73.1604 151.453 63.6352 151.453C61.8077 151.453 60.3125 149.958 60.3125 148.13V100.602L69.4777 105.655C69.4777 109.573 69.4777 113.477 69.4777 117.395C69.4777 118.35 69.7961 119.167 70.433 119.86Z" stroke="black" stroke-width="3" mask="url(#path-19-outside-1_1233_2887)"/>
<path d="M69.3564 118L69.3008 142.035L71.3008 119.793L69.3564 118Z" fill="black"/>
<path d="M105 144L70 138L64.5 103.5L60 101V153.5L97.5 156L105 144Z" fill="#404041"/>
<path d="M61.4645 141.629L71.2876 151.452L61.7876 140.164V101.586L60 100.6V138.093C60 139.419 60.5268 140.691 61.4645 141.629Z" fill="white"/>
<path fill-rule="evenodd" clip-rule="evenodd" d="M47.2853 86.5518H51.0151C51.7029 86.5518 52.2672 87.1073 52.2584 87.795L51.888 123.885H47.2765C46.5887 123.885 46.0332 123.33 46.0332 122.642V87.795C46.042 87.1073 46.6063 86.5518 47.2853 86.5518Z" fill="#6D6E70"/>
<path d="M46.1581 92.1738L52.041 92.1738L52.041 89.8676L46.1581 89.8676L46.1581 92.1738Z" fill="#404041"/>
<path d="M46.1373 92.1738L52.0625 92.1738L52.0625 89.8676L46.1373 89.8676L46.1373 92.1738Z" stroke="black" stroke-width="0.429643"/>
<path d="M51.3121 92.0801L51.627 92.0801L51.627 90.2219L51.3121 90.2219L51.3121 92.0801Z" fill="black"/>
<path d="M50.6323 92.0801L50.9473 92.0801L50.9473 90.2219L50.6323 90.2219L50.6323 92.0801Z" fill="black"/>
<path d="M47.2495 92.0801L47.5645 92.0801L47.5645 90.2219L47.2495 90.2219L47.2495 92.0801Z" fill="black"/>
<path d="M46.5718 92.0801L46.8867 92.0801L46.8867 90.2219L46.5718 90.2219L46.5718 92.0801Z" fill="black"/>
<path d="M46.1104 90.0581L47.2056 90.0581L52.0886 90.0581L52.5117 89.57L51.8375 85.9998L47.2056 85.9998L46.3614 85.9998L45.6877 89.57L46.1104 90.0581Z" fill="#6D6E70"/>
<path d="M46.11 90.0581L47.1722 90.0581L46.7496 89.57L47.4238 85.9998L46.3611 85.9998L45.6874 89.57L46.11 90.0581Z" fill="white"/>
<path d="M50.6725 90.0581L52.0886 90.0581L52.5117 89.57L51.8375 85.9998L50.4214 85.9998L51.0956 89.57L50.6725 90.0581Z" fill="#404041"/>
<path d="M46.1104 90.0581L47.2056 90.0581L52.0886 90.0581L52.5117 89.57L51.8375 85.9998L47.2056 85.9998L46.3614 85.9998L45.6877 89.57L46.1104 90.0581Z" stroke="black" stroke-width="0.811667"/>
<path d="M45.8324 88.8716L52.3652 88.8716L52.3652 88.1541L45.8324 88.1541L45.8324 88.8716Z" fill="black"/>
<path d="M45.6711 93.4902L52.5254 93.4902L52.5254 93.0032L45.6711 93.0032L45.6711 93.4902Z" fill="white"/>
<path d="M45.5995 127.662L52.5977 127.662L52.5977 91.6598L45.5995 91.6598L45.5995 127.662Z" fill="#6D6E70"/>
<path d="M45.5992 127.662L47.9082 127.662L47.9082 91.6598L45.5992 91.6598L45.5992 127.662Z" fill="white"/>
<path d="M52.5977 127.662L52.5977 91.6593L50.0003 91.6593L50.0003 127.662L52.5977 127.662Z" fill="#404041"/>
<path d="M45.5995 127.662L52.5977 127.662L52.5977 91.6598L45.5995 91.6598L45.5995 127.662Z" stroke="black" stroke-width="0.811667"/>
<path d="M45.6711 93.1655L52.5254 93.1655L52.5254 92.6785L45.6711 92.6785L45.6711 93.1655Z" fill="black"/>
<mask id="path-41-outside-2_1233_2887" maskUnits="userSpaceOnUse" x="42.7129" y="111.602" width="78" height="56" fill="black">
<rect fill="white" x="42.7129" y="111.602" width="78" height="56"/>
<path d="M66.1722 146.278L54.8334 133.86C54.1965 133.167 53.8781 132.35 53.8781 131.395V119.655L44.7129 114.602V152.095C44.7129 153.421 45.2397 154.692 46.1774 155.63L54.2834 163.736C55.3676 164.82 56.8678 165.35 58.3906 165.171C67.3815 164.114 98.9969 160.453 105.639 160.453C106.345 160.453 106.954 160.273 107.563 159.886L116.548 154.209C117.642 153.517 118.251 152.396 118.251 151.108V142.137L66.1722 146.278Z"/>
</mask>
<path d="M66.1722 146.278L54.8334 133.86C54.1965 133.167 53.8781 132.35 53.8781 131.395V119.655L44.7129 114.602V152.095C44.7129 153.421 45.2397 154.692 46.1774 155.63L54.2834 163.736C55.3676 164.82 56.8678 165.35 58.3906 165.171C67.3815 164.114 98.9969 160.453 105.639 160.453C106.345 160.453 106.954 160.273 107.563 159.886L116.548 154.209C117.642 153.517 118.251 152.396 118.251 151.108V142.137L66.1722 146.278Z" fill="#6D6E70"/>
<path d="M66.1722 146.278L54.8334 133.86C54.1965 133.167 53.8781 132.35 53.8781 131.395V119.655L44.7129 114.602V152.095C44.7129 153.421 45.2397 154.692 46.1774 155.63L54.2834 163.736C55.3676 164.82 56.8678 165.35 58.3906 165.171C67.3815 164.114 98.9969 160.453 105.639 160.453C106.345 160.453 106.954 160.273 107.563 159.886L116.548 154.209C117.642 153.517 118.251 152.396 118.251 151.108V142.137L66.1722 146.278Z" stroke="black" stroke-width="3" mask="url(#path-41-outside-2_1233_2887)"/>
<path d="M118.25 142.136L66.1709 146.278L95.4991 161.152C100.105 160.729 103.813 160.453 105.637 160.453C106.344 160.453 106.953 160.273 107.562 159.885L116.547 154.209C117.641 153.517 118.25 152.395 118.25 151.108V142.136Z" fill="#404041"/>
<path d="M46.1774 155.63L56.0005 165.453L46.5005 154.166V115.587L44.7129 114.602V152.095C44.7129 153.421 45.2397 154.692 46.1774 155.63Z" fill="white"/>
<path d="M53.8564 131L53.8008 155.035L55.8008 132.793L53.8564 131Z" fill="black"/>
<path d="M44.0996 141.84C44.0996 141.84 47.3516 139.368 47.3516 137.254V127.271C47.3516 124.8 44.1321 123.206 44.1321 123.206L44.0996 141.84Z" fill="#404041"/>
<path d="M43.4285 123C43.4285 123 41 124.604 41 126.858V137.699C41 139.52 43.7746 141.644 43.7746 141.644L45.7699 136.441V127.252L43.4285 123Z" fill="#F39DB1"/>
<path d="M44.4692 124.889V133.84L42.4738 139.043C41.9448 138.622 41.4518 138.159 41 137.656V137.699C41 139.52 43.7746 141.644 43.7746 141.644L45.7699 136.441V127.253L44.4692 124.889Z" fill="#9E3E63"/>
<path d="M43.4285 123C43.4285 123 41 124.604 41 126.858V137.699C41 139.52 43.7746 141.644 43.7746 141.644C43.7746 141.644 45.7699 137.644 45.7699 136.441V127.252C45.7699 125.71 43.4285 123 43.4285 123Z" stroke="black"/>
<path d="M42.2583 132.929C42.2583 132.929 41.1526 125.602 43.2339 124.777C43.2339 124.781 42.3012 131.086 42.2583 132.929Z" fill="white"/>
<path d="M59.6328 125C59.6328 125 62.3946 122.901 62.3946 121.106V112.627C62.3946 110.528 59.6604 109.175 59.6604 109.175L59.6328 125Z" fill="#404041"/>
<path d="M59.0625 109C59.0625 109 57 110.362 57 112.277V121.483C57 123.03 59.3564 124.834 59.3564 124.834L61.051 120.415V112.611L59.0625 109Z" fill="#F39DB1"/>
<path d="M59.9463 110.604V118.206L58.2517 122.625C57.8024 122.268 57.3837 121.874 57 121.447V121.484C57 123.03 59.3564 124.834 59.3564 124.834L61.051 120.415V112.612L59.9463 110.604Z" fill="#9E3E63"/>
<path d="M59.0625 109C59.0625 109 57 110.362 57 112.277V121.483C57 123.03 59.3564 124.834 59.3564 124.834C59.3564 124.834 61.051 121.437 61.051 120.415V112.611C61.051 111.301 59.0625 109 59.0625 109Z" stroke="black"/>
<path d="M58.0676 117.433C58.0676 117.433 57.1285 111.21 58.8961 110.509C58.8961 110.513 58.104 115.867 58.0676 117.433Z" fill="white"/>
<path fill-rule="evenodd" clip-rule="evenodd" d="M167.67 72.5518H163.94C163.252 72.5518 162.688 73.1073 162.697 73.795L163.067 109.885H167.679C168.366 109.885 168.922 109.33 168.922 108.642V73.795C168.913 73.1073 168.349 72.5518 167.67 72.5518Z" fill="#6D6E70"/>
<path d="M168.797 78.1738L162.914 78.1738L162.914 75.8676L168.797 75.8676L168.797 78.1738Z" fill="#404041"/>
<path d="M168.818 78.1738L162.893 78.1738L162.893 75.8676L168.818 75.8676L168.818 78.1738Z" stroke="black" stroke-width="0.429643"/>
<path d="M163.643 78.0801L163.328 78.0801L163.328 76.2219L163.643 76.2219L163.643 78.0801Z" fill="black"/>
<path d="M164.323 78.0801L164.008 78.0801L164.008 76.2219L164.323 76.2219L164.323 78.0801Z" fill="black"/>
<path d="M167.706 78.0801L167.391 78.0801L167.391 76.2219L167.706 76.2219L167.706 78.0801Z" fill="black"/>
<path d="M168.383 78.0801L168.068 78.0801L168.068 76.2219L168.383 76.2219L168.383 78.0801Z" fill="black"/>
<path d="M168.845 76.0581L167.749 76.0581L162.867 76.0581L162.443 75.57L163.118 71.9998L167.749 71.9998L168.594 71.9998L169.267 75.57L168.845 76.0581Z" fill="#6D6E70"/>
<path d="M168.845 76.0581L167.783 76.0581L168.206 75.57L167.531 71.9998L168.594 71.9998L169.268 75.57L168.845 76.0581Z" fill="white"/>
<path d="M164.283 76.0581L162.867 76.0581L162.443 75.57L163.118 71.9998L164.534 71.9998L163.859 75.57L164.283 76.0581Z" fill="#404041"/>
<path d="M168.845 76.0581L167.749 76.0581L162.867 76.0581L162.443 75.57L163.118 71.9998L167.749 71.9998L168.594 71.9998L169.267 75.57L168.845 76.0581Z" stroke="black" stroke-width="0.811667"/>
<path d="M169.123 74.8716L162.59 74.8716L162.59 74.1541L169.123 74.1541L169.123 74.8716Z" fill="black"/>
<path d="M169.284 79.4902L162.43 79.4902L162.43 79.0032L169.284 79.0032L169.284 79.4902Z" fill="white"/>
<path d="M169.356 113.662L162.357 113.662L162.357 77.6598L169.356 77.6598L169.356 113.662Z" fill="#6D6E70"/>
<path d="M169.356 113.662L167.047 113.662L167.047 77.6598L169.356 77.6598L169.356 113.662Z" fill="white"/>
<path d="M162.357 113.662L162.357 77.6593L164.955 77.6593L164.955 113.662L162.357 113.662Z" fill="#404041"/>
<path d="M169.356 113.662L162.357 113.662L162.357 77.6598L169.356 77.6598L169.356 113.662Z" stroke="black" stroke-width="0.811667"/>
<path d="M169.284 79.1655L162.43 79.1655L162.43 78.6785L169.284 78.6785L169.284 79.1655Z" fill="black"/>
<mask id="path-73-outside-3_1233_2887" maskUnits="userSpaceOnUse" x="123.242" y="97.6016" width="49" height="56" fill="black">
<rect fill="white" x="123.242" y="97.6016" width="49" height="56"/>
<path fill-rule="evenodd" clip-rule="evenodd" d="M160.122 119.86L155.554 130L125.704 138.137V142.108C125.704 143.396 126.313 144.517 127.407 145.209L136.392 150.886C137.001 151.273 137.61 151.453 138.316 151.453C147.855 151.453 157.394 151.453 166.919 151.453C168.747 151.453 170.242 149.958 170.242 148.13V100.602L161.077 105.655C161.077 109.573 161.077 113.477 161.077 117.395C161.077 118.35 160.759 119.167 160.122 119.86Z"/>
</mask>
<path fill-rule="evenodd" clip-rule="evenodd" d="M160.122 119.86L155.554 130L125.704 138.137V142.108C125.704 143.396 126.313 144.517 127.407 145.209L136.392 150.886C137.001 151.273 137.61 151.453 138.316 151.453C147.855 151.453 157.394 151.453 166.919 151.453C168.747 151.453 170.242 149.958 170.242 148.13V100.602L161.077 105.655C161.077 109.573 161.077 113.477 161.077 117.395C161.077 118.35 160.759 119.167 160.122 119.86Z" fill="#6D6E70"/>
<path fill-rule="evenodd" clip-rule="evenodd" d="M160.122 119.86L155.554 130L125.704 138.137V142.108C125.704 143.396 126.313 144.517 127.407 145.209L136.392 150.886C137.001 151.273 137.61 151.453 138.316 151.453C147.855 151.453 157.394 151.453 166.919 151.453C168.747 151.453 170.242 149.958 170.242 148.13V100.602L161.077 105.655C161.077 109.573 161.077 113.477 161.077 117.395C161.077 118.35 160.759 119.167 160.122 119.86Z" stroke="black" stroke-width="3" mask="url(#path-73-outside-3_1233_2887)"/>
<path d="M161.198 118L161.254 142.035L159.254 119.793L161.198 118Z" fill="black"/>
<path d="M125.555 144L160.555 138L166.055 103.5L170.555 101V153.5L133.055 156L125.555 144Z" fill="#404041"/>
<path d="M169.09 141.629L159.267 151.452L168.767 140.164V101.586L170.555 100.6V138.093C170.555 139.419 170.028 140.691 169.09 141.629Z" fill="white"/>
<path fill-rule="evenodd" clip-rule="evenodd" d="M183.269 86.5518H179.54C178.852 86.5518 178.288 87.1073 178.296 87.795L178.667 123.885H183.278C183.966 123.885 184.521 123.33 184.521 122.642V87.795C184.513 87.1073 183.948 86.5518 183.269 86.5518Z" fill="#6D6E70"/>
<path d="M184.397 92.1738L178.514 92.1738L178.514 89.8676L184.397 89.8676L184.397 92.1738Z" fill="#404041"/>
<path d="M184.417 92.1738L178.492 92.1738L178.492 89.8676L184.417 89.8676L184.417 92.1738Z" stroke="black" stroke-width="0.429643"/>
<path d="M179.243 92.0801L178.928 92.0801L178.928 90.2219L179.243 90.2219L179.243 92.0801Z" fill="black"/>
<path d="M179.922 92.0801L179.607 92.0801L179.607 90.2219L179.922 90.2219L179.922 92.0801Z" fill="black"/>
<path d="M183.305 92.0801L182.99 92.0801L182.99 90.2219L183.305 90.2219L183.305 92.0801Z" fill="black"/>
<path d="M183.983 92.0801L183.668 92.0801L183.668 90.2219L183.983 90.2219L183.983 92.0801Z" fill="black"/>
<path d="M184.444 90.0581L183.349 90.0581L178.466 90.0581L178.043 89.57L178.717 85.9998L183.349 85.9998L184.193 85.9998L184.867 89.57L184.444 90.0581Z" fill="#6D6E70"/>
<path d="M184.445 90.0581L183.382 90.0581L183.805 89.57L183.131 85.9998L184.194 85.9998L184.867 89.57L184.445 90.0581Z" fill="white"/>
<path d="M179.882 90.0581L178.466 90.0581L178.043 89.57L178.717 85.9998L180.133 85.9998L179.459 89.57L179.882 90.0581Z" fill="#404041"/>
<path d="M184.444 90.0581L183.349 90.0581L178.466 90.0581L178.043 89.57L178.717 85.9998L183.349 85.9998L184.193 85.9998L184.867 89.57L184.444 90.0581Z" stroke="black" stroke-width="0.811667"/>
<path d="M184.722 88.8716L178.189 88.8716L178.189 88.1541L184.722 88.1541L184.722 88.8716Z" fill="black"/>
<path d="M184.884 93.4902L178.029 93.4902L178.029 93.0032L184.884 93.0032L184.884 93.4902Z" fill="white"/>
<path d="M184.955 127.662L177.957 127.662L177.957 91.6598L184.955 91.6598L184.955 127.662Z" fill="#6D6E70"/>
<path d="M184.955 127.662L182.646 127.662L182.646 91.6598L184.955 91.6598L184.955 127.662Z" fill="white"/>
<path d="M177.957 127.662L177.957 91.6593L180.554 91.6593L180.554 127.662L177.957 127.662Z" fill="#404041"/>
<path d="M184.955 127.662L177.957 127.662L177.957 91.6598L184.955 91.6598L184.955 127.662Z" stroke="black" stroke-width="0.811667"/>
<path d="M184.884 93.1655L178.029 93.1655L178.029 92.6785L184.884 92.6785L184.884 93.1655Z" fill="black"/>
<mask id="path-95-outside-4_1233_2887" maskUnits="userSpaceOnUse" x="109.842" y="111.602" width="78" height="56" fill="black">
<rect fill="white" x="109.842" y="111.602" width="78" height="56"/>
<path d="M164.382 146.278L175.721 133.86C176.358 133.167 176.677 132.35 176.677 131.395V119.655L185.842 114.602V152.095C185.842 153.421 185.315 154.692 184.377 155.63L176.271 163.736C175.187 164.82 173.687 165.35 172.164 165.171C163.173 164.114 131.558 160.453 124.916 160.453C124.21 160.453 123.601 160.273 122.991 159.886L114.006 154.209C112.913 153.517 112.303 152.396 112.303 151.108V142.137L164.382 146.278Z"/>
</mask>
<path d="M164.382 146.278L175.721 133.86C176.358 133.167 176.677 132.35 176.677 131.395V119.655L185.842 114.602V152.095C185.842 153.421 185.315 154.692 184.377 155.63L176.271 163.736C175.187 164.82 173.687 165.35 172.164 165.171C163.173 164.114 131.558 160.453 124.916 160.453C124.21 160.453 123.601 160.273 122.991 159.886L114.006 154.209C112.913 153.517 112.303 152.396 112.303 151.108V142.137L164.382 146.278Z" fill="#6D6E70"/>
<path d="M164.382 146.278L175.721 133.86C176.358 133.167 176.677 132.35 176.677 131.395V119.655L185.842 114.602V152.095C185.842 153.421 185.315 154.692 184.377 155.63L176.271 163.736C175.187 164.82 173.687 165.35 172.164 165.171C163.173 164.114 131.558 160.453 124.916 160.453C124.21 160.453 123.601 160.273 122.991 159.886L114.006 154.209C112.913 153.517 112.303 152.396 112.303 151.108V142.137L164.382 146.278Z" stroke="black" stroke-width="3" mask="url(#path-95-outside-4_1233_2887)"/>
<path d="M112.305 142.136L164.384 146.278L135.056 161.152C130.45 160.729 126.741 160.453 124.917 160.453C124.211 160.453 123.602 160.273 122.993 159.885L114.008 154.209C112.914 153.517 112.305 152.395 112.305 151.108V142.136Z" fill="#404041"/>
<path d="M184.377 155.63L174.554 165.453L184.054 154.166V115.587L185.842 114.602V152.095C185.842 153.421 185.315 154.692 184.377 155.63Z" fill="white"/>
<path d="M176.698 131L176.754 155.035L174.754 132.793L176.698 131Z" fill="black"/>
<path d="M186.455 141.84C186.455 141.84 183.203 139.368 183.203 137.254V127.271C183.203 124.8 186.423 123.206 186.423 123.206L186.455 141.84Z" fill="#404041"/>
<path d="M187.126 123C187.126 123 189.555 124.604 189.555 126.858V137.699C189.555 139.52 186.78 141.644 186.78 141.644L184.785 136.441V127.252L187.126 123Z" fill="#F39DB1"/>
<path d="M186.086 124.889V133.84L188.081 139.043C188.61 138.622 189.103 138.159 189.555 137.656V137.699C189.555 139.52 186.78 141.644 186.78 141.644L184.785 136.441V127.253L186.086 124.889Z" fill="#9E3E63"/>
<path d="M187.126 123C187.126 123 189.555 124.604 189.555 126.858V137.699C189.555 139.52 186.78 141.644 186.78 141.644C186.78 141.644 184.785 137.644 184.785 136.441V127.252C184.785 125.71 187.126 123 187.126 123Z" stroke="black"/>
<path d="M188.296 132.929C188.296 132.929 189.402 125.602 187.321 124.777C187.321 124.781 188.253 131.086 188.296 132.929Z" fill="white"/>
<path d="M170.922 125C170.922 125 168.16 122.901 168.16 121.106V112.627C168.16 110.528 170.894 109.175 170.894 109.175L170.922 125Z" fill="#404041"/>
<path d="M171.492 109C171.492 109 173.555 110.362 173.555 112.277V121.483C173.555 123.03 171.198 124.834 171.198 124.834L169.504 120.415V112.611L171.492 109Z" fill="#F39DB1"/>
<path d="M170.608 110.604V118.206L172.303 122.625C172.752 122.268 173.171 121.874 173.555 121.447V121.484C173.555 123.03 171.198 124.834 171.198 124.834L169.504 120.415V112.612L170.608 110.604Z" fill="#9E3E63"/>
<path d="M171.492 109C171.492 109 173.555 110.362 173.555 112.277V121.483C173.555 123.03 171.198 124.834 171.198 124.834C171.198 124.834 169.504 121.437 169.504 120.415V112.611C169.504 111.301 171.492 109 171.492 109Z" stroke="black"/>
<path d="M172.487 117.433C172.487 117.433 173.426 111.21 171.659 110.509C171.659 110.513 172.451 115.867 172.487 117.433Z" fill="white"/>
</svg>
