<svg width="230" height="230" viewBox="0 0 230 230" fill="none" xmlns="http://www.w3.org/2000/svg">
<path d="M88.4268 80.4502H93V83.7695H88.4268V80.4502Z" fill="#404041"/>
<path d="M88.3953 80.4502H93.0293V83.7695H88.3953V80.4502Z" stroke="black" stroke-width="0.618382"/>
<path d="M91.9491 80.9609H92.4023V83.6354H91.9491V80.9609Z" fill="black"/>
<path d="M90.9745 80.9609H91.4277V83.6354H90.9745V80.9609Z" fill="black"/>
<path d="M89.9979 80.9609H90.4512V83.6354H89.9979V80.9609Z" fill="black"/>
<path d="M89.0233 80.9609H89.4766V83.6354H89.0233V80.9609Z" fill="black"/>
<path d="M88.3584 80.7259H89.9347H93.0695L93.6777 80.0234L92.7073 78H89.9347H88.7206L87.7501 80.0234L88.3584 80.7259Z" fill="#6D6E70"/>
<path d="M88.3571 80.7259H89.8859L89.2776 80.0234L90.248 78H88.7192L87.7488 80.0234L88.3571 80.7259Z" fill="white"/>
<path d="M91.0305 80.7259H93.0695L93.6777 80.0234L92.7073 78H90.6692L91.6396 80.0234L91.0305 80.7259Z" fill="#404041"/>
<path d="M88.3584 80.7259H89.9347H93.0695L93.6777 80.0234L92.7073 78H89.9347H88.7206L87.7501 80.0234L88.3584 80.7259Z" stroke="black" stroke-width="0.700936"/>
<path d="M87.9582 79.6504H93.4668V80.0009H87.9582V79.6504Z" fill="black"/>
<path d="M87.728 85.6643H93.6992V84.9634H87.728V85.6643Z" fill="white"/>
<path d="M87.1797 83.4033H94.1797V122.403H87.1797V83.4033Z" fill="#6D6E70"/>
<path d="M87.1797 83.4033H89.1797V121.903H87.1797V83.4033Z" fill="white"/>
<path d="M92.1797 83.4033H94.1797V122.403H92.1797V83.4033Z" fill="#404041"/>
<path d="M87.6244 83.0293H93.8027V122.011H87.6244V83.0293Z" stroke="black"/>
<path d="M87.728 85.197H93.6992V84.4961H87.728V85.197Z" fill="black"/>
<mask id="path-18-outside-1_1233_2887" maskUnits="userSpaceOnUse" x="82.6875" y="112" width="20" height="21" fill="black">
<rect fill="white" x="82.6875" y="112" width="20" height="21"/>
<path d="M87.715 129.078C86.1506 128.635 85.0014 127.25 85.0014 125.478V114L95.8834 116.839C96.6587 116.936 97.1848 117.67 97.1848 118.459V122.128L100.688 123.346C100.688 127.97 96.8387 131.681 92.7683 130.518L87.715 129.078Z"/>
</mask>
<path d="M87.715 129.078C86.1506 128.635 85.0014 127.25 85.0014 125.478V114L95.8834 116.839C96.6587 116.936 97.1848 117.67 97.1848 118.459V122.128L100.688 123.346C100.688 127.97 96.8387 131.681 92.7683 130.518L87.715 129.078Z" fill="#6D6E70"/>
<path d="M87.715 129.078C86.1506 128.635 85.0014 127.25 85.0014 125.478V114L95.8834 116.839C96.6587 116.936 97.1848 117.67 97.1848 118.459V122.128L100.688 123.346C100.688 127.97 96.8387 131.681 92.7683 130.518L87.715 129.078Z" stroke="black" stroke-width="3" mask="url(#path-18-outside-1_1233_2887)"/>
<path d="M92.7683 130.518L87.715 129.078C91.6792 128.5 97.1848 124.756 97.1848 122.128L100.688 123.346C100.688 127.97 96.8387 131.681 92.7683 130.518Z" fill="#404041"/>
<path d="M85.0009 114L95.8828 116.839L86.4786 116.239L85.0009 125.478V114Z" fill="white"/>
<path d="M142.062 80.4502H137.488V83.7695H142.062V80.4502Z" fill="#404041"/>
<path d="M142.093 80.4502H137.459V83.7695H142.093V80.4502Z" stroke="black" stroke-width="0.618382"/>
<path d="M138.539 80.9609H138.086V83.6354H138.539V80.9609Z" fill="black"/>
<path d="M139.514 80.9609H139.061V83.6354H139.514V80.9609Z" fill="black"/>
<path d="M140.49 80.9609H140.037V83.6354H140.49V80.9609Z" fill="black"/>
<path d="M141.465 80.9609H141.012V83.6354H141.465V80.9609Z" fill="black"/>
<path d="M142.13 80.7259H140.554H137.419L136.811 80.0234L137.781 78H140.554H141.768L142.738 80.0234L142.13 80.7259Z" fill="#6D6E70"/>
<path d="M142.131 80.7259H140.602L141.211 80.0234L140.24 78H141.769L142.739 80.0234L142.131 80.7259Z" fill="white"/>
<path d="M139.458 80.7259H137.419L136.811 80.0234L137.781 78H139.819L138.849 80.0234L139.458 80.7259Z" fill="#404041"/>
<path d="M142.13 80.7259H140.554H137.419L136.811 80.0234L137.781 78H140.554H141.768L142.738 80.0234L142.13 80.7259Z" stroke="black" stroke-width="0.700936"/>
<path d="M142.53 79.6504H137.021V80.0009H142.53V79.6504Z" fill="black"/>
<path d="M142.76 85.6643H136.789V84.9634H142.76V85.6643Z" fill="white"/>
<path d="M143.309 83.4033H136.309V122.403H143.309V83.4033Z" fill="#6D6E70"/>
<path d="M143.309 83.4033H141.309V121.903H143.309V83.4033Z" fill="white"/>
<path d="M138.309 83.4033H136.309V122.403H138.309V83.4033Z" fill="#404041"/>
<path d="M142.864 83.0293H136.686V122.011H142.864V83.0293Z" stroke="black"/>
<path d="M142.76 85.197H136.789V84.4961H142.76V85.197Z" fill="black"/>
<mask id="path-38-outside-2_1233_2887" maskUnits="userSpaceOnUse" x="127.801" y="112" width="20" height="21" fill="black">
<rect fill="white" x="127.801" y="112" width="20" height="21"/>
<path d="M142.773 129.078C144.338 128.635 145.487 127.25 145.487 125.478V114L134.605 116.839C133.83 116.936 133.303 117.67 133.303 118.459V122.128L129.801 123.346C129.801 127.97 133.65 131.681 137.72 130.518L142.773 129.078Z"/>
</mask>
<path d="M142.773 129.078C144.338 128.635 145.487 127.25 145.487 125.478V114L134.605 116.839C133.83 116.936 133.303 117.67 133.303 118.459V122.128L129.801 123.346C129.801 127.97 133.65 131.681 137.72 130.518L142.773 129.078Z" fill="#6D6E70"/>
<path d="M142.773 129.078C144.338 128.635 145.487 127.25 145.487 125.478V114L134.605 116.839C133.83 116.936 133.303 117.67 133.303 118.459V122.128L129.801 123.346C129.801 127.97 133.65 131.681 137.72 130.518L142.773 129.078Z" stroke="black" stroke-width="3" mask="url(#path-38-outside-2_1233_2887)"/>
<path d="M137.72 130.518L142.773 129.078C138.809 128.5 133.303 124.756 133.303 122.128L129.801 123.346C129.801 127.97 133.65 131.681 137.72 130.518Z" fill="#404041"/>
<path d="M145.487 114L134.605 116.839L144.01 116.239L145.487 125.478V114Z" fill="white"/>
</svg>
