<svg width="230" height="230" viewBox="0 0 230 230" fill="none" xmlns="http://www.w3.org/2000/svg">
<mask id="path-1-outside-1_1233_2887" maskUnits="userSpaceOnUse" x="83.3574" y="125" width="26" height="31" fill="black">
<rect fill="white" x="83.3574" y="125" width="26" height="31"/>
<path fill-rule="evenodd" clip-rule="evenodd" d="M86.3574 154.274H95.5088L106.28 127H97.1148L86.3574 154.274Z"/>
</mask>
<path fill-rule="evenodd" clip-rule="evenodd" d="M86.3574 154.274H95.5088L106.28 127H97.1148L86.3574 154.274Z" fill="#6D6E70"/>
<path fill-rule="evenodd" clip-rule="evenodd" d="M86.3574 154.274H95.5088L106.28 127H97.1148L86.3574 154.274Z" stroke="black" stroke-width="3" mask="url(#path-1-outside-1_1233_2887)"/>
<path d="M86.3574 154.274L97.1148 127H97.6748L89.1748 154.274H86.3574Z" fill="white"/>
<mask id="path-3-outside-2_1233_2887" maskUnits="userSpaceOnUse" x="43" y="147.847" width="60" height="36" fill="black">
<rect fill="white" x="43" y="147.847" width="60" height="36"/>
<path fill-rule="evenodd" clip-rule="evenodd" d="M98.375 149.941L82.7858 154.939C82.329 155.091 81.9828 155.368 81.7475 155.797L73.5929 170.486C73.2053 171.192 72.43 171.552 71.627 171.4L47.3157 166.541C44.8929 166.056 44.0899 170.209 46.2773 170.902L82.5089 182.213C83.3535 182.476 84.2395 182.116 84.6549 181.354L100.549 152.599C101.338 151.118 99.9533 149.429 98.375 149.941Z"/>
</mask>
<path fill-rule="evenodd" clip-rule="evenodd" d="M98.375 149.941L82.7858 154.939C82.329 155.091 81.9828 155.368 81.7475 155.797L73.5929 170.486C73.2053 171.192 72.43 171.552 71.627 171.4L47.3157 166.541C44.8929 166.056 44.0899 170.209 46.2773 170.902L82.5089 182.213C83.3535 182.476 84.2395 182.116 84.6549 181.354L100.549 152.599C101.338 151.118 99.9533 149.429 98.375 149.941Z" fill="#6D6E70"/>
<path fill-rule="evenodd" clip-rule="evenodd" d="M98.375 149.941L82.7858 154.939C82.329 155.091 81.9828 155.368 81.7475 155.797L73.5929 170.486C73.2053 171.192 72.43 171.552 71.627 171.4L47.3157 166.541C44.8929 166.056 44.0899 170.209 46.2773 170.902L82.5089 182.213C83.3535 182.476 84.2395 182.116 84.6549 181.354L100.549 152.599C101.338 151.118 99.9533 149.429 98.375 149.941Z" stroke="black" stroke-width="3" mask="url(#path-3-outside-2_1233_2887)"/>
<path d="M82.7858 154.939L98.3749 149.941C93.8016 151.893 84.681 155.739 83.1858 156.706C81.6906 157.674 76.767 165.076 74.6921 168.506L81.7474 155.797C81.9828 155.368 82.3289 155.091 82.7858 154.939Z" fill="white"/>
<path d="M47.3157 166.541L70.4656 171.168C68.1753 171.007 52.6748 168.507 47.1748 167.626C45.5561 167.842 45.3867 169.079 46.2773 170.902C44.0899 170.21 44.8929 166.056 47.3157 166.541Z" fill="white"/>
<path d="M100.549 152.599L84.6557 181.354L94.1756 151.287L98.3758 149.941C99.9541 149.429 101.339 151.118 100.549 152.599Z" fill="#404041"/>
<path d="M75.6758 165.392L81.5095 167.213C82.354 167.476 83.24 167.116 83.6554 166.354L91.8622 151.506" stroke="black"/>
<mask id="path-8-inside-3_1233_2887" fill="white">
<path fill-rule="evenodd" clip-rule="evenodd" d="M89.0272 162.172L90.5834 159.286C90.8239 158.867 91.3282 158.983 91.5427 159.37L92.7549 161.557C92.9041 161.826 92.943 162.233 92.7998 162.511L91.2473 165.383C91.0162 165.819 90.4997 165.721 90.2759 165.317L89.0636 163.13C88.9144 162.861 88.8756 162.454 89.0272 162.172Z"/>
</mask>
<path fill-rule="evenodd" clip-rule="evenodd" d="M89.0272 162.172L90.5834 159.286C90.8239 158.867 91.3282 158.983 91.5427 159.37L92.7549 161.557C92.9041 161.826 92.943 162.233 92.7998 162.511L91.2473 165.383C91.0162 165.819 90.4997 165.721 90.2759 165.317L89.0636 163.13C88.9144 162.861 88.8756 162.454 89.0272 162.172Z" fill="#9E3E63" stroke="black" stroke-width="0.691728" mask="url(#path-8-inside-3_1233_2887)"/>
<path fill-rule="evenodd" clip-rule="evenodd" d="M89.3253 162.394L90.2643 160.653C90.4094 160.4 90.7137 160.47 90.8431 160.704L91.5745 162.023C91.6645 162.185 91.688 162.431 91.6016 162.599L90.6649 164.332C90.5254 164.595 90.2138 164.536 90.0787 164.292L89.3473 162.972C89.2573 162.81 89.2338 162.564 89.3253 162.394Z" fill="#F39DB1"/>
<path d="M89.5941 162.358C89.4921 162.548 89.5183 162.822 89.6187 163.003L90.0266 163.739L89.8226 162.571L90.1177 161.387L89.5941 162.358Z" fill="white"/>
<mask id="path-11-inside-4_1233_2887" fill="white">
<path fill-rule="evenodd" clip-rule="evenodd" d="M86.4295 166.871L87.9857 163.985C88.2262 163.566 88.7305 163.682 88.945 164.069L90.1573 166.256C90.3065 166.525 90.3453 166.932 90.2021 167.21L88.6497 170.083C88.4185 170.519 87.902 170.42 87.6782 170.016L86.466 167.829C86.3168 167.56 86.2779 167.153 86.4295 166.871Z"/>
</mask>
<path fill-rule="evenodd" clip-rule="evenodd" d="M86.4295 166.871L87.9857 163.985C88.2262 163.566 88.7305 163.682 88.945 164.069L90.1573 166.256C90.3065 166.525 90.3453 166.932 90.2021 167.21L88.6497 170.083C88.4185 170.519 87.902 170.42 87.6782 170.016L86.466 167.829C86.3168 167.56 86.2779 167.153 86.4295 166.871Z" fill="#9E3E63" stroke="black" stroke-width="0.691728" mask="url(#path-11-inside-4_1233_2887)"/>
<path fill-rule="evenodd" clip-rule="evenodd" d="M86.7276 167.093L87.6666 165.352C87.8117 165.099 88.116 165.169 88.2454 165.403L88.9769 166.722C89.0669 166.885 89.0903 167.13 89.0039 167.298L88.0672 169.031C87.9277 169.294 87.6161 169.235 87.4811 168.991L86.7496 167.672C86.6596 167.509 86.6362 167.263 86.7276 167.093Z" fill="#F39DB1"/>
<path d="M86.9965 167.057C86.8945 167.247 86.9206 167.521 87.021 167.702L87.4289 168.438L87.225 167.27L87.5201 166.086L86.9965 167.057Z" fill="white"/>
<mask id="path-14-inside-5_1233_2887" fill="white">
<path fill-rule="evenodd" clip-rule="evenodd" d="M91.6248 157.473L93.181 154.587C93.4215 154.168 93.9258 154.284 94.1403 154.671L95.3526 156.858C95.5018 157.127 95.5406 157.535 95.3975 157.812L93.845 160.685C93.6138 161.121 93.0974 161.022 92.8736 160.618L91.6613 158.431C91.5121 158.162 91.4732 157.755 91.6248 157.473Z"/>
</mask>
<path fill-rule="evenodd" clip-rule="evenodd" d="M91.6248 157.473L93.181 154.587C93.4215 154.168 93.9258 154.284 94.1403 154.671L95.3526 156.858C95.5018 157.127 95.5406 157.535 95.3975 157.812L93.845 160.685C93.6138 161.121 93.0974 161.022 92.8736 160.618L91.6613 158.431C91.5121 158.162 91.4732 157.755 91.6248 157.473Z" fill="#9E3E63" stroke="black" stroke-width="0.691728" mask="url(#path-14-inside-5_1233_2887)"/>
<path fill-rule="evenodd" clip-rule="evenodd" d="M91.9229 157.695L92.8619 155.954C93.007 155.701 93.3113 155.771 93.4407 156.005L94.1722 157.324C94.2622 157.487 94.2856 157.733 94.1992 157.9L93.2625 159.633C93.1231 159.896 92.8114 159.837 92.6764 159.593L91.9449 158.274C91.8549 158.111 91.8315 157.865 91.9229 157.695Z" fill="#F39DB1"/>
<path d="M92.1918 157.659C92.0898 157.849 92.1159 158.123 92.2163 158.304L92.6242 159.04L92.4203 157.872L92.7154 156.688L92.1918 157.659Z" fill="white"/>
<path d="M71.5801 171.361L83.3714 173.681L72.6455 170.577L71.5801 171.361Z" fill="black"/>
<mask id="path-18-outside-6_1233_2887" maskUnits="userSpaceOnUse" x="120.623" y="125" width="26" height="31" fill="black">
<rect fill="white" x="120.623" y="125" width="26" height="31"/>
<path fill-rule="evenodd" clip-rule="evenodd" d="M143.623 154.274H134.472L123.7 127H132.866L143.623 154.274Z"/>
</mask>
<path fill-rule="evenodd" clip-rule="evenodd" d="M143.623 154.274H134.472L123.7 127H132.866L143.623 154.274Z" fill="#6D6E70"/>
<path fill-rule="evenodd" clip-rule="evenodd" d="M143.623 154.274H134.472L123.7 127H132.866L143.623 154.274Z" stroke="black" stroke-width="3" mask="url(#path-18-outside-6_1233_2887)"/>
<path d="M143.623 154.274L132.866 127H132.306L140.806 154.274H143.623Z" fill="white"/>
<mask id="path-20-outside-7_1233_2887" maskUnits="userSpaceOnUse" x="126.98" y="147.847" width="60" height="36" fill="black">
<rect fill="white" x="126.98" y="147.847" width="60" height="36"/>
<path fill-rule="evenodd" clip-rule="evenodd" d="M131.605 149.941L147.195 154.939C147.652 155.091 147.998 155.368 148.233 155.797L156.388 170.486C156.775 171.192 157.55 171.552 158.353 171.4L182.665 166.541C185.088 166.056 185.891 170.209 183.703 170.902L147.472 182.213C146.627 182.476 145.741 182.116 145.326 181.354L129.432 152.599C128.643 151.118 130.027 149.429 131.605 149.941Z"/>
</mask>
<path fill-rule="evenodd" clip-rule="evenodd" d="M131.605 149.941L147.195 154.939C147.652 155.091 147.998 155.368 148.233 155.797L156.388 170.486C156.775 171.192 157.55 171.552 158.353 171.4L182.665 166.541C185.088 166.056 185.891 170.209 183.703 170.902L147.472 182.213C146.627 182.476 145.741 182.116 145.326 181.354L129.432 152.599C128.643 151.118 130.027 149.429 131.605 149.941Z" fill="#6D6E70"/>
<path fill-rule="evenodd" clip-rule="evenodd" d="M131.605 149.941L147.195 154.939C147.652 155.091 147.998 155.368 148.233 155.797L156.388 170.486C156.775 171.192 157.55 171.552 158.353 171.4L182.665 166.541C185.088 166.056 185.891 170.209 183.703 170.902L147.472 182.213C146.627 182.476 145.741 182.116 145.326 181.354L129.432 152.599C128.643 151.118 130.027 149.429 131.605 149.941Z" stroke="black" stroke-width="3" mask="url(#path-20-outside-7_1233_2887)"/>
<path d="M147.195 154.939L131.606 149.941C136.179 151.893 145.299 155.739 146.795 156.706C148.29 157.674 153.213 165.076 155.288 168.506L148.233 155.797C147.998 155.368 147.652 155.091 147.195 154.939Z" fill="white"/>
<path d="M182.665 166.541L159.515 171.168C161.805 171.007 177.306 168.507 182.806 167.626C184.424 167.842 184.594 169.079 183.703 170.902C185.891 170.21 185.088 166.056 182.665 166.541Z" fill="white"/>
<path d="M129.431 152.599L145.325 181.354L135.805 151.287L131.605 149.941C130.026 149.429 128.642 151.118 129.431 152.599Z" fill="#404041"/>
<path d="M154.305 165.392L148.471 167.213C147.626 167.476 146.74 167.116 146.325 166.354L138.118 151.506" stroke="black"/>
<mask id="path-25-inside-8_1233_2887" fill="white">
<path fill-rule="evenodd" clip-rule="evenodd" d="M140.953 162.172L139.397 159.286C139.157 158.867 138.652 158.983 138.438 159.37L137.226 161.557C137.076 161.826 137.037 162.233 137.181 162.511L138.733 165.383C138.964 165.819 139.481 165.721 139.705 165.317L140.917 163.13C141.066 162.861 141.105 162.454 140.953 162.172Z"/>
</mask>
<path fill-rule="evenodd" clip-rule="evenodd" d="M140.953 162.172L139.397 159.286C139.157 158.867 138.652 158.983 138.438 159.37L137.226 161.557C137.076 161.826 137.037 162.233 137.181 162.511L138.733 165.383C138.964 165.819 139.481 165.721 139.705 165.317L140.917 163.13C141.066 162.861 141.105 162.454 140.953 162.172Z" fill="#9E3E63" stroke="black" stroke-width="0.691728" mask="url(#path-25-inside-8_1233_2887)"/>
<path fill-rule="evenodd" clip-rule="evenodd" d="M140.655 162.394L139.716 160.653C139.571 160.4 139.267 160.47 139.137 160.704L138.406 162.023C138.316 162.185 138.292 162.431 138.379 162.599L139.316 164.332C139.455 164.595 139.767 164.536 139.902 164.292L140.633 162.972C140.723 162.81 140.747 162.564 140.655 162.394Z" fill="#F39DB1"/>
<path d="M140.386 162.358C140.488 162.548 140.462 162.822 140.362 163.003L139.954 163.739L140.158 162.571L139.863 161.387L140.386 162.358Z" fill="white"/>
<mask id="path-28-inside-9_1233_2887" fill="white">
<path fill-rule="evenodd" clip-rule="evenodd" d="M143.551 166.871L141.995 163.985C141.754 163.566 141.25 163.682 141.035 164.069L139.823 166.256C139.674 166.525 139.635 166.932 139.778 167.21L141.331 170.083C141.562 170.519 142.078 170.42 142.302 170.016L143.515 167.829C143.664 167.56 143.703 167.153 143.551 166.871Z"/>
</mask>
<path fill-rule="evenodd" clip-rule="evenodd" d="M143.551 166.871L141.995 163.985C141.754 163.566 141.25 163.682 141.035 164.069L139.823 166.256C139.674 166.525 139.635 166.932 139.778 167.21L141.331 170.083C141.562 170.519 142.078 170.42 142.302 170.016L143.515 167.829C143.664 167.56 143.703 167.153 143.551 166.871Z" fill="#9E3E63" stroke="black" stroke-width="0.691728" mask="url(#path-28-inside-9_1233_2887)"/>
<path fill-rule="evenodd" clip-rule="evenodd" d="M143.253 167.093L142.314 165.352C142.169 165.099 141.864 165.169 141.735 165.403L141.004 166.722C140.914 166.885 140.89 167.13 140.977 167.298L141.913 169.031C142.053 169.294 142.364 169.235 142.499 168.991L143.231 167.672C143.321 167.509 143.344 167.263 143.253 167.093Z" fill="#F39DB1"/>
<path d="M142.984 167.057C143.086 167.247 143.06 167.521 142.959 167.702L142.552 168.438L142.755 167.27L142.46 166.086L142.984 167.057Z" fill="white"/>
<mask id="path-31-inside-10_1233_2887" fill="white">
<path fill-rule="evenodd" clip-rule="evenodd" d="M138.356 157.473L136.799 154.587C136.559 154.168 136.055 154.284 135.84 154.671L134.628 156.858C134.479 157.127 134.44 157.535 134.583 157.812L136.135 160.685C136.367 161.121 136.883 161.022 137.107 160.618L138.319 158.431C138.468 158.162 138.507 157.755 138.356 157.473Z"/>
</mask>
<path fill-rule="evenodd" clip-rule="evenodd" d="M138.356 157.473L136.799 154.587C136.559 154.168 136.055 154.284 135.84 154.671L134.628 156.858C134.479 157.127 134.44 157.535 134.583 157.812L136.135 160.685C136.367 161.121 136.883 161.022 137.107 160.618L138.319 158.431C138.468 158.162 138.507 157.755 138.356 157.473Z" fill="#9E3E63" stroke="black" stroke-width="0.691728" mask="url(#path-31-inside-10_1233_2887)"/>
<path fill-rule="evenodd" clip-rule="evenodd" d="M138.058 157.695L137.119 155.954C136.973 155.701 136.669 155.771 136.54 156.005L135.808 157.324C135.718 157.487 135.695 157.733 135.781 157.9L136.718 159.633C136.857 159.896 137.169 159.837 137.304 159.593L138.036 158.274C138.126 158.111 138.149 157.865 138.058 157.695Z" fill="#F39DB1"/>
<path d="M137.789 157.659C137.891 157.849 137.865 158.123 137.764 158.304L137.356 159.04L137.56 157.872L137.265 156.688L137.789 157.659Z" fill="white"/>
<path d="M158.4 171.361L146.609 173.681L157.335 170.577L158.4 171.361Z" fill="black"/>
</svg>
