<svg width="230" height="230" viewBox="0 0 230 230" fill="none" xmlns="http://www.w3.org/2000/svg">
<mask id="path-1-inside-1_1233_2887" fill="white">
<path fill-rule="evenodd" clip-rule="evenodd" d="M91.1855 145.463V161.716H107.951C109.101 159.183 109.737 156.386 109.737 153.423C109.737 150.585 109.156 147.899 108.09 145.449H91.1855V145.463Z"/>
</mask>
<path fill-rule="evenodd" clip-rule="evenodd" d="M91.1855 145.463V161.716H107.951C109.101 159.183 109.737 156.386 109.737 153.423C109.737 150.585 109.156 147.899 108.09 145.449H91.1855V145.463Z" fill="#404041" stroke="black" stroke-width="3" mask="url(#path-1-inside-1_1233_2887)"/>
<mask id="path-2-outside-2_1233_2887" maskUnits="userSpaceOnUse" x="42" y="131" width="52" height="45" fill="black">
<rect fill="white" x="42" y="131" width="52" height="45"/>
<path fill-rule="evenodd" clip-rule="evenodd" d="M45.9128 173.512H87.9454C90.0498 173.512 91.7527 171.796 91.7527 169.705V136.824C91.7527 133.529 87.8761 131.784 85.4118 133.972L44.6391 170.19C43.3377 171.353 44.1545 173.512 45.9128 173.512Z"/>
</mask>
<path fill-rule="evenodd" clip-rule="evenodd" d="M45.9128 173.512H87.9454C90.0498 173.512 91.7527 171.796 91.7527 169.705V136.824C91.7527 133.529 87.8761 131.784 85.4118 133.972L44.6391 170.19C43.3377 171.353 44.1545 173.512 45.9128 173.512Z" fill="#6D6E70"/>
<path fill-rule="evenodd" clip-rule="evenodd" d="M45.9128 173.512H87.9454C90.0498 173.512 91.7527 171.796 91.7527 169.705V136.824C91.7527 133.529 87.8761 131.784 85.4118 133.972L44.6391 170.19C43.3377 171.353 44.1545 173.512 45.9128 173.512Z" stroke="black" stroke-width="3" mask="url(#path-2-outside-2_1233_2887)"/>
<path d="M91.753 136.824V169.705C91.753 171.548 90.429 173.101 88.6732 173.443V173.004V133.074C88.8428 133.108 89.0099 133.154 89.1732 133.21C90.6113 133.704 91.753 135.036 91.753 136.824Z" fill="#404041"/>
<path d="M90.354 141.275C90.354 141.275 90.6253 136.595 90.3844 135.714C90.1435 134.833 87.7731 133.928 87.7731 133.928L89.6375 136.067L90.354 141.275Z" fill="white"/>
<path d="M83.6753 172.434C83.6753 172.434 88.3596 172.608 89.2357 172.349C90.1118 172.089 90.9667 169.701 90.9667 169.701L88.8672 171.609L83.6753 172.434Z" fill="white"/>
<path d="M64.4758 169.734H71.1674C71.8964 169.734 73.282 172.397 73.7516 173.647H75.9712C75.3931 170.512 73.2913 167.004 71.1674 167.004H64.4758C62.3519 167.004 60.0022 170.512 59.6719 173.647H61.8915C62.3611 172.397 63.7445 169.734 64.4758 169.734Z" fill="#404041"/>
<path d="M70.8151 169.224H64.8268C62.8805 169.224 61.8828 172.883 61.8828 172.883H73.759C73.759 172.883 72.752 169.224 70.8151 169.224Z" fill="black" stroke="black" stroke-width="1.63552"/>
<path d="M68.4888 170.948C68.4888 171.081 68.4496 171.21 68.3762 171.32C68.3027 171.429 68.1985 171.515 68.0764 171.566C67.9543 171.616 67.8199 171.63 67.6903 171.604C67.5607 171.578 67.4415 171.514 67.348 171.421C67.2546 171.327 67.1909 171.208 67.1652 171.079C67.1394 170.949 67.1527 170.815 67.2033 170.693C67.2538 170.571 67.3395 170.466 67.4493 170.393C67.5592 170.319 67.6884 170.28 67.8206 170.28C67.9978 170.28 68.1678 170.35 68.2931 170.476C68.4184 170.601 68.4888 170.771 68.4888 170.948Z" fill="#00ADEE"/>
<path d="M71.77 170.948C71.77 171.081 71.7308 171.21 71.6574 171.32C71.584 171.429 71.4797 171.515 71.3576 171.566C71.2355 171.616 71.1011 171.63 70.9714 171.604C70.8418 171.578 70.7227 171.514 70.6293 171.421C70.5358 171.327 70.4722 171.208 70.4464 171.079C70.4206 170.949 70.4339 170.815 70.4845 170.693C70.5351 170.571 70.6207 170.466 70.7306 170.393C70.8405 170.319 70.9697 170.28 71.1018 170.28C71.2791 170.28 71.4491 170.35 71.5744 170.476C71.6997 170.601 71.77 170.771 71.77 170.948V170.948Z" fill="#00ADEE"/>
<path d="M65.2076 170.948C65.2076 171.081 65.1683 171.21 65.0948 171.32C65.0214 171.429 64.9171 171.515 64.795 171.566C64.6729 171.616 64.5386 171.63 64.409 171.604C64.2793 171.578 64.1603 171.514 64.0668 171.421C63.9734 171.327 63.9097 171.208 63.8839 171.079C63.8582 170.949 63.8714 170.815 63.9219 170.693C63.9725 170.571 64.0581 170.466 64.168 170.393C64.2779 170.319 64.4071 170.28 64.5392 170.28C64.7165 170.28 64.8865 170.35 65.0118 170.476C65.1371 170.601 65.2076 170.771 65.2076 170.948Z" fill="#00ADEE"/>
<path d="M44.6391 170.19L85.4118 133.972C86.1735 133.296 87.07 132.995 87.9454 133L45.9128 173.512C44.1545 173.512 43.3377 171.353 44.6391 170.19Z" fill="white"/>
<path d="M72.0942 144.849C72.0942 144.849 72.636 147.151 72.5968 149.476C72.22 150.321 70.4097 152.645 68.5166 153.804L65.9426 152.421L60.3742 155.421C60.3742 155.421 68.771 145.303 72.0942 144.849Z" fill="#404041"/>
<path d="M70.266 143.332C70.7648 143.471 71.2111 143.756 71.5484 144.149C71.6577 144.779 71.5825 149.046 71.5825 149.046C71.5825 149.046 70.5045 151.07 68.4605 152.372L65.8665 150.968C65.8665 150.968 60.2152 155.179 59.5996 155.32C58.9414 154.774 58.8972 153.7 58.8972 153.7C58.8972 153.7 65.2558 145.476 70.266 143.332Z" fill="#F39DB1"/>
<path d="M59.1686 153.544C59.783 153.402 65.9356 149.137 65.9356 149.137L68.3695 150.324C69.9395 149.322 71.0336 147.709 71.6101 146.893C71.6045 148.016 71.5865 149.046 71.5865 149.046C71.5865 149.046 70.5085 151.07 68.4645 152.372L65.8705 150.968C65.8705 150.968 60.2192 155.179 59.6036 155.32C58.9454 154.774 58.9013 153.7 58.9013 153.7C58.9013 153.7 58.9566 153.608 59.0663 153.447C59.0983 153.481 59.1325 153.514 59.1686 153.544V153.544Z" fill="#9E3E63"/>
<path d="M70.266 143.332C70.7648 143.471 71.2111 143.756 71.5484 144.149C71.6577 144.779 71.5825 149.046 71.5825 149.046C71.5825 149.046 70.5045 151.07 68.4605 152.372L65.8665 150.968C65.8665 150.968 60.2152 155.179 59.5996 155.32C58.9414 154.774 58.8972 153.7 58.8972 153.7C58.8972 153.7 65.2558 145.476 70.266 143.332Z" stroke="black"/>
<path d="M70.59 144.693L69.9512 144.421C69.9512 144.421 65.1008 147.057 60.4394 152.975C60.4394 152.975 67.5192 146.215 70.59 144.693Z" fill="white"/>
<path d="M71.2644 145.569L69.7675 147.027L71.4828 146.772L71.2644 145.569Z" fill="black"/>
<path d="M82.6719 136.004V160.504C82.6719 162.713 80.881 164.504 78.6719 164.504H50.1719" stroke="black"/>
<rect x="87.5234" y="145.254" width="2.5" height="18.5" rx="0.75" fill="black" stroke="black" stroke-width="0.5"/>
<rect x="88.0742" y="145.504" width="2" height="18" rx="0.5" fill="#9E3E63"/>
<path fill-rule="evenodd" clip-rule="evenodd" d="M88.6102 148.685H89.1556C89.3787 148.685 89.5646 148.973 89.5646 149.317V161.232C89.5646 161.576 89.3787 161.864 89.1556 161.864H88.6102C88.3871 161.864 88.2012 161.576 88.2012 161.232V149.331C88.2012 148.973 88.3871 148.685 88.6102 148.685Z" fill="#F39DB1"/>
<path d="M89.1101 149.14C89.2356 149.14 89.3373 148.835 89.3373 148.458C89.3373 148.082 89.2356 147.776 89.1101 147.776C88.9846 147.776 88.8828 148.082 88.8828 148.458C88.8828 148.835 88.9846 149.14 89.1101 149.14Z" fill="white"/>
<path d="M88.4297 160.166V154.29C88.4297 153.778 88.7177 152.959 89.1725 152.149C89.2216 152.049 89.2768 151.954 89.3386 151.866C89.2811 151.96 89.2256 152.055 89.1725 152.149C88.8246 152.861 88.7787 153.84 88.8054 154.29L88.8054 160.166C88.7787 160.616 88.9609 161.185 89.5747 161.504C89.0747 161.504 88.4297 160.678 88.4297 160.166Z" fill="white"/>
<mask id="path-24-inside-3_1233_2887" fill="white">
<path fill-rule="evenodd" clip-rule="evenodd" d="M138.852 145.463V161.716H122.086C120.937 159.183 120.3 156.386 120.3 153.423C120.3 150.585 120.881 147.899 121.947 145.449H138.852V145.463Z"/>
</mask>
<path fill-rule="evenodd" clip-rule="evenodd" d="M138.852 145.463V161.716H122.086C120.937 159.183 120.3 156.386 120.3 153.423C120.3 150.585 120.881 147.899 121.947 145.449H138.852V145.463Z" fill="#404041" stroke="black" stroke-width="3" mask="url(#path-24-inside-3_1233_2887)"/>
<mask id="path-25-outside-4_1233_2887" maskUnits="userSpaceOnUse" x="136.037" y="131" width="52" height="45" fill="black">
<rect fill="white" x="136.037" y="131" width="52" height="45"/>
<path fill-rule="evenodd" clip-rule="evenodd" d="M184.124 173.512H142.092C139.987 173.512 138.284 171.796 138.284 169.705V136.824C138.284 133.529 142.161 131.784 144.625 133.972L185.398 170.19C186.699 171.353 185.883 173.512 184.124 173.512Z"/>
</mask>
<path fill-rule="evenodd" clip-rule="evenodd" d="M184.124 173.512H142.092C139.987 173.512 138.284 171.796 138.284 169.705V136.824C138.284 133.529 142.161 131.784 144.625 133.972L185.398 170.19C186.699 171.353 185.883 173.512 184.124 173.512Z" fill="#6D6E70"/>
<path fill-rule="evenodd" clip-rule="evenodd" d="M184.124 173.512H142.092C139.987 173.512 138.284 171.796 138.284 169.705V136.824C138.284 133.529 142.161 131.784 144.625 133.972L185.398 170.19C186.699 171.353 185.883 173.512 184.124 173.512Z" stroke="black" stroke-width="3" mask="url(#path-25-outside-4_1233_2887)"/>
<path d="M138.284 136.824V169.705C138.284 171.548 139.608 173.101 141.364 173.443V173.004V133.074C141.194 133.108 141.027 133.154 140.864 133.21C139.426 133.704 138.284 135.036 138.284 136.824Z" fill="#404041"/>
<path d="M139.683 141.275C139.683 141.275 139.412 136.595 139.653 135.714C139.894 134.833 142.264 133.928 142.264 133.928L140.4 136.067L139.683 141.275Z" fill="white"/>
<path d="M146.362 172.434C146.362 172.434 141.677 172.608 140.801 172.349C139.925 172.089 139.07 169.701 139.07 169.701L141.17 171.609L146.362 172.434Z" fill="white"/>
<path d="M165.561 169.734H158.87C158.141 169.734 156.755 172.397 156.286 173.647H154.066C154.644 170.512 156.746 167.004 158.87 167.004H165.561C167.685 167.004 170.035 170.512 170.365 173.647H168.146C167.676 172.397 166.293 169.734 165.561 169.734Z" fill="#404041"/>
<path d="M159.222 169.224H165.21C167.157 169.224 168.154 172.883 168.154 172.883H156.278C156.278 172.883 157.285 169.224 159.222 169.224Z" fill="black" stroke="black" stroke-width="1.63552"/>
<path d="M161.548 170.948C161.548 171.081 161.588 171.21 161.661 171.32C161.734 171.429 161.839 171.515 161.961 171.566C162.083 171.616 162.217 171.63 162.347 171.604C162.476 171.578 162.596 171.514 162.689 171.421C162.783 171.327 162.846 171.208 162.872 171.079C162.898 170.949 162.884 170.815 162.834 170.693C162.783 170.571 162.698 170.466 162.588 170.393C162.478 170.319 162.349 170.28 162.217 170.28C162.039 170.28 161.869 170.35 161.744 170.476C161.619 170.601 161.548 170.771 161.548 170.948Z" fill="#00ADEE"/>
<path d="M158.267 170.948C158.267 171.081 158.306 171.21 158.38 171.32C158.453 171.429 158.557 171.515 158.68 171.566C158.802 171.616 158.936 171.63 159.066 171.604C159.195 171.578 159.314 171.514 159.408 171.421C159.501 171.327 159.565 171.208 159.591 171.079C159.616 170.949 159.603 170.815 159.553 170.693C159.502 170.571 159.416 170.466 159.307 170.393C159.197 170.319 159.067 170.28 158.935 170.28C158.758 170.28 158.588 170.35 158.463 170.476C158.337 170.601 158.267 170.771 158.267 170.948V170.948Z" fill="#00ADEE"/>
<path d="M164.83 170.948C164.83 171.081 164.869 171.21 164.942 171.32C165.016 171.429 165.12 171.515 165.242 171.566C165.364 171.616 165.499 171.63 165.628 171.604C165.758 171.578 165.877 171.514 165.97 171.421C166.064 171.327 166.127 171.208 166.153 171.079C166.179 170.949 166.166 170.815 166.115 170.693C166.065 170.571 165.979 170.466 165.869 170.393C165.759 170.319 165.63 170.28 165.498 170.28C165.321 170.28 165.151 170.35 165.025 170.476C164.9 170.601 164.83 170.771 164.83 170.948Z" fill="#00ADEE"/>
<path d="M185.398 170.19L144.625 133.972C143.864 133.296 142.967 132.995 142.092 133L184.124 173.512C185.883 173.512 186.699 171.353 185.398 170.19Z" fill="white"/>
<path d="M157.943 144.849C157.943 144.849 157.401 147.151 157.44 149.476C157.817 150.321 159.627 152.645 161.521 153.804L164.094 152.421L169.663 155.421C169.663 155.421 161.266 145.303 157.943 144.849Z" fill="#404041"/>
<path d="M159.771 143.332C159.272 143.471 158.826 143.756 158.489 144.149C158.379 144.779 158.455 149.046 158.455 149.046C158.455 149.046 159.533 151.07 161.577 152.372L164.171 150.968C164.171 150.968 169.822 155.179 170.437 155.32C171.096 154.774 171.14 153.7 171.14 153.7C171.14 153.7 164.781 145.476 159.771 143.332Z" fill="#F39DB1"/>
<path d="M170.869 153.544C170.254 153.402 164.101 149.137 164.101 149.137L161.668 150.324C160.098 149.322 159.003 147.709 158.427 146.893C158.433 148.016 158.451 149.046 158.451 149.046C158.451 149.046 159.529 151.07 161.573 152.372L164.167 150.968C164.167 150.968 169.818 155.179 170.433 155.32C171.092 154.774 171.136 153.7 171.136 153.7C171.136 153.7 171.08 153.608 170.971 153.447C170.939 153.481 170.905 153.514 170.869 153.544V153.544Z" fill="#9E3E63"/>
<path d="M159.771 143.332C159.272 143.471 158.826 143.756 158.489 144.149C158.379 144.779 158.455 149.046 158.455 149.046C158.455 149.046 159.533 151.07 161.577 152.372L164.171 150.968C164.171 150.968 169.822 155.179 170.437 155.32C171.096 154.774 171.14 153.7 171.14 153.7C171.14 153.7 164.781 145.476 159.771 143.332Z" stroke="black"/>
<path d="M159.447 144.693L160.086 144.421C160.086 144.421 164.936 147.057 169.598 152.975C169.598 152.975 162.518 146.215 159.447 144.693Z" fill="white"/>
<path d="M158.773 145.569L160.27 147.027L158.554 146.772L158.773 145.569Z" fill="black"/>
<path d="M147.365 136.004V160.504C147.365 162.713 149.156 164.504 151.365 164.504H179.865" stroke="black"/>
<rect x="0.25" y="-0.25" width="2.5" height="18.5" rx="0.75" transform="matrix(-1 0 0 1 142.764 145.504)" fill="black" stroke="black" stroke-width="0.5"/>
<rect width="2" height="18" rx="0.5" transform="matrix(-1 0 0 1 141.963 145.504)" fill="#9E3E63"/>
<path fill-rule="evenodd" clip-rule="evenodd" d="M141.427 148.685H140.882C140.658 148.685 140.473 148.973 140.473 149.317V161.232C140.473 161.576 140.658 161.864 140.882 161.864H141.427C141.65 161.864 141.836 161.576 141.836 161.232V149.331C141.836 148.973 141.65 148.685 141.427 148.685Z" fill="#F39DB1"/>
<path d="M140.927 149.14C140.802 149.14 140.7 148.835 140.7 148.458C140.7 148.082 140.802 147.776 140.927 147.776C141.053 147.776 141.154 148.082 141.154 148.458C141.154 148.835 141.053 149.14 140.927 149.14Z" fill="white"/>
<path d="M141.607 160.166V154.29C141.607 153.778 141.319 152.959 140.865 152.149C140.815 152.049 140.76 151.954 140.698 151.866C140.756 151.96 140.811 152.055 140.865 152.149C141.213 152.861 141.258 153.84 141.232 154.29L141.232 160.166C141.258 160.616 141.076 161.185 140.462 161.504C140.962 161.504 141.607 160.678 141.607 160.166Z" fill="white"/>
</svg>
