<svg width="230" height="230" viewBox="0 0 230 230" fill="none" xmlns="http://www.w3.org/2000/svg">
<mask id="path-1-outside-1_1233_2887" maskUnits="userSpaceOnUse" x="35" y="122" width="70" height="67" fill="black">
<rect fill="white" x="35" y="122" width="70" height="67"/>
<path d="M77.3712 187.177H37L103.178 126V143.096V168.778C103.178 170.01 102.624 171.076 101.613 171.782L81.58 185.848C80.2924 186.748 78.9495 187.177 77.3712 187.177Z"/>
</mask>
<path d="M77.3712 187.177H37L103.178 126V143.096V168.778C103.178 170.01 102.624 171.076 101.613 171.782L81.58 185.848C80.2924 186.748 78.9495 187.177 77.3712 187.177Z" fill="#6D6E70"/>
<path d="M37 187.177L35.9818 186.076C35.5284 186.495 35.3781 187.149 35.6032 187.724C35.8282 188.299 36.3826 188.677 37 188.677V187.177ZM81.58 185.848L82.4393 187.078L82.4419 187.076L81.58 185.848ZM101.613 171.782L100.754 170.552L100.751 170.554L101.613 171.782ZM103.178 126H104.678V122.571L102.16 124.899L103.178 126ZM37 188.677H77.3712V185.677H37V188.677ZM77.3712 188.677C79.2605 188.677 80.9027 188.152 82.4393 187.078L80.7207 184.619C79.6821 185.345 78.6385 185.677 77.3712 185.677V188.677ZM82.4419 187.076L102.475 173.01L100.751 170.554L80.718 184.621L82.4419 187.076ZM102.472 173.012C103.886 172.024 104.678 170.498 104.678 168.778H101.678C101.678 169.521 101.362 170.128 100.754 170.552L102.472 173.012ZM104.678 168.778V143.096H101.678V168.778H104.678ZM38.0182 188.279L104.196 127.101L102.16 124.899L35.9818 186.076L38.0182 188.279ZM101.678 126V143.096H104.678V126H101.678Z" fill="black" mask="url(#path-1-outside-1_1233_2887)"/>
<path d="M59.5891 183.229H66.2807C67.0097 183.229 68.3952 185.892 68.8649 187.142H71.0845C70.5064 184.007 68.4045 180.5 66.2807 180.5H59.5891C57.4652 180.5 55.1155 184.007 54.7852 187.142H57.0048C57.4744 185.892 58.8578 183.229 59.5891 183.229Z" fill="#404041"/>
<path d="M65.9284 182.719H59.94C57.9938 182.719 56.9961 186.378 56.9961 186.378H68.8723C68.8723 186.378 67.8653 182.719 65.9284 182.719Z" fill="black" stroke="black" stroke-width="1.63552"/>
<path d="M63.6021 184.443C63.6021 184.576 63.5629 184.705 63.4895 184.815C63.416 184.925 63.3117 185.01 63.1896 185.061C63.0675 185.111 62.9332 185.125 62.8036 185.099C62.674 185.073 62.5548 185.009 62.4613 184.916C62.3679 184.823 62.3042 184.704 62.2784 184.574C62.2527 184.444 62.266 184.31 62.3165 184.188C62.3671 184.066 62.4527 183.961 62.5626 183.888C62.6725 183.814 62.8017 183.775 62.9339 183.775C63.1111 183.775 63.2811 183.846 63.4064 183.971C63.5317 184.096 63.6021 184.266 63.6021 184.443Z" fill="#00ADEE"/>
<path d="M66.8833 184.443C66.8833 184.576 66.8441 184.705 66.7707 184.815C66.6973 184.925 66.593 185.01 66.4709 185.061C66.3488 185.111 66.2143 185.125 66.0847 185.099C65.9551 185.073 65.836 185.009 65.7426 184.916C65.6491 184.823 65.5855 184.704 65.5597 184.574C65.5339 184.444 65.5472 184.31 65.5978 184.188C65.6484 184.066 65.734 183.961 65.8439 183.888C65.9538 183.814 66.0829 183.775 66.2151 183.775C66.3923 183.775 66.5623 183.846 66.6877 183.971C66.813 184.096 66.8833 184.266 66.8833 184.443V184.443Z" fill="#00ADEE"/>
<path d="M60.3208 184.443C60.3208 184.576 60.2815 184.705 60.2081 184.815C60.1347 184.925 60.0304 185.01 59.9083 185.061C59.7862 185.111 59.6519 185.125 59.5222 185.099C59.3926 185.073 59.2736 185.009 59.1801 184.916C59.0866 184.823 59.023 184.704 58.9972 184.574C58.9714 184.444 58.9846 184.31 59.0352 184.188C59.0858 184.066 59.1714 183.961 59.2813 183.888C59.3912 183.814 59.5204 183.775 59.6525 183.775C59.8298 183.775 59.9997 183.846 60.1251 183.971C60.2504 184.096 60.3208 184.266 60.3208 184.443Z" fill="#00ADEE"/>
<path d="M81.5799 185.848C80.2923 186.748 78.9494 187.177 77.3711 187.177L93.6845 171.782V134.776L103.178 126V143.096V168.778C103.178 170.01 102.624 171.076 101.613 171.782L81.5799 185.848Z" fill="#404041"/>
<path d="M96.7923 169.355L96.7622 173.709L93.6852 175.771L95.8595 172.942L96.7923 169.355Z" fill="white"/>
<path d="M103.178 126L37 187.177H42.6846L103.178 126.548V126Z" fill="white"/>
<path d="M51.6836 173H76.6836L104.184 152.5" stroke="black"/>
<path d="M75.8597 149.031C75.8597 149.031 76.5212 151.301 76.6038 153.625C76.2717 154.489 74.5855 156.904 72.7556 158.161L70.1128 156.915L64.709 160.201C64.709 160.201 72.5648 149.658 75.8597 149.031Z" fill="#404041"/>
<path d="M73.9534 147.612C74.4589 147.725 74.9195 147.985 75.2768 148.36C75.419 148.983 75.5672 153.249 75.5672 153.249C75.5672 153.249 74.5966 155.327 72.6235 156.734L69.9596 155.468C69.9596 155.468 64.5365 159.968 63.9291 160.142C63.2432 159.631 63.1429 158.561 63.1429 158.561C63.1429 158.561 69.0624 150.015 73.9534 147.612Z" fill="#F39DB1"/>
<path d="M63.404 158.391C64.0101 158.217 69.9311 153.635 69.9311 153.635L72.4238 154.693C73.9392 153.61 74.9474 151.942 75.4803 151.097C75.5336 152.219 75.5694 153.249 75.5694 153.249C75.5694 153.249 74.5989 155.326 72.6258 156.733L69.9619 155.467C69.9619 155.467 64.5388 159.968 63.9314 160.142C63.2455 159.63 63.1452 158.56 63.1452 158.56C63.1452 158.56 63.1957 158.466 63.2968 158.299C63.3306 158.332 63.3664 158.362 63.404 158.391V158.391Z" fill="#9E3E63"/>
<path d="M73.9534 147.612C74.4589 147.725 74.9195 147.985 75.2768 148.36C75.419 148.983 75.5672 153.249 75.5672 153.249C75.5672 153.249 74.5966 155.327 72.6235 156.734L69.9596 155.468C69.9596 155.468 64.5365 159.968 63.9291 160.142C63.2432 159.631 63.1429 158.561 63.1429 158.561C63.1429 158.561 69.0624 150.015 73.9534 147.612Z" stroke="black"/>
<path d="M74.3467 148.954L73.6945 148.715C73.6945 148.715 68.9887 151.601 64.6435 157.755C64.6435 157.755 71.3598 150.634 74.3467 148.954Z" fill="white"/>
<path d="M75.0657 149.793L73.6472 151.328L75.3468 150.983L75.0657 149.793Z" fill="black"/>
<mask id="path-18-outside-2_1233_2887" maskUnits="userSpaceOnUse" x="124.984" y="122" width="70" height="67" fill="black">
<rect fill="white" x="124.984" y="122" width="70" height="67"/>
<path d="M152.613 187.177H192.984L126.807 126V143.096V168.778C126.807 170.01 127.36 171.076 128.371 171.782L148.404 185.848C149.692 186.748 151.035 187.177 152.613 187.177Z"/>
</mask>
<path d="M152.613 187.177H192.984L126.807 126V143.096V168.778C126.807 170.01 127.36 171.076 128.371 171.782L148.404 185.848C149.692 186.748 151.035 187.177 152.613 187.177Z" fill="#6D6E70"/>
<path d="M192.984 187.177L194.003 186.076C194.456 186.495 194.606 187.149 194.381 187.724C194.156 188.299 193.602 188.677 192.984 188.677V187.177ZM148.404 185.848L147.545 187.078L147.542 187.076L148.404 185.848ZM128.371 171.782L129.23 170.552L129.233 170.554L128.371 171.782ZM126.807 126H125.307V122.571L127.825 124.899L126.807 126ZM192.984 188.677H152.613V185.677H192.984V188.677ZM152.613 188.677C150.724 188.677 149.082 188.152 147.545 187.078L149.264 184.619C150.302 185.345 151.346 185.677 152.613 185.677V188.677ZM147.542 187.076L127.509 173.01L129.233 170.554L149.266 184.621L147.542 187.076ZM127.512 173.012C126.098 172.024 125.307 170.498 125.307 168.778H128.307C128.307 169.521 128.622 170.128 129.23 170.552L127.512 173.012ZM125.307 168.778V143.096H128.307V168.778H125.307ZM191.966 188.279L125.788 127.101L127.825 124.899L194.003 186.076L191.966 188.279ZM128.307 126V143.096H125.307V126H128.307Z" fill="black" mask="url(#path-18-outside-2_1233_2887)"/>
<path d="M170.395 183.229H163.704C162.975 183.229 161.589 185.892 161.12 187.142H158.9C159.478 184.007 161.58 180.5 163.704 180.5H170.395C172.519 180.5 174.869 184.007 175.199 187.142H172.98C172.51 185.892 171.127 183.229 170.395 183.229Z" fill="#404041"/>
<path d="M164.056 182.719H170.044C171.991 182.719 172.988 186.378 172.988 186.378H161.112C161.112 186.378 162.119 182.719 164.056 182.719Z" fill="black" stroke="black" stroke-width="1.63552"/>
<path d="M166.382 184.443C166.382 184.576 166.421 184.705 166.495 184.815C166.568 184.925 166.673 185.01 166.795 185.061C166.917 185.111 167.051 185.125 167.181 185.099C167.31 185.073 167.43 185.009 167.523 184.916C167.617 184.823 167.68 184.704 167.706 184.574C167.732 184.444 167.718 184.31 167.668 184.188C167.617 184.066 167.532 183.961 167.422 183.888C167.312 183.814 167.183 183.775 167.051 183.775C166.873 183.775 166.703 183.846 166.578 183.971C166.453 184.096 166.382 184.266 166.382 184.443Z" fill="#00ADEE"/>
<path d="M163.101 184.443C163.101 184.576 163.14 184.705 163.214 184.815C163.287 184.925 163.391 185.01 163.513 185.061C163.636 185.111 163.77 185.125 163.9 185.099C164.029 185.073 164.148 185.009 164.242 184.916C164.335 184.823 164.399 184.704 164.425 184.574C164.45 184.444 164.437 184.31 164.387 184.188C164.336 184.066 164.25 183.961 164.14 183.888C164.031 183.814 163.901 183.775 163.769 183.775C163.592 183.775 163.422 183.846 163.297 183.971C163.171 184.096 163.101 184.266 163.101 184.443V184.443Z" fill="#00ADEE"/>
<path d="M169.664 184.443C169.664 184.576 169.703 184.705 169.776 184.815C169.85 184.925 169.954 185.01 170.076 185.061C170.198 185.111 170.333 185.125 170.462 185.099C170.592 185.073 170.711 185.009 170.804 184.916C170.898 184.823 170.961 184.704 170.987 184.574C171.013 184.444 171 184.31 170.949 184.188C170.899 184.066 170.813 183.961 170.703 183.888C170.593 183.814 170.464 183.775 170.332 183.775C170.155 183.775 169.985 183.846 169.859 183.971C169.734 184.096 169.664 184.266 169.664 184.443Z" fill="#00ADEE"/>
<path d="M148.404 185.848C149.692 186.748 151.035 187.177 152.613 187.177L136.3 171.782V134.776L126.807 126V143.096V168.778C126.807 170.01 127.361 171.076 128.371 171.782L148.404 185.848Z" fill="#404041"/>
<path d="M133.192 169.355L133.222 173.709L136.299 175.771L134.125 172.942L133.192 169.355Z" fill="white"/>
<path d="M126.807 126L192.984 187.177H187.3L126.807 126.548V126Z" fill="white"/>
<path d="M178.301 173H153.301L125.801 152.5" stroke="black"/>
<path d="M154.125 149.031C154.125 149.031 153.463 151.301 153.381 153.625C153.713 154.489 155.399 156.904 157.229 158.161L159.872 156.915L165.275 160.201C165.275 160.201 157.42 149.658 154.125 149.031Z" fill="#404041"/>
<path d="M156.031 147.612C155.525 147.725 155.065 147.985 154.708 148.36C154.565 148.983 154.417 153.249 154.417 153.249C154.417 153.249 155.388 155.327 157.361 156.734L160.025 155.468C160.025 155.468 165.448 159.968 166.055 160.142C166.741 159.631 166.841 158.561 166.841 158.561C166.841 158.561 160.922 150.015 156.031 147.612Z" fill="#F39DB1"/>
<path d="M166.58 158.391C165.974 158.217 160.053 153.635 160.053 153.635L157.561 154.693C156.045 153.61 155.037 151.942 154.504 151.097C154.451 152.219 154.415 153.249 154.415 153.249C154.415 153.249 155.385 155.326 157.359 156.733L160.022 155.467C160.022 155.467 165.446 159.968 166.053 160.142C166.739 159.63 166.839 158.56 166.839 158.56C166.839 158.56 166.789 158.466 166.688 158.299C166.654 158.332 166.618 158.362 166.58 158.391V158.391Z" fill="#9E3E63"/>
<path d="M156.031 147.612C155.525 147.725 155.065 147.985 154.708 148.36C154.565 148.983 154.417 153.249 154.417 153.249C154.417 153.249 155.388 155.327 157.361 156.734L160.025 155.468C160.025 155.468 165.448 159.968 166.055 160.142C166.741 159.631 166.841 158.561 166.841 158.561C166.841 158.561 160.922 150.015 156.031 147.612Z" stroke="black"/>
<path d="M155.638 148.954L156.29 148.715C156.29 148.715 160.996 151.601 165.341 157.755C165.341 157.755 158.625 150.634 155.638 148.954Z" fill="white"/>
<path d="M154.919 149.793L156.337 151.328L154.638 150.983L154.919 149.793Z" fill="black"/>
</svg>
