
    <svg width="230" height="230" viewBox="0 0 230 230" fill="none" xmlns="http://www.w3.org/2000/svg">
        
<mask id="path-1-outside-1_1233_2887" maskUnits="userSpaceOnUse" x="71.3008" y="126.955" width="19" height="19" fill="black">
<rect fill="white" x="71.3008" y="126.955" width="19" height="19"/>
<path fill-rule="evenodd" clip-rule="evenodd" d="M87.9485 128.955V136.279C85.3595 136.279 83.3659 136.542 82.2722 137.47C81.22 138.356 80.6246 140.225 80.6246 143.617H73.3008C73.3008 137.843 74.8237 134.216 77.5788 131.89C80.2785 129.62 83.7674 128.955 87.9485 128.955Z"/>
</mask>
<path fill-rule="evenodd" clip-rule="evenodd" d="M87.9485 128.955V136.279C85.3595 136.279 83.3659 136.542 82.2722 137.47C81.22 138.356 80.6246 140.225 80.6246 143.617H73.3008C73.3008 137.843 74.8237 134.216 77.5788 131.89C80.2785 129.62 83.7674 128.955 87.9485 128.955Z" fill="#6D6E70"/>
<path fill-rule="evenodd" clip-rule="evenodd" d="M87.9485 128.955V136.279C85.3595 136.279 83.3659 136.542 82.2722 137.47C81.22 138.356 80.6246 140.225 80.6246 143.617H73.3008C73.3008 137.843 74.8237 134.216 77.5788 131.89C80.2785 129.62 83.7674 128.955 87.9485 128.955Z" stroke="black" stroke-width="3" mask="url(#path-1-outside-1_1233_2887)"/>
<path d="M87.3473 135.778C84.7583 135.778 82.7647 136.041 81.671 136.969C80.6188 137.855 80.0234 139.724 80.0234 143.116" stroke="#404041" stroke-width="1.5"/>
<path d="M88.3469 129.656C84.1658 129.656 80.677 130.32 77.9772 132.591C75.2221 134.917 73.6992 138.544 73.6992 144.317" stroke="white" stroke-width="1.5"/>
<mask id="path-4-outside-2_1233_2887" maskUnits="userSpaceOnUse" x="84.1074" y="123.3" width="27" height="26" fill="black">
<rect fill="white" x="84.1074" y="123.3" width="27" height="26"/>
<path fill-rule="evenodd" clip-rule="evenodd" d="M105.628 125.3H89.7763C87.7549 125.3 86.1074 126.948 86.1074 128.969V143.631C86.1074 145.652 87.7549 147.3 89.7763 147.3H96.6432C97.3632 147.3 97.9862 147.12 98.5953 146.732L107.581 141.056C108.674 140.363 109.283 139.256 109.283 137.954V128.983C109.297 126.948 107.65 125.3 105.628 125.3Z"/>
</mask>
<path fill-rule="evenodd" clip-rule="evenodd" d="M105.628 125.3H89.7763C87.7549 125.3 86.1074 126.948 86.1074 128.969V143.631C86.1074 145.652 87.7549 147.3 89.7763 147.3H96.6432C97.3632 147.3 97.9862 147.12 98.5953 146.732L107.581 141.056C108.674 140.363 109.283 139.256 109.283 137.954V128.983C109.297 126.948 107.65 125.3 105.628 125.3Z" fill="#6D6E70"/>
<path fill-rule="evenodd" clip-rule="evenodd" d="M105.628 125.3H89.7763C87.7549 125.3 86.1074 126.948 86.1074 128.969V143.631C86.1074 145.652 87.7549 147.3 89.7763 147.3H96.6432C97.3632 147.3 97.9862 147.12 98.5953 146.732L107.581 141.056C108.674 140.363 109.283 139.256 109.283 137.954V128.983C109.297 126.948 107.65 125.3 105.628 125.3Z" stroke="black" stroke-width="3" mask="url(#path-4-outside-2_1233_2887)"/>
<path d="M107.58 141.056L98.5949 146.732C98.5491 146.761 98.5032 146.789 98.4571 146.816C97.3599 144.98 97.2627 132.98 97.8599 130.48C98.3377 128.48 103.059 126.314 105.36 125.48L105.628 125.3C107.649 125.3 109.297 126.948 109.283 128.983V137.954C109.283 139.256 108.674 140.363 107.58 141.056Z" fill="#404041"/>
<path d="M89.7763 125.3H105.628C101.706 126.194 93.1604 126.08 90.3604 126.48C86.8604 126.98 87.7604 132.48 87.7604 137.954C87.7604 142.352 89.1376 146.009 89.7763 147.3C87.7549 147.3 86.1074 145.652 86.1074 143.631V128.969C86.1074 126.948 87.7549 125.3 89.7763 125.3Z" fill="white"/>
<path fill-rule="evenodd" clip-rule="evenodd" d="M58.7853 67.5518H62.5151C63.2029 67.5518 63.7672 68.1073 63.7584 68.795L63.388 104.885H58.7765C58.0887 104.885 57.5332 104.33 57.5332 103.642V68.795C57.542 68.1073 58.1063 67.5518 58.7853 67.5518Z" fill="#6D6E70"/>
<path d="M57.6581 73.1738L63.541 73.1738L63.541 70.8676L57.6581 70.8676L57.6581 73.1738Z" fill="#404041"/>
<path d="M57.6373 73.1738L63.5625 73.1738L63.5625 70.8676L57.6373 70.8676L57.6373 73.1738Z" stroke="black" stroke-width="0.429643"/>
<path d="M62.8121 73.0801L63.127 73.0801L63.127 71.2219L62.8121 71.2219L62.8121 73.0801Z" fill="black"/>
<path d="M62.1323 73.0801L62.4473 73.0801L62.4473 71.2219L62.1323 71.2219L62.1323 73.0801Z" fill="black"/>
<path d="M58.7495 73.0801L59.0645 73.0801L59.0645 71.2219L58.7495 71.2219L58.7495 73.0801Z" fill="black"/>
<path d="M58.0718 73.0801L58.3867 73.0801L58.3867 71.2219L58.0718 71.2219L58.0718 73.0801Z" fill="black"/>
<path d="M57.6104 71.0586L58.7056 71.0586L63.5886 71.0586L64.0117 70.5705L63.3375 67.0003L58.7056 67.0003L57.8614 67.0003L57.1877 70.5705L57.6104 71.0586Z" fill="#6D6E70"/>
<path d="M57.61 71.0581L58.6722 71.0581L58.2496 70.57L58.9238 66.9998L57.8611 66.9998L57.1874 70.57L57.61 71.0581Z" fill="white"/>
<path d="M62.1725 71.0581L63.5886 71.0581L64.0117 70.57L63.3375 66.9998L61.9214 66.9998L62.5956 70.57L62.1725 71.0581Z" fill="#404041"/>
<path d="M57.6104 71.0581L58.7056 71.0581L63.5886 71.0581L64.0117 70.57L63.3375 66.9998L58.7056 66.9998L57.8614 66.9998L57.1877 70.57L57.6104 71.0581Z" stroke="black" stroke-width="0.811667"/>
<path d="M57.3324 69.8716L63.8652 69.8716L63.8652 69.1541L57.3324 69.1541L57.3324 69.8716Z" fill="black"/>
<path d="M57.1711 74.4902L64.0254 74.4902L64.0254 74.0032L57.1711 74.0032L57.1711 74.4902Z" fill="white"/>
<path d="M57.0995 108.662L64.0977 108.662L64.0977 72.6598L57.0995 72.6598L57.0995 108.662Z" fill="#6D6E70"/>
<path d="M57.0992 108.662L59.4082 108.662L59.4082 72.6598L57.0992 72.6598L57.0992 108.662Z" fill="white"/>
<path d="M64.0977 108.662L64.0977 72.6593L61.5003 72.6593L61.5003 108.662L64.0977 108.662Z" fill="#404041"/>
<path d="M57.0995 108.662L64.0977 108.662L64.0977 72.6598L57.0995 72.6598L57.0995 108.662Z" stroke="black" stroke-width="0.811667"/>
<path d="M57.1711 74.1655L64.0254 74.1655L64.0254 73.6785L57.1711 73.6785L57.1711 74.1655Z" fill="black"/>
<path fill-rule="evenodd" clip-rule="evenodd" d="M66.0292 80.5381H67.6407C67.9379 80.5381 68.1817 80.7781 68.1779 81.0752L68.0179 96.668H66.0254C65.7283 96.668 65.4883 96.428 65.4883 96.1309V81.0752C65.4921 80.7781 65.7359 80.5381 66.0292 80.5381Z" fill="#6D6E70"/>
<path d="M65.5422 82.9673L68.084 82.9673L68.084 81.9709L65.5422 81.9709L65.5422 82.9673Z" fill="#404041"/>
<path d="M65.5338 82.9673L68.0938 82.9673L68.0938 81.9709L65.5338 81.9709L65.5338 82.9673Z" stroke="black" stroke-width="0.360895"/>
<path d="M67.7682 82.9268L67.9043 82.9268L67.9043 82.1239L67.7682 82.1239L67.7682 82.9268Z" fill="black"/>
<path d="M67.4753 82.9268L67.6113 82.9268L67.6113 82.1239L67.4753 82.1239L67.4753 82.9268Z" fill="black"/>
<path d="M66.0143 82.9268L66.1504 82.9268L66.1504 82.1239L66.0143 82.1239L66.0143 82.9268Z" fill="black"/>
<path d="M65.7213 82.9268L65.8574 82.9268L65.8574 82.1239L65.7213 82.1239L65.7213 82.9268Z" fill="black"/>
<path d="M65.5214 82.0532L65.9946 82.0532L68.1043 82.0532L68.2871 81.8423L67.9958 80.2998L65.9946 80.2998L65.6299 80.2998L65.3388 81.8423L65.5214 82.0532Z" fill="#6D6E70"/>
<path d="M65.5202 82.0532L65.9792 82.0532L65.7966 81.8423L66.0879 80.2998L65.6287 80.2998L65.3376 81.8423L65.5202 82.0532Z" fill="white"/>
<path d="M67.4925 82.0532L68.1043 82.0532L68.2871 81.8423L67.9958 80.2998L67.384 80.2998L67.6753 81.8423L67.4925 82.0532Z" fill="#404041"/>
<path d="M65.5214 82.0532L65.9946 82.0532L68.1043 82.0532L68.2871 81.8423L67.9958 80.2998L65.9946 80.2998L65.6299 80.2998L65.3388 81.8423L65.5214 82.0532Z" stroke="black" stroke-width="0.681792"/>
<path d="M65.4021 81.5405L68.2246 81.5405L68.2246 81.2305L65.4021 81.2305L65.4021 81.5405Z" fill="black"/>
<path d="M65.3316 83.5361L68.293 83.5361L68.293 83.3257L65.3316 83.3257L65.3316 83.5361Z" fill="white"/>
<path d="M65.3006 98.2998L68.3242 98.2998L68.3242 82.7452L65.3006 82.7452L65.3006 98.2998Z" fill="#6D6E70"/>
<path d="M65.3012 98.2998L66.2988 98.2998L66.2988 82.7452L65.3012 82.7452L65.3012 98.2998Z" fill="white"/>
<path d="M68.3242 98.2998L68.3242 82.7449L67.202 82.7449L67.202 98.2998L68.3242 98.2998Z" fill="#404041"/>
<path d="M65.3006 98.2998L68.3242 98.2998L68.3242 82.7452L65.3006 82.7452L65.3006 98.2998Z" stroke="black" stroke-width="0.681792"/>
<path d="M65.3316 83.3955L68.293 83.3955L68.293 83.1851L65.3316 83.1851L65.3316 83.3955Z" fill="black"/>
<mask id="path-43-outside-3_1233_2887" maskUnits="userSpaceOnUse" x="55.0078" y="82.8149" width="61" height="118" fill="black">
<rect fill="white" x="55.0078" y="82.8149" width="61" height="118"/>
<path d="M68.0005 97.8076L57.0078 86.8149V194.901C57.0078 199.954 68.0005 199.954 68.0005 194.901V181.181V165.3L113.799 146.3V126.3L68.0005 145.8V134.87V97.8076Z"/>
</mask>
<path d="M68.0005 97.8076L57.0078 86.8149V194.901C57.0078 199.954 68.0005 199.954 68.0005 194.901V181.181V165.3L113.799 146.3V126.3L68.0005 145.8V134.87V97.8076Z" fill="#6D6E70"/>
<path d="M70.1154 165.232L114.087 146.993L113.512 145.607L69.5407 163.846L70.1154 165.232ZM57.0078 86.8149L58.0685 85.7543L55.5078 83.1936V86.8149H57.0078ZM68.0005 97.8076H69.5005V97.1863L69.0612 96.747L68.0005 97.8076ZM68.0005 145.8H66.5005V148.069L68.5881 147.18L68.0005 145.8ZM113.799 146.3L114.374 147.685L115.299 147.301V146.3H113.799ZM113.799 126.3H115.299V124.031L113.212 124.92L113.799 126.3ZM68.0005 165.3L67.4257 163.914L66.5005 164.298V165.3H68.0005ZM55.9472 87.8756L66.9399 98.8683L69.0612 96.747L58.0685 85.7543L55.9472 87.8756ZM66.5005 97.8076V134.87H69.5005V97.8076H66.5005ZM66.5005 181.181V194.901H69.5005V181.181H66.5005ZM66.5005 194.901C66.5005 195.522 66.1972 196.036 65.499 196.464C64.7618 196.916 63.6776 197.191 62.5042 197.191C61.3307 197.191 60.2466 196.916 59.5093 196.464C58.8111 196.036 58.5078 195.522 58.5078 194.901H55.5078C55.5078 196.805 56.5786 198.187 57.9416 199.022C59.2654 199.833 60.9295 200.191 62.5042 200.191C64.0789 200.191 65.7429 199.833 67.0668 199.022C68.4297 198.187 69.5005 196.805 69.5005 194.901H66.5005ZM58.5078 194.901V86.8149H55.5078V194.901H58.5078ZM69.5005 145.8V134.87H66.5005V145.8H69.5005ZM68.5881 147.18L114.387 127.68L113.212 124.92L67.4129 144.42L68.5881 147.18ZM112.299 126.3V146.3H115.299V126.3H112.299ZM113.225 144.914L67.4257 163.914L68.5753 166.685L114.374 147.685L113.225 144.914ZM66.5005 165.3V181.181H69.5005V165.3H66.5005Z" fill="black" mask="url(#path-43-outside-3_1233_2887)"/>
<rect x="61.6508" y="191.45" width="1.7" height="4.3" rx="0.65" fill="black" stroke="black" stroke-width="0.3"/>
<rect x="61.8008" y="191.6" width="1.4" height="4" rx="0.5" fill="#9E3E63"/>
<path fill-rule="evenodd" clip-rule="evenodd" d="M62.1769 192.307H62.5587C62.7149 192.307 62.845 192.371 62.845 192.447V195.095C62.845 195.171 62.7149 195.235 62.5587 195.235H62.1769C62.0208 195.235 61.8906 195.171 61.8906 195.095V192.45C61.8906 192.371 62.0208 192.307 62.1769 192.307Z" fill="#F39DB1"/>
<path d="M62.5263 192.408C62.6141 192.408 62.6853 192.34 62.6853 192.256C62.6853 192.173 62.6141 192.105 62.5263 192.105C62.4384 192.105 62.3672 192.173 62.3672 192.256C62.3672 192.34 62.4384 192.408 62.5263 192.408Z" fill="white"/>
<path d="M62.0488 194.858V193.552C62.0488 193.438 62.2505 193.257 62.5688 193.077C62.6032 193.054 62.6418 193.033 62.6851 193.014C62.6448 193.035 62.606 193.056 62.5688 193.077C62.3252 193.235 62.2931 193.452 62.3118 193.552L62.3118 194.858C62.2931 194.958 62.4207 195.085 62.8503 195.155C62.5003 195.155 62.0488 194.972 62.0488 194.858Z" fill="white"/>
<path d="M68.002 134.87V97.8081L66.4941 96.3003V197.607C67.4071 196.979 68.002 196.077 68.002 194.901V181.181V165.3L113.801 146.3V137.3L69.8295 145.022L68.002 145.8V134.87Z" fill="#404041"/>
<path d="M70.5363 151.384L70.9409 145.899L75.1417 143.866L71.9328 147.016L70.5363 151.384Z" fill="white"/>
<path d="M64.3008 95.3003L67.3068 98.1569L67.3156 102.727L66.4234 98.6192L64.3008 95.3003Z" fill="white"/>
<path d="M57.0078 86.8154V194.901C57.0078 196.067 57.5927 196.964 58.4927 197.591V88.3003L57.0078 86.8154Z" fill="white"/>
<path d="M56.0996 155.14C56.0996 155.14 59.3516 152.668 59.3516 150.554V140.571C59.3516 138.099 56.1321 136.506 56.1321 136.506L56.0996 155.14Z" fill="#404041"/>
<path d="M55.4285 136.3C55.4285 136.3 53 137.904 53 140.158V150.999C53 152.82 55.7746 154.944 55.7746 154.944L57.7699 149.741V140.552L55.4285 136.3Z" fill="#F39DB1"/>
<path d="M56.4692 138.189V147.14L54.4738 152.343C53.9448 151.922 53.4518 151.459 53 150.956V150.999C53 152.82 55.7746 154.944 55.7746 154.944L57.7699 149.741V140.552L56.4692 138.189Z" fill="#9E3E63"/>
<path d="M55.4285 136.3C55.4285 136.3 53 137.904 53 140.158V150.999C53 152.82 55.7746 154.944 55.7746 154.944C55.7746 154.944 57.7699 150.944 57.7699 149.741V140.552C57.7699 139.009 55.4285 136.3 55.4285 136.3Z" stroke="black"/>
<path d="M54.2583 146.229C54.2583 146.229 53.1526 138.902 55.2339 138.077C55.2339 138.081 54.3012 144.386 54.2583 146.229Z" fill="white"/>
<path d="M68.0556 143.2L68 167.235L70 144.993L68.0556 143.2Z" fill="black"/>
<path d="M61.8008 90.8003V123.3L68.8008 130.3" stroke="black"/>
<mask id="path-61-outside-4_1233_2887" maskUnits="userSpaceOnUse" x="140.197" y="126.955" width="19" height="19" fill="black">
<rect fill="white" x="140.197" y="126.955" width="19" height="19"/>
<path fill-rule="evenodd" clip-rule="evenodd" d="M142.55 128.955V136.279C145.139 136.279 147.132 136.542 148.226 137.47C149.278 138.356 149.873 140.225 149.873 143.617H157.197C157.197 137.843 155.674 134.216 152.919 131.89C150.22 129.62 146.731 128.955 142.55 128.955Z"/>
</mask>
<path fill-rule="evenodd" clip-rule="evenodd" d="M142.55 128.955V136.279C145.139 136.279 147.132 136.542 148.226 137.47C149.278 138.356 149.873 140.225 149.873 143.617H157.197C157.197 137.843 155.674 134.216 152.919 131.89C150.22 129.62 146.731 128.955 142.55 128.955Z" fill="#6D6E70"/>
<path fill-rule="evenodd" clip-rule="evenodd" d="M142.55 128.955V136.279C145.139 136.279 147.132 136.542 148.226 137.47C149.278 138.356 149.873 140.225 149.873 143.617H157.197C157.197 137.843 155.674 134.216 152.919 131.89C150.22 129.62 146.731 128.955 142.55 128.955Z" stroke="black" stroke-width="3" mask="url(#path-61-outside-4_1233_2887)"/>
<path d="M143.151 135.778C145.74 135.778 147.733 136.041 148.827 136.969C149.879 137.855 150.475 139.724 150.475 143.116" stroke="#404041" stroke-width="1.5"/>
<path d="M142.151 129.656C146.332 129.656 149.821 130.32 152.521 132.591C155.276 134.917 156.799 138.544 156.799 144.317" stroke="white" stroke-width="1.5"/>
<mask id="path-64-outside-5_1233_2887" maskUnits="userSpaceOnUse" x="119.391" y="123.3" width="27" height="26" fill="black">
<rect fill="white" x="119.391" y="123.3" width="27" height="26"/>
<path fill-rule="evenodd" clip-rule="evenodd" d="M124.87 125.3H140.722C142.743 125.3 144.391 126.948 144.391 128.969V143.631C144.391 145.652 142.743 147.3 140.722 147.3H133.855C133.135 147.3 132.512 147.12 131.903 146.732L122.917 141.056C121.824 140.363 121.215 139.256 121.215 137.954V128.983C121.201 126.948 122.848 125.3 124.87 125.3Z"/>
</mask>
<path fill-rule="evenodd" clip-rule="evenodd" d="M124.87 125.3H140.722C142.743 125.3 144.391 126.948 144.391 128.969V143.631C144.391 145.652 142.743 147.3 140.722 147.3H133.855C133.135 147.3 132.512 147.12 131.903 146.732L122.917 141.056C121.824 140.363 121.215 139.256 121.215 137.954V128.983C121.201 126.948 122.848 125.3 124.87 125.3Z" fill="#6D6E70"/>
<path fill-rule="evenodd" clip-rule="evenodd" d="M124.87 125.3H140.722C142.743 125.3 144.391 126.948 144.391 128.969V143.631C144.391 145.652 142.743 147.3 140.722 147.3H133.855C133.135 147.3 132.512 147.12 131.903 146.732L122.917 141.056C121.824 140.363 121.215 139.256 121.215 137.954V128.983C121.201 126.948 122.848 125.3 124.87 125.3Z" stroke="black" stroke-width="3" mask="url(#path-64-outside-5_1233_2887)"/>
<path d="M122.918 141.056L131.903 146.732C131.949 146.761 131.995 146.789 132.041 146.816C133.138 144.98 133.235 132.98 132.638 130.48C132.16 128.48 127.439 126.314 125.138 125.48L124.87 125.3C122.849 125.3 121.201 126.948 121.215 128.983V137.954C121.215 139.256 121.824 140.363 122.918 141.056Z" fill="#404041"/>
<path d="M140.722 125.3H124.87C128.792 126.194 137.338 126.08 140.138 126.48C143.638 126.98 142.738 132.48 142.738 137.954C142.738 142.352 141.36 146.009 140.722 147.3C142.743 147.3 144.391 145.652 144.391 143.631V128.969C144.391 126.948 142.743 125.3 140.722 125.3Z" fill="white"/>
<path fill-rule="evenodd" clip-rule="evenodd" d="M171.713 67.5518H167.983C167.295 67.5518 166.731 68.1073 166.74 68.795L167.11 104.885H171.722C172.409 104.885 172.965 104.33 172.965 103.642V68.795C172.956 68.1073 172.392 67.5518 171.713 67.5518Z" fill="#6D6E70"/>
<path d="M172.84 73.1738L166.957 73.1738L166.957 70.8676L172.84 70.8676L172.84 73.1738Z" fill="#404041"/>
<path d="M172.861 73.1738L166.936 73.1738L166.936 70.8676L172.861 70.8676L172.861 73.1738Z" stroke="black" stroke-width="0.429643"/>
<path d="M167.686 73.0801L167.371 73.0801L167.371 71.2219L167.686 71.2219L167.686 73.0801Z" fill="black"/>
<path d="M168.366 73.0801L168.051 73.0801L168.051 71.2219L168.366 71.2219L168.366 73.0801Z" fill="black"/>
<path d="M171.749 73.0801L171.434 73.0801L171.434 71.2219L171.749 71.2219L171.749 73.0801Z" fill="black"/>
<path d="M172.426 73.0801L172.111 73.0801L172.111 71.2219L172.426 71.2219L172.426 73.0801Z" fill="black"/>
<path d="M172.888 71.0586L171.792 71.0586L166.909 71.0586L166.486 70.5705L167.161 67.0003L171.792 67.0003L172.637 67.0003L173.31 70.5705L172.888 71.0586Z" fill="#6D6E70"/>
<path d="M172.888 71.0581L171.826 71.0581L172.248 70.57L171.574 66.9998L172.637 66.9998L173.311 70.57L172.888 71.0581Z" fill="white"/>
<path d="M168.326 71.0581L166.909 71.0581L166.486 70.57L167.161 66.9998L168.577 66.9998L167.902 70.57L168.326 71.0581Z" fill="#404041"/>
<path d="M172.888 71.0581L171.792 71.0581L166.909 71.0581L166.486 70.57L167.161 66.9998L171.792 66.9998L172.637 66.9998L173.31 70.57L172.888 71.0581Z" stroke="black" stroke-width="0.811667"/>
<path d="M173.166 69.8716L166.633 69.8716L166.633 69.1541L173.166 69.1541L173.166 69.8716Z" fill="black"/>
<path d="M173.327 74.4902L166.473 74.4902L166.473 74.0032L173.327 74.0032L173.327 74.4902Z" fill="white"/>
<path d="M173.399 108.662L166.4 108.662L166.4 72.6598L173.399 72.6598L173.399 108.662Z" fill="#6D6E70"/>
<path d="M173.399 108.662L171.09 108.662L171.09 72.6598L173.399 72.6598L173.399 108.662Z" fill="white"/>
<path d="M166.4 108.662L166.4 72.6593L168.998 72.6593L168.998 108.662L166.4 108.662Z" fill="#404041"/>
<path d="M173.399 108.662L166.4 108.662L166.4 72.6598L173.399 72.6598L173.399 108.662Z" stroke="black" stroke-width="0.811667"/>
<path d="M173.327 74.1655L166.473 74.1655L166.473 73.6785L173.327 73.6785L173.327 74.1655Z" fill="black"/>
<path fill-rule="evenodd" clip-rule="evenodd" d="M164.469 80.5381H162.857C162.56 80.5381 162.316 80.7781 162.32 81.0752L162.48 96.668H164.473C164.77 96.668 165.01 96.428 165.01 96.1309V81.0752C165.006 80.7781 164.762 80.5381 164.469 80.5381Z" fill="#6D6E70"/>
<path d="M164.956 82.9673L162.414 82.9673L162.414 81.9709L164.956 81.9709L164.956 82.9673Z" fill="#404041"/>
<path d="M164.964 82.9673L162.404 82.9673L162.404 81.9709L164.964 81.9709L164.964 82.9673Z" stroke="black" stroke-width="0.360895"/>
<path d="M162.73 82.9268L162.594 82.9268L162.594 82.1239L162.73 82.1239L162.73 82.9268Z" fill="black"/>
<path d="M163.023 82.9268L162.887 82.9268L162.887 82.1239L163.023 82.1239L163.023 82.9268Z" fill="black"/>
<path d="M164.484 82.9268L164.348 82.9268L164.348 82.1239L164.484 82.1239L164.484 82.9268Z" fill="black"/>
<path d="M164.777 82.9268L164.641 82.9268L164.641 82.1239L164.777 82.1239L164.777 82.9268Z" fill="black"/>
<path d="M164.977 82.0532L164.503 82.0532L162.394 82.0532L162.211 81.8423L162.502 80.2998L164.503 80.2998L164.868 80.2998L165.159 81.8423L164.977 82.0532Z" fill="#6D6E70"/>
<path d="M164.978 82.0532L164.519 82.0532L164.701 81.8423L164.41 80.2998L164.869 80.2998L165.16 81.8423L164.978 82.0532Z" fill="white"/>
<path d="M163.006 82.0532L162.394 82.0532L162.211 81.8423L162.502 80.2998L163.114 80.2998L162.823 81.8423L163.006 82.0532Z" fill="#404041"/>
<path d="M164.977 82.0532L164.503 82.0532L162.394 82.0532L162.211 81.8423L162.502 80.2998L164.503 80.2998L164.868 80.2998L165.159 81.8423L164.977 82.0532Z" stroke="black" stroke-width="0.681792"/>
<path d="M165.096 81.5405L162.273 81.5405L162.273 81.2305L165.096 81.2305L165.096 81.5405Z" fill="black"/>
<path d="M165.166 83.5361L162.205 83.5361L162.205 83.3257L165.166 83.3257L165.166 83.5361Z" fill="white"/>
<path d="M165.197 98.2998L162.174 98.2998L162.174 82.7452L165.197 82.7452L165.197 98.2998Z" fill="#6D6E70"/>
<path d="M165.197 98.2998L164.199 98.2998L164.199 82.7452L165.197 82.7452L165.197 98.2998Z" fill="white"/>
<path d="M162.174 98.2998L162.174 82.7449L163.296 82.7449L163.296 98.2998L162.174 98.2998Z" fill="#404041"/>
<path d="M165.197 98.2998L162.174 98.2998L162.174 82.7452L165.197 82.7452L165.197 98.2998Z" stroke="black" stroke-width="0.681792"/>
<path d="M165.166 83.3955L162.205 83.3955L162.205 83.1851L165.166 83.1851L165.166 83.3955Z" fill="black"/>
<mask id="path-103-outside-6_1233_2887" maskUnits="userSpaceOnUse" x="114.49" y="82.8149" width="61" height="118" fill="black">
<rect fill="white" x="114.49" y="82.8149" width="61" height="118"/>
<path d="M162.498 97.8076L173.49 86.8149V194.901C173.49 199.954 162.498 199.954 162.498 194.901V181.181V165.3L116.699 146.3V126.3L162.498 145.8V134.87V97.8076Z"/>
</mask>
<path d="M162.498 97.8076L173.49 86.8149V194.901C173.49 199.954 162.498 199.954 162.498 194.901V181.181V165.3L116.699 146.3V126.3L162.498 145.8V134.87V97.8076Z" fill="#6D6E70"/>
<path d="M160.383 165.232L116.411 146.993L116.986 145.607L160.957 163.846L160.383 165.232ZM173.49 86.8149L172.43 85.7543L174.99 83.1936V86.8149H173.49ZM162.498 97.8076H160.998V97.1863L161.437 96.747L162.498 97.8076ZM162.498 145.8H163.998V148.069L161.91 147.18L162.498 145.8ZM116.699 146.3L116.124 147.685L115.199 147.301V146.3H116.699ZM116.699 126.3H115.199V124.031L117.286 124.92L116.699 126.3ZM162.498 165.3L163.072 163.914L163.998 164.298V165.3H162.498ZM174.551 87.8756L163.558 98.8683L161.437 96.747L172.43 85.7543L174.551 87.8756ZM163.998 97.8076V134.87H160.998V97.8076H163.998ZM163.998 181.181V194.901H160.998V181.181H163.998ZM163.998 194.901C163.998 195.522 164.301 196.036 164.999 196.464C165.736 196.916 166.82 197.191 167.994 197.191C169.167 197.191 170.251 196.916 170.989 196.464C171.687 196.036 171.99 195.522 171.99 194.901H174.99C174.99 196.805 173.919 198.187 172.556 199.022C171.233 199.833 169.569 200.191 167.994 200.191C166.419 200.191 164.755 199.833 163.431 199.022C162.068 198.187 160.998 196.805 160.998 194.901H163.998ZM171.99 194.901V86.8149H174.99V194.901H171.99ZM160.998 145.8V134.87H163.998V145.8H160.998ZM161.91 147.18L116.111 127.68L117.286 124.92L163.085 144.42L161.91 147.18ZM118.199 126.3V146.3H115.199V126.3H118.199ZM117.274 144.914L163.072 163.914L161.923 166.685L116.124 147.685L117.274 144.914ZM163.998 165.3V181.181H160.998V165.3H163.998Z" fill="black" mask="url(#path-103-outside-6_1233_2887)"/>
<rect x="0.15" y="-0.15" width="1.7" height="4.3" rx="0.65" transform="matrix(-1 0 0 1 168.997 191.6)" fill="black" stroke="black" stroke-width="0.3"/>
<rect width="1.4" height="4" rx="0.5" transform="matrix(-1 0 0 1 168.697 191.6)" fill="#9E3E63"/>
<path fill-rule="evenodd" clip-rule="evenodd" d="M168.321 192.307H167.939C167.783 192.307 167.653 192.371 167.653 192.447V195.095C167.653 195.171 167.783 195.235 167.939 195.235H168.321C168.477 195.235 168.607 195.171 168.607 195.095V192.45C168.607 192.371 168.477 192.307 168.321 192.307Z" fill="#F39DB1"/>
<path d="M167.972 192.408C167.884 192.408 167.813 192.34 167.813 192.256C167.813 192.173 167.884 192.105 167.972 192.105C168.06 192.105 168.131 192.173 168.131 192.256C168.131 192.34 168.06 192.408 167.972 192.408Z" fill="white"/>
<path d="M168.449 194.858V193.552C168.449 193.438 168.248 193.257 167.929 193.077C167.895 193.054 167.856 193.033 167.813 193.014C167.853 193.035 167.892 193.056 167.929 193.077C168.173 193.235 168.205 193.452 168.186 193.552L168.186 194.858C168.205 194.958 168.077 195.085 167.648 195.155C167.998 195.155 168.449 194.972 168.449 194.858Z" fill="white"/>
<path d="M162.496 134.87V97.8081L164.004 96.3003V197.607C163.091 196.979 162.496 196.077 162.496 194.901V181.181V165.3L116.697 146.3V137.3L160.669 145.022L162.496 145.8V134.87Z" fill="#404041"/>
<path d="M159.962 151.384L159.557 145.899L155.356 143.866L158.565 147.016L159.962 151.384Z" fill="white"/>
<path d="M166.197 95.3003L163.191 98.1569L163.182 102.727L164.075 98.6192L166.197 95.3003Z" fill="white"/>
<path d="M173.49 86.8154V194.901C173.49 196.067 172.905 196.964 172.005 197.591V88.3003L173.49 86.8154Z" fill="white"/>
<path d="M174.398 155.14C174.398 155.14 171.146 152.668 171.146 150.554V140.571C171.146 138.099 174.366 136.506 174.366 136.506L174.398 155.14Z" fill="#404041"/>
<path d="M175.07 136.3C175.07 136.3 177.498 137.904 177.498 140.158V150.999C177.498 152.82 174.723 154.944 174.723 154.944L172.728 149.741V140.552L175.07 136.3Z" fill="#F39DB1"/>
<path d="M174.029 138.189V147.14L176.024 152.343C176.553 151.922 177.046 151.459 177.498 150.956V150.999C177.498 152.82 174.723 154.944 174.723 154.944L172.728 149.741V140.552L174.029 138.189Z" fill="#9E3E63"/>
<path d="M175.07 136.3C175.07 136.3 177.498 137.904 177.498 140.158V150.999C177.498 152.82 174.723 154.944 174.723 154.944C174.723 154.944 172.728 150.944 172.728 149.741V140.552C172.728 139.009 175.07 136.3 175.07 136.3Z" stroke="black"/>
<path d="M176.24 146.229C176.24 146.229 177.345 138.902 175.264 138.077C175.264 138.081 176.197 144.386 176.24 146.229Z" fill="white"/>
<path d="M162.442 143.2L162.498 167.235L160.498 144.993L162.442 143.2Z" fill="black"/>
<path d="M168.697 90.8003V123.3L161.697 130.3" stroke="black"/>

        
<mask id="path-1-outside-1_1233_2887" maskUnits="userSpaceOnUse" x="71.9716" y="144.637" width="38.1799" height="38.1799" fill="black">
<rect fill="white" x="71.9716" y="144.637" width="38.1799" height="38.1799"/>
<path fill-rule="evenodd" clip-rule="evenodd" d="M85.6639 154.215L101.388 158.078C102.252 158.262 102.812 159.096 102.678 159.969L101.011 170.146C100.894 170.862 100.363 171.389 99.6603 171.516L84.7619 171.988L85.6639 154.215Z"/>
</mask>
<path fill-rule="evenodd" clip-rule="evenodd" d="M85.6639 154.215L101.388 158.078C102.252 158.262 102.812 159.096 102.678 159.969L101.011 170.146C100.894 170.862 100.363 171.389 99.6603 171.516L84.7619 171.988L85.6639 154.215Z" fill="#6D6E70"/>
<path fill-rule="evenodd" clip-rule="evenodd" d="M85.6639 154.215L101.388 158.078C102.252 158.262 102.812 159.096 102.678 159.969L101.011 170.146C100.894 170.862 100.363 171.389 99.6603 171.516L84.7619 171.988L85.6639 154.215Z" stroke="black" stroke-width="3" mask="url(#path-1-outside-1_1233_2887)"/>
<path d="M101.388 158.078L85.6639 154.215L102.45 161.361L102.678 159.969C102.812 159.096 102.252 158.262 101.388 158.078Z" fill="white"/>
<mask id="path-3-outside-2_1233_2887" maskUnits="userSpaceOnUse" x="32.1872" y="127.226" width="65.148" height="64.9464" fill="black">
<rect fill="white" x="32.1872" y="127.226" width="65.148" height="64.9464"/>
<path fill-rule="evenodd" clip-rule="evenodd" d="M81.9831 153.573L59.1812 163.924L55.4838 150.426C55.2981 149.763 54.9674 149.229 54.442 148.777L48.4554 143.653C47.9599 143.23 47.2223 143.691 47.3782 144.325L55.4439 175.795C55.8998 177.55 57.6873 178.631 59.4434 178.195L84.7615 171.97C85.4541 171.793 86.0077 171.482 86.5095 170.966L92.1543 165.158C93.4279 163.847 93.3978 161.733 92.0873 160.459L85.6637 154.216C84.6709 153.251 83.2478 153.007 81.9831 153.573Z"/>
</mask>
<path fill-rule="evenodd" clip-rule="evenodd" d="M81.9831 153.573L59.1812 163.924L55.4838 150.426C55.2981 149.763 54.9674 149.229 54.442 148.777L48.4554 143.653C47.9599 143.23 47.2223 143.691 47.3782 144.325L55.4439 175.795C55.8998 177.55 57.6873 178.631 59.4434 178.195L84.7615 171.97C85.4541 171.793 86.0077 171.482 86.5095 170.966L92.1543 165.158C93.4279 163.847 93.3978 161.733 92.0873 160.459L85.6637 154.216C84.6709 153.251 83.2478 153.007 81.9831 153.573Z" fill="#6D6E70"/>
<path fill-rule="evenodd" clip-rule="evenodd" d="M81.9831 153.573L59.1812 163.924L55.4838 150.426C55.2981 149.763 54.9674 149.229 54.442 148.777L48.4554 143.653C47.9599 143.23 47.2223 143.691 47.3782 144.325L55.4439 175.795C55.8998 177.55 57.6873 178.631 59.4434 178.195L84.7615 171.97C85.4541 171.793 86.0077 171.482 86.5095 170.966L92.1543 165.158C93.4279 163.847 93.3978 161.733 92.0873 160.459L85.6637 154.216C84.6709 153.251 83.2478 153.007 81.9831 153.573Z" stroke="black" stroke-width="3" mask="url(#path-3-outside-2_1233_2887)"/>
<path d="M59.4433 178.195C57.6872 178.631 55.8997 177.55 55.4438 175.794L53.4502 168.016C55.9475 171.903 56.715 176.135 64.1237 174.968C70.0507 174.035 80.3517 172.58 84.7614 171.969L59.4433 178.195Z" fill="#404041"/>
<path d="M62.8652 162.252L81.9831 153.573C83.2478 153.007 84.6709 153.251 85.6637 154.216L91.0545 159.455C89.8906 158.74 86.7101 157.038 83.3003 155.955C80.4369 155.046 70.0428 159.091 62.8652 162.252L59.1812 163.924L57.7224 158.598C56.7747 156.943 54.4385 153.025 52.6753 150.595C50.9121 148.164 48.8683 147.193 48.0668 147.011L47.3782 144.325C47.2223 143.691 47.9599 143.23 48.4554 143.653L54.442 148.777C54.9674 149.229 55.2981 149.763 55.4838 150.426L57.7224 158.598L59.1812 163.924C60.2422 163.426 61.4951 162.855 62.8652 162.252Z" fill="white"/>
<path d="M58.9084 162.847L62.1571 174.417L60.0881 163.444L58.9084 162.847Z" fill="black"/>
<mask id="path-7-inside-3_1233_2887" fill="white">
<path fill-rule="evenodd" clip-rule="evenodd" d="M73.5465 170.105L76.7298 169.32C77.2019 169.216 77.4544 169.668 77.3118 170.087L76.5057 172.454C76.4065 172.745 76.1308 173.048 75.8292 173.128L72.6581 173.907C72.1798 174.029 71.9059 173.58 72.0547 173.143L72.8609 170.776C72.9601 170.485 73.2358 170.182 73.5465 170.105Z"/>
</mask>
<path fill-rule="evenodd" clip-rule="evenodd" d="M73.5465 170.105L76.7298 169.32C77.2019 169.216 77.4544 169.668 77.3118 170.087L76.5057 172.454C76.4065 172.745 76.1308 173.048 75.8292 173.128L72.6581 173.907C72.1798 174.029 71.9059 173.58 72.0547 173.143L72.8609 170.776C72.9601 170.485 73.2358 170.182 73.5465 170.105Z" fill="#9E3E63" stroke="black" stroke-width="0.691728" mask="url(#path-7-inside-3_1233_2887)"/>
<path fill-rule="evenodd" clip-rule="evenodd" d="M73.5819 170.476L75.5027 170.002C75.7875 169.94 75.9399 170.212 75.8538 170.465L75.3674 171.893C75.3076 172.069 75.1412 172.251 74.9593 172.3L73.0459 172.77C72.7573 172.843 72.5921 172.572 72.6819 172.309L73.1683 170.881C73.2281 170.705 73.3945 170.522 73.5819 170.476Z" fill="#F39DB1"/>
<path d="M73.7888 170.65C73.5797 170.702 73.3942 170.905 73.3274 171.102L73.0562 171.898L73.7847 170.962L74.8599 170.386L73.7888 170.65Z" fill="white"/>
<mask id="path-10-inside-4_1233_2887" fill="white">
<path fill-rule="evenodd" clip-rule="evenodd" d="M68.3199 171.337L71.5033 170.552C71.9753 170.448 72.2279 170.9 72.0853 171.319L71.2791 173.686C71.1799 173.977 70.9042 174.28 70.6026 174.36L67.4315 175.139C66.9532 175.261 66.6793 174.812 66.8282 174.375L67.6343 172.008C67.7335 171.716 68.0092 171.414 68.3199 171.337Z"/>
</mask>
<path fill-rule="evenodd" clip-rule="evenodd" d="M68.3199 171.337L71.5033 170.552C71.9753 170.448 72.2279 170.9 72.0853 171.319L71.2791 173.686C71.1799 173.977 70.9042 174.28 70.6026 174.36L67.4315 175.139C66.9532 175.261 66.6793 174.812 66.8282 174.375L67.6343 172.008C67.7335 171.716 68.0092 171.414 68.3199 171.337Z" fill="#9E3E63" stroke="black" stroke-width="0.691728" mask="url(#path-10-inside-4_1233_2887)"/>
<path fill-rule="evenodd" clip-rule="evenodd" d="M68.3554 171.708L70.2761 171.234C70.561 171.172 70.7133 171.444 70.6273 171.697L70.1409 173.125C70.081 173.301 69.9147 173.483 69.7327 173.532L67.8193 174.002C67.5308 174.075 67.3655 173.804 67.4553 173.541L67.9417 172.113C68.0016 171.937 68.1679 171.754 68.3554 171.708Z" fill="#F39DB1"/>
<path d="M68.5623 171.882C68.3532 171.934 68.1676 172.137 68.1009 172.333L67.8297 173.13L68.5581 172.194L69.6333 171.618L68.5623 171.882Z" fill="white"/>
<mask id="path-13-inside-5_1233_2887" fill="white">
<path fill-rule="evenodd" clip-rule="evenodd" d="M78.7711 168.875L81.9544 168.089C82.4265 167.986 82.6791 168.438 82.5364 168.857L81.7303 171.224C81.6311 171.515 81.3554 171.817 81.0538 171.897L77.8827 172.677C77.4044 172.798 77.1305 172.349 77.2794 171.912L78.0855 169.545C78.1847 169.254 78.4604 168.952 78.7711 168.875Z"/>
</mask>
<path fill-rule="evenodd" clip-rule="evenodd" d="M78.7711 168.875L81.9544 168.089C82.4265 167.986 82.6791 168.438 82.5364 168.857L81.7303 171.224C81.6311 171.515 81.3554 171.817 81.0538 171.897L77.8827 172.677C77.4044 172.798 77.1305 172.349 77.2794 171.912L78.0855 169.545C78.1847 169.254 78.4604 168.952 78.7711 168.875Z" fill="#9E3E63" stroke="black" stroke-width="0.691728" mask="url(#path-13-inside-5_1233_2887)"/>
<path fill-rule="evenodd" clip-rule="evenodd" d="M78.8066 169.245L80.7273 168.772C81.0121 168.709 81.1645 168.982 81.0784 169.234L80.5921 170.663C80.5322 170.838 80.3659 171.021 80.1839 171.069L78.2705 171.539C77.9819 171.613 77.8167 171.342 77.9065 171.078L78.3929 169.65C78.4527 169.474 78.6191 169.292 78.8066 169.245Z" fill="#F39DB1"/>
<path d="M79.0134 169.42C78.8043 169.472 78.6188 169.675 78.5521 169.871L78.2808 170.667L79.0093 169.732L80.0845 169.155L79.0134 169.42Z" fill="white"/>
<mask id="path-16-outside-6_1233_2887" maskUnits="userSpaceOnUse" x="119.87" y="144.637" width="38.1799" height="38.1799" fill="black">
<rect fill="white" x="119.87" y="144.637" width="38.1799" height="38.1799"/>
<path fill-rule="evenodd" clip-rule="evenodd" d="M144.358 154.215L128.634 158.078C127.77 158.262 127.209 159.096 127.344 159.969L129.01 170.146C129.127 170.862 129.658 171.389 130.361 171.516L145.26 171.988L144.358 154.215Z"/>
</mask>
<path fill-rule="evenodd" clip-rule="evenodd" d="M144.358 154.215L128.634 158.078C127.77 158.262 127.209 159.096 127.344 159.969L129.01 170.146C129.127 170.862 129.658 171.389 130.361 171.516L145.26 171.988L144.358 154.215Z" fill="#6D6E70"/>
<path fill-rule="evenodd" clip-rule="evenodd" d="M144.358 154.215L128.634 158.078C127.77 158.262 127.209 159.096 127.344 159.969L129.01 170.146C129.127 170.862 129.658 171.389 130.361 171.516L145.26 171.988L144.358 154.215Z" stroke="black" stroke-width="3" mask="url(#path-16-outside-6_1233_2887)"/>
<path d="M128.634 158.078L144.358 154.215L127.572 161.361L127.344 159.969C127.209 159.096 127.77 158.262 128.634 158.078Z" fill="white"/>
<mask id="path-18-outside-7_1233_2887" maskUnits="userSpaceOnUse" x="132.686" y="127.226" width="65.148" height="64.9464" fill="black">
<rect fill="white" x="132.686" y="127.226" width="65.148" height="64.9464"/>
<path fill-rule="evenodd" clip-rule="evenodd" d="M148.038 153.573L170.84 163.924L174.538 150.426C174.723 149.763 175.054 149.229 175.579 148.777L181.566 143.653C182.062 143.23 182.799 143.691 182.643 144.325L174.578 175.795C174.122 177.55 172.334 178.631 170.578 178.195L145.26 171.97C144.567 171.793 144.014 171.482 143.512 170.966L137.867 165.158C136.594 163.847 136.624 161.733 137.934 160.459L144.358 154.216C145.351 153.251 146.774 153.007 148.038 153.573Z"/>
</mask>
<path fill-rule="evenodd" clip-rule="evenodd" d="M148.038 153.573L170.84 163.924L174.538 150.426C174.723 149.763 175.054 149.229 175.579 148.777L181.566 143.653C182.062 143.23 182.799 143.691 182.643 144.325L174.578 175.795C174.122 177.55 172.334 178.631 170.578 178.195L145.26 171.97C144.567 171.793 144.014 171.482 143.512 170.966L137.867 165.158C136.594 163.847 136.624 161.733 137.934 160.459L144.358 154.216C145.351 153.251 146.774 153.007 148.038 153.573Z" fill="#6D6E70"/>
<path fill-rule="evenodd" clip-rule="evenodd" d="M148.038 153.573L170.84 163.924L174.538 150.426C174.723 149.763 175.054 149.229 175.579 148.777L181.566 143.653C182.062 143.23 182.799 143.691 182.643 144.325L174.578 175.795C174.122 177.55 172.334 178.631 170.578 178.195L145.26 171.97C144.567 171.793 144.014 171.482 143.512 170.966L137.867 165.158C136.594 163.847 136.624 161.733 137.934 160.459L144.358 154.216C145.351 153.251 146.774 153.007 148.038 153.573Z" stroke="black" stroke-width="3" mask="url(#path-18-outside-7_1233_2887)"/>
<path d="M170.578 178.195C172.334 178.631 174.122 177.55 174.578 175.794L176.571 168.016C174.074 171.903 173.306 176.135 165.898 174.968C159.971 174.035 149.67 172.58 145.26 171.969L170.578 178.195Z" fill="#404041"/>
<path d="M167.156 162.252L148.038 153.573C146.774 153.007 145.351 153.251 144.358 154.216L138.967 159.455C140.131 158.74 143.311 157.038 146.721 155.955C149.585 155.046 159.979 159.091 167.156 162.252L170.84 163.924L172.299 158.598C173.247 156.943 175.583 153.025 177.346 150.595C179.109 148.164 181.153 147.193 181.955 147.011L182.643 144.325C182.799 143.691 182.062 143.23 181.566 143.653L175.579 148.777C175.054 149.229 174.723 149.763 174.538 150.426L172.299 158.598L170.84 163.924C169.779 163.426 168.526 162.855 167.156 162.252Z" fill="white"/>
<path d="M171.113 162.847L167.864 174.417L169.933 163.444L171.113 162.847Z" fill="black"/>
<mask id="path-22-inside-8_1233_2887" fill="white">
<path fill-rule="evenodd" clip-rule="evenodd" d="M156.475 170.105L153.292 169.32C152.82 169.216 152.567 169.668 152.71 170.087L153.516 172.454C153.615 172.745 153.891 173.048 154.192 173.128L157.363 173.907C157.842 174.029 158.116 173.58 157.967 173.143L157.161 170.776C157.061 170.485 156.786 170.182 156.475 170.105Z"/>
</mask>
<path fill-rule="evenodd" clip-rule="evenodd" d="M156.475 170.105L153.292 169.32C152.82 169.216 152.567 169.668 152.71 170.087L153.516 172.454C153.615 172.745 153.891 173.048 154.192 173.128L157.363 173.907C157.842 174.029 158.116 173.58 157.967 173.143L157.161 170.776C157.061 170.485 156.786 170.182 156.475 170.105Z" fill="#9E3E63" stroke="black" stroke-width="0.691728" mask="url(#path-22-inside-8_1233_2887)"/>
<path fill-rule="evenodd" clip-rule="evenodd" d="M156.44 170.476L154.519 170.002C154.234 169.94 154.082 170.212 154.168 170.465L154.654 171.893C154.714 172.069 154.88 172.251 155.062 172.3L156.976 172.77C157.264 172.843 157.429 172.572 157.34 172.309L156.853 170.881C156.793 170.705 156.627 170.522 156.44 170.476Z" fill="#F39DB1"/>
<path d="M156.233 170.65C156.442 170.702 156.627 170.905 156.694 171.102L156.965 171.898L156.237 170.962L155.162 170.386L156.233 170.65Z" fill="white"/>
<mask id="path-25-inside-9_1233_2887" fill="white">
<path fill-rule="evenodd" clip-rule="evenodd" d="M161.702 171.337L158.518 170.552C158.046 170.448 157.794 170.9 157.936 171.319L158.742 173.686C158.842 173.977 159.117 174.28 159.419 174.36L162.59 175.139C163.068 175.261 163.342 174.812 163.193 174.375L162.387 172.008C162.288 171.716 162.012 171.414 161.702 171.337Z"/>
</mask>
<path fill-rule="evenodd" clip-rule="evenodd" d="M161.702 171.337L158.518 170.552C158.046 170.448 157.794 170.9 157.936 171.319L158.742 173.686C158.842 173.977 159.117 174.28 159.419 174.36L162.59 175.139C163.068 175.261 163.342 174.812 163.193 174.375L162.387 172.008C162.288 171.716 162.012 171.414 161.702 171.337Z" fill="#9E3E63" stroke="black" stroke-width="0.691728" mask="url(#path-25-inside-9_1233_2887)"/>
<path fill-rule="evenodd" clip-rule="evenodd" d="M161.666 171.708L159.745 171.234C159.461 171.172 159.308 171.444 159.394 171.697L159.881 173.125C159.94 173.301 160.107 173.483 160.289 173.532L162.202 174.002C162.491 174.075 162.656 173.804 162.566 173.541L162.08 172.113C162.02 171.937 161.854 171.754 161.666 171.708Z" fill="#F39DB1"/>
<path d="M161.459 171.882C161.668 171.934 161.854 172.137 161.921 172.333L162.192 173.13L161.463 172.194L160.388 171.618L161.459 171.882Z" fill="white"/>
<mask id="path-28-inside-10_1233_2887" fill="white">
<path fill-rule="evenodd" clip-rule="evenodd" d="M151.25 168.875L148.067 168.089C147.595 167.986 147.342 168.438 147.485 168.857L148.291 171.224C148.39 171.515 148.666 171.817 148.968 171.897L152.139 172.677C152.617 172.798 152.891 172.349 152.742 171.912L151.936 169.545C151.837 169.254 151.561 168.952 151.25 168.875Z"/>
</mask>
<path fill-rule="evenodd" clip-rule="evenodd" d="M151.25 168.875L148.067 168.089C147.595 167.986 147.342 168.438 147.485 168.857L148.291 171.224C148.39 171.515 148.666 171.817 148.968 171.897L152.139 172.677C152.617 172.798 152.891 172.349 152.742 171.912L151.936 169.545C151.837 169.254 151.561 168.952 151.25 168.875Z" fill="#9E3E63" stroke="black" stroke-width="0.691728" mask="url(#path-28-inside-10_1233_2887)"/>
<path fill-rule="evenodd" clip-rule="evenodd" d="M151.215 169.245L149.294 168.772C149.009 168.709 148.857 168.982 148.943 169.234L149.429 170.663C149.489 170.838 149.656 171.021 149.838 171.069L151.751 171.539C152.04 171.613 152.205 171.342 152.115 171.078L151.629 169.65C151.569 169.474 151.402 169.292 151.215 169.245Z" fill="#F39DB1"/>
<path d="M151.008 169.42C151.217 169.472 151.403 169.675 151.469 169.871L151.741 170.667L151.012 169.732L149.937 169.155L151.008 169.42Z" fill="white"/>

        
<mask id="path-1-outside-1_1233_2887" maskUnits="userSpaceOnUse" x="101.699" y="181.1" width="27" height="16" fill="black">
<rect fill="white" x="101.699" y="181.1" width="27" height="16"/>
<path fill-rule="evenodd" clip-rule="evenodd" d="M126.792 183.1C126.792 188.111 124.342 192.473 120.742 194.702H109.749C106.15 192.473 103.699 188.111 103.699 183.1C111.397 183.1 119.095 183.1 126.792 183.1Z"/>
</mask>
<path fill-rule="evenodd" clip-rule="evenodd" d="M126.792 183.1C126.792 188.111 124.342 192.473 120.742 194.702H109.749C106.15 192.473 103.699 188.111 103.699 183.1C111.397 183.1 119.095 183.1 126.792 183.1Z" fill="#6D6E70"/>
<path fill-rule="evenodd" clip-rule="evenodd" d="M126.792 183.1C126.792 188.111 124.342 192.473 120.742 194.702H109.749C106.15 192.473 103.699 188.111 103.699 183.1C111.397 183.1 119.095 183.1 126.792 183.1Z" stroke="black" stroke-width="3" mask="url(#path-1-outside-1_1233_2887)"/>
<path d="M103.699 183.1C103.699 188.111 106.15 192.473 109.749 194.702H111.749C109.15 192.473 107.699 188.111 107.699 183.1H103.699Z" fill="#BBBDBF"/>
<path d="M126.85 183.1C126.85 188.111 124.399 192.473 120.799 194.702H118.799C121.399 192.473 122.85 188.111 122.85 183.1H126.85Z" fill="#404041"/>
<mask id="path-4-outside-2_1233_2887" maskUnits="userSpaceOnUse" x="96.6992" y="134" width="36" height="54" fill="black">
<rect fill="white" x="96.6992" y="134" width="36" height="54"/>
<path fill-rule="evenodd" clip-rule="evenodd" d="M98.6992 180.635C98.6992 184.54 106.646 185.578 114.898 185.578C123.149 185.578 131.096 184.54 131.096 180.635C131.096 161.862 128.355 153.417 128.355 137.564C128.355 136.706 127.538 136 126.527 136C121.834 136 119.605 136 114.911 136C110.218 136 107.989 136 103.296 136C102.285 136 101.468 136.706 101.468 137.564C101.44 153.43 98.6992 161.876 98.6992 180.635Z"/>
</mask>
<path fill-rule="evenodd" clip-rule="evenodd" d="M98.6992 180.635C98.6992 184.54 106.646 185.578 114.898 185.578C123.149 185.578 131.096 184.54 131.096 180.635C131.096 161.862 128.355 153.417 128.355 137.564C128.355 136.706 127.538 136 126.527 136C121.834 136 119.605 136 114.911 136C110.218 136 107.989 136 103.296 136C102.285 136 101.468 136.706 101.468 137.564C101.44 153.43 98.6992 161.876 98.6992 180.635Z" fill="#6D6E70"/>
<path fill-rule="evenodd" clip-rule="evenodd" d="M98.6992 180.635C98.6992 184.54 106.646 185.578 114.898 185.578C123.149 185.578 131.096 184.54 131.096 180.635C131.096 161.862 128.355 153.417 128.355 137.564C128.355 136.706 127.538 136 126.527 136C121.834 136 119.605 136 114.911 136C110.218 136 107.989 136 103.296 136C102.285 136 101.468 136.706 101.468 137.564C101.44 153.43 98.6992 161.876 98.6992 180.635Z" stroke="black" stroke-width="3" mask="url(#path-4-outside-2_1233_2887)"/>
<path d="M114.463 185.577C106.369 185.541 98.6992 184.471 98.6992 180.635C98.6992 161.876 101.44 153.43 101.468 137.564C101.468 136.706 102.285 136 103.296 136H104.319C103.308 136 102.468 136.706 102.468 137.564C102.44 153.43 100.699 161.876 100.699 180.635C100.699 184.471 106.438 185.54 114.463 185.577Z" fill="#BBBDBF"/>
<path d="M128.356 137.564C128.356 153.417 131.097 161.862 131.097 180.635C131.097 184.537 123.159 185.577 114.912 185.578V136H126.528C127.539 136 128.356 136.706 128.356 137.564Z" fill="#404041"/>
<path fill-rule="evenodd" clip-rule="evenodd" d="M106.714 169.607L108.791 141.571C108.86 140.546 109.719 139.757 110.743 139.757H119.452C120.476 139.757 121.321 140.546 121.404 141.571L123.48 169.607C123.785 173.829 119.438 175.934 115.09 175.934C110.743 175.934 106.41 173.815 106.714 169.607Z" fill="#404041"/>
<mask id="path-8-inside-3_1233_2887" fill="white">
<path fill-rule="evenodd" clip-rule="evenodd" d="M106.714 167.907L108.791 139.871C108.86 138.847 109.719 138.058 110.743 138.058H119.452C120.476 138.058 121.321 138.847 121.404 139.871L123.48 167.907C123.785 172.129 119.438 174.234 115.09 174.234C110.743 174.234 106.41 172.116 106.714 167.907Z"/>
</mask>
<path fill-rule="evenodd" clip-rule="evenodd" d="M106.714 167.907L108.791 139.871C108.86 138.847 109.719 138.058 110.743 138.058H119.452C120.476 138.058 121.321 138.847 121.404 139.871L123.48 167.907C123.785 172.129 119.438 174.234 115.09 174.234C110.743 174.234 106.41 172.116 106.714 167.907Z" fill="#6D6E70" stroke="black" stroke-width="2" mask="url(#path-8-inside-3_1233_2887)"/>
<path d="M121.405 139.871C121.322 138.847 120.477 138.058 119.453 138.058H115.092V174.234C119.439 174.234 123.786 172.129 123.482 167.907L121.405 139.871Z" fill="#404041"/>
<mask id="path-10-inside-4_1233_2887" fill="white">
<path fill-rule="evenodd" clip-rule="evenodd" d="M106.714 167.907L108.791 139.871C108.86 138.847 109.719 138.058 110.743 138.058H119.452C120.476 138.058 121.321 138.847 121.404 139.871L123.48 167.907C123.785 172.129 119.438 174.234 115.09 174.234C110.743 174.234 106.41 172.116 106.714 167.907Z"/>
</mask>
<path fill-rule="evenodd" clip-rule="evenodd" d="M106.714 167.907L108.791 139.871C108.86 138.847 109.719 138.058 110.743 138.058H119.452C120.476 138.058 121.321 138.847 121.404 139.871L123.48 167.907C123.785 172.129 119.438 174.234 115.09 174.234C110.743 174.234 106.41 172.116 106.714 167.907Z" stroke="black" stroke-width="2" mask="url(#path-10-inside-4_1233_2887)"/>
<path d="M115.334 185.577C123.428 185.541 131.098 184.471 131.098 180.635C131.098 161.876 128.356 153.43 128.329 137.564C128.329 136.706 127.512 136 126.501 136H125.478C126.489 136 127.329 136.706 127.329 137.564C127.356 153.43 129.098 161.876 129.098 180.635C129.098 184.471 123.359 185.54 115.334 185.577Z" fill="#231F20"/>
<rect x="0.255127" y="-0.298716" width="2.77778" height="20.5556" rx="0.833333" transform="matrix(-0.996917 0.0784593 0.0784589 0.996917 126.162 142.349)" fill="black" stroke="black" stroke-width="0.555556"/>
<rect width="2.22222" height="20" rx="0.555556" transform="matrix(-0.996917 0.0784593 0.0784589 0.996917 125.961 142.344)" fill="#9E3E63"/>
<path fill-rule="evenodd" clip-rule="evenodd" d="M125.756 145.905L125.152 145.953C124.905 145.972 124.724 146.308 124.754 146.689L125.793 159.887C125.823 160.268 126.054 160.571 126.301 160.552L126.905 160.504C127.152 160.485 127.333 160.149 127.303 159.768L126.265 146.585C126.234 146.189 126.003 145.886 125.756 145.905Z" fill="#F39DB1"/>
<path d="M125.242 146.452C125.103 146.463 124.964 146.134 124.931 145.717C124.898 145.3 124.984 144.953 125.123 144.942C125.262 144.931 125.402 145.26 125.434 145.677C125.467 146.095 125.381 146.441 125.242 146.452Z" fill="white"/>
<path d="M126.958 158.607L126.446 152.098C126.401 151.531 126.011 150.65 125.436 149.792C125.373 149.685 125.304 149.584 125.228 149.493C125.299 149.592 125.369 149.692 125.436 149.792C125.884 150.55 126.02 151.63 126.029 152.131L126.542 158.64C126.611 159.136 126.458 159.783 125.806 160.189C126.36 160.145 127.003 159.175 126.958 158.607Z" fill="white"/>
<rect x="104.36" y="142.071" width="2.77778" height="20.5556" rx="0.833333" transform="rotate(4.49999 104.36 142.071)" fill="black" stroke="black" stroke-width="0.555556"/>
<rect x="104.283" y="142.344" width="2.22222" height="20" rx="0.555556" transform="rotate(4.49999 104.283 142.344)" fill="#9E3E63"/>
<path fill-rule="evenodd" clip-rule="evenodd" d="M104.488 145.905L105.092 145.953C105.339 145.972 105.52 146.308 105.49 146.689L104.452 159.887C104.422 160.268 104.19 160.571 103.943 160.552L103.339 160.504C103.092 160.485 102.911 160.149 102.941 159.768L103.979 146.585C104.01 146.189 104.241 145.886 104.488 145.905Z" fill="#F39DB1"/>
<path d="M105.002 146.452C105.141 146.463 105.28 146.134 105.313 145.717C105.346 145.3 105.26 144.953 105.121 144.942C104.982 144.931 104.843 145.26 104.81 145.677C104.777 146.095 104.863 146.441 105.002 146.452Z" fill="white"/>
<path d="M103.286 158.607L103.799 152.098C103.843 151.531 104.234 150.65 104.808 149.792C104.871 149.685 104.94 149.584 105.017 149.493C104.945 149.592 104.875 149.692 104.808 149.792C104.36 150.55 104.224 151.63 104.215 152.131L103.702 158.64C103.634 159.136 103.786 159.783 104.438 160.189C103.884 160.145 103.242 159.175 103.286 158.607Z" fill="white"/>
<path fill-rule="evenodd" clip-rule="evenodd" d="M119.974 168.661C119.974 168.232 119.974 167.789 119.974 167.359C119.974 166.82 119.337 166.21 118.603 166.376C116.263 166.916 113.91 166.916 111.57 166.376C110.836 166.21 110.199 166.82 110.199 167.359C110.199 167.789 110.199 168.232 110.199 168.661C110.199 169.201 110.822 169.505 111.57 169.644C113.91 170.073 116.263 170.073 118.603 169.644C119.351 169.505 119.974 169.201 119.974 168.661Z" fill="black"/>
<path fill-rule="evenodd" clip-rule="evenodd" d="M119.517 168.979C119.517 168.55 119.517 168.107 119.517 167.678C119.517 167.318 119.102 166.958 118.603 167.027C116.263 167.332 113.91 167.332 111.57 167.027C111.072 166.958 110.656 167.318 110.656 167.678C110.656 168.107 110.656 168.55 110.656 168.979C110.656 169.339 111.072 169.547 111.57 169.63C113.91 170.059 116.263 170.059 118.603 169.63C119.102 169.547 119.517 169.339 119.517 168.979Z" fill="#9E3E63"/>
<path fill-rule="evenodd" clip-rule="evenodd" d="M118.603 168.854C118.603 168.508 118.603 168.162 118.603 167.816C118.603 167.525 118.271 167.221 117.883 167.29C116.028 167.664 114.159 167.664 112.304 167.29C111.916 167.207 111.584 167.525 111.584 167.816C111.584 168.162 111.584 168.508 111.584 168.854C111.584 169.145 111.916 169.325 112.304 169.38C114.104 169.63 115.959 169.643 117.883 169.38C118.271 169.311 118.603 169.131 118.603 168.854Z" fill="#F39DB1"/>
<path d="M112.201 169.387C111.87 169.347 111.586 169.22 111.586 169.015V168.522C112.023 169.015 113.809 169.133 114.664 169.133C115.519 169.133 117.299 168.78 117.586 168.651V169.015C117.586 169.21 117.302 169.338 116.971 169.387C115.326 169.573 113.74 169.563 112.201 169.387Z" fill="white"/>
<path d="M117.185 167.688C117.185 167.597 117.407 167.522 117.681 167.522C117.955 167.522 118.178 167.597 118.178 167.688C118.178 167.779 117.955 167.854 117.681 167.854C117.407 167.854 117.185 167.779 117.185 167.688Z" fill="white"/>
<path d="M114.898 185.578C106.646 185.578 98.6992 184.539 98.6992 180.635V177.135C98.6992 181.039 106.646 182.078 114.898 182.078C123.149 182.078 131.096 181.039 131.096 177.135V180.635C131.096 184.539 123.149 185.578 114.898 185.578Z" fill="#404041"/>
<path d="M98 177.135C98 181.039 106.647 182.778 114.898 182.778C123.15 182.778 131.797 181.039 131.797 177.135" stroke="black" stroke-width="1.5"/>
<path d="M114.9 183.35V185.85" stroke="black"/>
<path d="M118.9 183.25V185.75" stroke="black"/>
<path d="M122.9 182.75V185.25" stroke="black"/>
<path d="M126.9 181.949V184.449" stroke="black"/>
<path d="M130.9 179.85V182.35" stroke="black"/>
<path d="M110.9 183.35V185.85" stroke="black"/>
<path d="M106.9 182.849V185.349" stroke="black"/>
<path d="M102.9 181.95V184.45" stroke="black"/>
<path d="M98.9004 180.05V182.55" stroke="black"/>

        
<mask id="path-1-outside-1_1233_2887" maskUnits="userSpaceOnUse" x="95.5" y="40" width="40" height="101" fill="black">
<rect fill="white" x="95.5" y="40" width="40" height="101"/>
<path d="M112.84 49.047C112.826 50.2376 112.549 52.079 115.277 52.079C118.004 52.079 117.727 50.2376 117.741 49.047V42C119.444 42 122.808 42.2907 123.113 44.492C126.602 69.4125 127.571 85.4447 127.585 110.794C127.585 111.293 127.751 111.708 128.097 112.068C129.758 113.785 131.42 115.488 133.081 117.204V129.374C131.433 131.492 129.786 133.624 128.138 135.743C128.138 140.115 102.459 140.095 102.431 135.728C100.787 133.614 99.1436 131.487 97.5 129.374V117.204C99.1614 115.488 100.823 113.785 102.484 112.068C102.83 111.708 102.996 111.293 102.996 110.794C103.01 85.4309 103.979 69.4125 107.468 44.492C107.773 42.2907 111.137 42 112.84 42V49.047Z"/>
</mask>
<path d="M112.84 49.047C112.826 50.2376 112.549 52.079 115.277 52.079C118.004 52.079 117.727 50.2376 117.741 49.047V42C119.444 42 122.808 42.2907 123.113 44.492C126.602 69.4125 127.571 85.4447 127.585 110.794C127.585 111.293 127.751 111.708 128.097 112.068C129.758 113.785 131.42 115.488 133.081 117.204V129.374C131.433 131.492 129.786 133.624 128.138 135.743C128.138 140.115 102.459 140.095 102.431 135.728C100.787 133.614 99.1436 131.487 97.5 129.374V117.204C99.1614 115.488 100.823 113.785 102.484 112.068C102.83 111.708 102.996 111.293 102.996 110.794C103.01 85.4309 103.979 69.4125 107.468 44.492C107.773 42.2907 111.137 42 112.84 42V49.047Z" fill="#6D6E70"/>
<path d="M102.431 135.728L101.681 135.732L101.683 135.987L101.839 136.188L102.431 135.728ZM101.839 136.188C101.841 136.19 101.843 136.193 101.845 136.195C101.847 136.198 101.849 136.2 101.851 136.203L103.035 135.282C103.033 135.28 103.031 135.277 103.029 135.275C103.027 135.272 103.025 135.27 103.023 135.267L101.839 136.188ZM101.681 135.72C101.681 135.725 101.681 135.729 101.681 135.732L103.181 135.723C103.181 135.722 103.181 135.721 103.181 135.72H101.681ZM112.84 49.047L114.34 49.0644L114.34 49.0557V49.047H112.84ZM112.84 42H114.34V40.5H112.84V42ZM107.468 44.492L108.954 44.7L108.954 44.6976L107.468 44.492ZM102.996 110.794L101.496 110.794V110.794H102.996ZM102.484 112.068L103.562 113.111L103.565 113.108L102.484 112.068ZM97.5 117.204L96.4221 116.161L96 116.598V117.204H97.5ZM97.5 129.374H96V129.889L96.316 130.295L97.5 129.374ZM102.431 135.728L103.931 135.718L103.928 135.209L103.615 134.807L102.431 135.728ZM128.138 135.743L126.954 134.822L126.638 135.228V135.743H128.138ZM133.081 129.374L134.265 130.295L134.581 129.889V129.374H133.081ZM133.081 117.204H134.581V116.598L134.159 116.161L133.081 117.204ZM128.097 112.068L127.016 113.108L127.019 113.111L128.097 112.068ZM127.585 110.794L129.085 110.794L129.085 110.794L127.585 110.794ZM123.113 44.492L121.627 44.6976L121.627 44.7L123.113 44.492ZM117.741 42V40.5H116.241V42H117.741ZM117.741 49.047L119.241 49.0644L119.241 49.0557V49.047H117.741ZM115.277 50.579C114.751 50.579 114.523 50.4884 114.451 50.4501C114.411 50.4285 114.412 50.4248 114.402 50.4017C114.376 50.3428 114.341 50.2142 114.33 49.9582C114.317 49.6692 114.335 49.461 114.34 49.0644L111.34 49.0295C111.338 49.2282 111.316 49.6967 111.333 50.0878C111.351 50.512 111.415 51.0669 111.659 51.6172C111.919 52.2033 112.361 52.7343 113.036 53.0952C113.679 53.4393 114.439 53.579 115.277 53.579V50.579ZM114.34 49.047V42H111.34V49.047H114.34ZM112.84 40.5C111.937 40.5 110.487 40.5732 109.174 40.9913C107.914 41.3928 106.257 42.3019 105.982 44.2865L108.954 44.6976C108.984 44.4809 109.161 44.1439 110.085 43.8498C110.956 43.5722 112.04 43.5 112.84 43.5V40.5ZM105.983 44.2841C102.483 69.2806 101.51 85.3686 101.496 110.794L104.496 110.795C104.51 85.4931 105.475 69.5445 108.954 44.7L105.983 44.2841ZM101.496 110.794C101.496 110.873 101.484 110.909 101.478 110.924C101.472 110.939 101.456 110.973 101.403 111.028L103.565 113.108C104.182 112.467 104.496 111.678 104.496 110.794H101.496ZM101.406 111.025C100.577 111.882 99.7471 112.736 98.9163 113.591C98.0857 114.446 97.254 115.302 96.4221 116.161L98.5779 118.248C99.4074 117.391 100.237 116.537 101.068 115.682C101.898 114.827 102.73 113.971 103.562 113.111L101.406 111.025ZM96 117.204V129.374H99V117.204H96ZM96.316 130.295C97.1369 131.35 97.958 132.41 98.78 133.47C99.6016 134.53 100.424 135.591 101.247 136.648L103.615 134.807C102.794 133.751 101.973 132.692 101.151 131.632C100.329 130.572 99.5067 129.511 98.684 128.453L96.316 130.295ZM129.322 136.663C130.147 135.603 130.971 134.54 131.795 133.477C132.619 132.415 133.442 131.353 134.265 130.295L131.897 128.453C131.072 129.513 130.248 130.577 129.424 131.639C128.6 132.702 127.777 133.764 126.954 134.822L129.322 136.663ZM134.581 129.374V117.204H131.581V129.374H134.581ZM134.159 116.161C133.327 115.302 132.495 114.446 131.665 113.591C130.834 112.736 130.004 111.882 129.175 111.025L127.019 113.111C127.851 113.971 128.683 114.827 129.513 115.682C130.344 116.537 131.174 117.391 132.003 118.248L134.159 116.161ZM129.178 111.028C129.125 110.973 129.109 110.939 129.103 110.924C129.097 110.909 129.085 110.873 129.085 110.794H126.085C126.085 111.678 126.399 112.467 127.016 113.108L129.178 111.028ZM129.085 110.794C129.071 85.3825 128.098 69.2806 124.598 44.2841L121.627 44.7C125.105 69.5445 126.071 85.5069 126.085 110.795L129.085 110.794ZM124.599 44.2865C124.324 42.3019 122.667 41.3928 121.406 40.9913C120.094 40.5732 118.644 40.5 117.741 40.5V43.5C118.541 43.5 119.625 43.5722 120.496 43.8498C121.419 44.1439 121.597 44.4809 121.627 44.6976L124.599 44.2865ZM116.241 42V49.047H119.241V42H116.241ZM116.241 49.0295C116.236 49.4529 116.253 49.6302 116.236 49.9411C116.222 50.2012 116.186 50.3328 116.158 50.3952C116.146 50.4219 116.145 50.4275 116.103 50.4497C116.031 50.4885 115.802 50.579 115.277 50.579V53.579C116.115 53.579 116.874 53.4392 117.517 53.0955C118.191 52.7353 118.633 52.2061 118.895 51.6237C119.14 51.0769 119.208 50.525 119.231 50.105C119.252 49.7357 119.239 49.2364 119.241 49.0644L116.241 49.0295ZM100.931 135.737C100.94 137.105 101.951 137.971 102.789 138.458C103.686 138.98 104.861 139.363 106.127 139.65C108.684 140.231 112.017 140.51 115.294 140.513C118.571 140.515 121.902 140.24 124.456 139.662C125.721 139.376 126.895 138.994 127.79 138.472C128.629 137.984 129.638 137.114 129.638 135.743H126.638C126.638 135.464 126.846 135.55 126.279 135.881C125.77 136.178 124.938 136.477 123.794 136.736C121.533 137.248 118.443 137.515 115.296 137.513C112.15 137.511 109.057 137.239 106.792 136.725C105.646 136.465 104.811 136.164 104.298 135.865C103.726 135.533 103.929 135.442 103.931 135.718L100.931 135.737Z" fill="black" mask="url(#path-1-outside-1_1233_2887)"/>
<path d="M102.996 110.794C103.01 85.4306 103.979 69.4123 107.468 44.4918C107.563 43.8064 107.954 43.3062 108.5 42.9424C107.986 52.9131 106.145 67.3289 105.477 80.4201C104.63 97.0246 104.8 113.42 104.8 113.42L98.8 117.92V130.42L102.443 135.742C100.795 133.624 99.1475 131.492 97.5 129.374V117.204C99.1614 115.487 100.823 113.785 102.484 112.068C102.83 111.708 102.996 111.293 102.996 110.794Z" fill="#BBBDBF"/>
<path d="M133.082 129.374C131.434 131.492 129.787 133.624 128.139 135.743C128.139 137.931 121.707 139.019 115.277 139.013V52.079C118.005 52.079 117.728 50.2376 117.742 49.047V42C119.445 42 122.809 42.2907 123.113 44.492C126.602 69.4125 127.571 85.4447 127.585 110.794C127.585 111.293 127.751 111.708 128.098 112.068C129.759 113.785 131.42 115.488 133.082 117.204V129.374Z" fill="#404041"/>
<path d="M127.603 110.794C127.589 85.4306 126.62 69.4123 123.131 44.4918C123.037 43.8064 122.645 43.3062 122.1 42.9424C122.614 52.9131 124.455 67.3289 125.123 80.4201C125.97 97.0246 125.8 113.42 125.8 113.42L131.8 117.92V130.42L128.157 135.742C129.805 133.624 131.452 131.492 133.1 129.374V117.204C131.438 115.487 129.777 113.785 128.116 112.068C127.769 111.708 127.603 111.293 127.603 110.794Z" fill="#231F20"/>
<path d="M97 128.92C97.0143 131.163 106.639 133.255 116 133.195C124.868 133.138 133.5 131.047 133.5 128.92" stroke="black"/>
<path d="M97 116.42C97.0143 118.663 106.639 120.755 116 120.695C124.868 120.638 133.5 118.547 133.5 116.42" stroke="black"/>
<path d="M102.5 111.42C102.528 115.788 128 115.792 128 111.42" stroke="black"/>
<mask id="path-9-inside-2_1233_2887" fill="white">
<path fill-rule="evenodd" clip-rule="evenodd" d="M115.319 122.92H110.197C109.186 122.92 108.369 123.737 108.369 124.747V128.901C108.369 129.912 109.186 130.728 110.197 130.728H115.319H120.442C121.452 130.728 122.269 129.912 122.269 128.901V124.747C122.269 123.737 121.452 122.92 120.442 122.92H115.319Z"/>
</mask>
<path fill-rule="evenodd" clip-rule="evenodd" d="M115.319 122.92H110.197C109.186 122.92 108.369 123.737 108.369 124.747V128.901C108.369 129.912 109.186 130.728 110.197 130.728H115.319H120.442C121.452 130.728 122.269 129.912 122.269 128.901V124.747C122.269 123.737 121.452 122.92 120.442 122.92H115.319Z" fill="#6D6E70" stroke="black" stroke-width="2" mask="url(#path-9-inside-2_1233_2887)"/>
<path d="M107.35 49.7438C107.35 49.7438 107.839 45.0818 108.219 44.251C108.599 43.4202 111.085 42.9109 111.085 42.9109L108.899 44.7202L107.35 49.7438Z" fill="white"/>
<path d="M123.134 49.7438C123.134 49.7438 122.646 45.0818 122.265 44.251C121.885 43.4202 119.4 42.9109 119.4 42.9109L121.585 44.7202L123.134 49.7438Z" fill="white"/>
<rect x="102.35" y="123.571" width="1.7" height="4.3" rx="0.65" fill="black" stroke="black" stroke-width="0.3"/>
<rect x="102.301" y="123.721" width="1.4" height="4" rx="0.5" fill="#9E3E63"/>
<path fill-rule="evenodd" clip-rule="evenodd" d="M102.677 124.427H103.059C103.215 124.427 103.345 124.491 103.345 124.568V127.216C103.345 127.292 103.215 127.356 103.059 127.356H102.677C102.521 127.356 102.391 127.292 102.391 127.216V124.571C102.391 124.491 102.521 124.427 102.677 124.427Z" fill="#F39DB1"/>
<path d="M103.026 124.529C103.114 124.529 103.185 124.461 103.185 124.377C103.185 124.293 103.114 124.226 103.026 124.226C102.938 124.226 102.867 124.293 102.867 124.377C102.867 124.461 102.938 124.529 103.026 124.529Z" fill="white"/>
<path d="M102.549 126.979V125.673C102.549 125.559 102.75 125.377 103.069 125.197C103.103 125.175 103.142 125.154 103.185 125.134C103.145 125.155 103.106 125.176 103.069 125.197C102.825 125.355 102.793 125.573 102.812 125.673L102.812 126.979C102.793 127.079 102.921 127.205 103.35 127.276C103 127.276 102.549 127.093 102.549 126.979Z" fill="white"/>
<rect x="126.35" y="123.571" width="1.7" height="4.3" rx="0.65" fill="black" stroke="black" stroke-width="0.3"/>
<rect x="126.699" y="123.721" width="1.4" height="4" rx="0.5" fill="#9E3E63"/>
<path fill-rule="evenodd" clip-rule="evenodd" d="M127.075 124.427H127.457C127.613 124.427 127.743 124.491 127.743 124.568V127.216C127.743 127.292 127.613 127.356 127.457 127.356H127.075C126.919 127.356 126.789 127.292 126.789 127.216V124.571C126.789 124.491 126.919 124.427 127.075 124.427Z" fill="#F39DB1"/>
<path d="M127.425 124.529C127.513 124.529 127.584 124.461 127.584 124.377C127.584 124.293 127.513 124.226 127.425 124.226C127.337 124.226 127.266 124.293 127.266 124.377C127.266 124.461 127.337 124.529 127.425 124.529Z" fill="white"/>
<path d="M126.947 126.979V125.673C126.947 125.559 127.149 125.377 127.467 125.197C127.502 125.175 127.54 125.154 127.584 125.134C127.543 125.155 127.504 125.176 127.467 125.197C127.224 125.355 127.192 125.573 127.21 125.673L127.21 126.979C127.192 127.079 127.319 127.205 127.749 127.276C127.399 127.276 126.947 127.093 126.947 126.979Z" fill="white"/>
<mask id="path-22-outside-3_1233_2887" maskUnits="userSpaceOnUse" x="108.5" y="57.4199" width="14" height="41" fill="black">
<rect fill="white" x="108.5" y="57.4199" width="14" height="41"/>
<path fill-rule="evenodd" clip-rule="evenodd" d="M111.065 67.3913C111.992 61.978 113.391 58.4199 115.315 58.4199C117.239 58.4199 118.638 61.9642 119.565 67.3913C120.618 73.5522 121.13 82.219 121.13 90.7612C121.13 91.8688 120.244 93.4332 119.025 94.6515C117.932 95.7453 116.547 96.5898 115.315 96.5898C114.069 96.5898 112.698 95.7591 111.605 94.6515C110.386 93.4332 109.5 91.8688 109.5 90.7612C109.486 82.2051 109.999 73.5522 111.065 67.3913Z"/>
</mask>
<path fill-rule="evenodd" clip-rule="evenodd" d="M111.065 67.3913C111.992 61.978 113.391 58.4199 115.315 58.4199C117.239 58.4199 118.638 61.9642 119.565 67.3913C120.618 73.5522 121.13 82.219 121.13 90.7612C121.13 91.8688 120.244 93.4332 119.025 94.6515C117.932 95.7453 116.547 96.5898 115.315 96.5898C114.069 96.5898 112.698 95.7591 111.605 94.6515C110.386 93.4332 109.5 91.8688 109.5 90.7612C109.486 82.2051 109.999 73.5522 111.065 67.3913Z" fill="#AA3964"/>
<path fill-rule="evenodd" clip-rule="evenodd" d="M111.065 67.3913C111.992 61.978 113.391 58.4199 115.315 58.4199C117.239 58.4199 118.638 61.9642 119.565 67.3913C120.618 73.5522 121.13 82.219 121.13 90.7612C121.13 91.8688 120.244 93.4332 119.025 94.6515C117.932 95.7453 116.547 96.5898 115.315 96.5898C114.069 96.5898 112.698 95.7591 111.605 94.6515C110.386 93.4332 109.5 91.8688 109.5 90.7612C109.486 82.2051 109.999 73.5522 111.065 67.3913Z" stroke="black" stroke-width="2" mask="url(#path-22-outside-3_1233_2887)"/>
<path fill-rule="evenodd" clip-rule="evenodd" d="M115.319 65.9395C114.004 65.9395 113.672 66.5486 113.049 68.8192C111.872 73.0972 111.18 80.7533 112.329 85.5159C112.869 87.7864 113.519 88.3956 115.333 88.3956C117.133 88.3956 117.783 87.8002 118.337 85.5159C119.473 80.7533 118.78 73.0972 117.617 68.8192C116.967 66.5486 116.634 65.9395 115.319 65.9395Z" fill="#DB5C87"/>
<path d="M115 59.6201C113.345 59.6201 112.143 62.9204 111.345 67.9414C110.429 73.6558 109.988 81.6818 110 89.6178C110 90.1954 110.241 90.907 110.638 91.6201C109.986 88.3737 110.784 75.3357 111.72 70.2868C112.58 65.6491 114.336 60.6845 115 59.6201Z" fill="white"/>
<mask id="path-25-outside-4_1233_2887" maskUnits="userSpaceOnUse" x="106.701" y="90.4199" width="17" height="14" fill="black">
<rect fill="white" x="106.701" y="90.4199" width="17" height="14"/>
<path fill-rule="evenodd" clip-rule="evenodd" d="M115.273 93.3793C117.05 93.3793 119.444 93.4096 120.989 92.5159C121.391 92.2887 121.901 92.5765 121.839 93.0309C121.53 95.0909 120.958 97.1207 120.526 99.1655C120.047 101.407 117.297 102.104 115.273 102.104C113.249 102.104 110.53 101.407 110.02 99.1807C109.572 97.1812 109.016 95.0455 108.707 93.0309C108.645 92.6068 109.108 92.2735 109.51 92.4856C111.086 93.3793 113.496 93.3793 115.273 93.3793Z"/>
</mask>
<path fill-rule="evenodd" clip-rule="evenodd" d="M115.273 93.3793C117.05 93.3793 119.444 93.4096 120.989 92.5159C121.391 92.2887 121.901 92.5765 121.839 93.0309C121.53 95.0909 120.958 97.1207 120.526 99.1655C120.047 101.407 117.297 102.104 115.273 102.104C113.249 102.104 110.53 101.407 110.02 99.1807C109.572 97.1812 109.016 95.0455 108.707 93.0309C108.645 92.6068 109.108 92.2735 109.51 92.4856C111.086 93.3793 113.496 93.3793 115.273 93.3793Z" fill="#6D6E70"/>
<path fill-rule="evenodd" clip-rule="evenodd" d="M115.273 93.3793C117.05 93.3793 119.444 93.4096 120.989 92.5159C121.391 92.2887 121.901 92.5765 121.839 93.0309C121.53 95.0909 120.958 97.1207 120.526 99.1655C120.047 101.407 117.297 102.104 115.273 102.104C113.249 102.104 110.53 101.407 110.02 99.1807C109.572 97.1812 109.016 95.0455 108.707 93.0309C108.645 92.6068 109.108 92.2735 109.51 92.4856C111.086 93.3793 113.496 93.3793 115.273 93.3793Z" stroke="black" stroke-width="2.97443" mask="url(#path-25-outside-4_1233_2887)"/>
<path d="M120.988 92.5159C119.443 93.4096 117.048 93.3793 115.271 93.3793V102.104C117.295 102.104 120.045 101.407 120.524 99.1656C120.957 97.1207 121.529 95.091 121.838 93.0309C121.899 92.5765 121.39 92.2887 120.988 92.5159Z" fill="#404041"/>
<path d="M108.707 93.0309C109.016 95.0455 109.572 97.1812 110.02 99.1807L109.51 93.4575L111.122 93.1116L109.51 92.4856C109.108 92.2735 108.645 92.6068 108.707 93.0309Z" fill="#BBBDBF"/>
<path d="M121.836 93.0309C121.527 95.0455 120.971 97.1812 120.523 99.1807L121.033 93.4575L119.421 93.1116L121.033 92.4856C121.435 92.2735 121.898 92.6068 121.836 93.0309Z" fill="#BBBDBF"/>
<path d="M119.422 93.8037C117.957 93.9605 116.454 94.2691 115.172 94.2691C113.951 94.2691 112.528 93.9489 111.121 93.8037C111.121 93.8037 113.513 95.1626 115.172 95.1868C116.905 95.2121 119.422 93.8037 119.422 93.8037Z" fill="white"/>
<path d="M107.605 89.8049C107.605 89.8049 107.603 89.7222 107.602 89.5639C107.6 89.7769 107.599 90.1374 107.601 90.6259L106.865 91.4202C106.856 90.8214 106.85 90.2126 106.848 89.5936C106.848 89.648 106.847 89.7025 106.847 89.7571L106.847 90.34C106.847 90.1447 106.847 89.9504 106.847 89.7571L106.847 89.4389C106.847 89.2288 106.847 89.0174 106.847 88.8049L106.847 89.4389C106.847 89.4906 106.848 89.5421 106.848 89.5936C106.904 71.001 110.509 61.5253 110.509 61.5253C107.586 73.2461 107.587 87.546 107.602 89.5639C107.603 89.4168 107.605 89.34 107.605 89.34L107.605 89.8049Z" fill="white"/>
<path d="M123.02 89.8049C123.02 89.8049 123.022 89.7222 123.023 89.5639C123.025 89.7769 123.026 90.1374 123.024 90.6259L123.76 91.4202C123.769 90.8214 123.775 90.2126 123.777 89.5936C123.777 89.648 123.778 89.7025 123.778 89.7571L123.778 90.34C123.778 90.1447 123.778 89.9504 123.778 89.7571L123.778 89.4389C123.778 89.2288 123.778 89.0174 123.778 88.8049L123.778 89.4389C123.778 89.4906 123.777 89.5421 123.777 89.5936C123.721 71.001 120.116 61.5253 120.116 61.5253C123.039 73.2461 123.038 87.546 123.023 89.5639C123.022 89.4168 123.02 89.34 123.02 89.34L123.02 89.8049Z" fill="white"/>
<path d="M119.674 88.4953C119.499 89.5677 118.996 90.3762 118.55 90.3037C118.104 90.2313 117.884 89.3037 118.062 88.2313C118.239 87.1588 118.742 86.3504 119.185 86.4252C119.629 86.5 119.851 87.4252 119.674 88.4953Z" fill="white"/>
<path d="M112.15 87.3301C112.624 87.3301 113.008 86.9117 113.008 86.3955C113.008 85.8794 112.624 85.4609 112.15 85.4609C111.677 85.4609 111.293 85.8794 111.293 86.3955C111.293 86.9117 111.677 87.3301 112.15 87.3301Z" fill="white"/>
<path d="M113.601 89.5519C113.876 89.5519 114.099 89.3291 114.099 89.0543C114.099 88.7794 113.876 88.5566 113.601 88.5566C113.326 88.5566 113.104 88.7794 113.104 89.0543C113.104 89.3291 113.326 89.5519 113.601 89.5519Z" fill="white"/>
<path d="M118.722 70.479C119.086 73.0013 119.015 75.0984 118.566 75.1623C118.117 75.2263 117.462 73.2346 117.101 70.7128C116.739 68.191 116.806 66.093 117.257 66.0295C117.708 65.9659 118.358 67.9568 118.722 70.479Z" fill="white"/>
<path d="M119.507 78.4051C119.467 79.4908 119.071 80.3584 118.62 80.3413C118.169 80.3242 117.838 79.4333 117.873 78.3467C117.908 77.2602 118.309 76.3958 118.76 76.4129C119.21 76.43 119.546 77.3217 119.507 78.4051Z" fill="white"/>
<path d="M115.969 60.3385C115.969 60.3385 117.07 62.5223 116.269 65.9787C116.269 65.9787 114.78 63.7608 115.969 60.3385Z" fill="white"/>

    </svg>
