
    <svg width="230" height="230" viewBox="0 0 230 230" fill="none" xmlns="http://www.w3.org/2000/svg">
        
<path fill-rule="evenodd" clip-rule="evenodd" d="M62.8849 72.5518H66.6147C67.3025 72.5518 67.8668 73.1073 67.858 73.795L67.4876 109.885H62.8761C62.1883 109.885 61.6328 109.33 61.6328 108.642V73.795C61.6416 73.1073 62.206 72.5518 62.8849 72.5518Z" fill="#6D6E70"/>
<path d="M61.7577 78.1738L67.6406 78.1738L67.6406 75.8676L61.7577 75.8676L61.7577 78.1738Z" fill="#404041"/>
<path d="M61.7369 78.1738L67.6621 78.1738L67.6621 75.8676L61.7369 75.8676L61.7369 78.1738Z" stroke="black" stroke-width="0.429643"/>
<path d="M66.9117 78.0801L67.2266 78.0801L67.2266 76.2219L66.9117 76.2219L66.9117 78.0801Z" fill="black"/>
<path d="M66.2319 78.0801L66.5469 78.0801L66.5469 76.2219L66.2319 76.2219L66.2319 78.0801Z" fill="black"/>
<path d="M62.8491 78.0801L63.1641 78.0801L63.1641 76.2219L62.8491 76.2219L62.8491 78.0801Z" fill="black"/>
<path d="M62.1714 78.0801L62.4863 78.0801L62.4863 76.2219L62.1714 76.2219L62.1714 78.0801Z" fill="black"/>
<path d="M61.71 76.0581L62.8052 76.0581L67.6882 76.0581L68.1113 75.57L67.4371 71.9998L62.8052 71.9998L61.961 71.9998L61.2874 75.57L61.71 76.0581Z" fill="#6D6E70"/>
<path d="M61.7096 76.0581L62.7718 76.0581L62.3492 75.57L63.0234 71.9998L61.9607 71.9998L61.287 75.57L61.7096 76.0581Z" fill="white"/>
<path d="M66.2721 76.0581L67.6882 76.0581L68.1113 75.57L67.4371 71.9998L66.021 71.9998L66.6952 75.57L66.2721 76.0581Z" fill="#404041"/>
<path d="M61.71 76.0581L62.8052 76.0581L67.6882 76.0581L68.1113 75.57L67.4371 71.9998L62.8052 71.9998L61.961 71.9998L61.2874 75.57L61.71 76.0581Z" stroke="black" stroke-width="0.811667"/>
<path d="M61.432 74.8716L67.9648 74.8716L67.9648 74.1541L61.432 74.1541L61.432 74.8716Z" fill="black"/>
<path d="M61.2707 79.4902L68.125 79.4902L68.125 79.0032L61.2707 79.0032L61.2707 79.4902Z" fill="white"/>
<path d="M61.1991 113.662L68.1973 113.662L68.1973 77.6598L61.1991 77.6598L61.1991 113.662Z" fill="#6D6E70"/>
<path d="M61.1988 113.662L63.5078 113.662L63.5078 77.6598L61.1988 77.6598L61.1988 113.662Z" fill="white"/>
<path d="M68.1973 113.662L68.1973 77.6593L65.5999 77.6593L65.5999 113.662L68.1973 113.662Z" fill="#404041"/>
<path d="M61.1991 113.662L68.1973 113.662L68.1973 77.6598L61.1991 77.6598L61.1991 113.662Z" stroke="black" stroke-width="0.811667"/>
<path d="M61.2707 79.1655L68.125 79.1655L68.125 78.6785L61.2707 78.6785L61.2707 79.1655Z" fill="black"/>
<mask id="path-19-outside-1_1233_2887" maskUnits="userSpaceOnUse" x="58.3125" y="97.6016" width="49" height="56" fill="black">
<rect fill="white" x="58.3125" y="97.6016" width="49" height="56"/>
<path fill-rule="evenodd" clip-rule="evenodd" d="M70.433 119.86L75.0005 130L104.851 138.137V142.108C104.851 143.396 104.242 144.517 103.148 145.209L94.1628 150.886C93.5537 151.273 92.9445 151.453 92.2384 151.453C82.6994 151.453 73.1604 151.453 63.6352 151.453C61.8077 151.453 60.3125 149.958 60.3125 148.13V100.602L69.4777 105.655C69.4777 109.573 69.4777 113.477 69.4777 117.395C69.4777 118.35 69.7961 119.167 70.433 119.86Z"/>
</mask>
<path fill-rule="evenodd" clip-rule="evenodd" d="M70.433 119.86L75.0005 130L104.851 138.137V142.108C104.851 143.396 104.242 144.517 103.148 145.209L94.1628 150.886C93.5537 151.273 92.9445 151.453 92.2384 151.453C82.6994 151.453 73.1604 151.453 63.6352 151.453C61.8077 151.453 60.3125 149.958 60.3125 148.13V100.602L69.4777 105.655C69.4777 109.573 69.4777 113.477 69.4777 117.395C69.4777 118.35 69.7961 119.167 70.433 119.86Z" fill="#6D6E70"/>
<path fill-rule="evenodd" clip-rule="evenodd" d="M70.433 119.86L75.0005 130L104.851 138.137V142.108C104.851 143.396 104.242 144.517 103.148 145.209L94.1628 150.886C93.5537 151.273 92.9445 151.453 92.2384 151.453C82.6994 151.453 73.1604 151.453 63.6352 151.453C61.8077 151.453 60.3125 149.958 60.3125 148.13V100.602L69.4777 105.655C69.4777 109.573 69.4777 113.477 69.4777 117.395C69.4777 118.35 69.7961 119.167 70.433 119.86Z" stroke="black" stroke-width="3" mask="url(#path-19-outside-1_1233_2887)"/>
<path d="M69.3564 118L69.3008 142.035L71.3008 119.793L69.3564 118Z" fill="black"/>
<path d="M105 144L70 138L64.5 103.5L60 101V153.5L97.5 156L105 144Z" fill="#404041"/>
<path d="M61.4645 141.629L71.2876 151.452L61.7876 140.164V101.586L60 100.6V138.093C60 139.419 60.5268 140.691 61.4645 141.629Z" fill="white"/>
<path fill-rule="evenodd" clip-rule="evenodd" d="M47.2853 86.5518H51.0151C51.7029 86.5518 52.2672 87.1073 52.2584 87.795L51.888 123.885H47.2765C46.5887 123.885 46.0332 123.33 46.0332 122.642V87.795C46.042 87.1073 46.6063 86.5518 47.2853 86.5518Z" fill="#6D6E70"/>
<path d="M46.1581 92.1738L52.041 92.1738L52.041 89.8676L46.1581 89.8676L46.1581 92.1738Z" fill="#404041"/>
<path d="M46.1373 92.1738L52.0625 92.1738L52.0625 89.8676L46.1373 89.8676L46.1373 92.1738Z" stroke="black" stroke-width="0.429643"/>
<path d="M51.3121 92.0801L51.627 92.0801L51.627 90.2219L51.3121 90.2219L51.3121 92.0801Z" fill="black"/>
<path d="M50.6323 92.0801L50.9473 92.0801L50.9473 90.2219L50.6323 90.2219L50.6323 92.0801Z" fill="black"/>
<path d="M47.2495 92.0801L47.5645 92.0801L47.5645 90.2219L47.2495 90.2219L47.2495 92.0801Z" fill="black"/>
<path d="M46.5718 92.0801L46.8867 92.0801L46.8867 90.2219L46.5718 90.2219L46.5718 92.0801Z" fill="black"/>
<path d="M46.1104 90.0581L47.2056 90.0581L52.0886 90.0581L52.5117 89.57L51.8375 85.9998L47.2056 85.9998L46.3614 85.9998L45.6877 89.57L46.1104 90.0581Z" fill="#6D6E70"/>
<path d="M46.11 90.0581L47.1722 90.0581L46.7496 89.57L47.4238 85.9998L46.3611 85.9998L45.6874 89.57L46.11 90.0581Z" fill="white"/>
<path d="M50.6725 90.0581L52.0886 90.0581L52.5117 89.57L51.8375 85.9998L50.4214 85.9998L51.0956 89.57L50.6725 90.0581Z" fill="#404041"/>
<path d="M46.1104 90.0581L47.2056 90.0581L52.0886 90.0581L52.5117 89.57L51.8375 85.9998L47.2056 85.9998L46.3614 85.9998L45.6877 89.57L46.1104 90.0581Z" stroke="black" stroke-width="0.811667"/>
<path d="M45.8324 88.8716L52.3652 88.8716L52.3652 88.1541L45.8324 88.1541L45.8324 88.8716Z" fill="black"/>
<path d="M45.6711 93.4902L52.5254 93.4902L52.5254 93.0032L45.6711 93.0032L45.6711 93.4902Z" fill="white"/>
<path d="M45.5995 127.662L52.5977 127.662L52.5977 91.6598L45.5995 91.6598L45.5995 127.662Z" fill="#6D6E70"/>
<path d="M45.5992 127.662L47.9082 127.662L47.9082 91.6598L45.5992 91.6598L45.5992 127.662Z" fill="white"/>
<path d="M52.5977 127.662L52.5977 91.6593L50.0003 91.6593L50.0003 127.662L52.5977 127.662Z" fill="#404041"/>
<path d="M45.5995 127.662L52.5977 127.662L52.5977 91.6598L45.5995 91.6598L45.5995 127.662Z" stroke="black" stroke-width="0.811667"/>
<path d="M45.6711 93.1655L52.5254 93.1655L52.5254 92.6785L45.6711 92.6785L45.6711 93.1655Z" fill="black"/>
<mask id="path-41-outside-2_1233_2887" maskUnits="userSpaceOnUse" x="42.7129" y="111.602" width="78" height="56" fill="black">
<rect fill="white" x="42.7129" y="111.602" width="78" height="56"/>
<path d="M66.1722 146.278L54.8334 133.86C54.1965 133.167 53.8781 132.35 53.8781 131.395V119.655L44.7129 114.602V152.095C44.7129 153.421 45.2397 154.692 46.1774 155.63L54.2834 163.736C55.3676 164.82 56.8678 165.35 58.3906 165.171C67.3815 164.114 98.9969 160.453 105.639 160.453C106.345 160.453 106.954 160.273 107.563 159.886L116.548 154.209C117.642 153.517 118.251 152.396 118.251 151.108V142.137L66.1722 146.278Z"/>
</mask>
<path d="M66.1722 146.278L54.8334 133.86C54.1965 133.167 53.8781 132.35 53.8781 131.395V119.655L44.7129 114.602V152.095C44.7129 153.421 45.2397 154.692 46.1774 155.63L54.2834 163.736C55.3676 164.82 56.8678 165.35 58.3906 165.171C67.3815 164.114 98.9969 160.453 105.639 160.453C106.345 160.453 106.954 160.273 107.563 159.886L116.548 154.209C117.642 153.517 118.251 152.396 118.251 151.108V142.137L66.1722 146.278Z" fill="#6D6E70"/>
<path d="M66.1722 146.278L54.8334 133.86C54.1965 133.167 53.8781 132.35 53.8781 131.395V119.655L44.7129 114.602V152.095C44.7129 153.421 45.2397 154.692 46.1774 155.63L54.2834 163.736C55.3676 164.82 56.8678 165.35 58.3906 165.171C67.3815 164.114 98.9969 160.453 105.639 160.453C106.345 160.453 106.954 160.273 107.563 159.886L116.548 154.209C117.642 153.517 118.251 152.396 118.251 151.108V142.137L66.1722 146.278Z" stroke="black" stroke-width="3" mask="url(#path-41-outside-2_1233_2887)"/>
<path d="M118.25 142.136L66.1709 146.278L95.4991 161.152C100.105 160.729 103.813 160.453 105.637 160.453C106.344 160.453 106.953 160.273 107.562 159.885L116.547 154.209C117.641 153.517 118.25 152.395 118.25 151.108V142.136Z" fill="#404041"/>
<path d="M46.1774 155.63L56.0005 165.453L46.5005 154.166V115.587L44.7129 114.602V152.095C44.7129 153.421 45.2397 154.692 46.1774 155.63Z" fill="white"/>
<path d="M53.8564 131L53.8008 155.035L55.8008 132.793L53.8564 131Z" fill="black"/>
<path d="M44.0996 141.84C44.0996 141.84 47.3516 139.368 47.3516 137.254V127.271C47.3516 124.8 44.1321 123.206 44.1321 123.206L44.0996 141.84Z" fill="#404041"/>
<path d="M43.4285 123C43.4285 123 41 124.604 41 126.858V137.699C41 139.52 43.7746 141.644 43.7746 141.644L45.7699 136.441V127.252L43.4285 123Z" fill="#F39DB1"/>
<path d="M44.4692 124.889V133.84L42.4738 139.043C41.9448 138.622 41.4518 138.159 41 137.656V137.699C41 139.52 43.7746 141.644 43.7746 141.644L45.7699 136.441V127.253L44.4692 124.889Z" fill="#9E3E63"/>
<path d="M43.4285 123C43.4285 123 41 124.604 41 126.858V137.699C41 139.52 43.7746 141.644 43.7746 141.644C43.7746 141.644 45.7699 137.644 45.7699 136.441V127.252C45.7699 125.71 43.4285 123 43.4285 123Z" stroke="black"/>
<path d="M42.2583 132.929C42.2583 132.929 41.1526 125.602 43.2339 124.777C43.2339 124.781 42.3012 131.086 42.2583 132.929Z" fill="white"/>
<path d="M59.6328 125C59.6328 125 62.3946 122.901 62.3946 121.106V112.627C62.3946 110.528 59.6604 109.175 59.6604 109.175L59.6328 125Z" fill="#404041"/>
<path d="M59.0625 109C59.0625 109 57 110.362 57 112.277V121.483C57 123.03 59.3564 124.834 59.3564 124.834L61.051 120.415V112.611L59.0625 109Z" fill="#F39DB1"/>
<path d="M59.9463 110.604V118.206L58.2517 122.625C57.8024 122.268 57.3837 121.874 57 121.447V121.484C57 123.03 59.3564 124.834 59.3564 124.834L61.051 120.415V112.612L59.9463 110.604Z" fill="#9E3E63"/>
<path d="M59.0625 109C59.0625 109 57 110.362 57 112.277V121.483C57 123.03 59.3564 124.834 59.3564 124.834C59.3564 124.834 61.051 121.437 61.051 120.415V112.611C61.051 111.301 59.0625 109 59.0625 109Z" stroke="black"/>
<path d="M58.0676 117.433C58.0676 117.433 57.1285 111.21 58.8961 110.509C58.8961 110.513 58.104 115.867 58.0676 117.433Z" fill="white"/>
<path fill-rule="evenodd" clip-rule="evenodd" d="M167.67 72.5518H163.94C163.252 72.5518 162.688 73.1073 162.697 73.795L163.067 109.885H167.679C168.366 109.885 168.922 109.33 168.922 108.642V73.795C168.913 73.1073 168.349 72.5518 167.67 72.5518Z" fill="#6D6E70"/>
<path d="M168.797 78.1738L162.914 78.1738L162.914 75.8676L168.797 75.8676L168.797 78.1738Z" fill="#404041"/>
<path d="M168.818 78.1738L162.893 78.1738L162.893 75.8676L168.818 75.8676L168.818 78.1738Z" stroke="black" stroke-width="0.429643"/>
<path d="M163.643 78.0801L163.328 78.0801L163.328 76.2219L163.643 76.2219L163.643 78.0801Z" fill="black"/>
<path d="M164.323 78.0801L164.008 78.0801L164.008 76.2219L164.323 76.2219L164.323 78.0801Z" fill="black"/>
<path d="M167.706 78.0801L167.391 78.0801L167.391 76.2219L167.706 76.2219L167.706 78.0801Z" fill="black"/>
<path d="M168.383 78.0801L168.068 78.0801L168.068 76.2219L168.383 76.2219L168.383 78.0801Z" fill="black"/>
<path d="M168.845 76.0581L167.749 76.0581L162.867 76.0581L162.443 75.57L163.118 71.9998L167.749 71.9998L168.594 71.9998L169.267 75.57L168.845 76.0581Z" fill="#6D6E70"/>
<path d="M168.845 76.0581L167.783 76.0581L168.206 75.57L167.531 71.9998L168.594 71.9998L169.268 75.57L168.845 76.0581Z" fill="white"/>
<path d="M164.283 76.0581L162.867 76.0581L162.443 75.57L163.118 71.9998L164.534 71.9998L163.859 75.57L164.283 76.0581Z" fill="#404041"/>
<path d="M168.845 76.0581L167.749 76.0581L162.867 76.0581L162.443 75.57L163.118 71.9998L167.749 71.9998L168.594 71.9998L169.267 75.57L168.845 76.0581Z" stroke="black" stroke-width="0.811667"/>
<path d="M169.123 74.8716L162.59 74.8716L162.59 74.1541L169.123 74.1541L169.123 74.8716Z" fill="black"/>
<path d="M169.284 79.4902L162.43 79.4902L162.43 79.0032L169.284 79.0032L169.284 79.4902Z" fill="white"/>
<path d="M169.356 113.662L162.357 113.662L162.357 77.6598L169.356 77.6598L169.356 113.662Z" fill="#6D6E70"/>
<path d="M169.356 113.662L167.047 113.662L167.047 77.6598L169.356 77.6598L169.356 113.662Z" fill="white"/>
<path d="M162.357 113.662L162.357 77.6593L164.955 77.6593L164.955 113.662L162.357 113.662Z" fill="#404041"/>
<path d="M169.356 113.662L162.357 113.662L162.357 77.6598L169.356 77.6598L169.356 113.662Z" stroke="black" stroke-width="0.811667"/>
<path d="M169.284 79.1655L162.43 79.1655L162.43 78.6785L169.284 78.6785L169.284 79.1655Z" fill="black"/>
<mask id="path-73-outside-3_1233_2887" maskUnits="userSpaceOnUse" x="123.242" y="97.6016" width="49" height="56" fill="black">
<rect fill="white" x="123.242" y="97.6016" width="49" height="56"/>
<path fill-rule="evenodd" clip-rule="evenodd" d="M160.122 119.86L155.554 130L125.704 138.137V142.108C125.704 143.396 126.313 144.517 127.407 145.209L136.392 150.886C137.001 151.273 137.61 151.453 138.316 151.453C147.855 151.453 157.394 151.453 166.919 151.453C168.747 151.453 170.242 149.958 170.242 148.13V100.602L161.077 105.655C161.077 109.573 161.077 113.477 161.077 117.395C161.077 118.35 160.759 119.167 160.122 119.86Z"/>
</mask>
<path fill-rule="evenodd" clip-rule="evenodd" d="M160.122 119.86L155.554 130L125.704 138.137V142.108C125.704 143.396 126.313 144.517 127.407 145.209L136.392 150.886C137.001 151.273 137.61 151.453 138.316 151.453C147.855 151.453 157.394 151.453 166.919 151.453C168.747 151.453 170.242 149.958 170.242 148.13V100.602L161.077 105.655C161.077 109.573 161.077 113.477 161.077 117.395C161.077 118.35 160.759 119.167 160.122 119.86Z" fill="#6D6E70"/>
<path fill-rule="evenodd" clip-rule="evenodd" d="M160.122 119.86L155.554 130L125.704 138.137V142.108C125.704 143.396 126.313 144.517 127.407 145.209L136.392 150.886C137.001 151.273 137.61 151.453 138.316 151.453C147.855 151.453 157.394 151.453 166.919 151.453C168.747 151.453 170.242 149.958 170.242 148.13V100.602L161.077 105.655C161.077 109.573 161.077 113.477 161.077 117.395C161.077 118.35 160.759 119.167 160.122 119.86Z" stroke="black" stroke-width="3" mask="url(#path-73-outside-3_1233_2887)"/>
<path d="M161.198 118L161.254 142.035L159.254 119.793L161.198 118Z" fill="black"/>
<path d="M125.555 144L160.555 138L166.055 103.5L170.555 101V153.5L133.055 156L125.555 144Z" fill="#404041"/>
<path d="M169.09 141.629L159.267 151.452L168.767 140.164V101.586L170.555 100.6V138.093C170.555 139.419 170.028 140.691 169.09 141.629Z" fill="white"/>
<path fill-rule="evenodd" clip-rule="evenodd" d="M183.269 86.5518H179.54C178.852 86.5518 178.288 87.1073 178.296 87.795L178.667 123.885H183.278C183.966 123.885 184.521 123.33 184.521 122.642V87.795C184.513 87.1073 183.948 86.5518 183.269 86.5518Z" fill="#6D6E70"/>
<path d="M184.397 92.1738L178.514 92.1738L178.514 89.8676L184.397 89.8676L184.397 92.1738Z" fill="#404041"/>
<path d="M184.417 92.1738L178.492 92.1738L178.492 89.8676L184.417 89.8676L184.417 92.1738Z" stroke="black" stroke-width="0.429643"/>
<path d="M179.243 92.0801L178.928 92.0801L178.928 90.2219L179.243 90.2219L179.243 92.0801Z" fill="black"/>
<path d="M179.922 92.0801L179.607 92.0801L179.607 90.2219L179.922 90.2219L179.922 92.0801Z" fill="black"/>
<path d="M183.305 92.0801L182.99 92.0801L182.99 90.2219L183.305 90.2219L183.305 92.0801Z" fill="black"/>
<path d="M183.983 92.0801L183.668 92.0801L183.668 90.2219L183.983 90.2219L183.983 92.0801Z" fill="black"/>
<path d="M184.444 90.0581L183.349 90.0581L178.466 90.0581L178.043 89.57L178.717 85.9998L183.349 85.9998L184.193 85.9998L184.867 89.57L184.444 90.0581Z" fill="#6D6E70"/>
<path d="M184.445 90.0581L183.382 90.0581L183.805 89.57L183.131 85.9998L184.194 85.9998L184.867 89.57L184.445 90.0581Z" fill="white"/>
<path d="M179.882 90.0581L178.466 90.0581L178.043 89.57L178.717 85.9998L180.133 85.9998L179.459 89.57L179.882 90.0581Z" fill="#404041"/>
<path d="M184.444 90.0581L183.349 90.0581L178.466 90.0581L178.043 89.57L178.717 85.9998L183.349 85.9998L184.193 85.9998L184.867 89.57L184.444 90.0581Z" stroke="black" stroke-width="0.811667"/>
<path d="M184.722 88.8716L178.189 88.8716L178.189 88.1541L184.722 88.1541L184.722 88.8716Z" fill="black"/>
<path d="M184.884 93.4902L178.029 93.4902L178.029 93.0032L184.884 93.0032L184.884 93.4902Z" fill="white"/>
<path d="M184.955 127.662L177.957 127.662L177.957 91.6598L184.955 91.6598L184.955 127.662Z" fill="#6D6E70"/>
<path d="M184.955 127.662L182.646 127.662L182.646 91.6598L184.955 91.6598L184.955 127.662Z" fill="white"/>
<path d="M177.957 127.662L177.957 91.6593L180.554 91.6593L180.554 127.662L177.957 127.662Z" fill="#404041"/>
<path d="M184.955 127.662L177.957 127.662L177.957 91.6598L184.955 91.6598L184.955 127.662Z" stroke="black" stroke-width="0.811667"/>
<path d="M184.884 93.1655L178.029 93.1655L178.029 92.6785L184.884 92.6785L184.884 93.1655Z" fill="black"/>
<mask id="path-95-outside-4_1233_2887" maskUnits="userSpaceOnUse" x="109.842" y="111.602" width="78" height="56" fill="black">
<rect fill="white" x="109.842" y="111.602" width="78" height="56"/>
<path d="M164.382 146.278L175.721 133.86C176.358 133.167 176.677 132.35 176.677 131.395V119.655L185.842 114.602V152.095C185.842 153.421 185.315 154.692 184.377 155.63L176.271 163.736C175.187 164.82 173.687 165.35 172.164 165.171C163.173 164.114 131.558 160.453 124.916 160.453C124.21 160.453 123.601 160.273 122.991 159.886L114.006 154.209C112.913 153.517 112.303 152.396 112.303 151.108V142.137L164.382 146.278Z"/>
</mask>
<path d="M164.382 146.278L175.721 133.86C176.358 133.167 176.677 132.35 176.677 131.395V119.655L185.842 114.602V152.095C185.842 153.421 185.315 154.692 184.377 155.63L176.271 163.736C175.187 164.82 173.687 165.35 172.164 165.171C163.173 164.114 131.558 160.453 124.916 160.453C124.21 160.453 123.601 160.273 122.991 159.886L114.006 154.209C112.913 153.517 112.303 152.396 112.303 151.108V142.137L164.382 146.278Z" fill="#6D6E70"/>
<path d="M164.382 146.278L175.721 133.86C176.358 133.167 176.677 132.35 176.677 131.395V119.655L185.842 114.602V152.095C185.842 153.421 185.315 154.692 184.377 155.63L176.271 163.736C175.187 164.82 173.687 165.35 172.164 165.171C163.173 164.114 131.558 160.453 124.916 160.453C124.21 160.453 123.601 160.273 122.991 159.886L114.006 154.209C112.913 153.517 112.303 152.396 112.303 151.108V142.137L164.382 146.278Z" stroke="black" stroke-width="3" mask="url(#path-95-outside-4_1233_2887)"/>
<path d="M112.305 142.136L164.384 146.278L135.056 161.152C130.45 160.729 126.741 160.453 124.917 160.453C124.211 160.453 123.602 160.273 122.993 159.885L114.008 154.209C112.914 153.517 112.305 152.395 112.305 151.108V142.136Z" fill="#404041"/>
<path d="M184.377 155.63L174.554 165.453L184.054 154.166V115.587L185.842 114.602V152.095C185.842 153.421 185.315 154.692 184.377 155.63Z" fill="white"/>
<path d="M176.698 131L176.754 155.035L174.754 132.793L176.698 131Z" fill="black"/>
<path d="M186.455 141.84C186.455 141.84 183.203 139.368 183.203 137.254V127.271C183.203 124.8 186.423 123.206 186.423 123.206L186.455 141.84Z" fill="#404041"/>
<path d="M187.126 123C187.126 123 189.555 124.604 189.555 126.858V137.699C189.555 139.52 186.78 141.644 186.78 141.644L184.785 136.441V127.252L187.126 123Z" fill="#F39DB1"/>
<path d="M186.086 124.889V133.84L188.081 139.043C188.61 138.622 189.103 138.159 189.555 137.656V137.699C189.555 139.52 186.78 141.644 186.78 141.644L184.785 136.441V127.253L186.086 124.889Z" fill="#9E3E63"/>
<path d="M187.126 123C187.126 123 189.555 124.604 189.555 126.858V137.699C189.555 139.52 186.78 141.644 186.78 141.644C186.78 141.644 184.785 137.644 184.785 136.441V127.252C184.785 125.71 187.126 123 187.126 123Z" stroke="black"/>
<path d="M188.296 132.929C188.296 132.929 189.402 125.602 187.321 124.777C187.321 124.781 188.253 131.086 188.296 132.929Z" fill="white"/>
<path d="M170.922 125C170.922 125 168.16 122.901 168.16 121.106V112.627C168.16 110.528 170.894 109.175 170.894 109.175L170.922 125Z" fill="#404041"/>
<path d="M171.492 109C171.492 109 173.555 110.362 173.555 112.277V121.483C173.555 123.03 171.198 124.834 171.198 124.834L169.504 120.415V112.611L171.492 109Z" fill="#F39DB1"/>
<path d="M170.608 110.604V118.206L172.303 122.625C172.752 122.268 173.171 121.874 173.555 121.447V121.484C173.555 123.03 171.198 124.834 171.198 124.834L169.504 120.415V112.612L170.608 110.604Z" fill="#9E3E63"/>
<path d="M171.492 109C171.492 109 173.555 110.362 173.555 112.277V121.483C173.555 123.03 171.198 124.834 171.198 124.834C171.198 124.834 169.504 121.437 169.504 120.415V112.611C169.504 111.301 171.492 109 171.492 109Z" stroke="black"/>
<path d="M172.487 117.433C172.487 117.433 173.426 111.21 171.659 110.509C171.659 110.513 172.451 115.867 172.487 117.433Z" fill="white"/>

        
<mask id="path-1-outside-1_1233_2887" maskUnits="userSpaceOnUse" x="83.3574" y="125" width="26" height="31" fill="black">
<rect fill="white" x="83.3574" y="125" width="26" height="31"/>
<path fill-rule="evenodd" clip-rule="evenodd" d="M86.3574 154.274H95.5088L106.28 127H97.1148L86.3574 154.274Z"/>
</mask>
<path fill-rule="evenodd" clip-rule="evenodd" d="M86.3574 154.274H95.5088L106.28 127H97.1148L86.3574 154.274Z" fill="#6D6E70"/>
<path fill-rule="evenodd" clip-rule="evenodd" d="M86.3574 154.274H95.5088L106.28 127H97.1148L86.3574 154.274Z" stroke="black" stroke-width="3" mask="url(#path-1-outside-1_1233_2887)"/>
<path d="M86.3574 154.274L97.1148 127H97.6748L89.1748 154.274H86.3574Z" fill="white"/>
<mask id="path-3-outside-2_1233_2887" maskUnits="userSpaceOnUse" x="43" y="147.847" width="60" height="36" fill="black">
<rect fill="white" x="43" y="147.847" width="60" height="36"/>
<path fill-rule="evenodd" clip-rule="evenodd" d="M98.375 149.941L82.7858 154.939C82.329 155.091 81.9828 155.368 81.7475 155.797L73.5929 170.486C73.2053 171.192 72.43 171.552 71.627 171.4L47.3157 166.541C44.8929 166.056 44.0899 170.209 46.2773 170.902L82.5089 182.213C83.3535 182.476 84.2395 182.116 84.6549 181.354L100.549 152.599C101.338 151.118 99.9533 149.429 98.375 149.941Z"/>
</mask>
<path fill-rule="evenodd" clip-rule="evenodd" d="M98.375 149.941L82.7858 154.939C82.329 155.091 81.9828 155.368 81.7475 155.797L73.5929 170.486C73.2053 171.192 72.43 171.552 71.627 171.4L47.3157 166.541C44.8929 166.056 44.0899 170.209 46.2773 170.902L82.5089 182.213C83.3535 182.476 84.2395 182.116 84.6549 181.354L100.549 152.599C101.338 151.118 99.9533 149.429 98.375 149.941Z" fill="#6D6E70"/>
<path fill-rule="evenodd" clip-rule="evenodd" d="M98.375 149.941L82.7858 154.939C82.329 155.091 81.9828 155.368 81.7475 155.797L73.5929 170.486C73.2053 171.192 72.43 171.552 71.627 171.4L47.3157 166.541C44.8929 166.056 44.0899 170.209 46.2773 170.902L82.5089 182.213C83.3535 182.476 84.2395 182.116 84.6549 181.354L100.549 152.599C101.338 151.118 99.9533 149.429 98.375 149.941Z" stroke="black" stroke-width="3" mask="url(#path-3-outside-2_1233_2887)"/>
<path d="M82.7858 154.939L98.3749 149.941C93.8016 151.893 84.681 155.739 83.1858 156.706C81.6906 157.674 76.767 165.076 74.6921 168.506L81.7474 155.797C81.9828 155.368 82.3289 155.091 82.7858 154.939Z" fill="white"/>
<path d="M47.3157 166.541L70.4656 171.168C68.1753 171.007 52.6748 168.507 47.1748 167.626C45.5561 167.842 45.3867 169.079 46.2773 170.902C44.0899 170.21 44.8929 166.056 47.3157 166.541Z" fill="white"/>
<path d="M100.549 152.599L84.6557 181.354L94.1756 151.287L98.3758 149.941C99.9541 149.429 101.339 151.118 100.549 152.599Z" fill="#404041"/>
<path d="M75.6758 165.392L81.5095 167.213C82.354 167.476 83.24 167.116 83.6554 166.354L91.8622 151.506" stroke="black"/>
<mask id="path-8-inside-3_1233_2887" fill="white">
<path fill-rule="evenodd" clip-rule="evenodd" d="M89.0272 162.172L90.5834 159.286C90.8239 158.867 91.3282 158.983 91.5427 159.37L92.7549 161.557C92.9041 161.826 92.943 162.233 92.7998 162.511L91.2473 165.383C91.0162 165.819 90.4997 165.721 90.2759 165.317L89.0636 163.13C88.9144 162.861 88.8756 162.454 89.0272 162.172Z"/>
</mask>
<path fill-rule="evenodd" clip-rule="evenodd" d="M89.0272 162.172L90.5834 159.286C90.8239 158.867 91.3282 158.983 91.5427 159.37L92.7549 161.557C92.9041 161.826 92.943 162.233 92.7998 162.511L91.2473 165.383C91.0162 165.819 90.4997 165.721 90.2759 165.317L89.0636 163.13C88.9144 162.861 88.8756 162.454 89.0272 162.172Z" fill="#9E3E63" stroke="black" stroke-width="0.691728" mask="url(#path-8-inside-3_1233_2887)"/>
<path fill-rule="evenodd" clip-rule="evenodd" d="M89.3253 162.394L90.2643 160.653C90.4094 160.4 90.7137 160.47 90.8431 160.704L91.5745 162.023C91.6645 162.185 91.688 162.431 91.6016 162.599L90.6649 164.332C90.5254 164.595 90.2138 164.536 90.0787 164.292L89.3473 162.972C89.2573 162.81 89.2338 162.564 89.3253 162.394Z" fill="#F39DB1"/>
<path d="M89.5941 162.358C89.4921 162.548 89.5183 162.822 89.6187 163.003L90.0266 163.739L89.8226 162.571L90.1177 161.387L89.5941 162.358Z" fill="white"/>
<mask id="path-11-inside-4_1233_2887" fill="white">
<path fill-rule="evenodd" clip-rule="evenodd" d="M86.4295 166.871L87.9857 163.985C88.2262 163.566 88.7305 163.682 88.945 164.069L90.1573 166.256C90.3065 166.525 90.3453 166.932 90.2021 167.21L88.6497 170.083C88.4185 170.519 87.902 170.42 87.6782 170.016L86.466 167.829C86.3168 167.56 86.2779 167.153 86.4295 166.871Z"/>
</mask>
<path fill-rule="evenodd" clip-rule="evenodd" d="M86.4295 166.871L87.9857 163.985C88.2262 163.566 88.7305 163.682 88.945 164.069L90.1573 166.256C90.3065 166.525 90.3453 166.932 90.2021 167.21L88.6497 170.083C88.4185 170.519 87.902 170.42 87.6782 170.016L86.466 167.829C86.3168 167.56 86.2779 167.153 86.4295 166.871Z" fill="#9E3E63" stroke="black" stroke-width="0.691728" mask="url(#path-11-inside-4_1233_2887)"/>
<path fill-rule="evenodd" clip-rule="evenodd" d="M86.7276 167.093L87.6666 165.352C87.8117 165.099 88.116 165.169 88.2454 165.403L88.9769 166.722C89.0669 166.885 89.0903 167.13 89.0039 167.298L88.0672 169.031C87.9277 169.294 87.6161 169.235 87.4811 168.991L86.7496 167.672C86.6596 167.509 86.6362 167.263 86.7276 167.093Z" fill="#F39DB1"/>
<path d="M86.9965 167.057C86.8945 167.247 86.9206 167.521 87.021 167.702L87.4289 168.438L87.225 167.27L87.5201 166.086L86.9965 167.057Z" fill="white"/>
<mask id="path-14-inside-5_1233_2887" fill="white">
<path fill-rule="evenodd" clip-rule="evenodd" d="M91.6248 157.473L93.181 154.587C93.4215 154.168 93.9258 154.284 94.1403 154.671L95.3526 156.858C95.5018 157.127 95.5406 157.535 95.3975 157.812L93.845 160.685C93.6138 161.121 93.0974 161.022 92.8736 160.618L91.6613 158.431C91.5121 158.162 91.4732 157.755 91.6248 157.473Z"/>
</mask>
<path fill-rule="evenodd" clip-rule="evenodd" d="M91.6248 157.473L93.181 154.587C93.4215 154.168 93.9258 154.284 94.1403 154.671L95.3526 156.858C95.5018 157.127 95.5406 157.535 95.3975 157.812L93.845 160.685C93.6138 161.121 93.0974 161.022 92.8736 160.618L91.6613 158.431C91.5121 158.162 91.4732 157.755 91.6248 157.473Z" fill="#9E3E63" stroke="black" stroke-width="0.691728" mask="url(#path-14-inside-5_1233_2887)"/>
<path fill-rule="evenodd" clip-rule="evenodd" d="M91.9229 157.695L92.8619 155.954C93.007 155.701 93.3113 155.771 93.4407 156.005L94.1722 157.324C94.2622 157.487 94.2856 157.733 94.1992 157.9L93.2625 159.633C93.1231 159.896 92.8114 159.837 92.6764 159.593L91.9449 158.274C91.8549 158.111 91.8315 157.865 91.9229 157.695Z" fill="#F39DB1"/>
<path d="M92.1918 157.659C92.0898 157.849 92.1159 158.123 92.2163 158.304L92.6242 159.04L92.4203 157.872L92.7154 156.688L92.1918 157.659Z" fill="white"/>
<path d="M71.5801 171.361L83.3714 173.681L72.6455 170.577L71.5801 171.361Z" fill="black"/>
<mask id="path-18-outside-6_1233_2887" maskUnits="userSpaceOnUse" x="120.623" y="125" width="26" height="31" fill="black">
<rect fill="white" x="120.623" y="125" width="26" height="31"/>
<path fill-rule="evenodd" clip-rule="evenodd" d="M143.623 154.274H134.472L123.7 127H132.866L143.623 154.274Z"/>
</mask>
<path fill-rule="evenodd" clip-rule="evenodd" d="M143.623 154.274H134.472L123.7 127H132.866L143.623 154.274Z" fill="#6D6E70"/>
<path fill-rule="evenodd" clip-rule="evenodd" d="M143.623 154.274H134.472L123.7 127H132.866L143.623 154.274Z" stroke="black" stroke-width="3" mask="url(#path-18-outside-6_1233_2887)"/>
<path d="M143.623 154.274L132.866 127H132.306L140.806 154.274H143.623Z" fill="white"/>
<mask id="path-20-outside-7_1233_2887" maskUnits="userSpaceOnUse" x="126.98" y="147.847" width="60" height="36" fill="black">
<rect fill="white" x="126.98" y="147.847" width="60" height="36"/>
<path fill-rule="evenodd" clip-rule="evenodd" d="M131.605 149.941L147.195 154.939C147.652 155.091 147.998 155.368 148.233 155.797L156.388 170.486C156.775 171.192 157.55 171.552 158.353 171.4L182.665 166.541C185.088 166.056 185.891 170.209 183.703 170.902L147.472 182.213C146.627 182.476 145.741 182.116 145.326 181.354L129.432 152.599C128.643 151.118 130.027 149.429 131.605 149.941Z"/>
</mask>
<path fill-rule="evenodd" clip-rule="evenodd" d="M131.605 149.941L147.195 154.939C147.652 155.091 147.998 155.368 148.233 155.797L156.388 170.486C156.775 171.192 157.55 171.552 158.353 171.4L182.665 166.541C185.088 166.056 185.891 170.209 183.703 170.902L147.472 182.213C146.627 182.476 145.741 182.116 145.326 181.354L129.432 152.599C128.643 151.118 130.027 149.429 131.605 149.941Z" fill="#6D6E70"/>
<path fill-rule="evenodd" clip-rule="evenodd" d="M131.605 149.941L147.195 154.939C147.652 155.091 147.998 155.368 148.233 155.797L156.388 170.486C156.775 171.192 157.55 171.552 158.353 171.4L182.665 166.541C185.088 166.056 185.891 170.209 183.703 170.902L147.472 182.213C146.627 182.476 145.741 182.116 145.326 181.354L129.432 152.599C128.643 151.118 130.027 149.429 131.605 149.941Z" stroke="black" stroke-width="3" mask="url(#path-20-outside-7_1233_2887)"/>
<path d="M147.195 154.939L131.606 149.941C136.179 151.893 145.299 155.739 146.795 156.706C148.29 157.674 153.213 165.076 155.288 168.506L148.233 155.797C147.998 155.368 147.652 155.091 147.195 154.939Z" fill="white"/>
<path d="M182.665 166.541L159.515 171.168C161.805 171.007 177.306 168.507 182.806 167.626C184.424 167.842 184.594 169.079 183.703 170.902C185.891 170.21 185.088 166.056 182.665 166.541Z" fill="white"/>
<path d="M129.431 152.599L145.325 181.354L135.805 151.287L131.605 149.941C130.026 149.429 128.642 151.118 129.431 152.599Z" fill="#404041"/>
<path d="M154.305 165.392L148.471 167.213C147.626 167.476 146.74 167.116 146.325 166.354L138.118 151.506" stroke="black"/>
<mask id="path-25-inside-8_1233_2887" fill="white">
<path fill-rule="evenodd" clip-rule="evenodd" d="M140.953 162.172L139.397 159.286C139.157 158.867 138.652 158.983 138.438 159.37L137.226 161.557C137.076 161.826 137.037 162.233 137.181 162.511L138.733 165.383C138.964 165.819 139.481 165.721 139.705 165.317L140.917 163.13C141.066 162.861 141.105 162.454 140.953 162.172Z"/>
</mask>
<path fill-rule="evenodd" clip-rule="evenodd" d="M140.953 162.172L139.397 159.286C139.157 158.867 138.652 158.983 138.438 159.37L137.226 161.557C137.076 161.826 137.037 162.233 137.181 162.511L138.733 165.383C138.964 165.819 139.481 165.721 139.705 165.317L140.917 163.13C141.066 162.861 141.105 162.454 140.953 162.172Z" fill="#9E3E63" stroke="black" stroke-width="0.691728" mask="url(#path-25-inside-8_1233_2887)"/>
<path fill-rule="evenodd" clip-rule="evenodd" d="M140.655 162.394L139.716 160.653C139.571 160.4 139.267 160.47 139.137 160.704L138.406 162.023C138.316 162.185 138.292 162.431 138.379 162.599L139.316 164.332C139.455 164.595 139.767 164.536 139.902 164.292L140.633 162.972C140.723 162.81 140.747 162.564 140.655 162.394Z" fill="#F39DB1"/>
<path d="M140.386 162.358C140.488 162.548 140.462 162.822 140.362 163.003L139.954 163.739L140.158 162.571L139.863 161.387L140.386 162.358Z" fill="white"/>
<mask id="path-28-inside-9_1233_2887" fill="white">
<path fill-rule="evenodd" clip-rule="evenodd" d="M143.551 166.871L141.995 163.985C141.754 163.566 141.25 163.682 141.035 164.069L139.823 166.256C139.674 166.525 139.635 166.932 139.778 167.21L141.331 170.083C141.562 170.519 142.078 170.42 142.302 170.016L143.515 167.829C143.664 167.56 143.703 167.153 143.551 166.871Z"/>
</mask>
<path fill-rule="evenodd" clip-rule="evenodd" d="M143.551 166.871L141.995 163.985C141.754 163.566 141.25 163.682 141.035 164.069L139.823 166.256C139.674 166.525 139.635 166.932 139.778 167.21L141.331 170.083C141.562 170.519 142.078 170.42 142.302 170.016L143.515 167.829C143.664 167.56 143.703 167.153 143.551 166.871Z" fill="#9E3E63" stroke="black" stroke-width="0.691728" mask="url(#path-28-inside-9_1233_2887)"/>
<path fill-rule="evenodd" clip-rule="evenodd" d="M143.253 167.093L142.314 165.352C142.169 165.099 141.864 165.169 141.735 165.403L141.004 166.722C140.914 166.885 140.89 167.13 140.977 167.298L141.913 169.031C142.053 169.294 142.364 169.235 142.499 168.991L143.231 167.672C143.321 167.509 143.344 167.263 143.253 167.093Z" fill="#F39DB1"/>
<path d="M142.984 167.057C143.086 167.247 143.06 167.521 142.959 167.702L142.552 168.438L142.755 167.27L142.46 166.086L142.984 167.057Z" fill="white"/>
<mask id="path-31-inside-10_1233_2887" fill="white">
<path fill-rule="evenodd" clip-rule="evenodd" d="M138.356 157.473L136.799 154.587C136.559 154.168 136.055 154.284 135.84 154.671L134.628 156.858C134.479 157.127 134.44 157.535 134.583 157.812L136.135 160.685C136.367 161.121 136.883 161.022 137.107 160.618L138.319 158.431C138.468 158.162 138.507 157.755 138.356 157.473Z"/>
</mask>
<path fill-rule="evenodd" clip-rule="evenodd" d="M138.356 157.473L136.799 154.587C136.559 154.168 136.055 154.284 135.84 154.671L134.628 156.858C134.479 157.127 134.44 157.535 134.583 157.812L136.135 160.685C136.367 161.121 136.883 161.022 137.107 160.618L138.319 158.431C138.468 158.162 138.507 157.755 138.356 157.473Z" fill="#9E3E63" stroke="black" stroke-width="0.691728" mask="url(#path-31-inside-10_1233_2887)"/>
<path fill-rule="evenodd" clip-rule="evenodd" d="M138.058 157.695L137.119 155.954C136.973 155.701 136.669 155.771 136.54 156.005L135.808 157.324C135.718 157.487 135.695 157.733 135.781 157.9L136.718 159.633C136.857 159.896 137.169 159.837 137.304 159.593L138.036 158.274C138.126 158.111 138.149 157.865 138.058 157.695Z" fill="#F39DB1"/>
<path d="M137.789 157.659C137.891 157.849 137.865 158.123 137.764 158.304L137.356 159.04L137.56 157.872L137.265 156.688L137.789 157.659Z" fill="white"/>
<path d="M158.4 171.361L146.609 173.681L157.335 170.577L158.4 171.361Z" fill="black"/>

        
<mask id="path-1-outside-1_1233_2887" maskUnits="userSpaceOnUse" x="96.9004" y="172.5" width="18" height="19" fill="black">
<rect fill="white" x="96.9004" y="172.5" width="18" height="19"/>
<path d="M98.9004 174.5H113.1L106 189.681L98.9004 174.5Z"/>
</mask>
<path d="M98.9004 174.5H113.1L106 189.681L98.9004 174.5Z" fill="#6D6E70"/>
<path d="M98.9004 174.5H113.1L106 189.681L98.9004 174.5Z" stroke="black" stroke-width="2.87827" stroke-linejoin="round" mask="url(#path-1-outside-1_1233_2887)"/>
<path d="M106 189.681L98.9004 174.5H101.875L106 189.681Z" fill="#BBBDBF"/>
<path d="M106.002 189.681L113.102 174.5H110.127L106.002 189.681Z" fill="#404041"/>
<mask id="path-4-outside-2_1233_2887" maskUnits="userSpaceOnUse" x="114.801" y="172.5" width="18" height="19" fill="black">
<rect fill="white" x="114.801" y="172.5" width="18" height="19"/>
<path d="M116.801 174.5H131L123.901 189.681L116.801 174.5Z"/>
</mask>
<path d="M116.801 174.5H131L123.901 189.681L116.801 174.5Z" fill="#6D6E70"/>
<path d="M116.801 174.5H131L123.901 189.681L116.801 174.5Z" stroke="black" stroke-width="2.87827" stroke-linejoin="round" mask="url(#path-4-outside-2_1233_2887)"/>
<path d="M123.901 189.681L116.801 174.5H119.775L123.901 189.681Z" fill="#BBBDBF"/>
<path d="M123.9 189.681L131 174.5H128.026L123.9 189.681Z" fill="#404041"/>
<mask id="path-7-outside-3_1233_2887" maskUnits="userSpaceOnUse" x="96.6992" y="171" width="18" height="13" fill="black">
<rect fill="white" x="96.6992" y="171" width="18" height="13"/>
<path fill-rule="evenodd" clip-rule="evenodd" d="M98.6992 173C98.6992 175.298 98.6992 177.61 98.6992 179.908C98.6992 183.051 113.195 183.051 113.195 179.908C113.195 177.61 113.195 175.298 113.195 173H98.6992Z"/>
</mask>
<path fill-rule="evenodd" clip-rule="evenodd" d="M98.6992 173C98.6992 175.298 98.6992 177.61 98.6992 179.908C98.6992 183.051 113.195 183.051 113.195 179.908C113.195 177.61 113.195 175.298 113.195 173H98.6992Z" fill="#6D6E70"/>
<path fill-rule="evenodd" clip-rule="evenodd" d="M98.6992 173C98.6992 175.298 98.6992 177.61 98.6992 179.908C98.6992 183.051 113.195 183.051 113.195 179.908C113.195 177.61 113.195 175.298 113.195 173H98.6992Z" stroke="black" stroke-width="3" mask="url(#path-7-outside-3_1233_2887)"/>
<path d="M98.6992 179.908V173H101.524V181.821C99.8599 181.435 98.6992 180.798 98.6992 179.908Z" fill="#BBBDBF"/>
<path d="M113.324 179.908V173H110.499V181.821C112.164 181.435 113.324 180.798 113.324 179.908Z" fill="#404041"/>
<mask id="path-10-outside-4_1233_2887" maskUnits="userSpaceOnUse" x="114.602" y="171" width="18" height="13" fill="black">
<rect fill="white" x="114.602" y="171" width="18" height="13"/>
<path fill-rule="evenodd" clip-rule="evenodd" d="M116.602 173C116.602 175.298 116.602 177.61 116.602 179.908C116.602 183.051 131.097 183.051 131.097 179.908C131.097 177.61 131.097 175.298 131.097 173H116.602Z"/>
</mask>
<path fill-rule="evenodd" clip-rule="evenodd" d="M116.602 173C116.602 175.298 116.602 177.61 116.602 179.908C116.602 183.051 131.097 183.051 131.097 179.908C131.097 177.61 131.097 175.298 131.097 173H116.602Z" fill="#6D6E70"/>
<path fill-rule="evenodd" clip-rule="evenodd" d="M116.602 173C116.602 175.298 116.602 177.61 116.602 179.908C116.602 183.051 131.097 183.051 131.097 179.908C131.097 177.61 131.097 175.298 131.097 173H116.602Z" stroke="black" stroke-width="3" mask="url(#path-10-outside-4_1233_2887)"/>
<path d="M116.602 179.908V173H119.427V181.821C117.762 181.435 116.602 180.798 116.602 179.908Z" fill="#BBBDBF"/>
<path d="M131.227 179.908V173H128.401V181.821C130.066 181.435 131.227 180.798 131.227 179.908Z" fill="#404041"/>
<mask id="path-13-outside-5_1233_2887" maskUnits="userSpaceOnUse" x="94.5293" y="137" width="41" height="41" fill="black">
<rect fill="white" x="94.5293" y="137" width="41" height="41"/>
<path fill-rule="evenodd" clip-rule="evenodd" d="M101.472 145.957C100.115 146.649 98.7721 147.341 97.4154 148.033C96.8477 148.324 96.5293 148.809 96.5293 149.376C96.5293 153.045 96.5293 156.728 96.5293 160.397C96.5293 160.826 96.6954 161.186 97.0415 161.49C97.6092 161.989 98.163 162.487 98.7306 162.972C98.7306 166.184 98.7306 169.41 98.7306 172.622C98.7306 176.996 131.127 176.996 131.127 172.622C131.127 169.41 131.127 166.184 131.127 162.972C131.681 162.473 132.249 161.975 132.816 161.49C133.162 161.186 133.329 160.826 133.329 160.397C133.329 156.728 133.329 153.045 133.329 149.376C133.329 148.809 133.01 148.324 132.442 148.033C131.086 147.341 129.743 146.649 128.386 145.957C128.386 140.488 128.386 146.019 128.386 140.564C128.386 139.706 127.569 139 126.558 139C118.805 139 111.066 139 103.313 139C102.303 139 101.486 139.706 101.486 140.564C101.472 146.019 101.472 140.488 101.472 145.957Z"/>
</mask>
<path fill-rule="evenodd" clip-rule="evenodd" d="M101.472 145.957C100.115 146.649 98.7721 147.341 97.4154 148.033C96.8477 148.324 96.5293 148.809 96.5293 149.376C96.5293 153.045 96.5293 156.728 96.5293 160.397C96.5293 160.826 96.6954 161.186 97.0415 161.49C97.6092 161.989 98.163 162.487 98.7306 162.972C98.7306 166.184 98.7306 169.41 98.7306 172.622C98.7306 176.996 131.127 176.996 131.127 172.622C131.127 169.41 131.127 166.184 131.127 162.972C131.681 162.473 132.249 161.975 132.816 161.49C133.162 161.186 133.329 160.826 133.329 160.397C133.329 156.728 133.329 153.045 133.329 149.376C133.329 148.809 133.01 148.324 132.442 148.033C131.086 147.341 129.743 146.649 128.386 145.957C128.386 140.488 128.386 146.019 128.386 140.564C128.386 139.706 127.569 139 126.558 139C118.805 139 111.066 139 103.313 139C102.303 139 101.486 139.706 101.486 140.564C101.472 146.019 101.472 140.488 101.472 145.957Z" fill="#6D6E70"/>
<path fill-rule="evenodd" clip-rule="evenodd" d="M101.472 145.957C100.115 146.649 98.7721 147.341 97.4154 148.033C96.8477 148.324 96.5293 148.809 96.5293 149.376C96.5293 153.045 96.5293 156.728 96.5293 160.397C96.5293 160.826 96.6954 161.186 97.0415 161.49C97.6092 161.989 98.163 162.487 98.7306 162.972C98.7306 166.184 98.7306 169.41 98.7306 172.622C98.7306 176.996 131.127 176.996 131.127 172.622C131.127 169.41 131.127 166.184 131.127 162.972C131.681 162.473 132.249 161.975 132.816 161.49C133.162 161.186 133.329 160.826 133.329 160.397C133.329 156.728 133.329 153.045 133.329 149.376C133.329 148.809 133.01 148.324 132.442 148.033C131.086 147.341 129.743 146.649 128.386 145.957C128.386 140.488 128.386 146.019 128.386 140.564C128.386 139.706 127.569 139 126.558 139C118.805 139 111.066 139 103.313 139C102.303 139 101.486 139.706 101.486 140.564C101.472 146.019 101.472 140.488 101.472 145.957Z" stroke="black" stroke-width="3" mask="url(#path-13-outside-5_1233_2887)"/>
<mask id="path-14-outside-6_1233_2887" maskUnits="userSpaceOnUse" x="94.5293" y="126" width="41" height="52" fill="black">
<rect fill="white" x="94.5293" y="126" width="41" height="52"/>
<path fill-rule="evenodd" clip-rule="evenodd" d="M101.472 145.957C100.115 146.649 98.7721 147.341 97.4154 148.033C96.8477 148.324 96.5293 148.809 96.5293 149.376C96.5293 153.045 96.5293 156.728 96.5293 160.397C96.5293 160.826 96.6954 161.186 97.0415 161.49C97.6092 161.989 98.163 162.487 98.7306 162.972C98.7306 166.184 98.7306 169.41 98.7306 172.622C98.7306 176.996 131.127 176.996 131.127 172.622C131.127 169.41 131.127 166.184 131.127 162.972C131.681 162.473 132.249 161.975 132.816 161.49C133.162 161.186 133.329 160.826 133.329 160.397C133.329 156.728 133.329 153.045 133.329 149.376C133.329 148.809 133.01 148.324 132.442 148.033C131.086 147.341 129.743 146.649 128.386 145.957C128.386 140.488 128.386 135.019 128.386 129.564C128.386 128.706 127.569 128 126.558 128C118.805 128 111.066 128 103.313 128C102.303 128 101.486 128.706 101.486 129.564C101.472 135.019 101.472 140.488 101.472 145.957Z"/>
</mask>
<path fill-rule="evenodd" clip-rule="evenodd" d="M101.472 145.957C100.115 146.649 98.7721 147.341 97.4154 148.033C96.8477 148.324 96.5293 148.809 96.5293 149.376C96.5293 153.045 96.5293 156.728 96.5293 160.397C96.5293 160.826 96.6954 161.186 97.0415 161.49C97.6092 161.989 98.163 162.487 98.7306 162.972C98.7306 166.184 98.7306 169.41 98.7306 172.622C98.7306 176.996 131.127 176.996 131.127 172.622C131.127 169.41 131.127 166.184 131.127 162.972C131.681 162.473 132.249 161.975 132.816 161.49C133.162 161.186 133.329 160.826 133.329 160.397C133.329 156.728 133.329 153.045 133.329 149.376C133.329 148.809 133.01 148.324 132.442 148.033C131.086 147.341 129.743 146.649 128.386 145.957C128.386 140.488 128.386 135.019 128.386 129.564C128.386 128.706 127.569 128 126.558 128C118.805 128 111.066 128 103.313 128C102.303 128 101.486 128.706 101.486 129.564C101.472 135.019 101.472 140.488 101.472 145.957Z" fill="#6D6E70"/>
<path fill-rule="evenodd" clip-rule="evenodd" d="M101.472 145.957C100.115 146.649 98.7721 147.341 97.4154 148.033C96.8477 148.324 96.5293 148.809 96.5293 149.376C96.5293 153.045 96.5293 156.728 96.5293 160.397C96.5293 160.826 96.6954 161.186 97.0415 161.49C97.6092 161.989 98.163 162.487 98.7306 162.972C98.7306 166.184 98.7306 169.41 98.7306 172.622C98.7306 176.996 131.127 176.996 131.127 172.622C131.127 169.41 131.127 166.184 131.127 162.972C131.681 162.473 132.249 161.975 132.816 161.49C133.162 161.186 133.329 160.826 133.329 160.397C133.329 156.728 133.329 153.045 133.329 149.376C133.329 148.809 133.01 148.324 132.442 148.033C131.086 147.341 129.743 146.649 128.386 145.957C128.386 140.488 128.386 135.019 128.386 129.564C128.386 128.706 127.569 128 126.558 128C118.805 128 111.066 128 103.313 128C102.303 128 101.486 128.706 101.486 129.564C101.472 135.019 101.472 140.488 101.472 145.957Z" stroke="black" stroke-width="3" mask="url(#path-14-outside-6_1233_2887)"/>
<path d="M131.128 162.972V172.622C131.128 174.812 123.009 175.905 114.9 175.903V128H126.559C127.57 128 128.386 128.706 128.386 129.564V145.957C129.743 146.649 131.086 147.341 132.443 148.033C133.011 148.324 133.329 148.809 133.329 149.376V160.397C133.329 160.826 133.163 161.186 132.817 161.49C132.249 161.975 131.682 162.473 131.128 162.972Z" fill="#404041"/>
<path d="M126.593 168.6C126.847 166.319 128.093 167.9 127.493 164.7L115.343 165L114.9 165.01V174.964C121.901 174.6 126.34 170.881 126.593 168.6Z" fill="#231F20"/>
<path d="M103.007 168.6C102.754 166.319 101.507 167.9 102.108 164.7L114.257 165L114.9 165.01V174.964C107.9 174.6 103.261 170.881 103.007 168.6Z" fill="#404041"/>
<mask id="path-18-inside-7_1233_2887" fill="white">
<path fill-rule="evenodd" clip-rule="evenodd" d="M114.887 173.88C111.454 173.88 108.842 172.91 105.935 171.055C104.702 170.266 103.982 168.909 103.982 167.345V164.991H125.193V167.345C125.193 168.909 124.473 170.266 123.24 171.055C120.333 172.91 118.321 173.88 114.887 173.88Z"/>
</mask>
<path fill-rule="evenodd" clip-rule="evenodd" d="M114.887 173.88C111.454 173.88 108.842 172.91 105.935 171.055C104.702 170.266 103.982 168.909 103.982 167.345V164.991H125.193V167.345C125.193 168.909 124.473 170.266 123.24 171.055C120.333 172.91 118.321 173.88 114.887 173.88Z" fill="#9E3E63" stroke="black" stroke-width="2" mask="url(#path-18-inside-7_1233_2887)"/>
<path d="M108.346 170.187C110.072 171.643 112.198 172.501 114.496 172.501C116.795 172.501 118.92 171.643 120.646 170.187C121.679 169.317 121.193 167.755 119.912 167.324L115.772 165.93C114.944 165.652 114.048 165.652 113.22 165.93L109.08 167.324C107.8 167.755 107.313 169.317 108.346 170.187Z" fill="#DB5C87"/>
<path d="M112.669 172.137C112.873 172.137 113.037 171.972 113.037 171.769C113.037 171.565 112.873 171.4 112.669 171.4C112.466 171.4 112.301 171.565 112.301 171.769C112.301 171.972 112.466 172.137 112.669 172.137Z" fill="white"/>
<path d="M113.543 169.446C112.098 168.576 110.799 168.107 110.642 168.402C110.485 168.697 111.53 169.639 112.974 170.511C114.419 171.383 115.718 171.849 115.875 171.555C116.032 171.26 114.988 170.318 113.543 169.446Z" fill="white"/>
<path d="M109.702 170.991C109.713 171.114 109.759 171.231 109.836 171.329C109.912 171.426 110.015 171.499 110.132 171.538C110.249 171.578 110.375 171.583 110.495 171.552C110.614 171.521 110.722 171.456 110.806 171.365C110.889 171.274 110.944 171.161 110.964 171.039C110.984 170.917 110.968 170.792 110.918 170.679C110.869 170.566 110.787 170.47 110.683 170.402C110.58 170.335 110.459 170.299 110.335 170.299C110.16 170.307 109.994 170.385 109.876 170.514C109.757 170.644 109.695 170.815 109.702 170.991Z" fill="white"/>
<path d="M117.768 171.336C117.565 171.336 117.4 171.171 117.4 170.968C117.4 170.765 117.565 170.6 117.768 170.6C117.972 170.6 118.137 170.765 118.137 170.968C118.137 171.171 117.972 171.336 117.768 171.336Z" fill="white"/>
<mask id="path-24-outside-8_1233_2887" maskUnits="userSpaceOnUse" x="99.4004" y="163.44" width="30" height="8" fill="black">
<rect fill="white" x="99.4004" y="163.44" width="30" height="8"/>
<path d="M105.339 166.819C107.9 168.314 110.434 169.587 114.587 169.587C118.74 169.587 121.274 168.314 123.835 166.819C125.067 166.099 124.307 166.5 125.773 165.44L114.587 166.14L103.4 165.44C104.507 166.24 104.106 166.099 105.339 166.819Z"/>
</mask>
<path d="M105.339 166.819C107.9 168.314 110.434 169.587 114.587 169.587C118.74 169.587 121.274 168.314 123.835 166.819C125.067 166.099 124.307 166.5 125.773 165.44L114.587 166.14L103.4 165.44C104.507 166.24 104.106 166.099 105.339 166.819Z" fill="#6D6E70"/>
<path d="M105.339 166.819C107.9 168.314 110.434 169.587 114.587 169.587C118.74 169.587 121.274 168.314 123.835 166.819C125.067 166.099 124.307 166.5 125.773 165.44L114.587 166.14L103.4 165.44C104.507 166.24 104.106 166.099 105.339 166.819Z" stroke="black" stroke-width="2" mask="url(#path-24-outside-8_1233_2887)"/>
<path d="M123.835 166.819C125.067 166.099 124.307 166.5 125.773 165.44L114.9 166.121V169.585C118.869 169.523 121.339 168.276 123.835 166.819Z" fill="#404041"/>
<path d="M97.4154 148.033C98.7721 147.341 100.115 146.649 101.472 145.957C101.472 140.488 101.472 135.019 101.486 129.564C101.486 128.706 102.303 128 103.313 128L104 146.967L98.7306 150.467V162.972L100.5 165.467V174.219C99.3818 173.774 98.7306 173.242 98.7306 172.622V162.972C98.163 162.487 97.6092 161.989 97.0415 161.49C96.6954 161.186 96.5293 160.826 96.5293 160.397V149.376C96.5293 148.809 96.8477 148.324 97.4154 148.033Z" fill="#BBBDBF"/>
<path d="M132.485 148.033C131.128 147.341 129.785 146.649 128.429 145.957C128.429 140.488 128.429 135.019 128.415 129.564C128.415 128.706 127.598 128 126.587 128L125.901 146.967L131.17 150.467V162.972L129.401 165.467V174.219C130.519 173.774 131.17 173.242 131.17 172.622V162.972C131.737 162.487 132.291 161.989 132.859 161.49C133.205 161.186 133.371 160.826 133.371 160.397V149.376C133.371 148.809 133.053 148.324 132.485 148.033Z" fill="#231F20"/>
<path d="M97.6309 162.421C97.6309 166.796 132.227 166.796 132.227 162.421" stroke="black" stroke-width="1.5"/>
<path d="M100.631 144.867C100.631 149.242 129.227 149.242 129.227 144.867" stroke="black"/>
<path d="M96 148.466C96 150.654 105.5 152.748 115 152.748C124.5 152.748 134 150.654 134 148.466" stroke="black"/>

        
<mask id="path-1-outside-1_1233_2887" maskUnits="userSpaceOnUse" x="95.5" y="40" width="40" height="101" fill="black">
<rect fill="white" x="95.5" y="40" width="40" height="101"/>
<path d="M112.84 49.047C112.826 50.2376 112.549 52.079 115.277 52.079C118.004 52.079 117.727 50.2376 117.741 49.047V42C119.444 42 122.808 42.2907 123.113 44.492C126.602 69.4125 127.571 85.4447 127.585 110.794C127.585 111.293 127.751 111.708 128.097 112.068C129.758 113.785 131.42 115.488 133.081 117.204V129.374C131.433 131.492 129.786 133.624 128.138 135.743C128.138 140.115 102.459 140.095 102.431 135.728C100.787 133.614 99.1436 131.487 97.5 129.374V117.204C99.1614 115.488 100.823 113.785 102.484 112.068C102.83 111.708 102.996 111.293 102.996 110.794C103.01 85.4309 103.979 69.4125 107.468 44.492C107.773 42.2907 111.137 42 112.84 42V49.047Z"/>
</mask>
<path d="M112.84 49.047C112.826 50.2376 112.549 52.079 115.277 52.079C118.004 52.079 117.727 50.2376 117.741 49.047V42C119.444 42 122.808 42.2907 123.113 44.492C126.602 69.4125 127.571 85.4447 127.585 110.794C127.585 111.293 127.751 111.708 128.097 112.068C129.758 113.785 131.42 115.488 133.081 117.204V129.374C131.433 131.492 129.786 133.624 128.138 135.743C128.138 140.115 102.459 140.095 102.431 135.728C100.787 133.614 99.1436 131.487 97.5 129.374V117.204C99.1614 115.488 100.823 113.785 102.484 112.068C102.83 111.708 102.996 111.293 102.996 110.794C103.01 85.4309 103.979 69.4125 107.468 44.492C107.773 42.2907 111.137 42 112.84 42V49.047Z" fill="#6D6E70"/>
<path d="M102.431 135.728L101.681 135.732L101.683 135.987L101.839 136.188L102.431 135.728ZM101.839 136.188C101.841 136.19 101.843 136.193 101.845 136.195C101.847 136.198 101.849 136.2 101.851 136.203L103.035 135.282C103.033 135.28 103.031 135.277 103.029 135.275C103.027 135.272 103.025 135.27 103.023 135.267L101.839 136.188ZM101.681 135.72C101.681 135.725 101.681 135.729 101.681 135.732L103.181 135.723C103.181 135.722 103.181 135.721 103.181 135.72H101.681ZM112.84 49.047L114.34 49.0644L114.34 49.0557V49.047H112.84ZM112.84 42H114.34V40.5H112.84V42ZM107.468 44.492L108.954 44.7L108.954 44.6976L107.468 44.492ZM102.996 110.794L101.496 110.794V110.794H102.996ZM102.484 112.068L103.562 113.111L103.565 113.108L102.484 112.068ZM97.5 117.204L96.4221 116.161L96 116.598V117.204H97.5ZM97.5 129.374H96V129.889L96.316 130.295L97.5 129.374ZM102.431 135.728L103.931 135.718L103.928 135.209L103.615 134.807L102.431 135.728ZM128.138 135.743L126.954 134.822L126.638 135.228V135.743H128.138ZM133.081 129.374L134.265 130.295L134.581 129.889V129.374H133.081ZM133.081 117.204H134.581V116.598L134.159 116.161L133.081 117.204ZM128.097 112.068L127.016 113.108L127.019 113.111L128.097 112.068ZM127.585 110.794L129.085 110.794L129.085 110.794L127.585 110.794ZM123.113 44.492L121.627 44.6976L121.627 44.7L123.113 44.492ZM117.741 42V40.5H116.241V42H117.741ZM117.741 49.047L119.241 49.0644L119.241 49.0557V49.047H117.741ZM115.277 50.579C114.751 50.579 114.523 50.4884 114.451 50.4501C114.411 50.4285 114.412 50.4248 114.402 50.4017C114.376 50.3428 114.341 50.2142 114.33 49.9582C114.317 49.6692 114.335 49.461 114.34 49.0644L111.34 49.0295C111.338 49.2282 111.316 49.6967 111.333 50.0878C111.351 50.512 111.415 51.0669 111.659 51.6172C111.919 52.2033 112.361 52.7343 113.036 53.0952C113.679 53.4393 114.439 53.579 115.277 53.579V50.579ZM114.34 49.047V42H111.34V49.047H114.34ZM112.84 40.5C111.937 40.5 110.487 40.5732 109.174 40.9913C107.914 41.3928 106.257 42.3019 105.982 44.2865L108.954 44.6976C108.984 44.4809 109.161 44.1439 110.085 43.8498C110.956 43.5722 112.04 43.5 112.84 43.5V40.5ZM105.983 44.2841C102.483 69.2806 101.51 85.3686 101.496 110.794L104.496 110.795C104.51 85.4931 105.475 69.5445 108.954 44.7L105.983 44.2841ZM101.496 110.794C101.496 110.873 101.484 110.909 101.478 110.924C101.472 110.939 101.456 110.973 101.403 111.028L103.565 113.108C104.182 112.467 104.496 111.678 104.496 110.794H101.496ZM101.406 111.025C100.577 111.882 99.7471 112.736 98.9163 113.591C98.0857 114.446 97.254 115.302 96.4221 116.161L98.5779 118.248C99.4074 117.391 100.237 116.537 101.068 115.682C101.898 114.827 102.73 113.971 103.562 113.111L101.406 111.025ZM96 117.204V129.374H99V117.204H96ZM96.316 130.295C97.1369 131.35 97.958 132.41 98.78 133.47C99.6016 134.53 100.424 135.591 101.247 136.648L103.615 134.807C102.794 133.751 101.973 132.692 101.151 131.632C100.329 130.572 99.5067 129.511 98.684 128.453L96.316 130.295ZM129.322 136.663C130.147 135.603 130.971 134.54 131.795 133.477C132.619 132.415 133.442 131.353 134.265 130.295L131.897 128.453C131.072 129.513 130.248 130.577 129.424 131.639C128.6 132.702 127.777 133.764 126.954 134.822L129.322 136.663ZM134.581 129.374V117.204H131.581V129.374H134.581ZM134.159 116.161C133.327 115.302 132.495 114.446 131.665 113.591C130.834 112.736 130.004 111.882 129.175 111.025L127.019 113.111C127.851 113.971 128.683 114.827 129.513 115.682C130.344 116.537 131.174 117.391 132.003 118.248L134.159 116.161ZM129.178 111.028C129.125 110.973 129.109 110.939 129.103 110.924C129.097 110.909 129.085 110.873 129.085 110.794H126.085C126.085 111.678 126.399 112.467 127.016 113.108L129.178 111.028ZM129.085 110.794C129.071 85.3825 128.098 69.2806 124.598 44.2841L121.627 44.7C125.105 69.5445 126.071 85.5069 126.085 110.795L129.085 110.794ZM124.599 44.2865C124.324 42.3019 122.667 41.3928 121.406 40.9913C120.094 40.5732 118.644 40.5 117.741 40.5V43.5C118.541 43.5 119.625 43.5722 120.496 43.8498C121.419 44.1439 121.597 44.4809 121.627 44.6976L124.599 44.2865ZM116.241 42V49.047H119.241V42H116.241ZM116.241 49.0295C116.236 49.4529 116.253 49.6302 116.236 49.9411C116.222 50.2012 116.186 50.3328 116.158 50.3952C116.146 50.4219 116.145 50.4275 116.103 50.4497C116.031 50.4885 115.802 50.579 115.277 50.579V53.579C116.115 53.579 116.874 53.4392 117.517 53.0955C118.191 52.7353 118.633 52.2061 118.895 51.6237C119.14 51.0769 119.208 50.525 119.231 50.105C119.252 49.7357 119.239 49.2364 119.241 49.0644L116.241 49.0295ZM100.931 135.737C100.94 137.105 101.951 137.971 102.789 138.458C103.686 138.98 104.861 139.363 106.127 139.65C108.684 140.231 112.017 140.51 115.294 140.513C118.571 140.515 121.902 140.24 124.456 139.662C125.721 139.376 126.895 138.994 127.79 138.472C128.629 137.984 129.638 137.114 129.638 135.743H126.638C126.638 135.464 126.846 135.55 126.279 135.881C125.77 136.178 124.938 136.477 123.794 136.736C121.533 137.248 118.443 137.515 115.296 137.513C112.15 137.511 109.057 137.239 106.792 136.725C105.646 136.465 104.811 136.164 104.298 135.865C103.726 135.533 103.929 135.442 103.931 135.718L100.931 135.737Z" fill="black" mask="url(#path-1-outside-1_1233_2887)"/>
<path d="M102.996 110.794C103.01 85.4306 103.979 69.4123 107.468 44.4918C107.563 43.8064 107.954 43.3062 108.5 42.9424C107.986 52.9131 106.145 67.3289 105.477 80.4201C104.63 97.0246 104.8 113.42 104.8 113.42L98.8 117.92V130.42L102.443 135.742C100.795 133.624 99.1475 131.492 97.5 129.374V117.204C99.1614 115.487 100.823 113.785 102.484 112.068C102.83 111.708 102.996 111.293 102.996 110.794Z" fill="#BBBDBF"/>
<path d="M133.082 129.374C131.434 131.492 129.787 133.624 128.139 135.743C128.139 137.931 121.707 139.019 115.277 139.013V52.079C118.005 52.079 117.728 50.2376 117.742 49.047V42C119.445 42 122.809 42.2907 123.113 44.492C126.602 69.4125 127.571 85.4447 127.585 110.794C127.585 111.293 127.751 111.708 128.098 112.068C129.759 113.785 131.42 115.488 133.082 117.204V129.374Z" fill="#404041"/>
<path d="M127.603 110.794C127.589 85.4306 126.62 69.4123 123.131 44.4918C123.037 43.8064 122.645 43.3062 122.1 42.9424C122.614 52.9131 124.455 67.3289 125.123 80.4201C125.97 97.0246 125.8 113.42 125.8 113.42L131.8 117.92V130.42L128.157 135.742C129.805 133.624 131.452 131.492 133.1 129.374V117.204C131.438 115.487 129.777 113.785 128.116 112.068C127.769 111.708 127.603 111.293 127.603 110.794Z" fill="#231F20"/>
<path d="M97 128.92C97.0143 131.163 106.639 133.255 116 133.195C124.868 133.138 133.5 131.047 133.5 128.92" stroke="black"/>
<path d="M97 116.42C97.0143 118.663 106.639 120.755 116 120.695C124.868 120.638 133.5 118.547 133.5 116.42" stroke="black"/>
<path d="M102.5 111.42C102.528 115.788 128 115.792 128 111.42" stroke="black"/>
<mask id="path-9-inside-2_1233_2887" fill="white">
<path fill-rule="evenodd" clip-rule="evenodd" d="M115.319 122.92H110.197C109.186 122.92 108.369 123.737 108.369 124.747V128.901C108.369 129.912 109.186 130.728 110.197 130.728H115.319H120.442C121.452 130.728 122.269 129.912 122.269 128.901V124.747C122.269 123.737 121.452 122.92 120.442 122.92H115.319Z"/>
</mask>
<path fill-rule="evenodd" clip-rule="evenodd" d="M115.319 122.92H110.197C109.186 122.92 108.369 123.737 108.369 124.747V128.901C108.369 129.912 109.186 130.728 110.197 130.728H115.319H120.442C121.452 130.728 122.269 129.912 122.269 128.901V124.747C122.269 123.737 121.452 122.92 120.442 122.92H115.319Z" fill="#6D6E70" stroke="black" stroke-width="2" mask="url(#path-9-inside-2_1233_2887)"/>
<path d="M107.35 49.7438C107.35 49.7438 107.839 45.0818 108.219 44.251C108.599 43.4202 111.085 42.9109 111.085 42.9109L108.899 44.7202L107.35 49.7438Z" fill="white"/>
<path d="M123.134 49.7438C123.134 49.7438 122.646 45.0818 122.265 44.251C121.885 43.4202 119.4 42.9109 119.4 42.9109L121.585 44.7202L123.134 49.7438Z" fill="white"/>
<rect x="102.35" y="123.571" width="1.7" height="4.3" rx="0.65" fill="black" stroke="black" stroke-width="0.3"/>
<rect x="102.301" y="123.721" width="1.4" height="4" rx="0.5" fill="#9E3E63"/>
<path fill-rule="evenodd" clip-rule="evenodd" d="M102.677 124.427H103.059C103.215 124.427 103.345 124.491 103.345 124.568V127.216C103.345 127.292 103.215 127.356 103.059 127.356H102.677C102.521 127.356 102.391 127.292 102.391 127.216V124.571C102.391 124.491 102.521 124.427 102.677 124.427Z" fill="#F39DB1"/>
<path d="M103.026 124.529C103.114 124.529 103.185 124.461 103.185 124.377C103.185 124.293 103.114 124.226 103.026 124.226C102.938 124.226 102.867 124.293 102.867 124.377C102.867 124.461 102.938 124.529 103.026 124.529Z" fill="white"/>
<path d="M102.549 126.979V125.673C102.549 125.559 102.75 125.377 103.069 125.197C103.103 125.175 103.142 125.154 103.185 125.134C103.145 125.155 103.106 125.176 103.069 125.197C102.825 125.355 102.793 125.573 102.812 125.673L102.812 126.979C102.793 127.079 102.921 127.205 103.35 127.276C103 127.276 102.549 127.093 102.549 126.979Z" fill="white"/>
<rect x="126.35" y="123.571" width="1.7" height="4.3" rx="0.65" fill="black" stroke="black" stroke-width="0.3"/>
<rect x="126.699" y="123.721" width="1.4" height="4" rx="0.5" fill="#9E3E63"/>
<path fill-rule="evenodd" clip-rule="evenodd" d="M127.075 124.427H127.457C127.613 124.427 127.743 124.491 127.743 124.568V127.216C127.743 127.292 127.613 127.356 127.457 127.356H127.075C126.919 127.356 126.789 127.292 126.789 127.216V124.571C126.789 124.491 126.919 124.427 127.075 124.427Z" fill="#F39DB1"/>
<path d="M127.425 124.529C127.513 124.529 127.584 124.461 127.584 124.377C127.584 124.293 127.513 124.226 127.425 124.226C127.337 124.226 127.266 124.293 127.266 124.377C127.266 124.461 127.337 124.529 127.425 124.529Z" fill="white"/>
<path d="M126.947 126.979V125.673C126.947 125.559 127.149 125.377 127.467 125.197C127.502 125.175 127.54 125.154 127.584 125.134C127.543 125.155 127.504 125.176 127.467 125.197C127.224 125.355 127.192 125.573 127.21 125.673L127.21 126.979C127.192 127.079 127.319 127.205 127.749 127.276C127.399 127.276 126.947 127.093 126.947 126.979Z" fill="white"/>
<mask id="path-22-outside-3_1233_2887" maskUnits="userSpaceOnUse" x="108.5" y="57.4199" width="14" height="41" fill="black">
<rect fill="white" x="108.5" y="57.4199" width="14" height="41"/>
<path fill-rule="evenodd" clip-rule="evenodd" d="M111.065 67.3913C111.992 61.978 113.391 58.4199 115.315 58.4199C117.239 58.4199 118.638 61.9642 119.565 67.3913C120.618 73.5522 121.13 82.219 121.13 90.7612C121.13 91.8688 120.244 93.4332 119.025 94.6515C117.932 95.7453 116.547 96.5898 115.315 96.5898C114.069 96.5898 112.698 95.7591 111.605 94.6515C110.386 93.4332 109.5 91.8688 109.5 90.7612C109.486 82.2051 109.999 73.5522 111.065 67.3913Z"/>
</mask>
<path fill-rule="evenodd" clip-rule="evenodd" d="M111.065 67.3913C111.992 61.978 113.391 58.4199 115.315 58.4199C117.239 58.4199 118.638 61.9642 119.565 67.3913C120.618 73.5522 121.13 82.219 121.13 90.7612C121.13 91.8688 120.244 93.4332 119.025 94.6515C117.932 95.7453 116.547 96.5898 115.315 96.5898C114.069 96.5898 112.698 95.7591 111.605 94.6515C110.386 93.4332 109.5 91.8688 109.5 90.7612C109.486 82.2051 109.999 73.5522 111.065 67.3913Z" fill="#AA3964"/>
<path fill-rule="evenodd" clip-rule="evenodd" d="M111.065 67.3913C111.992 61.978 113.391 58.4199 115.315 58.4199C117.239 58.4199 118.638 61.9642 119.565 67.3913C120.618 73.5522 121.13 82.219 121.13 90.7612C121.13 91.8688 120.244 93.4332 119.025 94.6515C117.932 95.7453 116.547 96.5898 115.315 96.5898C114.069 96.5898 112.698 95.7591 111.605 94.6515C110.386 93.4332 109.5 91.8688 109.5 90.7612C109.486 82.2051 109.999 73.5522 111.065 67.3913Z" stroke="black" stroke-width="2" mask="url(#path-22-outside-3_1233_2887)"/>
<path fill-rule="evenodd" clip-rule="evenodd" d="M115.319 65.9395C114.004 65.9395 113.672 66.5486 113.049 68.8192C111.872 73.0972 111.18 80.7533 112.329 85.5159C112.869 87.7864 113.519 88.3956 115.333 88.3956C117.133 88.3956 117.783 87.8002 118.337 85.5159C119.473 80.7533 118.78 73.0972 117.617 68.8192C116.967 66.5486 116.634 65.9395 115.319 65.9395Z" fill="#DB5C87"/>
<path d="M115 59.6201C113.345 59.6201 112.143 62.9204 111.345 67.9414C110.429 73.6558 109.988 81.6818 110 89.6178C110 90.1954 110.241 90.907 110.638 91.6201C109.986 88.3737 110.784 75.3357 111.72 70.2868C112.58 65.6491 114.336 60.6845 115 59.6201Z" fill="white"/>
<mask id="path-25-outside-4_1233_2887" maskUnits="userSpaceOnUse" x="106.701" y="90.4199" width="17" height="14" fill="black">
<rect fill="white" x="106.701" y="90.4199" width="17" height="14"/>
<path fill-rule="evenodd" clip-rule="evenodd" d="M115.273 93.3793C117.05 93.3793 119.444 93.4096 120.989 92.5159C121.391 92.2887 121.901 92.5765 121.839 93.0309C121.53 95.0909 120.958 97.1207 120.526 99.1655C120.047 101.407 117.297 102.104 115.273 102.104C113.249 102.104 110.53 101.407 110.02 99.1807C109.572 97.1812 109.016 95.0455 108.707 93.0309C108.645 92.6068 109.108 92.2735 109.51 92.4856C111.086 93.3793 113.496 93.3793 115.273 93.3793Z"/>
</mask>
<path fill-rule="evenodd" clip-rule="evenodd" d="M115.273 93.3793C117.05 93.3793 119.444 93.4096 120.989 92.5159C121.391 92.2887 121.901 92.5765 121.839 93.0309C121.53 95.0909 120.958 97.1207 120.526 99.1655C120.047 101.407 117.297 102.104 115.273 102.104C113.249 102.104 110.53 101.407 110.02 99.1807C109.572 97.1812 109.016 95.0455 108.707 93.0309C108.645 92.6068 109.108 92.2735 109.51 92.4856C111.086 93.3793 113.496 93.3793 115.273 93.3793Z" fill="#6D6E70"/>
<path fill-rule="evenodd" clip-rule="evenodd" d="M115.273 93.3793C117.05 93.3793 119.444 93.4096 120.989 92.5159C121.391 92.2887 121.901 92.5765 121.839 93.0309C121.53 95.0909 120.958 97.1207 120.526 99.1655C120.047 101.407 117.297 102.104 115.273 102.104C113.249 102.104 110.53 101.407 110.02 99.1807C109.572 97.1812 109.016 95.0455 108.707 93.0309C108.645 92.6068 109.108 92.2735 109.51 92.4856C111.086 93.3793 113.496 93.3793 115.273 93.3793Z" stroke="black" stroke-width="2.97443" mask="url(#path-25-outside-4_1233_2887)"/>
<path d="M120.988 92.5159C119.443 93.4096 117.048 93.3793 115.271 93.3793V102.104C117.295 102.104 120.045 101.407 120.524 99.1656C120.957 97.1207 121.529 95.091 121.838 93.0309C121.899 92.5765 121.39 92.2887 120.988 92.5159Z" fill="#404041"/>
<path d="M108.707 93.0309C109.016 95.0455 109.572 97.1812 110.02 99.1807L109.51 93.4575L111.122 93.1116L109.51 92.4856C109.108 92.2735 108.645 92.6068 108.707 93.0309Z" fill="#BBBDBF"/>
<path d="M121.836 93.0309C121.527 95.0455 120.971 97.1812 120.523 99.1807L121.033 93.4575L119.421 93.1116L121.033 92.4856C121.435 92.2735 121.898 92.6068 121.836 93.0309Z" fill="#BBBDBF"/>
<path d="M119.422 93.8037C117.957 93.9605 116.454 94.2691 115.172 94.2691C113.951 94.2691 112.528 93.9489 111.121 93.8037C111.121 93.8037 113.513 95.1626 115.172 95.1868C116.905 95.2121 119.422 93.8037 119.422 93.8037Z" fill="white"/>
<path d="M107.605 89.8049C107.605 89.8049 107.603 89.7222 107.602 89.5639C107.6 89.7769 107.599 90.1374 107.601 90.6259L106.865 91.4202C106.856 90.8214 106.85 90.2126 106.848 89.5936C106.848 89.648 106.847 89.7025 106.847 89.7571L106.847 90.34C106.847 90.1447 106.847 89.9504 106.847 89.7571L106.847 89.4389C106.847 89.2288 106.847 89.0174 106.847 88.8049L106.847 89.4389C106.847 89.4906 106.848 89.5421 106.848 89.5936C106.904 71.001 110.509 61.5253 110.509 61.5253C107.586 73.2461 107.587 87.546 107.602 89.5639C107.603 89.4168 107.605 89.34 107.605 89.34L107.605 89.8049Z" fill="white"/>
<path d="M123.02 89.8049C123.02 89.8049 123.022 89.7222 123.023 89.5639C123.025 89.7769 123.026 90.1374 123.024 90.6259L123.76 91.4202C123.769 90.8214 123.775 90.2126 123.777 89.5936C123.777 89.648 123.778 89.7025 123.778 89.7571L123.778 90.34C123.778 90.1447 123.778 89.9504 123.778 89.7571L123.778 89.4389C123.778 89.2288 123.778 89.0174 123.778 88.8049L123.778 89.4389C123.778 89.4906 123.777 89.5421 123.777 89.5936C123.721 71.001 120.116 61.5253 120.116 61.5253C123.039 73.2461 123.038 87.546 123.023 89.5639C123.022 89.4168 123.02 89.34 123.02 89.34L123.02 89.8049Z" fill="white"/>
<path d="M119.674 88.4953C119.499 89.5677 118.996 90.3762 118.55 90.3037C118.104 90.2313 117.884 89.3037 118.062 88.2313C118.239 87.1588 118.742 86.3504 119.185 86.4252C119.629 86.5 119.851 87.4252 119.674 88.4953Z" fill="white"/>
<path d="M112.15 87.3301C112.624 87.3301 113.008 86.9117 113.008 86.3955C113.008 85.8794 112.624 85.4609 112.15 85.4609C111.677 85.4609 111.293 85.8794 111.293 86.3955C111.293 86.9117 111.677 87.3301 112.15 87.3301Z" fill="white"/>
<path d="M113.601 89.5519C113.876 89.5519 114.099 89.3291 114.099 89.0543C114.099 88.7794 113.876 88.5566 113.601 88.5566C113.326 88.5566 113.104 88.7794 113.104 89.0543C113.104 89.3291 113.326 89.5519 113.601 89.5519Z" fill="white"/>
<path d="M118.722 70.479C119.086 73.0013 119.015 75.0984 118.566 75.1623C118.117 75.2263 117.462 73.2346 117.101 70.7128C116.739 68.191 116.806 66.093 117.257 66.0295C117.708 65.9659 118.358 67.9568 118.722 70.479Z" fill="white"/>
<path d="M119.507 78.4051C119.467 79.4908 119.071 80.3584 118.62 80.3413C118.169 80.3242 117.838 79.4333 117.873 78.3467C117.908 77.2602 118.309 76.3958 118.76 76.4129C119.21 76.43 119.546 77.3217 119.507 78.4051Z" fill="white"/>
<path d="M115.969 60.3385C115.969 60.3385 117.07 62.5223 116.269 65.9787C116.269 65.9787 114.78 63.7608 115.969 60.3385Z" fill="white"/>

    </svg>
