
    <svg width="230" height="230" viewBox="0 0 230 230" fill="none" xmlns="http://www.w3.org/2000/svg">
        
<path fill-rule="evenodd" clip-rule="evenodd" d="M62.8849 72.5518H66.6147C67.3025 72.5518 67.8668 73.1073 67.858 73.795L67.4876 109.885H62.8761C62.1883 109.885 61.6328 109.33 61.6328 108.642V73.795C61.6416 73.1073 62.206 72.5518 62.8849 72.5518Z" fill="#6D6E70"/>
<path d="M61.7577 78.1738L67.6406 78.1738L67.6406 75.8676L61.7577 75.8676L61.7577 78.1738Z" fill="#404041"/>
<path d="M61.7369 78.1738L67.6621 78.1738L67.6621 75.8676L61.7369 75.8676L61.7369 78.1738Z" stroke="black" stroke-width="0.429643"/>
<path d="M66.9117 78.0801L67.2266 78.0801L67.2266 76.2219L66.9117 76.2219L66.9117 78.0801Z" fill="black"/>
<path d="M66.2319 78.0801L66.5469 78.0801L66.5469 76.2219L66.2319 76.2219L66.2319 78.0801Z" fill="black"/>
<path d="M62.8491 78.0801L63.1641 78.0801L63.1641 76.2219L62.8491 76.2219L62.8491 78.0801Z" fill="black"/>
<path d="M62.1714 78.0801L62.4863 78.0801L62.4863 76.2219L62.1714 76.2219L62.1714 78.0801Z" fill="black"/>
<path d="M61.71 76.0581L62.8052 76.0581L67.6882 76.0581L68.1113 75.57L67.4371 71.9998L62.8052 71.9998L61.961 71.9998L61.2874 75.57L61.71 76.0581Z" fill="#6D6E70"/>
<path d="M61.7096 76.0581L62.7718 76.0581L62.3492 75.57L63.0234 71.9998L61.9607 71.9998L61.287 75.57L61.7096 76.0581Z" fill="white"/>
<path d="M66.2721 76.0581L67.6882 76.0581L68.1113 75.57L67.4371 71.9998L66.021 71.9998L66.6952 75.57L66.2721 76.0581Z" fill="#404041"/>
<path d="M61.71 76.0581L62.8052 76.0581L67.6882 76.0581L68.1113 75.57L67.4371 71.9998L62.8052 71.9998L61.961 71.9998L61.2874 75.57L61.71 76.0581Z" stroke="black" stroke-width="0.811667"/>
<path d="M61.432 74.8716L67.9648 74.8716L67.9648 74.1541L61.432 74.1541L61.432 74.8716Z" fill="black"/>
<path d="M61.2707 79.4902L68.125 79.4902L68.125 79.0032L61.2707 79.0032L61.2707 79.4902Z" fill="white"/>
<path d="M61.1991 113.662L68.1973 113.662L68.1973 77.6598L61.1991 77.6598L61.1991 113.662Z" fill="#6D6E70"/>
<path d="M61.1988 113.662L63.5078 113.662L63.5078 77.6598L61.1988 77.6598L61.1988 113.662Z" fill="white"/>
<path d="M68.1973 113.662L68.1973 77.6593L65.5999 77.6593L65.5999 113.662L68.1973 113.662Z" fill="#404041"/>
<path d="M61.1991 113.662L68.1973 113.662L68.1973 77.6598L61.1991 77.6598L61.1991 113.662Z" stroke="black" stroke-width="0.811667"/>
<path d="M61.2707 79.1655L68.125 79.1655L68.125 78.6785L61.2707 78.6785L61.2707 79.1655Z" fill="black"/>
<mask id="path-19-outside-1_1233_2887" maskUnits="userSpaceOnUse" x="58.3125" y="97.6016" width="49" height="56" fill="black">
<rect fill="white" x="58.3125" y="97.6016" width="49" height="56"/>
<path fill-rule="evenodd" clip-rule="evenodd" d="M70.433 119.86L75.0005 130L104.851 138.137V142.108C104.851 143.396 104.242 144.517 103.148 145.209L94.1628 150.886C93.5537 151.273 92.9445 151.453 92.2384 151.453C82.6994 151.453 73.1604 151.453 63.6352 151.453C61.8077 151.453 60.3125 149.958 60.3125 148.13V100.602L69.4777 105.655C69.4777 109.573 69.4777 113.477 69.4777 117.395C69.4777 118.35 69.7961 119.167 70.433 119.86Z"/>
</mask>
<path fill-rule="evenodd" clip-rule="evenodd" d="M70.433 119.86L75.0005 130L104.851 138.137V142.108C104.851 143.396 104.242 144.517 103.148 145.209L94.1628 150.886C93.5537 151.273 92.9445 151.453 92.2384 151.453C82.6994 151.453 73.1604 151.453 63.6352 151.453C61.8077 151.453 60.3125 149.958 60.3125 148.13V100.602L69.4777 105.655C69.4777 109.573 69.4777 113.477 69.4777 117.395C69.4777 118.35 69.7961 119.167 70.433 119.86Z" fill="#6D6E70"/>
<path fill-rule="evenodd" clip-rule="evenodd" d="M70.433 119.86L75.0005 130L104.851 138.137V142.108C104.851 143.396 104.242 144.517 103.148 145.209L94.1628 150.886C93.5537 151.273 92.9445 151.453 92.2384 151.453C82.6994 151.453 73.1604 151.453 63.6352 151.453C61.8077 151.453 60.3125 149.958 60.3125 148.13V100.602L69.4777 105.655C69.4777 109.573 69.4777 113.477 69.4777 117.395C69.4777 118.35 69.7961 119.167 70.433 119.86Z" stroke="black" stroke-width="3" mask="url(#path-19-outside-1_1233_2887)"/>
<path d="M69.3564 118L69.3008 142.035L71.3008 119.793L69.3564 118Z" fill="black"/>
<path d="M105 144L70 138L64.5 103.5L60 101V153.5L97.5 156L105 144Z" fill="#404041"/>
<path d="M61.4645 141.629L71.2876 151.452L61.7876 140.164V101.586L60 100.6V138.093C60 139.419 60.5268 140.691 61.4645 141.629Z" fill="white"/>
<path fill-rule="evenodd" clip-rule="evenodd" d="M47.2853 86.5518H51.0151C51.7029 86.5518 52.2672 87.1073 52.2584 87.795L51.888 123.885H47.2765C46.5887 123.885 46.0332 123.33 46.0332 122.642V87.795C46.042 87.1073 46.6063 86.5518 47.2853 86.5518Z" fill="#6D6E70"/>
<path d="M46.1581 92.1738L52.041 92.1738L52.041 89.8676L46.1581 89.8676L46.1581 92.1738Z" fill="#404041"/>
<path d="M46.1373 92.1738L52.0625 92.1738L52.0625 89.8676L46.1373 89.8676L46.1373 92.1738Z" stroke="black" stroke-width="0.429643"/>
<path d="M51.3121 92.0801L51.627 92.0801L51.627 90.2219L51.3121 90.2219L51.3121 92.0801Z" fill="black"/>
<path d="M50.6323 92.0801L50.9473 92.0801L50.9473 90.2219L50.6323 90.2219L50.6323 92.0801Z" fill="black"/>
<path d="M47.2495 92.0801L47.5645 92.0801L47.5645 90.2219L47.2495 90.2219L47.2495 92.0801Z" fill="black"/>
<path d="M46.5718 92.0801L46.8867 92.0801L46.8867 90.2219L46.5718 90.2219L46.5718 92.0801Z" fill="black"/>
<path d="M46.1104 90.0581L47.2056 90.0581L52.0886 90.0581L52.5117 89.57L51.8375 85.9998L47.2056 85.9998L46.3614 85.9998L45.6877 89.57L46.1104 90.0581Z" fill="#6D6E70"/>
<path d="M46.11 90.0581L47.1722 90.0581L46.7496 89.57L47.4238 85.9998L46.3611 85.9998L45.6874 89.57L46.11 90.0581Z" fill="white"/>
<path d="M50.6725 90.0581L52.0886 90.0581L52.5117 89.57L51.8375 85.9998L50.4214 85.9998L51.0956 89.57L50.6725 90.0581Z" fill="#404041"/>
<path d="M46.1104 90.0581L47.2056 90.0581L52.0886 90.0581L52.5117 89.57L51.8375 85.9998L47.2056 85.9998L46.3614 85.9998L45.6877 89.57L46.1104 90.0581Z" stroke="black" stroke-width="0.811667"/>
<path d="M45.8324 88.8716L52.3652 88.8716L52.3652 88.1541L45.8324 88.1541L45.8324 88.8716Z" fill="black"/>
<path d="M45.6711 93.4902L52.5254 93.4902L52.5254 93.0032L45.6711 93.0032L45.6711 93.4902Z" fill="white"/>
<path d="M45.5995 127.662L52.5977 127.662L52.5977 91.6598L45.5995 91.6598L45.5995 127.662Z" fill="#6D6E70"/>
<path d="M45.5992 127.662L47.9082 127.662L47.9082 91.6598L45.5992 91.6598L45.5992 127.662Z" fill="white"/>
<path d="M52.5977 127.662L52.5977 91.6593L50.0003 91.6593L50.0003 127.662L52.5977 127.662Z" fill="#404041"/>
<path d="M45.5995 127.662L52.5977 127.662L52.5977 91.6598L45.5995 91.6598L45.5995 127.662Z" stroke="black" stroke-width="0.811667"/>
<path d="M45.6711 93.1655L52.5254 93.1655L52.5254 92.6785L45.6711 92.6785L45.6711 93.1655Z" fill="black"/>
<mask id="path-41-outside-2_1233_2887" maskUnits="userSpaceOnUse" x="42.7129" y="111.602" width="78" height="56" fill="black">
<rect fill="white" x="42.7129" y="111.602" width="78" height="56"/>
<path d="M66.1722 146.278L54.8334 133.86C54.1965 133.167 53.8781 132.35 53.8781 131.395V119.655L44.7129 114.602V152.095C44.7129 153.421 45.2397 154.692 46.1774 155.63L54.2834 163.736C55.3676 164.82 56.8678 165.35 58.3906 165.171C67.3815 164.114 98.9969 160.453 105.639 160.453C106.345 160.453 106.954 160.273 107.563 159.886L116.548 154.209C117.642 153.517 118.251 152.396 118.251 151.108V142.137L66.1722 146.278Z"/>
</mask>
<path d="M66.1722 146.278L54.8334 133.86C54.1965 133.167 53.8781 132.35 53.8781 131.395V119.655L44.7129 114.602V152.095C44.7129 153.421 45.2397 154.692 46.1774 155.63L54.2834 163.736C55.3676 164.82 56.8678 165.35 58.3906 165.171C67.3815 164.114 98.9969 160.453 105.639 160.453C106.345 160.453 106.954 160.273 107.563 159.886L116.548 154.209C117.642 153.517 118.251 152.396 118.251 151.108V142.137L66.1722 146.278Z" fill="#6D6E70"/>
<path d="M66.1722 146.278L54.8334 133.86C54.1965 133.167 53.8781 132.35 53.8781 131.395V119.655L44.7129 114.602V152.095C44.7129 153.421 45.2397 154.692 46.1774 155.63L54.2834 163.736C55.3676 164.82 56.8678 165.35 58.3906 165.171C67.3815 164.114 98.9969 160.453 105.639 160.453C106.345 160.453 106.954 160.273 107.563 159.886L116.548 154.209C117.642 153.517 118.251 152.396 118.251 151.108V142.137L66.1722 146.278Z" stroke="black" stroke-width="3" mask="url(#path-41-outside-2_1233_2887)"/>
<path d="M118.25 142.136L66.1709 146.278L95.4991 161.152C100.105 160.729 103.813 160.453 105.637 160.453C106.344 160.453 106.953 160.273 107.562 159.885L116.547 154.209C117.641 153.517 118.25 152.395 118.25 151.108V142.136Z" fill="#404041"/>
<path d="M46.1774 155.63L56.0005 165.453L46.5005 154.166V115.587L44.7129 114.602V152.095C44.7129 153.421 45.2397 154.692 46.1774 155.63Z" fill="white"/>
<path d="M53.8564 131L53.8008 155.035L55.8008 132.793L53.8564 131Z" fill="black"/>
<path d="M44.0996 141.84C44.0996 141.84 47.3516 139.368 47.3516 137.254V127.271C47.3516 124.8 44.1321 123.206 44.1321 123.206L44.0996 141.84Z" fill="#404041"/>
<path d="M43.4285 123C43.4285 123 41 124.604 41 126.858V137.699C41 139.52 43.7746 141.644 43.7746 141.644L45.7699 136.441V127.252L43.4285 123Z" fill="#F39DB1"/>
<path d="M44.4692 124.889V133.84L42.4738 139.043C41.9448 138.622 41.4518 138.159 41 137.656V137.699C41 139.52 43.7746 141.644 43.7746 141.644L45.7699 136.441V127.253L44.4692 124.889Z" fill="#9E3E63"/>
<path d="M43.4285 123C43.4285 123 41 124.604 41 126.858V137.699C41 139.52 43.7746 141.644 43.7746 141.644C43.7746 141.644 45.7699 137.644 45.7699 136.441V127.252C45.7699 125.71 43.4285 123 43.4285 123Z" stroke="black"/>
<path d="M42.2583 132.929C42.2583 132.929 41.1526 125.602 43.2339 124.777C43.2339 124.781 42.3012 131.086 42.2583 132.929Z" fill="white"/>
<path d="M59.6328 125C59.6328 125 62.3946 122.901 62.3946 121.106V112.627C62.3946 110.528 59.6604 109.175 59.6604 109.175L59.6328 125Z" fill="#404041"/>
<path d="M59.0625 109C59.0625 109 57 110.362 57 112.277V121.483C57 123.03 59.3564 124.834 59.3564 124.834L61.051 120.415V112.611L59.0625 109Z" fill="#F39DB1"/>
<path d="M59.9463 110.604V118.206L58.2517 122.625C57.8024 122.268 57.3837 121.874 57 121.447V121.484C57 123.03 59.3564 124.834 59.3564 124.834L61.051 120.415V112.612L59.9463 110.604Z" fill="#9E3E63"/>
<path d="M59.0625 109C59.0625 109 57 110.362 57 112.277V121.483C57 123.03 59.3564 124.834 59.3564 124.834C59.3564 124.834 61.051 121.437 61.051 120.415V112.611C61.051 111.301 59.0625 109 59.0625 109Z" stroke="black"/>
<path d="M58.0676 117.433C58.0676 117.433 57.1285 111.21 58.8961 110.509C58.8961 110.513 58.104 115.867 58.0676 117.433Z" fill="white"/>
<path fill-rule="evenodd" clip-rule="evenodd" d="M167.67 72.5518H163.94C163.252 72.5518 162.688 73.1073 162.697 73.795L163.067 109.885H167.679C168.366 109.885 168.922 109.33 168.922 108.642V73.795C168.913 73.1073 168.349 72.5518 167.67 72.5518Z" fill="#6D6E70"/>
<path d="M168.797 78.1738L162.914 78.1738L162.914 75.8676L168.797 75.8676L168.797 78.1738Z" fill="#404041"/>
<path d="M168.818 78.1738L162.893 78.1738L162.893 75.8676L168.818 75.8676L168.818 78.1738Z" stroke="black" stroke-width="0.429643"/>
<path d="M163.643 78.0801L163.328 78.0801L163.328 76.2219L163.643 76.2219L163.643 78.0801Z" fill="black"/>
<path d="M164.323 78.0801L164.008 78.0801L164.008 76.2219L164.323 76.2219L164.323 78.0801Z" fill="black"/>
<path d="M167.706 78.0801L167.391 78.0801L167.391 76.2219L167.706 76.2219L167.706 78.0801Z" fill="black"/>
<path d="M168.383 78.0801L168.068 78.0801L168.068 76.2219L168.383 76.2219L168.383 78.0801Z" fill="black"/>
<path d="M168.845 76.0581L167.749 76.0581L162.867 76.0581L162.443 75.57L163.118 71.9998L167.749 71.9998L168.594 71.9998L169.267 75.57L168.845 76.0581Z" fill="#6D6E70"/>
<path d="M168.845 76.0581L167.783 76.0581L168.206 75.57L167.531 71.9998L168.594 71.9998L169.268 75.57L168.845 76.0581Z" fill="white"/>
<path d="M164.283 76.0581L162.867 76.0581L162.443 75.57L163.118 71.9998L164.534 71.9998L163.859 75.57L164.283 76.0581Z" fill="#404041"/>
<path d="M168.845 76.0581L167.749 76.0581L162.867 76.0581L162.443 75.57L163.118 71.9998L167.749 71.9998L168.594 71.9998L169.267 75.57L168.845 76.0581Z" stroke="black" stroke-width="0.811667"/>
<path d="M169.123 74.8716L162.59 74.8716L162.59 74.1541L169.123 74.1541L169.123 74.8716Z" fill="black"/>
<path d="M169.284 79.4902L162.43 79.4902L162.43 79.0032L169.284 79.0032L169.284 79.4902Z" fill="white"/>
<path d="M169.356 113.662L162.357 113.662L162.357 77.6598L169.356 77.6598L169.356 113.662Z" fill="#6D6E70"/>
<path d="M169.356 113.662L167.047 113.662L167.047 77.6598L169.356 77.6598L169.356 113.662Z" fill="white"/>
<path d="M162.357 113.662L162.357 77.6593L164.955 77.6593L164.955 113.662L162.357 113.662Z" fill="#404041"/>
<path d="M169.356 113.662L162.357 113.662L162.357 77.6598L169.356 77.6598L169.356 113.662Z" stroke="black" stroke-width="0.811667"/>
<path d="M169.284 79.1655L162.43 79.1655L162.43 78.6785L169.284 78.6785L169.284 79.1655Z" fill="black"/>
<mask id="path-73-outside-3_1233_2887" maskUnits="userSpaceOnUse" x="123.242" y="97.6016" width="49" height="56" fill="black">
<rect fill="white" x="123.242" y="97.6016" width="49" height="56"/>
<path fill-rule="evenodd" clip-rule="evenodd" d="M160.122 119.86L155.554 130L125.704 138.137V142.108C125.704 143.396 126.313 144.517 127.407 145.209L136.392 150.886C137.001 151.273 137.61 151.453 138.316 151.453C147.855 151.453 157.394 151.453 166.919 151.453C168.747 151.453 170.242 149.958 170.242 148.13V100.602L161.077 105.655C161.077 109.573 161.077 113.477 161.077 117.395C161.077 118.35 160.759 119.167 160.122 119.86Z"/>
</mask>
<path fill-rule="evenodd" clip-rule="evenodd" d="M160.122 119.86L155.554 130L125.704 138.137V142.108C125.704 143.396 126.313 144.517 127.407 145.209L136.392 150.886C137.001 151.273 137.61 151.453 138.316 151.453C147.855 151.453 157.394 151.453 166.919 151.453C168.747 151.453 170.242 149.958 170.242 148.13V100.602L161.077 105.655C161.077 109.573 161.077 113.477 161.077 117.395C161.077 118.35 160.759 119.167 160.122 119.86Z" fill="#6D6E70"/>
<path fill-rule="evenodd" clip-rule="evenodd" d="M160.122 119.86L155.554 130L125.704 138.137V142.108C125.704 143.396 126.313 144.517 127.407 145.209L136.392 150.886C137.001 151.273 137.61 151.453 138.316 151.453C147.855 151.453 157.394 151.453 166.919 151.453C168.747 151.453 170.242 149.958 170.242 148.13V100.602L161.077 105.655C161.077 109.573 161.077 113.477 161.077 117.395C161.077 118.35 160.759 119.167 160.122 119.86Z" stroke="black" stroke-width="3" mask="url(#path-73-outside-3_1233_2887)"/>
<path d="M161.198 118L161.254 142.035L159.254 119.793L161.198 118Z" fill="black"/>
<path d="M125.555 144L160.555 138L166.055 103.5L170.555 101V153.5L133.055 156L125.555 144Z" fill="#404041"/>
<path d="M169.09 141.629L159.267 151.452L168.767 140.164V101.586L170.555 100.6V138.093C170.555 139.419 170.028 140.691 169.09 141.629Z" fill="white"/>
<path fill-rule="evenodd" clip-rule="evenodd" d="M183.269 86.5518H179.54C178.852 86.5518 178.288 87.1073 178.296 87.795L178.667 123.885H183.278C183.966 123.885 184.521 123.33 184.521 122.642V87.795C184.513 87.1073 183.948 86.5518 183.269 86.5518Z" fill="#6D6E70"/>
<path d="M184.397 92.1738L178.514 92.1738L178.514 89.8676L184.397 89.8676L184.397 92.1738Z" fill="#404041"/>
<path d="M184.417 92.1738L178.492 92.1738L178.492 89.8676L184.417 89.8676L184.417 92.1738Z" stroke="black" stroke-width="0.429643"/>
<path d="M179.243 92.0801L178.928 92.0801L178.928 90.2219L179.243 90.2219L179.243 92.0801Z" fill="black"/>
<path d="M179.922 92.0801L179.607 92.0801L179.607 90.2219L179.922 90.2219L179.922 92.0801Z" fill="black"/>
<path d="M183.305 92.0801L182.99 92.0801L182.99 90.2219L183.305 90.2219L183.305 92.0801Z" fill="black"/>
<path d="M183.983 92.0801L183.668 92.0801L183.668 90.2219L183.983 90.2219L183.983 92.0801Z" fill="black"/>
<path d="M184.444 90.0581L183.349 90.0581L178.466 90.0581L178.043 89.57L178.717 85.9998L183.349 85.9998L184.193 85.9998L184.867 89.57L184.444 90.0581Z" fill="#6D6E70"/>
<path d="M184.445 90.0581L183.382 90.0581L183.805 89.57L183.131 85.9998L184.194 85.9998L184.867 89.57L184.445 90.0581Z" fill="white"/>
<path d="M179.882 90.0581L178.466 90.0581L178.043 89.57L178.717 85.9998L180.133 85.9998L179.459 89.57L179.882 90.0581Z" fill="#404041"/>
<path d="M184.444 90.0581L183.349 90.0581L178.466 90.0581L178.043 89.57L178.717 85.9998L183.349 85.9998L184.193 85.9998L184.867 89.57L184.444 90.0581Z" stroke="black" stroke-width="0.811667"/>
<path d="M184.722 88.8716L178.189 88.8716L178.189 88.1541L184.722 88.1541L184.722 88.8716Z" fill="black"/>
<path d="M184.884 93.4902L178.029 93.4902L178.029 93.0032L184.884 93.0032L184.884 93.4902Z" fill="white"/>
<path d="M184.955 127.662L177.957 127.662L177.957 91.6598L184.955 91.6598L184.955 127.662Z" fill="#6D6E70"/>
<path d="M184.955 127.662L182.646 127.662L182.646 91.6598L184.955 91.6598L184.955 127.662Z" fill="white"/>
<path d="M177.957 127.662L177.957 91.6593L180.554 91.6593L180.554 127.662L177.957 127.662Z" fill="#404041"/>
<path d="M184.955 127.662L177.957 127.662L177.957 91.6598L184.955 91.6598L184.955 127.662Z" stroke="black" stroke-width="0.811667"/>
<path d="M184.884 93.1655L178.029 93.1655L178.029 92.6785L184.884 92.6785L184.884 93.1655Z" fill="black"/>
<mask id="path-95-outside-4_1233_2887" maskUnits="userSpaceOnUse" x="109.842" y="111.602" width="78" height="56" fill="black">
<rect fill="white" x="109.842" y="111.602" width="78" height="56"/>
<path d="M164.382 146.278L175.721 133.86C176.358 133.167 176.677 132.35 176.677 131.395V119.655L185.842 114.602V152.095C185.842 153.421 185.315 154.692 184.377 155.63L176.271 163.736C175.187 164.82 173.687 165.35 172.164 165.171C163.173 164.114 131.558 160.453 124.916 160.453C124.21 160.453 123.601 160.273 122.991 159.886L114.006 154.209C112.913 153.517 112.303 152.396 112.303 151.108V142.137L164.382 146.278Z"/>
</mask>
<path d="M164.382 146.278L175.721 133.86C176.358 133.167 176.677 132.35 176.677 131.395V119.655L185.842 114.602V152.095C185.842 153.421 185.315 154.692 184.377 155.63L176.271 163.736C175.187 164.82 173.687 165.35 172.164 165.171C163.173 164.114 131.558 160.453 124.916 160.453C124.21 160.453 123.601 160.273 122.991 159.886L114.006 154.209C112.913 153.517 112.303 152.396 112.303 151.108V142.137L164.382 146.278Z" fill="#6D6E70"/>
<path d="M164.382 146.278L175.721 133.86C176.358 133.167 176.677 132.35 176.677 131.395V119.655L185.842 114.602V152.095C185.842 153.421 185.315 154.692 184.377 155.63L176.271 163.736C175.187 164.82 173.687 165.35 172.164 165.171C163.173 164.114 131.558 160.453 124.916 160.453C124.21 160.453 123.601 160.273 122.991 159.886L114.006 154.209C112.913 153.517 112.303 152.396 112.303 151.108V142.137L164.382 146.278Z" stroke="black" stroke-width="3" mask="url(#path-95-outside-4_1233_2887)"/>
<path d="M112.305 142.136L164.384 146.278L135.056 161.152C130.45 160.729 126.741 160.453 124.917 160.453C124.211 160.453 123.602 160.273 122.993 159.885L114.008 154.209C112.914 153.517 112.305 152.395 112.305 151.108V142.136Z" fill="#404041"/>
<path d="M184.377 155.63L174.554 165.453L184.054 154.166V115.587L185.842 114.602V152.095C185.842 153.421 185.315 154.692 184.377 155.63Z" fill="white"/>
<path d="M176.698 131L176.754 155.035L174.754 132.793L176.698 131Z" fill="black"/>
<path d="M186.455 141.84C186.455 141.84 183.203 139.368 183.203 137.254V127.271C183.203 124.8 186.423 123.206 186.423 123.206L186.455 141.84Z" fill="#404041"/>
<path d="M187.126 123C187.126 123 189.555 124.604 189.555 126.858V137.699C189.555 139.52 186.78 141.644 186.78 141.644L184.785 136.441V127.252L187.126 123Z" fill="#F39DB1"/>
<path d="M186.086 124.889V133.84L188.081 139.043C188.61 138.622 189.103 138.159 189.555 137.656V137.699C189.555 139.52 186.78 141.644 186.78 141.644L184.785 136.441V127.253L186.086 124.889Z" fill="#9E3E63"/>
<path d="M187.126 123C187.126 123 189.555 124.604 189.555 126.858V137.699C189.555 139.52 186.78 141.644 186.78 141.644C186.78 141.644 184.785 137.644 184.785 136.441V127.252C184.785 125.71 187.126 123 187.126 123Z" stroke="black"/>
<path d="M188.296 132.929C188.296 132.929 189.402 125.602 187.321 124.777C187.321 124.781 188.253 131.086 188.296 132.929Z" fill="white"/>
<path d="M170.922 125C170.922 125 168.16 122.901 168.16 121.106V112.627C168.16 110.528 170.894 109.175 170.894 109.175L170.922 125Z" fill="#404041"/>
<path d="M171.492 109C171.492 109 173.555 110.362 173.555 112.277V121.483C173.555 123.03 171.198 124.834 171.198 124.834L169.504 120.415V112.611L171.492 109Z" fill="#F39DB1"/>
<path d="M170.608 110.604V118.206L172.303 122.625C172.752 122.268 173.171 121.874 173.555 121.447V121.484C173.555 123.03 171.198 124.834 171.198 124.834L169.504 120.415V112.612L170.608 110.604Z" fill="#9E3E63"/>
<path d="M171.492 109C171.492 109 173.555 110.362 173.555 112.277V121.483C173.555 123.03 171.198 124.834 171.198 124.834C171.198 124.834 169.504 121.437 169.504 120.415V112.611C169.504 111.301 171.492 109 171.492 109Z" stroke="black"/>
<path d="M172.487 117.433C172.487 117.433 173.426 111.21 171.659 110.509C171.659 110.513 172.451 115.867 172.487 117.433Z" fill="white"/>

        
<mask id="path-1-outside-1_1233_2887" maskUnits="userSpaceOnUse" x="71.9716" y="144.637" width="38.1799" height="38.1799" fill="black">
<rect fill="white" x="71.9716" y="144.637" width="38.1799" height="38.1799"/>
<path fill-rule="evenodd" clip-rule="evenodd" d="M85.6639 154.215L101.388 158.078C102.252 158.262 102.812 159.096 102.678 159.969L101.011 170.146C100.894 170.862 100.363 171.389 99.6603 171.516L84.7619 171.988L85.6639 154.215Z"/>
</mask>
<path fill-rule="evenodd" clip-rule="evenodd" d="M85.6639 154.215L101.388 158.078C102.252 158.262 102.812 159.096 102.678 159.969L101.011 170.146C100.894 170.862 100.363 171.389 99.6603 171.516L84.7619 171.988L85.6639 154.215Z" fill="#6D6E70"/>
<path fill-rule="evenodd" clip-rule="evenodd" d="M85.6639 154.215L101.388 158.078C102.252 158.262 102.812 159.096 102.678 159.969L101.011 170.146C100.894 170.862 100.363 171.389 99.6603 171.516L84.7619 171.988L85.6639 154.215Z" stroke="black" stroke-width="3" mask="url(#path-1-outside-1_1233_2887)"/>
<path d="M101.388 158.078L85.6639 154.215L102.45 161.361L102.678 159.969C102.812 159.096 102.252 158.262 101.388 158.078Z" fill="white"/>
<mask id="path-3-outside-2_1233_2887" maskUnits="userSpaceOnUse" x="32.1872" y="127.226" width="65.148" height="64.9464" fill="black">
<rect fill="white" x="32.1872" y="127.226" width="65.148" height="64.9464"/>
<path fill-rule="evenodd" clip-rule="evenodd" d="M81.9831 153.573L59.1812 163.924L55.4838 150.426C55.2981 149.763 54.9674 149.229 54.442 148.777L48.4554 143.653C47.9599 143.23 47.2223 143.691 47.3782 144.325L55.4439 175.795C55.8998 177.55 57.6873 178.631 59.4434 178.195L84.7615 171.97C85.4541 171.793 86.0077 171.482 86.5095 170.966L92.1543 165.158C93.4279 163.847 93.3978 161.733 92.0873 160.459L85.6637 154.216C84.6709 153.251 83.2478 153.007 81.9831 153.573Z"/>
</mask>
<path fill-rule="evenodd" clip-rule="evenodd" d="M81.9831 153.573L59.1812 163.924L55.4838 150.426C55.2981 149.763 54.9674 149.229 54.442 148.777L48.4554 143.653C47.9599 143.23 47.2223 143.691 47.3782 144.325L55.4439 175.795C55.8998 177.55 57.6873 178.631 59.4434 178.195L84.7615 171.97C85.4541 171.793 86.0077 171.482 86.5095 170.966L92.1543 165.158C93.4279 163.847 93.3978 161.733 92.0873 160.459L85.6637 154.216C84.6709 153.251 83.2478 153.007 81.9831 153.573Z" fill="#6D6E70"/>
<path fill-rule="evenodd" clip-rule="evenodd" d="M81.9831 153.573L59.1812 163.924L55.4838 150.426C55.2981 149.763 54.9674 149.229 54.442 148.777L48.4554 143.653C47.9599 143.23 47.2223 143.691 47.3782 144.325L55.4439 175.795C55.8998 177.55 57.6873 178.631 59.4434 178.195L84.7615 171.97C85.4541 171.793 86.0077 171.482 86.5095 170.966L92.1543 165.158C93.4279 163.847 93.3978 161.733 92.0873 160.459L85.6637 154.216C84.6709 153.251 83.2478 153.007 81.9831 153.573Z" stroke="black" stroke-width="3" mask="url(#path-3-outside-2_1233_2887)"/>
<path d="M59.4433 178.195C57.6872 178.631 55.8997 177.55 55.4438 175.794L53.4502 168.016C55.9475 171.903 56.715 176.135 64.1237 174.968C70.0507 174.035 80.3517 172.58 84.7614 171.969L59.4433 178.195Z" fill="#404041"/>
<path d="M62.8652 162.252L81.9831 153.573C83.2478 153.007 84.6709 153.251 85.6637 154.216L91.0545 159.455C89.8906 158.74 86.7101 157.038 83.3003 155.955C80.4369 155.046 70.0428 159.091 62.8652 162.252L59.1812 163.924L57.7224 158.598C56.7747 156.943 54.4385 153.025 52.6753 150.595C50.9121 148.164 48.8683 147.193 48.0668 147.011L47.3782 144.325C47.2223 143.691 47.9599 143.23 48.4554 143.653L54.442 148.777C54.9674 149.229 55.2981 149.763 55.4838 150.426L57.7224 158.598L59.1812 163.924C60.2422 163.426 61.4951 162.855 62.8652 162.252Z" fill="white"/>
<path d="M58.9084 162.847L62.1571 174.417L60.0881 163.444L58.9084 162.847Z" fill="black"/>
<mask id="path-7-inside-3_1233_2887" fill="white">
<path fill-rule="evenodd" clip-rule="evenodd" d="M73.5465 170.105L76.7298 169.32C77.2019 169.216 77.4544 169.668 77.3118 170.087L76.5057 172.454C76.4065 172.745 76.1308 173.048 75.8292 173.128L72.6581 173.907C72.1798 174.029 71.9059 173.58 72.0547 173.143L72.8609 170.776C72.9601 170.485 73.2358 170.182 73.5465 170.105Z"/>
</mask>
<path fill-rule="evenodd" clip-rule="evenodd" d="M73.5465 170.105L76.7298 169.32C77.2019 169.216 77.4544 169.668 77.3118 170.087L76.5057 172.454C76.4065 172.745 76.1308 173.048 75.8292 173.128L72.6581 173.907C72.1798 174.029 71.9059 173.58 72.0547 173.143L72.8609 170.776C72.9601 170.485 73.2358 170.182 73.5465 170.105Z" fill="#9E3E63" stroke="black" stroke-width="0.691728" mask="url(#path-7-inside-3_1233_2887)"/>
<path fill-rule="evenodd" clip-rule="evenodd" d="M73.5819 170.476L75.5027 170.002C75.7875 169.94 75.9399 170.212 75.8538 170.465L75.3674 171.893C75.3076 172.069 75.1412 172.251 74.9593 172.3L73.0459 172.77C72.7573 172.843 72.5921 172.572 72.6819 172.309L73.1683 170.881C73.2281 170.705 73.3945 170.522 73.5819 170.476Z" fill="#F39DB1"/>
<path d="M73.7888 170.65C73.5797 170.702 73.3942 170.905 73.3274 171.102L73.0562 171.898L73.7847 170.962L74.8599 170.386L73.7888 170.65Z" fill="white"/>
<mask id="path-10-inside-4_1233_2887" fill="white">
<path fill-rule="evenodd" clip-rule="evenodd" d="M68.3199 171.337L71.5033 170.552C71.9753 170.448 72.2279 170.9 72.0853 171.319L71.2791 173.686C71.1799 173.977 70.9042 174.28 70.6026 174.36L67.4315 175.139C66.9532 175.261 66.6793 174.812 66.8282 174.375L67.6343 172.008C67.7335 171.716 68.0092 171.414 68.3199 171.337Z"/>
</mask>
<path fill-rule="evenodd" clip-rule="evenodd" d="M68.3199 171.337L71.5033 170.552C71.9753 170.448 72.2279 170.9 72.0853 171.319L71.2791 173.686C71.1799 173.977 70.9042 174.28 70.6026 174.36L67.4315 175.139C66.9532 175.261 66.6793 174.812 66.8282 174.375L67.6343 172.008C67.7335 171.716 68.0092 171.414 68.3199 171.337Z" fill="#9E3E63" stroke="black" stroke-width="0.691728" mask="url(#path-10-inside-4_1233_2887)"/>
<path fill-rule="evenodd" clip-rule="evenodd" d="M68.3554 171.708L70.2761 171.234C70.561 171.172 70.7133 171.444 70.6273 171.697L70.1409 173.125C70.081 173.301 69.9147 173.483 69.7327 173.532L67.8193 174.002C67.5308 174.075 67.3655 173.804 67.4553 173.541L67.9417 172.113C68.0016 171.937 68.1679 171.754 68.3554 171.708Z" fill="#F39DB1"/>
<path d="M68.5623 171.882C68.3532 171.934 68.1676 172.137 68.1009 172.333L67.8297 173.13L68.5581 172.194L69.6333 171.618L68.5623 171.882Z" fill="white"/>
<mask id="path-13-inside-5_1233_2887" fill="white">
<path fill-rule="evenodd" clip-rule="evenodd" d="M78.7711 168.875L81.9544 168.089C82.4265 167.986 82.6791 168.438 82.5364 168.857L81.7303 171.224C81.6311 171.515 81.3554 171.817 81.0538 171.897L77.8827 172.677C77.4044 172.798 77.1305 172.349 77.2794 171.912L78.0855 169.545C78.1847 169.254 78.4604 168.952 78.7711 168.875Z"/>
</mask>
<path fill-rule="evenodd" clip-rule="evenodd" d="M78.7711 168.875L81.9544 168.089C82.4265 167.986 82.6791 168.438 82.5364 168.857L81.7303 171.224C81.6311 171.515 81.3554 171.817 81.0538 171.897L77.8827 172.677C77.4044 172.798 77.1305 172.349 77.2794 171.912L78.0855 169.545C78.1847 169.254 78.4604 168.952 78.7711 168.875Z" fill="#9E3E63" stroke="black" stroke-width="0.691728" mask="url(#path-13-inside-5_1233_2887)"/>
<path fill-rule="evenodd" clip-rule="evenodd" d="M78.8066 169.245L80.7273 168.772C81.0121 168.709 81.1645 168.982 81.0784 169.234L80.5921 170.663C80.5322 170.838 80.3659 171.021 80.1839 171.069L78.2705 171.539C77.9819 171.613 77.8167 171.342 77.9065 171.078L78.3929 169.65C78.4527 169.474 78.6191 169.292 78.8066 169.245Z" fill="#F39DB1"/>
<path d="M79.0134 169.42C78.8043 169.472 78.6188 169.675 78.5521 169.871L78.2808 170.667L79.0093 169.732L80.0845 169.155L79.0134 169.42Z" fill="white"/>
<mask id="path-16-outside-6_1233_2887" maskUnits="userSpaceOnUse" x="119.87" y="144.637" width="38.1799" height="38.1799" fill="black">
<rect fill="white" x="119.87" y="144.637" width="38.1799" height="38.1799"/>
<path fill-rule="evenodd" clip-rule="evenodd" d="M144.358 154.215L128.634 158.078C127.77 158.262 127.209 159.096 127.344 159.969L129.01 170.146C129.127 170.862 129.658 171.389 130.361 171.516L145.26 171.988L144.358 154.215Z"/>
</mask>
<path fill-rule="evenodd" clip-rule="evenodd" d="M144.358 154.215L128.634 158.078C127.77 158.262 127.209 159.096 127.344 159.969L129.01 170.146C129.127 170.862 129.658 171.389 130.361 171.516L145.26 171.988L144.358 154.215Z" fill="#6D6E70"/>
<path fill-rule="evenodd" clip-rule="evenodd" d="M144.358 154.215L128.634 158.078C127.77 158.262 127.209 159.096 127.344 159.969L129.01 170.146C129.127 170.862 129.658 171.389 130.361 171.516L145.26 171.988L144.358 154.215Z" stroke="black" stroke-width="3" mask="url(#path-16-outside-6_1233_2887)"/>
<path d="M128.634 158.078L144.358 154.215L127.572 161.361L127.344 159.969C127.209 159.096 127.77 158.262 128.634 158.078Z" fill="white"/>
<mask id="path-18-outside-7_1233_2887" maskUnits="userSpaceOnUse" x="132.686" y="127.226" width="65.148" height="64.9464" fill="black">
<rect fill="white" x="132.686" y="127.226" width="65.148" height="64.9464"/>
<path fill-rule="evenodd" clip-rule="evenodd" d="M148.038 153.573L170.84 163.924L174.538 150.426C174.723 149.763 175.054 149.229 175.579 148.777L181.566 143.653C182.062 143.23 182.799 143.691 182.643 144.325L174.578 175.795C174.122 177.55 172.334 178.631 170.578 178.195L145.26 171.97C144.567 171.793 144.014 171.482 143.512 170.966L137.867 165.158C136.594 163.847 136.624 161.733 137.934 160.459L144.358 154.216C145.351 153.251 146.774 153.007 148.038 153.573Z"/>
</mask>
<path fill-rule="evenodd" clip-rule="evenodd" d="M148.038 153.573L170.84 163.924L174.538 150.426C174.723 149.763 175.054 149.229 175.579 148.777L181.566 143.653C182.062 143.23 182.799 143.691 182.643 144.325L174.578 175.795C174.122 177.55 172.334 178.631 170.578 178.195L145.26 171.97C144.567 171.793 144.014 171.482 143.512 170.966L137.867 165.158C136.594 163.847 136.624 161.733 137.934 160.459L144.358 154.216C145.351 153.251 146.774 153.007 148.038 153.573Z" fill="#6D6E70"/>
<path fill-rule="evenodd" clip-rule="evenodd" d="M148.038 153.573L170.84 163.924L174.538 150.426C174.723 149.763 175.054 149.229 175.579 148.777L181.566 143.653C182.062 143.23 182.799 143.691 182.643 144.325L174.578 175.795C174.122 177.55 172.334 178.631 170.578 178.195L145.26 171.97C144.567 171.793 144.014 171.482 143.512 170.966L137.867 165.158C136.594 163.847 136.624 161.733 137.934 160.459L144.358 154.216C145.351 153.251 146.774 153.007 148.038 153.573Z" stroke="black" stroke-width="3" mask="url(#path-18-outside-7_1233_2887)"/>
<path d="M170.578 178.195C172.334 178.631 174.122 177.55 174.578 175.794L176.571 168.016C174.074 171.903 173.306 176.135 165.898 174.968C159.971 174.035 149.67 172.58 145.26 171.969L170.578 178.195Z" fill="#404041"/>
<path d="M167.156 162.252L148.038 153.573C146.774 153.007 145.351 153.251 144.358 154.216L138.967 159.455C140.131 158.74 143.311 157.038 146.721 155.955C149.585 155.046 159.979 159.091 167.156 162.252L170.84 163.924L172.299 158.598C173.247 156.943 175.583 153.025 177.346 150.595C179.109 148.164 181.153 147.193 181.955 147.011L182.643 144.325C182.799 143.691 182.062 143.23 181.566 143.653L175.579 148.777C175.054 149.229 174.723 149.763 174.538 150.426L172.299 158.598L170.84 163.924C169.779 163.426 168.526 162.855 167.156 162.252Z" fill="white"/>
<path d="M171.113 162.847L167.864 174.417L169.933 163.444L171.113 162.847Z" fill="black"/>
<mask id="path-22-inside-8_1233_2887" fill="white">
<path fill-rule="evenodd" clip-rule="evenodd" d="M156.475 170.105L153.292 169.32C152.82 169.216 152.567 169.668 152.71 170.087L153.516 172.454C153.615 172.745 153.891 173.048 154.192 173.128L157.363 173.907C157.842 174.029 158.116 173.58 157.967 173.143L157.161 170.776C157.061 170.485 156.786 170.182 156.475 170.105Z"/>
</mask>
<path fill-rule="evenodd" clip-rule="evenodd" d="M156.475 170.105L153.292 169.32C152.82 169.216 152.567 169.668 152.71 170.087L153.516 172.454C153.615 172.745 153.891 173.048 154.192 173.128L157.363 173.907C157.842 174.029 158.116 173.58 157.967 173.143L157.161 170.776C157.061 170.485 156.786 170.182 156.475 170.105Z" fill="#9E3E63" stroke="black" stroke-width="0.691728" mask="url(#path-22-inside-8_1233_2887)"/>
<path fill-rule="evenodd" clip-rule="evenodd" d="M156.44 170.476L154.519 170.002C154.234 169.94 154.082 170.212 154.168 170.465L154.654 171.893C154.714 172.069 154.88 172.251 155.062 172.3L156.976 172.77C157.264 172.843 157.429 172.572 157.34 172.309L156.853 170.881C156.793 170.705 156.627 170.522 156.44 170.476Z" fill="#F39DB1"/>
<path d="M156.233 170.65C156.442 170.702 156.627 170.905 156.694 171.102L156.965 171.898L156.237 170.962L155.162 170.386L156.233 170.65Z" fill="white"/>
<mask id="path-25-inside-9_1233_2887" fill="white">
<path fill-rule="evenodd" clip-rule="evenodd" d="M161.702 171.337L158.518 170.552C158.046 170.448 157.794 170.9 157.936 171.319L158.742 173.686C158.842 173.977 159.117 174.28 159.419 174.36L162.59 175.139C163.068 175.261 163.342 174.812 163.193 174.375L162.387 172.008C162.288 171.716 162.012 171.414 161.702 171.337Z"/>
</mask>
<path fill-rule="evenodd" clip-rule="evenodd" d="M161.702 171.337L158.518 170.552C158.046 170.448 157.794 170.9 157.936 171.319L158.742 173.686C158.842 173.977 159.117 174.28 159.419 174.36L162.59 175.139C163.068 175.261 163.342 174.812 163.193 174.375L162.387 172.008C162.288 171.716 162.012 171.414 161.702 171.337Z" fill="#9E3E63" stroke="black" stroke-width="0.691728" mask="url(#path-25-inside-9_1233_2887)"/>
<path fill-rule="evenodd" clip-rule="evenodd" d="M161.666 171.708L159.745 171.234C159.461 171.172 159.308 171.444 159.394 171.697L159.881 173.125C159.94 173.301 160.107 173.483 160.289 173.532L162.202 174.002C162.491 174.075 162.656 173.804 162.566 173.541L162.08 172.113C162.02 171.937 161.854 171.754 161.666 171.708Z" fill="#F39DB1"/>
<path d="M161.459 171.882C161.668 171.934 161.854 172.137 161.921 172.333L162.192 173.13L161.463 172.194L160.388 171.618L161.459 171.882Z" fill="white"/>
<mask id="path-28-inside-10_1233_2887" fill="white">
<path fill-rule="evenodd" clip-rule="evenodd" d="M151.25 168.875L148.067 168.089C147.595 167.986 147.342 168.438 147.485 168.857L148.291 171.224C148.39 171.515 148.666 171.817 148.968 171.897L152.139 172.677C152.617 172.798 152.891 172.349 152.742 171.912L151.936 169.545C151.837 169.254 151.561 168.952 151.25 168.875Z"/>
</mask>
<path fill-rule="evenodd" clip-rule="evenodd" d="M151.25 168.875L148.067 168.089C147.595 167.986 147.342 168.438 147.485 168.857L148.291 171.224C148.39 171.515 148.666 171.817 148.968 171.897L152.139 172.677C152.617 172.798 152.891 172.349 152.742 171.912L151.936 169.545C151.837 169.254 151.561 168.952 151.25 168.875Z" fill="#9E3E63" stroke="black" stroke-width="0.691728" mask="url(#path-28-inside-10_1233_2887)"/>
<path fill-rule="evenodd" clip-rule="evenodd" d="M151.215 169.245L149.294 168.772C149.009 168.709 148.857 168.982 148.943 169.234L149.429 170.663C149.489 170.838 149.656 171.021 149.838 171.069L151.751 171.539C152.04 171.613 152.205 171.342 152.115 171.078L151.629 169.65C151.569 169.474 151.402 169.292 151.215 169.245Z" fill="#F39DB1"/>
<path d="M151.008 169.42C151.217 169.472 151.403 169.675 151.469 169.871L151.741 170.667L151.012 169.732L149.937 169.155L151.008 169.42Z" fill="white"/>

        
<mask id="path-1-outside-1_1233_2887" maskUnits="userSpaceOnUse" x="95.8262" y="122" width="38" height="85" fill="black">
<rect fill="white" x="95.8262" y="122" width="38" height="85"/>
<path fill-rule="evenodd" clip-rule="evenodd" d="M109.733 129.856V125.841C109.733 124.831 108.916 124.014 107.905 124.014H103.309C102.298 124.014 101.481 124.831 101.481 125.841V145.002L99.6537 146.055C98.4907 146.733 97.8262 147.882 97.8262 149.225V159.124L100.083 163.124V171.031C100.083 172.346 100.277 173.467 100.72 174.713L111.062 203.759C111.325 204.507 112.003 204.978 112.792 204.978H116.863C117.652 204.978 118.33 204.507 118.593 203.759L128.935 174.713C129.378 173.467 129.572 172.346 129.572 171.031V163.124L131.829 159.124V149.225C131.829 147.882 131.164 146.733 130.001 146.055L128.174 145.002V125.828C128.174 124.817 127.357 124 126.346 124H121.722C120.711 124 119.895 124.817 119.895 125.828V129.842H109.733V129.856Z"/>
</mask>
<path fill-rule="evenodd" clip-rule="evenodd" d="M109.733 129.856V125.841C109.733 124.831 108.916 124.014 107.905 124.014H103.309C102.298 124.014 101.481 124.831 101.481 125.841V145.002L99.6537 146.055C98.4907 146.733 97.8262 147.882 97.8262 149.225V159.124L100.083 163.124V171.031C100.083 172.346 100.277 173.467 100.72 174.713L111.062 203.759C111.325 204.507 112.003 204.978 112.792 204.978H116.863C117.652 204.978 118.33 204.507 118.593 203.759L128.935 174.713C129.378 173.467 129.572 172.346 129.572 171.031V163.124L131.829 159.124V149.225C131.829 147.882 131.164 146.733 130.001 146.055L128.174 145.002V125.828C128.174 124.817 127.357 124 126.346 124H121.722C120.711 124 119.895 124.817 119.895 125.828V129.842H109.733V129.856Z" fill="#6D6E70"/>
<path fill-rule="evenodd" clip-rule="evenodd" d="M109.733 129.856V125.841C109.733 124.831 108.916 124.014 107.905 124.014H103.309C102.298 124.014 101.481 124.831 101.481 125.841V145.002L99.6537 146.055C98.4907 146.733 97.8262 147.882 97.8262 149.225V159.124L100.083 163.124V171.031C100.083 172.346 100.277 173.467 100.72 174.713L111.062 203.759C111.325 204.507 112.003 204.978 112.792 204.978H116.863C117.652 204.978 118.33 204.507 118.593 203.759L128.935 174.713C129.378 173.467 129.572 172.346 129.572 171.031V163.124L131.829 159.124V149.225C131.829 147.882 131.164 146.733 130.001 146.055L128.174 145.002V125.828C128.174 124.817 127.357 124 126.346 124H121.722C120.711 124 119.895 124.817 119.895 125.828V129.842H109.733V129.856Z" stroke="black" stroke-width="3" mask="url(#path-1-outside-1_1233_2887)"/>
<path d="M101.481 125.841C101.481 124.831 102.298 124.014 103.309 124.014V146.682L100.72 149.225V160.182L103.309 165.182V174.713L112.792 204.978C112.003 204.978 111.325 204.507 111.062 203.759L100.72 174.713C100.277 173.467 100.083 172.346 100.083 171.03V163.124L97.8262 159.124V149.225C97.8262 147.882 98.4907 146.733 99.6537 146.054L101.481 145.002V125.841Z" fill="#BBBDBF"/>
<path d="M103.579 180.755L101.8 175.564L104.78 176.426L102.78 176.426L103.579 180.755Z" fill="white"/>
<path d="M118.592 203.759C118.329 204.507 117.651 204.978 116.862 204.978H114.812V129.842H119.894V125.828C119.894 124.817 120.71 124 121.721 124H126.345C127.356 124 128.173 124.817 128.173 125.828V145.002L130 146.055C131.163 146.733 131.828 147.882 131.828 149.225V159.124L129.571 163.124V171.031C129.571 172.346 129.377 173.467 128.934 174.713L118.592 203.759Z" fill="#404041"/>
<path fill-rule="evenodd" clip-rule="evenodd" d="M120.075 156.495C120.075 156.066 120.075 155.623 120.075 155.193C120.075 154.653 119.438 154.044 118.705 154.21C116.365 154.75 114.011 154.75 111.671 154.21C110.938 154.044 110.301 154.653 110.301 155.193C110.301 155.623 110.301 156.066 110.301 156.495C110.301 157.035 110.924 157.339 111.671 157.478C114.011 157.907 116.365 157.907 118.705 157.478C119.452 157.339 120.075 157.035 120.075 156.495Z" fill="black"/>
<path fill-rule="evenodd" clip-rule="evenodd" d="M119.618 156.813C119.618 156.384 119.618 155.941 119.618 155.512C119.618 155.152 119.203 154.792 118.705 154.861C116.365 155.166 114.011 155.166 111.672 154.861C111.173 154.792 110.758 155.152 110.758 155.512C110.758 155.941 110.758 156.384 110.758 156.813C110.758 157.173 111.173 157.381 111.672 157.464C114.011 157.893 116.365 157.893 118.705 157.464C119.203 157.381 119.618 157.173 119.618 156.813Z" fill="#9E3E63"/>
<path fill-rule="evenodd" clip-rule="evenodd" d="M118.705 156.688C118.705 156.342 118.705 155.996 118.705 155.65C118.705 155.359 118.373 155.055 117.985 155.124C116.13 155.498 114.261 155.498 112.405 155.124C112.018 155.041 111.686 155.359 111.686 155.65C111.686 155.996 111.686 156.342 111.686 156.688C111.686 156.979 112.018 157.159 112.405 157.214C114.205 157.464 116.06 157.477 117.985 157.214C118.373 157.145 118.705 156.965 118.705 156.688Z" fill="#F39DB1"/>
<path d="M112.303 157.221C111.972 157.181 111.688 157.054 111.688 156.848V156.356C112.125 156.848 113.911 156.967 114.766 156.967C115.62 156.967 117.401 156.614 117.688 156.485V156.848C117.688 157.044 117.403 157.172 117.072 157.221C115.427 157.407 113.841 157.397 112.303 157.221Z" fill="white"/>
<path d="M117.286 155.522C117.286 155.431 117.508 155.356 117.783 155.356C118.057 155.356 118.279 155.431 118.279 155.522C118.279 155.613 118.057 155.687 117.783 155.687C117.508 155.687 117.286 155.613 117.286 155.522Z" fill="white"/>
<path d="M128.21 125.841C128.21 124.831 127.393 124.014 126.383 124.014V146.682L128.972 149.225V160.182L126.383 165.182V174.713L116.899 204.978C117.688 204.978 118.367 204.507 118.63 203.759L128.972 174.713C129.415 173.467 129.609 172.346 129.609 171.03V163.124L131.865 159.124V149.225C131.865 147.882 131.201 146.733 130.038 146.054L128.21 145.002V125.841Z" fill="#231F20"/>
<path d="M131.093 153.939C131.093 153.939 131.229 149.254 130.963 148.38C130.696 147.506 128.701 146.37 128.701 146.37L130.526 148.654L131.093 153.939Z" fill="white"/>
<path d="M98.7665 153.939C98.7665 153.939 98.6305 149.254 98.8968 148.38C99.1631 147.506 101.159 146.37 101.159 146.37L99.3332 148.654L98.7665 153.939Z" fill="white"/>
<path d="M126.108 180.755L127.888 175.564L124.908 176.426L126.908 176.426L126.108 180.755Z" fill="white"/>
<rect x="113.651" y="183.032" width="2.29993" height="6.01408" rx="0.65" fill="black" stroke="black" stroke-width="0.3"/>
<rect x="113.801" y="183.481" width="1.99993" height="5.71408" rx="0.5" fill="#9E3E63"/>
<path fill-rule="evenodd" clip-rule="evenodd" d="M114.337 184.491H114.882C115.105 184.491 115.291 184.583 115.291 184.692V188.474C115.291 188.584 115.105 188.675 114.882 188.675H114.337C114.114 188.675 113.928 188.584 113.928 188.474V184.696C113.928 184.583 114.114 184.491 114.337 184.491Z" fill="#F39DB1"/>
<path d="M114.837 184.636C114.962 184.636 115.064 184.539 115.064 184.42C115.064 184.3 114.962 184.203 114.837 184.203C114.711 184.203 114.609 184.3 114.609 184.42C114.609 184.539 114.711 184.636 114.837 184.636Z" fill="white"/>
<path d="M114.156 188.136V186.27C114.156 186.108 114.444 185.848 114.899 185.591C114.948 185.559 115.003 185.529 115.065 185.501C115.008 185.531 114.952 185.561 114.899 185.591C114.551 185.817 114.505 186.128 114.532 186.27L114.532 188.136C114.505 188.278 114.687 188.459 115.301 188.56C114.801 188.56 114.156 188.298 114.156 188.136Z" fill="white"/>
<rect x="-0.187302" y="-0.09959" width="2.29993" height="6.01408" rx="0.65" transform="matrix(0.956305 -0.292371 0.292372 0.956304 105.83 182.939)" fill="black" stroke="black" stroke-width="0.3"/>
<rect width="1.99993" height="5.71408" rx="0.5" transform="matrix(0.956304 -0.292373 0.29237 0.956305 105.609 183.298)" fill="#9E3E63"/>
<path fill-rule="evenodd" clip-rule="evenodd" d="M106.417 184.107L106.938 183.948C107.151 183.882 107.356 183.916 107.388 184.02L108.494 187.637C108.526 187.741 108.375 187.883 108.161 187.949L107.64 188.108C107.426 188.173 107.222 188.14 107.19 188.036L106.085 184.423C106.052 184.314 106.203 184.172 106.417 184.107Z" fill="#F39DB1"/>
<path d="M106.938 184.099C107.058 184.063 107.127 183.94 107.092 183.826C107.057 183.712 106.931 183.649 106.811 183.686C106.691 183.722 106.622 183.845 106.657 183.959C106.692 184.073 106.818 184.136 106.938 184.099Z" fill="white"/>
<path d="M107.309 187.645L106.764 185.861C106.716 185.706 106.916 185.373 107.276 184.994C107.313 184.949 107.357 184.904 107.408 184.86C107.362 184.905 107.318 184.95 107.276 184.994C107.009 185.312 107.056 185.623 107.123 185.751L107.669 187.535C107.685 187.68 107.912 187.799 108.529 187.716C108.05 187.863 107.357 187.801 107.309 187.645Z" fill="white"/>
<rect x="0.187302" y="-0.09959" width="2.29993" height="6.01408" rx="0.65" transform="matrix(-0.956305 -0.292371 -0.292372 0.956304 124.154 182.95)" fill="black" stroke="black" stroke-width="0.3"/>
<rect width="1.99993" height="5.71408" rx="0.5" transform="matrix(-0.956305 -0.292371 -0.292372 0.956304 124.016 183.299)" fill="#9E3E63"/>
<path fill-rule="evenodd" clip-rule="evenodd" d="M123.208 184.108L122.687 183.949C122.474 183.883 122.269 183.917 122.237 184.021L121.131 187.638C121.099 187.742 121.25 187.884 121.464 187.95L121.985 188.109C122.199 188.174 122.403 188.141 122.435 188.037L123.54 184.424C123.573 184.315 123.422 184.173 123.208 184.108Z" fill="#F39DB1"/>
<path d="M122.687 184.1C122.567 184.064 122.498 183.941 122.533 183.827C122.568 183.713 122.694 183.65 122.814 183.686C122.934 183.723 123.003 183.846 122.968 183.96C122.933 184.074 122.807 184.137 122.687 184.1Z" fill="white"/>
<path d="M122.316 187.646L122.861 185.862C122.909 185.707 122.709 185.374 122.349 184.995C122.312 184.95 122.268 184.905 122.217 184.861C122.263 184.906 122.307 184.951 122.349 184.995C122.616 185.313 122.569 185.624 122.502 185.752L121.956 187.536C121.94 187.681 121.713 187.8 121.097 187.717C121.575 187.864 122.268 187.802 122.316 187.646Z" fill="white"/>
<path d="M97.4867 159.248C97.1716 158.956 97.0019 158.656 97 158.353L97.4867 159.248C99.5065 161.122 107.502 162.68 115.6 162.628C123.117 162.58 130.177 161.07 132.154 159.316L132.7 158.353C132.7 158.677 132.509 159 132.154 159.316L130.3 162.582C130.3 164.572 123.152 166.528 115.451 166.581C107.322 166.637 99.3122 164.68 99.2998 162.582L97.4867 159.248Z" fill="#404041"/>
<path d="M97 158.453C97.0143 160.696 106.239 162.789 115.6 162.728C124.468 162.672 132.7 160.58 132.7 158.453" stroke="black"/>
<path d="M99.3008 162.682C99.3132 164.78 107.323 166.737 115.452 166.681C123.153 166.628 130.301 164.672 130.301 162.682" stroke="black"/>
<path d="M114.801 163.083V166.283" stroke="black"/>
<path d="M118.801 162.983V166.183" stroke="black"/>
<path d="M122.801 162.484V165.684" stroke="black"/>
<path d="M126.801 161.683V164.883" stroke="black"/>
<path d="M130.801 159.983V163.183" stroke="black"/>
<path d="M110.801 162.883V166.083" stroke="black"/>
<path d="M106.801 162.583V165.783" stroke="black"/>
<path d="M102.801 161.684V164.884" stroke="black"/>
<path d="M98.8008 159.984V163.184" stroke="black"/>
<path d="M99.3008 172.283C99.3132 174.381 107.323 176.338 115.452 176.282C123.153 176.228 130.301 174.272 130.301 172.283" stroke="black"/>
<path d="M100.9 144.183C100.928 149.55 128.7 149.555 128.7 144.183" stroke="black"/>
<mask id="path-43-outside-2_1233_2887" maskUnits="userSpaceOnUse" x="95.8262" y="122" width="38" height="85" fill="black">
<rect fill="white" x="95.8262" y="122" width="38" height="85"/>
<path fill-rule="evenodd" clip-rule="evenodd" d="M109.733 129.856V125.841C109.733 124.831 108.916 124.014 107.905 124.014H103.309C102.298 124.014 101.481 124.831 101.481 125.841V145.002L99.6537 146.055C98.4907 146.733 97.8262 147.882 97.8262 149.225V159.124L100.083 163.124V171.031C100.083 172.346 100.277 173.467 100.72 174.713L111.062 203.759C111.325 204.507 112.003 204.978 112.792 204.978H116.863C117.652 204.978 118.33 204.507 118.593 203.759L128.935 174.713C129.378 173.467 129.572 172.346 129.572 171.031V163.124L131.829 159.124V149.225C131.829 147.882 131.164 146.733 130.001 146.055L128.174 145.002V125.828C128.174 124.817 127.357 124 126.346 124H121.722C120.711 124 119.895 124.817 119.895 125.828V129.842H109.733V129.856Z"/>
</mask>
<path fill-rule="evenodd" clip-rule="evenodd" d="M109.733 129.856V125.841C109.733 124.831 108.916 124.014 107.905 124.014H103.309C102.298 124.014 101.481 124.831 101.481 125.841V145.002L99.6537 146.055C98.4907 146.733 97.8262 147.882 97.8262 149.225V159.124L100.083 163.124V171.031C100.083 172.346 100.277 173.467 100.72 174.713L111.062 203.759C111.325 204.507 112.003 204.978 112.792 204.978H116.863C117.652 204.978 118.33 204.507 118.593 203.759L128.935 174.713C129.378 173.467 129.572 172.346 129.572 171.031V163.124L131.829 159.124V149.225C131.829 147.882 131.164 146.733 130.001 146.055L128.174 145.002V125.828C128.174 124.817 127.357 124 126.346 124H121.722C120.711 124 119.895 124.817 119.895 125.828V129.842H109.733V129.856Z" stroke="black" stroke-width="3" mask="url(#path-43-outside-2_1233_2887)"/>

        
<mask id="path-1-outside-1_1233_2887" maskUnits="userSpaceOnUse" x="107.67" y="21.3994" width="15" height="33" fill="black">
<rect fill="white" x="107.67" y="21.3994" width="15" height="33"/>
<path fill-rule="evenodd" clip-rule="evenodd" d="M115.277 23.3994C114.723 23.3994 112.619 28.6742 112.619 31.5401V37.078C111.137 38.0887 109.67 39.487 109.67 40.4284C109.67 44.3049 109.67 48.1815 109.67 52.058C113.408 52.058 117.16 52.058 120.898 52.058C120.898 48.1815 120.898 44.3049 120.898 40.4284C120.898 39.487 119.417 38.0887 117.949 37.078V31.5401C117.935 28.6604 115.831 23.3994 115.277 23.3994Z"/>
</mask>
<path fill-rule="evenodd" clip-rule="evenodd" d="M115.277 23.3994C114.723 23.3994 112.619 28.6742 112.619 31.5401V37.078C111.137 38.0887 109.67 39.487 109.67 40.4284C109.67 44.3049 109.67 48.1815 109.67 52.058C113.408 52.058 117.16 52.058 120.898 52.058C120.898 48.1815 120.898 44.3049 120.898 40.4284C120.898 39.487 119.417 38.0887 117.949 37.078V31.5401C117.935 28.6604 115.831 23.3994 115.277 23.3994Z" fill="#6D6E70"/>
<path fill-rule="evenodd" clip-rule="evenodd" d="M115.277 23.3994C114.723 23.3994 112.619 28.6742 112.619 31.5401V37.078C111.137 38.0887 109.67 39.487 109.67 40.4284C109.67 44.3049 109.67 48.1815 109.67 52.058C113.408 52.058 117.16 52.058 120.898 52.058C120.898 48.1815 120.898 44.3049 120.898 40.4284C120.898 39.487 119.417 38.0887 117.949 37.078V31.5401C117.935 28.6604 115.831 23.3994 115.277 23.3994Z" stroke="black" stroke-width="3" mask="url(#path-1-outside-1_1233_2887)"/>
<path d="M112.702 28.3984H117.951V28.7582H112.702V28.3984Z" fill="#BBBDBF"/>
<path d="M112.702 30.2246H117.951V30.5844H112.702V30.2246Z" fill="#BBBDBF"/>
<path d="M112.702 32.0654H117.951V32.4252H112.702V32.0654Z" fill="#BBBDBF"/>
<path d="M112.702 33.8921H117.951V34.2518H112.702V33.8921Z" fill="#BBBDBF"/>
<path d="M112.702 35.7324H117.951V36.0922H112.702V35.7324Z" fill="#BBBDBF"/>
<mask id="path-7-outside-2_1233_2887" maskUnits="userSpaceOnUse" x="107.67" y="21.3994" width="15" height="33" fill="black">
<rect fill="white" x="107.67" y="21.3994" width="15" height="33"/>
<path fill-rule="evenodd" clip-rule="evenodd" d="M115.277 23.3994C114.723 23.3994 112.619 28.6742 112.619 31.5401V37.078C111.137 38.0887 109.67 39.487 109.67 40.4284C109.67 44.3049 109.67 48.1815 109.67 52.058C113.408 52.058 117.16 52.058 120.898 52.058C120.898 48.1815 120.898 44.3049 120.898 40.4284C120.898 39.487 119.417 38.0887 117.949 37.078V31.5401C117.935 28.6604 115.831 23.3994 115.277 23.3994Z"/>
</mask>
<path fill-rule="evenodd" clip-rule="evenodd" d="M115.277 23.3994C114.723 23.3994 112.619 28.6742 112.619 31.5401V37.078C111.137 38.0887 109.67 39.487 109.67 40.4284C109.67 44.3049 109.67 48.1815 109.67 52.058C113.408 52.058 117.16 52.058 120.898 52.058C120.898 48.1815 120.898 44.3049 120.898 40.4284C120.898 39.487 119.417 38.0887 117.949 37.078V31.5401C117.935 28.6604 115.831 23.3994 115.277 23.3994Z" stroke="black" stroke-width="3" mask="url(#path-7-outside-2_1233_2887)"/>
<path d="M112.619 31.5401C112.619 28.6742 114.723 23.3994 115.277 23.3994V52.058H109.67V40.4284C109.67 39.487 111.137 38.0887 112.619 37.078V31.5401Z" fill="#BBBDBF"/>
<mask id="path-9-outside-3_1233_2887" maskUnits="userSpaceOnUse" x="80" y="45.3994" width="34" height="39" fill="black">
<rect fill="white" x="80" y="45.3994" width="34" height="39"/>
<path d="M111.656 50.0077C112.141 48.071 109.8 46.6981 108.346 48.0655L82 72.8387V81.25L106.299 71.4369L111.656 50.0077Z"/>
</mask>
<path d="M111.656 50.0077C112.141 48.071 109.8 46.6981 108.346 48.0655L82 72.8387V81.25L106.299 71.4369L111.656 50.0077Z" fill="#6D6E70"/>
<path d="M111.656 50.0077C112.141 48.071 109.8 46.6981 108.346 48.0655L82 72.8387V81.25L106.299 71.4369L111.656 50.0077Z" stroke="black" stroke-width="3" mask="url(#path-9-outside-3_1233_2887)"/>
<path d="M82 72.8387L113.308 43.3994L84 73.8994L82 81.25V72.8387Z" fill="white"/>
<path d="M113.308 43.3994L106.299 71.4369L97.5 74.9904L102.5 53.5626L113.308 43.3994Z" fill="#404041"/>
<path d="M102.526 68.7989L102.241 72.2788L99.5635 73.5481L101.617 71.565L102.526 68.7989Z" fill="white"/>
<mask id="path-13-outside-4_1233_2887" maskUnits="userSpaceOnUse" x="86.5859" y="59.4614" width="37" height="46" fill="black">
<rect fill="white" x="86.5859" y="59.4614" width="37" height="46"/>
<path d="M119.894 64.4614L88.5859 93.9007V102.312L112.885 92.4989L119.894 64.4614Z"/>
</mask>
<path d="M119.894 64.4614L88.5859 93.9007V102.312L112.885 92.4989L119.894 64.4614Z" fill="#6D6E70"/>
<path d="M119.894 64.4614L88.5859 93.9007V102.312L112.885 92.4989L119.894 64.4614Z" stroke="black" stroke-width="3" mask="url(#path-13-outside-4_1233_2887)"/>
<path d="M88.5859 93.9007L119.894 64.4614L90.4993 94.3994L88.5859 102.312V93.9007Z" fill="white"/>
<path d="M119.895 64.4614L112.885 92.4989L96.5996 99.1124L99.9996 83.1688L119.895 64.4614Z" fill="#404041"/>
<path d="M101.325 93.0919L101.04 96.5718L98.3623 97.8411L100.416 95.858L101.325 93.0919Z" fill="white"/>
<mask id="path-17-outside-5_1233_2887" maskUnits="userSpaceOnUse" x="116.695" y="45.3994" width="34" height="39" fill="black">
<rect fill="white" x="116.695" y="45.3994" width="34" height="39"/>
<path d="M119.039 50.0077C118.555 48.071 120.895 46.6981 122.349 48.0655L148.695 72.8387V81.25L124.396 71.4369L119.039 50.0077Z"/>
</mask>
<path d="M119.039 50.0077C118.555 48.071 120.895 46.6981 122.349 48.0655L148.695 72.8387V81.25L124.396 71.4369L119.039 50.0077Z" fill="#6D6E70"/>
<path d="M119.039 50.0077C118.555 48.071 120.895 46.6981 122.349 48.0655L148.695 72.8387V81.25L124.396 71.4369L119.039 50.0077Z" stroke="black" stroke-width="3" mask="url(#path-17-outside-5_1233_2887)"/>
<path d="M148.695 72.8387L117.387 43.3994L146.695 73.8994L148.695 81.25V72.8387Z" fill="white"/>
<path d="M117.387 43.3994L124.396 71.4369L133.195 74.9904L128.195 53.5626L117.387 43.3994Z" fill="#404041"/>
<mask id="path-20-outside-6_1233_2887" maskUnits="userSpaceOnUse" x="107.109" y="59.4614" width="37" height="46" fill="black">
<rect fill="white" x="107.109" y="59.4614" width="37" height="46"/>
<path d="M110.801 64.4614L142.109 93.9007V102.312L117.81 92.4989L110.801 64.4614Z"/>
</mask>
<path d="M110.801 64.4614L142.109 93.9007V102.312L117.81 92.4989L110.801 64.4614Z" fill="#6D6E70"/>
<path d="M110.801 64.4614L142.109 93.9007V102.312L117.81 92.4989L110.801 64.4614Z" stroke="black" stroke-width="3" mask="url(#path-20-outside-6_1233_2887)"/>
<path d="M142.109 93.9007L110.801 64.4614L140.196 94.3994L142.109 102.312V93.9007Z" fill="white"/>
<path d="M110.801 64.4614L117.81 92.4989L134.096 99.1124L130.696 83.1688L110.801 64.4614Z" fill="#404041"/>
<path d="M128.072 68.7989L128.357 72.2788L131.034 73.5481L128.981 71.565L128.072 68.7989Z" fill="white"/>
<path d="M129.373 93.0919L129.658 96.5718L132.335 97.8411L130.282 95.858L129.373 93.0919Z" fill="white"/>
<mask id="path-25-outside-7_1233_2887" maskUnits="userSpaceOnUse" x="95.5" y="39.979" width="40" height="101" fill="black">
<rect fill="white" x="95.5" y="39.979" width="40" height="101"/>
<path d="M112.84 49.026C112.826 50.2166 112.549 52.058 115.277 52.058C118.004 52.058 117.727 50.2166 117.741 49.026V41.979C119.444 41.979 122.808 42.2697 123.113 44.4711C126.602 69.3915 127.571 85.4237 127.585 110.773C127.585 111.272 127.751 111.687 128.097 112.047C129.758 113.764 131.42 115.467 133.081 117.183V129.353C131.433 131.471 129.786 133.603 128.138 135.722C128.138 140.094 102.459 140.074 102.431 135.707C100.787 133.593 99.1436 131.466 97.5 129.353V117.183C99.1614 115.467 100.823 113.764 102.484 112.047C102.83 111.687 102.996 111.272 102.996 110.773C103.01 85.4099 103.979 69.3915 107.468 44.4711C107.773 42.2697 111.137 41.979 112.84 41.979V49.026Z"/>
</mask>
<path d="M112.84 49.026C112.826 50.2166 112.549 52.058 115.277 52.058C118.004 52.058 117.727 50.2166 117.741 49.026V41.979C119.444 41.979 122.808 42.2697 123.113 44.4711C126.602 69.3915 127.571 85.4237 127.585 110.773C127.585 111.272 127.751 111.687 128.097 112.047C129.758 113.764 131.42 115.467 133.081 117.183V129.353C131.433 131.471 129.786 133.603 128.138 135.722C128.138 140.094 102.459 140.074 102.431 135.707C100.787 133.593 99.1436 131.466 97.5 129.353V117.183C99.1614 115.467 100.823 113.764 102.484 112.047C102.83 111.687 102.996 111.272 102.996 110.773C103.01 85.4099 103.979 69.3915 107.468 44.4711C107.773 42.2697 111.137 41.979 112.84 41.979V49.026Z" fill="#6D6E70"/>
<path d="M102.431 135.707L101.681 135.711L101.683 135.966L101.839 136.167L102.431 135.707ZM101.839 136.167C101.841 136.169 101.843 136.172 101.845 136.174C101.847 136.177 101.849 136.179 101.851 136.182L103.035 135.261C103.033 135.259 103.031 135.256 103.029 135.254C103.027 135.251 103.025 135.249 103.023 135.246L101.839 136.167ZM101.681 135.699C101.681 135.704 101.681 135.708 101.681 135.711L103.181 135.702C103.181 135.701 103.181 135.7 103.181 135.699H101.681ZM112.84 49.026L114.34 49.0434L114.34 49.0347V49.026H112.84ZM112.84 41.979H114.34V40.479H112.84V41.979ZM107.468 44.4711L108.954 44.679L108.954 44.6766L107.468 44.4711ZM102.996 110.773L101.496 110.773V110.773H102.996ZM102.484 112.047L103.562 113.09L103.565 113.087L102.484 112.047ZM97.5 117.183L96.4221 116.14L96 116.577V117.183H97.5ZM97.5 129.353H96V129.868L96.316 130.274L97.5 129.353ZM102.431 135.707L103.931 135.697L103.928 135.188L103.615 134.786L102.431 135.707ZM128.138 135.722L126.954 134.801L126.638 135.207V135.722H128.138ZM133.081 129.353L134.265 130.274L134.581 129.868V129.353H133.081ZM133.081 117.183H134.581V116.577L134.159 116.14L133.081 117.183ZM128.097 112.047L127.016 113.087L127.019 113.09L128.097 112.047ZM127.585 110.773L129.085 110.773L129.085 110.773L127.585 110.773ZM123.113 44.4711L121.627 44.6766L121.627 44.679L123.113 44.4711ZM117.741 41.979V40.479H116.241V41.979H117.741ZM117.741 49.026L119.241 49.0434L119.241 49.0347V49.026H117.741ZM115.277 50.558C114.751 50.558 114.523 50.4674 114.451 50.4291C114.411 50.4075 114.412 50.4038 114.402 50.3807C114.376 50.3218 114.341 50.1932 114.33 49.9372C114.317 49.6482 114.335 49.44 114.34 49.0434L111.34 49.0085C111.338 49.2072 111.316 49.6757 111.333 50.0668C111.351 50.491 111.415 51.0459 111.659 51.5962C111.919 52.1823 112.361 52.7133 113.036 53.0742C113.679 53.4183 114.439 53.558 115.277 53.558V50.558ZM114.34 49.026V41.979H111.34V49.026H114.34ZM112.84 40.479C111.937 40.479 110.487 40.5522 109.174 40.9703C107.914 41.3718 106.257 42.2809 105.982 44.2655L108.954 44.6766C108.984 44.4599 109.161 44.1229 110.085 43.8288C110.956 43.5512 112.04 43.479 112.84 43.479V40.479ZM105.983 44.2631C102.483 69.2596 101.51 85.3476 101.496 110.773L104.496 110.774C104.51 85.4721 105.475 69.5235 108.954 44.679L105.983 44.2631ZM101.496 110.773C101.496 110.852 101.484 110.888 101.478 110.903C101.472 110.918 101.456 110.952 101.403 111.007L103.565 113.087C104.182 112.446 104.496 111.657 104.496 110.773H101.496ZM101.406 111.004C100.577 111.861 99.7471 112.715 98.9163 113.57C98.0857 114.425 97.254 115.281 96.4221 116.14L98.5779 118.227C99.4074 117.37 100.237 116.516 101.068 115.661C101.898 114.806 102.73 113.95 103.562 113.09L101.406 111.004ZM96 117.183V129.353H99V117.183H96ZM96.316 130.274C97.1369 131.329 97.958 132.389 98.78 133.449C99.6016 134.509 100.424 135.57 101.247 136.627L103.615 134.786C102.794 133.73 101.973 132.671 101.151 131.611C100.329 130.551 99.5067 129.49 98.684 128.432L96.316 130.274ZM129.322 136.642C130.147 135.582 130.971 134.519 131.795 133.456C132.619 132.394 133.442 131.332 134.265 130.274L131.897 128.432C131.072 129.492 130.248 130.556 129.424 131.618C128.6 132.681 127.777 133.743 126.954 134.801L129.322 136.642ZM134.581 129.353V117.183H131.581V129.353H134.581ZM134.159 116.14C133.327 115.281 132.495 114.425 131.665 113.57C130.834 112.715 130.004 111.861 129.175 111.004L127.019 113.09C127.851 113.95 128.683 114.806 129.513 115.661C130.344 116.516 131.174 117.37 132.003 118.227L134.159 116.14ZM129.178 111.007C129.125 110.952 129.109 110.918 129.103 110.903C129.097 110.888 129.085 110.852 129.085 110.773H126.085C126.085 111.657 126.399 112.446 127.016 113.087L129.178 111.007ZM129.085 110.773C129.071 85.3615 128.098 69.2596 124.598 44.2631L121.627 44.679C125.105 69.5235 126.071 85.4859 126.085 110.774L129.085 110.773ZM124.599 44.2655C124.324 42.2809 122.667 41.3718 121.406 40.9703C120.094 40.5522 118.644 40.479 117.741 40.479V43.479C118.541 43.479 119.625 43.5512 120.496 43.8288C121.419 44.1229 121.597 44.4599 121.627 44.6766L124.599 44.2655ZM116.241 41.979V49.026H119.241V41.979H116.241ZM116.241 49.0085C116.236 49.4319 116.253 49.6092 116.236 49.9201C116.222 50.1802 116.186 50.3118 116.158 50.3742C116.146 50.4009 116.145 50.4065 116.103 50.4287C116.031 50.4675 115.802 50.558 115.277 50.558V53.558C116.115 53.558 116.874 53.4182 117.517 53.0746C118.191 52.7143 118.633 52.1851 118.895 51.6027C119.14 51.0559 119.208 50.504 119.231 50.084C119.252 49.7147 119.239 49.2154 119.241 49.0434L116.241 49.0085ZM100.931 135.716C100.94 137.084 101.951 137.95 102.789 138.437C103.686 138.959 104.861 139.342 106.127 139.629C108.684 140.21 112.017 140.489 115.294 140.492C118.571 140.494 121.902 140.219 124.456 139.641C125.721 139.355 126.895 138.973 127.79 138.451C128.629 137.963 129.638 137.093 129.638 135.722H126.638C126.638 135.443 126.846 135.529 126.279 135.86C125.77 136.157 124.938 136.456 123.794 136.715C121.533 137.227 118.443 137.494 115.296 137.492C112.15 137.49 109.057 137.218 106.792 136.704C105.646 136.444 104.811 136.143 104.298 135.844C103.726 135.512 103.929 135.421 103.931 135.697L100.931 135.716Z" fill="black" mask="url(#path-25-outside-7_1233_2887)"/>
<path d="M102.996 110.774C103.01 85.4101 103.979 69.3918 107.468 44.4713C107.563 43.7859 107.954 43.2857 108.5 42.9219C107.986 52.8926 106.145 67.3084 105.477 80.3996C104.63 97.0041 104.8 113.4 104.8 113.4L99.5 118.4V131.4L103 136.4C101.352 134.281 99.1475 131.471 97.5 129.353V117.184C99.1614 115.467 100.823 113.764 102.484 112.047C102.83 111.687 102.996 111.272 102.996 110.774Z" fill="#BBBDBF"/>
<path d="M133.082 129.353C131.434 131.471 129.787 133.603 128.139 135.722C128.139 137.91 121.707 138.998 115.277 138.992V52.058C118.005 52.058 117.728 50.2166 117.742 49.026V41.979C119.445 41.979 122.809 42.2697 123.113 44.4711C126.602 69.3915 127.571 85.4237 127.585 110.773C127.585 111.272 127.751 111.687 128.098 112.047C129.759 113.764 131.42 115.467 133.082 117.183V129.353Z" fill="#404041"/>
<path d="M127.603 110.774C127.589 85.4101 126.62 69.3918 123.131 44.4713C123.037 43.7859 122.645 43.2857 122.1 42.9219C122.614 52.8926 124.455 67.3084 125.123 80.3996C125.97 97.0041 125.8 113.4 125.8 113.4L131.8 117.9V130.4L128.157 135.722C129.805 133.604 131.452 131.471 133.1 129.353V117.184C131.438 115.467 129.777 113.764 128.116 112.047C127.769 111.687 127.603 111.272 127.603 110.774Z" fill="#231F20"/>
<path d="M97 129.399C97.0143 131.642 106.639 133.735 116 133.675C124.868 133.618 133.5 131.527 133.5 129.399" stroke="black"/>
<path d="M97 116.399C97.0143 118.642 106.639 120.735 116 120.675C124.868 120.618 133.5 118.527 133.5 116.399" stroke="black"/>
<path d="M102.5 111.399C102.528 115.767 128 115.772 128 111.399" stroke="black"/>
<mask id="path-33-inside-8_1233_2887" fill="white">
<path fill-rule="evenodd" clip-rule="evenodd" d="M115.319 122.899H110.197C109.186 122.899 108.369 123.716 108.369 124.726V128.88C108.369 129.891 109.186 130.707 110.197 130.707H115.319H120.442C121.452 130.707 122.269 129.891 122.269 128.88V124.726C122.269 123.716 121.452 122.899 120.442 122.899H115.319Z"/>
</mask>
<path fill-rule="evenodd" clip-rule="evenodd" d="M115.319 122.899H110.197C109.186 122.899 108.369 123.716 108.369 124.726V128.88C108.369 129.891 109.186 130.707 110.197 130.707H115.319H120.442C121.452 130.707 122.269 129.891 122.269 128.88V124.726C122.269 123.716 121.452 122.899 120.442 122.899H115.319Z" fill="#6D6E70" stroke="black" stroke-width="2" mask="url(#path-33-inside-8_1233_2887)"/>
<path d="M107.35 49.7228C107.35 49.7228 107.839 45.0608 108.219 44.23C108.599 43.3992 111.085 42.8899 111.085 42.8899L108.899 44.6992L107.35 49.7228Z" fill="white"/>
<path d="M123.134 49.7228C123.134 49.7228 122.646 45.0608 122.265 44.23C121.885 43.3992 119.4 42.8899 119.4 42.8899L121.585 44.6992L123.134 49.7228Z" fill="white"/>
<path d="M103.984 105.859L103.915 111.358L107.926 112.645L105 110.331L103.984 105.859Z" fill="white"/>
<path d="M126.942 105.858L127.01 111.357L123 112.644L125.926 110.33L126.942 105.858Z" fill="white"/>
<rect x="102.35" y="123.55" width="1.7" height="4.3" rx="0.65" fill="black" stroke="black" stroke-width="0.3"/>
<rect x="102.301" y="123.7" width="1.4" height="4" rx="0.5" fill="#9E3E63"/>
<path fill-rule="evenodd" clip-rule="evenodd" d="M102.677 124.406H103.059C103.215 124.406 103.345 124.47 103.345 124.547V127.195C103.345 127.271 103.215 127.335 103.059 127.335H102.677C102.521 127.335 102.391 127.271 102.391 127.195V124.55C102.391 124.47 102.521 124.406 102.677 124.406Z" fill="#F39DB1"/>
<path d="M103.026 124.508C103.114 124.508 103.185 124.44 103.185 124.356C103.185 124.272 103.114 124.205 103.026 124.205C102.938 124.205 102.867 124.272 102.867 124.356C102.867 124.44 102.938 124.508 103.026 124.508Z" fill="white"/>
<path d="M102.549 126.958V125.652C102.549 125.538 102.75 125.356 103.069 125.176C103.103 125.154 103.142 125.133 103.185 125.113C103.145 125.134 103.106 125.155 103.069 125.176C102.825 125.334 102.793 125.552 102.812 125.652L102.812 126.958C102.793 127.058 102.921 127.184 103.35 127.255C103 127.255 102.549 127.072 102.549 126.958Z" fill="white"/>
<rect x="126.35" y="123.55" width="1.7" height="4.3" rx="0.65" fill="black" stroke="black" stroke-width="0.3"/>
<rect x="126.699" y="123.7" width="1.4" height="4" rx="0.5" fill="#9E3E63"/>
<path fill-rule="evenodd" clip-rule="evenodd" d="M127.075 124.406H127.457C127.613 124.406 127.743 124.47 127.743 124.547V127.195C127.743 127.271 127.613 127.335 127.457 127.335H127.075C126.919 127.335 126.789 127.271 126.789 127.195V124.55C126.789 124.47 126.919 124.406 127.075 124.406Z" fill="#F39DB1"/>
<path d="M127.425 124.508C127.513 124.508 127.584 124.44 127.584 124.356C127.584 124.272 127.513 124.205 127.425 124.205C127.337 124.205 127.266 124.272 127.266 124.356C127.266 124.44 127.337 124.508 127.425 124.508Z" fill="white"/>
<path d="M126.947 126.958V125.652C126.947 125.538 127.149 125.356 127.467 125.176C127.502 125.154 127.54 125.133 127.584 125.113C127.543 125.134 127.504 125.155 127.467 125.176C127.224 125.334 127.192 125.552 127.21 125.652L127.21 126.958C127.192 127.058 127.319 127.184 127.749 127.255C127.399 127.255 126.947 127.072 126.947 126.958Z" fill="white"/>
<mask id="path-48-outside-9_1233_2887" maskUnits="userSpaceOnUse" x="108.5" y="57.3994" width="14" height="41" fill="black">
<rect fill="white" x="108.5" y="57.3994" width="14" height="41"/>
<path fill-rule="evenodd" clip-rule="evenodd" d="M111.065 67.3708C111.992 61.9575 113.391 58.3994 115.315 58.3994C117.239 58.3994 118.638 61.9437 119.565 67.3708C120.618 73.5317 121.13 82.1985 121.13 90.7407C121.13 91.8482 120.244 93.4127 119.025 94.631C117.932 95.7248 116.547 96.5693 115.315 96.5693C114.069 96.5693 112.698 95.7386 111.605 94.631C110.386 93.4127 109.5 91.8482 109.5 90.7407C109.486 82.1846 109.999 73.5317 111.065 67.3708Z"/>
</mask>
<path fill-rule="evenodd" clip-rule="evenodd" d="M111.065 67.3708C111.992 61.9575 113.391 58.3994 115.315 58.3994C117.239 58.3994 118.638 61.9437 119.565 67.3708C120.618 73.5317 121.13 82.1985 121.13 90.7407C121.13 91.8482 120.244 93.4127 119.025 94.631C117.932 95.7248 116.547 96.5693 115.315 96.5693C114.069 96.5693 112.698 95.7386 111.605 94.631C110.386 93.4127 109.5 91.8482 109.5 90.7407C109.486 82.1846 109.999 73.5317 111.065 67.3708Z" fill="#AA3964"/>
<path fill-rule="evenodd" clip-rule="evenodd" d="M111.065 67.3708C111.992 61.9575 113.391 58.3994 115.315 58.3994C117.239 58.3994 118.638 61.9437 119.565 67.3708C120.618 73.5317 121.13 82.1985 121.13 90.7407C121.13 91.8482 120.244 93.4127 119.025 94.631C117.932 95.7248 116.547 96.5693 115.315 96.5693C114.069 96.5693 112.698 95.7386 111.605 94.631C110.386 93.4127 109.5 91.8482 109.5 90.7407C109.486 82.1846 109.999 73.5317 111.065 67.3708Z" stroke="black" stroke-width="2" mask="url(#path-48-outside-9_1233_2887)"/>
<path fill-rule="evenodd" clip-rule="evenodd" d="M115.319 65.9194C114.004 65.9194 113.672 66.5286 113.049 68.7991C111.872 73.0772 111.18 80.7333 112.329 85.4959C112.869 87.7664 113.519 88.3756 115.333 88.3756C117.133 88.3756 117.783 87.7802 118.337 85.4959C119.473 80.7333 118.78 73.0772 117.617 68.7991C116.967 66.5286 116.634 65.9194 115.319 65.9194Z" fill="#DB5C87"/>
<path d="M115 59.5996C113.345 59.5996 112.143 62.8999 111.345 67.9209C110.429 73.6353 109.988 81.6613 110 89.5973C110 90.1749 110.241 90.8865 110.638 91.5996C109.986 88.3532 110.784 75.3152 111.72 70.2663C112.58 65.6286 114.336 60.664 115 59.5996Z" fill="white"/>
<mask id="path-51-outside-10_1233_2887" maskUnits="userSpaceOnUse" x="106.699" y="90.3994" width="17" height="14" fill="black">
<rect fill="white" x="106.699" y="90.3994" width="17" height="14"/>
<path fill-rule="evenodd" clip-rule="evenodd" d="M115.271 93.3588C117.048 93.3588 119.442 93.3891 120.987 92.4954C121.389 92.2682 121.899 92.556 121.837 93.0104C121.528 95.0704 120.956 97.1002 120.524 99.145C120.045 101.387 117.295 102.084 115.271 102.084C113.247 102.084 110.528 101.387 110.018 99.1602C109.57 97.1607 109.014 95.025 108.705 93.0104C108.643 92.5863 109.106 92.253 109.508 92.4651C111.084 93.3588 113.494 93.3588 115.271 93.3588Z"/>
</mask>
<path fill-rule="evenodd" clip-rule="evenodd" d="M115.271 93.3588C117.048 93.3588 119.442 93.3891 120.987 92.4954C121.389 92.2682 121.899 92.556 121.837 93.0104C121.528 95.0704 120.956 97.1002 120.524 99.145C120.045 101.387 117.295 102.084 115.271 102.084C113.247 102.084 110.528 101.387 110.018 99.1602C109.57 97.1607 109.014 95.025 108.705 93.0104C108.643 92.5863 109.106 92.253 109.508 92.4651C111.084 93.3588 113.494 93.3588 115.271 93.3588Z" fill="#6D6E70"/>
<path fill-rule="evenodd" clip-rule="evenodd" d="M115.271 93.3588C117.048 93.3588 119.442 93.3891 120.987 92.4954C121.389 92.2682 121.899 92.556 121.837 93.0104C121.528 95.0704 120.956 97.1002 120.524 99.145C120.045 101.387 117.295 102.084 115.271 102.084C113.247 102.084 110.528 101.387 110.018 99.1602C109.57 97.1607 109.014 95.025 108.705 93.0104C108.643 92.5863 109.106 92.253 109.508 92.4651C111.084 93.3588 113.494 93.3588 115.271 93.3588Z" stroke="black" stroke-width="2.97443" mask="url(#path-51-outside-10_1233_2887)"/>
<path d="M120.988 92.4954C119.443 93.3891 117.048 93.3588 115.271 93.3588V102.084C117.295 102.084 120.045 101.387 120.524 99.1451C120.957 97.1002 121.529 95.0705 121.838 93.0104C121.899 92.556 121.39 92.2682 120.988 92.4954Z" fill="#404041"/>
<path d="M108.705 93.0104C109.014 95.025 109.57 97.1607 110.018 99.1602L109.508 93.437L111.12 93.0911L109.508 92.4651C109.106 92.253 108.643 92.5863 108.705 93.0104Z" fill="#BBBDBF"/>
<path d="M121.836 93.0104C121.527 95.025 120.971 97.1607 120.523 99.1602L121.033 93.437L119.421 93.0911L121.033 92.4651C121.435 92.253 121.898 92.5863 121.836 93.0104Z" fill="#BBBDBF"/>
<path d="M119.42 93.7832C117.955 93.94 116.452 94.2486 115.17 94.2486C113.949 94.2486 112.526 93.9283 111.119 93.7832C111.119 93.7832 113.511 95.1421 115.17 95.1663C116.903 95.1916 119.42 93.7832 119.42 93.7832Z" fill="white"/>
<path d="M107.605 89.7844C107.605 89.7844 107.603 89.7017 107.602 89.5434C107.6 89.7564 107.599 90.1169 107.601 90.6054L106.865 91.3997C106.856 90.8009 106.85 90.1921 106.848 89.5731C106.848 89.6275 106.847 89.682 106.847 89.7366L106.847 90.3195C106.847 90.1242 106.847 89.9299 106.847 89.7366L106.847 89.4184C106.847 89.2082 106.847 88.9969 106.847 88.7844L106.847 89.4184C106.847 89.4701 106.848 89.5216 106.848 89.5731C106.904 70.9805 110.509 61.5047 110.509 61.5047C107.586 73.2256 107.587 87.5255 107.602 89.5434C107.603 89.3963 107.605 89.3195 107.605 89.3195L107.605 89.7844Z" fill="white"/>
<path d="M123.02 89.7844C123.02 89.7844 123.022 89.7017 123.023 89.5434C123.025 89.7564 123.026 90.1169 123.024 90.6054L123.76 91.3997C123.769 90.8009 123.775 90.1921 123.777 89.5731C123.777 89.6275 123.778 89.682 123.778 89.7366L123.778 90.3195C123.778 90.1242 123.778 89.9299 123.778 89.7366L123.778 89.4184C123.778 89.2082 123.778 88.9969 123.778 88.7844L123.778 89.4184C123.778 89.4701 123.777 89.5216 123.777 89.5731C123.721 70.9805 120.116 61.5047 120.116 61.5047C123.039 73.2256 123.038 87.5255 123.023 89.5434C123.022 89.3963 123.02 89.3195 123.02 89.3195L123.02 89.7844Z" fill="white"/>
<path d="M119.672 88.4743C119.497 89.5467 118.994 90.3552 118.548 90.2827C118.102 90.2103 117.882 89.2827 118.06 88.2103C118.237 87.1379 118.74 86.3294 119.183 86.4042C119.627 86.479 119.849 87.4042 119.672 88.4743Z" fill="white"/>
<path d="M112.149 87.3091C112.622 87.3091 113.006 86.8907 113.006 86.3745C113.006 85.8584 112.622 85.4399 112.149 85.4399C111.675 85.4399 111.291 85.8584 111.291 86.3745C111.291 86.8907 111.675 87.3091 112.149 87.3091Z" fill="white"/>
<path d="M113.599 89.5309C113.874 89.5309 114.097 89.3081 114.097 89.0333C114.097 88.7584 113.874 88.5356 113.599 88.5356C113.324 88.5356 113.102 88.7584 113.102 89.0333C113.102 89.3081 113.324 89.5309 113.599 89.5309Z" fill="white"/>
<path d="M118.72 70.458C119.084 72.9803 119.013 75.0774 118.564 75.1413C118.115 75.2053 117.46 73.2136 117.099 70.6918C116.737 68.17 116.804 66.072 117.255 66.0085C117.706 65.9449 118.357 67.9358 118.72 70.458Z" fill="white"/>
<path d="M119.505 78.3841C119.465 79.4698 119.069 80.3374 118.618 80.3203C118.167 80.3032 117.836 79.4123 117.871 78.3257C117.907 77.2392 118.307 76.3748 118.758 76.3919C119.208 76.409 119.544 77.3007 119.505 78.3841Z" fill="white"/>
<path d="M115.967 60.3175C115.967 60.3175 117.068 62.5013 116.268 65.9577C116.268 65.9577 114.778 63.7398 115.967 60.3175Z" fill="white"/>

    </svg>
