
    <svg width="230" height="230" viewBox="0 0 230 230" fill="none" xmlns="http://www.w3.org/2000/svg">
        
<mask id="path-1-outside-1_1233_2887" maskUnits="userSpaceOnUse" x="71.3008" y="126.955" width="19" height="19" fill="black">
<rect fill="white" x="71.3008" y="126.955" width="19" height="19"/>
<path fill-rule="evenodd" clip-rule="evenodd" d="M87.9485 128.955V136.279C85.3595 136.279 83.3659 136.542 82.2722 137.47C81.22 138.356 80.6246 140.225 80.6246 143.617H73.3008C73.3008 137.843 74.8237 134.216 77.5788 131.89C80.2785 129.62 83.7674 128.955 87.9485 128.955Z"/>
</mask>
<path fill-rule="evenodd" clip-rule="evenodd" d="M87.9485 128.955V136.279C85.3595 136.279 83.3659 136.542 82.2722 137.47C81.22 138.356 80.6246 140.225 80.6246 143.617H73.3008C73.3008 137.843 74.8237 134.216 77.5788 131.89C80.2785 129.62 83.7674 128.955 87.9485 128.955Z" fill="#6D6E70"/>
<path fill-rule="evenodd" clip-rule="evenodd" d="M87.9485 128.955V136.279C85.3595 136.279 83.3659 136.542 82.2722 137.47C81.22 138.356 80.6246 140.225 80.6246 143.617H73.3008C73.3008 137.843 74.8237 134.216 77.5788 131.89C80.2785 129.62 83.7674 128.955 87.9485 128.955Z" stroke="black" stroke-width="3" mask="url(#path-1-outside-1_1233_2887)"/>
<path d="M87.3473 135.778C84.7583 135.778 82.7647 136.041 81.671 136.969C80.6188 137.855 80.0234 139.724 80.0234 143.116" stroke="#404041" stroke-width="1.5"/>
<path d="M88.3469 129.656C84.1658 129.656 80.677 130.32 77.9772 132.591C75.2221 134.917 73.6992 138.544 73.6992 144.317" stroke="white" stroke-width="1.5"/>
<mask id="path-4-outside-2_1233_2887" maskUnits="userSpaceOnUse" x="84.1074" y="123.3" width="27" height="26" fill="black">
<rect fill="white" x="84.1074" y="123.3" width="27" height="26"/>
<path fill-rule="evenodd" clip-rule="evenodd" d="M105.628 125.3H89.7763C87.7549 125.3 86.1074 126.948 86.1074 128.969V143.631C86.1074 145.652 87.7549 147.3 89.7763 147.3H96.6432C97.3632 147.3 97.9862 147.12 98.5953 146.732L107.581 141.056C108.674 140.363 109.283 139.256 109.283 137.954V128.983C109.297 126.948 107.65 125.3 105.628 125.3Z"/>
</mask>
<path fill-rule="evenodd" clip-rule="evenodd" d="M105.628 125.3H89.7763C87.7549 125.3 86.1074 126.948 86.1074 128.969V143.631C86.1074 145.652 87.7549 147.3 89.7763 147.3H96.6432C97.3632 147.3 97.9862 147.12 98.5953 146.732L107.581 141.056C108.674 140.363 109.283 139.256 109.283 137.954V128.983C109.297 126.948 107.65 125.3 105.628 125.3Z" fill="#6D6E70"/>
<path fill-rule="evenodd" clip-rule="evenodd" d="M105.628 125.3H89.7763C87.7549 125.3 86.1074 126.948 86.1074 128.969V143.631C86.1074 145.652 87.7549 147.3 89.7763 147.3H96.6432C97.3632 147.3 97.9862 147.12 98.5953 146.732L107.581 141.056C108.674 140.363 109.283 139.256 109.283 137.954V128.983C109.297 126.948 107.65 125.3 105.628 125.3Z" stroke="black" stroke-width="3" mask="url(#path-4-outside-2_1233_2887)"/>
<path d="M107.58 141.056L98.5949 146.732C98.5491 146.761 98.5032 146.789 98.4571 146.816C97.3599 144.98 97.2627 132.98 97.8599 130.48C98.3377 128.48 103.059 126.314 105.36 125.48L105.628 125.3C107.649 125.3 109.297 126.948 109.283 128.983V137.954C109.283 139.256 108.674 140.363 107.58 141.056Z" fill="#404041"/>
<path d="M89.7763 125.3H105.628C101.706 126.194 93.1604 126.08 90.3604 126.48C86.8604 126.98 87.7604 132.48 87.7604 137.954C87.7604 142.352 89.1376 146.009 89.7763 147.3C87.7549 147.3 86.1074 145.652 86.1074 143.631V128.969C86.1074 126.948 87.7549 125.3 89.7763 125.3Z" fill="white"/>
<path fill-rule="evenodd" clip-rule="evenodd" d="M58.7853 67.5518H62.5151C63.2029 67.5518 63.7672 68.1073 63.7584 68.795L63.388 104.885H58.7765C58.0887 104.885 57.5332 104.33 57.5332 103.642V68.795C57.542 68.1073 58.1063 67.5518 58.7853 67.5518Z" fill="#6D6E70"/>
<path d="M57.6581 73.1738L63.541 73.1738L63.541 70.8676L57.6581 70.8676L57.6581 73.1738Z" fill="#404041"/>
<path d="M57.6373 73.1738L63.5625 73.1738L63.5625 70.8676L57.6373 70.8676L57.6373 73.1738Z" stroke="black" stroke-width="0.429643"/>
<path d="M62.8121 73.0801L63.127 73.0801L63.127 71.2219L62.8121 71.2219L62.8121 73.0801Z" fill="black"/>
<path d="M62.1323 73.0801L62.4473 73.0801L62.4473 71.2219L62.1323 71.2219L62.1323 73.0801Z" fill="black"/>
<path d="M58.7495 73.0801L59.0645 73.0801L59.0645 71.2219L58.7495 71.2219L58.7495 73.0801Z" fill="black"/>
<path d="M58.0718 73.0801L58.3867 73.0801L58.3867 71.2219L58.0718 71.2219L58.0718 73.0801Z" fill="black"/>
<path d="M57.6104 71.0586L58.7056 71.0586L63.5886 71.0586L64.0117 70.5705L63.3375 67.0003L58.7056 67.0003L57.8614 67.0003L57.1877 70.5705L57.6104 71.0586Z" fill="#6D6E70"/>
<path d="M57.61 71.0581L58.6722 71.0581L58.2496 70.57L58.9238 66.9998L57.8611 66.9998L57.1874 70.57L57.61 71.0581Z" fill="white"/>
<path d="M62.1725 71.0581L63.5886 71.0581L64.0117 70.57L63.3375 66.9998L61.9214 66.9998L62.5956 70.57L62.1725 71.0581Z" fill="#404041"/>
<path d="M57.6104 71.0581L58.7056 71.0581L63.5886 71.0581L64.0117 70.57L63.3375 66.9998L58.7056 66.9998L57.8614 66.9998L57.1877 70.57L57.6104 71.0581Z" stroke="black" stroke-width="0.811667"/>
<path d="M57.3324 69.8716L63.8652 69.8716L63.8652 69.1541L57.3324 69.1541L57.3324 69.8716Z" fill="black"/>
<path d="M57.1711 74.4902L64.0254 74.4902L64.0254 74.0032L57.1711 74.0032L57.1711 74.4902Z" fill="white"/>
<path d="M57.0995 108.662L64.0977 108.662L64.0977 72.6598L57.0995 72.6598L57.0995 108.662Z" fill="#6D6E70"/>
<path d="M57.0992 108.662L59.4082 108.662L59.4082 72.6598L57.0992 72.6598L57.0992 108.662Z" fill="white"/>
<path d="M64.0977 108.662L64.0977 72.6593L61.5003 72.6593L61.5003 108.662L64.0977 108.662Z" fill="#404041"/>
<path d="M57.0995 108.662L64.0977 108.662L64.0977 72.6598L57.0995 72.6598L57.0995 108.662Z" stroke="black" stroke-width="0.811667"/>
<path d="M57.1711 74.1655L64.0254 74.1655L64.0254 73.6785L57.1711 73.6785L57.1711 74.1655Z" fill="black"/>
<path fill-rule="evenodd" clip-rule="evenodd" d="M66.0292 80.5381H67.6407C67.9379 80.5381 68.1817 80.7781 68.1779 81.0752L68.0179 96.668H66.0254C65.7283 96.668 65.4883 96.428 65.4883 96.1309V81.0752C65.4921 80.7781 65.7359 80.5381 66.0292 80.5381Z" fill="#6D6E70"/>
<path d="M65.5422 82.9673L68.084 82.9673L68.084 81.9709L65.5422 81.9709L65.5422 82.9673Z" fill="#404041"/>
<path d="M65.5338 82.9673L68.0938 82.9673L68.0938 81.9709L65.5338 81.9709L65.5338 82.9673Z" stroke="black" stroke-width="0.360895"/>
<path d="M67.7682 82.9268L67.9043 82.9268L67.9043 82.1239L67.7682 82.1239L67.7682 82.9268Z" fill="black"/>
<path d="M67.4753 82.9268L67.6113 82.9268L67.6113 82.1239L67.4753 82.1239L67.4753 82.9268Z" fill="black"/>
<path d="M66.0143 82.9268L66.1504 82.9268L66.1504 82.1239L66.0143 82.1239L66.0143 82.9268Z" fill="black"/>
<path d="M65.7213 82.9268L65.8574 82.9268L65.8574 82.1239L65.7213 82.1239L65.7213 82.9268Z" fill="black"/>
<path d="M65.5214 82.0532L65.9946 82.0532L68.1043 82.0532L68.2871 81.8423L67.9958 80.2998L65.9946 80.2998L65.6299 80.2998L65.3388 81.8423L65.5214 82.0532Z" fill="#6D6E70"/>
<path d="M65.5202 82.0532L65.9792 82.0532L65.7966 81.8423L66.0879 80.2998L65.6287 80.2998L65.3376 81.8423L65.5202 82.0532Z" fill="white"/>
<path d="M67.4925 82.0532L68.1043 82.0532L68.2871 81.8423L67.9958 80.2998L67.384 80.2998L67.6753 81.8423L67.4925 82.0532Z" fill="#404041"/>
<path d="M65.5214 82.0532L65.9946 82.0532L68.1043 82.0532L68.2871 81.8423L67.9958 80.2998L65.9946 80.2998L65.6299 80.2998L65.3388 81.8423L65.5214 82.0532Z" stroke="black" stroke-width="0.681792"/>
<path d="M65.4021 81.5405L68.2246 81.5405L68.2246 81.2305L65.4021 81.2305L65.4021 81.5405Z" fill="black"/>
<path d="M65.3316 83.5361L68.293 83.5361L68.293 83.3257L65.3316 83.3257L65.3316 83.5361Z" fill="white"/>
<path d="M65.3006 98.2998L68.3242 98.2998L68.3242 82.7452L65.3006 82.7452L65.3006 98.2998Z" fill="#6D6E70"/>
<path d="M65.3012 98.2998L66.2988 98.2998L66.2988 82.7452L65.3012 82.7452L65.3012 98.2998Z" fill="white"/>
<path d="M68.3242 98.2998L68.3242 82.7449L67.202 82.7449L67.202 98.2998L68.3242 98.2998Z" fill="#404041"/>
<path d="M65.3006 98.2998L68.3242 98.2998L68.3242 82.7452L65.3006 82.7452L65.3006 98.2998Z" stroke="black" stroke-width="0.681792"/>
<path d="M65.3316 83.3955L68.293 83.3955L68.293 83.1851L65.3316 83.1851L65.3316 83.3955Z" fill="black"/>
<mask id="path-43-outside-3_1233_2887" maskUnits="userSpaceOnUse" x="55.0078" y="82.8149" width="61" height="118" fill="black">
<rect fill="white" x="55.0078" y="82.8149" width="61" height="118"/>
<path d="M68.0005 97.8076L57.0078 86.8149V194.901C57.0078 199.954 68.0005 199.954 68.0005 194.901V181.181V165.3L113.799 146.3V126.3L68.0005 145.8V134.87V97.8076Z"/>
</mask>
<path d="M68.0005 97.8076L57.0078 86.8149V194.901C57.0078 199.954 68.0005 199.954 68.0005 194.901V181.181V165.3L113.799 146.3V126.3L68.0005 145.8V134.87V97.8076Z" fill="#6D6E70"/>
<path d="M70.1154 165.232L114.087 146.993L113.512 145.607L69.5407 163.846L70.1154 165.232ZM57.0078 86.8149L58.0685 85.7543L55.5078 83.1936V86.8149H57.0078ZM68.0005 97.8076H69.5005V97.1863L69.0612 96.747L68.0005 97.8076ZM68.0005 145.8H66.5005V148.069L68.5881 147.18L68.0005 145.8ZM113.799 146.3L114.374 147.685L115.299 147.301V146.3H113.799ZM113.799 126.3H115.299V124.031L113.212 124.92L113.799 126.3ZM68.0005 165.3L67.4257 163.914L66.5005 164.298V165.3H68.0005ZM55.9472 87.8756L66.9399 98.8683L69.0612 96.747L58.0685 85.7543L55.9472 87.8756ZM66.5005 97.8076V134.87H69.5005V97.8076H66.5005ZM66.5005 181.181V194.901H69.5005V181.181H66.5005ZM66.5005 194.901C66.5005 195.522 66.1972 196.036 65.499 196.464C64.7618 196.916 63.6776 197.191 62.5042 197.191C61.3307 197.191 60.2466 196.916 59.5093 196.464C58.8111 196.036 58.5078 195.522 58.5078 194.901H55.5078C55.5078 196.805 56.5786 198.187 57.9416 199.022C59.2654 199.833 60.9295 200.191 62.5042 200.191C64.0789 200.191 65.7429 199.833 67.0668 199.022C68.4297 198.187 69.5005 196.805 69.5005 194.901H66.5005ZM58.5078 194.901V86.8149H55.5078V194.901H58.5078ZM69.5005 145.8V134.87H66.5005V145.8H69.5005ZM68.5881 147.18L114.387 127.68L113.212 124.92L67.4129 144.42L68.5881 147.18ZM112.299 126.3V146.3H115.299V126.3H112.299ZM113.225 144.914L67.4257 163.914L68.5753 166.685L114.374 147.685L113.225 144.914ZM66.5005 165.3V181.181H69.5005V165.3H66.5005Z" fill="black" mask="url(#path-43-outside-3_1233_2887)"/>
<rect x="61.6508" y="191.45" width="1.7" height="4.3" rx="0.65" fill="black" stroke="black" stroke-width="0.3"/>
<rect x="61.8008" y="191.6" width="1.4" height="4" rx="0.5" fill="#9E3E63"/>
<path fill-rule="evenodd" clip-rule="evenodd" d="M62.1769 192.307H62.5587C62.7149 192.307 62.845 192.371 62.845 192.447V195.095C62.845 195.171 62.7149 195.235 62.5587 195.235H62.1769C62.0208 195.235 61.8906 195.171 61.8906 195.095V192.45C61.8906 192.371 62.0208 192.307 62.1769 192.307Z" fill="#F39DB1"/>
<path d="M62.5263 192.408C62.6141 192.408 62.6853 192.34 62.6853 192.256C62.6853 192.173 62.6141 192.105 62.5263 192.105C62.4384 192.105 62.3672 192.173 62.3672 192.256C62.3672 192.34 62.4384 192.408 62.5263 192.408Z" fill="white"/>
<path d="M62.0488 194.858V193.552C62.0488 193.438 62.2505 193.257 62.5688 193.077C62.6032 193.054 62.6418 193.033 62.6851 193.014C62.6448 193.035 62.606 193.056 62.5688 193.077C62.3252 193.235 62.2931 193.452 62.3118 193.552L62.3118 194.858C62.2931 194.958 62.4207 195.085 62.8503 195.155C62.5003 195.155 62.0488 194.972 62.0488 194.858Z" fill="white"/>
<path d="M68.002 134.87V97.8081L66.4941 96.3003V197.607C67.4071 196.979 68.002 196.077 68.002 194.901V181.181V165.3L113.801 146.3V137.3L69.8295 145.022L68.002 145.8V134.87Z" fill="#404041"/>
<path d="M70.5363 151.384L70.9409 145.899L75.1417 143.866L71.9328 147.016L70.5363 151.384Z" fill="white"/>
<path d="M64.3008 95.3003L67.3068 98.1569L67.3156 102.727L66.4234 98.6192L64.3008 95.3003Z" fill="white"/>
<path d="M57.0078 86.8154V194.901C57.0078 196.067 57.5927 196.964 58.4927 197.591V88.3003L57.0078 86.8154Z" fill="white"/>
<path d="M56.0996 155.14C56.0996 155.14 59.3516 152.668 59.3516 150.554V140.571C59.3516 138.099 56.1321 136.506 56.1321 136.506L56.0996 155.14Z" fill="#404041"/>
<path d="M55.4285 136.3C55.4285 136.3 53 137.904 53 140.158V150.999C53 152.82 55.7746 154.944 55.7746 154.944L57.7699 149.741V140.552L55.4285 136.3Z" fill="#F39DB1"/>
<path d="M56.4692 138.189V147.14L54.4738 152.343C53.9448 151.922 53.4518 151.459 53 150.956V150.999C53 152.82 55.7746 154.944 55.7746 154.944L57.7699 149.741V140.552L56.4692 138.189Z" fill="#9E3E63"/>
<path d="M55.4285 136.3C55.4285 136.3 53 137.904 53 140.158V150.999C53 152.82 55.7746 154.944 55.7746 154.944C55.7746 154.944 57.7699 150.944 57.7699 149.741V140.552C57.7699 139.009 55.4285 136.3 55.4285 136.3Z" stroke="black"/>
<path d="M54.2583 146.229C54.2583 146.229 53.1526 138.902 55.2339 138.077C55.2339 138.081 54.3012 144.386 54.2583 146.229Z" fill="white"/>
<path d="M68.0556 143.2L68 167.235L70 144.993L68.0556 143.2Z" fill="black"/>
<path d="M61.8008 90.8003V123.3L68.8008 130.3" stroke="black"/>
<mask id="path-61-outside-4_1233_2887" maskUnits="userSpaceOnUse" x="140.197" y="126.955" width="19" height="19" fill="black">
<rect fill="white" x="140.197" y="126.955" width="19" height="19"/>
<path fill-rule="evenodd" clip-rule="evenodd" d="M142.55 128.955V136.279C145.139 136.279 147.132 136.542 148.226 137.47C149.278 138.356 149.873 140.225 149.873 143.617H157.197C157.197 137.843 155.674 134.216 152.919 131.89C150.22 129.62 146.731 128.955 142.55 128.955Z"/>
</mask>
<path fill-rule="evenodd" clip-rule="evenodd" d="M142.55 128.955V136.279C145.139 136.279 147.132 136.542 148.226 137.47C149.278 138.356 149.873 140.225 149.873 143.617H157.197C157.197 137.843 155.674 134.216 152.919 131.89C150.22 129.62 146.731 128.955 142.55 128.955Z" fill="#6D6E70"/>
<path fill-rule="evenodd" clip-rule="evenodd" d="M142.55 128.955V136.279C145.139 136.279 147.132 136.542 148.226 137.47C149.278 138.356 149.873 140.225 149.873 143.617H157.197C157.197 137.843 155.674 134.216 152.919 131.89C150.22 129.62 146.731 128.955 142.55 128.955Z" stroke="black" stroke-width="3" mask="url(#path-61-outside-4_1233_2887)"/>
<path d="M143.151 135.778C145.74 135.778 147.733 136.041 148.827 136.969C149.879 137.855 150.475 139.724 150.475 143.116" stroke="#404041" stroke-width="1.5"/>
<path d="M142.151 129.656C146.332 129.656 149.821 130.32 152.521 132.591C155.276 134.917 156.799 138.544 156.799 144.317" stroke="white" stroke-width="1.5"/>
<mask id="path-64-outside-5_1233_2887" maskUnits="userSpaceOnUse" x="119.391" y="123.3" width="27" height="26" fill="black">
<rect fill="white" x="119.391" y="123.3" width="27" height="26"/>
<path fill-rule="evenodd" clip-rule="evenodd" d="M124.87 125.3H140.722C142.743 125.3 144.391 126.948 144.391 128.969V143.631C144.391 145.652 142.743 147.3 140.722 147.3H133.855C133.135 147.3 132.512 147.12 131.903 146.732L122.917 141.056C121.824 140.363 121.215 139.256 121.215 137.954V128.983C121.201 126.948 122.848 125.3 124.87 125.3Z"/>
</mask>
<path fill-rule="evenodd" clip-rule="evenodd" d="M124.87 125.3H140.722C142.743 125.3 144.391 126.948 144.391 128.969V143.631C144.391 145.652 142.743 147.3 140.722 147.3H133.855C133.135 147.3 132.512 147.12 131.903 146.732L122.917 141.056C121.824 140.363 121.215 139.256 121.215 137.954V128.983C121.201 126.948 122.848 125.3 124.87 125.3Z" fill="#6D6E70"/>
<path fill-rule="evenodd" clip-rule="evenodd" d="M124.87 125.3H140.722C142.743 125.3 144.391 126.948 144.391 128.969V143.631C144.391 145.652 142.743 147.3 140.722 147.3H133.855C133.135 147.3 132.512 147.12 131.903 146.732L122.917 141.056C121.824 140.363 121.215 139.256 121.215 137.954V128.983C121.201 126.948 122.848 125.3 124.87 125.3Z" stroke="black" stroke-width="3" mask="url(#path-64-outside-5_1233_2887)"/>
<path d="M122.918 141.056L131.903 146.732C131.949 146.761 131.995 146.789 132.041 146.816C133.138 144.98 133.235 132.98 132.638 130.48C132.16 128.48 127.439 126.314 125.138 125.48L124.87 125.3C122.849 125.3 121.201 126.948 121.215 128.983V137.954C121.215 139.256 121.824 140.363 122.918 141.056Z" fill="#404041"/>
<path d="M140.722 125.3H124.87C128.792 126.194 137.338 126.08 140.138 126.48C143.638 126.98 142.738 132.48 142.738 137.954C142.738 142.352 141.36 146.009 140.722 147.3C142.743 147.3 144.391 145.652 144.391 143.631V128.969C144.391 126.948 142.743 125.3 140.722 125.3Z" fill="white"/>
<path fill-rule="evenodd" clip-rule="evenodd" d="M171.713 67.5518H167.983C167.295 67.5518 166.731 68.1073 166.74 68.795L167.11 104.885H171.722C172.409 104.885 172.965 104.33 172.965 103.642V68.795C172.956 68.1073 172.392 67.5518 171.713 67.5518Z" fill="#6D6E70"/>
<path d="M172.84 73.1738L166.957 73.1738L166.957 70.8676L172.84 70.8676L172.84 73.1738Z" fill="#404041"/>
<path d="M172.861 73.1738L166.936 73.1738L166.936 70.8676L172.861 70.8676L172.861 73.1738Z" stroke="black" stroke-width="0.429643"/>
<path d="M167.686 73.0801L167.371 73.0801L167.371 71.2219L167.686 71.2219L167.686 73.0801Z" fill="black"/>
<path d="M168.366 73.0801L168.051 73.0801L168.051 71.2219L168.366 71.2219L168.366 73.0801Z" fill="black"/>
<path d="M171.749 73.0801L171.434 73.0801L171.434 71.2219L171.749 71.2219L171.749 73.0801Z" fill="black"/>
<path d="M172.426 73.0801L172.111 73.0801L172.111 71.2219L172.426 71.2219L172.426 73.0801Z" fill="black"/>
<path d="M172.888 71.0586L171.792 71.0586L166.909 71.0586L166.486 70.5705L167.161 67.0003L171.792 67.0003L172.637 67.0003L173.31 70.5705L172.888 71.0586Z" fill="#6D6E70"/>
<path d="M172.888 71.0581L171.826 71.0581L172.248 70.57L171.574 66.9998L172.637 66.9998L173.311 70.57L172.888 71.0581Z" fill="white"/>
<path d="M168.326 71.0581L166.909 71.0581L166.486 70.57L167.161 66.9998L168.577 66.9998L167.902 70.57L168.326 71.0581Z" fill="#404041"/>
<path d="M172.888 71.0581L171.792 71.0581L166.909 71.0581L166.486 70.57L167.161 66.9998L171.792 66.9998L172.637 66.9998L173.31 70.57L172.888 71.0581Z" stroke="black" stroke-width="0.811667"/>
<path d="M173.166 69.8716L166.633 69.8716L166.633 69.1541L173.166 69.1541L173.166 69.8716Z" fill="black"/>
<path d="M173.327 74.4902L166.473 74.4902L166.473 74.0032L173.327 74.0032L173.327 74.4902Z" fill="white"/>
<path d="M173.399 108.662L166.4 108.662L166.4 72.6598L173.399 72.6598L173.399 108.662Z" fill="#6D6E70"/>
<path d="M173.399 108.662L171.09 108.662L171.09 72.6598L173.399 72.6598L173.399 108.662Z" fill="white"/>
<path d="M166.4 108.662L166.4 72.6593L168.998 72.6593L168.998 108.662L166.4 108.662Z" fill="#404041"/>
<path d="M173.399 108.662L166.4 108.662L166.4 72.6598L173.399 72.6598L173.399 108.662Z" stroke="black" stroke-width="0.811667"/>
<path d="M173.327 74.1655L166.473 74.1655L166.473 73.6785L173.327 73.6785L173.327 74.1655Z" fill="black"/>
<path fill-rule="evenodd" clip-rule="evenodd" d="M164.469 80.5381H162.857C162.56 80.5381 162.316 80.7781 162.32 81.0752L162.48 96.668H164.473C164.77 96.668 165.01 96.428 165.01 96.1309V81.0752C165.006 80.7781 164.762 80.5381 164.469 80.5381Z" fill="#6D6E70"/>
<path d="M164.956 82.9673L162.414 82.9673L162.414 81.9709L164.956 81.9709L164.956 82.9673Z" fill="#404041"/>
<path d="M164.964 82.9673L162.404 82.9673L162.404 81.9709L164.964 81.9709L164.964 82.9673Z" stroke="black" stroke-width="0.360895"/>
<path d="M162.73 82.9268L162.594 82.9268L162.594 82.1239L162.73 82.1239L162.73 82.9268Z" fill="black"/>
<path d="M163.023 82.9268L162.887 82.9268L162.887 82.1239L163.023 82.1239L163.023 82.9268Z" fill="black"/>
<path d="M164.484 82.9268L164.348 82.9268L164.348 82.1239L164.484 82.1239L164.484 82.9268Z" fill="black"/>
<path d="M164.777 82.9268L164.641 82.9268L164.641 82.1239L164.777 82.1239L164.777 82.9268Z" fill="black"/>
<path d="M164.977 82.0532L164.503 82.0532L162.394 82.0532L162.211 81.8423L162.502 80.2998L164.503 80.2998L164.868 80.2998L165.159 81.8423L164.977 82.0532Z" fill="#6D6E70"/>
<path d="M164.978 82.0532L164.519 82.0532L164.701 81.8423L164.41 80.2998L164.869 80.2998L165.16 81.8423L164.978 82.0532Z" fill="white"/>
<path d="M163.006 82.0532L162.394 82.0532L162.211 81.8423L162.502 80.2998L163.114 80.2998L162.823 81.8423L163.006 82.0532Z" fill="#404041"/>
<path d="M164.977 82.0532L164.503 82.0532L162.394 82.0532L162.211 81.8423L162.502 80.2998L164.503 80.2998L164.868 80.2998L165.159 81.8423L164.977 82.0532Z" stroke="black" stroke-width="0.681792"/>
<path d="M165.096 81.5405L162.273 81.5405L162.273 81.2305L165.096 81.2305L165.096 81.5405Z" fill="black"/>
<path d="M165.166 83.5361L162.205 83.5361L162.205 83.3257L165.166 83.3257L165.166 83.5361Z" fill="white"/>
<path d="M165.197 98.2998L162.174 98.2998L162.174 82.7452L165.197 82.7452L165.197 98.2998Z" fill="#6D6E70"/>
<path d="M165.197 98.2998L164.199 98.2998L164.199 82.7452L165.197 82.7452L165.197 98.2998Z" fill="white"/>
<path d="M162.174 98.2998L162.174 82.7449L163.296 82.7449L163.296 98.2998L162.174 98.2998Z" fill="#404041"/>
<path d="M165.197 98.2998L162.174 98.2998L162.174 82.7452L165.197 82.7452L165.197 98.2998Z" stroke="black" stroke-width="0.681792"/>
<path d="M165.166 83.3955L162.205 83.3955L162.205 83.1851L165.166 83.1851L165.166 83.3955Z" fill="black"/>
<mask id="path-103-outside-6_1233_2887" maskUnits="userSpaceOnUse" x="114.49" y="82.8149" width="61" height="118" fill="black">
<rect fill="white" x="114.49" y="82.8149" width="61" height="118"/>
<path d="M162.498 97.8076L173.49 86.8149V194.901C173.49 199.954 162.498 199.954 162.498 194.901V181.181V165.3L116.699 146.3V126.3L162.498 145.8V134.87V97.8076Z"/>
</mask>
<path d="M162.498 97.8076L173.49 86.8149V194.901C173.49 199.954 162.498 199.954 162.498 194.901V181.181V165.3L116.699 146.3V126.3L162.498 145.8V134.87V97.8076Z" fill="#6D6E70"/>
<path d="M160.383 165.232L116.411 146.993L116.986 145.607L160.957 163.846L160.383 165.232ZM173.49 86.8149L172.43 85.7543L174.99 83.1936V86.8149H173.49ZM162.498 97.8076H160.998V97.1863L161.437 96.747L162.498 97.8076ZM162.498 145.8H163.998V148.069L161.91 147.18L162.498 145.8ZM116.699 146.3L116.124 147.685L115.199 147.301V146.3H116.699ZM116.699 126.3H115.199V124.031L117.286 124.92L116.699 126.3ZM162.498 165.3L163.072 163.914L163.998 164.298V165.3H162.498ZM174.551 87.8756L163.558 98.8683L161.437 96.747L172.43 85.7543L174.551 87.8756ZM163.998 97.8076V134.87H160.998V97.8076H163.998ZM163.998 181.181V194.901H160.998V181.181H163.998ZM163.998 194.901C163.998 195.522 164.301 196.036 164.999 196.464C165.736 196.916 166.82 197.191 167.994 197.191C169.167 197.191 170.251 196.916 170.989 196.464C171.687 196.036 171.99 195.522 171.99 194.901H174.99C174.99 196.805 173.919 198.187 172.556 199.022C171.233 199.833 169.569 200.191 167.994 200.191C166.419 200.191 164.755 199.833 163.431 199.022C162.068 198.187 160.998 196.805 160.998 194.901H163.998ZM171.99 194.901V86.8149H174.99V194.901H171.99ZM160.998 145.8V134.87H163.998V145.8H160.998ZM161.91 147.18L116.111 127.68L117.286 124.92L163.085 144.42L161.91 147.18ZM118.199 126.3V146.3H115.199V126.3H118.199ZM117.274 144.914L163.072 163.914L161.923 166.685L116.124 147.685L117.274 144.914ZM163.998 165.3V181.181H160.998V165.3H163.998Z" fill="black" mask="url(#path-103-outside-6_1233_2887)"/>
<rect x="0.15" y="-0.15" width="1.7" height="4.3" rx="0.65" transform="matrix(-1 0 0 1 168.997 191.6)" fill="black" stroke="black" stroke-width="0.3"/>
<rect width="1.4" height="4" rx="0.5" transform="matrix(-1 0 0 1 168.697 191.6)" fill="#9E3E63"/>
<path fill-rule="evenodd" clip-rule="evenodd" d="M168.321 192.307H167.939C167.783 192.307 167.653 192.371 167.653 192.447V195.095C167.653 195.171 167.783 195.235 167.939 195.235H168.321C168.477 195.235 168.607 195.171 168.607 195.095V192.45C168.607 192.371 168.477 192.307 168.321 192.307Z" fill="#F39DB1"/>
<path d="M167.972 192.408C167.884 192.408 167.813 192.34 167.813 192.256C167.813 192.173 167.884 192.105 167.972 192.105C168.06 192.105 168.131 192.173 168.131 192.256C168.131 192.34 168.06 192.408 167.972 192.408Z" fill="white"/>
<path d="M168.449 194.858V193.552C168.449 193.438 168.248 193.257 167.929 193.077C167.895 193.054 167.856 193.033 167.813 193.014C167.853 193.035 167.892 193.056 167.929 193.077C168.173 193.235 168.205 193.452 168.186 193.552L168.186 194.858C168.205 194.958 168.077 195.085 167.648 195.155C167.998 195.155 168.449 194.972 168.449 194.858Z" fill="white"/>
<path d="M162.496 134.87V97.8081L164.004 96.3003V197.607C163.091 196.979 162.496 196.077 162.496 194.901V181.181V165.3L116.697 146.3V137.3L160.669 145.022L162.496 145.8V134.87Z" fill="#404041"/>
<path d="M159.962 151.384L159.557 145.899L155.356 143.866L158.565 147.016L159.962 151.384Z" fill="white"/>
<path d="M166.197 95.3003L163.191 98.1569L163.182 102.727L164.075 98.6192L166.197 95.3003Z" fill="white"/>
<path d="M173.49 86.8154V194.901C173.49 196.067 172.905 196.964 172.005 197.591V88.3003L173.49 86.8154Z" fill="white"/>
<path d="M174.398 155.14C174.398 155.14 171.146 152.668 171.146 150.554V140.571C171.146 138.099 174.366 136.506 174.366 136.506L174.398 155.14Z" fill="#404041"/>
<path d="M175.07 136.3C175.07 136.3 177.498 137.904 177.498 140.158V150.999C177.498 152.82 174.723 154.944 174.723 154.944L172.728 149.741V140.552L175.07 136.3Z" fill="#F39DB1"/>
<path d="M174.029 138.189V147.14L176.024 152.343C176.553 151.922 177.046 151.459 177.498 150.956V150.999C177.498 152.82 174.723 154.944 174.723 154.944L172.728 149.741V140.552L174.029 138.189Z" fill="#9E3E63"/>
<path d="M175.07 136.3C175.07 136.3 177.498 137.904 177.498 140.158V150.999C177.498 152.82 174.723 154.944 174.723 154.944C174.723 154.944 172.728 150.944 172.728 149.741V140.552C172.728 139.009 175.07 136.3 175.07 136.3Z" stroke="black"/>
<path d="M176.24 146.229C176.24 146.229 177.345 138.902 175.264 138.077C175.264 138.081 176.197 144.386 176.24 146.229Z" fill="white"/>
<path d="M162.442 143.2L162.498 167.235L160.498 144.993L162.442 143.2Z" fill="black"/>
<path d="M168.697 90.8003V123.3L161.697 130.3" stroke="black"/>

        
<mask id="path-1-inside-1_1233_2887" fill="white">
<path fill-rule="evenodd" clip-rule="evenodd" d="M91.1855 145.463V161.716H107.951C109.101 159.183 109.737 156.386 109.737 153.423C109.737 150.585 109.156 147.899 108.09 145.449H91.1855V145.463Z"/>
</mask>
<path fill-rule="evenodd" clip-rule="evenodd" d="M91.1855 145.463V161.716H107.951C109.101 159.183 109.737 156.386 109.737 153.423C109.737 150.585 109.156 147.899 108.09 145.449H91.1855V145.463Z" fill="#404041" stroke="black" stroke-width="3" mask="url(#path-1-inside-1_1233_2887)"/>
<mask id="path-2-outside-2_1233_2887" maskUnits="userSpaceOnUse" x="42" y="131" width="52" height="45" fill="black">
<rect fill="white" x="42" y="131" width="52" height="45"/>
<path fill-rule="evenodd" clip-rule="evenodd" d="M45.9128 173.512H87.9454C90.0498 173.512 91.7527 171.796 91.7527 169.705V136.824C91.7527 133.529 87.8761 131.784 85.4118 133.972L44.6391 170.19C43.3377 171.353 44.1545 173.512 45.9128 173.512Z"/>
</mask>
<path fill-rule="evenodd" clip-rule="evenodd" d="M45.9128 173.512H87.9454C90.0498 173.512 91.7527 171.796 91.7527 169.705V136.824C91.7527 133.529 87.8761 131.784 85.4118 133.972L44.6391 170.19C43.3377 171.353 44.1545 173.512 45.9128 173.512Z" fill="#6D6E70"/>
<path fill-rule="evenodd" clip-rule="evenodd" d="M45.9128 173.512H87.9454C90.0498 173.512 91.7527 171.796 91.7527 169.705V136.824C91.7527 133.529 87.8761 131.784 85.4118 133.972L44.6391 170.19C43.3377 171.353 44.1545 173.512 45.9128 173.512Z" stroke="black" stroke-width="3" mask="url(#path-2-outside-2_1233_2887)"/>
<path d="M91.753 136.824V169.705C91.753 171.548 90.429 173.101 88.6732 173.443V173.004V133.074C88.8428 133.108 89.0099 133.154 89.1732 133.21C90.6113 133.704 91.753 135.036 91.753 136.824Z" fill="#404041"/>
<path d="M90.354 141.275C90.354 141.275 90.6253 136.595 90.3844 135.714C90.1435 134.833 87.7731 133.928 87.7731 133.928L89.6375 136.067L90.354 141.275Z" fill="white"/>
<path d="M83.6753 172.434C83.6753 172.434 88.3596 172.608 89.2357 172.349C90.1118 172.089 90.9667 169.701 90.9667 169.701L88.8672 171.609L83.6753 172.434Z" fill="white"/>
<path d="M64.4758 169.734H71.1674C71.8964 169.734 73.282 172.397 73.7516 173.647H75.9712C75.3931 170.512 73.2913 167.004 71.1674 167.004H64.4758C62.3519 167.004 60.0022 170.512 59.6719 173.647H61.8915C62.3611 172.397 63.7445 169.734 64.4758 169.734Z" fill="#404041"/>
<path d="M70.8151 169.224H64.8268C62.8805 169.224 61.8828 172.883 61.8828 172.883H73.759C73.759 172.883 72.752 169.224 70.8151 169.224Z" fill="black" stroke="black" stroke-width="1.63552"/>
<path d="M68.4888 170.948C68.4888 171.081 68.4496 171.21 68.3762 171.32C68.3027 171.429 68.1985 171.515 68.0764 171.566C67.9543 171.616 67.8199 171.63 67.6903 171.604C67.5607 171.578 67.4415 171.514 67.348 171.421C67.2546 171.327 67.1909 171.208 67.1652 171.079C67.1394 170.949 67.1527 170.815 67.2033 170.693C67.2538 170.571 67.3395 170.466 67.4493 170.393C67.5592 170.319 67.6884 170.28 67.8206 170.28C67.9978 170.28 68.1678 170.35 68.2931 170.476C68.4184 170.601 68.4888 170.771 68.4888 170.948Z" fill="#00ADEE"/>
<path d="M71.77 170.948C71.77 171.081 71.7308 171.21 71.6574 171.32C71.584 171.429 71.4797 171.515 71.3576 171.566C71.2355 171.616 71.1011 171.63 70.9714 171.604C70.8418 171.578 70.7227 171.514 70.6293 171.421C70.5358 171.327 70.4722 171.208 70.4464 171.079C70.4206 170.949 70.4339 170.815 70.4845 170.693C70.5351 170.571 70.6207 170.466 70.7306 170.393C70.8405 170.319 70.9697 170.28 71.1018 170.28C71.2791 170.28 71.4491 170.35 71.5744 170.476C71.6997 170.601 71.77 170.771 71.77 170.948V170.948Z" fill="#00ADEE"/>
<path d="M65.2076 170.948C65.2076 171.081 65.1683 171.21 65.0948 171.32C65.0214 171.429 64.9171 171.515 64.795 171.566C64.6729 171.616 64.5386 171.63 64.409 171.604C64.2793 171.578 64.1603 171.514 64.0668 171.421C63.9734 171.327 63.9097 171.208 63.8839 171.079C63.8582 170.949 63.8714 170.815 63.9219 170.693C63.9725 170.571 64.0581 170.466 64.168 170.393C64.2779 170.319 64.4071 170.28 64.5392 170.28C64.7165 170.28 64.8865 170.35 65.0118 170.476C65.1371 170.601 65.2076 170.771 65.2076 170.948Z" fill="#00ADEE"/>
<path d="M44.6391 170.19L85.4118 133.972C86.1735 133.296 87.07 132.995 87.9454 133L45.9128 173.512C44.1545 173.512 43.3377 171.353 44.6391 170.19Z" fill="white"/>
<path d="M72.0942 144.849C72.0942 144.849 72.636 147.151 72.5968 149.476C72.22 150.321 70.4097 152.645 68.5166 153.804L65.9426 152.421L60.3742 155.421C60.3742 155.421 68.771 145.303 72.0942 144.849Z" fill="#404041"/>
<path d="M70.266 143.332C70.7648 143.471 71.2111 143.756 71.5484 144.149C71.6577 144.779 71.5825 149.046 71.5825 149.046C71.5825 149.046 70.5045 151.07 68.4605 152.372L65.8665 150.968C65.8665 150.968 60.2152 155.179 59.5996 155.32C58.9414 154.774 58.8972 153.7 58.8972 153.7C58.8972 153.7 65.2558 145.476 70.266 143.332Z" fill="#F39DB1"/>
<path d="M59.1686 153.544C59.783 153.402 65.9356 149.137 65.9356 149.137L68.3695 150.324C69.9395 149.322 71.0336 147.709 71.6101 146.893C71.6045 148.016 71.5865 149.046 71.5865 149.046C71.5865 149.046 70.5085 151.07 68.4645 152.372L65.8705 150.968C65.8705 150.968 60.2192 155.179 59.6036 155.32C58.9454 154.774 58.9013 153.7 58.9013 153.7C58.9013 153.7 58.9566 153.608 59.0663 153.447C59.0983 153.481 59.1325 153.514 59.1686 153.544V153.544Z" fill="#9E3E63"/>
<path d="M70.266 143.332C70.7648 143.471 71.2111 143.756 71.5484 144.149C71.6577 144.779 71.5825 149.046 71.5825 149.046C71.5825 149.046 70.5045 151.07 68.4605 152.372L65.8665 150.968C65.8665 150.968 60.2152 155.179 59.5996 155.32C58.9414 154.774 58.8972 153.7 58.8972 153.7C58.8972 153.7 65.2558 145.476 70.266 143.332Z" stroke="black"/>
<path d="M70.59 144.693L69.9512 144.421C69.9512 144.421 65.1008 147.057 60.4394 152.975C60.4394 152.975 67.5192 146.215 70.59 144.693Z" fill="white"/>
<path d="M71.2644 145.569L69.7675 147.027L71.4828 146.772L71.2644 145.569Z" fill="black"/>
<path d="M82.6719 136.004V160.504C82.6719 162.713 80.881 164.504 78.6719 164.504H50.1719" stroke="black"/>
<rect x="87.5234" y="145.254" width="2.5" height="18.5" rx="0.75" fill="black" stroke="black" stroke-width="0.5"/>
<rect x="88.0742" y="145.504" width="2" height="18" rx="0.5" fill="#9E3E63"/>
<path fill-rule="evenodd" clip-rule="evenodd" d="M88.6102 148.685H89.1556C89.3787 148.685 89.5646 148.973 89.5646 149.317V161.232C89.5646 161.576 89.3787 161.864 89.1556 161.864H88.6102C88.3871 161.864 88.2012 161.576 88.2012 161.232V149.331C88.2012 148.973 88.3871 148.685 88.6102 148.685Z" fill="#F39DB1"/>
<path d="M89.1101 149.14C89.2356 149.14 89.3373 148.835 89.3373 148.458C89.3373 148.082 89.2356 147.776 89.1101 147.776C88.9846 147.776 88.8828 148.082 88.8828 148.458C88.8828 148.835 88.9846 149.14 89.1101 149.14Z" fill="white"/>
<path d="M88.4297 160.166V154.29C88.4297 153.778 88.7177 152.959 89.1725 152.149C89.2216 152.049 89.2768 151.954 89.3386 151.866C89.2811 151.96 89.2256 152.055 89.1725 152.149C88.8246 152.861 88.7787 153.84 88.8054 154.29L88.8054 160.166C88.7787 160.616 88.9609 161.185 89.5747 161.504C89.0747 161.504 88.4297 160.678 88.4297 160.166Z" fill="white"/>
<mask id="path-24-inside-3_1233_2887" fill="white">
<path fill-rule="evenodd" clip-rule="evenodd" d="M138.852 145.463V161.716H122.086C120.937 159.183 120.3 156.386 120.3 153.423C120.3 150.585 120.881 147.899 121.947 145.449H138.852V145.463Z"/>
</mask>
<path fill-rule="evenodd" clip-rule="evenodd" d="M138.852 145.463V161.716H122.086C120.937 159.183 120.3 156.386 120.3 153.423C120.3 150.585 120.881 147.899 121.947 145.449H138.852V145.463Z" fill="#404041" stroke="black" stroke-width="3" mask="url(#path-24-inside-3_1233_2887)"/>
<mask id="path-25-outside-4_1233_2887" maskUnits="userSpaceOnUse" x="136.037" y="131" width="52" height="45" fill="black">
<rect fill="white" x="136.037" y="131" width="52" height="45"/>
<path fill-rule="evenodd" clip-rule="evenodd" d="M184.124 173.512H142.092C139.987 173.512 138.284 171.796 138.284 169.705V136.824C138.284 133.529 142.161 131.784 144.625 133.972L185.398 170.19C186.699 171.353 185.883 173.512 184.124 173.512Z"/>
</mask>
<path fill-rule="evenodd" clip-rule="evenodd" d="M184.124 173.512H142.092C139.987 173.512 138.284 171.796 138.284 169.705V136.824C138.284 133.529 142.161 131.784 144.625 133.972L185.398 170.19C186.699 171.353 185.883 173.512 184.124 173.512Z" fill="#6D6E70"/>
<path fill-rule="evenodd" clip-rule="evenodd" d="M184.124 173.512H142.092C139.987 173.512 138.284 171.796 138.284 169.705V136.824C138.284 133.529 142.161 131.784 144.625 133.972L185.398 170.19C186.699 171.353 185.883 173.512 184.124 173.512Z" stroke="black" stroke-width="3" mask="url(#path-25-outside-4_1233_2887)"/>
<path d="M138.284 136.824V169.705C138.284 171.548 139.608 173.101 141.364 173.443V173.004V133.074C141.194 133.108 141.027 133.154 140.864 133.21C139.426 133.704 138.284 135.036 138.284 136.824Z" fill="#404041"/>
<path d="M139.683 141.275C139.683 141.275 139.412 136.595 139.653 135.714C139.894 134.833 142.264 133.928 142.264 133.928L140.4 136.067L139.683 141.275Z" fill="white"/>
<path d="M146.362 172.434C146.362 172.434 141.677 172.608 140.801 172.349C139.925 172.089 139.07 169.701 139.07 169.701L141.17 171.609L146.362 172.434Z" fill="white"/>
<path d="M165.561 169.734H158.87C158.141 169.734 156.755 172.397 156.286 173.647H154.066C154.644 170.512 156.746 167.004 158.87 167.004H165.561C167.685 167.004 170.035 170.512 170.365 173.647H168.146C167.676 172.397 166.293 169.734 165.561 169.734Z" fill="#404041"/>
<path d="M159.222 169.224H165.21C167.157 169.224 168.154 172.883 168.154 172.883H156.278C156.278 172.883 157.285 169.224 159.222 169.224Z" fill="black" stroke="black" stroke-width="1.63552"/>
<path d="M161.548 170.948C161.548 171.081 161.588 171.21 161.661 171.32C161.734 171.429 161.839 171.515 161.961 171.566C162.083 171.616 162.217 171.63 162.347 171.604C162.476 171.578 162.596 171.514 162.689 171.421C162.783 171.327 162.846 171.208 162.872 171.079C162.898 170.949 162.884 170.815 162.834 170.693C162.783 170.571 162.698 170.466 162.588 170.393C162.478 170.319 162.349 170.28 162.217 170.28C162.039 170.28 161.869 170.35 161.744 170.476C161.619 170.601 161.548 170.771 161.548 170.948Z" fill="#00ADEE"/>
<path d="M158.267 170.948C158.267 171.081 158.306 171.21 158.38 171.32C158.453 171.429 158.557 171.515 158.68 171.566C158.802 171.616 158.936 171.63 159.066 171.604C159.195 171.578 159.314 171.514 159.408 171.421C159.501 171.327 159.565 171.208 159.591 171.079C159.616 170.949 159.603 170.815 159.553 170.693C159.502 170.571 159.416 170.466 159.307 170.393C159.197 170.319 159.067 170.28 158.935 170.28C158.758 170.28 158.588 170.35 158.463 170.476C158.337 170.601 158.267 170.771 158.267 170.948V170.948Z" fill="#00ADEE"/>
<path d="M164.83 170.948C164.83 171.081 164.869 171.21 164.942 171.32C165.016 171.429 165.12 171.515 165.242 171.566C165.364 171.616 165.499 171.63 165.628 171.604C165.758 171.578 165.877 171.514 165.97 171.421C166.064 171.327 166.127 171.208 166.153 171.079C166.179 170.949 166.166 170.815 166.115 170.693C166.065 170.571 165.979 170.466 165.869 170.393C165.759 170.319 165.63 170.28 165.498 170.28C165.321 170.28 165.151 170.35 165.025 170.476C164.9 170.601 164.83 170.771 164.83 170.948Z" fill="#00ADEE"/>
<path d="M185.398 170.19L144.625 133.972C143.864 133.296 142.967 132.995 142.092 133L184.124 173.512C185.883 173.512 186.699 171.353 185.398 170.19Z" fill="white"/>
<path d="M157.943 144.849C157.943 144.849 157.401 147.151 157.44 149.476C157.817 150.321 159.627 152.645 161.521 153.804L164.094 152.421L169.663 155.421C169.663 155.421 161.266 145.303 157.943 144.849Z" fill="#404041"/>
<path d="M159.771 143.332C159.272 143.471 158.826 143.756 158.489 144.149C158.379 144.779 158.455 149.046 158.455 149.046C158.455 149.046 159.533 151.07 161.577 152.372L164.171 150.968C164.171 150.968 169.822 155.179 170.437 155.32C171.096 154.774 171.14 153.7 171.14 153.7C171.14 153.7 164.781 145.476 159.771 143.332Z" fill="#F39DB1"/>
<path d="M170.869 153.544C170.254 153.402 164.101 149.137 164.101 149.137L161.668 150.324C160.098 149.322 159.003 147.709 158.427 146.893C158.433 148.016 158.451 149.046 158.451 149.046C158.451 149.046 159.529 151.07 161.573 152.372L164.167 150.968C164.167 150.968 169.818 155.179 170.433 155.32C171.092 154.774 171.136 153.7 171.136 153.7C171.136 153.7 171.08 153.608 170.971 153.447C170.939 153.481 170.905 153.514 170.869 153.544V153.544Z" fill="#9E3E63"/>
<path d="M159.771 143.332C159.272 143.471 158.826 143.756 158.489 144.149C158.379 144.779 158.455 149.046 158.455 149.046C158.455 149.046 159.533 151.07 161.577 152.372L164.171 150.968C164.171 150.968 169.822 155.179 170.437 155.32C171.096 154.774 171.14 153.7 171.14 153.7C171.14 153.7 164.781 145.476 159.771 143.332Z" stroke="black"/>
<path d="M159.447 144.693L160.086 144.421C160.086 144.421 164.936 147.057 169.598 152.975C169.598 152.975 162.518 146.215 159.447 144.693Z" fill="white"/>
<path d="M158.773 145.569L160.27 147.027L158.554 146.772L158.773 145.569Z" fill="black"/>
<path d="M147.365 136.004V160.504C147.365 162.713 149.156 164.504 151.365 164.504H179.865" stroke="black"/>
<rect x="0.25" y="-0.25" width="2.5" height="18.5" rx="0.75" transform="matrix(-1 0 0 1 142.764 145.504)" fill="black" stroke="black" stroke-width="0.5"/>
<rect width="2" height="18" rx="0.5" transform="matrix(-1 0 0 1 141.963 145.504)" fill="#9E3E63"/>
<path fill-rule="evenodd" clip-rule="evenodd" d="M141.427 148.685H140.882C140.658 148.685 140.473 148.973 140.473 149.317V161.232C140.473 161.576 140.658 161.864 140.882 161.864H141.427C141.65 161.864 141.836 161.576 141.836 161.232V149.331C141.836 148.973 141.65 148.685 141.427 148.685Z" fill="#F39DB1"/>
<path d="M140.927 149.14C140.802 149.14 140.7 148.835 140.7 148.458C140.7 148.082 140.802 147.776 140.927 147.776C141.053 147.776 141.154 148.082 141.154 148.458C141.154 148.835 141.053 149.14 140.927 149.14Z" fill="white"/>
<path d="M141.607 160.166V154.29C141.607 153.778 141.319 152.959 140.865 152.149C140.815 152.049 140.76 151.954 140.698 151.866C140.756 151.96 140.811 152.055 140.865 152.149C141.213 152.861 141.258 153.84 141.232 154.29L141.232 160.166C141.258 160.616 141.076 161.185 140.462 161.504C140.962 161.504 141.607 160.678 141.607 160.166Z" fill="white"/>

        
<mask id="path-1-outside-1_1233_2887" maskUnits="userSpaceOnUse" x="95.8262" y="122" width="38" height="85" fill="black">
<rect fill="white" x="95.8262" y="122" width="38" height="85"/>
<path fill-rule="evenodd" clip-rule="evenodd" d="M109.733 129.856V125.841C109.733 124.831 108.916 124.014 107.905 124.014H103.309C102.298 124.014 101.481 124.831 101.481 125.841V145.002L99.6537 146.055C98.4907 146.733 97.8262 147.882 97.8262 149.225V159.124L100.083 163.124V171.031C100.083 172.346 100.277 173.467 100.72 174.713L111.062 203.759C111.325 204.507 112.003 204.978 112.792 204.978H116.863C117.652 204.978 118.33 204.507 118.593 203.759L128.935 174.713C129.378 173.467 129.572 172.346 129.572 171.031V163.124L131.829 159.124V149.225C131.829 147.882 131.164 146.733 130.001 146.055L128.174 145.002V125.828C128.174 124.817 127.357 124 126.346 124H121.722C120.711 124 119.895 124.817 119.895 125.828V129.842H109.733V129.856Z"/>
</mask>
<path fill-rule="evenodd" clip-rule="evenodd" d="M109.733 129.856V125.841C109.733 124.831 108.916 124.014 107.905 124.014H103.309C102.298 124.014 101.481 124.831 101.481 125.841V145.002L99.6537 146.055C98.4907 146.733 97.8262 147.882 97.8262 149.225V159.124L100.083 163.124V171.031C100.083 172.346 100.277 173.467 100.72 174.713L111.062 203.759C111.325 204.507 112.003 204.978 112.792 204.978H116.863C117.652 204.978 118.33 204.507 118.593 203.759L128.935 174.713C129.378 173.467 129.572 172.346 129.572 171.031V163.124L131.829 159.124V149.225C131.829 147.882 131.164 146.733 130.001 146.055L128.174 145.002V125.828C128.174 124.817 127.357 124 126.346 124H121.722C120.711 124 119.895 124.817 119.895 125.828V129.842H109.733V129.856Z" fill="#6D6E70"/>
<path fill-rule="evenodd" clip-rule="evenodd" d="M109.733 129.856V125.841C109.733 124.831 108.916 124.014 107.905 124.014H103.309C102.298 124.014 101.481 124.831 101.481 125.841V145.002L99.6537 146.055C98.4907 146.733 97.8262 147.882 97.8262 149.225V159.124L100.083 163.124V171.031C100.083 172.346 100.277 173.467 100.72 174.713L111.062 203.759C111.325 204.507 112.003 204.978 112.792 204.978H116.863C117.652 204.978 118.33 204.507 118.593 203.759L128.935 174.713C129.378 173.467 129.572 172.346 129.572 171.031V163.124L131.829 159.124V149.225C131.829 147.882 131.164 146.733 130.001 146.055L128.174 145.002V125.828C128.174 124.817 127.357 124 126.346 124H121.722C120.711 124 119.895 124.817 119.895 125.828V129.842H109.733V129.856Z" stroke="black" stroke-width="3" mask="url(#path-1-outside-1_1233_2887)"/>
<path d="M101.481 125.841C101.481 124.831 102.298 124.014 103.309 124.014V146.682L100.72 149.225V160.182L103.309 165.182V174.713L112.792 204.978C112.003 204.978 111.325 204.507 111.062 203.759L100.72 174.713C100.277 173.467 100.083 172.346 100.083 171.03V163.124L97.8262 159.124V149.225C97.8262 147.882 98.4907 146.733 99.6537 146.054L101.481 145.002V125.841Z" fill="#BBBDBF"/>
<path d="M103.579 180.755L101.8 175.564L104.78 176.426L102.78 176.426L103.579 180.755Z" fill="white"/>
<path d="M118.592 203.759C118.329 204.507 117.651 204.978 116.862 204.978H114.812V129.842H119.894V125.828C119.894 124.817 120.71 124 121.721 124H126.345C127.356 124 128.173 124.817 128.173 125.828V145.002L130 146.055C131.163 146.733 131.828 147.882 131.828 149.225V159.124L129.571 163.124V171.031C129.571 172.346 129.377 173.467 128.934 174.713L118.592 203.759Z" fill="#404041"/>
<path fill-rule="evenodd" clip-rule="evenodd" d="M120.075 156.495C120.075 156.066 120.075 155.623 120.075 155.193C120.075 154.653 119.438 154.044 118.705 154.21C116.365 154.75 114.011 154.75 111.671 154.21C110.938 154.044 110.301 154.653 110.301 155.193C110.301 155.623 110.301 156.066 110.301 156.495C110.301 157.035 110.924 157.339 111.671 157.478C114.011 157.907 116.365 157.907 118.705 157.478C119.452 157.339 120.075 157.035 120.075 156.495Z" fill="black"/>
<path fill-rule="evenodd" clip-rule="evenodd" d="M119.618 156.813C119.618 156.384 119.618 155.941 119.618 155.512C119.618 155.152 119.203 154.792 118.705 154.861C116.365 155.166 114.011 155.166 111.672 154.861C111.173 154.792 110.758 155.152 110.758 155.512C110.758 155.941 110.758 156.384 110.758 156.813C110.758 157.173 111.173 157.381 111.672 157.464C114.011 157.893 116.365 157.893 118.705 157.464C119.203 157.381 119.618 157.173 119.618 156.813Z" fill="#9E3E63"/>
<path fill-rule="evenodd" clip-rule="evenodd" d="M118.705 156.688C118.705 156.342 118.705 155.996 118.705 155.65C118.705 155.359 118.373 155.055 117.985 155.124C116.13 155.498 114.261 155.498 112.405 155.124C112.018 155.041 111.686 155.359 111.686 155.65C111.686 155.996 111.686 156.342 111.686 156.688C111.686 156.979 112.018 157.159 112.405 157.214C114.205 157.464 116.06 157.477 117.985 157.214C118.373 157.145 118.705 156.965 118.705 156.688Z" fill="#F39DB1"/>
<path d="M112.303 157.221C111.972 157.181 111.688 157.054 111.688 156.848V156.356C112.125 156.848 113.911 156.967 114.766 156.967C115.62 156.967 117.401 156.614 117.688 156.485V156.848C117.688 157.044 117.403 157.172 117.072 157.221C115.427 157.407 113.841 157.397 112.303 157.221Z" fill="white"/>
<path d="M117.286 155.522C117.286 155.431 117.508 155.356 117.783 155.356C118.057 155.356 118.279 155.431 118.279 155.522C118.279 155.613 118.057 155.687 117.783 155.687C117.508 155.687 117.286 155.613 117.286 155.522Z" fill="white"/>
<path d="M128.21 125.841C128.21 124.831 127.393 124.014 126.383 124.014V146.682L128.972 149.225V160.182L126.383 165.182V174.713L116.899 204.978C117.688 204.978 118.367 204.507 118.63 203.759L128.972 174.713C129.415 173.467 129.609 172.346 129.609 171.03V163.124L131.865 159.124V149.225C131.865 147.882 131.201 146.733 130.038 146.054L128.21 145.002V125.841Z" fill="#231F20"/>
<path d="M131.093 153.939C131.093 153.939 131.229 149.254 130.963 148.38C130.696 147.506 128.701 146.37 128.701 146.37L130.526 148.654L131.093 153.939Z" fill="white"/>
<path d="M98.7665 153.939C98.7665 153.939 98.6305 149.254 98.8968 148.38C99.1631 147.506 101.159 146.37 101.159 146.37L99.3332 148.654L98.7665 153.939Z" fill="white"/>
<path d="M126.108 180.755L127.888 175.564L124.908 176.426L126.908 176.426L126.108 180.755Z" fill="white"/>
<rect x="113.651" y="183.032" width="2.29993" height="6.01408" rx="0.65" fill="black" stroke="black" stroke-width="0.3"/>
<rect x="113.801" y="183.481" width="1.99993" height="5.71408" rx="0.5" fill="#9E3E63"/>
<path fill-rule="evenodd" clip-rule="evenodd" d="M114.337 184.491H114.882C115.105 184.491 115.291 184.583 115.291 184.692V188.474C115.291 188.584 115.105 188.675 114.882 188.675H114.337C114.114 188.675 113.928 188.584 113.928 188.474V184.696C113.928 184.583 114.114 184.491 114.337 184.491Z" fill="#F39DB1"/>
<path d="M114.837 184.636C114.962 184.636 115.064 184.539 115.064 184.42C115.064 184.3 114.962 184.203 114.837 184.203C114.711 184.203 114.609 184.3 114.609 184.42C114.609 184.539 114.711 184.636 114.837 184.636Z" fill="white"/>
<path d="M114.156 188.136V186.27C114.156 186.108 114.444 185.848 114.899 185.591C114.948 185.559 115.003 185.529 115.065 185.501C115.008 185.531 114.952 185.561 114.899 185.591C114.551 185.817 114.505 186.128 114.532 186.27L114.532 188.136C114.505 188.278 114.687 188.459 115.301 188.56C114.801 188.56 114.156 188.298 114.156 188.136Z" fill="white"/>
<rect x="-0.187302" y="-0.09959" width="2.29993" height="6.01408" rx="0.65" transform="matrix(0.956305 -0.292371 0.292372 0.956304 105.83 182.939)" fill="black" stroke="black" stroke-width="0.3"/>
<rect width="1.99993" height="5.71408" rx="0.5" transform="matrix(0.956304 -0.292373 0.29237 0.956305 105.609 183.298)" fill="#9E3E63"/>
<path fill-rule="evenodd" clip-rule="evenodd" d="M106.417 184.107L106.938 183.948C107.151 183.882 107.356 183.916 107.388 184.02L108.494 187.637C108.526 187.741 108.375 187.883 108.161 187.949L107.64 188.108C107.426 188.173 107.222 188.14 107.19 188.036L106.085 184.423C106.052 184.314 106.203 184.172 106.417 184.107Z" fill="#F39DB1"/>
<path d="M106.938 184.099C107.058 184.063 107.127 183.94 107.092 183.826C107.057 183.712 106.931 183.649 106.811 183.686C106.691 183.722 106.622 183.845 106.657 183.959C106.692 184.073 106.818 184.136 106.938 184.099Z" fill="white"/>
<path d="M107.309 187.645L106.764 185.861C106.716 185.706 106.916 185.373 107.276 184.994C107.313 184.949 107.357 184.904 107.408 184.86C107.362 184.905 107.318 184.95 107.276 184.994C107.009 185.312 107.056 185.623 107.123 185.751L107.669 187.535C107.685 187.68 107.912 187.799 108.529 187.716C108.05 187.863 107.357 187.801 107.309 187.645Z" fill="white"/>
<rect x="0.187302" y="-0.09959" width="2.29993" height="6.01408" rx="0.65" transform="matrix(-0.956305 -0.292371 -0.292372 0.956304 124.154 182.95)" fill="black" stroke="black" stroke-width="0.3"/>
<rect width="1.99993" height="5.71408" rx="0.5" transform="matrix(-0.956305 -0.292371 -0.292372 0.956304 124.016 183.299)" fill="#9E3E63"/>
<path fill-rule="evenodd" clip-rule="evenodd" d="M123.208 184.108L122.687 183.949C122.474 183.883 122.269 183.917 122.237 184.021L121.131 187.638C121.099 187.742 121.25 187.884 121.464 187.95L121.985 188.109C122.199 188.174 122.403 188.141 122.435 188.037L123.54 184.424C123.573 184.315 123.422 184.173 123.208 184.108Z" fill="#F39DB1"/>
<path d="M122.687 184.1C122.567 184.064 122.498 183.941 122.533 183.827C122.568 183.713 122.694 183.65 122.814 183.686C122.934 183.723 123.003 183.846 122.968 183.96C122.933 184.074 122.807 184.137 122.687 184.1Z" fill="white"/>
<path d="M122.316 187.646L122.861 185.862C122.909 185.707 122.709 185.374 122.349 184.995C122.312 184.95 122.268 184.905 122.217 184.861C122.263 184.906 122.307 184.951 122.349 184.995C122.616 185.313 122.569 185.624 122.502 185.752L121.956 187.536C121.94 187.681 121.713 187.8 121.097 187.717C121.575 187.864 122.268 187.802 122.316 187.646Z" fill="white"/>
<path d="M97.4867 159.248C97.1716 158.956 97.0019 158.656 97 158.353L97.4867 159.248C99.5065 161.122 107.502 162.68 115.6 162.628C123.117 162.58 130.177 161.07 132.154 159.316L132.7 158.353C132.7 158.677 132.509 159 132.154 159.316L130.3 162.582C130.3 164.572 123.152 166.528 115.451 166.581C107.322 166.637 99.3122 164.68 99.2998 162.582L97.4867 159.248Z" fill="#404041"/>
<path d="M97 158.453C97.0143 160.696 106.239 162.789 115.6 162.728C124.468 162.672 132.7 160.58 132.7 158.453" stroke="black"/>
<path d="M99.3008 162.682C99.3132 164.78 107.323 166.737 115.452 166.681C123.153 166.628 130.301 164.672 130.301 162.682" stroke="black"/>
<path d="M114.801 163.083V166.283" stroke="black"/>
<path d="M118.801 162.983V166.183" stroke="black"/>
<path d="M122.801 162.484V165.684" stroke="black"/>
<path d="M126.801 161.683V164.883" stroke="black"/>
<path d="M130.801 159.983V163.183" stroke="black"/>
<path d="M110.801 162.883V166.083" stroke="black"/>
<path d="M106.801 162.583V165.783" stroke="black"/>
<path d="M102.801 161.684V164.884" stroke="black"/>
<path d="M98.8008 159.984V163.184" stroke="black"/>
<path d="M99.3008 172.283C99.3132 174.381 107.323 176.338 115.452 176.282C123.153 176.228 130.301 174.272 130.301 172.283" stroke="black"/>
<path d="M100.9 144.183C100.928 149.55 128.7 149.555 128.7 144.183" stroke="black"/>
<mask id="path-43-outside-2_1233_2887" maskUnits="userSpaceOnUse" x="95.8262" y="122" width="38" height="85" fill="black">
<rect fill="white" x="95.8262" y="122" width="38" height="85"/>
<path fill-rule="evenodd" clip-rule="evenodd" d="M109.733 129.856V125.841C109.733 124.831 108.916 124.014 107.905 124.014H103.309C102.298 124.014 101.481 124.831 101.481 125.841V145.002L99.6537 146.055C98.4907 146.733 97.8262 147.882 97.8262 149.225V159.124L100.083 163.124V171.031C100.083 172.346 100.277 173.467 100.72 174.713L111.062 203.759C111.325 204.507 112.003 204.978 112.792 204.978H116.863C117.652 204.978 118.33 204.507 118.593 203.759L128.935 174.713C129.378 173.467 129.572 172.346 129.572 171.031V163.124L131.829 159.124V149.225C131.829 147.882 131.164 146.733 130.001 146.055L128.174 145.002V125.828C128.174 124.817 127.357 124 126.346 124H121.722C120.711 124 119.895 124.817 119.895 125.828V129.842H109.733V129.856Z"/>
</mask>
<path fill-rule="evenodd" clip-rule="evenodd" d="M109.733 129.856V125.841C109.733 124.831 108.916 124.014 107.905 124.014H103.309C102.298 124.014 101.481 124.831 101.481 125.841V145.002L99.6537 146.055C98.4907 146.733 97.8262 147.882 97.8262 149.225V159.124L100.083 163.124V171.031C100.083 172.346 100.277 173.467 100.72 174.713L111.062 203.759C111.325 204.507 112.003 204.978 112.792 204.978H116.863C117.652 204.978 118.33 204.507 118.593 203.759L128.935 174.713C129.378 173.467 129.572 172.346 129.572 171.031V163.124L131.829 159.124V149.225C131.829 147.882 131.164 146.733 130.001 146.055L128.174 145.002V125.828C128.174 124.817 127.357 124 126.346 124H121.722C120.711 124 119.895 124.817 119.895 125.828V129.842H109.733V129.856Z" stroke="black" stroke-width="3" mask="url(#path-43-outside-2_1233_2887)"/>

        
<mask id="path-1-outside-1_1233_2887" maskUnits="userSpaceOnUse" x="107.67" y="21.3994" width="15" height="33" fill="black">
<rect fill="white" x="107.67" y="21.3994" width="15" height="33"/>
<path fill-rule="evenodd" clip-rule="evenodd" d="M115.277 23.3994C114.723 23.3994 112.619 28.6742 112.619 31.5401V37.078C111.137 38.0887 109.67 39.487 109.67 40.4284C109.67 44.3049 109.67 48.1815 109.67 52.058C113.408 52.058 117.16 52.058 120.898 52.058C120.898 48.1815 120.898 44.3049 120.898 40.4284C120.898 39.487 119.417 38.0887 117.949 37.078V31.5401C117.935 28.6604 115.831 23.3994 115.277 23.3994Z"/>
</mask>
<path fill-rule="evenodd" clip-rule="evenodd" d="M115.277 23.3994C114.723 23.3994 112.619 28.6742 112.619 31.5401V37.078C111.137 38.0887 109.67 39.487 109.67 40.4284C109.67 44.3049 109.67 48.1815 109.67 52.058C113.408 52.058 117.16 52.058 120.898 52.058C120.898 48.1815 120.898 44.3049 120.898 40.4284C120.898 39.487 119.417 38.0887 117.949 37.078V31.5401C117.935 28.6604 115.831 23.3994 115.277 23.3994Z" fill="#6D6E70"/>
<path fill-rule="evenodd" clip-rule="evenodd" d="M115.277 23.3994C114.723 23.3994 112.619 28.6742 112.619 31.5401V37.078C111.137 38.0887 109.67 39.487 109.67 40.4284C109.67 44.3049 109.67 48.1815 109.67 52.058C113.408 52.058 117.16 52.058 120.898 52.058C120.898 48.1815 120.898 44.3049 120.898 40.4284C120.898 39.487 119.417 38.0887 117.949 37.078V31.5401C117.935 28.6604 115.831 23.3994 115.277 23.3994Z" stroke="black" stroke-width="3" mask="url(#path-1-outside-1_1233_2887)"/>
<path d="M112.702 28.3984H117.951V28.7582H112.702V28.3984Z" fill="#BBBDBF"/>
<path d="M112.702 30.2246H117.951V30.5844H112.702V30.2246Z" fill="#BBBDBF"/>
<path d="M112.702 32.0654H117.951V32.4252H112.702V32.0654Z" fill="#BBBDBF"/>
<path d="M112.702 33.8921H117.951V34.2518H112.702V33.8921Z" fill="#BBBDBF"/>
<path d="M112.702 35.7324H117.951V36.0922H112.702V35.7324Z" fill="#BBBDBF"/>
<mask id="path-7-outside-2_1233_2887" maskUnits="userSpaceOnUse" x="107.67" y="21.3994" width="15" height="33" fill="black">
<rect fill="white" x="107.67" y="21.3994" width="15" height="33"/>
<path fill-rule="evenodd" clip-rule="evenodd" d="M115.277 23.3994C114.723 23.3994 112.619 28.6742 112.619 31.5401V37.078C111.137 38.0887 109.67 39.487 109.67 40.4284C109.67 44.3049 109.67 48.1815 109.67 52.058C113.408 52.058 117.16 52.058 120.898 52.058C120.898 48.1815 120.898 44.3049 120.898 40.4284C120.898 39.487 119.417 38.0887 117.949 37.078V31.5401C117.935 28.6604 115.831 23.3994 115.277 23.3994Z"/>
</mask>
<path fill-rule="evenodd" clip-rule="evenodd" d="M115.277 23.3994C114.723 23.3994 112.619 28.6742 112.619 31.5401V37.078C111.137 38.0887 109.67 39.487 109.67 40.4284C109.67 44.3049 109.67 48.1815 109.67 52.058C113.408 52.058 117.16 52.058 120.898 52.058C120.898 48.1815 120.898 44.3049 120.898 40.4284C120.898 39.487 119.417 38.0887 117.949 37.078V31.5401C117.935 28.6604 115.831 23.3994 115.277 23.3994Z" stroke="black" stroke-width="3" mask="url(#path-7-outside-2_1233_2887)"/>
<path d="M112.619 31.5401C112.619 28.6742 114.723 23.3994 115.277 23.3994V52.058H109.67V40.4284C109.67 39.487 111.137 38.0887 112.619 37.078V31.5401Z" fill="#BBBDBF"/>
<mask id="path-9-outside-3_1233_2887" maskUnits="userSpaceOnUse" x="80" y="45.3994" width="34" height="39" fill="black">
<rect fill="white" x="80" y="45.3994" width="34" height="39"/>
<path d="M111.656 50.0077C112.141 48.071 109.8 46.6981 108.346 48.0655L82 72.8387V81.25L106.299 71.4369L111.656 50.0077Z"/>
</mask>
<path d="M111.656 50.0077C112.141 48.071 109.8 46.6981 108.346 48.0655L82 72.8387V81.25L106.299 71.4369L111.656 50.0077Z" fill="#6D6E70"/>
<path d="M111.656 50.0077C112.141 48.071 109.8 46.6981 108.346 48.0655L82 72.8387V81.25L106.299 71.4369L111.656 50.0077Z" stroke="black" stroke-width="3" mask="url(#path-9-outside-3_1233_2887)"/>
<path d="M82 72.8387L113.308 43.3994L84 73.8994L82 81.25V72.8387Z" fill="white"/>
<path d="M113.308 43.3994L106.299 71.4369L97.5 74.9904L102.5 53.5626L113.308 43.3994Z" fill="#404041"/>
<path d="M102.526 68.7989L102.241 72.2788L99.5635 73.5481L101.617 71.565L102.526 68.7989Z" fill="white"/>
<mask id="path-13-outside-4_1233_2887" maskUnits="userSpaceOnUse" x="86.5859" y="59.4614" width="37" height="46" fill="black">
<rect fill="white" x="86.5859" y="59.4614" width="37" height="46"/>
<path d="M119.894 64.4614L88.5859 93.9007V102.312L112.885 92.4989L119.894 64.4614Z"/>
</mask>
<path d="M119.894 64.4614L88.5859 93.9007V102.312L112.885 92.4989L119.894 64.4614Z" fill="#6D6E70"/>
<path d="M119.894 64.4614L88.5859 93.9007V102.312L112.885 92.4989L119.894 64.4614Z" stroke="black" stroke-width="3" mask="url(#path-13-outside-4_1233_2887)"/>
<path d="M88.5859 93.9007L119.894 64.4614L90.4993 94.3994L88.5859 102.312V93.9007Z" fill="white"/>
<path d="M119.895 64.4614L112.885 92.4989L96.5996 99.1124L99.9996 83.1688L119.895 64.4614Z" fill="#404041"/>
<path d="M101.325 93.0919L101.04 96.5718L98.3623 97.8411L100.416 95.858L101.325 93.0919Z" fill="white"/>
<mask id="path-17-outside-5_1233_2887" maskUnits="userSpaceOnUse" x="116.695" y="45.3994" width="34" height="39" fill="black">
<rect fill="white" x="116.695" y="45.3994" width="34" height="39"/>
<path d="M119.039 50.0077C118.555 48.071 120.895 46.6981 122.349 48.0655L148.695 72.8387V81.25L124.396 71.4369L119.039 50.0077Z"/>
</mask>
<path d="M119.039 50.0077C118.555 48.071 120.895 46.6981 122.349 48.0655L148.695 72.8387V81.25L124.396 71.4369L119.039 50.0077Z" fill="#6D6E70"/>
<path d="M119.039 50.0077C118.555 48.071 120.895 46.6981 122.349 48.0655L148.695 72.8387V81.25L124.396 71.4369L119.039 50.0077Z" stroke="black" stroke-width="3" mask="url(#path-17-outside-5_1233_2887)"/>
<path d="M148.695 72.8387L117.387 43.3994L146.695 73.8994L148.695 81.25V72.8387Z" fill="white"/>
<path d="M117.387 43.3994L124.396 71.4369L133.195 74.9904L128.195 53.5626L117.387 43.3994Z" fill="#404041"/>
<mask id="path-20-outside-6_1233_2887" maskUnits="userSpaceOnUse" x="107.109" y="59.4614" width="37" height="46" fill="black">
<rect fill="white" x="107.109" y="59.4614" width="37" height="46"/>
<path d="M110.801 64.4614L142.109 93.9007V102.312L117.81 92.4989L110.801 64.4614Z"/>
</mask>
<path d="M110.801 64.4614L142.109 93.9007V102.312L117.81 92.4989L110.801 64.4614Z" fill="#6D6E70"/>
<path d="M110.801 64.4614L142.109 93.9007V102.312L117.81 92.4989L110.801 64.4614Z" stroke="black" stroke-width="3" mask="url(#path-20-outside-6_1233_2887)"/>
<path d="M142.109 93.9007L110.801 64.4614L140.196 94.3994L142.109 102.312V93.9007Z" fill="white"/>
<path d="M110.801 64.4614L117.81 92.4989L134.096 99.1124L130.696 83.1688L110.801 64.4614Z" fill="#404041"/>
<path d="M128.072 68.7989L128.357 72.2788L131.034 73.5481L128.981 71.565L128.072 68.7989Z" fill="white"/>
<path d="M129.373 93.0919L129.658 96.5718L132.335 97.8411L130.282 95.858L129.373 93.0919Z" fill="white"/>
<mask id="path-25-outside-7_1233_2887" maskUnits="userSpaceOnUse" x="95.5" y="39.979" width="40" height="101" fill="black">
<rect fill="white" x="95.5" y="39.979" width="40" height="101"/>
<path d="M112.84 49.026C112.826 50.2166 112.549 52.058 115.277 52.058C118.004 52.058 117.727 50.2166 117.741 49.026V41.979C119.444 41.979 122.808 42.2697 123.113 44.4711C126.602 69.3915 127.571 85.4237 127.585 110.773C127.585 111.272 127.751 111.687 128.097 112.047C129.758 113.764 131.42 115.467 133.081 117.183V129.353C131.433 131.471 129.786 133.603 128.138 135.722C128.138 140.094 102.459 140.074 102.431 135.707C100.787 133.593 99.1436 131.466 97.5 129.353V117.183C99.1614 115.467 100.823 113.764 102.484 112.047C102.83 111.687 102.996 111.272 102.996 110.773C103.01 85.4099 103.979 69.3915 107.468 44.4711C107.773 42.2697 111.137 41.979 112.84 41.979V49.026Z"/>
</mask>
<path d="M112.84 49.026C112.826 50.2166 112.549 52.058 115.277 52.058C118.004 52.058 117.727 50.2166 117.741 49.026V41.979C119.444 41.979 122.808 42.2697 123.113 44.4711C126.602 69.3915 127.571 85.4237 127.585 110.773C127.585 111.272 127.751 111.687 128.097 112.047C129.758 113.764 131.42 115.467 133.081 117.183V129.353C131.433 131.471 129.786 133.603 128.138 135.722C128.138 140.094 102.459 140.074 102.431 135.707C100.787 133.593 99.1436 131.466 97.5 129.353V117.183C99.1614 115.467 100.823 113.764 102.484 112.047C102.83 111.687 102.996 111.272 102.996 110.773C103.01 85.4099 103.979 69.3915 107.468 44.4711C107.773 42.2697 111.137 41.979 112.84 41.979V49.026Z" fill="#6D6E70"/>
<path d="M102.431 135.707L101.681 135.711L101.683 135.966L101.839 136.167L102.431 135.707ZM101.839 136.167C101.841 136.169 101.843 136.172 101.845 136.174C101.847 136.177 101.849 136.179 101.851 136.182L103.035 135.261C103.033 135.259 103.031 135.256 103.029 135.254C103.027 135.251 103.025 135.249 103.023 135.246L101.839 136.167ZM101.681 135.699C101.681 135.704 101.681 135.708 101.681 135.711L103.181 135.702C103.181 135.701 103.181 135.7 103.181 135.699H101.681ZM112.84 49.026L114.34 49.0434L114.34 49.0347V49.026H112.84ZM112.84 41.979H114.34V40.479H112.84V41.979ZM107.468 44.4711L108.954 44.679L108.954 44.6766L107.468 44.4711ZM102.996 110.773L101.496 110.773V110.773H102.996ZM102.484 112.047L103.562 113.09L103.565 113.087L102.484 112.047ZM97.5 117.183L96.4221 116.14L96 116.577V117.183H97.5ZM97.5 129.353H96V129.868L96.316 130.274L97.5 129.353ZM102.431 135.707L103.931 135.697L103.928 135.188L103.615 134.786L102.431 135.707ZM128.138 135.722L126.954 134.801L126.638 135.207V135.722H128.138ZM133.081 129.353L134.265 130.274L134.581 129.868V129.353H133.081ZM133.081 117.183H134.581V116.577L134.159 116.14L133.081 117.183ZM128.097 112.047L127.016 113.087L127.019 113.09L128.097 112.047ZM127.585 110.773L129.085 110.773L129.085 110.773L127.585 110.773ZM123.113 44.4711L121.627 44.6766L121.627 44.679L123.113 44.4711ZM117.741 41.979V40.479H116.241V41.979H117.741ZM117.741 49.026L119.241 49.0434L119.241 49.0347V49.026H117.741ZM115.277 50.558C114.751 50.558 114.523 50.4674 114.451 50.4291C114.411 50.4075 114.412 50.4038 114.402 50.3807C114.376 50.3218 114.341 50.1932 114.33 49.9372C114.317 49.6482 114.335 49.44 114.34 49.0434L111.34 49.0085C111.338 49.2072 111.316 49.6757 111.333 50.0668C111.351 50.491 111.415 51.0459 111.659 51.5962C111.919 52.1823 112.361 52.7133 113.036 53.0742C113.679 53.4183 114.439 53.558 115.277 53.558V50.558ZM114.34 49.026V41.979H111.34V49.026H114.34ZM112.84 40.479C111.937 40.479 110.487 40.5522 109.174 40.9703C107.914 41.3718 106.257 42.2809 105.982 44.2655L108.954 44.6766C108.984 44.4599 109.161 44.1229 110.085 43.8288C110.956 43.5512 112.04 43.479 112.84 43.479V40.479ZM105.983 44.2631C102.483 69.2596 101.51 85.3476 101.496 110.773L104.496 110.774C104.51 85.4721 105.475 69.5235 108.954 44.679L105.983 44.2631ZM101.496 110.773C101.496 110.852 101.484 110.888 101.478 110.903C101.472 110.918 101.456 110.952 101.403 111.007L103.565 113.087C104.182 112.446 104.496 111.657 104.496 110.773H101.496ZM101.406 111.004C100.577 111.861 99.7471 112.715 98.9163 113.57C98.0857 114.425 97.254 115.281 96.4221 116.14L98.5779 118.227C99.4074 117.37 100.237 116.516 101.068 115.661C101.898 114.806 102.73 113.95 103.562 113.09L101.406 111.004ZM96 117.183V129.353H99V117.183H96ZM96.316 130.274C97.1369 131.329 97.958 132.389 98.78 133.449C99.6016 134.509 100.424 135.57 101.247 136.627L103.615 134.786C102.794 133.73 101.973 132.671 101.151 131.611C100.329 130.551 99.5067 129.49 98.684 128.432L96.316 130.274ZM129.322 136.642C130.147 135.582 130.971 134.519 131.795 133.456C132.619 132.394 133.442 131.332 134.265 130.274L131.897 128.432C131.072 129.492 130.248 130.556 129.424 131.618C128.6 132.681 127.777 133.743 126.954 134.801L129.322 136.642ZM134.581 129.353V117.183H131.581V129.353H134.581ZM134.159 116.14C133.327 115.281 132.495 114.425 131.665 113.57C130.834 112.715 130.004 111.861 129.175 111.004L127.019 113.09C127.851 113.95 128.683 114.806 129.513 115.661C130.344 116.516 131.174 117.37 132.003 118.227L134.159 116.14ZM129.178 111.007C129.125 110.952 129.109 110.918 129.103 110.903C129.097 110.888 129.085 110.852 129.085 110.773H126.085C126.085 111.657 126.399 112.446 127.016 113.087L129.178 111.007ZM129.085 110.773C129.071 85.3615 128.098 69.2596 124.598 44.2631L121.627 44.679C125.105 69.5235 126.071 85.4859 126.085 110.774L129.085 110.773ZM124.599 44.2655C124.324 42.2809 122.667 41.3718 121.406 40.9703C120.094 40.5522 118.644 40.479 117.741 40.479V43.479C118.541 43.479 119.625 43.5512 120.496 43.8288C121.419 44.1229 121.597 44.4599 121.627 44.6766L124.599 44.2655ZM116.241 41.979V49.026H119.241V41.979H116.241ZM116.241 49.0085C116.236 49.4319 116.253 49.6092 116.236 49.9201C116.222 50.1802 116.186 50.3118 116.158 50.3742C116.146 50.4009 116.145 50.4065 116.103 50.4287C116.031 50.4675 115.802 50.558 115.277 50.558V53.558C116.115 53.558 116.874 53.4182 117.517 53.0746C118.191 52.7143 118.633 52.1851 118.895 51.6027C119.14 51.0559 119.208 50.504 119.231 50.084C119.252 49.7147 119.239 49.2154 119.241 49.0434L116.241 49.0085ZM100.931 135.716C100.94 137.084 101.951 137.95 102.789 138.437C103.686 138.959 104.861 139.342 106.127 139.629C108.684 140.21 112.017 140.489 115.294 140.492C118.571 140.494 121.902 140.219 124.456 139.641C125.721 139.355 126.895 138.973 127.79 138.451C128.629 137.963 129.638 137.093 129.638 135.722H126.638C126.638 135.443 126.846 135.529 126.279 135.86C125.77 136.157 124.938 136.456 123.794 136.715C121.533 137.227 118.443 137.494 115.296 137.492C112.15 137.49 109.057 137.218 106.792 136.704C105.646 136.444 104.811 136.143 104.298 135.844C103.726 135.512 103.929 135.421 103.931 135.697L100.931 135.716Z" fill="black" mask="url(#path-25-outside-7_1233_2887)"/>
<path d="M102.996 110.774C103.01 85.4101 103.979 69.3918 107.468 44.4713C107.563 43.7859 107.954 43.2857 108.5 42.9219C107.986 52.8926 106.145 67.3084 105.477 80.3996C104.63 97.0041 104.8 113.4 104.8 113.4L99.5 118.4V131.4L103 136.4C101.352 134.281 99.1475 131.471 97.5 129.353V117.184C99.1614 115.467 100.823 113.764 102.484 112.047C102.83 111.687 102.996 111.272 102.996 110.774Z" fill="#BBBDBF"/>
<path d="M133.082 129.353C131.434 131.471 129.787 133.603 128.139 135.722C128.139 137.91 121.707 138.998 115.277 138.992V52.058C118.005 52.058 117.728 50.2166 117.742 49.026V41.979C119.445 41.979 122.809 42.2697 123.113 44.4711C126.602 69.3915 127.571 85.4237 127.585 110.773C127.585 111.272 127.751 111.687 128.098 112.047C129.759 113.764 131.42 115.467 133.082 117.183V129.353Z" fill="#404041"/>
<path d="M127.603 110.774C127.589 85.4101 126.62 69.3918 123.131 44.4713C123.037 43.7859 122.645 43.2857 122.1 42.9219C122.614 52.8926 124.455 67.3084 125.123 80.3996C125.97 97.0041 125.8 113.4 125.8 113.4L131.8 117.9V130.4L128.157 135.722C129.805 133.604 131.452 131.471 133.1 129.353V117.184C131.438 115.467 129.777 113.764 128.116 112.047C127.769 111.687 127.603 111.272 127.603 110.774Z" fill="#231F20"/>
<path d="M97 129.399C97.0143 131.642 106.639 133.735 116 133.675C124.868 133.618 133.5 131.527 133.5 129.399" stroke="black"/>
<path d="M97 116.399C97.0143 118.642 106.639 120.735 116 120.675C124.868 120.618 133.5 118.527 133.5 116.399" stroke="black"/>
<path d="M102.5 111.399C102.528 115.767 128 115.772 128 111.399" stroke="black"/>
<mask id="path-33-inside-8_1233_2887" fill="white">
<path fill-rule="evenodd" clip-rule="evenodd" d="M115.319 122.899H110.197C109.186 122.899 108.369 123.716 108.369 124.726V128.88C108.369 129.891 109.186 130.707 110.197 130.707H115.319H120.442C121.452 130.707 122.269 129.891 122.269 128.88V124.726C122.269 123.716 121.452 122.899 120.442 122.899H115.319Z"/>
</mask>
<path fill-rule="evenodd" clip-rule="evenodd" d="M115.319 122.899H110.197C109.186 122.899 108.369 123.716 108.369 124.726V128.88C108.369 129.891 109.186 130.707 110.197 130.707H115.319H120.442C121.452 130.707 122.269 129.891 122.269 128.88V124.726C122.269 123.716 121.452 122.899 120.442 122.899H115.319Z" fill="#6D6E70" stroke="black" stroke-width="2" mask="url(#path-33-inside-8_1233_2887)"/>
<path d="M107.35 49.7228C107.35 49.7228 107.839 45.0608 108.219 44.23C108.599 43.3992 111.085 42.8899 111.085 42.8899L108.899 44.6992L107.35 49.7228Z" fill="white"/>
<path d="M123.134 49.7228C123.134 49.7228 122.646 45.0608 122.265 44.23C121.885 43.3992 119.4 42.8899 119.4 42.8899L121.585 44.6992L123.134 49.7228Z" fill="white"/>
<path d="M103.984 105.859L103.915 111.358L107.926 112.645L105 110.331L103.984 105.859Z" fill="white"/>
<path d="M126.942 105.858L127.01 111.357L123 112.644L125.926 110.33L126.942 105.858Z" fill="white"/>
<rect x="102.35" y="123.55" width="1.7" height="4.3" rx="0.65" fill="black" stroke="black" stroke-width="0.3"/>
<rect x="102.301" y="123.7" width="1.4" height="4" rx="0.5" fill="#9E3E63"/>
<path fill-rule="evenodd" clip-rule="evenodd" d="M102.677 124.406H103.059C103.215 124.406 103.345 124.47 103.345 124.547V127.195C103.345 127.271 103.215 127.335 103.059 127.335H102.677C102.521 127.335 102.391 127.271 102.391 127.195V124.55C102.391 124.47 102.521 124.406 102.677 124.406Z" fill="#F39DB1"/>
<path d="M103.026 124.508C103.114 124.508 103.185 124.44 103.185 124.356C103.185 124.272 103.114 124.205 103.026 124.205C102.938 124.205 102.867 124.272 102.867 124.356C102.867 124.44 102.938 124.508 103.026 124.508Z" fill="white"/>
<path d="M102.549 126.958V125.652C102.549 125.538 102.75 125.356 103.069 125.176C103.103 125.154 103.142 125.133 103.185 125.113C103.145 125.134 103.106 125.155 103.069 125.176C102.825 125.334 102.793 125.552 102.812 125.652L102.812 126.958C102.793 127.058 102.921 127.184 103.35 127.255C103 127.255 102.549 127.072 102.549 126.958Z" fill="white"/>
<rect x="126.35" y="123.55" width="1.7" height="4.3" rx="0.65" fill="black" stroke="black" stroke-width="0.3"/>
<rect x="126.699" y="123.7" width="1.4" height="4" rx="0.5" fill="#9E3E63"/>
<path fill-rule="evenodd" clip-rule="evenodd" d="M127.075 124.406H127.457C127.613 124.406 127.743 124.47 127.743 124.547V127.195C127.743 127.271 127.613 127.335 127.457 127.335H127.075C126.919 127.335 126.789 127.271 126.789 127.195V124.55C126.789 124.47 126.919 124.406 127.075 124.406Z" fill="#F39DB1"/>
<path d="M127.425 124.508C127.513 124.508 127.584 124.44 127.584 124.356C127.584 124.272 127.513 124.205 127.425 124.205C127.337 124.205 127.266 124.272 127.266 124.356C127.266 124.44 127.337 124.508 127.425 124.508Z" fill="white"/>
<path d="M126.947 126.958V125.652C126.947 125.538 127.149 125.356 127.467 125.176C127.502 125.154 127.54 125.133 127.584 125.113C127.543 125.134 127.504 125.155 127.467 125.176C127.224 125.334 127.192 125.552 127.21 125.652L127.21 126.958C127.192 127.058 127.319 127.184 127.749 127.255C127.399 127.255 126.947 127.072 126.947 126.958Z" fill="white"/>
<mask id="path-48-outside-9_1233_2887" maskUnits="userSpaceOnUse" x="108.5" y="57.3994" width="14" height="41" fill="black">
<rect fill="white" x="108.5" y="57.3994" width="14" height="41"/>
<path fill-rule="evenodd" clip-rule="evenodd" d="M111.065 67.3708C111.992 61.9575 113.391 58.3994 115.315 58.3994C117.239 58.3994 118.638 61.9437 119.565 67.3708C120.618 73.5317 121.13 82.1985 121.13 90.7407C121.13 91.8482 120.244 93.4127 119.025 94.631C117.932 95.7248 116.547 96.5693 115.315 96.5693C114.069 96.5693 112.698 95.7386 111.605 94.631C110.386 93.4127 109.5 91.8482 109.5 90.7407C109.486 82.1846 109.999 73.5317 111.065 67.3708Z"/>
</mask>
<path fill-rule="evenodd" clip-rule="evenodd" d="M111.065 67.3708C111.992 61.9575 113.391 58.3994 115.315 58.3994C117.239 58.3994 118.638 61.9437 119.565 67.3708C120.618 73.5317 121.13 82.1985 121.13 90.7407C121.13 91.8482 120.244 93.4127 119.025 94.631C117.932 95.7248 116.547 96.5693 115.315 96.5693C114.069 96.5693 112.698 95.7386 111.605 94.631C110.386 93.4127 109.5 91.8482 109.5 90.7407C109.486 82.1846 109.999 73.5317 111.065 67.3708Z" fill="#AA3964"/>
<path fill-rule="evenodd" clip-rule="evenodd" d="M111.065 67.3708C111.992 61.9575 113.391 58.3994 115.315 58.3994C117.239 58.3994 118.638 61.9437 119.565 67.3708C120.618 73.5317 121.13 82.1985 121.13 90.7407C121.13 91.8482 120.244 93.4127 119.025 94.631C117.932 95.7248 116.547 96.5693 115.315 96.5693C114.069 96.5693 112.698 95.7386 111.605 94.631C110.386 93.4127 109.5 91.8482 109.5 90.7407C109.486 82.1846 109.999 73.5317 111.065 67.3708Z" stroke="black" stroke-width="2" mask="url(#path-48-outside-9_1233_2887)"/>
<path fill-rule="evenodd" clip-rule="evenodd" d="M115.319 65.9194C114.004 65.9194 113.672 66.5286 113.049 68.7991C111.872 73.0772 111.18 80.7333 112.329 85.4959C112.869 87.7664 113.519 88.3756 115.333 88.3756C117.133 88.3756 117.783 87.7802 118.337 85.4959C119.473 80.7333 118.78 73.0772 117.617 68.7991C116.967 66.5286 116.634 65.9194 115.319 65.9194Z" fill="#DB5C87"/>
<path d="M115 59.5996C113.345 59.5996 112.143 62.8999 111.345 67.9209C110.429 73.6353 109.988 81.6613 110 89.5973C110 90.1749 110.241 90.8865 110.638 91.5996C109.986 88.3532 110.784 75.3152 111.72 70.2663C112.58 65.6286 114.336 60.664 115 59.5996Z" fill="white"/>
<mask id="path-51-outside-10_1233_2887" maskUnits="userSpaceOnUse" x="106.699" y="90.3994" width="17" height="14" fill="black">
<rect fill="white" x="106.699" y="90.3994" width="17" height="14"/>
<path fill-rule="evenodd" clip-rule="evenodd" d="M115.271 93.3588C117.048 93.3588 119.442 93.3891 120.987 92.4954C121.389 92.2682 121.899 92.556 121.837 93.0104C121.528 95.0704 120.956 97.1002 120.524 99.145C120.045 101.387 117.295 102.084 115.271 102.084C113.247 102.084 110.528 101.387 110.018 99.1602C109.57 97.1607 109.014 95.025 108.705 93.0104C108.643 92.5863 109.106 92.253 109.508 92.4651C111.084 93.3588 113.494 93.3588 115.271 93.3588Z"/>
</mask>
<path fill-rule="evenodd" clip-rule="evenodd" d="M115.271 93.3588C117.048 93.3588 119.442 93.3891 120.987 92.4954C121.389 92.2682 121.899 92.556 121.837 93.0104C121.528 95.0704 120.956 97.1002 120.524 99.145C120.045 101.387 117.295 102.084 115.271 102.084C113.247 102.084 110.528 101.387 110.018 99.1602C109.57 97.1607 109.014 95.025 108.705 93.0104C108.643 92.5863 109.106 92.253 109.508 92.4651C111.084 93.3588 113.494 93.3588 115.271 93.3588Z" fill="#6D6E70"/>
<path fill-rule="evenodd" clip-rule="evenodd" d="M115.271 93.3588C117.048 93.3588 119.442 93.3891 120.987 92.4954C121.389 92.2682 121.899 92.556 121.837 93.0104C121.528 95.0704 120.956 97.1002 120.524 99.145C120.045 101.387 117.295 102.084 115.271 102.084C113.247 102.084 110.528 101.387 110.018 99.1602C109.57 97.1607 109.014 95.025 108.705 93.0104C108.643 92.5863 109.106 92.253 109.508 92.4651C111.084 93.3588 113.494 93.3588 115.271 93.3588Z" stroke="black" stroke-width="2.97443" mask="url(#path-51-outside-10_1233_2887)"/>
<path d="M120.988 92.4954C119.443 93.3891 117.048 93.3588 115.271 93.3588V102.084C117.295 102.084 120.045 101.387 120.524 99.1451C120.957 97.1002 121.529 95.0705 121.838 93.0104C121.899 92.556 121.39 92.2682 120.988 92.4954Z" fill="#404041"/>
<path d="M108.705 93.0104C109.014 95.025 109.57 97.1607 110.018 99.1602L109.508 93.437L111.12 93.0911L109.508 92.4651C109.106 92.253 108.643 92.5863 108.705 93.0104Z" fill="#BBBDBF"/>
<path d="M121.836 93.0104C121.527 95.025 120.971 97.1607 120.523 99.1602L121.033 93.437L119.421 93.0911L121.033 92.4651C121.435 92.253 121.898 92.5863 121.836 93.0104Z" fill="#BBBDBF"/>
<path d="M119.42 93.7832C117.955 93.94 116.452 94.2486 115.17 94.2486C113.949 94.2486 112.526 93.9283 111.119 93.7832C111.119 93.7832 113.511 95.1421 115.17 95.1663C116.903 95.1916 119.42 93.7832 119.42 93.7832Z" fill="white"/>
<path d="M107.605 89.7844C107.605 89.7844 107.603 89.7017 107.602 89.5434C107.6 89.7564 107.599 90.1169 107.601 90.6054L106.865 91.3997C106.856 90.8009 106.85 90.1921 106.848 89.5731C106.848 89.6275 106.847 89.682 106.847 89.7366L106.847 90.3195C106.847 90.1242 106.847 89.9299 106.847 89.7366L106.847 89.4184C106.847 89.2082 106.847 88.9969 106.847 88.7844L106.847 89.4184C106.847 89.4701 106.848 89.5216 106.848 89.5731C106.904 70.9805 110.509 61.5047 110.509 61.5047C107.586 73.2256 107.587 87.5255 107.602 89.5434C107.603 89.3963 107.605 89.3195 107.605 89.3195L107.605 89.7844Z" fill="white"/>
<path d="M123.02 89.7844C123.02 89.7844 123.022 89.7017 123.023 89.5434C123.025 89.7564 123.026 90.1169 123.024 90.6054L123.76 91.3997C123.769 90.8009 123.775 90.1921 123.777 89.5731C123.777 89.6275 123.778 89.682 123.778 89.7366L123.778 90.3195C123.778 90.1242 123.778 89.9299 123.778 89.7366L123.778 89.4184C123.778 89.2082 123.778 88.9969 123.778 88.7844L123.778 89.4184C123.778 89.4701 123.777 89.5216 123.777 89.5731C123.721 70.9805 120.116 61.5047 120.116 61.5047C123.039 73.2256 123.038 87.5255 123.023 89.5434C123.022 89.3963 123.02 89.3195 123.02 89.3195L123.02 89.7844Z" fill="white"/>
<path d="M119.672 88.4743C119.497 89.5467 118.994 90.3552 118.548 90.2827C118.102 90.2103 117.882 89.2827 118.06 88.2103C118.237 87.1379 118.74 86.3294 119.183 86.4042C119.627 86.479 119.849 87.4042 119.672 88.4743Z" fill="white"/>
<path d="M112.149 87.3091C112.622 87.3091 113.006 86.8907 113.006 86.3745C113.006 85.8584 112.622 85.4399 112.149 85.4399C111.675 85.4399 111.291 85.8584 111.291 86.3745C111.291 86.8907 111.675 87.3091 112.149 87.3091Z" fill="white"/>
<path d="M113.599 89.5309C113.874 89.5309 114.097 89.3081 114.097 89.0333C114.097 88.7584 113.874 88.5356 113.599 88.5356C113.324 88.5356 113.102 88.7584 113.102 89.0333C113.102 89.3081 113.324 89.5309 113.599 89.5309Z" fill="white"/>
<path d="M118.72 70.458C119.084 72.9803 119.013 75.0774 118.564 75.1413C118.115 75.2053 117.46 73.2136 117.099 70.6918C116.737 68.17 116.804 66.072 117.255 66.0085C117.706 65.9449 118.357 67.9358 118.72 70.458Z" fill="white"/>
<path d="M119.505 78.3841C119.465 79.4698 119.069 80.3374 118.618 80.3203C118.167 80.3032 117.836 79.4123 117.871 78.3257C117.907 77.2392 118.307 76.3748 118.758 76.3919C119.208 76.409 119.544 77.3007 119.505 78.3841Z" fill="white"/>
<path d="M115.967 60.3175C115.967 60.3175 117.068 62.5013 116.268 65.9577C116.268 65.9577 114.778 63.7398 115.967 60.3175Z" fill="white"/>

    </svg>
