
    <svg width="230" height="230" viewBox="0 0 230 230" fill="none" xmlns="http://www.w3.org/2000/svg">
        
<path d="M88.4268 80.4502H93V83.7695H88.4268V80.4502Z" fill="#404041"/>
<path d="M88.3953 80.4502H93.0293V83.7695H88.3953V80.4502Z" stroke="black" stroke-width="0.618382"/>
<path d="M91.9491 80.9609H92.4023V83.6354H91.9491V80.9609Z" fill="black"/>
<path d="M90.9745 80.9609H91.4277V83.6354H90.9745V80.9609Z" fill="black"/>
<path d="M89.9979 80.9609H90.4512V83.6354H89.9979V80.9609Z" fill="black"/>
<path d="M89.0233 80.9609H89.4766V83.6354H89.0233V80.9609Z" fill="black"/>
<path d="M88.3584 80.7259H89.9347H93.0695L93.6777 80.0234L92.7073 78H89.9347H88.7206L87.7501 80.0234L88.3584 80.7259Z" fill="#6D6E70"/>
<path d="M88.3571 80.7259H89.8859L89.2776 80.0234L90.248 78H88.7192L87.7488 80.0234L88.3571 80.7259Z" fill="white"/>
<path d="M91.0305 80.7259H93.0695L93.6777 80.0234L92.7073 78H90.6692L91.6396 80.0234L91.0305 80.7259Z" fill="#404041"/>
<path d="M88.3584 80.7259H89.9347H93.0695L93.6777 80.0234L92.7073 78H89.9347H88.7206L87.7501 80.0234L88.3584 80.7259Z" stroke="black" stroke-width="0.700936"/>
<path d="M87.9582 79.6504H93.4668V80.0009H87.9582V79.6504Z" fill="black"/>
<path d="M87.728 85.6643H93.6992V84.9634H87.728V85.6643Z" fill="white"/>
<path d="M87.1797 83.4033H94.1797V122.403H87.1797V83.4033Z" fill="#6D6E70"/>
<path d="M87.1797 83.4033H89.1797V121.903H87.1797V83.4033Z" fill="white"/>
<path d="M92.1797 83.4033H94.1797V122.403H92.1797V83.4033Z" fill="#404041"/>
<path d="M87.6244 83.0293H93.8027V122.011H87.6244V83.0293Z" stroke="black"/>
<path d="M87.728 85.197H93.6992V84.4961H87.728V85.197Z" fill="black"/>
<mask id="path-18-outside-1_1233_2887" maskUnits="userSpaceOnUse" x="82.6875" y="112" width="20" height="21" fill="black">
<rect fill="white" x="82.6875" y="112" width="20" height="21"/>
<path d="M87.715 129.078C86.1506 128.635 85.0014 127.25 85.0014 125.478V114L95.8834 116.839C96.6587 116.936 97.1848 117.67 97.1848 118.459V122.128L100.688 123.346C100.688 127.97 96.8387 131.681 92.7683 130.518L87.715 129.078Z"/>
</mask>
<path d="M87.715 129.078C86.1506 128.635 85.0014 127.25 85.0014 125.478V114L95.8834 116.839C96.6587 116.936 97.1848 117.67 97.1848 118.459V122.128L100.688 123.346C100.688 127.97 96.8387 131.681 92.7683 130.518L87.715 129.078Z" fill="#6D6E70"/>
<path d="M87.715 129.078C86.1506 128.635 85.0014 127.25 85.0014 125.478V114L95.8834 116.839C96.6587 116.936 97.1848 117.67 97.1848 118.459V122.128L100.688 123.346C100.688 127.97 96.8387 131.681 92.7683 130.518L87.715 129.078Z" stroke="black" stroke-width="3" mask="url(#path-18-outside-1_1233_2887)"/>
<path d="M92.7683 130.518L87.715 129.078C91.6792 128.5 97.1848 124.756 97.1848 122.128L100.688 123.346C100.688 127.97 96.8387 131.681 92.7683 130.518Z" fill="#404041"/>
<path d="M85.0009 114L95.8828 116.839L86.4786 116.239L85.0009 125.478V114Z" fill="white"/>
<path d="M142.062 80.4502H137.488V83.7695H142.062V80.4502Z" fill="#404041"/>
<path d="M142.093 80.4502H137.459V83.7695H142.093V80.4502Z" stroke="black" stroke-width="0.618382"/>
<path d="M138.539 80.9609H138.086V83.6354H138.539V80.9609Z" fill="black"/>
<path d="M139.514 80.9609H139.061V83.6354H139.514V80.9609Z" fill="black"/>
<path d="M140.49 80.9609H140.037V83.6354H140.49V80.9609Z" fill="black"/>
<path d="M141.465 80.9609H141.012V83.6354H141.465V80.9609Z" fill="black"/>
<path d="M142.13 80.7259H140.554H137.419L136.811 80.0234L137.781 78H140.554H141.768L142.738 80.0234L142.13 80.7259Z" fill="#6D6E70"/>
<path d="M142.131 80.7259H140.602L141.211 80.0234L140.24 78H141.769L142.739 80.0234L142.131 80.7259Z" fill="white"/>
<path d="M139.458 80.7259H137.419L136.811 80.0234L137.781 78H139.819L138.849 80.0234L139.458 80.7259Z" fill="#404041"/>
<path d="M142.13 80.7259H140.554H137.419L136.811 80.0234L137.781 78H140.554H141.768L142.738 80.0234L142.13 80.7259Z" stroke="black" stroke-width="0.700936"/>
<path d="M142.53 79.6504H137.021V80.0009H142.53V79.6504Z" fill="black"/>
<path d="M142.76 85.6643H136.789V84.9634H142.76V85.6643Z" fill="white"/>
<path d="M143.309 83.4033H136.309V122.403H143.309V83.4033Z" fill="#6D6E70"/>
<path d="M143.309 83.4033H141.309V121.903H143.309V83.4033Z" fill="white"/>
<path d="M138.309 83.4033H136.309V122.403H138.309V83.4033Z" fill="#404041"/>
<path d="M142.864 83.0293H136.686V122.011H142.864V83.0293Z" stroke="black"/>
<path d="M142.76 85.197H136.789V84.4961H142.76V85.197Z" fill="black"/>
<mask id="path-38-outside-2_1233_2887" maskUnits="userSpaceOnUse" x="127.801" y="112" width="20" height="21" fill="black">
<rect fill="white" x="127.801" y="112" width="20" height="21"/>
<path d="M142.773 129.078C144.338 128.635 145.487 127.25 145.487 125.478V114L134.605 116.839C133.83 116.936 133.303 117.67 133.303 118.459V122.128L129.801 123.346C129.801 127.97 133.65 131.681 137.72 130.518L142.773 129.078Z"/>
</mask>
<path d="M142.773 129.078C144.338 128.635 145.487 127.25 145.487 125.478V114L134.605 116.839C133.83 116.936 133.303 117.67 133.303 118.459V122.128L129.801 123.346C129.801 127.97 133.65 131.681 137.72 130.518L142.773 129.078Z" fill="#6D6E70"/>
<path d="M142.773 129.078C144.338 128.635 145.487 127.25 145.487 125.478V114L134.605 116.839C133.83 116.936 133.303 117.67 133.303 118.459V122.128L129.801 123.346C129.801 127.97 133.65 131.681 137.72 130.518L142.773 129.078Z" stroke="black" stroke-width="3" mask="url(#path-38-outside-2_1233_2887)"/>
<path d="M137.72 130.518L142.773 129.078C138.809 128.5 133.303 124.756 133.303 122.128L129.801 123.346C129.801 127.97 133.65 131.681 137.72 130.518Z" fill="#404041"/>
<path d="M145.487 114L134.605 116.839L144.01 116.239L145.487 125.478V114Z" fill="white"/>

        
<mask id="path-1-outside-1_1233_2887" maskUnits="userSpaceOnUse" x="71.9716" y="144.637" width="38.1799" height="38.1799" fill="black">
<rect fill="white" x="71.9716" y="144.637" width="38.1799" height="38.1799"/>
<path fill-rule="evenodd" clip-rule="evenodd" d="M85.6639 154.215L101.388 158.078C102.252 158.262 102.812 159.096 102.678 159.969L101.011 170.146C100.894 170.862 100.363 171.389 99.6603 171.516L84.7619 171.988L85.6639 154.215Z"/>
</mask>
<path fill-rule="evenodd" clip-rule="evenodd" d="M85.6639 154.215L101.388 158.078C102.252 158.262 102.812 159.096 102.678 159.969L101.011 170.146C100.894 170.862 100.363 171.389 99.6603 171.516L84.7619 171.988L85.6639 154.215Z" fill="#6D6E70"/>
<path fill-rule="evenodd" clip-rule="evenodd" d="M85.6639 154.215L101.388 158.078C102.252 158.262 102.812 159.096 102.678 159.969L101.011 170.146C100.894 170.862 100.363 171.389 99.6603 171.516L84.7619 171.988L85.6639 154.215Z" stroke="black" stroke-width="3" mask="url(#path-1-outside-1_1233_2887)"/>
<path d="M101.388 158.078L85.6639 154.215L102.45 161.361L102.678 159.969C102.812 159.096 102.252 158.262 101.388 158.078Z" fill="white"/>
<mask id="path-3-outside-2_1233_2887" maskUnits="userSpaceOnUse" x="32.1872" y="127.226" width="65.148" height="64.9464" fill="black">
<rect fill="white" x="32.1872" y="127.226" width="65.148" height="64.9464"/>
<path fill-rule="evenodd" clip-rule="evenodd" d="M81.9831 153.573L59.1812 163.924L55.4838 150.426C55.2981 149.763 54.9674 149.229 54.442 148.777L48.4554 143.653C47.9599 143.23 47.2223 143.691 47.3782 144.325L55.4439 175.795C55.8998 177.55 57.6873 178.631 59.4434 178.195L84.7615 171.97C85.4541 171.793 86.0077 171.482 86.5095 170.966L92.1543 165.158C93.4279 163.847 93.3978 161.733 92.0873 160.459L85.6637 154.216C84.6709 153.251 83.2478 153.007 81.9831 153.573Z"/>
</mask>
<path fill-rule="evenodd" clip-rule="evenodd" d="M81.9831 153.573L59.1812 163.924L55.4838 150.426C55.2981 149.763 54.9674 149.229 54.442 148.777L48.4554 143.653C47.9599 143.23 47.2223 143.691 47.3782 144.325L55.4439 175.795C55.8998 177.55 57.6873 178.631 59.4434 178.195L84.7615 171.97C85.4541 171.793 86.0077 171.482 86.5095 170.966L92.1543 165.158C93.4279 163.847 93.3978 161.733 92.0873 160.459L85.6637 154.216C84.6709 153.251 83.2478 153.007 81.9831 153.573Z" fill="#6D6E70"/>
<path fill-rule="evenodd" clip-rule="evenodd" d="M81.9831 153.573L59.1812 163.924L55.4838 150.426C55.2981 149.763 54.9674 149.229 54.442 148.777L48.4554 143.653C47.9599 143.23 47.2223 143.691 47.3782 144.325L55.4439 175.795C55.8998 177.55 57.6873 178.631 59.4434 178.195L84.7615 171.97C85.4541 171.793 86.0077 171.482 86.5095 170.966L92.1543 165.158C93.4279 163.847 93.3978 161.733 92.0873 160.459L85.6637 154.216C84.6709 153.251 83.2478 153.007 81.9831 153.573Z" stroke="black" stroke-width="3" mask="url(#path-3-outside-2_1233_2887)"/>
<path d="M59.4433 178.195C57.6872 178.631 55.8997 177.55 55.4438 175.794L53.4502 168.016C55.9475 171.903 56.715 176.135 64.1237 174.968C70.0507 174.035 80.3517 172.58 84.7614 171.969L59.4433 178.195Z" fill="#404041"/>
<path d="M62.8652 162.252L81.9831 153.573C83.2478 153.007 84.6709 153.251 85.6637 154.216L91.0545 159.455C89.8906 158.74 86.7101 157.038 83.3003 155.955C80.4369 155.046 70.0428 159.091 62.8652 162.252L59.1812 163.924L57.7224 158.598C56.7747 156.943 54.4385 153.025 52.6753 150.595C50.9121 148.164 48.8683 147.193 48.0668 147.011L47.3782 144.325C47.2223 143.691 47.9599 143.23 48.4554 143.653L54.442 148.777C54.9674 149.229 55.2981 149.763 55.4838 150.426L57.7224 158.598L59.1812 163.924C60.2422 163.426 61.4951 162.855 62.8652 162.252Z" fill="white"/>
<path d="M58.9084 162.847L62.1571 174.417L60.0881 163.444L58.9084 162.847Z" fill="black"/>
<mask id="path-7-inside-3_1233_2887" fill="white">
<path fill-rule="evenodd" clip-rule="evenodd" d="M73.5465 170.105L76.7298 169.32C77.2019 169.216 77.4544 169.668 77.3118 170.087L76.5057 172.454C76.4065 172.745 76.1308 173.048 75.8292 173.128L72.6581 173.907C72.1798 174.029 71.9059 173.58 72.0547 173.143L72.8609 170.776C72.9601 170.485 73.2358 170.182 73.5465 170.105Z"/>
</mask>
<path fill-rule="evenodd" clip-rule="evenodd" d="M73.5465 170.105L76.7298 169.32C77.2019 169.216 77.4544 169.668 77.3118 170.087L76.5057 172.454C76.4065 172.745 76.1308 173.048 75.8292 173.128L72.6581 173.907C72.1798 174.029 71.9059 173.58 72.0547 173.143L72.8609 170.776C72.9601 170.485 73.2358 170.182 73.5465 170.105Z" fill="#9E3E63" stroke="black" stroke-width="0.691728" mask="url(#path-7-inside-3_1233_2887)"/>
<path fill-rule="evenodd" clip-rule="evenodd" d="M73.5819 170.476L75.5027 170.002C75.7875 169.94 75.9399 170.212 75.8538 170.465L75.3674 171.893C75.3076 172.069 75.1412 172.251 74.9593 172.3L73.0459 172.77C72.7573 172.843 72.5921 172.572 72.6819 172.309L73.1683 170.881C73.2281 170.705 73.3945 170.522 73.5819 170.476Z" fill="#F39DB1"/>
<path d="M73.7888 170.65C73.5797 170.702 73.3942 170.905 73.3274 171.102L73.0562 171.898L73.7847 170.962L74.8599 170.386L73.7888 170.65Z" fill="white"/>
<mask id="path-10-inside-4_1233_2887" fill="white">
<path fill-rule="evenodd" clip-rule="evenodd" d="M68.3199 171.337L71.5033 170.552C71.9753 170.448 72.2279 170.9 72.0853 171.319L71.2791 173.686C71.1799 173.977 70.9042 174.28 70.6026 174.36L67.4315 175.139C66.9532 175.261 66.6793 174.812 66.8282 174.375L67.6343 172.008C67.7335 171.716 68.0092 171.414 68.3199 171.337Z"/>
</mask>
<path fill-rule="evenodd" clip-rule="evenodd" d="M68.3199 171.337L71.5033 170.552C71.9753 170.448 72.2279 170.9 72.0853 171.319L71.2791 173.686C71.1799 173.977 70.9042 174.28 70.6026 174.36L67.4315 175.139C66.9532 175.261 66.6793 174.812 66.8282 174.375L67.6343 172.008C67.7335 171.716 68.0092 171.414 68.3199 171.337Z" fill="#9E3E63" stroke="black" stroke-width="0.691728" mask="url(#path-10-inside-4_1233_2887)"/>
<path fill-rule="evenodd" clip-rule="evenodd" d="M68.3554 171.708L70.2761 171.234C70.561 171.172 70.7133 171.444 70.6273 171.697L70.1409 173.125C70.081 173.301 69.9147 173.483 69.7327 173.532L67.8193 174.002C67.5308 174.075 67.3655 173.804 67.4553 173.541L67.9417 172.113C68.0016 171.937 68.1679 171.754 68.3554 171.708Z" fill="#F39DB1"/>
<path d="M68.5623 171.882C68.3532 171.934 68.1676 172.137 68.1009 172.333L67.8297 173.13L68.5581 172.194L69.6333 171.618L68.5623 171.882Z" fill="white"/>
<mask id="path-13-inside-5_1233_2887" fill="white">
<path fill-rule="evenodd" clip-rule="evenodd" d="M78.7711 168.875L81.9544 168.089C82.4265 167.986 82.6791 168.438 82.5364 168.857L81.7303 171.224C81.6311 171.515 81.3554 171.817 81.0538 171.897L77.8827 172.677C77.4044 172.798 77.1305 172.349 77.2794 171.912L78.0855 169.545C78.1847 169.254 78.4604 168.952 78.7711 168.875Z"/>
</mask>
<path fill-rule="evenodd" clip-rule="evenodd" d="M78.7711 168.875L81.9544 168.089C82.4265 167.986 82.6791 168.438 82.5364 168.857L81.7303 171.224C81.6311 171.515 81.3554 171.817 81.0538 171.897L77.8827 172.677C77.4044 172.798 77.1305 172.349 77.2794 171.912L78.0855 169.545C78.1847 169.254 78.4604 168.952 78.7711 168.875Z" fill="#9E3E63" stroke="black" stroke-width="0.691728" mask="url(#path-13-inside-5_1233_2887)"/>
<path fill-rule="evenodd" clip-rule="evenodd" d="M78.8066 169.245L80.7273 168.772C81.0121 168.709 81.1645 168.982 81.0784 169.234L80.5921 170.663C80.5322 170.838 80.3659 171.021 80.1839 171.069L78.2705 171.539C77.9819 171.613 77.8167 171.342 77.9065 171.078L78.3929 169.65C78.4527 169.474 78.6191 169.292 78.8066 169.245Z" fill="#F39DB1"/>
<path d="M79.0134 169.42C78.8043 169.472 78.6188 169.675 78.5521 169.871L78.2808 170.667L79.0093 169.732L80.0845 169.155L79.0134 169.42Z" fill="white"/>
<mask id="path-16-outside-6_1233_2887" maskUnits="userSpaceOnUse" x="119.87" y="144.637" width="38.1799" height="38.1799" fill="black">
<rect fill="white" x="119.87" y="144.637" width="38.1799" height="38.1799"/>
<path fill-rule="evenodd" clip-rule="evenodd" d="M144.358 154.215L128.634 158.078C127.77 158.262 127.209 159.096 127.344 159.969L129.01 170.146C129.127 170.862 129.658 171.389 130.361 171.516L145.26 171.988L144.358 154.215Z"/>
</mask>
<path fill-rule="evenodd" clip-rule="evenodd" d="M144.358 154.215L128.634 158.078C127.77 158.262 127.209 159.096 127.344 159.969L129.01 170.146C129.127 170.862 129.658 171.389 130.361 171.516L145.26 171.988L144.358 154.215Z" fill="#6D6E70"/>
<path fill-rule="evenodd" clip-rule="evenodd" d="M144.358 154.215L128.634 158.078C127.77 158.262 127.209 159.096 127.344 159.969L129.01 170.146C129.127 170.862 129.658 171.389 130.361 171.516L145.26 171.988L144.358 154.215Z" stroke="black" stroke-width="3" mask="url(#path-16-outside-6_1233_2887)"/>
<path d="M128.634 158.078L144.358 154.215L127.572 161.361L127.344 159.969C127.209 159.096 127.77 158.262 128.634 158.078Z" fill="white"/>
<mask id="path-18-outside-7_1233_2887" maskUnits="userSpaceOnUse" x="132.686" y="127.226" width="65.148" height="64.9464" fill="black">
<rect fill="white" x="132.686" y="127.226" width="65.148" height="64.9464"/>
<path fill-rule="evenodd" clip-rule="evenodd" d="M148.038 153.573L170.84 163.924L174.538 150.426C174.723 149.763 175.054 149.229 175.579 148.777L181.566 143.653C182.062 143.23 182.799 143.691 182.643 144.325L174.578 175.795C174.122 177.55 172.334 178.631 170.578 178.195L145.26 171.97C144.567 171.793 144.014 171.482 143.512 170.966L137.867 165.158C136.594 163.847 136.624 161.733 137.934 160.459L144.358 154.216C145.351 153.251 146.774 153.007 148.038 153.573Z"/>
</mask>
<path fill-rule="evenodd" clip-rule="evenodd" d="M148.038 153.573L170.84 163.924L174.538 150.426C174.723 149.763 175.054 149.229 175.579 148.777L181.566 143.653C182.062 143.23 182.799 143.691 182.643 144.325L174.578 175.795C174.122 177.55 172.334 178.631 170.578 178.195L145.26 171.97C144.567 171.793 144.014 171.482 143.512 170.966L137.867 165.158C136.594 163.847 136.624 161.733 137.934 160.459L144.358 154.216C145.351 153.251 146.774 153.007 148.038 153.573Z" fill="#6D6E70"/>
<path fill-rule="evenodd" clip-rule="evenodd" d="M148.038 153.573L170.84 163.924L174.538 150.426C174.723 149.763 175.054 149.229 175.579 148.777L181.566 143.653C182.062 143.23 182.799 143.691 182.643 144.325L174.578 175.795C174.122 177.55 172.334 178.631 170.578 178.195L145.26 171.97C144.567 171.793 144.014 171.482 143.512 170.966L137.867 165.158C136.594 163.847 136.624 161.733 137.934 160.459L144.358 154.216C145.351 153.251 146.774 153.007 148.038 153.573Z" stroke="black" stroke-width="3" mask="url(#path-18-outside-7_1233_2887)"/>
<path d="M170.578 178.195C172.334 178.631 174.122 177.55 174.578 175.794L176.571 168.016C174.074 171.903 173.306 176.135 165.898 174.968C159.971 174.035 149.67 172.58 145.26 171.969L170.578 178.195Z" fill="#404041"/>
<path d="M167.156 162.252L148.038 153.573C146.774 153.007 145.351 153.251 144.358 154.216L138.967 159.455C140.131 158.74 143.311 157.038 146.721 155.955C149.585 155.046 159.979 159.091 167.156 162.252L170.84 163.924L172.299 158.598C173.247 156.943 175.583 153.025 177.346 150.595C179.109 148.164 181.153 147.193 181.955 147.011L182.643 144.325C182.799 143.691 182.062 143.23 181.566 143.653L175.579 148.777C175.054 149.229 174.723 149.763 174.538 150.426L172.299 158.598L170.84 163.924C169.779 163.426 168.526 162.855 167.156 162.252Z" fill="white"/>
<path d="M171.113 162.847L167.864 174.417L169.933 163.444L171.113 162.847Z" fill="black"/>
<mask id="path-22-inside-8_1233_2887" fill="white">
<path fill-rule="evenodd" clip-rule="evenodd" d="M156.475 170.105L153.292 169.32C152.82 169.216 152.567 169.668 152.71 170.087L153.516 172.454C153.615 172.745 153.891 173.048 154.192 173.128L157.363 173.907C157.842 174.029 158.116 173.58 157.967 173.143L157.161 170.776C157.061 170.485 156.786 170.182 156.475 170.105Z"/>
</mask>
<path fill-rule="evenodd" clip-rule="evenodd" d="M156.475 170.105L153.292 169.32C152.82 169.216 152.567 169.668 152.71 170.087L153.516 172.454C153.615 172.745 153.891 173.048 154.192 173.128L157.363 173.907C157.842 174.029 158.116 173.58 157.967 173.143L157.161 170.776C157.061 170.485 156.786 170.182 156.475 170.105Z" fill="#9E3E63" stroke="black" stroke-width="0.691728" mask="url(#path-22-inside-8_1233_2887)"/>
<path fill-rule="evenodd" clip-rule="evenodd" d="M156.44 170.476L154.519 170.002C154.234 169.94 154.082 170.212 154.168 170.465L154.654 171.893C154.714 172.069 154.88 172.251 155.062 172.3L156.976 172.77C157.264 172.843 157.429 172.572 157.34 172.309L156.853 170.881C156.793 170.705 156.627 170.522 156.44 170.476Z" fill="#F39DB1"/>
<path d="M156.233 170.65C156.442 170.702 156.627 170.905 156.694 171.102L156.965 171.898L156.237 170.962L155.162 170.386L156.233 170.65Z" fill="white"/>
<mask id="path-25-inside-9_1233_2887" fill="white">
<path fill-rule="evenodd" clip-rule="evenodd" d="M161.702 171.337L158.518 170.552C158.046 170.448 157.794 170.9 157.936 171.319L158.742 173.686C158.842 173.977 159.117 174.28 159.419 174.36L162.59 175.139C163.068 175.261 163.342 174.812 163.193 174.375L162.387 172.008C162.288 171.716 162.012 171.414 161.702 171.337Z"/>
</mask>
<path fill-rule="evenodd" clip-rule="evenodd" d="M161.702 171.337L158.518 170.552C158.046 170.448 157.794 170.9 157.936 171.319L158.742 173.686C158.842 173.977 159.117 174.28 159.419 174.36L162.59 175.139C163.068 175.261 163.342 174.812 163.193 174.375L162.387 172.008C162.288 171.716 162.012 171.414 161.702 171.337Z" fill="#9E3E63" stroke="black" stroke-width="0.691728" mask="url(#path-25-inside-9_1233_2887)"/>
<path fill-rule="evenodd" clip-rule="evenodd" d="M161.666 171.708L159.745 171.234C159.461 171.172 159.308 171.444 159.394 171.697L159.881 173.125C159.94 173.301 160.107 173.483 160.289 173.532L162.202 174.002C162.491 174.075 162.656 173.804 162.566 173.541L162.08 172.113C162.02 171.937 161.854 171.754 161.666 171.708Z" fill="#F39DB1"/>
<path d="M161.459 171.882C161.668 171.934 161.854 172.137 161.921 172.333L162.192 173.13L161.463 172.194L160.388 171.618L161.459 171.882Z" fill="white"/>
<mask id="path-28-inside-10_1233_2887" fill="white">
<path fill-rule="evenodd" clip-rule="evenodd" d="M151.25 168.875L148.067 168.089C147.595 167.986 147.342 168.438 147.485 168.857L148.291 171.224C148.39 171.515 148.666 171.817 148.968 171.897L152.139 172.677C152.617 172.798 152.891 172.349 152.742 171.912L151.936 169.545C151.837 169.254 151.561 168.952 151.25 168.875Z"/>
</mask>
<path fill-rule="evenodd" clip-rule="evenodd" d="M151.25 168.875L148.067 168.089C147.595 167.986 147.342 168.438 147.485 168.857L148.291 171.224C148.39 171.515 148.666 171.817 148.968 171.897L152.139 172.677C152.617 172.798 152.891 172.349 152.742 171.912L151.936 169.545C151.837 169.254 151.561 168.952 151.25 168.875Z" fill="#9E3E63" stroke="black" stroke-width="0.691728" mask="url(#path-28-inside-10_1233_2887)"/>
<path fill-rule="evenodd" clip-rule="evenodd" d="M151.215 169.245L149.294 168.772C149.009 168.709 148.857 168.982 148.943 169.234L149.429 170.663C149.489 170.838 149.656 171.021 149.838 171.069L151.751 171.539C152.04 171.613 152.205 171.342 152.115 171.078L151.629 169.65C151.569 169.474 151.402 169.292 151.215 169.245Z" fill="#F39DB1"/>
<path d="M151.008 169.42C151.217 169.472 151.403 169.675 151.469 169.871L151.741 170.667L151.012 169.732L149.937 169.155L151.008 169.42Z" fill="white"/>

        
<mask id="path-1-outside-1_1233_2887" maskUnits="userSpaceOnUse" x="101.699" y="181.1" width="27" height="16" fill="black">
<rect fill="white" x="101.699" y="181.1" width="27" height="16"/>
<path fill-rule="evenodd" clip-rule="evenodd" d="M126.792 183.1C126.792 188.111 124.342 192.473 120.742 194.702H109.749C106.15 192.473 103.699 188.111 103.699 183.1C111.397 183.1 119.095 183.1 126.792 183.1Z"/>
</mask>
<path fill-rule="evenodd" clip-rule="evenodd" d="M126.792 183.1C126.792 188.111 124.342 192.473 120.742 194.702H109.749C106.15 192.473 103.699 188.111 103.699 183.1C111.397 183.1 119.095 183.1 126.792 183.1Z" fill="#6D6E70"/>
<path fill-rule="evenodd" clip-rule="evenodd" d="M126.792 183.1C126.792 188.111 124.342 192.473 120.742 194.702H109.749C106.15 192.473 103.699 188.111 103.699 183.1C111.397 183.1 119.095 183.1 126.792 183.1Z" stroke="black" stroke-width="3" mask="url(#path-1-outside-1_1233_2887)"/>
<path d="M103.699 183.1C103.699 188.111 106.15 192.473 109.749 194.702H111.749C109.15 192.473 107.699 188.111 107.699 183.1H103.699Z" fill="#BBBDBF"/>
<path d="M126.85 183.1C126.85 188.111 124.399 192.473 120.799 194.702H118.799C121.399 192.473 122.85 188.111 122.85 183.1H126.85Z" fill="#404041"/>
<mask id="path-4-outside-2_1233_2887" maskUnits="userSpaceOnUse" x="96.6992" y="134" width="36" height="54" fill="black">
<rect fill="white" x="96.6992" y="134" width="36" height="54"/>
<path fill-rule="evenodd" clip-rule="evenodd" d="M98.6992 180.635C98.6992 184.54 106.646 185.578 114.898 185.578C123.149 185.578 131.096 184.54 131.096 180.635C131.096 161.862 128.355 153.417 128.355 137.564C128.355 136.706 127.538 136 126.527 136C121.834 136 119.605 136 114.911 136C110.218 136 107.989 136 103.296 136C102.285 136 101.468 136.706 101.468 137.564C101.44 153.43 98.6992 161.876 98.6992 180.635Z"/>
</mask>
<path fill-rule="evenodd" clip-rule="evenodd" d="M98.6992 180.635C98.6992 184.54 106.646 185.578 114.898 185.578C123.149 185.578 131.096 184.54 131.096 180.635C131.096 161.862 128.355 153.417 128.355 137.564C128.355 136.706 127.538 136 126.527 136C121.834 136 119.605 136 114.911 136C110.218 136 107.989 136 103.296 136C102.285 136 101.468 136.706 101.468 137.564C101.44 153.43 98.6992 161.876 98.6992 180.635Z" fill="#6D6E70"/>
<path fill-rule="evenodd" clip-rule="evenodd" d="M98.6992 180.635C98.6992 184.54 106.646 185.578 114.898 185.578C123.149 185.578 131.096 184.54 131.096 180.635C131.096 161.862 128.355 153.417 128.355 137.564C128.355 136.706 127.538 136 126.527 136C121.834 136 119.605 136 114.911 136C110.218 136 107.989 136 103.296 136C102.285 136 101.468 136.706 101.468 137.564C101.44 153.43 98.6992 161.876 98.6992 180.635Z" stroke="black" stroke-width="3" mask="url(#path-4-outside-2_1233_2887)"/>
<path d="M114.463 185.577C106.369 185.541 98.6992 184.471 98.6992 180.635C98.6992 161.876 101.44 153.43 101.468 137.564C101.468 136.706 102.285 136 103.296 136H104.319C103.308 136 102.468 136.706 102.468 137.564C102.44 153.43 100.699 161.876 100.699 180.635C100.699 184.471 106.438 185.54 114.463 185.577Z" fill="#BBBDBF"/>
<path d="M128.356 137.564C128.356 153.417 131.097 161.862 131.097 180.635C131.097 184.537 123.159 185.577 114.912 185.578V136H126.528C127.539 136 128.356 136.706 128.356 137.564Z" fill="#404041"/>
<path fill-rule="evenodd" clip-rule="evenodd" d="M106.714 169.607L108.791 141.571C108.86 140.546 109.719 139.757 110.743 139.757H119.452C120.476 139.757 121.321 140.546 121.404 141.571L123.48 169.607C123.785 173.829 119.438 175.934 115.09 175.934C110.743 175.934 106.41 173.815 106.714 169.607Z" fill="#404041"/>
<mask id="path-8-inside-3_1233_2887" fill="white">
<path fill-rule="evenodd" clip-rule="evenodd" d="M106.714 167.907L108.791 139.871C108.86 138.847 109.719 138.058 110.743 138.058H119.452C120.476 138.058 121.321 138.847 121.404 139.871L123.48 167.907C123.785 172.129 119.438 174.234 115.09 174.234C110.743 174.234 106.41 172.116 106.714 167.907Z"/>
</mask>
<path fill-rule="evenodd" clip-rule="evenodd" d="M106.714 167.907L108.791 139.871C108.86 138.847 109.719 138.058 110.743 138.058H119.452C120.476 138.058 121.321 138.847 121.404 139.871L123.48 167.907C123.785 172.129 119.438 174.234 115.09 174.234C110.743 174.234 106.41 172.116 106.714 167.907Z" fill="#6D6E70" stroke="black" stroke-width="2" mask="url(#path-8-inside-3_1233_2887)"/>
<path d="M121.405 139.871C121.322 138.847 120.477 138.058 119.453 138.058H115.092V174.234C119.439 174.234 123.786 172.129 123.482 167.907L121.405 139.871Z" fill="#404041"/>
<mask id="path-10-inside-4_1233_2887" fill="white">
<path fill-rule="evenodd" clip-rule="evenodd" d="M106.714 167.907L108.791 139.871C108.86 138.847 109.719 138.058 110.743 138.058H119.452C120.476 138.058 121.321 138.847 121.404 139.871L123.48 167.907C123.785 172.129 119.438 174.234 115.09 174.234C110.743 174.234 106.41 172.116 106.714 167.907Z"/>
</mask>
<path fill-rule="evenodd" clip-rule="evenodd" d="M106.714 167.907L108.791 139.871C108.86 138.847 109.719 138.058 110.743 138.058H119.452C120.476 138.058 121.321 138.847 121.404 139.871L123.48 167.907C123.785 172.129 119.438 174.234 115.09 174.234C110.743 174.234 106.41 172.116 106.714 167.907Z" stroke="black" stroke-width="2" mask="url(#path-10-inside-4_1233_2887)"/>
<path d="M115.334 185.577C123.428 185.541 131.098 184.471 131.098 180.635C131.098 161.876 128.356 153.43 128.329 137.564C128.329 136.706 127.512 136 126.501 136H125.478C126.489 136 127.329 136.706 127.329 137.564C127.356 153.43 129.098 161.876 129.098 180.635C129.098 184.471 123.359 185.54 115.334 185.577Z" fill="#231F20"/>
<rect x="0.255127" y="-0.298716" width="2.77778" height="20.5556" rx="0.833333" transform="matrix(-0.996917 0.0784593 0.0784589 0.996917 126.162 142.349)" fill="black" stroke="black" stroke-width="0.555556"/>
<rect width="2.22222" height="20" rx="0.555556" transform="matrix(-0.996917 0.0784593 0.0784589 0.996917 125.961 142.344)" fill="#9E3E63"/>
<path fill-rule="evenodd" clip-rule="evenodd" d="M125.756 145.905L125.152 145.953C124.905 145.972 124.724 146.308 124.754 146.689L125.793 159.887C125.823 160.268 126.054 160.571 126.301 160.552L126.905 160.504C127.152 160.485 127.333 160.149 127.303 159.768L126.265 146.585C126.234 146.189 126.003 145.886 125.756 145.905Z" fill="#F39DB1"/>
<path d="M125.242 146.452C125.103 146.463 124.964 146.134 124.931 145.717C124.898 145.3 124.984 144.953 125.123 144.942C125.262 144.931 125.402 145.26 125.434 145.677C125.467 146.095 125.381 146.441 125.242 146.452Z" fill="white"/>
<path d="M126.958 158.607L126.446 152.098C126.401 151.531 126.011 150.65 125.436 149.792C125.373 149.685 125.304 149.584 125.228 149.493C125.299 149.592 125.369 149.692 125.436 149.792C125.884 150.55 126.02 151.63 126.029 152.131L126.542 158.64C126.611 159.136 126.458 159.783 125.806 160.189C126.36 160.145 127.003 159.175 126.958 158.607Z" fill="white"/>
<rect x="104.36" y="142.071" width="2.77778" height="20.5556" rx="0.833333" transform="rotate(4.49999 104.36 142.071)" fill="black" stroke="black" stroke-width="0.555556"/>
<rect x="104.283" y="142.344" width="2.22222" height="20" rx="0.555556" transform="rotate(4.49999 104.283 142.344)" fill="#9E3E63"/>
<path fill-rule="evenodd" clip-rule="evenodd" d="M104.488 145.905L105.092 145.953C105.339 145.972 105.52 146.308 105.49 146.689L104.452 159.887C104.422 160.268 104.19 160.571 103.943 160.552L103.339 160.504C103.092 160.485 102.911 160.149 102.941 159.768L103.979 146.585C104.01 146.189 104.241 145.886 104.488 145.905Z" fill="#F39DB1"/>
<path d="M105.002 146.452C105.141 146.463 105.28 146.134 105.313 145.717C105.346 145.3 105.26 144.953 105.121 144.942C104.982 144.931 104.843 145.26 104.81 145.677C104.777 146.095 104.863 146.441 105.002 146.452Z" fill="white"/>
<path d="M103.286 158.607L103.799 152.098C103.843 151.531 104.234 150.65 104.808 149.792C104.871 149.685 104.94 149.584 105.017 149.493C104.945 149.592 104.875 149.692 104.808 149.792C104.36 150.55 104.224 151.63 104.215 152.131L103.702 158.64C103.634 159.136 103.786 159.783 104.438 160.189C103.884 160.145 103.242 159.175 103.286 158.607Z" fill="white"/>
<path fill-rule="evenodd" clip-rule="evenodd" d="M119.974 168.661C119.974 168.232 119.974 167.789 119.974 167.359C119.974 166.82 119.337 166.21 118.603 166.376C116.263 166.916 113.91 166.916 111.57 166.376C110.836 166.21 110.199 166.82 110.199 167.359C110.199 167.789 110.199 168.232 110.199 168.661C110.199 169.201 110.822 169.505 111.57 169.644C113.91 170.073 116.263 170.073 118.603 169.644C119.351 169.505 119.974 169.201 119.974 168.661Z" fill="black"/>
<path fill-rule="evenodd" clip-rule="evenodd" d="M119.517 168.979C119.517 168.55 119.517 168.107 119.517 167.678C119.517 167.318 119.102 166.958 118.603 167.027C116.263 167.332 113.91 167.332 111.57 167.027C111.072 166.958 110.656 167.318 110.656 167.678C110.656 168.107 110.656 168.55 110.656 168.979C110.656 169.339 111.072 169.547 111.57 169.63C113.91 170.059 116.263 170.059 118.603 169.63C119.102 169.547 119.517 169.339 119.517 168.979Z" fill="#9E3E63"/>
<path fill-rule="evenodd" clip-rule="evenodd" d="M118.603 168.854C118.603 168.508 118.603 168.162 118.603 167.816C118.603 167.525 118.271 167.221 117.883 167.29C116.028 167.664 114.159 167.664 112.304 167.29C111.916 167.207 111.584 167.525 111.584 167.816C111.584 168.162 111.584 168.508 111.584 168.854C111.584 169.145 111.916 169.325 112.304 169.38C114.104 169.63 115.959 169.643 117.883 169.38C118.271 169.311 118.603 169.131 118.603 168.854Z" fill="#F39DB1"/>
<path d="M112.201 169.387C111.87 169.347 111.586 169.22 111.586 169.015V168.522C112.023 169.015 113.809 169.133 114.664 169.133C115.519 169.133 117.299 168.78 117.586 168.651V169.015C117.586 169.21 117.302 169.338 116.971 169.387C115.326 169.573 113.74 169.563 112.201 169.387Z" fill="white"/>
<path d="M117.185 167.688C117.185 167.597 117.407 167.522 117.681 167.522C117.955 167.522 118.178 167.597 118.178 167.688C118.178 167.779 117.955 167.854 117.681 167.854C117.407 167.854 117.185 167.779 117.185 167.688Z" fill="white"/>
<path d="M114.898 185.578C106.646 185.578 98.6992 184.539 98.6992 180.635V177.135C98.6992 181.039 106.646 182.078 114.898 182.078C123.149 182.078 131.096 181.039 131.096 177.135V180.635C131.096 184.539 123.149 185.578 114.898 185.578Z" fill="#404041"/>
<path d="M98 177.135C98 181.039 106.647 182.778 114.898 182.778C123.15 182.778 131.797 181.039 131.797 177.135" stroke="black" stroke-width="1.5"/>
<path d="M114.9 183.35V185.85" stroke="black"/>
<path d="M118.9 183.25V185.75" stroke="black"/>
<path d="M122.9 182.75V185.25" stroke="black"/>
<path d="M126.9 181.949V184.449" stroke="black"/>
<path d="M130.9 179.85V182.35" stroke="black"/>
<path d="M110.9 183.35V185.85" stroke="black"/>
<path d="M106.9 182.849V185.349" stroke="black"/>
<path d="M102.9 181.95V184.45" stroke="black"/>
<path d="M98.9004 180.05V182.55" stroke="black"/>

        
<mask id="path-1-outside-1_1233_2887" maskUnits="userSpaceOnUse" x="107.67" y="21.3994" width="15" height="33" fill="black">
<rect fill="white" x="107.67" y="21.3994" width="15" height="33"/>
<path fill-rule="evenodd" clip-rule="evenodd" d="M115.277 23.3994C114.723 23.3994 112.619 28.6742 112.619 31.5401V37.078C111.137 38.0887 109.67 39.487 109.67 40.4284C109.67 44.3049 109.67 48.1815 109.67 52.058C113.408 52.058 117.16 52.058 120.898 52.058C120.898 48.1815 120.898 44.3049 120.898 40.4284C120.898 39.487 119.417 38.0887 117.949 37.078V31.5401C117.935 28.6604 115.831 23.3994 115.277 23.3994Z"/>
</mask>
<path fill-rule="evenodd" clip-rule="evenodd" d="M115.277 23.3994C114.723 23.3994 112.619 28.6742 112.619 31.5401V37.078C111.137 38.0887 109.67 39.487 109.67 40.4284C109.67 44.3049 109.67 48.1815 109.67 52.058C113.408 52.058 117.16 52.058 120.898 52.058C120.898 48.1815 120.898 44.3049 120.898 40.4284C120.898 39.487 119.417 38.0887 117.949 37.078V31.5401C117.935 28.6604 115.831 23.3994 115.277 23.3994Z" fill="#6D6E70"/>
<path fill-rule="evenodd" clip-rule="evenodd" d="M115.277 23.3994C114.723 23.3994 112.619 28.6742 112.619 31.5401V37.078C111.137 38.0887 109.67 39.487 109.67 40.4284C109.67 44.3049 109.67 48.1815 109.67 52.058C113.408 52.058 117.16 52.058 120.898 52.058C120.898 48.1815 120.898 44.3049 120.898 40.4284C120.898 39.487 119.417 38.0887 117.949 37.078V31.5401C117.935 28.6604 115.831 23.3994 115.277 23.3994Z" stroke="black" stroke-width="3" mask="url(#path-1-outside-1_1233_2887)"/>
<path d="M112.702 28.3984H117.951V28.7582H112.702V28.3984Z" fill="#BBBDBF"/>
<path d="M112.702 30.2246H117.951V30.5844H112.702V30.2246Z" fill="#BBBDBF"/>
<path d="M112.702 32.0654H117.951V32.4252H112.702V32.0654Z" fill="#BBBDBF"/>
<path d="M112.702 33.8921H117.951V34.2518H112.702V33.8921Z" fill="#BBBDBF"/>
<path d="M112.702 35.7324H117.951V36.0922H112.702V35.7324Z" fill="#BBBDBF"/>
<mask id="path-7-outside-2_1233_2887" maskUnits="userSpaceOnUse" x="107.67" y="21.3994" width="15" height="33" fill="black">
<rect fill="white" x="107.67" y="21.3994" width="15" height="33"/>
<path fill-rule="evenodd" clip-rule="evenodd" d="M115.277 23.3994C114.723 23.3994 112.619 28.6742 112.619 31.5401V37.078C111.137 38.0887 109.67 39.487 109.67 40.4284C109.67 44.3049 109.67 48.1815 109.67 52.058C113.408 52.058 117.16 52.058 120.898 52.058C120.898 48.1815 120.898 44.3049 120.898 40.4284C120.898 39.487 119.417 38.0887 117.949 37.078V31.5401C117.935 28.6604 115.831 23.3994 115.277 23.3994Z"/>
</mask>
<path fill-rule="evenodd" clip-rule="evenodd" d="M115.277 23.3994C114.723 23.3994 112.619 28.6742 112.619 31.5401V37.078C111.137 38.0887 109.67 39.487 109.67 40.4284C109.67 44.3049 109.67 48.1815 109.67 52.058C113.408 52.058 117.16 52.058 120.898 52.058C120.898 48.1815 120.898 44.3049 120.898 40.4284C120.898 39.487 119.417 38.0887 117.949 37.078V31.5401C117.935 28.6604 115.831 23.3994 115.277 23.3994Z" stroke="black" stroke-width="3" mask="url(#path-7-outside-2_1233_2887)"/>
<path d="M112.619 31.5401C112.619 28.6742 114.723 23.3994 115.277 23.3994V52.058H109.67V40.4284C109.67 39.487 111.137 38.0887 112.619 37.078V31.5401Z" fill="#BBBDBF"/>
<mask id="path-9-outside-3_1233_2887" maskUnits="userSpaceOnUse" x="80" y="45.3994" width="34" height="39" fill="black">
<rect fill="white" x="80" y="45.3994" width="34" height="39"/>
<path d="M111.656 50.0077C112.141 48.071 109.8 46.6981 108.346 48.0655L82 72.8387V81.25L106.299 71.4369L111.656 50.0077Z"/>
</mask>
<path d="M111.656 50.0077C112.141 48.071 109.8 46.6981 108.346 48.0655L82 72.8387V81.25L106.299 71.4369L111.656 50.0077Z" fill="#6D6E70"/>
<path d="M111.656 50.0077C112.141 48.071 109.8 46.6981 108.346 48.0655L82 72.8387V81.25L106.299 71.4369L111.656 50.0077Z" stroke="black" stroke-width="3" mask="url(#path-9-outside-3_1233_2887)"/>
<path d="M82 72.8387L113.308 43.3994L84 73.8994L82 81.25V72.8387Z" fill="white"/>
<path d="M113.308 43.3994L106.299 71.4369L97.5 74.9904L102.5 53.5626L113.308 43.3994Z" fill="#404041"/>
<path d="M102.526 68.7989L102.241 72.2788L99.5635 73.5481L101.617 71.565L102.526 68.7989Z" fill="white"/>
<mask id="path-13-outside-4_1233_2887" maskUnits="userSpaceOnUse" x="86.5859" y="59.4614" width="37" height="46" fill="black">
<rect fill="white" x="86.5859" y="59.4614" width="37" height="46"/>
<path d="M119.894 64.4614L88.5859 93.9007V102.312L112.885 92.4989L119.894 64.4614Z"/>
</mask>
<path d="M119.894 64.4614L88.5859 93.9007V102.312L112.885 92.4989L119.894 64.4614Z" fill="#6D6E70"/>
<path d="M119.894 64.4614L88.5859 93.9007V102.312L112.885 92.4989L119.894 64.4614Z" stroke="black" stroke-width="3" mask="url(#path-13-outside-4_1233_2887)"/>
<path d="M88.5859 93.9007L119.894 64.4614L90.4993 94.3994L88.5859 102.312V93.9007Z" fill="white"/>
<path d="M119.895 64.4614L112.885 92.4989L96.5996 99.1124L99.9996 83.1688L119.895 64.4614Z" fill="#404041"/>
<path d="M101.325 93.0919L101.04 96.5718L98.3623 97.8411L100.416 95.858L101.325 93.0919Z" fill="white"/>
<mask id="path-17-outside-5_1233_2887" maskUnits="userSpaceOnUse" x="116.695" y="45.3994" width="34" height="39" fill="black">
<rect fill="white" x="116.695" y="45.3994" width="34" height="39"/>
<path d="M119.039 50.0077C118.555 48.071 120.895 46.6981 122.349 48.0655L148.695 72.8387V81.25L124.396 71.4369L119.039 50.0077Z"/>
</mask>
<path d="M119.039 50.0077C118.555 48.071 120.895 46.6981 122.349 48.0655L148.695 72.8387V81.25L124.396 71.4369L119.039 50.0077Z" fill="#6D6E70"/>
<path d="M119.039 50.0077C118.555 48.071 120.895 46.6981 122.349 48.0655L148.695 72.8387V81.25L124.396 71.4369L119.039 50.0077Z" stroke="black" stroke-width="3" mask="url(#path-17-outside-5_1233_2887)"/>
<path d="M148.695 72.8387L117.387 43.3994L146.695 73.8994L148.695 81.25V72.8387Z" fill="white"/>
<path d="M117.387 43.3994L124.396 71.4369L133.195 74.9904L128.195 53.5626L117.387 43.3994Z" fill="#404041"/>
<mask id="path-20-outside-6_1233_2887" maskUnits="userSpaceOnUse" x="107.109" y="59.4614" width="37" height="46" fill="black">
<rect fill="white" x="107.109" y="59.4614" width="37" height="46"/>
<path d="M110.801 64.4614L142.109 93.9007V102.312L117.81 92.4989L110.801 64.4614Z"/>
</mask>
<path d="M110.801 64.4614L142.109 93.9007V102.312L117.81 92.4989L110.801 64.4614Z" fill="#6D6E70"/>
<path d="M110.801 64.4614L142.109 93.9007V102.312L117.81 92.4989L110.801 64.4614Z" stroke="black" stroke-width="3" mask="url(#path-20-outside-6_1233_2887)"/>
<path d="M142.109 93.9007L110.801 64.4614L140.196 94.3994L142.109 102.312V93.9007Z" fill="white"/>
<path d="M110.801 64.4614L117.81 92.4989L134.096 99.1124L130.696 83.1688L110.801 64.4614Z" fill="#404041"/>
<path d="M128.072 68.7989L128.357 72.2788L131.034 73.5481L128.981 71.565L128.072 68.7989Z" fill="white"/>
<path d="M129.373 93.0919L129.658 96.5718L132.335 97.8411L130.282 95.858L129.373 93.0919Z" fill="white"/>
<mask id="path-25-outside-7_1233_2887" maskUnits="userSpaceOnUse" x="95.5" y="39.979" width="40" height="101" fill="black">
<rect fill="white" x="95.5" y="39.979" width="40" height="101"/>
<path d="M112.84 49.026C112.826 50.2166 112.549 52.058 115.277 52.058C118.004 52.058 117.727 50.2166 117.741 49.026V41.979C119.444 41.979 122.808 42.2697 123.113 44.4711C126.602 69.3915 127.571 85.4237 127.585 110.773C127.585 111.272 127.751 111.687 128.097 112.047C129.758 113.764 131.42 115.467 133.081 117.183V129.353C131.433 131.471 129.786 133.603 128.138 135.722C128.138 140.094 102.459 140.074 102.431 135.707C100.787 133.593 99.1436 131.466 97.5 129.353V117.183C99.1614 115.467 100.823 113.764 102.484 112.047C102.83 111.687 102.996 111.272 102.996 110.773C103.01 85.4099 103.979 69.3915 107.468 44.4711C107.773 42.2697 111.137 41.979 112.84 41.979V49.026Z"/>
</mask>
<path d="M112.84 49.026C112.826 50.2166 112.549 52.058 115.277 52.058C118.004 52.058 117.727 50.2166 117.741 49.026V41.979C119.444 41.979 122.808 42.2697 123.113 44.4711C126.602 69.3915 127.571 85.4237 127.585 110.773C127.585 111.272 127.751 111.687 128.097 112.047C129.758 113.764 131.42 115.467 133.081 117.183V129.353C131.433 131.471 129.786 133.603 128.138 135.722C128.138 140.094 102.459 140.074 102.431 135.707C100.787 133.593 99.1436 131.466 97.5 129.353V117.183C99.1614 115.467 100.823 113.764 102.484 112.047C102.83 111.687 102.996 111.272 102.996 110.773C103.01 85.4099 103.979 69.3915 107.468 44.4711C107.773 42.2697 111.137 41.979 112.84 41.979V49.026Z" fill="#6D6E70"/>
<path d="M102.431 135.707L101.681 135.711L101.683 135.966L101.839 136.167L102.431 135.707ZM101.839 136.167C101.841 136.169 101.843 136.172 101.845 136.174C101.847 136.177 101.849 136.179 101.851 136.182L103.035 135.261C103.033 135.259 103.031 135.256 103.029 135.254C103.027 135.251 103.025 135.249 103.023 135.246L101.839 136.167ZM101.681 135.699C101.681 135.704 101.681 135.708 101.681 135.711L103.181 135.702C103.181 135.701 103.181 135.7 103.181 135.699H101.681ZM112.84 49.026L114.34 49.0434L114.34 49.0347V49.026H112.84ZM112.84 41.979H114.34V40.479H112.84V41.979ZM107.468 44.4711L108.954 44.679L108.954 44.6766L107.468 44.4711ZM102.996 110.773L101.496 110.773V110.773H102.996ZM102.484 112.047L103.562 113.09L103.565 113.087L102.484 112.047ZM97.5 117.183L96.4221 116.14L96 116.577V117.183H97.5ZM97.5 129.353H96V129.868L96.316 130.274L97.5 129.353ZM102.431 135.707L103.931 135.697L103.928 135.188L103.615 134.786L102.431 135.707ZM128.138 135.722L126.954 134.801L126.638 135.207V135.722H128.138ZM133.081 129.353L134.265 130.274L134.581 129.868V129.353H133.081ZM133.081 117.183H134.581V116.577L134.159 116.14L133.081 117.183ZM128.097 112.047L127.016 113.087L127.019 113.09L128.097 112.047ZM127.585 110.773L129.085 110.773L129.085 110.773L127.585 110.773ZM123.113 44.4711L121.627 44.6766L121.627 44.679L123.113 44.4711ZM117.741 41.979V40.479H116.241V41.979H117.741ZM117.741 49.026L119.241 49.0434L119.241 49.0347V49.026H117.741ZM115.277 50.558C114.751 50.558 114.523 50.4674 114.451 50.4291C114.411 50.4075 114.412 50.4038 114.402 50.3807C114.376 50.3218 114.341 50.1932 114.33 49.9372C114.317 49.6482 114.335 49.44 114.34 49.0434L111.34 49.0085C111.338 49.2072 111.316 49.6757 111.333 50.0668C111.351 50.491 111.415 51.0459 111.659 51.5962C111.919 52.1823 112.361 52.7133 113.036 53.0742C113.679 53.4183 114.439 53.558 115.277 53.558V50.558ZM114.34 49.026V41.979H111.34V49.026H114.34ZM112.84 40.479C111.937 40.479 110.487 40.5522 109.174 40.9703C107.914 41.3718 106.257 42.2809 105.982 44.2655L108.954 44.6766C108.984 44.4599 109.161 44.1229 110.085 43.8288C110.956 43.5512 112.04 43.479 112.84 43.479V40.479ZM105.983 44.2631C102.483 69.2596 101.51 85.3476 101.496 110.773L104.496 110.774C104.51 85.4721 105.475 69.5235 108.954 44.679L105.983 44.2631ZM101.496 110.773C101.496 110.852 101.484 110.888 101.478 110.903C101.472 110.918 101.456 110.952 101.403 111.007L103.565 113.087C104.182 112.446 104.496 111.657 104.496 110.773H101.496ZM101.406 111.004C100.577 111.861 99.7471 112.715 98.9163 113.57C98.0857 114.425 97.254 115.281 96.4221 116.14L98.5779 118.227C99.4074 117.37 100.237 116.516 101.068 115.661C101.898 114.806 102.73 113.95 103.562 113.09L101.406 111.004ZM96 117.183V129.353H99V117.183H96ZM96.316 130.274C97.1369 131.329 97.958 132.389 98.78 133.449C99.6016 134.509 100.424 135.57 101.247 136.627L103.615 134.786C102.794 133.73 101.973 132.671 101.151 131.611C100.329 130.551 99.5067 129.49 98.684 128.432L96.316 130.274ZM129.322 136.642C130.147 135.582 130.971 134.519 131.795 133.456C132.619 132.394 133.442 131.332 134.265 130.274L131.897 128.432C131.072 129.492 130.248 130.556 129.424 131.618C128.6 132.681 127.777 133.743 126.954 134.801L129.322 136.642ZM134.581 129.353V117.183H131.581V129.353H134.581ZM134.159 116.14C133.327 115.281 132.495 114.425 131.665 113.57C130.834 112.715 130.004 111.861 129.175 111.004L127.019 113.09C127.851 113.95 128.683 114.806 129.513 115.661C130.344 116.516 131.174 117.37 132.003 118.227L134.159 116.14ZM129.178 111.007C129.125 110.952 129.109 110.918 129.103 110.903C129.097 110.888 129.085 110.852 129.085 110.773H126.085C126.085 111.657 126.399 112.446 127.016 113.087L129.178 111.007ZM129.085 110.773C129.071 85.3615 128.098 69.2596 124.598 44.2631L121.627 44.679C125.105 69.5235 126.071 85.4859 126.085 110.774L129.085 110.773ZM124.599 44.2655C124.324 42.2809 122.667 41.3718 121.406 40.9703C120.094 40.5522 118.644 40.479 117.741 40.479V43.479C118.541 43.479 119.625 43.5512 120.496 43.8288C121.419 44.1229 121.597 44.4599 121.627 44.6766L124.599 44.2655ZM116.241 41.979V49.026H119.241V41.979H116.241ZM116.241 49.0085C116.236 49.4319 116.253 49.6092 116.236 49.9201C116.222 50.1802 116.186 50.3118 116.158 50.3742C116.146 50.4009 116.145 50.4065 116.103 50.4287C116.031 50.4675 115.802 50.558 115.277 50.558V53.558C116.115 53.558 116.874 53.4182 117.517 53.0746C118.191 52.7143 118.633 52.1851 118.895 51.6027C119.14 51.0559 119.208 50.504 119.231 50.084C119.252 49.7147 119.239 49.2154 119.241 49.0434L116.241 49.0085ZM100.931 135.716C100.94 137.084 101.951 137.95 102.789 138.437C103.686 138.959 104.861 139.342 106.127 139.629C108.684 140.21 112.017 140.489 115.294 140.492C118.571 140.494 121.902 140.219 124.456 139.641C125.721 139.355 126.895 138.973 127.79 138.451C128.629 137.963 129.638 137.093 129.638 135.722H126.638C126.638 135.443 126.846 135.529 126.279 135.86C125.77 136.157 124.938 136.456 123.794 136.715C121.533 137.227 118.443 137.494 115.296 137.492C112.15 137.49 109.057 137.218 106.792 136.704C105.646 136.444 104.811 136.143 104.298 135.844C103.726 135.512 103.929 135.421 103.931 135.697L100.931 135.716Z" fill="black" mask="url(#path-25-outside-7_1233_2887)"/>
<path d="M102.996 110.774C103.01 85.4101 103.979 69.3918 107.468 44.4713C107.563 43.7859 107.954 43.2857 108.5 42.9219C107.986 52.8926 106.145 67.3084 105.477 80.3996C104.63 97.0041 104.8 113.4 104.8 113.4L99.5 118.4V131.4L103 136.4C101.352 134.281 99.1475 131.471 97.5 129.353V117.184C99.1614 115.467 100.823 113.764 102.484 112.047C102.83 111.687 102.996 111.272 102.996 110.774Z" fill="#BBBDBF"/>
<path d="M133.082 129.353C131.434 131.471 129.787 133.603 128.139 135.722C128.139 137.91 121.707 138.998 115.277 138.992V52.058C118.005 52.058 117.728 50.2166 117.742 49.026V41.979C119.445 41.979 122.809 42.2697 123.113 44.4711C126.602 69.3915 127.571 85.4237 127.585 110.773C127.585 111.272 127.751 111.687 128.098 112.047C129.759 113.764 131.42 115.467 133.082 117.183V129.353Z" fill="#404041"/>
<path d="M127.603 110.774C127.589 85.4101 126.62 69.3918 123.131 44.4713C123.037 43.7859 122.645 43.2857 122.1 42.9219C122.614 52.8926 124.455 67.3084 125.123 80.3996C125.97 97.0041 125.8 113.4 125.8 113.4L131.8 117.9V130.4L128.157 135.722C129.805 133.604 131.452 131.471 133.1 129.353V117.184C131.438 115.467 129.777 113.764 128.116 112.047C127.769 111.687 127.603 111.272 127.603 110.774Z" fill="#231F20"/>
<path d="M97 129.399C97.0143 131.642 106.639 133.735 116 133.675C124.868 133.618 133.5 131.527 133.5 129.399" stroke="black"/>
<path d="M97 116.399C97.0143 118.642 106.639 120.735 116 120.675C124.868 120.618 133.5 118.527 133.5 116.399" stroke="black"/>
<path d="M102.5 111.399C102.528 115.767 128 115.772 128 111.399" stroke="black"/>
<mask id="path-33-inside-8_1233_2887" fill="white">
<path fill-rule="evenodd" clip-rule="evenodd" d="M115.319 122.899H110.197C109.186 122.899 108.369 123.716 108.369 124.726V128.88C108.369 129.891 109.186 130.707 110.197 130.707H115.319H120.442C121.452 130.707 122.269 129.891 122.269 128.88V124.726C122.269 123.716 121.452 122.899 120.442 122.899H115.319Z"/>
</mask>
<path fill-rule="evenodd" clip-rule="evenodd" d="M115.319 122.899H110.197C109.186 122.899 108.369 123.716 108.369 124.726V128.88C108.369 129.891 109.186 130.707 110.197 130.707H115.319H120.442C121.452 130.707 122.269 129.891 122.269 128.88V124.726C122.269 123.716 121.452 122.899 120.442 122.899H115.319Z" fill="#6D6E70" stroke="black" stroke-width="2" mask="url(#path-33-inside-8_1233_2887)"/>
<path d="M107.35 49.7228C107.35 49.7228 107.839 45.0608 108.219 44.23C108.599 43.3992 111.085 42.8899 111.085 42.8899L108.899 44.6992L107.35 49.7228Z" fill="white"/>
<path d="M123.134 49.7228C123.134 49.7228 122.646 45.0608 122.265 44.23C121.885 43.3992 119.4 42.8899 119.4 42.8899L121.585 44.6992L123.134 49.7228Z" fill="white"/>
<path d="M103.984 105.859L103.915 111.358L107.926 112.645L105 110.331L103.984 105.859Z" fill="white"/>
<path d="M126.942 105.858L127.01 111.357L123 112.644L125.926 110.33L126.942 105.858Z" fill="white"/>
<rect x="102.35" y="123.55" width="1.7" height="4.3" rx="0.65" fill="black" stroke="black" stroke-width="0.3"/>
<rect x="102.301" y="123.7" width="1.4" height="4" rx="0.5" fill="#9E3E63"/>
<path fill-rule="evenodd" clip-rule="evenodd" d="M102.677 124.406H103.059C103.215 124.406 103.345 124.47 103.345 124.547V127.195C103.345 127.271 103.215 127.335 103.059 127.335H102.677C102.521 127.335 102.391 127.271 102.391 127.195V124.55C102.391 124.47 102.521 124.406 102.677 124.406Z" fill="#F39DB1"/>
<path d="M103.026 124.508C103.114 124.508 103.185 124.44 103.185 124.356C103.185 124.272 103.114 124.205 103.026 124.205C102.938 124.205 102.867 124.272 102.867 124.356C102.867 124.44 102.938 124.508 103.026 124.508Z" fill="white"/>
<path d="M102.549 126.958V125.652C102.549 125.538 102.75 125.356 103.069 125.176C103.103 125.154 103.142 125.133 103.185 125.113C103.145 125.134 103.106 125.155 103.069 125.176C102.825 125.334 102.793 125.552 102.812 125.652L102.812 126.958C102.793 127.058 102.921 127.184 103.35 127.255C103 127.255 102.549 127.072 102.549 126.958Z" fill="white"/>
<rect x="126.35" y="123.55" width="1.7" height="4.3" rx="0.65" fill="black" stroke="black" stroke-width="0.3"/>
<rect x="126.699" y="123.7" width="1.4" height="4" rx="0.5" fill="#9E3E63"/>
<path fill-rule="evenodd" clip-rule="evenodd" d="M127.075 124.406H127.457C127.613 124.406 127.743 124.47 127.743 124.547V127.195C127.743 127.271 127.613 127.335 127.457 127.335H127.075C126.919 127.335 126.789 127.271 126.789 127.195V124.55C126.789 124.47 126.919 124.406 127.075 124.406Z" fill="#F39DB1"/>
<path d="M127.425 124.508C127.513 124.508 127.584 124.44 127.584 124.356C127.584 124.272 127.513 124.205 127.425 124.205C127.337 124.205 127.266 124.272 127.266 124.356C127.266 124.44 127.337 124.508 127.425 124.508Z" fill="white"/>
<path d="M126.947 126.958V125.652C126.947 125.538 127.149 125.356 127.467 125.176C127.502 125.154 127.54 125.133 127.584 125.113C127.543 125.134 127.504 125.155 127.467 125.176C127.224 125.334 127.192 125.552 127.21 125.652L127.21 126.958C127.192 127.058 127.319 127.184 127.749 127.255C127.399 127.255 126.947 127.072 126.947 126.958Z" fill="white"/>
<mask id="path-48-outside-9_1233_2887" maskUnits="userSpaceOnUse" x="108.5" y="57.3994" width="14" height="41" fill="black">
<rect fill="white" x="108.5" y="57.3994" width="14" height="41"/>
<path fill-rule="evenodd" clip-rule="evenodd" d="M111.065 67.3708C111.992 61.9575 113.391 58.3994 115.315 58.3994C117.239 58.3994 118.638 61.9437 119.565 67.3708C120.618 73.5317 121.13 82.1985 121.13 90.7407C121.13 91.8482 120.244 93.4127 119.025 94.631C117.932 95.7248 116.547 96.5693 115.315 96.5693C114.069 96.5693 112.698 95.7386 111.605 94.631C110.386 93.4127 109.5 91.8482 109.5 90.7407C109.486 82.1846 109.999 73.5317 111.065 67.3708Z"/>
</mask>
<path fill-rule="evenodd" clip-rule="evenodd" d="M111.065 67.3708C111.992 61.9575 113.391 58.3994 115.315 58.3994C117.239 58.3994 118.638 61.9437 119.565 67.3708C120.618 73.5317 121.13 82.1985 121.13 90.7407C121.13 91.8482 120.244 93.4127 119.025 94.631C117.932 95.7248 116.547 96.5693 115.315 96.5693C114.069 96.5693 112.698 95.7386 111.605 94.631C110.386 93.4127 109.5 91.8482 109.5 90.7407C109.486 82.1846 109.999 73.5317 111.065 67.3708Z" fill="#AA3964"/>
<path fill-rule="evenodd" clip-rule="evenodd" d="M111.065 67.3708C111.992 61.9575 113.391 58.3994 115.315 58.3994C117.239 58.3994 118.638 61.9437 119.565 67.3708C120.618 73.5317 121.13 82.1985 121.13 90.7407C121.13 91.8482 120.244 93.4127 119.025 94.631C117.932 95.7248 116.547 96.5693 115.315 96.5693C114.069 96.5693 112.698 95.7386 111.605 94.631C110.386 93.4127 109.5 91.8482 109.5 90.7407C109.486 82.1846 109.999 73.5317 111.065 67.3708Z" stroke="black" stroke-width="2" mask="url(#path-48-outside-9_1233_2887)"/>
<path fill-rule="evenodd" clip-rule="evenodd" d="M115.319 65.9194C114.004 65.9194 113.672 66.5286 113.049 68.7991C111.872 73.0772 111.18 80.7333 112.329 85.4959C112.869 87.7664 113.519 88.3756 115.333 88.3756C117.133 88.3756 117.783 87.7802 118.337 85.4959C119.473 80.7333 118.78 73.0772 117.617 68.7991C116.967 66.5286 116.634 65.9194 115.319 65.9194Z" fill="#DB5C87"/>
<path d="M115 59.5996C113.345 59.5996 112.143 62.8999 111.345 67.9209C110.429 73.6353 109.988 81.6613 110 89.5973C110 90.1749 110.241 90.8865 110.638 91.5996C109.986 88.3532 110.784 75.3152 111.72 70.2663C112.58 65.6286 114.336 60.664 115 59.5996Z" fill="white"/>
<mask id="path-51-outside-10_1233_2887" maskUnits="userSpaceOnUse" x="106.699" y="90.3994" width="17" height="14" fill="black">
<rect fill="white" x="106.699" y="90.3994" width="17" height="14"/>
<path fill-rule="evenodd" clip-rule="evenodd" d="M115.271 93.3588C117.048 93.3588 119.442 93.3891 120.987 92.4954C121.389 92.2682 121.899 92.556 121.837 93.0104C121.528 95.0704 120.956 97.1002 120.524 99.145C120.045 101.387 117.295 102.084 115.271 102.084C113.247 102.084 110.528 101.387 110.018 99.1602C109.57 97.1607 109.014 95.025 108.705 93.0104C108.643 92.5863 109.106 92.253 109.508 92.4651C111.084 93.3588 113.494 93.3588 115.271 93.3588Z"/>
</mask>
<path fill-rule="evenodd" clip-rule="evenodd" d="M115.271 93.3588C117.048 93.3588 119.442 93.3891 120.987 92.4954C121.389 92.2682 121.899 92.556 121.837 93.0104C121.528 95.0704 120.956 97.1002 120.524 99.145C120.045 101.387 117.295 102.084 115.271 102.084C113.247 102.084 110.528 101.387 110.018 99.1602C109.57 97.1607 109.014 95.025 108.705 93.0104C108.643 92.5863 109.106 92.253 109.508 92.4651C111.084 93.3588 113.494 93.3588 115.271 93.3588Z" fill="#6D6E70"/>
<path fill-rule="evenodd" clip-rule="evenodd" d="M115.271 93.3588C117.048 93.3588 119.442 93.3891 120.987 92.4954C121.389 92.2682 121.899 92.556 121.837 93.0104C121.528 95.0704 120.956 97.1002 120.524 99.145C120.045 101.387 117.295 102.084 115.271 102.084C113.247 102.084 110.528 101.387 110.018 99.1602C109.57 97.1607 109.014 95.025 108.705 93.0104C108.643 92.5863 109.106 92.253 109.508 92.4651C111.084 93.3588 113.494 93.3588 115.271 93.3588Z" stroke="black" stroke-width="2.97443" mask="url(#path-51-outside-10_1233_2887)"/>
<path d="M120.988 92.4954C119.443 93.3891 117.048 93.3588 115.271 93.3588V102.084C117.295 102.084 120.045 101.387 120.524 99.1451C120.957 97.1002 121.529 95.0705 121.838 93.0104C121.899 92.556 121.39 92.2682 120.988 92.4954Z" fill="#404041"/>
<path d="M108.705 93.0104C109.014 95.025 109.57 97.1607 110.018 99.1602L109.508 93.437L111.12 93.0911L109.508 92.4651C109.106 92.253 108.643 92.5863 108.705 93.0104Z" fill="#BBBDBF"/>
<path d="M121.836 93.0104C121.527 95.025 120.971 97.1607 120.523 99.1602L121.033 93.437L119.421 93.0911L121.033 92.4651C121.435 92.253 121.898 92.5863 121.836 93.0104Z" fill="#BBBDBF"/>
<path d="M119.42 93.7832C117.955 93.94 116.452 94.2486 115.17 94.2486C113.949 94.2486 112.526 93.9283 111.119 93.7832C111.119 93.7832 113.511 95.1421 115.17 95.1663C116.903 95.1916 119.42 93.7832 119.42 93.7832Z" fill="white"/>
<path d="M107.605 89.7844C107.605 89.7844 107.603 89.7017 107.602 89.5434C107.6 89.7564 107.599 90.1169 107.601 90.6054L106.865 91.3997C106.856 90.8009 106.85 90.1921 106.848 89.5731C106.848 89.6275 106.847 89.682 106.847 89.7366L106.847 90.3195C106.847 90.1242 106.847 89.9299 106.847 89.7366L106.847 89.4184C106.847 89.2082 106.847 88.9969 106.847 88.7844L106.847 89.4184C106.847 89.4701 106.848 89.5216 106.848 89.5731C106.904 70.9805 110.509 61.5047 110.509 61.5047C107.586 73.2256 107.587 87.5255 107.602 89.5434C107.603 89.3963 107.605 89.3195 107.605 89.3195L107.605 89.7844Z" fill="white"/>
<path d="M123.02 89.7844C123.02 89.7844 123.022 89.7017 123.023 89.5434C123.025 89.7564 123.026 90.1169 123.024 90.6054L123.76 91.3997C123.769 90.8009 123.775 90.1921 123.777 89.5731C123.777 89.6275 123.778 89.682 123.778 89.7366L123.778 90.3195C123.778 90.1242 123.778 89.9299 123.778 89.7366L123.778 89.4184C123.778 89.2082 123.778 88.9969 123.778 88.7844L123.778 89.4184C123.778 89.4701 123.777 89.5216 123.777 89.5731C123.721 70.9805 120.116 61.5047 120.116 61.5047C123.039 73.2256 123.038 87.5255 123.023 89.5434C123.022 89.3963 123.02 89.3195 123.02 89.3195L123.02 89.7844Z" fill="white"/>
<path d="M119.672 88.4743C119.497 89.5467 118.994 90.3552 118.548 90.2827C118.102 90.2103 117.882 89.2827 118.06 88.2103C118.237 87.1379 118.74 86.3294 119.183 86.4042C119.627 86.479 119.849 87.4042 119.672 88.4743Z" fill="white"/>
<path d="M112.149 87.3091C112.622 87.3091 113.006 86.8907 113.006 86.3745C113.006 85.8584 112.622 85.4399 112.149 85.4399C111.675 85.4399 111.291 85.8584 111.291 86.3745C111.291 86.8907 111.675 87.3091 112.149 87.3091Z" fill="white"/>
<path d="M113.599 89.5309C113.874 89.5309 114.097 89.3081 114.097 89.0333C114.097 88.7584 113.874 88.5356 113.599 88.5356C113.324 88.5356 113.102 88.7584 113.102 89.0333C113.102 89.3081 113.324 89.5309 113.599 89.5309Z" fill="white"/>
<path d="M118.72 70.458C119.084 72.9803 119.013 75.0774 118.564 75.1413C118.115 75.2053 117.46 73.2136 117.099 70.6918C116.737 68.17 116.804 66.072 117.255 66.0085C117.706 65.9449 118.357 67.9358 118.72 70.458Z" fill="white"/>
<path d="M119.505 78.3841C119.465 79.4698 119.069 80.3374 118.618 80.3203C118.167 80.3032 117.836 79.4123 117.871 78.3257C117.907 77.2392 118.307 76.3748 118.758 76.3919C119.208 76.409 119.544 77.3007 119.505 78.3841Z" fill="white"/>
<path d="M115.967 60.3175C115.967 60.3175 117.068 62.5013 116.268 65.9577C116.268 65.9577 114.778 63.7398 115.967 60.3175Z" fill="white"/>

    </svg>
