
    <svg width="230" height="230" viewBox="0 0 230 230" fill="none" xmlns="http://www.w3.org/2000/svg">
        
<path d="M88.4268 80.4502H93V83.7695H88.4268V80.4502Z" fill="#404041"/>
<path d="M88.3953 80.4502H93.0293V83.7695H88.3953V80.4502Z" stroke="black" stroke-width="0.618382"/>
<path d="M91.9491 80.9609H92.4023V83.6354H91.9491V80.9609Z" fill="black"/>
<path d="M90.9745 80.9609H91.4277V83.6354H90.9745V80.9609Z" fill="black"/>
<path d="M89.9979 80.9609H90.4512V83.6354H89.9979V80.9609Z" fill="black"/>
<path d="M89.0233 80.9609H89.4766V83.6354H89.0233V80.9609Z" fill="black"/>
<path d="M88.3584 80.7259H89.9347H93.0695L93.6777 80.0234L92.7073 78H89.9347H88.7206L87.7501 80.0234L88.3584 80.7259Z" fill="#6D6E70"/>
<path d="M88.3571 80.7259H89.8859L89.2776 80.0234L90.248 78H88.7192L87.7488 80.0234L88.3571 80.7259Z" fill="white"/>
<path d="M91.0305 80.7259H93.0695L93.6777 80.0234L92.7073 78H90.6692L91.6396 80.0234L91.0305 80.7259Z" fill="#404041"/>
<path d="M88.3584 80.7259H89.9347H93.0695L93.6777 80.0234L92.7073 78H89.9347H88.7206L87.7501 80.0234L88.3584 80.7259Z" stroke="black" stroke-width="0.700936"/>
<path d="M87.9582 79.6504H93.4668V80.0009H87.9582V79.6504Z" fill="black"/>
<path d="M87.728 85.6643H93.6992V84.9634H87.728V85.6643Z" fill="white"/>
<path d="M87.1797 83.4033H94.1797V122.403H87.1797V83.4033Z" fill="#6D6E70"/>
<path d="M87.1797 83.4033H89.1797V121.903H87.1797V83.4033Z" fill="white"/>
<path d="M92.1797 83.4033H94.1797V122.403H92.1797V83.4033Z" fill="#404041"/>
<path d="M87.6244 83.0293H93.8027V122.011H87.6244V83.0293Z" stroke="black"/>
<path d="M87.728 85.197H93.6992V84.4961H87.728V85.197Z" fill="black"/>
<mask id="path-18-outside-1_1233_2887" maskUnits="userSpaceOnUse" x="82.6875" y="112" width="20" height="21" fill="black">
<rect fill="white" x="82.6875" y="112" width="20" height="21"/>
<path d="M87.715 129.078C86.1506 128.635 85.0014 127.25 85.0014 125.478V114L95.8834 116.839C96.6587 116.936 97.1848 117.67 97.1848 118.459V122.128L100.688 123.346C100.688 127.97 96.8387 131.681 92.7683 130.518L87.715 129.078Z"/>
</mask>
<path d="M87.715 129.078C86.1506 128.635 85.0014 127.25 85.0014 125.478V114L95.8834 116.839C96.6587 116.936 97.1848 117.67 97.1848 118.459V122.128L100.688 123.346C100.688 127.97 96.8387 131.681 92.7683 130.518L87.715 129.078Z" fill="#6D6E70"/>
<path d="M87.715 129.078C86.1506 128.635 85.0014 127.25 85.0014 125.478V114L95.8834 116.839C96.6587 116.936 97.1848 117.67 97.1848 118.459V122.128L100.688 123.346C100.688 127.97 96.8387 131.681 92.7683 130.518L87.715 129.078Z" stroke="black" stroke-width="3" mask="url(#path-18-outside-1_1233_2887)"/>
<path d="M92.7683 130.518L87.715 129.078C91.6792 128.5 97.1848 124.756 97.1848 122.128L100.688 123.346C100.688 127.97 96.8387 131.681 92.7683 130.518Z" fill="#404041"/>
<path d="M85.0009 114L95.8828 116.839L86.4786 116.239L85.0009 125.478V114Z" fill="white"/>
<path d="M142.062 80.4502H137.488V83.7695H142.062V80.4502Z" fill="#404041"/>
<path d="M142.093 80.4502H137.459V83.7695H142.093V80.4502Z" stroke="black" stroke-width="0.618382"/>
<path d="M138.539 80.9609H138.086V83.6354H138.539V80.9609Z" fill="black"/>
<path d="M139.514 80.9609H139.061V83.6354H139.514V80.9609Z" fill="black"/>
<path d="M140.49 80.9609H140.037V83.6354H140.49V80.9609Z" fill="black"/>
<path d="M141.465 80.9609H141.012V83.6354H141.465V80.9609Z" fill="black"/>
<path d="M142.13 80.7259H140.554H137.419L136.811 80.0234L137.781 78H140.554H141.768L142.738 80.0234L142.13 80.7259Z" fill="#6D6E70"/>
<path d="M142.131 80.7259H140.602L141.211 80.0234L140.24 78H141.769L142.739 80.0234L142.131 80.7259Z" fill="white"/>
<path d="M139.458 80.7259H137.419L136.811 80.0234L137.781 78H139.819L138.849 80.0234L139.458 80.7259Z" fill="#404041"/>
<path d="M142.13 80.7259H140.554H137.419L136.811 80.0234L137.781 78H140.554H141.768L142.738 80.0234L142.13 80.7259Z" stroke="black" stroke-width="0.700936"/>
<path d="M142.53 79.6504H137.021V80.0009H142.53V79.6504Z" fill="black"/>
<path d="M142.76 85.6643H136.789V84.9634H142.76V85.6643Z" fill="white"/>
<path d="M143.309 83.4033H136.309V122.403H143.309V83.4033Z" fill="#6D6E70"/>
<path d="M143.309 83.4033H141.309V121.903H143.309V83.4033Z" fill="white"/>
<path d="M138.309 83.4033H136.309V122.403H138.309V83.4033Z" fill="#404041"/>
<path d="M142.864 83.0293H136.686V122.011H142.864V83.0293Z" stroke="black"/>
<path d="M142.76 85.197H136.789V84.4961H142.76V85.197Z" fill="black"/>
<mask id="path-38-outside-2_1233_2887" maskUnits="userSpaceOnUse" x="127.801" y="112" width="20" height="21" fill="black">
<rect fill="white" x="127.801" y="112" width="20" height="21"/>
<path d="M142.773 129.078C144.338 128.635 145.487 127.25 145.487 125.478V114L134.605 116.839C133.83 116.936 133.303 117.67 133.303 118.459V122.128L129.801 123.346C129.801 127.97 133.65 131.681 137.72 130.518L142.773 129.078Z"/>
</mask>
<path d="M142.773 129.078C144.338 128.635 145.487 127.25 145.487 125.478V114L134.605 116.839C133.83 116.936 133.303 117.67 133.303 118.459V122.128L129.801 123.346C129.801 127.97 133.65 131.681 137.72 130.518L142.773 129.078Z" fill="#6D6E70"/>
<path d="M142.773 129.078C144.338 128.635 145.487 127.25 145.487 125.478V114L134.605 116.839C133.83 116.936 133.303 117.67 133.303 118.459V122.128L129.801 123.346C129.801 127.97 133.65 131.681 137.72 130.518L142.773 129.078Z" stroke="black" stroke-width="3" mask="url(#path-38-outside-2_1233_2887)"/>
<path d="M137.72 130.518L142.773 129.078C138.809 128.5 133.303 124.756 133.303 122.128L129.801 123.346C129.801 127.97 133.65 131.681 137.72 130.518Z" fill="#404041"/>
<path d="M145.487 114L134.605 116.839L144.01 116.239L145.487 125.478V114Z" fill="white"/>

        
<mask id="path-1-inside-1_1233_2887" fill="white">
<path fill-rule="evenodd" clip-rule="evenodd" d="M91.1855 145.463V161.716H107.951C109.101 159.183 109.737 156.386 109.737 153.423C109.737 150.585 109.156 147.899 108.09 145.449H91.1855V145.463Z"/>
</mask>
<path fill-rule="evenodd" clip-rule="evenodd" d="M91.1855 145.463V161.716H107.951C109.101 159.183 109.737 156.386 109.737 153.423C109.737 150.585 109.156 147.899 108.09 145.449H91.1855V145.463Z" fill="#404041" stroke="black" stroke-width="3" mask="url(#path-1-inside-1_1233_2887)"/>
<mask id="path-2-outside-2_1233_2887" maskUnits="userSpaceOnUse" x="42" y="131" width="52" height="45" fill="black">
<rect fill="white" x="42" y="131" width="52" height="45"/>
<path fill-rule="evenodd" clip-rule="evenodd" d="M45.9128 173.512H87.9454C90.0498 173.512 91.7527 171.796 91.7527 169.705V136.824C91.7527 133.529 87.8761 131.784 85.4118 133.972L44.6391 170.19C43.3377 171.353 44.1545 173.512 45.9128 173.512Z"/>
</mask>
<path fill-rule="evenodd" clip-rule="evenodd" d="M45.9128 173.512H87.9454C90.0498 173.512 91.7527 171.796 91.7527 169.705V136.824C91.7527 133.529 87.8761 131.784 85.4118 133.972L44.6391 170.19C43.3377 171.353 44.1545 173.512 45.9128 173.512Z" fill="#6D6E70"/>
<path fill-rule="evenodd" clip-rule="evenodd" d="M45.9128 173.512H87.9454C90.0498 173.512 91.7527 171.796 91.7527 169.705V136.824C91.7527 133.529 87.8761 131.784 85.4118 133.972L44.6391 170.19C43.3377 171.353 44.1545 173.512 45.9128 173.512Z" stroke="black" stroke-width="3" mask="url(#path-2-outside-2_1233_2887)"/>
<path d="M91.753 136.824V169.705C91.753 171.548 90.429 173.101 88.6732 173.443V173.004V133.074C88.8428 133.108 89.0099 133.154 89.1732 133.21C90.6113 133.704 91.753 135.036 91.753 136.824Z" fill="#404041"/>
<path d="M90.354 141.275C90.354 141.275 90.6253 136.595 90.3844 135.714C90.1435 134.833 87.7731 133.928 87.7731 133.928L89.6375 136.067L90.354 141.275Z" fill="white"/>
<path d="M83.6753 172.434C83.6753 172.434 88.3596 172.608 89.2357 172.349C90.1118 172.089 90.9667 169.701 90.9667 169.701L88.8672 171.609L83.6753 172.434Z" fill="white"/>
<path d="M64.4758 169.734H71.1674C71.8964 169.734 73.282 172.397 73.7516 173.647H75.9712C75.3931 170.512 73.2913 167.004 71.1674 167.004H64.4758C62.3519 167.004 60.0022 170.512 59.6719 173.647H61.8915C62.3611 172.397 63.7445 169.734 64.4758 169.734Z" fill="#404041"/>
<path d="M70.8151 169.224H64.8268C62.8805 169.224 61.8828 172.883 61.8828 172.883H73.759C73.759 172.883 72.752 169.224 70.8151 169.224Z" fill="black" stroke="black" stroke-width="1.63552"/>
<path d="M68.4888 170.948C68.4888 171.081 68.4496 171.21 68.3762 171.32C68.3027 171.429 68.1985 171.515 68.0764 171.566C67.9543 171.616 67.8199 171.63 67.6903 171.604C67.5607 171.578 67.4415 171.514 67.348 171.421C67.2546 171.327 67.1909 171.208 67.1652 171.079C67.1394 170.949 67.1527 170.815 67.2033 170.693C67.2538 170.571 67.3395 170.466 67.4493 170.393C67.5592 170.319 67.6884 170.28 67.8206 170.28C67.9978 170.28 68.1678 170.35 68.2931 170.476C68.4184 170.601 68.4888 170.771 68.4888 170.948Z" fill="#00ADEE"/>
<path d="M71.77 170.948C71.77 171.081 71.7308 171.21 71.6574 171.32C71.584 171.429 71.4797 171.515 71.3576 171.566C71.2355 171.616 71.1011 171.63 70.9714 171.604C70.8418 171.578 70.7227 171.514 70.6293 171.421C70.5358 171.327 70.4722 171.208 70.4464 171.079C70.4206 170.949 70.4339 170.815 70.4845 170.693C70.5351 170.571 70.6207 170.466 70.7306 170.393C70.8405 170.319 70.9697 170.28 71.1018 170.28C71.2791 170.28 71.4491 170.35 71.5744 170.476C71.6997 170.601 71.77 170.771 71.77 170.948V170.948Z" fill="#00ADEE"/>
<path d="M65.2076 170.948C65.2076 171.081 65.1683 171.21 65.0948 171.32C65.0214 171.429 64.9171 171.515 64.795 171.566C64.6729 171.616 64.5386 171.63 64.409 171.604C64.2793 171.578 64.1603 171.514 64.0668 171.421C63.9734 171.327 63.9097 171.208 63.8839 171.079C63.8582 170.949 63.8714 170.815 63.9219 170.693C63.9725 170.571 64.0581 170.466 64.168 170.393C64.2779 170.319 64.4071 170.28 64.5392 170.28C64.7165 170.28 64.8865 170.35 65.0118 170.476C65.1371 170.601 65.2076 170.771 65.2076 170.948Z" fill="#00ADEE"/>
<path d="M44.6391 170.19L85.4118 133.972C86.1735 133.296 87.07 132.995 87.9454 133L45.9128 173.512C44.1545 173.512 43.3377 171.353 44.6391 170.19Z" fill="white"/>
<path d="M72.0942 144.849C72.0942 144.849 72.636 147.151 72.5968 149.476C72.22 150.321 70.4097 152.645 68.5166 153.804L65.9426 152.421L60.3742 155.421C60.3742 155.421 68.771 145.303 72.0942 144.849Z" fill="#404041"/>
<path d="M70.266 143.332C70.7648 143.471 71.2111 143.756 71.5484 144.149C71.6577 144.779 71.5825 149.046 71.5825 149.046C71.5825 149.046 70.5045 151.07 68.4605 152.372L65.8665 150.968C65.8665 150.968 60.2152 155.179 59.5996 155.32C58.9414 154.774 58.8972 153.7 58.8972 153.7C58.8972 153.7 65.2558 145.476 70.266 143.332Z" fill="#F39DB1"/>
<path d="M59.1686 153.544C59.783 153.402 65.9356 149.137 65.9356 149.137L68.3695 150.324C69.9395 149.322 71.0336 147.709 71.6101 146.893C71.6045 148.016 71.5865 149.046 71.5865 149.046C71.5865 149.046 70.5085 151.07 68.4645 152.372L65.8705 150.968C65.8705 150.968 60.2192 155.179 59.6036 155.32C58.9454 154.774 58.9013 153.7 58.9013 153.7C58.9013 153.7 58.9566 153.608 59.0663 153.447C59.0983 153.481 59.1325 153.514 59.1686 153.544V153.544Z" fill="#9E3E63"/>
<path d="M70.266 143.332C70.7648 143.471 71.2111 143.756 71.5484 144.149C71.6577 144.779 71.5825 149.046 71.5825 149.046C71.5825 149.046 70.5045 151.07 68.4605 152.372L65.8665 150.968C65.8665 150.968 60.2152 155.179 59.5996 155.32C58.9414 154.774 58.8972 153.7 58.8972 153.7C58.8972 153.7 65.2558 145.476 70.266 143.332Z" stroke="black"/>
<path d="M70.59 144.693L69.9512 144.421C69.9512 144.421 65.1008 147.057 60.4394 152.975C60.4394 152.975 67.5192 146.215 70.59 144.693Z" fill="white"/>
<path d="M71.2644 145.569L69.7675 147.027L71.4828 146.772L71.2644 145.569Z" fill="black"/>
<path d="M82.6719 136.004V160.504C82.6719 162.713 80.881 164.504 78.6719 164.504H50.1719" stroke="black"/>
<rect x="87.5234" y="145.254" width="2.5" height="18.5" rx="0.75" fill="black" stroke="black" stroke-width="0.5"/>
<rect x="88.0742" y="145.504" width="2" height="18" rx="0.5" fill="#9E3E63"/>
<path fill-rule="evenodd" clip-rule="evenodd" d="M88.6102 148.685H89.1556C89.3787 148.685 89.5646 148.973 89.5646 149.317V161.232C89.5646 161.576 89.3787 161.864 89.1556 161.864H88.6102C88.3871 161.864 88.2012 161.576 88.2012 161.232V149.331C88.2012 148.973 88.3871 148.685 88.6102 148.685Z" fill="#F39DB1"/>
<path d="M89.1101 149.14C89.2356 149.14 89.3373 148.835 89.3373 148.458C89.3373 148.082 89.2356 147.776 89.1101 147.776C88.9846 147.776 88.8828 148.082 88.8828 148.458C88.8828 148.835 88.9846 149.14 89.1101 149.14Z" fill="white"/>
<path d="M88.4297 160.166V154.29C88.4297 153.778 88.7177 152.959 89.1725 152.149C89.2216 152.049 89.2768 151.954 89.3386 151.866C89.2811 151.96 89.2256 152.055 89.1725 152.149C88.8246 152.861 88.7787 153.84 88.8054 154.29L88.8054 160.166C88.7787 160.616 88.9609 161.185 89.5747 161.504C89.0747 161.504 88.4297 160.678 88.4297 160.166Z" fill="white"/>
<mask id="path-24-inside-3_1233_2887" fill="white">
<path fill-rule="evenodd" clip-rule="evenodd" d="M138.852 145.463V161.716H122.086C120.937 159.183 120.3 156.386 120.3 153.423C120.3 150.585 120.881 147.899 121.947 145.449H138.852V145.463Z"/>
</mask>
<path fill-rule="evenodd" clip-rule="evenodd" d="M138.852 145.463V161.716H122.086C120.937 159.183 120.3 156.386 120.3 153.423C120.3 150.585 120.881 147.899 121.947 145.449H138.852V145.463Z" fill="#404041" stroke="black" stroke-width="3" mask="url(#path-24-inside-3_1233_2887)"/>
<mask id="path-25-outside-4_1233_2887" maskUnits="userSpaceOnUse" x="136.037" y="131" width="52" height="45" fill="black">
<rect fill="white" x="136.037" y="131" width="52" height="45"/>
<path fill-rule="evenodd" clip-rule="evenodd" d="M184.124 173.512H142.092C139.987 173.512 138.284 171.796 138.284 169.705V136.824C138.284 133.529 142.161 131.784 144.625 133.972L185.398 170.19C186.699 171.353 185.883 173.512 184.124 173.512Z"/>
</mask>
<path fill-rule="evenodd" clip-rule="evenodd" d="M184.124 173.512H142.092C139.987 173.512 138.284 171.796 138.284 169.705V136.824C138.284 133.529 142.161 131.784 144.625 133.972L185.398 170.19C186.699 171.353 185.883 173.512 184.124 173.512Z" fill="#6D6E70"/>
<path fill-rule="evenodd" clip-rule="evenodd" d="M184.124 173.512H142.092C139.987 173.512 138.284 171.796 138.284 169.705V136.824C138.284 133.529 142.161 131.784 144.625 133.972L185.398 170.19C186.699 171.353 185.883 173.512 184.124 173.512Z" stroke="black" stroke-width="3" mask="url(#path-25-outside-4_1233_2887)"/>
<path d="M138.284 136.824V169.705C138.284 171.548 139.608 173.101 141.364 173.443V173.004V133.074C141.194 133.108 141.027 133.154 140.864 133.21C139.426 133.704 138.284 135.036 138.284 136.824Z" fill="#404041"/>
<path d="M139.683 141.275C139.683 141.275 139.412 136.595 139.653 135.714C139.894 134.833 142.264 133.928 142.264 133.928L140.4 136.067L139.683 141.275Z" fill="white"/>
<path d="M146.362 172.434C146.362 172.434 141.677 172.608 140.801 172.349C139.925 172.089 139.07 169.701 139.07 169.701L141.17 171.609L146.362 172.434Z" fill="white"/>
<path d="M165.561 169.734H158.87C158.141 169.734 156.755 172.397 156.286 173.647H154.066C154.644 170.512 156.746 167.004 158.87 167.004H165.561C167.685 167.004 170.035 170.512 170.365 173.647H168.146C167.676 172.397 166.293 169.734 165.561 169.734Z" fill="#404041"/>
<path d="M159.222 169.224H165.21C167.157 169.224 168.154 172.883 168.154 172.883H156.278C156.278 172.883 157.285 169.224 159.222 169.224Z" fill="black" stroke="black" stroke-width="1.63552"/>
<path d="M161.548 170.948C161.548 171.081 161.588 171.21 161.661 171.32C161.734 171.429 161.839 171.515 161.961 171.566C162.083 171.616 162.217 171.63 162.347 171.604C162.476 171.578 162.596 171.514 162.689 171.421C162.783 171.327 162.846 171.208 162.872 171.079C162.898 170.949 162.884 170.815 162.834 170.693C162.783 170.571 162.698 170.466 162.588 170.393C162.478 170.319 162.349 170.28 162.217 170.28C162.039 170.28 161.869 170.35 161.744 170.476C161.619 170.601 161.548 170.771 161.548 170.948Z" fill="#00ADEE"/>
<path d="M158.267 170.948C158.267 171.081 158.306 171.21 158.38 171.32C158.453 171.429 158.557 171.515 158.68 171.566C158.802 171.616 158.936 171.63 159.066 171.604C159.195 171.578 159.314 171.514 159.408 171.421C159.501 171.327 159.565 171.208 159.591 171.079C159.616 170.949 159.603 170.815 159.553 170.693C159.502 170.571 159.416 170.466 159.307 170.393C159.197 170.319 159.067 170.28 158.935 170.28C158.758 170.28 158.588 170.35 158.463 170.476C158.337 170.601 158.267 170.771 158.267 170.948V170.948Z" fill="#00ADEE"/>
<path d="M164.83 170.948C164.83 171.081 164.869 171.21 164.942 171.32C165.016 171.429 165.12 171.515 165.242 171.566C165.364 171.616 165.499 171.63 165.628 171.604C165.758 171.578 165.877 171.514 165.97 171.421C166.064 171.327 166.127 171.208 166.153 171.079C166.179 170.949 166.166 170.815 166.115 170.693C166.065 170.571 165.979 170.466 165.869 170.393C165.759 170.319 165.63 170.28 165.498 170.28C165.321 170.28 165.151 170.35 165.025 170.476C164.9 170.601 164.83 170.771 164.83 170.948Z" fill="#00ADEE"/>
<path d="M185.398 170.19L144.625 133.972C143.864 133.296 142.967 132.995 142.092 133L184.124 173.512C185.883 173.512 186.699 171.353 185.398 170.19Z" fill="white"/>
<path d="M157.943 144.849C157.943 144.849 157.401 147.151 157.44 149.476C157.817 150.321 159.627 152.645 161.521 153.804L164.094 152.421L169.663 155.421C169.663 155.421 161.266 145.303 157.943 144.849Z" fill="#404041"/>
<path d="M159.771 143.332C159.272 143.471 158.826 143.756 158.489 144.149C158.379 144.779 158.455 149.046 158.455 149.046C158.455 149.046 159.533 151.07 161.577 152.372L164.171 150.968C164.171 150.968 169.822 155.179 170.437 155.32C171.096 154.774 171.14 153.7 171.14 153.7C171.14 153.7 164.781 145.476 159.771 143.332Z" fill="#F39DB1"/>
<path d="M170.869 153.544C170.254 153.402 164.101 149.137 164.101 149.137L161.668 150.324C160.098 149.322 159.003 147.709 158.427 146.893C158.433 148.016 158.451 149.046 158.451 149.046C158.451 149.046 159.529 151.07 161.573 152.372L164.167 150.968C164.167 150.968 169.818 155.179 170.433 155.32C171.092 154.774 171.136 153.7 171.136 153.7C171.136 153.7 171.08 153.608 170.971 153.447C170.939 153.481 170.905 153.514 170.869 153.544V153.544Z" fill="#9E3E63"/>
<path d="M159.771 143.332C159.272 143.471 158.826 143.756 158.489 144.149C158.379 144.779 158.455 149.046 158.455 149.046C158.455 149.046 159.533 151.07 161.577 152.372L164.171 150.968C164.171 150.968 169.822 155.179 170.437 155.32C171.096 154.774 171.14 153.7 171.14 153.7C171.14 153.7 164.781 145.476 159.771 143.332Z" stroke="black"/>
<path d="M159.447 144.693L160.086 144.421C160.086 144.421 164.936 147.057 169.598 152.975C169.598 152.975 162.518 146.215 159.447 144.693Z" fill="white"/>
<path d="M158.773 145.569L160.27 147.027L158.554 146.772L158.773 145.569Z" fill="black"/>
<path d="M147.365 136.004V160.504C147.365 162.713 149.156 164.504 151.365 164.504H179.865" stroke="black"/>
<rect x="0.25" y="-0.25" width="2.5" height="18.5" rx="0.75" transform="matrix(-1 0 0 1 142.764 145.504)" fill="black" stroke="black" stroke-width="0.5"/>
<rect width="2" height="18" rx="0.5" transform="matrix(-1 0 0 1 141.963 145.504)" fill="#9E3E63"/>
<path fill-rule="evenodd" clip-rule="evenodd" d="M141.427 148.685H140.882C140.658 148.685 140.473 148.973 140.473 149.317V161.232C140.473 161.576 140.658 161.864 140.882 161.864H141.427C141.65 161.864 141.836 161.576 141.836 161.232V149.331C141.836 148.973 141.65 148.685 141.427 148.685Z" fill="#F39DB1"/>
<path d="M140.927 149.14C140.802 149.14 140.7 148.835 140.7 148.458C140.7 148.082 140.802 147.776 140.927 147.776C141.053 147.776 141.154 148.082 141.154 148.458C141.154 148.835 141.053 149.14 140.927 149.14Z" fill="white"/>
<path d="M141.607 160.166V154.29C141.607 153.778 141.319 152.959 140.865 152.149C140.815 152.049 140.76 151.954 140.698 151.866C140.756 151.96 140.811 152.055 140.865 152.149C141.213 152.861 141.258 153.84 141.232 154.29L141.232 160.166C141.258 160.616 141.076 161.185 140.462 161.504C140.962 161.504 141.607 160.678 141.607 160.166Z" fill="white"/>

        
<mask id="path-1-outside-1_1233_2887" maskUnits="userSpaceOnUse" x="96.9004" y="172.5" width="18" height="19" fill="black">
<rect fill="white" x="96.9004" y="172.5" width="18" height="19"/>
<path d="M98.9004 174.5H113.1L106 189.681L98.9004 174.5Z"/>
</mask>
<path d="M98.9004 174.5H113.1L106 189.681L98.9004 174.5Z" fill="#6D6E70"/>
<path d="M98.9004 174.5H113.1L106 189.681L98.9004 174.5Z" stroke="black" stroke-width="2.87827" stroke-linejoin="round" mask="url(#path-1-outside-1_1233_2887)"/>
<path d="M106 189.681L98.9004 174.5H101.875L106 189.681Z" fill="#BBBDBF"/>
<path d="M106.002 189.681L113.102 174.5H110.127L106.002 189.681Z" fill="#404041"/>
<mask id="path-4-outside-2_1233_2887" maskUnits="userSpaceOnUse" x="114.801" y="172.5" width="18" height="19" fill="black">
<rect fill="white" x="114.801" y="172.5" width="18" height="19"/>
<path d="M116.801 174.5H131L123.901 189.681L116.801 174.5Z"/>
</mask>
<path d="M116.801 174.5H131L123.901 189.681L116.801 174.5Z" fill="#6D6E70"/>
<path d="M116.801 174.5H131L123.901 189.681L116.801 174.5Z" stroke="black" stroke-width="2.87827" stroke-linejoin="round" mask="url(#path-4-outside-2_1233_2887)"/>
<path d="M123.901 189.681L116.801 174.5H119.775L123.901 189.681Z" fill="#BBBDBF"/>
<path d="M123.9 189.681L131 174.5H128.026L123.9 189.681Z" fill="#404041"/>
<mask id="path-7-outside-3_1233_2887" maskUnits="userSpaceOnUse" x="96.6992" y="171" width="18" height="13" fill="black">
<rect fill="white" x="96.6992" y="171" width="18" height="13"/>
<path fill-rule="evenodd" clip-rule="evenodd" d="M98.6992 173C98.6992 175.298 98.6992 177.61 98.6992 179.908C98.6992 183.051 113.195 183.051 113.195 179.908C113.195 177.61 113.195 175.298 113.195 173H98.6992Z"/>
</mask>
<path fill-rule="evenodd" clip-rule="evenodd" d="M98.6992 173C98.6992 175.298 98.6992 177.61 98.6992 179.908C98.6992 183.051 113.195 183.051 113.195 179.908C113.195 177.61 113.195 175.298 113.195 173H98.6992Z" fill="#6D6E70"/>
<path fill-rule="evenodd" clip-rule="evenodd" d="M98.6992 173C98.6992 175.298 98.6992 177.61 98.6992 179.908C98.6992 183.051 113.195 183.051 113.195 179.908C113.195 177.61 113.195 175.298 113.195 173H98.6992Z" stroke="black" stroke-width="3" mask="url(#path-7-outside-3_1233_2887)"/>
<path d="M98.6992 179.908V173H101.524V181.821C99.8599 181.435 98.6992 180.798 98.6992 179.908Z" fill="#BBBDBF"/>
<path d="M113.324 179.908V173H110.499V181.821C112.164 181.435 113.324 180.798 113.324 179.908Z" fill="#404041"/>
<mask id="path-10-outside-4_1233_2887" maskUnits="userSpaceOnUse" x="114.602" y="171" width="18" height="13" fill="black">
<rect fill="white" x="114.602" y="171" width="18" height="13"/>
<path fill-rule="evenodd" clip-rule="evenodd" d="M116.602 173C116.602 175.298 116.602 177.61 116.602 179.908C116.602 183.051 131.097 183.051 131.097 179.908C131.097 177.61 131.097 175.298 131.097 173H116.602Z"/>
</mask>
<path fill-rule="evenodd" clip-rule="evenodd" d="M116.602 173C116.602 175.298 116.602 177.61 116.602 179.908C116.602 183.051 131.097 183.051 131.097 179.908C131.097 177.61 131.097 175.298 131.097 173H116.602Z" fill="#6D6E70"/>
<path fill-rule="evenodd" clip-rule="evenodd" d="M116.602 173C116.602 175.298 116.602 177.61 116.602 179.908C116.602 183.051 131.097 183.051 131.097 179.908C131.097 177.61 131.097 175.298 131.097 173H116.602Z" stroke="black" stroke-width="3" mask="url(#path-10-outside-4_1233_2887)"/>
<path d="M116.602 179.908V173H119.427V181.821C117.762 181.435 116.602 180.798 116.602 179.908Z" fill="#BBBDBF"/>
<path d="M131.227 179.908V173H128.401V181.821C130.066 181.435 131.227 180.798 131.227 179.908Z" fill="#404041"/>
<mask id="path-13-outside-5_1233_2887" maskUnits="userSpaceOnUse" x="94.5293" y="137" width="41" height="41" fill="black">
<rect fill="white" x="94.5293" y="137" width="41" height="41"/>
<path fill-rule="evenodd" clip-rule="evenodd" d="M101.472 145.957C100.115 146.649 98.7721 147.341 97.4154 148.033C96.8477 148.324 96.5293 148.809 96.5293 149.376C96.5293 153.045 96.5293 156.728 96.5293 160.397C96.5293 160.826 96.6954 161.186 97.0415 161.49C97.6092 161.989 98.163 162.487 98.7306 162.972C98.7306 166.184 98.7306 169.41 98.7306 172.622C98.7306 176.996 131.127 176.996 131.127 172.622C131.127 169.41 131.127 166.184 131.127 162.972C131.681 162.473 132.249 161.975 132.816 161.49C133.162 161.186 133.329 160.826 133.329 160.397C133.329 156.728 133.329 153.045 133.329 149.376C133.329 148.809 133.01 148.324 132.442 148.033C131.086 147.341 129.743 146.649 128.386 145.957C128.386 140.488 128.386 146.019 128.386 140.564C128.386 139.706 127.569 139 126.558 139C118.805 139 111.066 139 103.313 139C102.303 139 101.486 139.706 101.486 140.564C101.472 146.019 101.472 140.488 101.472 145.957Z"/>
</mask>
<path fill-rule="evenodd" clip-rule="evenodd" d="M101.472 145.957C100.115 146.649 98.7721 147.341 97.4154 148.033C96.8477 148.324 96.5293 148.809 96.5293 149.376C96.5293 153.045 96.5293 156.728 96.5293 160.397C96.5293 160.826 96.6954 161.186 97.0415 161.49C97.6092 161.989 98.163 162.487 98.7306 162.972C98.7306 166.184 98.7306 169.41 98.7306 172.622C98.7306 176.996 131.127 176.996 131.127 172.622C131.127 169.41 131.127 166.184 131.127 162.972C131.681 162.473 132.249 161.975 132.816 161.49C133.162 161.186 133.329 160.826 133.329 160.397C133.329 156.728 133.329 153.045 133.329 149.376C133.329 148.809 133.01 148.324 132.442 148.033C131.086 147.341 129.743 146.649 128.386 145.957C128.386 140.488 128.386 146.019 128.386 140.564C128.386 139.706 127.569 139 126.558 139C118.805 139 111.066 139 103.313 139C102.303 139 101.486 139.706 101.486 140.564C101.472 146.019 101.472 140.488 101.472 145.957Z" fill="#6D6E70"/>
<path fill-rule="evenodd" clip-rule="evenodd" d="M101.472 145.957C100.115 146.649 98.7721 147.341 97.4154 148.033C96.8477 148.324 96.5293 148.809 96.5293 149.376C96.5293 153.045 96.5293 156.728 96.5293 160.397C96.5293 160.826 96.6954 161.186 97.0415 161.49C97.6092 161.989 98.163 162.487 98.7306 162.972C98.7306 166.184 98.7306 169.41 98.7306 172.622C98.7306 176.996 131.127 176.996 131.127 172.622C131.127 169.41 131.127 166.184 131.127 162.972C131.681 162.473 132.249 161.975 132.816 161.49C133.162 161.186 133.329 160.826 133.329 160.397C133.329 156.728 133.329 153.045 133.329 149.376C133.329 148.809 133.01 148.324 132.442 148.033C131.086 147.341 129.743 146.649 128.386 145.957C128.386 140.488 128.386 146.019 128.386 140.564C128.386 139.706 127.569 139 126.558 139C118.805 139 111.066 139 103.313 139C102.303 139 101.486 139.706 101.486 140.564C101.472 146.019 101.472 140.488 101.472 145.957Z" stroke="black" stroke-width="3" mask="url(#path-13-outside-5_1233_2887)"/>
<mask id="path-14-outside-6_1233_2887" maskUnits="userSpaceOnUse" x="94.5293" y="126" width="41" height="52" fill="black">
<rect fill="white" x="94.5293" y="126" width="41" height="52"/>
<path fill-rule="evenodd" clip-rule="evenodd" d="M101.472 145.957C100.115 146.649 98.7721 147.341 97.4154 148.033C96.8477 148.324 96.5293 148.809 96.5293 149.376C96.5293 153.045 96.5293 156.728 96.5293 160.397C96.5293 160.826 96.6954 161.186 97.0415 161.49C97.6092 161.989 98.163 162.487 98.7306 162.972C98.7306 166.184 98.7306 169.41 98.7306 172.622C98.7306 176.996 131.127 176.996 131.127 172.622C131.127 169.41 131.127 166.184 131.127 162.972C131.681 162.473 132.249 161.975 132.816 161.49C133.162 161.186 133.329 160.826 133.329 160.397C133.329 156.728 133.329 153.045 133.329 149.376C133.329 148.809 133.01 148.324 132.442 148.033C131.086 147.341 129.743 146.649 128.386 145.957C128.386 140.488 128.386 135.019 128.386 129.564C128.386 128.706 127.569 128 126.558 128C118.805 128 111.066 128 103.313 128C102.303 128 101.486 128.706 101.486 129.564C101.472 135.019 101.472 140.488 101.472 145.957Z"/>
</mask>
<path fill-rule="evenodd" clip-rule="evenodd" d="M101.472 145.957C100.115 146.649 98.7721 147.341 97.4154 148.033C96.8477 148.324 96.5293 148.809 96.5293 149.376C96.5293 153.045 96.5293 156.728 96.5293 160.397C96.5293 160.826 96.6954 161.186 97.0415 161.49C97.6092 161.989 98.163 162.487 98.7306 162.972C98.7306 166.184 98.7306 169.41 98.7306 172.622C98.7306 176.996 131.127 176.996 131.127 172.622C131.127 169.41 131.127 166.184 131.127 162.972C131.681 162.473 132.249 161.975 132.816 161.49C133.162 161.186 133.329 160.826 133.329 160.397C133.329 156.728 133.329 153.045 133.329 149.376C133.329 148.809 133.01 148.324 132.442 148.033C131.086 147.341 129.743 146.649 128.386 145.957C128.386 140.488 128.386 135.019 128.386 129.564C128.386 128.706 127.569 128 126.558 128C118.805 128 111.066 128 103.313 128C102.303 128 101.486 128.706 101.486 129.564C101.472 135.019 101.472 140.488 101.472 145.957Z" fill="#6D6E70"/>
<path fill-rule="evenodd" clip-rule="evenodd" d="M101.472 145.957C100.115 146.649 98.7721 147.341 97.4154 148.033C96.8477 148.324 96.5293 148.809 96.5293 149.376C96.5293 153.045 96.5293 156.728 96.5293 160.397C96.5293 160.826 96.6954 161.186 97.0415 161.49C97.6092 161.989 98.163 162.487 98.7306 162.972C98.7306 166.184 98.7306 169.41 98.7306 172.622C98.7306 176.996 131.127 176.996 131.127 172.622C131.127 169.41 131.127 166.184 131.127 162.972C131.681 162.473 132.249 161.975 132.816 161.49C133.162 161.186 133.329 160.826 133.329 160.397C133.329 156.728 133.329 153.045 133.329 149.376C133.329 148.809 133.01 148.324 132.442 148.033C131.086 147.341 129.743 146.649 128.386 145.957C128.386 140.488 128.386 135.019 128.386 129.564C128.386 128.706 127.569 128 126.558 128C118.805 128 111.066 128 103.313 128C102.303 128 101.486 128.706 101.486 129.564C101.472 135.019 101.472 140.488 101.472 145.957Z" stroke="black" stroke-width="3" mask="url(#path-14-outside-6_1233_2887)"/>
<path d="M131.128 162.972V172.622C131.128 174.812 123.009 175.905 114.9 175.903V128H126.559C127.57 128 128.386 128.706 128.386 129.564V145.957C129.743 146.649 131.086 147.341 132.443 148.033C133.011 148.324 133.329 148.809 133.329 149.376V160.397C133.329 160.826 133.163 161.186 132.817 161.49C132.249 161.975 131.682 162.473 131.128 162.972Z" fill="#404041"/>
<path d="M126.593 168.6C126.847 166.319 128.093 167.9 127.493 164.7L115.343 165L114.9 165.01V174.964C121.901 174.6 126.34 170.881 126.593 168.6Z" fill="#231F20"/>
<path d="M103.007 168.6C102.754 166.319 101.507 167.9 102.108 164.7L114.257 165L114.9 165.01V174.964C107.9 174.6 103.261 170.881 103.007 168.6Z" fill="#404041"/>
<mask id="path-18-inside-7_1233_2887" fill="white">
<path fill-rule="evenodd" clip-rule="evenodd" d="M114.887 173.88C111.454 173.88 108.842 172.91 105.935 171.055C104.702 170.266 103.982 168.909 103.982 167.345V164.991H125.193V167.345C125.193 168.909 124.473 170.266 123.24 171.055C120.333 172.91 118.321 173.88 114.887 173.88Z"/>
</mask>
<path fill-rule="evenodd" clip-rule="evenodd" d="M114.887 173.88C111.454 173.88 108.842 172.91 105.935 171.055C104.702 170.266 103.982 168.909 103.982 167.345V164.991H125.193V167.345C125.193 168.909 124.473 170.266 123.24 171.055C120.333 172.91 118.321 173.88 114.887 173.88Z" fill="#9E3E63" stroke="black" stroke-width="2" mask="url(#path-18-inside-7_1233_2887)"/>
<path d="M108.346 170.187C110.072 171.643 112.198 172.501 114.496 172.501C116.795 172.501 118.92 171.643 120.646 170.187C121.679 169.317 121.193 167.755 119.912 167.324L115.772 165.93C114.944 165.652 114.048 165.652 113.22 165.93L109.08 167.324C107.8 167.755 107.313 169.317 108.346 170.187Z" fill="#DB5C87"/>
<path d="M112.669 172.137C112.873 172.137 113.037 171.972 113.037 171.769C113.037 171.565 112.873 171.4 112.669 171.4C112.466 171.4 112.301 171.565 112.301 171.769C112.301 171.972 112.466 172.137 112.669 172.137Z" fill="white"/>
<path d="M113.543 169.446C112.098 168.576 110.799 168.107 110.642 168.402C110.485 168.697 111.53 169.639 112.974 170.511C114.419 171.383 115.718 171.849 115.875 171.555C116.032 171.26 114.988 170.318 113.543 169.446Z" fill="white"/>
<path d="M109.702 170.991C109.713 171.114 109.759 171.231 109.836 171.329C109.912 171.426 110.015 171.499 110.132 171.538C110.249 171.578 110.375 171.583 110.495 171.552C110.614 171.521 110.722 171.456 110.806 171.365C110.889 171.274 110.944 171.161 110.964 171.039C110.984 170.917 110.968 170.792 110.918 170.679C110.869 170.566 110.787 170.47 110.683 170.402C110.58 170.335 110.459 170.299 110.335 170.299C110.16 170.307 109.994 170.385 109.876 170.514C109.757 170.644 109.695 170.815 109.702 170.991Z" fill="white"/>
<path d="M117.768 171.336C117.565 171.336 117.4 171.171 117.4 170.968C117.4 170.765 117.565 170.6 117.768 170.6C117.972 170.6 118.137 170.765 118.137 170.968C118.137 171.171 117.972 171.336 117.768 171.336Z" fill="white"/>
<mask id="path-24-outside-8_1233_2887" maskUnits="userSpaceOnUse" x="99.4004" y="163.44" width="30" height="8" fill="black">
<rect fill="white" x="99.4004" y="163.44" width="30" height="8"/>
<path d="M105.339 166.819C107.9 168.314 110.434 169.587 114.587 169.587C118.74 169.587 121.274 168.314 123.835 166.819C125.067 166.099 124.307 166.5 125.773 165.44L114.587 166.14L103.4 165.44C104.507 166.24 104.106 166.099 105.339 166.819Z"/>
</mask>
<path d="M105.339 166.819C107.9 168.314 110.434 169.587 114.587 169.587C118.74 169.587 121.274 168.314 123.835 166.819C125.067 166.099 124.307 166.5 125.773 165.44L114.587 166.14L103.4 165.44C104.507 166.24 104.106 166.099 105.339 166.819Z" fill="#6D6E70"/>
<path d="M105.339 166.819C107.9 168.314 110.434 169.587 114.587 169.587C118.74 169.587 121.274 168.314 123.835 166.819C125.067 166.099 124.307 166.5 125.773 165.44L114.587 166.14L103.4 165.44C104.507 166.24 104.106 166.099 105.339 166.819Z" stroke="black" stroke-width="2" mask="url(#path-24-outside-8_1233_2887)"/>
<path d="M123.835 166.819C125.067 166.099 124.307 166.5 125.773 165.44L114.9 166.121V169.585C118.869 169.523 121.339 168.276 123.835 166.819Z" fill="#404041"/>
<path d="M97.4154 148.033C98.7721 147.341 100.115 146.649 101.472 145.957C101.472 140.488 101.472 135.019 101.486 129.564C101.486 128.706 102.303 128 103.313 128L104 146.967L98.7306 150.467V162.972L100.5 165.467V174.219C99.3818 173.774 98.7306 173.242 98.7306 172.622V162.972C98.163 162.487 97.6092 161.989 97.0415 161.49C96.6954 161.186 96.5293 160.826 96.5293 160.397V149.376C96.5293 148.809 96.8477 148.324 97.4154 148.033Z" fill="#BBBDBF"/>
<path d="M132.485 148.033C131.128 147.341 129.785 146.649 128.429 145.957C128.429 140.488 128.429 135.019 128.415 129.564C128.415 128.706 127.598 128 126.587 128L125.901 146.967L131.17 150.467V162.972L129.401 165.467V174.219C130.519 173.774 131.17 173.242 131.17 172.622V162.972C131.737 162.487 132.291 161.989 132.859 161.49C133.205 161.186 133.371 160.826 133.371 160.397V149.376C133.371 148.809 133.053 148.324 132.485 148.033Z" fill="#231F20"/>
<path d="M97.6309 162.421C97.6309 166.796 132.227 166.796 132.227 162.421" stroke="black" stroke-width="1.5"/>
<path d="M100.631 144.867C100.631 149.242 129.227 149.242 129.227 144.867" stroke="black"/>
<path d="M96 148.466C96 150.654 105.5 152.748 115 152.748C124.5 152.748 134 150.654 134 148.466" stroke="black"/>

        
<mask id="path-1-outside-1_1233_2887" maskUnits="userSpaceOnUse" x="107.67" y="21.3994" width="15" height="33" fill="black">
<rect fill="white" x="107.67" y="21.3994" width="15" height="33"/>
<path fill-rule="evenodd" clip-rule="evenodd" d="M115.277 23.3994C114.723 23.3994 112.619 28.6742 112.619 31.5401V37.078C111.137 38.0887 109.67 39.487 109.67 40.4284C109.67 44.3049 109.67 48.1815 109.67 52.058C113.408 52.058 117.16 52.058 120.898 52.058C120.898 48.1815 120.898 44.3049 120.898 40.4284C120.898 39.487 119.417 38.0887 117.949 37.078V31.5401C117.935 28.6604 115.831 23.3994 115.277 23.3994Z"/>
</mask>
<path fill-rule="evenodd" clip-rule="evenodd" d="M115.277 23.3994C114.723 23.3994 112.619 28.6742 112.619 31.5401V37.078C111.137 38.0887 109.67 39.487 109.67 40.4284C109.67 44.3049 109.67 48.1815 109.67 52.058C113.408 52.058 117.16 52.058 120.898 52.058C120.898 48.1815 120.898 44.3049 120.898 40.4284C120.898 39.487 119.417 38.0887 117.949 37.078V31.5401C117.935 28.6604 115.831 23.3994 115.277 23.3994Z" fill="#6D6E70"/>
<path fill-rule="evenodd" clip-rule="evenodd" d="M115.277 23.3994C114.723 23.3994 112.619 28.6742 112.619 31.5401V37.078C111.137 38.0887 109.67 39.487 109.67 40.4284C109.67 44.3049 109.67 48.1815 109.67 52.058C113.408 52.058 117.16 52.058 120.898 52.058C120.898 48.1815 120.898 44.3049 120.898 40.4284C120.898 39.487 119.417 38.0887 117.949 37.078V31.5401C117.935 28.6604 115.831 23.3994 115.277 23.3994Z" stroke="black" stroke-width="3" mask="url(#path-1-outside-1_1233_2887)"/>
<path d="M112.702 28.3984H117.951V28.7582H112.702V28.3984Z" fill="#BBBDBF"/>
<path d="M112.702 30.2246H117.951V30.5844H112.702V30.2246Z" fill="#BBBDBF"/>
<path d="M112.702 32.0654H117.951V32.4252H112.702V32.0654Z" fill="#BBBDBF"/>
<path d="M112.702 33.8921H117.951V34.2518H112.702V33.8921Z" fill="#BBBDBF"/>
<path d="M112.702 35.7324H117.951V36.0922H112.702V35.7324Z" fill="#BBBDBF"/>
<mask id="path-7-outside-2_1233_2887" maskUnits="userSpaceOnUse" x="107.67" y="21.3994" width="15" height="33" fill="black">
<rect fill="white" x="107.67" y="21.3994" width="15" height="33"/>
<path fill-rule="evenodd" clip-rule="evenodd" d="M115.277 23.3994C114.723 23.3994 112.619 28.6742 112.619 31.5401V37.078C111.137 38.0887 109.67 39.487 109.67 40.4284C109.67 44.3049 109.67 48.1815 109.67 52.058C113.408 52.058 117.16 52.058 120.898 52.058C120.898 48.1815 120.898 44.3049 120.898 40.4284C120.898 39.487 119.417 38.0887 117.949 37.078V31.5401C117.935 28.6604 115.831 23.3994 115.277 23.3994Z"/>
</mask>
<path fill-rule="evenodd" clip-rule="evenodd" d="M115.277 23.3994C114.723 23.3994 112.619 28.6742 112.619 31.5401V37.078C111.137 38.0887 109.67 39.487 109.67 40.4284C109.67 44.3049 109.67 48.1815 109.67 52.058C113.408 52.058 117.16 52.058 120.898 52.058C120.898 48.1815 120.898 44.3049 120.898 40.4284C120.898 39.487 119.417 38.0887 117.949 37.078V31.5401C117.935 28.6604 115.831 23.3994 115.277 23.3994Z" stroke="black" stroke-width="3" mask="url(#path-7-outside-2_1233_2887)"/>
<path d="M112.619 31.5401C112.619 28.6742 114.723 23.3994 115.277 23.3994V52.058H109.67V40.4284C109.67 39.487 111.137 38.0887 112.619 37.078V31.5401Z" fill="#BBBDBF"/>
<mask id="path-9-outside-3_1233_2887" maskUnits="userSpaceOnUse" x="80" y="45.3994" width="34" height="39" fill="black">
<rect fill="white" x="80" y="45.3994" width="34" height="39"/>
<path d="M111.656 50.0077C112.141 48.071 109.8 46.6981 108.346 48.0655L82 72.8387V81.25L106.299 71.4369L111.656 50.0077Z"/>
</mask>
<path d="M111.656 50.0077C112.141 48.071 109.8 46.6981 108.346 48.0655L82 72.8387V81.25L106.299 71.4369L111.656 50.0077Z" fill="#6D6E70"/>
<path d="M111.656 50.0077C112.141 48.071 109.8 46.6981 108.346 48.0655L82 72.8387V81.25L106.299 71.4369L111.656 50.0077Z" stroke="black" stroke-width="3" mask="url(#path-9-outside-3_1233_2887)"/>
<path d="M82 72.8387L113.308 43.3994L84 73.8994L82 81.25V72.8387Z" fill="white"/>
<path d="M113.308 43.3994L106.299 71.4369L97.5 74.9904L102.5 53.5626L113.308 43.3994Z" fill="#404041"/>
<path d="M102.526 68.7989L102.241 72.2788L99.5635 73.5481L101.617 71.565L102.526 68.7989Z" fill="white"/>
<mask id="path-13-outside-4_1233_2887" maskUnits="userSpaceOnUse" x="86.5859" y="59.4614" width="37" height="46" fill="black">
<rect fill="white" x="86.5859" y="59.4614" width="37" height="46"/>
<path d="M119.894 64.4614L88.5859 93.9007V102.312L112.885 92.4989L119.894 64.4614Z"/>
</mask>
<path d="M119.894 64.4614L88.5859 93.9007V102.312L112.885 92.4989L119.894 64.4614Z" fill="#6D6E70"/>
<path d="M119.894 64.4614L88.5859 93.9007V102.312L112.885 92.4989L119.894 64.4614Z" stroke="black" stroke-width="3" mask="url(#path-13-outside-4_1233_2887)"/>
<path d="M88.5859 93.9007L119.894 64.4614L90.4993 94.3994L88.5859 102.312V93.9007Z" fill="white"/>
<path d="M119.895 64.4614L112.885 92.4989L96.5996 99.1124L99.9996 83.1688L119.895 64.4614Z" fill="#404041"/>
<path d="M101.325 93.0919L101.04 96.5718L98.3623 97.8411L100.416 95.858L101.325 93.0919Z" fill="white"/>
<mask id="path-17-outside-5_1233_2887" maskUnits="userSpaceOnUse" x="116.695" y="45.3994" width="34" height="39" fill="black">
<rect fill="white" x="116.695" y="45.3994" width="34" height="39"/>
<path d="M119.039 50.0077C118.555 48.071 120.895 46.6981 122.349 48.0655L148.695 72.8387V81.25L124.396 71.4369L119.039 50.0077Z"/>
</mask>
<path d="M119.039 50.0077C118.555 48.071 120.895 46.6981 122.349 48.0655L148.695 72.8387V81.25L124.396 71.4369L119.039 50.0077Z" fill="#6D6E70"/>
<path d="M119.039 50.0077C118.555 48.071 120.895 46.6981 122.349 48.0655L148.695 72.8387V81.25L124.396 71.4369L119.039 50.0077Z" stroke="black" stroke-width="3" mask="url(#path-17-outside-5_1233_2887)"/>
<path d="M148.695 72.8387L117.387 43.3994L146.695 73.8994L148.695 81.25V72.8387Z" fill="white"/>
<path d="M117.387 43.3994L124.396 71.4369L133.195 74.9904L128.195 53.5626L117.387 43.3994Z" fill="#404041"/>
<mask id="path-20-outside-6_1233_2887" maskUnits="userSpaceOnUse" x="107.109" y="59.4614" width="37" height="46" fill="black">
<rect fill="white" x="107.109" y="59.4614" width="37" height="46"/>
<path d="M110.801 64.4614L142.109 93.9007V102.312L117.81 92.4989L110.801 64.4614Z"/>
</mask>
<path d="M110.801 64.4614L142.109 93.9007V102.312L117.81 92.4989L110.801 64.4614Z" fill="#6D6E70"/>
<path d="M110.801 64.4614L142.109 93.9007V102.312L117.81 92.4989L110.801 64.4614Z" stroke="black" stroke-width="3" mask="url(#path-20-outside-6_1233_2887)"/>
<path d="M142.109 93.9007L110.801 64.4614L140.196 94.3994L142.109 102.312V93.9007Z" fill="white"/>
<path d="M110.801 64.4614L117.81 92.4989L134.096 99.1124L130.696 83.1688L110.801 64.4614Z" fill="#404041"/>
<path d="M128.072 68.7989L128.357 72.2788L131.034 73.5481L128.981 71.565L128.072 68.7989Z" fill="white"/>
<path d="M129.373 93.0919L129.658 96.5718L132.335 97.8411L130.282 95.858L129.373 93.0919Z" fill="white"/>
<mask id="path-25-outside-7_1233_2887" maskUnits="userSpaceOnUse" x="95.5" y="39.979" width="40" height="101" fill="black">
<rect fill="white" x="95.5" y="39.979" width="40" height="101"/>
<path d="M112.84 49.026C112.826 50.2166 112.549 52.058 115.277 52.058C118.004 52.058 117.727 50.2166 117.741 49.026V41.979C119.444 41.979 122.808 42.2697 123.113 44.4711C126.602 69.3915 127.571 85.4237 127.585 110.773C127.585 111.272 127.751 111.687 128.097 112.047C129.758 113.764 131.42 115.467 133.081 117.183V129.353C131.433 131.471 129.786 133.603 128.138 135.722C128.138 140.094 102.459 140.074 102.431 135.707C100.787 133.593 99.1436 131.466 97.5 129.353V117.183C99.1614 115.467 100.823 113.764 102.484 112.047C102.83 111.687 102.996 111.272 102.996 110.773C103.01 85.4099 103.979 69.3915 107.468 44.4711C107.773 42.2697 111.137 41.979 112.84 41.979V49.026Z"/>
</mask>
<path d="M112.84 49.026C112.826 50.2166 112.549 52.058 115.277 52.058C118.004 52.058 117.727 50.2166 117.741 49.026V41.979C119.444 41.979 122.808 42.2697 123.113 44.4711C126.602 69.3915 127.571 85.4237 127.585 110.773C127.585 111.272 127.751 111.687 128.097 112.047C129.758 113.764 131.42 115.467 133.081 117.183V129.353C131.433 131.471 129.786 133.603 128.138 135.722C128.138 140.094 102.459 140.074 102.431 135.707C100.787 133.593 99.1436 131.466 97.5 129.353V117.183C99.1614 115.467 100.823 113.764 102.484 112.047C102.83 111.687 102.996 111.272 102.996 110.773C103.01 85.4099 103.979 69.3915 107.468 44.4711C107.773 42.2697 111.137 41.979 112.84 41.979V49.026Z" fill="#6D6E70"/>
<path d="M102.431 135.707L101.681 135.711L101.683 135.966L101.839 136.167L102.431 135.707ZM101.839 136.167C101.841 136.169 101.843 136.172 101.845 136.174C101.847 136.177 101.849 136.179 101.851 136.182L103.035 135.261C103.033 135.259 103.031 135.256 103.029 135.254C103.027 135.251 103.025 135.249 103.023 135.246L101.839 136.167ZM101.681 135.699C101.681 135.704 101.681 135.708 101.681 135.711L103.181 135.702C103.181 135.701 103.181 135.7 103.181 135.699H101.681ZM112.84 49.026L114.34 49.0434L114.34 49.0347V49.026H112.84ZM112.84 41.979H114.34V40.479H112.84V41.979ZM107.468 44.4711L108.954 44.679L108.954 44.6766L107.468 44.4711ZM102.996 110.773L101.496 110.773V110.773H102.996ZM102.484 112.047L103.562 113.09L103.565 113.087L102.484 112.047ZM97.5 117.183L96.4221 116.14L96 116.577V117.183H97.5ZM97.5 129.353H96V129.868L96.316 130.274L97.5 129.353ZM102.431 135.707L103.931 135.697L103.928 135.188L103.615 134.786L102.431 135.707ZM128.138 135.722L126.954 134.801L126.638 135.207V135.722H128.138ZM133.081 129.353L134.265 130.274L134.581 129.868V129.353H133.081ZM133.081 117.183H134.581V116.577L134.159 116.14L133.081 117.183ZM128.097 112.047L127.016 113.087L127.019 113.09L128.097 112.047ZM127.585 110.773L129.085 110.773L129.085 110.773L127.585 110.773ZM123.113 44.4711L121.627 44.6766L121.627 44.679L123.113 44.4711ZM117.741 41.979V40.479H116.241V41.979H117.741ZM117.741 49.026L119.241 49.0434L119.241 49.0347V49.026H117.741ZM115.277 50.558C114.751 50.558 114.523 50.4674 114.451 50.4291C114.411 50.4075 114.412 50.4038 114.402 50.3807C114.376 50.3218 114.341 50.1932 114.33 49.9372C114.317 49.6482 114.335 49.44 114.34 49.0434L111.34 49.0085C111.338 49.2072 111.316 49.6757 111.333 50.0668C111.351 50.491 111.415 51.0459 111.659 51.5962C111.919 52.1823 112.361 52.7133 113.036 53.0742C113.679 53.4183 114.439 53.558 115.277 53.558V50.558ZM114.34 49.026V41.979H111.34V49.026H114.34ZM112.84 40.479C111.937 40.479 110.487 40.5522 109.174 40.9703C107.914 41.3718 106.257 42.2809 105.982 44.2655L108.954 44.6766C108.984 44.4599 109.161 44.1229 110.085 43.8288C110.956 43.5512 112.04 43.479 112.84 43.479V40.479ZM105.983 44.2631C102.483 69.2596 101.51 85.3476 101.496 110.773L104.496 110.774C104.51 85.4721 105.475 69.5235 108.954 44.679L105.983 44.2631ZM101.496 110.773C101.496 110.852 101.484 110.888 101.478 110.903C101.472 110.918 101.456 110.952 101.403 111.007L103.565 113.087C104.182 112.446 104.496 111.657 104.496 110.773H101.496ZM101.406 111.004C100.577 111.861 99.7471 112.715 98.9163 113.57C98.0857 114.425 97.254 115.281 96.4221 116.14L98.5779 118.227C99.4074 117.37 100.237 116.516 101.068 115.661C101.898 114.806 102.73 113.95 103.562 113.09L101.406 111.004ZM96 117.183V129.353H99V117.183H96ZM96.316 130.274C97.1369 131.329 97.958 132.389 98.78 133.449C99.6016 134.509 100.424 135.57 101.247 136.627L103.615 134.786C102.794 133.73 101.973 132.671 101.151 131.611C100.329 130.551 99.5067 129.49 98.684 128.432L96.316 130.274ZM129.322 136.642C130.147 135.582 130.971 134.519 131.795 133.456C132.619 132.394 133.442 131.332 134.265 130.274L131.897 128.432C131.072 129.492 130.248 130.556 129.424 131.618C128.6 132.681 127.777 133.743 126.954 134.801L129.322 136.642ZM134.581 129.353V117.183H131.581V129.353H134.581ZM134.159 116.14C133.327 115.281 132.495 114.425 131.665 113.57C130.834 112.715 130.004 111.861 129.175 111.004L127.019 113.09C127.851 113.95 128.683 114.806 129.513 115.661C130.344 116.516 131.174 117.37 132.003 118.227L134.159 116.14ZM129.178 111.007C129.125 110.952 129.109 110.918 129.103 110.903C129.097 110.888 129.085 110.852 129.085 110.773H126.085C126.085 111.657 126.399 112.446 127.016 113.087L129.178 111.007ZM129.085 110.773C129.071 85.3615 128.098 69.2596 124.598 44.2631L121.627 44.679C125.105 69.5235 126.071 85.4859 126.085 110.774L129.085 110.773ZM124.599 44.2655C124.324 42.2809 122.667 41.3718 121.406 40.9703C120.094 40.5522 118.644 40.479 117.741 40.479V43.479C118.541 43.479 119.625 43.5512 120.496 43.8288C121.419 44.1229 121.597 44.4599 121.627 44.6766L124.599 44.2655ZM116.241 41.979V49.026H119.241V41.979H116.241ZM116.241 49.0085C116.236 49.4319 116.253 49.6092 116.236 49.9201C116.222 50.1802 116.186 50.3118 116.158 50.3742C116.146 50.4009 116.145 50.4065 116.103 50.4287C116.031 50.4675 115.802 50.558 115.277 50.558V53.558C116.115 53.558 116.874 53.4182 117.517 53.0746C118.191 52.7143 118.633 52.1851 118.895 51.6027C119.14 51.0559 119.208 50.504 119.231 50.084C119.252 49.7147 119.239 49.2154 119.241 49.0434L116.241 49.0085ZM100.931 135.716C100.94 137.084 101.951 137.95 102.789 138.437C103.686 138.959 104.861 139.342 106.127 139.629C108.684 140.21 112.017 140.489 115.294 140.492C118.571 140.494 121.902 140.219 124.456 139.641C125.721 139.355 126.895 138.973 127.79 138.451C128.629 137.963 129.638 137.093 129.638 135.722H126.638C126.638 135.443 126.846 135.529 126.279 135.86C125.77 136.157 124.938 136.456 123.794 136.715C121.533 137.227 118.443 137.494 115.296 137.492C112.15 137.49 109.057 137.218 106.792 136.704C105.646 136.444 104.811 136.143 104.298 135.844C103.726 135.512 103.929 135.421 103.931 135.697L100.931 135.716Z" fill="black" mask="url(#path-25-outside-7_1233_2887)"/>
<path d="M102.996 110.774C103.01 85.4101 103.979 69.3918 107.468 44.4713C107.563 43.7859 107.954 43.2857 108.5 42.9219C107.986 52.8926 106.145 67.3084 105.477 80.3996C104.63 97.0041 104.8 113.4 104.8 113.4L99.5 118.4V131.4L103 136.4C101.352 134.281 99.1475 131.471 97.5 129.353V117.184C99.1614 115.467 100.823 113.764 102.484 112.047C102.83 111.687 102.996 111.272 102.996 110.774Z" fill="#BBBDBF"/>
<path d="M133.082 129.353C131.434 131.471 129.787 133.603 128.139 135.722C128.139 137.91 121.707 138.998 115.277 138.992V52.058C118.005 52.058 117.728 50.2166 117.742 49.026V41.979C119.445 41.979 122.809 42.2697 123.113 44.4711C126.602 69.3915 127.571 85.4237 127.585 110.773C127.585 111.272 127.751 111.687 128.098 112.047C129.759 113.764 131.42 115.467 133.082 117.183V129.353Z" fill="#404041"/>
<path d="M127.603 110.774C127.589 85.4101 126.62 69.3918 123.131 44.4713C123.037 43.7859 122.645 43.2857 122.1 42.9219C122.614 52.8926 124.455 67.3084 125.123 80.3996C125.97 97.0041 125.8 113.4 125.8 113.4L131.8 117.9V130.4L128.157 135.722C129.805 133.604 131.452 131.471 133.1 129.353V117.184C131.438 115.467 129.777 113.764 128.116 112.047C127.769 111.687 127.603 111.272 127.603 110.774Z" fill="#231F20"/>
<path d="M97 129.399C97.0143 131.642 106.639 133.735 116 133.675C124.868 133.618 133.5 131.527 133.5 129.399" stroke="black"/>
<path d="M97 116.399C97.0143 118.642 106.639 120.735 116 120.675C124.868 120.618 133.5 118.527 133.5 116.399" stroke="black"/>
<path d="M102.5 111.399C102.528 115.767 128 115.772 128 111.399" stroke="black"/>
<mask id="path-33-inside-8_1233_2887" fill="white">
<path fill-rule="evenodd" clip-rule="evenodd" d="M115.319 122.899H110.197C109.186 122.899 108.369 123.716 108.369 124.726V128.88C108.369 129.891 109.186 130.707 110.197 130.707H115.319H120.442C121.452 130.707 122.269 129.891 122.269 128.88V124.726C122.269 123.716 121.452 122.899 120.442 122.899H115.319Z"/>
</mask>
<path fill-rule="evenodd" clip-rule="evenodd" d="M115.319 122.899H110.197C109.186 122.899 108.369 123.716 108.369 124.726V128.88C108.369 129.891 109.186 130.707 110.197 130.707H115.319H120.442C121.452 130.707 122.269 129.891 122.269 128.88V124.726C122.269 123.716 121.452 122.899 120.442 122.899H115.319Z" fill="#6D6E70" stroke="black" stroke-width="2" mask="url(#path-33-inside-8_1233_2887)"/>
<path d="M107.35 49.7228C107.35 49.7228 107.839 45.0608 108.219 44.23C108.599 43.3992 111.085 42.8899 111.085 42.8899L108.899 44.6992L107.35 49.7228Z" fill="white"/>
<path d="M123.134 49.7228C123.134 49.7228 122.646 45.0608 122.265 44.23C121.885 43.3992 119.4 42.8899 119.4 42.8899L121.585 44.6992L123.134 49.7228Z" fill="white"/>
<path d="M103.984 105.859L103.915 111.358L107.926 112.645L105 110.331L103.984 105.859Z" fill="white"/>
<path d="M126.942 105.858L127.01 111.357L123 112.644L125.926 110.33L126.942 105.858Z" fill="white"/>
<rect x="102.35" y="123.55" width="1.7" height="4.3" rx="0.65" fill="black" stroke="black" stroke-width="0.3"/>
<rect x="102.301" y="123.7" width="1.4" height="4" rx="0.5" fill="#9E3E63"/>
<path fill-rule="evenodd" clip-rule="evenodd" d="M102.677 124.406H103.059C103.215 124.406 103.345 124.47 103.345 124.547V127.195C103.345 127.271 103.215 127.335 103.059 127.335H102.677C102.521 127.335 102.391 127.271 102.391 127.195V124.55C102.391 124.47 102.521 124.406 102.677 124.406Z" fill="#F39DB1"/>
<path d="M103.026 124.508C103.114 124.508 103.185 124.44 103.185 124.356C103.185 124.272 103.114 124.205 103.026 124.205C102.938 124.205 102.867 124.272 102.867 124.356C102.867 124.44 102.938 124.508 103.026 124.508Z" fill="white"/>
<path d="M102.549 126.958V125.652C102.549 125.538 102.75 125.356 103.069 125.176C103.103 125.154 103.142 125.133 103.185 125.113C103.145 125.134 103.106 125.155 103.069 125.176C102.825 125.334 102.793 125.552 102.812 125.652L102.812 126.958C102.793 127.058 102.921 127.184 103.35 127.255C103 127.255 102.549 127.072 102.549 126.958Z" fill="white"/>
<rect x="126.35" y="123.55" width="1.7" height="4.3" rx="0.65" fill="black" stroke="black" stroke-width="0.3"/>
<rect x="126.699" y="123.7" width="1.4" height="4" rx="0.5" fill="#9E3E63"/>
<path fill-rule="evenodd" clip-rule="evenodd" d="M127.075 124.406H127.457C127.613 124.406 127.743 124.47 127.743 124.547V127.195C127.743 127.271 127.613 127.335 127.457 127.335H127.075C126.919 127.335 126.789 127.271 126.789 127.195V124.55C126.789 124.47 126.919 124.406 127.075 124.406Z" fill="#F39DB1"/>
<path d="M127.425 124.508C127.513 124.508 127.584 124.44 127.584 124.356C127.584 124.272 127.513 124.205 127.425 124.205C127.337 124.205 127.266 124.272 127.266 124.356C127.266 124.44 127.337 124.508 127.425 124.508Z" fill="white"/>
<path d="M126.947 126.958V125.652C126.947 125.538 127.149 125.356 127.467 125.176C127.502 125.154 127.54 125.133 127.584 125.113C127.543 125.134 127.504 125.155 127.467 125.176C127.224 125.334 127.192 125.552 127.21 125.652L127.21 126.958C127.192 127.058 127.319 127.184 127.749 127.255C127.399 127.255 126.947 127.072 126.947 126.958Z" fill="white"/>
<mask id="path-48-outside-9_1233_2887" maskUnits="userSpaceOnUse" x="108.5" y="57.3994" width="14" height="41" fill="black">
<rect fill="white" x="108.5" y="57.3994" width="14" height="41"/>
<path fill-rule="evenodd" clip-rule="evenodd" d="M111.065 67.3708C111.992 61.9575 113.391 58.3994 115.315 58.3994C117.239 58.3994 118.638 61.9437 119.565 67.3708C120.618 73.5317 121.13 82.1985 121.13 90.7407C121.13 91.8482 120.244 93.4127 119.025 94.631C117.932 95.7248 116.547 96.5693 115.315 96.5693C114.069 96.5693 112.698 95.7386 111.605 94.631C110.386 93.4127 109.5 91.8482 109.5 90.7407C109.486 82.1846 109.999 73.5317 111.065 67.3708Z"/>
</mask>
<path fill-rule="evenodd" clip-rule="evenodd" d="M111.065 67.3708C111.992 61.9575 113.391 58.3994 115.315 58.3994C117.239 58.3994 118.638 61.9437 119.565 67.3708C120.618 73.5317 121.13 82.1985 121.13 90.7407C121.13 91.8482 120.244 93.4127 119.025 94.631C117.932 95.7248 116.547 96.5693 115.315 96.5693C114.069 96.5693 112.698 95.7386 111.605 94.631C110.386 93.4127 109.5 91.8482 109.5 90.7407C109.486 82.1846 109.999 73.5317 111.065 67.3708Z" fill="#AA3964"/>
<path fill-rule="evenodd" clip-rule="evenodd" d="M111.065 67.3708C111.992 61.9575 113.391 58.3994 115.315 58.3994C117.239 58.3994 118.638 61.9437 119.565 67.3708C120.618 73.5317 121.13 82.1985 121.13 90.7407C121.13 91.8482 120.244 93.4127 119.025 94.631C117.932 95.7248 116.547 96.5693 115.315 96.5693C114.069 96.5693 112.698 95.7386 111.605 94.631C110.386 93.4127 109.5 91.8482 109.5 90.7407C109.486 82.1846 109.999 73.5317 111.065 67.3708Z" stroke="black" stroke-width="2" mask="url(#path-48-outside-9_1233_2887)"/>
<path fill-rule="evenodd" clip-rule="evenodd" d="M115.319 65.9194C114.004 65.9194 113.672 66.5286 113.049 68.7991C111.872 73.0772 111.18 80.7333 112.329 85.4959C112.869 87.7664 113.519 88.3756 115.333 88.3756C117.133 88.3756 117.783 87.7802 118.337 85.4959C119.473 80.7333 118.78 73.0772 117.617 68.7991C116.967 66.5286 116.634 65.9194 115.319 65.9194Z" fill="#DB5C87"/>
<path d="M115 59.5996C113.345 59.5996 112.143 62.8999 111.345 67.9209C110.429 73.6353 109.988 81.6613 110 89.5973C110 90.1749 110.241 90.8865 110.638 91.5996C109.986 88.3532 110.784 75.3152 111.72 70.2663C112.58 65.6286 114.336 60.664 115 59.5996Z" fill="white"/>
<mask id="path-51-outside-10_1233_2887" maskUnits="userSpaceOnUse" x="106.699" y="90.3994" width="17" height="14" fill="black">
<rect fill="white" x="106.699" y="90.3994" width="17" height="14"/>
<path fill-rule="evenodd" clip-rule="evenodd" d="M115.271 93.3588C117.048 93.3588 119.442 93.3891 120.987 92.4954C121.389 92.2682 121.899 92.556 121.837 93.0104C121.528 95.0704 120.956 97.1002 120.524 99.145C120.045 101.387 117.295 102.084 115.271 102.084C113.247 102.084 110.528 101.387 110.018 99.1602C109.57 97.1607 109.014 95.025 108.705 93.0104C108.643 92.5863 109.106 92.253 109.508 92.4651C111.084 93.3588 113.494 93.3588 115.271 93.3588Z"/>
</mask>
<path fill-rule="evenodd" clip-rule="evenodd" d="M115.271 93.3588C117.048 93.3588 119.442 93.3891 120.987 92.4954C121.389 92.2682 121.899 92.556 121.837 93.0104C121.528 95.0704 120.956 97.1002 120.524 99.145C120.045 101.387 117.295 102.084 115.271 102.084C113.247 102.084 110.528 101.387 110.018 99.1602C109.57 97.1607 109.014 95.025 108.705 93.0104C108.643 92.5863 109.106 92.253 109.508 92.4651C111.084 93.3588 113.494 93.3588 115.271 93.3588Z" fill="#6D6E70"/>
<path fill-rule="evenodd" clip-rule="evenodd" d="M115.271 93.3588C117.048 93.3588 119.442 93.3891 120.987 92.4954C121.389 92.2682 121.899 92.556 121.837 93.0104C121.528 95.0704 120.956 97.1002 120.524 99.145C120.045 101.387 117.295 102.084 115.271 102.084C113.247 102.084 110.528 101.387 110.018 99.1602C109.57 97.1607 109.014 95.025 108.705 93.0104C108.643 92.5863 109.106 92.253 109.508 92.4651C111.084 93.3588 113.494 93.3588 115.271 93.3588Z" stroke="black" stroke-width="2.97443" mask="url(#path-51-outside-10_1233_2887)"/>
<path d="M120.988 92.4954C119.443 93.3891 117.048 93.3588 115.271 93.3588V102.084C117.295 102.084 120.045 101.387 120.524 99.1451C120.957 97.1002 121.529 95.0705 121.838 93.0104C121.899 92.556 121.39 92.2682 120.988 92.4954Z" fill="#404041"/>
<path d="M108.705 93.0104C109.014 95.025 109.57 97.1607 110.018 99.1602L109.508 93.437L111.12 93.0911L109.508 92.4651C109.106 92.253 108.643 92.5863 108.705 93.0104Z" fill="#BBBDBF"/>
<path d="M121.836 93.0104C121.527 95.025 120.971 97.1607 120.523 99.1602L121.033 93.437L119.421 93.0911L121.033 92.4651C121.435 92.253 121.898 92.5863 121.836 93.0104Z" fill="#BBBDBF"/>
<path d="M119.42 93.7832C117.955 93.94 116.452 94.2486 115.17 94.2486C113.949 94.2486 112.526 93.9283 111.119 93.7832C111.119 93.7832 113.511 95.1421 115.17 95.1663C116.903 95.1916 119.42 93.7832 119.42 93.7832Z" fill="white"/>
<path d="M107.605 89.7844C107.605 89.7844 107.603 89.7017 107.602 89.5434C107.6 89.7564 107.599 90.1169 107.601 90.6054L106.865 91.3997C106.856 90.8009 106.85 90.1921 106.848 89.5731C106.848 89.6275 106.847 89.682 106.847 89.7366L106.847 90.3195C106.847 90.1242 106.847 89.9299 106.847 89.7366L106.847 89.4184C106.847 89.2082 106.847 88.9969 106.847 88.7844L106.847 89.4184C106.847 89.4701 106.848 89.5216 106.848 89.5731C106.904 70.9805 110.509 61.5047 110.509 61.5047C107.586 73.2256 107.587 87.5255 107.602 89.5434C107.603 89.3963 107.605 89.3195 107.605 89.3195L107.605 89.7844Z" fill="white"/>
<path d="M123.02 89.7844C123.02 89.7844 123.022 89.7017 123.023 89.5434C123.025 89.7564 123.026 90.1169 123.024 90.6054L123.76 91.3997C123.769 90.8009 123.775 90.1921 123.777 89.5731C123.777 89.6275 123.778 89.682 123.778 89.7366L123.778 90.3195C123.778 90.1242 123.778 89.9299 123.778 89.7366L123.778 89.4184C123.778 89.2082 123.778 88.9969 123.778 88.7844L123.778 89.4184C123.778 89.4701 123.777 89.5216 123.777 89.5731C123.721 70.9805 120.116 61.5047 120.116 61.5047C123.039 73.2256 123.038 87.5255 123.023 89.5434C123.022 89.3963 123.02 89.3195 123.02 89.3195L123.02 89.7844Z" fill="white"/>
<path d="M119.672 88.4743C119.497 89.5467 118.994 90.3552 118.548 90.2827C118.102 90.2103 117.882 89.2827 118.06 88.2103C118.237 87.1379 118.74 86.3294 119.183 86.4042C119.627 86.479 119.849 87.4042 119.672 88.4743Z" fill="white"/>
<path d="M112.149 87.3091C112.622 87.3091 113.006 86.8907 113.006 86.3745C113.006 85.8584 112.622 85.4399 112.149 85.4399C111.675 85.4399 111.291 85.8584 111.291 86.3745C111.291 86.8907 111.675 87.3091 112.149 87.3091Z" fill="white"/>
<path d="M113.599 89.5309C113.874 89.5309 114.097 89.3081 114.097 89.0333C114.097 88.7584 113.874 88.5356 113.599 88.5356C113.324 88.5356 113.102 88.7584 113.102 89.0333C113.102 89.3081 113.324 89.5309 113.599 89.5309Z" fill="white"/>
<path d="M118.72 70.458C119.084 72.9803 119.013 75.0774 118.564 75.1413C118.115 75.2053 117.46 73.2136 117.099 70.6918C116.737 68.17 116.804 66.072 117.255 66.0085C117.706 65.9449 118.357 67.9358 118.72 70.458Z" fill="white"/>
<path d="M119.505 78.3841C119.465 79.4698 119.069 80.3374 118.618 80.3203C118.167 80.3032 117.836 79.4123 117.871 78.3257C117.907 77.2392 118.307 76.3748 118.758 76.3919C119.208 76.409 119.544 77.3007 119.505 78.3841Z" fill="white"/>
<path d="M115.967 60.3175C115.967 60.3175 117.068 62.5013 116.268 65.9577C116.268 65.9577 114.778 63.7398 115.967 60.3175Z" fill="white"/>

    </svg>
