
    <svg width="230" height="230" viewBox="0 0 230 230" fill="none" xmlns="http://www.w3.org/2000/svg">
        
<mask id="path-1-outside-1_1233_2887" maskUnits="userSpaceOnUse" x="71.3008" y="126.955" width="19" height="19" fill="black">
<rect fill="white" x="71.3008" y="126.955" width="19" height="19"/>
<path fill-rule="evenodd" clip-rule="evenodd" d="M87.9485 128.955V136.279C85.3595 136.279 83.3659 136.542 82.2722 137.47C81.22 138.356 80.6246 140.225 80.6246 143.617H73.3008C73.3008 137.843 74.8237 134.216 77.5788 131.89C80.2785 129.62 83.7674 128.955 87.9485 128.955Z"/>
</mask>
<path fill-rule="evenodd" clip-rule="evenodd" d="M87.9485 128.955V136.279C85.3595 136.279 83.3659 136.542 82.2722 137.47C81.22 138.356 80.6246 140.225 80.6246 143.617H73.3008C73.3008 137.843 74.8237 134.216 77.5788 131.89C80.2785 129.62 83.7674 128.955 87.9485 128.955Z" fill="#6D6E70"/>
<path fill-rule="evenodd" clip-rule="evenodd" d="M87.9485 128.955V136.279C85.3595 136.279 83.3659 136.542 82.2722 137.47C81.22 138.356 80.6246 140.225 80.6246 143.617H73.3008C73.3008 137.843 74.8237 134.216 77.5788 131.89C80.2785 129.62 83.7674 128.955 87.9485 128.955Z" stroke="black" stroke-width="3" mask="url(#path-1-outside-1_1233_2887)"/>
<path d="M87.3473 135.778C84.7583 135.778 82.7647 136.041 81.671 136.969C80.6188 137.855 80.0234 139.724 80.0234 143.116" stroke="#404041" stroke-width="1.5"/>
<path d="M88.3469 129.656C84.1658 129.656 80.677 130.32 77.9772 132.591C75.2221 134.917 73.6992 138.544 73.6992 144.317" stroke="white" stroke-width="1.5"/>
<mask id="path-4-outside-2_1233_2887" maskUnits="userSpaceOnUse" x="84.1074" y="123.3" width="27" height="26" fill="black">
<rect fill="white" x="84.1074" y="123.3" width="27" height="26"/>
<path fill-rule="evenodd" clip-rule="evenodd" d="M105.628 125.3H89.7763C87.7549 125.3 86.1074 126.948 86.1074 128.969V143.631C86.1074 145.652 87.7549 147.3 89.7763 147.3H96.6432C97.3632 147.3 97.9862 147.12 98.5953 146.732L107.581 141.056C108.674 140.363 109.283 139.256 109.283 137.954V128.983C109.297 126.948 107.65 125.3 105.628 125.3Z"/>
</mask>
<path fill-rule="evenodd" clip-rule="evenodd" d="M105.628 125.3H89.7763C87.7549 125.3 86.1074 126.948 86.1074 128.969V143.631C86.1074 145.652 87.7549 147.3 89.7763 147.3H96.6432C97.3632 147.3 97.9862 147.12 98.5953 146.732L107.581 141.056C108.674 140.363 109.283 139.256 109.283 137.954V128.983C109.297 126.948 107.65 125.3 105.628 125.3Z" fill="#6D6E70"/>
<path fill-rule="evenodd" clip-rule="evenodd" d="M105.628 125.3H89.7763C87.7549 125.3 86.1074 126.948 86.1074 128.969V143.631C86.1074 145.652 87.7549 147.3 89.7763 147.3H96.6432C97.3632 147.3 97.9862 147.12 98.5953 146.732L107.581 141.056C108.674 140.363 109.283 139.256 109.283 137.954V128.983C109.297 126.948 107.65 125.3 105.628 125.3Z" stroke="black" stroke-width="3" mask="url(#path-4-outside-2_1233_2887)"/>
<path d="M107.58 141.056L98.5949 146.732C98.5491 146.761 98.5032 146.789 98.4571 146.816C97.3599 144.98 97.2627 132.98 97.8599 130.48C98.3377 128.48 103.059 126.314 105.36 125.48L105.628 125.3C107.649 125.3 109.297 126.948 109.283 128.983V137.954C109.283 139.256 108.674 140.363 107.58 141.056Z" fill="#404041"/>
<path d="M89.7763 125.3H105.628C101.706 126.194 93.1604 126.08 90.3604 126.48C86.8604 126.98 87.7604 132.48 87.7604 137.954C87.7604 142.352 89.1376 146.009 89.7763 147.3C87.7549 147.3 86.1074 145.652 86.1074 143.631V128.969C86.1074 126.948 87.7549 125.3 89.7763 125.3Z" fill="white"/>
<path fill-rule="evenodd" clip-rule="evenodd" d="M58.7853 67.5518H62.5151C63.2029 67.5518 63.7672 68.1073 63.7584 68.795L63.388 104.885H58.7765C58.0887 104.885 57.5332 104.33 57.5332 103.642V68.795C57.542 68.1073 58.1063 67.5518 58.7853 67.5518Z" fill="#6D6E70"/>
<path d="M57.6581 73.1738L63.541 73.1738L63.541 70.8676L57.6581 70.8676L57.6581 73.1738Z" fill="#404041"/>
<path d="M57.6373 73.1738L63.5625 73.1738L63.5625 70.8676L57.6373 70.8676L57.6373 73.1738Z" stroke="black" stroke-width="0.429643"/>
<path d="M62.8121 73.0801L63.127 73.0801L63.127 71.2219L62.8121 71.2219L62.8121 73.0801Z" fill="black"/>
<path d="M62.1323 73.0801L62.4473 73.0801L62.4473 71.2219L62.1323 71.2219L62.1323 73.0801Z" fill="black"/>
<path d="M58.7495 73.0801L59.0645 73.0801L59.0645 71.2219L58.7495 71.2219L58.7495 73.0801Z" fill="black"/>
<path d="M58.0718 73.0801L58.3867 73.0801L58.3867 71.2219L58.0718 71.2219L58.0718 73.0801Z" fill="black"/>
<path d="M57.6104 71.0586L58.7056 71.0586L63.5886 71.0586L64.0117 70.5705L63.3375 67.0003L58.7056 67.0003L57.8614 67.0003L57.1877 70.5705L57.6104 71.0586Z" fill="#6D6E70"/>
<path d="M57.61 71.0581L58.6722 71.0581L58.2496 70.57L58.9238 66.9998L57.8611 66.9998L57.1874 70.57L57.61 71.0581Z" fill="white"/>
<path d="M62.1725 71.0581L63.5886 71.0581L64.0117 70.57L63.3375 66.9998L61.9214 66.9998L62.5956 70.57L62.1725 71.0581Z" fill="#404041"/>
<path d="M57.6104 71.0581L58.7056 71.0581L63.5886 71.0581L64.0117 70.57L63.3375 66.9998L58.7056 66.9998L57.8614 66.9998L57.1877 70.57L57.6104 71.0581Z" stroke="black" stroke-width="0.811667"/>
<path d="M57.3324 69.8716L63.8652 69.8716L63.8652 69.1541L57.3324 69.1541L57.3324 69.8716Z" fill="black"/>
<path d="M57.1711 74.4902L64.0254 74.4902L64.0254 74.0032L57.1711 74.0032L57.1711 74.4902Z" fill="white"/>
<path d="M57.0995 108.662L64.0977 108.662L64.0977 72.6598L57.0995 72.6598L57.0995 108.662Z" fill="#6D6E70"/>
<path d="M57.0992 108.662L59.4082 108.662L59.4082 72.6598L57.0992 72.6598L57.0992 108.662Z" fill="white"/>
<path d="M64.0977 108.662L64.0977 72.6593L61.5003 72.6593L61.5003 108.662L64.0977 108.662Z" fill="#404041"/>
<path d="M57.0995 108.662L64.0977 108.662L64.0977 72.6598L57.0995 72.6598L57.0995 108.662Z" stroke="black" stroke-width="0.811667"/>
<path d="M57.1711 74.1655L64.0254 74.1655L64.0254 73.6785L57.1711 73.6785L57.1711 74.1655Z" fill="black"/>
<path fill-rule="evenodd" clip-rule="evenodd" d="M66.0292 80.5381H67.6407C67.9379 80.5381 68.1817 80.7781 68.1779 81.0752L68.0179 96.668H66.0254C65.7283 96.668 65.4883 96.428 65.4883 96.1309V81.0752C65.4921 80.7781 65.7359 80.5381 66.0292 80.5381Z" fill="#6D6E70"/>
<path d="M65.5422 82.9673L68.084 82.9673L68.084 81.9709L65.5422 81.9709L65.5422 82.9673Z" fill="#404041"/>
<path d="M65.5338 82.9673L68.0938 82.9673L68.0938 81.9709L65.5338 81.9709L65.5338 82.9673Z" stroke="black" stroke-width="0.360895"/>
<path d="M67.7682 82.9268L67.9043 82.9268L67.9043 82.1239L67.7682 82.1239L67.7682 82.9268Z" fill="black"/>
<path d="M67.4753 82.9268L67.6113 82.9268L67.6113 82.1239L67.4753 82.1239L67.4753 82.9268Z" fill="black"/>
<path d="M66.0143 82.9268L66.1504 82.9268L66.1504 82.1239L66.0143 82.1239L66.0143 82.9268Z" fill="black"/>
<path d="M65.7213 82.9268L65.8574 82.9268L65.8574 82.1239L65.7213 82.1239L65.7213 82.9268Z" fill="black"/>
<path d="M65.5214 82.0532L65.9946 82.0532L68.1043 82.0532L68.2871 81.8423L67.9958 80.2998L65.9946 80.2998L65.6299 80.2998L65.3388 81.8423L65.5214 82.0532Z" fill="#6D6E70"/>
<path d="M65.5202 82.0532L65.9792 82.0532L65.7966 81.8423L66.0879 80.2998L65.6287 80.2998L65.3376 81.8423L65.5202 82.0532Z" fill="white"/>
<path d="M67.4925 82.0532L68.1043 82.0532L68.2871 81.8423L67.9958 80.2998L67.384 80.2998L67.6753 81.8423L67.4925 82.0532Z" fill="#404041"/>
<path d="M65.5214 82.0532L65.9946 82.0532L68.1043 82.0532L68.2871 81.8423L67.9958 80.2998L65.9946 80.2998L65.6299 80.2998L65.3388 81.8423L65.5214 82.0532Z" stroke="black" stroke-width="0.681792"/>
<path d="M65.4021 81.5405L68.2246 81.5405L68.2246 81.2305L65.4021 81.2305L65.4021 81.5405Z" fill="black"/>
<path d="M65.3316 83.5361L68.293 83.5361L68.293 83.3257L65.3316 83.3257L65.3316 83.5361Z" fill="white"/>
<path d="M65.3006 98.2998L68.3242 98.2998L68.3242 82.7452L65.3006 82.7452L65.3006 98.2998Z" fill="#6D6E70"/>
<path d="M65.3012 98.2998L66.2988 98.2998L66.2988 82.7452L65.3012 82.7452L65.3012 98.2998Z" fill="white"/>
<path d="M68.3242 98.2998L68.3242 82.7449L67.202 82.7449L67.202 98.2998L68.3242 98.2998Z" fill="#404041"/>
<path d="M65.3006 98.2998L68.3242 98.2998L68.3242 82.7452L65.3006 82.7452L65.3006 98.2998Z" stroke="black" stroke-width="0.681792"/>
<path d="M65.3316 83.3955L68.293 83.3955L68.293 83.1851L65.3316 83.1851L65.3316 83.3955Z" fill="black"/>
<mask id="path-43-outside-3_1233_2887" maskUnits="userSpaceOnUse" x="55.0078" y="82.8149" width="61" height="118" fill="black">
<rect fill="white" x="55.0078" y="82.8149" width="61" height="118"/>
<path d="M68.0005 97.8076L57.0078 86.8149V194.901C57.0078 199.954 68.0005 199.954 68.0005 194.901V181.181V165.3L113.799 146.3V126.3L68.0005 145.8V134.87V97.8076Z"/>
</mask>
<path d="M68.0005 97.8076L57.0078 86.8149V194.901C57.0078 199.954 68.0005 199.954 68.0005 194.901V181.181V165.3L113.799 146.3V126.3L68.0005 145.8V134.87V97.8076Z" fill="#6D6E70"/>
<path d="M70.1154 165.232L114.087 146.993L113.512 145.607L69.5407 163.846L70.1154 165.232ZM57.0078 86.8149L58.0685 85.7543L55.5078 83.1936V86.8149H57.0078ZM68.0005 97.8076H69.5005V97.1863L69.0612 96.747L68.0005 97.8076ZM68.0005 145.8H66.5005V148.069L68.5881 147.18L68.0005 145.8ZM113.799 146.3L114.374 147.685L115.299 147.301V146.3H113.799ZM113.799 126.3H115.299V124.031L113.212 124.92L113.799 126.3ZM68.0005 165.3L67.4257 163.914L66.5005 164.298V165.3H68.0005ZM55.9472 87.8756L66.9399 98.8683L69.0612 96.747L58.0685 85.7543L55.9472 87.8756ZM66.5005 97.8076V134.87H69.5005V97.8076H66.5005ZM66.5005 181.181V194.901H69.5005V181.181H66.5005ZM66.5005 194.901C66.5005 195.522 66.1972 196.036 65.499 196.464C64.7618 196.916 63.6776 197.191 62.5042 197.191C61.3307 197.191 60.2466 196.916 59.5093 196.464C58.8111 196.036 58.5078 195.522 58.5078 194.901H55.5078C55.5078 196.805 56.5786 198.187 57.9416 199.022C59.2654 199.833 60.9295 200.191 62.5042 200.191C64.0789 200.191 65.7429 199.833 67.0668 199.022C68.4297 198.187 69.5005 196.805 69.5005 194.901H66.5005ZM58.5078 194.901V86.8149H55.5078V194.901H58.5078ZM69.5005 145.8V134.87H66.5005V145.8H69.5005ZM68.5881 147.18L114.387 127.68L113.212 124.92L67.4129 144.42L68.5881 147.18ZM112.299 126.3V146.3H115.299V126.3H112.299ZM113.225 144.914L67.4257 163.914L68.5753 166.685L114.374 147.685L113.225 144.914ZM66.5005 165.3V181.181H69.5005V165.3H66.5005Z" fill="black" mask="url(#path-43-outside-3_1233_2887)"/>
<rect x="61.6508" y="191.45" width="1.7" height="4.3" rx="0.65" fill="black" stroke="black" stroke-width="0.3"/>
<rect x="61.8008" y="191.6" width="1.4" height="4" rx="0.5" fill="#9E3E63"/>
<path fill-rule="evenodd" clip-rule="evenodd" d="M62.1769 192.307H62.5587C62.7149 192.307 62.845 192.371 62.845 192.447V195.095C62.845 195.171 62.7149 195.235 62.5587 195.235H62.1769C62.0208 195.235 61.8906 195.171 61.8906 195.095V192.45C61.8906 192.371 62.0208 192.307 62.1769 192.307Z" fill="#F39DB1"/>
<path d="M62.5263 192.408C62.6141 192.408 62.6853 192.34 62.6853 192.256C62.6853 192.173 62.6141 192.105 62.5263 192.105C62.4384 192.105 62.3672 192.173 62.3672 192.256C62.3672 192.34 62.4384 192.408 62.5263 192.408Z" fill="white"/>
<path d="M62.0488 194.858V193.552C62.0488 193.438 62.2505 193.257 62.5688 193.077C62.6032 193.054 62.6418 193.033 62.6851 193.014C62.6448 193.035 62.606 193.056 62.5688 193.077C62.3252 193.235 62.2931 193.452 62.3118 193.552L62.3118 194.858C62.2931 194.958 62.4207 195.085 62.8503 195.155C62.5003 195.155 62.0488 194.972 62.0488 194.858Z" fill="white"/>
<path d="M68.002 134.87V97.8081L66.4941 96.3003V197.607C67.4071 196.979 68.002 196.077 68.002 194.901V181.181V165.3L113.801 146.3V137.3L69.8295 145.022L68.002 145.8V134.87Z" fill="#404041"/>
<path d="M70.5363 151.384L70.9409 145.899L75.1417 143.866L71.9328 147.016L70.5363 151.384Z" fill="white"/>
<path d="M64.3008 95.3003L67.3068 98.1569L67.3156 102.727L66.4234 98.6192L64.3008 95.3003Z" fill="white"/>
<path d="M57.0078 86.8154V194.901C57.0078 196.067 57.5927 196.964 58.4927 197.591V88.3003L57.0078 86.8154Z" fill="white"/>
<path d="M56.0996 155.14C56.0996 155.14 59.3516 152.668 59.3516 150.554V140.571C59.3516 138.099 56.1321 136.506 56.1321 136.506L56.0996 155.14Z" fill="#404041"/>
<path d="M55.4285 136.3C55.4285 136.3 53 137.904 53 140.158V150.999C53 152.82 55.7746 154.944 55.7746 154.944L57.7699 149.741V140.552L55.4285 136.3Z" fill="#F39DB1"/>
<path d="M56.4692 138.189V147.14L54.4738 152.343C53.9448 151.922 53.4518 151.459 53 150.956V150.999C53 152.82 55.7746 154.944 55.7746 154.944L57.7699 149.741V140.552L56.4692 138.189Z" fill="#9E3E63"/>
<path d="M55.4285 136.3C55.4285 136.3 53 137.904 53 140.158V150.999C53 152.82 55.7746 154.944 55.7746 154.944C55.7746 154.944 57.7699 150.944 57.7699 149.741V140.552C57.7699 139.009 55.4285 136.3 55.4285 136.3Z" stroke="black"/>
<path d="M54.2583 146.229C54.2583 146.229 53.1526 138.902 55.2339 138.077C55.2339 138.081 54.3012 144.386 54.2583 146.229Z" fill="white"/>
<path d="M68.0556 143.2L68 167.235L70 144.993L68.0556 143.2Z" fill="black"/>
<path d="M61.8008 90.8003V123.3L68.8008 130.3" stroke="black"/>
<mask id="path-61-outside-4_1233_2887" maskUnits="userSpaceOnUse" x="140.197" y="126.955" width="19" height="19" fill="black">
<rect fill="white" x="140.197" y="126.955" width="19" height="19"/>
<path fill-rule="evenodd" clip-rule="evenodd" d="M142.55 128.955V136.279C145.139 136.279 147.132 136.542 148.226 137.47C149.278 138.356 149.873 140.225 149.873 143.617H157.197C157.197 137.843 155.674 134.216 152.919 131.89C150.22 129.62 146.731 128.955 142.55 128.955Z"/>
</mask>
<path fill-rule="evenodd" clip-rule="evenodd" d="M142.55 128.955V136.279C145.139 136.279 147.132 136.542 148.226 137.47C149.278 138.356 149.873 140.225 149.873 143.617H157.197C157.197 137.843 155.674 134.216 152.919 131.89C150.22 129.62 146.731 128.955 142.55 128.955Z" fill="#6D6E70"/>
<path fill-rule="evenodd" clip-rule="evenodd" d="M142.55 128.955V136.279C145.139 136.279 147.132 136.542 148.226 137.47C149.278 138.356 149.873 140.225 149.873 143.617H157.197C157.197 137.843 155.674 134.216 152.919 131.89C150.22 129.62 146.731 128.955 142.55 128.955Z" stroke="black" stroke-width="3" mask="url(#path-61-outside-4_1233_2887)"/>
<path d="M143.151 135.778C145.74 135.778 147.733 136.041 148.827 136.969C149.879 137.855 150.475 139.724 150.475 143.116" stroke="#404041" stroke-width="1.5"/>
<path d="M142.151 129.656C146.332 129.656 149.821 130.32 152.521 132.591C155.276 134.917 156.799 138.544 156.799 144.317" stroke="white" stroke-width="1.5"/>
<mask id="path-64-outside-5_1233_2887" maskUnits="userSpaceOnUse" x="119.391" y="123.3" width="27" height="26" fill="black">
<rect fill="white" x="119.391" y="123.3" width="27" height="26"/>
<path fill-rule="evenodd" clip-rule="evenodd" d="M124.87 125.3H140.722C142.743 125.3 144.391 126.948 144.391 128.969V143.631C144.391 145.652 142.743 147.3 140.722 147.3H133.855C133.135 147.3 132.512 147.12 131.903 146.732L122.917 141.056C121.824 140.363 121.215 139.256 121.215 137.954V128.983C121.201 126.948 122.848 125.3 124.87 125.3Z"/>
</mask>
<path fill-rule="evenodd" clip-rule="evenodd" d="M124.87 125.3H140.722C142.743 125.3 144.391 126.948 144.391 128.969V143.631C144.391 145.652 142.743 147.3 140.722 147.3H133.855C133.135 147.3 132.512 147.12 131.903 146.732L122.917 141.056C121.824 140.363 121.215 139.256 121.215 137.954V128.983C121.201 126.948 122.848 125.3 124.87 125.3Z" fill="#6D6E70"/>
<path fill-rule="evenodd" clip-rule="evenodd" d="M124.87 125.3H140.722C142.743 125.3 144.391 126.948 144.391 128.969V143.631C144.391 145.652 142.743 147.3 140.722 147.3H133.855C133.135 147.3 132.512 147.12 131.903 146.732L122.917 141.056C121.824 140.363 121.215 139.256 121.215 137.954V128.983C121.201 126.948 122.848 125.3 124.87 125.3Z" stroke="black" stroke-width="3" mask="url(#path-64-outside-5_1233_2887)"/>
<path d="M122.918 141.056L131.903 146.732C131.949 146.761 131.995 146.789 132.041 146.816C133.138 144.98 133.235 132.98 132.638 130.48C132.16 128.48 127.439 126.314 125.138 125.48L124.87 125.3C122.849 125.3 121.201 126.948 121.215 128.983V137.954C121.215 139.256 121.824 140.363 122.918 141.056Z" fill="#404041"/>
<path d="M140.722 125.3H124.87C128.792 126.194 137.338 126.08 140.138 126.48C143.638 126.98 142.738 132.48 142.738 137.954C142.738 142.352 141.36 146.009 140.722 147.3C142.743 147.3 144.391 145.652 144.391 143.631V128.969C144.391 126.948 142.743 125.3 140.722 125.3Z" fill="white"/>
<path fill-rule="evenodd" clip-rule="evenodd" d="M171.713 67.5518H167.983C167.295 67.5518 166.731 68.1073 166.74 68.795L167.11 104.885H171.722C172.409 104.885 172.965 104.33 172.965 103.642V68.795C172.956 68.1073 172.392 67.5518 171.713 67.5518Z" fill="#6D6E70"/>
<path d="M172.84 73.1738L166.957 73.1738L166.957 70.8676L172.84 70.8676L172.84 73.1738Z" fill="#404041"/>
<path d="M172.861 73.1738L166.936 73.1738L166.936 70.8676L172.861 70.8676L172.861 73.1738Z" stroke="black" stroke-width="0.429643"/>
<path d="M167.686 73.0801L167.371 73.0801L167.371 71.2219L167.686 71.2219L167.686 73.0801Z" fill="black"/>
<path d="M168.366 73.0801L168.051 73.0801L168.051 71.2219L168.366 71.2219L168.366 73.0801Z" fill="black"/>
<path d="M171.749 73.0801L171.434 73.0801L171.434 71.2219L171.749 71.2219L171.749 73.0801Z" fill="black"/>
<path d="M172.426 73.0801L172.111 73.0801L172.111 71.2219L172.426 71.2219L172.426 73.0801Z" fill="black"/>
<path d="M172.888 71.0586L171.792 71.0586L166.909 71.0586L166.486 70.5705L167.161 67.0003L171.792 67.0003L172.637 67.0003L173.31 70.5705L172.888 71.0586Z" fill="#6D6E70"/>
<path d="M172.888 71.0581L171.826 71.0581L172.248 70.57L171.574 66.9998L172.637 66.9998L173.311 70.57L172.888 71.0581Z" fill="white"/>
<path d="M168.326 71.0581L166.909 71.0581L166.486 70.57L167.161 66.9998L168.577 66.9998L167.902 70.57L168.326 71.0581Z" fill="#404041"/>
<path d="M172.888 71.0581L171.792 71.0581L166.909 71.0581L166.486 70.57L167.161 66.9998L171.792 66.9998L172.637 66.9998L173.31 70.57L172.888 71.0581Z" stroke="black" stroke-width="0.811667"/>
<path d="M173.166 69.8716L166.633 69.8716L166.633 69.1541L173.166 69.1541L173.166 69.8716Z" fill="black"/>
<path d="M173.327 74.4902L166.473 74.4902L166.473 74.0032L173.327 74.0032L173.327 74.4902Z" fill="white"/>
<path d="M173.399 108.662L166.4 108.662L166.4 72.6598L173.399 72.6598L173.399 108.662Z" fill="#6D6E70"/>
<path d="M173.399 108.662L171.09 108.662L171.09 72.6598L173.399 72.6598L173.399 108.662Z" fill="white"/>
<path d="M166.4 108.662L166.4 72.6593L168.998 72.6593L168.998 108.662L166.4 108.662Z" fill="#404041"/>
<path d="M173.399 108.662L166.4 108.662L166.4 72.6598L173.399 72.6598L173.399 108.662Z" stroke="black" stroke-width="0.811667"/>
<path d="M173.327 74.1655L166.473 74.1655L166.473 73.6785L173.327 73.6785L173.327 74.1655Z" fill="black"/>
<path fill-rule="evenodd" clip-rule="evenodd" d="M164.469 80.5381H162.857C162.56 80.5381 162.316 80.7781 162.32 81.0752L162.48 96.668H164.473C164.77 96.668 165.01 96.428 165.01 96.1309V81.0752C165.006 80.7781 164.762 80.5381 164.469 80.5381Z" fill="#6D6E70"/>
<path d="M164.956 82.9673L162.414 82.9673L162.414 81.9709L164.956 81.9709L164.956 82.9673Z" fill="#404041"/>
<path d="M164.964 82.9673L162.404 82.9673L162.404 81.9709L164.964 81.9709L164.964 82.9673Z" stroke="black" stroke-width="0.360895"/>
<path d="M162.73 82.9268L162.594 82.9268L162.594 82.1239L162.73 82.1239L162.73 82.9268Z" fill="black"/>
<path d="M163.023 82.9268L162.887 82.9268L162.887 82.1239L163.023 82.1239L163.023 82.9268Z" fill="black"/>
<path d="M164.484 82.9268L164.348 82.9268L164.348 82.1239L164.484 82.1239L164.484 82.9268Z" fill="black"/>
<path d="M164.777 82.9268L164.641 82.9268L164.641 82.1239L164.777 82.1239L164.777 82.9268Z" fill="black"/>
<path d="M164.977 82.0532L164.503 82.0532L162.394 82.0532L162.211 81.8423L162.502 80.2998L164.503 80.2998L164.868 80.2998L165.159 81.8423L164.977 82.0532Z" fill="#6D6E70"/>
<path d="M164.978 82.0532L164.519 82.0532L164.701 81.8423L164.41 80.2998L164.869 80.2998L165.16 81.8423L164.978 82.0532Z" fill="white"/>
<path d="M163.006 82.0532L162.394 82.0532L162.211 81.8423L162.502 80.2998L163.114 80.2998L162.823 81.8423L163.006 82.0532Z" fill="#404041"/>
<path d="M164.977 82.0532L164.503 82.0532L162.394 82.0532L162.211 81.8423L162.502 80.2998L164.503 80.2998L164.868 80.2998L165.159 81.8423L164.977 82.0532Z" stroke="black" stroke-width="0.681792"/>
<path d="M165.096 81.5405L162.273 81.5405L162.273 81.2305L165.096 81.2305L165.096 81.5405Z" fill="black"/>
<path d="M165.166 83.5361L162.205 83.5361L162.205 83.3257L165.166 83.3257L165.166 83.5361Z" fill="white"/>
<path d="M165.197 98.2998L162.174 98.2998L162.174 82.7452L165.197 82.7452L165.197 98.2998Z" fill="#6D6E70"/>
<path d="M165.197 98.2998L164.199 98.2998L164.199 82.7452L165.197 82.7452L165.197 98.2998Z" fill="white"/>
<path d="M162.174 98.2998L162.174 82.7449L163.296 82.7449L163.296 98.2998L162.174 98.2998Z" fill="#404041"/>
<path d="M165.197 98.2998L162.174 98.2998L162.174 82.7452L165.197 82.7452L165.197 98.2998Z" stroke="black" stroke-width="0.681792"/>
<path d="M165.166 83.3955L162.205 83.3955L162.205 83.1851L165.166 83.1851L165.166 83.3955Z" fill="black"/>
<mask id="path-103-outside-6_1233_2887" maskUnits="userSpaceOnUse" x="114.49" y="82.8149" width="61" height="118" fill="black">
<rect fill="white" x="114.49" y="82.8149" width="61" height="118"/>
<path d="M162.498 97.8076L173.49 86.8149V194.901C173.49 199.954 162.498 199.954 162.498 194.901V181.181V165.3L116.699 146.3V126.3L162.498 145.8V134.87V97.8076Z"/>
</mask>
<path d="M162.498 97.8076L173.49 86.8149V194.901C173.49 199.954 162.498 199.954 162.498 194.901V181.181V165.3L116.699 146.3V126.3L162.498 145.8V134.87V97.8076Z" fill="#6D6E70"/>
<path d="M160.383 165.232L116.411 146.993L116.986 145.607L160.957 163.846L160.383 165.232ZM173.49 86.8149L172.43 85.7543L174.99 83.1936V86.8149H173.49ZM162.498 97.8076H160.998V97.1863L161.437 96.747L162.498 97.8076ZM162.498 145.8H163.998V148.069L161.91 147.18L162.498 145.8ZM116.699 146.3L116.124 147.685L115.199 147.301V146.3H116.699ZM116.699 126.3H115.199V124.031L117.286 124.92L116.699 126.3ZM162.498 165.3L163.072 163.914L163.998 164.298V165.3H162.498ZM174.551 87.8756L163.558 98.8683L161.437 96.747L172.43 85.7543L174.551 87.8756ZM163.998 97.8076V134.87H160.998V97.8076H163.998ZM163.998 181.181V194.901H160.998V181.181H163.998ZM163.998 194.901C163.998 195.522 164.301 196.036 164.999 196.464C165.736 196.916 166.82 197.191 167.994 197.191C169.167 197.191 170.251 196.916 170.989 196.464C171.687 196.036 171.99 195.522 171.99 194.901H174.99C174.99 196.805 173.919 198.187 172.556 199.022C171.233 199.833 169.569 200.191 167.994 200.191C166.419 200.191 164.755 199.833 163.431 199.022C162.068 198.187 160.998 196.805 160.998 194.901H163.998ZM171.99 194.901V86.8149H174.99V194.901H171.99ZM160.998 145.8V134.87H163.998V145.8H160.998ZM161.91 147.18L116.111 127.68L117.286 124.92L163.085 144.42L161.91 147.18ZM118.199 126.3V146.3H115.199V126.3H118.199ZM117.274 144.914L163.072 163.914L161.923 166.685L116.124 147.685L117.274 144.914ZM163.998 165.3V181.181H160.998V165.3H163.998Z" fill="black" mask="url(#path-103-outside-6_1233_2887)"/>
<rect x="0.15" y="-0.15" width="1.7" height="4.3" rx="0.65" transform="matrix(-1 0 0 1 168.997 191.6)" fill="black" stroke="black" stroke-width="0.3"/>
<rect width="1.4" height="4" rx="0.5" transform="matrix(-1 0 0 1 168.697 191.6)" fill="#9E3E63"/>
<path fill-rule="evenodd" clip-rule="evenodd" d="M168.321 192.307H167.939C167.783 192.307 167.653 192.371 167.653 192.447V195.095C167.653 195.171 167.783 195.235 167.939 195.235H168.321C168.477 195.235 168.607 195.171 168.607 195.095V192.45C168.607 192.371 168.477 192.307 168.321 192.307Z" fill="#F39DB1"/>
<path d="M167.972 192.408C167.884 192.408 167.813 192.34 167.813 192.256C167.813 192.173 167.884 192.105 167.972 192.105C168.06 192.105 168.131 192.173 168.131 192.256C168.131 192.34 168.06 192.408 167.972 192.408Z" fill="white"/>
<path d="M168.449 194.858V193.552C168.449 193.438 168.248 193.257 167.929 193.077C167.895 193.054 167.856 193.033 167.813 193.014C167.853 193.035 167.892 193.056 167.929 193.077C168.173 193.235 168.205 193.452 168.186 193.552L168.186 194.858C168.205 194.958 168.077 195.085 167.648 195.155C167.998 195.155 168.449 194.972 168.449 194.858Z" fill="white"/>
<path d="M162.496 134.87V97.8081L164.004 96.3003V197.607C163.091 196.979 162.496 196.077 162.496 194.901V181.181V165.3L116.697 146.3V137.3L160.669 145.022L162.496 145.8V134.87Z" fill="#404041"/>
<path d="M159.962 151.384L159.557 145.899L155.356 143.866L158.565 147.016L159.962 151.384Z" fill="white"/>
<path d="M166.197 95.3003L163.191 98.1569L163.182 102.727L164.075 98.6192L166.197 95.3003Z" fill="white"/>
<path d="M173.49 86.8154V194.901C173.49 196.067 172.905 196.964 172.005 197.591V88.3003L173.49 86.8154Z" fill="white"/>
<path d="M174.398 155.14C174.398 155.14 171.146 152.668 171.146 150.554V140.571C171.146 138.099 174.366 136.506 174.366 136.506L174.398 155.14Z" fill="#404041"/>
<path d="M175.07 136.3C175.07 136.3 177.498 137.904 177.498 140.158V150.999C177.498 152.82 174.723 154.944 174.723 154.944L172.728 149.741V140.552L175.07 136.3Z" fill="#F39DB1"/>
<path d="M174.029 138.189V147.14L176.024 152.343C176.553 151.922 177.046 151.459 177.498 150.956V150.999C177.498 152.82 174.723 154.944 174.723 154.944L172.728 149.741V140.552L174.029 138.189Z" fill="#9E3E63"/>
<path d="M175.07 136.3C175.07 136.3 177.498 137.904 177.498 140.158V150.999C177.498 152.82 174.723 154.944 174.723 154.944C174.723 154.944 172.728 150.944 172.728 149.741V140.552C172.728 139.009 175.07 136.3 175.07 136.3Z" stroke="black"/>
<path d="M176.24 146.229C176.24 146.229 177.345 138.902 175.264 138.077C175.264 138.081 176.197 144.386 176.24 146.229Z" fill="white"/>
<path d="M162.442 143.2L162.498 167.235L160.498 144.993L162.442 143.2Z" fill="black"/>
<path d="M168.697 90.8003V123.3L161.697 130.3" stroke="black"/>

        
<mask id="path-1-outside-1_1233_2887" maskUnits="userSpaceOnUse" x="35" y="122" width="70" height="67" fill="black">
<rect fill="white" x="35" y="122" width="70" height="67"/>
<path d="M77.3712 187.177H37L103.178 126V143.096V168.778C103.178 170.01 102.624 171.076 101.613 171.782L81.58 185.848C80.2924 186.748 78.9495 187.177 77.3712 187.177Z"/>
</mask>
<path d="M77.3712 187.177H37L103.178 126V143.096V168.778C103.178 170.01 102.624 171.076 101.613 171.782L81.58 185.848C80.2924 186.748 78.9495 187.177 77.3712 187.177Z" fill="#6D6E70"/>
<path d="M37 187.177L35.9818 186.076C35.5284 186.495 35.3781 187.149 35.6032 187.724C35.8282 188.299 36.3826 188.677 37 188.677V187.177ZM81.58 185.848L82.4393 187.078L82.4419 187.076L81.58 185.848ZM101.613 171.782L100.754 170.552L100.751 170.554L101.613 171.782ZM103.178 126H104.678V122.571L102.16 124.899L103.178 126ZM37 188.677H77.3712V185.677H37V188.677ZM77.3712 188.677C79.2605 188.677 80.9027 188.152 82.4393 187.078L80.7207 184.619C79.6821 185.345 78.6385 185.677 77.3712 185.677V188.677ZM82.4419 187.076L102.475 173.01L100.751 170.554L80.718 184.621L82.4419 187.076ZM102.472 173.012C103.886 172.024 104.678 170.498 104.678 168.778H101.678C101.678 169.521 101.362 170.128 100.754 170.552L102.472 173.012ZM104.678 168.778V143.096H101.678V168.778H104.678ZM38.0182 188.279L104.196 127.101L102.16 124.899L35.9818 186.076L38.0182 188.279ZM101.678 126V143.096H104.678V126H101.678Z" fill="black" mask="url(#path-1-outside-1_1233_2887)"/>
<path d="M59.5891 183.229H66.2807C67.0097 183.229 68.3952 185.892 68.8649 187.142H71.0845C70.5064 184.007 68.4045 180.5 66.2807 180.5H59.5891C57.4652 180.5 55.1155 184.007 54.7852 187.142H57.0048C57.4744 185.892 58.8578 183.229 59.5891 183.229Z" fill="#404041"/>
<path d="M65.9284 182.719H59.94C57.9938 182.719 56.9961 186.378 56.9961 186.378H68.8723C68.8723 186.378 67.8653 182.719 65.9284 182.719Z" fill="black" stroke="black" stroke-width="1.63552"/>
<path d="M63.6021 184.443C63.6021 184.576 63.5629 184.705 63.4895 184.815C63.416 184.925 63.3117 185.01 63.1896 185.061C63.0675 185.111 62.9332 185.125 62.8036 185.099C62.674 185.073 62.5548 185.009 62.4613 184.916C62.3679 184.823 62.3042 184.704 62.2784 184.574C62.2527 184.444 62.266 184.31 62.3165 184.188C62.3671 184.066 62.4527 183.961 62.5626 183.888C62.6725 183.814 62.8017 183.775 62.9339 183.775C63.1111 183.775 63.2811 183.846 63.4064 183.971C63.5317 184.096 63.6021 184.266 63.6021 184.443Z" fill="#00ADEE"/>
<path d="M66.8833 184.443C66.8833 184.576 66.8441 184.705 66.7707 184.815C66.6973 184.925 66.593 185.01 66.4709 185.061C66.3488 185.111 66.2143 185.125 66.0847 185.099C65.9551 185.073 65.836 185.009 65.7426 184.916C65.6491 184.823 65.5855 184.704 65.5597 184.574C65.5339 184.444 65.5472 184.31 65.5978 184.188C65.6484 184.066 65.734 183.961 65.8439 183.888C65.9538 183.814 66.0829 183.775 66.2151 183.775C66.3923 183.775 66.5623 183.846 66.6877 183.971C66.813 184.096 66.8833 184.266 66.8833 184.443V184.443Z" fill="#00ADEE"/>
<path d="M60.3208 184.443C60.3208 184.576 60.2815 184.705 60.2081 184.815C60.1347 184.925 60.0304 185.01 59.9083 185.061C59.7862 185.111 59.6519 185.125 59.5222 185.099C59.3926 185.073 59.2736 185.009 59.1801 184.916C59.0866 184.823 59.023 184.704 58.9972 184.574C58.9714 184.444 58.9846 184.31 59.0352 184.188C59.0858 184.066 59.1714 183.961 59.2813 183.888C59.3912 183.814 59.5204 183.775 59.6525 183.775C59.8298 183.775 59.9997 183.846 60.1251 183.971C60.2504 184.096 60.3208 184.266 60.3208 184.443Z" fill="#00ADEE"/>
<path d="M81.5799 185.848C80.2923 186.748 78.9494 187.177 77.3711 187.177L93.6845 171.782V134.776L103.178 126V143.096V168.778C103.178 170.01 102.624 171.076 101.613 171.782L81.5799 185.848Z" fill="#404041"/>
<path d="M96.7923 169.355L96.7622 173.709L93.6852 175.771L95.8595 172.942L96.7923 169.355Z" fill="white"/>
<path d="M103.178 126L37 187.177H42.6846L103.178 126.548V126Z" fill="white"/>
<path d="M51.6836 173H76.6836L104.184 152.5" stroke="black"/>
<path d="M75.8597 149.031C75.8597 149.031 76.5212 151.301 76.6038 153.625C76.2717 154.489 74.5855 156.904 72.7556 158.161L70.1128 156.915L64.709 160.201C64.709 160.201 72.5648 149.658 75.8597 149.031Z" fill="#404041"/>
<path d="M73.9534 147.612C74.4589 147.725 74.9195 147.985 75.2768 148.36C75.419 148.983 75.5672 153.249 75.5672 153.249C75.5672 153.249 74.5966 155.327 72.6235 156.734L69.9596 155.468C69.9596 155.468 64.5365 159.968 63.9291 160.142C63.2432 159.631 63.1429 158.561 63.1429 158.561C63.1429 158.561 69.0624 150.015 73.9534 147.612Z" fill="#F39DB1"/>
<path d="M63.404 158.391C64.0101 158.217 69.9311 153.635 69.9311 153.635L72.4238 154.693C73.9392 153.61 74.9474 151.942 75.4803 151.097C75.5336 152.219 75.5694 153.249 75.5694 153.249C75.5694 153.249 74.5989 155.326 72.6258 156.733L69.9619 155.467C69.9619 155.467 64.5388 159.968 63.9314 160.142C63.2455 159.63 63.1452 158.56 63.1452 158.56C63.1452 158.56 63.1957 158.466 63.2968 158.299C63.3306 158.332 63.3664 158.362 63.404 158.391V158.391Z" fill="#9E3E63"/>
<path d="M73.9534 147.612C74.4589 147.725 74.9195 147.985 75.2768 148.36C75.419 148.983 75.5672 153.249 75.5672 153.249C75.5672 153.249 74.5966 155.327 72.6235 156.734L69.9596 155.468C69.9596 155.468 64.5365 159.968 63.9291 160.142C63.2432 159.631 63.1429 158.561 63.1429 158.561C63.1429 158.561 69.0624 150.015 73.9534 147.612Z" stroke="black"/>
<path d="M74.3467 148.954L73.6945 148.715C73.6945 148.715 68.9887 151.601 64.6435 157.755C64.6435 157.755 71.3598 150.634 74.3467 148.954Z" fill="white"/>
<path d="M75.0657 149.793L73.6472 151.328L75.3468 150.983L75.0657 149.793Z" fill="black"/>
<mask id="path-18-outside-2_1233_2887" maskUnits="userSpaceOnUse" x="124.984" y="122" width="70" height="67" fill="black">
<rect fill="white" x="124.984" y="122" width="70" height="67"/>
<path d="M152.613 187.177H192.984L126.807 126V143.096V168.778C126.807 170.01 127.36 171.076 128.371 171.782L148.404 185.848C149.692 186.748 151.035 187.177 152.613 187.177Z"/>
</mask>
<path d="M152.613 187.177H192.984L126.807 126V143.096V168.778C126.807 170.01 127.36 171.076 128.371 171.782L148.404 185.848C149.692 186.748 151.035 187.177 152.613 187.177Z" fill="#6D6E70"/>
<path d="M192.984 187.177L194.003 186.076C194.456 186.495 194.606 187.149 194.381 187.724C194.156 188.299 193.602 188.677 192.984 188.677V187.177ZM148.404 185.848L147.545 187.078L147.542 187.076L148.404 185.848ZM128.371 171.782L129.23 170.552L129.233 170.554L128.371 171.782ZM126.807 126H125.307V122.571L127.825 124.899L126.807 126ZM192.984 188.677H152.613V185.677H192.984V188.677ZM152.613 188.677C150.724 188.677 149.082 188.152 147.545 187.078L149.264 184.619C150.302 185.345 151.346 185.677 152.613 185.677V188.677ZM147.542 187.076L127.509 173.01L129.233 170.554L149.266 184.621L147.542 187.076ZM127.512 173.012C126.098 172.024 125.307 170.498 125.307 168.778H128.307C128.307 169.521 128.622 170.128 129.23 170.552L127.512 173.012ZM125.307 168.778V143.096H128.307V168.778H125.307ZM191.966 188.279L125.788 127.101L127.825 124.899L194.003 186.076L191.966 188.279ZM128.307 126V143.096H125.307V126H128.307Z" fill="black" mask="url(#path-18-outside-2_1233_2887)"/>
<path d="M170.395 183.229H163.704C162.975 183.229 161.589 185.892 161.12 187.142H158.9C159.478 184.007 161.58 180.5 163.704 180.5H170.395C172.519 180.5 174.869 184.007 175.199 187.142H172.98C172.51 185.892 171.127 183.229 170.395 183.229Z" fill="#404041"/>
<path d="M164.056 182.719H170.044C171.991 182.719 172.988 186.378 172.988 186.378H161.112C161.112 186.378 162.119 182.719 164.056 182.719Z" fill="black" stroke="black" stroke-width="1.63552"/>
<path d="M166.382 184.443C166.382 184.576 166.421 184.705 166.495 184.815C166.568 184.925 166.673 185.01 166.795 185.061C166.917 185.111 167.051 185.125 167.181 185.099C167.31 185.073 167.43 185.009 167.523 184.916C167.617 184.823 167.68 184.704 167.706 184.574C167.732 184.444 167.718 184.31 167.668 184.188C167.617 184.066 167.532 183.961 167.422 183.888C167.312 183.814 167.183 183.775 167.051 183.775C166.873 183.775 166.703 183.846 166.578 183.971C166.453 184.096 166.382 184.266 166.382 184.443Z" fill="#00ADEE"/>
<path d="M163.101 184.443C163.101 184.576 163.14 184.705 163.214 184.815C163.287 184.925 163.391 185.01 163.513 185.061C163.636 185.111 163.77 185.125 163.9 185.099C164.029 185.073 164.148 185.009 164.242 184.916C164.335 184.823 164.399 184.704 164.425 184.574C164.45 184.444 164.437 184.31 164.387 184.188C164.336 184.066 164.25 183.961 164.14 183.888C164.031 183.814 163.901 183.775 163.769 183.775C163.592 183.775 163.422 183.846 163.297 183.971C163.171 184.096 163.101 184.266 163.101 184.443V184.443Z" fill="#00ADEE"/>
<path d="M169.664 184.443C169.664 184.576 169.703 184.705 169.776 184.815C169.85 184.925 169.954 185.01 170.076 185.061C170.198 185.111 170.333 185.125 170.462 185.099C170.592 185.073 170.711 185.009 170.804 184.916C170.898 184.823 170.961 184.704 170.987 184.574C171.013 184.444 171 184.31 170.949 184.188C170.899 184.066 170.813 183.961 170.703 183.888C170.593 183.814 170.464 183.775 170.332 183.775C170.155 183.775 169.985 183.846 169.859 183.971C169.734 184.096 169.664 184.266 169.664 184.443Z" fill="#00ADEE"/>
<path d="M148.404 185.848C149.692 186.748 151.035 187.177 152.613 187.177L136.3 171.782V134.776L126.807 126V143.096V168.778C126.807 170.01 127.361 171.076 128.371 171.782L148.404 185.848Z" fill="#404041"/>
<path d="M133.192 169.355L133.222 173.709L136.299 175.771L134.125 172.942L133.192 169.355Z" fill="white"/>
<path d="M126.807 126L192.984 187.177H187.3L126.807 126.548V126Z" fill="white"/>
<path d="M178.301 173H153.301L125.801 152.5" stroke="black"/>
<path d="M154.125 149.031C154.125 149.031 153.463 151.301 153.381 153.625C153.713 154.489 155.399 156.904 157.229 158.161L159.872 156.915L165.275 160.201C165.275 160.201 157.42 149.658 154.125 149.031Z" fill="#404041"/>
<path d="M156.031 147.612C155.525 147.725 155.065 147.985 154.708 148.36C154.565 148.983 154.417 153.249 154.417 153.249C154.417 153.249 155.388 155.327 157.361 156.734L160.025 155.468C160.025 155.468 165.448 159.968 166.055 160.142C166.741 159.631 166.841 158.561 166.841 158.561C166.841 158.561 160.922 150.015 156.031 147.612Z" fill="#F39DB1"/>
<path d="M166.58 158.391C165.974 158.217 160.053 153.635 160.053 153.635L157.561 154.693C156.045 153.61 155.037 151.942 154.504 151.097C154.451 152.219 154.415 153.249 154.415 153.249C154.415 153.249 155.385 155.326 157.359 156.733L160.022 155.467C160.022 155.467 165.446 159.968 166.053 160.142C166.739 159.63 166.839 158.56 166.839 158.56C166.839 158.56 166.789 158.466 166.688 158.299C166.654 158.332 166.618 158.362 166.58 158.391V158.391Z" fill="#9E3E63"/>
<path d="M156.031 147.612C155.525 147.725 155.065 147.985 154.708 148.36C154.565 148.983 154.417 153.249 154.417 153.249C154.417 153.249 155.388 155.327 157.361 156.734L160.025 155.468C160.025 155.468 165.448 159.968 166.055 160.142C166.741 159.631 166.841 158.561 166.841 158.561C166.841 158.561 160.922 150.015 156.031 147.612Z" stroke="black"/>
<path d="M155.638 148.954L156.29 148.715C156.29 148.715 160.996 151.601 165.341 157.755C165.341 157.755 158.625 150.634 155.638 148.954Z" fill="white"/>
<path d="M154.919 149.793L156.337 151.328L154.638 150.983L154.919 149.793Z" fill="black"/>

        
<mask id="path-1-outside-1_1233_2887" maskUnits="userSpaceOnUse" x="95.8262" y="122" width="38" height="85" fill="black">
<rect fill="white" x="95.8262" y="122" width="38" height="85"/>
<path fill-rule="evenodd" clip-rule="evenodd" d="M109.733 129.856V125.841C109.733 124.831 108.916 124.014 107.905 124.014H103.309C102.298 124.014 101.481 124.831 101.481 125.841V145.002L99.6537 146.055C98.4907 146.733 97.8262 147.882 97.8262 149.225V159.124L100.083 163.124V171.031C100.083 172.346 100.277 173.467 100.72 174.713L111.062 203.759C111.325 204.507 112.003 204.978 112.792 204.978H116.863C117.652 204.978 118.33 204.507 118.593 203.759L128.935 174.713C129.378 173.467 129.572 172.346 129.572 171.031V163.124L131.829 159.124V149.225C131.829 147.882 131.164 146.733 130.001 146.055L128.174 145.002V125.828C128.174 124.817 127.357 124 126.346 124H121.722C120.711 124 119.895 124.817 119.895 125.828V129.842H109.733V129.856Z"/>
</mask>
<path fill-rule="evenodd" clip-rule="evenodd" d="M109.733 129.856V125.841C109.733 124.831 108.916 124.014 107.905 124.014H103.309C102.298 124.014 101.481 124.831 101.481 125.841V145.002L99.6537 146.055C98.4907 146.733 97.8262 147.882 97.8262 149.225V159.124L100.083 163.124V171.031C100.083 172.346 100.277 173.467 100.72 174.713L111.062 203.759C111.325 204.507 112.003 204.978 112.792 204.978H116.863C117.652 204.978 118.33 204.507 118.593 203.759L128.935 174.713C129.378 173.467 129.572 172.346 129.572 171.031V163.124L131.829 159.124V149.225C131.829 147.882 131.164 146.733 130.001 146.055L128.174 145.002V125.828C128.174 124.817 127.357 124 126.346 124H121.722C120.711 124 119.895 124.817 119.895 125.828V129.842H109.733V129.856Z" fill="#6D6E70"/>
<path fill-rule="evenodd" clip-rule="evenodd" d="M109.733 129.856V125.841C109.733 124.831 108.916 124.014 107.905 124.014H103.309C102.298 124.014 101.481 124.831 101.481 125.841V145.002L99.6537 146.055C98.4907 146.733 97.8262 147.882 97.8262 149.225V159.124L100.083 163.124V171.031C100.083 172.346 100.277 173.467 100.72 174.713L111.062 203.759C111.325 204.507 112.003 204.978 112.792 204.978H116.863C117.652 204.978 118.33 204.507 118.593 203.759L128.935 174.713C129.378 173.467 129.572 172.346 129.572 171.031V163.124L131.829 159.124V149.225C131.829 147.882 131.164 146.733 130.001 146.055L128.174 145.002V125.828C128.174 124.817 127.357 124 126.346 124H121.722C120.711 124 119.895 124.817 119.895 125.828V129.842H109.733V129.856Z" stroke="black" stroke-width="3" mask="url(#path-1-outside-1_1233_2887)"/>
<path d="M101.481 125.841C101.481 124.831 102.298 124.014 103.309 124.014V146.682L100.72 149.225V160.182L103.309 165.182V174.713L112.792 204.978C112.003 204.978 111.325 204.507 111.062 203.759L100.72 174.713C100.277 173.467 100.083 172.346 100.083 171.03V163.124L97.8262 159.124V149.225C97.8262 147.882 98.4907 146.733 99.6537 146.054L101.481 145.002V125.841Z" fill="#BBBDBF"/>
<path d="M103.579 180.755L101.8 175.564L104.78 176.426L102.78 176.426L103.579 180.755Z" fill="white"/>
<path d="M118.592 203.759C118.329 204.507 117.651 204.978 116.862 204.978H114.812V129.842H119.894V125.828C119.894 124.817 120.71 124 121.721 124H126.345C127.356 124 128.173 124.817 128.173 125.828V145.002L130 146.055C131.163 146.733 131.828 147.882 131.828 149.225V159.124L129.571 163.124V171.031C129.571 172.346 129.377 173.467 128.934 174.713L118.592 203.759Z" fill="#404041"/>
<path fill-rule="evenodd" clip-rule="evenodd" d="M120.075 156.495C120.075 156.066 120.075 155.623 120.075 155.193C120.075 154.653 119.438 154.044 118.705 154.21C116.365 154.75 114.011 154.75 111.671 154.21C110.938 154.044 110.301 154.653 110.301 155.193C110.301 155.623 110.301 156.066 110.301 156.495C110.301 157.035 110.924 157.339 111.671 157.478C114.011 157.907 116.365 157.907 118.705 157.478C119.452 157.339 120.075 157.035 120.075 156.495Z" fill="black"/>
<path fill-rule="evenodd" clip-rule="evenodd" d="M119.618 156.813C119.618 156.384 119.618 155.941 119.618 155.512C119.618 155.152 119.203 154.792 118.705 154.861C116.365 155.166 114.011 155.166 111.672 154.861C111.173 154.792 110.758 155.152 110.758 155.512C110.758 155.941 110.758 156.384 110.758 156.813C110.758 157.173 111.173 157.381 111.672 157.464C114.011 157.893 116.365 157.893 118.705 157.464C119.203 157.381 119.618 157.173 119.618 156.813Z" fill="#9E3E63"/>
<path fill-rule="evenodd" clip-rule="evenodd" d="M118.705 156.688C118.705 156.342 118.705 155.996 118.705 155.65C118.705 155.359 118.373 155.055 117.985 155.124C116.13 155.498 114.261 155.498 112.405 155.124C112.018 155.041 111.686 155.359 111.686 155.65C111.686 155.996 111.686 156.342 111.686 156.688C111.686 156.979 112.018 157.159 112.405 157.214C114.205 157.464 116.06 157.477 117.985 157.214C118.373 157.145 118.705 156.965 118.705 156.688Z" fill="#F39DB1"/>
<path d="M112.303 157.221C111.972 157.181 111.688 157.054 111.688 156.848V156.356C112.125 156.848 113.911 156.967 114.766 156.967C115.62 156.967 117.401 156.614 117.688 156.485V156.848C117.688 157.044 117.403 157.172 117.072 157.221C115.427 157.407 113.841 157.397 112.303 157.221Z" fill="white"/>
<path d="M117.286 155.522C117.286 155.431 117.508 155.356 117.783 155.356C118.057 155.356 118.279 155.431 118.279 155.522C118.279 155.613 118.057 155.687 117.783 155.687C117.508 155.687 117.286 155.613 117.286 155.522Z" fill="white"/>
<path d="M128.21 125.841C128.21 124.831 127.393 124.014 126.383 124.014V146.682L128.972 149.225V160.182L126.383 165.182V174.713L116.899 204.978C117.688 204.978 118.367 204.507 118.63 203.759L128.972 174.713C129.415 173.467 129.609 172.346 129.609 171.03V163.124L131.865 159.124V149.225C131.865 147.882 131.201 146.733 130.038 146.054L128.21 145.002V125.841Z" fill="#231F20"/>
<path d="M131.093 153.939C131.093 153.939 131.229 149.254 130.963 148.38C130.696 147.506 128.701 146.37 128.701 146.37L130.526 148.654L131.093 153.939Z" fill="white"/>
<path d="M98.7665 153.939C98.7665 153.939 98.6305 149.254 98.8968 148.38C99.1631 147.506 101.159 146.37 101.159 146.37L99.3332 148.654L98.7665 153.939Z" fill="white"/>
<path d="M126.108 180.755L127.888 175.564L124.908 176.426L126.908 176.426L126.108 180.755Z" fill="white"/>
<rect x="113.651" y="183.032" width="2.29993" height="6.01408" rx="0.65" fill="black" stroke="black" stroke-width="0.3"/>
<rect x="113.801" y="183.481" width="1.99993" height="5.71408" rx="0.5" fill="#9E3E63"/>
<path fill-rule="evenodd" clip-rule="evenodd" d="M114.337 184.491H114.882C115.105 184.491 115.291 184.583 115.291 184.692V188.474C115.291 188.584 115.105 188.675 114.882 188.675H114.337C114.114 188.675 113.928 188.584 113.928 188.474V184.696C113.928 184.583 114.114 184.491 114.337 184.491Z" fill="#F39DB1"/>
<path d="M114.837 184.636C114.962 184.636 115.064 184.539 115.064 184.42C115.064 184.3 114.962 184.203 114.837 184.203C114.711 184.203 114.609 184.3 114.609 184.42C114.609 184.539 114.711 184.636 114.837 184.636Z" fill="white"/>
<path d="M114.156 188.136V186.27C114.156 186.108 114.444 185.848 114.899 185.591C114.948 185.559 115.003 185.529 115.065 185.501C115.008 185.531 114.952 185.561 114.899 185.591C114.551 185.817 114.505 186.128 114.532 186.27L114.532 188.136C114.505 188.278 114.687 188.459 115.301 188.56C114.801 188.56 114.156 188.298 114.156 188.136Z" fill="white"/>
<rect x="-0.187302" y="-0.09959" width="2.29993" height="6.01408" rx="0.65" transform="matrix(0.956305 -0.292371 0.292372 0.956304 105.83 182.939)" fill="black" stroke="black" stroke-width="0.3"/>
<rect width="1.99993" height="5.71408" rx="0.5" transform="matrix(0.956304 -0.292373 0.29237 0.956305 105.609 183.298)" fill="#9E3E63"/>
<path fill-rule="evenodd" clip-rule="evenodd" d="M106.417 184.107L106.938 183.948C107.151 183.882 107.356 183.916 107.388 184.02L108.494 187.637C108.526 187.741 108.375 187.883 108.161 187.949L107.64 188.108C107.426 188.173 107.222 188.14 107.19 188.036L106.085 184.423C106.052 184.314 106.203 184.172 106.417 184.107Z" fill="#F39DB1"/>
<path d="M106.938 184.099C107.058 184.063 107.127 183.94 107.092 183.826C107.057 183.712 106.931 183.649 106.811 183.686C106.691 183.722 106.622 183.845 106.657 183.959C106.692 184.073 106.818 184.136 106.938 184.099Z" fill="white"/>
<path d="M107.309 187.645L106.764 185.861C106.716 185.706 106.916 185.373 107.276 184.994C107.313 184.949 107.357 184.904 107.408 184.86C107.362 184.905 107.318 184.95 107.276 184.994C107.009 185.312 107.056 185.623 107.123 185.751L107.669 187.535C107.685 187.68 107.912 187.799 108.529 187.716C108.05 187.863 107.357 187.801 107.309 187.645Z" fill="white"/>
<rect x="0.187302" y="-0.09959" width="2.29993" height="6.01408" rx="0.65" transform="matrix(-0.956305 -0.292371 -0.292372 0.956304 124.154 182.95)" fill="black" stroke="black" stroke-width="0.3"/>
<rect width="1.99993" height="5.71408" rx="0.5" transform="matrix(-0.956305 -0.292371 -0.292372 0.956304 124.016 183.299)" fill="#9E3E63"/>
<path fill-rule="evenodd" clip-rule="evenodd" d="M123.208 184.108L122.687 183.949C122.474 183.883 122.269 183.917 122.237 184.021L121.131 187.638C121.099 187.742 121.25 187.884 121.464 187.95L121.985 188.109C122.199 188.174 122.403 188.141 122.435 188.037L123.54 184.424C123.573 184.315 123.422 184.173 123.208 184.108Z" fill="#F39DB1"/>
<path d="M122.687 184.1C122.567 184.064 122.498 183.941 122.533 183.827C122.568 183.713 122.694 183.65 122.814 183.686C122.934 183.723 123.003 183.846 122.968 183.96C122.933 184.074 122.807 184.137 122.687 184.1Z" fill="white"/>
<path d="M122.316 187.646L122.861 185.862C122.909 185.707 122.709 185.374 122.349 184.995C122.312 184.95 122.268 184.905 122.217 184.861C122.263 184.906 122.307 184.951 122.349 184.995C122.616 185.313 122.569 185.624 122.502 185.752L121.956 187.536C121.94 187.681 121.713 187.8 121.097 187.717C121.575 187.864 122.268 187.802 122.316 187.646Z" fill="white"/>
<path d="M97.4867 159.248C97.1716 158.956 97.0019 158.656 97 158.353L97.4867 159.248C99.5065 161.122 107.502 162.68 115.6 162.628C123.117 162.58 130.177 161.07 132.154 159.316L132.7 158.353C132.7 158.677 132.509 159 132.154 159.316L130.3 162.582C130.3 164.572 123.152 166.528 115.451 166.581C107.322 166.637 99.3122 164.68 99.2998 162.582L97.4867 159.248Z" fill="#404041"/>
<path d="M97 158.453C97.0143 160.696 106.239 162.789 115.6 162.728C124.468 162.672 132.7 160.58 132.7 158.453" stroke="black"/>
<path d="M99.3008 162.682C99.3132 164.78 107.323 166.737 115.452 166.681C123.153 166.628 130.301 164.672 130.301 162.682" stroke="black"/>
<path d="M114.801 163.083V166.283" stroke="black"/>
<path d="M118.801 162.983V166.183" stroke="black"/>
<path d="M122.801 162.484V165.684" stroke="black"/>
<path d="M126.801 161.683V164.883" stroke="black"/>
<path d="M130.801 159.983V163.183" stroke="black"/>
<path d="M110.801 162.883V166.083" stroke="black"/>
<path d="M106.801 162.583V165.783" stroke="black"/>
<path d="M102.801 161.684V164.884" stroke="black"/>
<path d="M98.8008 159.984V163.184" stroke="black"/>
<path d="M99.3008 172.283C99.3132 174.381 107.323 176.338 115.452 176.282C123.153 176.228 130.301 174.272 130.301 172.283" stroke="black"/>
<path d="M100.9 144.183C100.928 149.55 128.7 149.555 128.7 144.183" stroke="black"/>
<mask id="path-43-outside-2_1233_2887" maskUnits="userSpaceOnUse" x="95.8262" y="122" width="38" height="85" fill="black">
<rect fill="white" x="95.8262" y="122" width="38" height="85"/>
<path fill-rule="evenodd" clip-rule="evenodd" d="M109.733 129.856V125.841C109.733 124.831 108.916 124.014 107.905 124.014H103.309C102.298 124.014 101.481 124.831 101.481 125.841V145.002L99.6537 146.055C98.4907 146.733 97.8262 147.882 97.8262 149.225V159.124L100.083 163.124V171.031C100.083 172.346 100.277 173.467 100.72 174.713L111.062 203.759C111.325 204.507 112.003 204.978 112.792 204.978H116.863C117.652 204.978 118.33 204.507 118.593 203.759L128.935 174.713C129.378 173.467 129.572 172.346 129.572 171.031V163.124L131.829 159.124V149.225C131.829 147.882 131.164 146.733 130.001 146.055L128.174 145.002V125.828C128.174 124.817 127.357 124 126.346 124H121.722C120.711 124 119.895 124.817 119.895 125.828V129.842H109.733V129.856Z"/>
</mask>
<path fill-rule="evenodd" clip-rule="evenodd" d="M109.733 129.856V125.841C109.733 124.831 108.916 124.014 107.905 124.014H103.309C102.298 124.014 101.481 124.831 101.481 125.841V145.002L99.6537 146.055C98.4907 146.733 97.8262 147.882 97.8262 149.225V159.124L100.083 163.124V171.031C100.083 172.346 100.277 173.467 100.72 174.713L111.062 203.759C111.325 204.507 112.003 204.978 112.792 204.978H116.863C117.652 204.978 118.33 204.507 118.593 203.759L128.935 174.713C129.378 173.467 129.572 172.346 129.572 171.031V163.124L131.829 159.124V149.225C131.829 147.882 131.164 146.733 130.001 146.055L128.174 145.002V125.828C128.174 124.817 127.357 124 126.346 124H121.722C120.711 124 119.895 124.817 119.895 125.828V129.842H109.733V129.856Z" stroke="black" stroke-width="3" mask="url(#path-43-outside-2_1233_2887)"/>

        
<mask id="path-1-outside-1_1233_2887" maskUnits="userSpaceOnUse" x="97.1992" y="19.8989" width="17" height="32" fill="black">
<rect fill="white" x="97.1992" y="19.8989" width="17" height="32"/>
<path d="M99.244 42.9306L105.154 50.2787C105.2 50.3352 105.288 50.3261 105.321 50.2615L112.421 36.3602C112.428 36.3462 112.432 36.3306 112.432 36.3148V22.2449C112.432 22.1446 112.301 22.1067 112.247 22.1915L99.2373 42.8146C99.2145 42.8507 99.2172 42.8973 99.244 42.9306Z"/>
</mask>
<path d="M99.244 42.9306L105.154 50.2787C105.2 50.3352 105.288 50.3261 105.321 50.2615L112.421 36.3602C112.428 36.3462 112.432 36.3306 112.432 36.3148V22.2449C112.432 22.1446 112.301 22.1067 112.247 22.1915L99.2373 42.8146C99.2145 42.8507 99.2172 42.8973 99.244 42.9306Z" fill="#6D6E70"/>
<path d="M99.244 42.9306L105.154 50.2787C105.2 50.3352 105.288 50.3261 105.321 50.2615L112.421 36.3602C112.428 36.3462 112.432 36.3306 112.432 36.3148V22.2449C112.432 22.1446 112.301 22.1067 112.247 22.1915L99.2373 42.8146C99.2145 42.8507 99.2172 42.8973 99.244 42.9306Z" stroke="black" stroke-width="3" mask="url(#path-1-outside-1_1233_2887)"/>
<path d="M99.244 42.9306L105.251 50.399L100.729 42.9248C100.711 42.894 100.71 42.8556 100.728 42.8242L112.432 21.8989L99.2373 42.8146C99.2145 42.8507 99.2172 42.8973 99.244 42.9306Z" fill="white"/>
<path d="M105.321 50.2605L112.42 36.3601C112.427 36.3461 112.431 36.3305 112.431 36.3147V30.5908C112.431 30.4956 112.309 30.4563 112.25 30.5316C108.115 35.8647 106.166 38.5269 103.413 48.0188C103.404 48.0499 103.41 48.0845 103.431 48.1099L105.154 50.2773C105.199 50.3342 105.288 50.3253 105.321 50.2605Z" fill="#404041"/>
<mask id="path-4-outside-2_1233_2887" maskUnits="userSpaceOnUse" x="116.732" y="19.8989" width="17" height="32" fill="black">
<rect fill="white" x="116.732" y="19.8989" width="17" height="32"/>
<path d="M131.688 42.9306L125.777 50.2787C125.732 50.3352 125.643 50.3261 125.61 50.2615L118.511 36.3602C118.504 36.3462 118.5 36.3306 118.5 36.3148V22.2449C118.5 22.1446 118.631 22.1067 118.685 22.1915L131.694 42.8146C131.717 42.8507 131.714 42.8973 131.688 42.9306Z"/>
</mask>
<path d="M131.688 42.9306L125.777 50.2787C125.732 50.3352 125.643 50.3261 125.61 50.2615L118.511 36.3602C118.504 36.3462 118.5 36.3306 118.5 36.3148V22.2449C118.5 22.1446 118.631 22.1067 118.685 22.1915L131.694 42.8146C131.717 42.8507 131.714 42.8973 131.688 42.9306Z" fill="#6D6E70"/>
<path d="M131.688 42.9306L125.777 50.2787C125.732 50.3352 125.643 50.3261 125.61 50.2615L118.511 36.3602C118.504 36.3462 118.5 36.3306 118.5 36.3148V22.2449C118.5 22.1446 118.631 22.1067 118.685 22.1915L131.694 42.8146C131.717 42.8507 131.714 42.8973 131.688 42.9306Z" stroke="black" stroke-width="3" mask="url(#path-4-outside-2_1233_2887)"/>
<path d="M131.688 42.9306L125.681 50.399L130.202 42.9248C130.221 42.894 130.222 42.8556 130.204 42.8242L118.5 21.8989L131.694 42.8146C131.717 42.8507 131.714 42.8973 131.688 42.9306Z" fill="white"/>
<path d="M125.611 50.2605L118.512 36.3601C118.505 36.3461 118.501 36.3305 118.501 36.3147V30.5908C118.501 30.4956 118.623 30.4563 118.681 30.5316C122.817 35.8647 124.766 38.5269 127.519 48.0188C127.528 48.0499 127.521 48.0845 127.501 48.1099L125.778 50.2773C125.733 50.3342 125.644 50.3253 125.611 50.2605Z" fill="#404041"/>
<path d="M97.5 117.183C99.1614 115.467 100.823 113.764 102.484 112.047C102.83 111.687 102.996 111.272 102.996 110.773L102.996 89.5939C103.009 67.0756 104.807 44.9768 112.209 34.3539C113.772 32.1094 116.927 31.9829 118.521 34.2062C125.652 44.1524 127.572 67.2969 127.585 89.5939V110.789C127.588 111.28 127.754 111.691 128.097 112.047C129.758 113.764 131.42 115.467 133.081 117.183V129.353C131.433 131.471 129.786 133.603 128.138 135.721C128.138 140.094 102.459 140.074 102.431 135.706C100.787 133.593 99.1436 131.466 97.5 129.353V117.183Z" fill="#6D6E70"/>
<path fill-rule="evenodd" clip-rule="evenodd" d="M102.425 135.699C101.607 134.647 100.789 133.591 99.9709 132.536C99.1473 131.474 98.3236 130.411 97.5 129.352V117.183C98.3307 116.324 99.1614 115.47 99.992 114.615C100.823 113.76 101.653 112.905 102.484 112.046C102.83 111.686 102.996 111.271 102.996 110.773L102.996 89.5934C103.009 67.0751 104.807 44.9764 112.209 34.3535C113.772 32.1089 116.927 31.9825 118.521 34.2057C125.652 44.152 127.572 67.2964 127.585 89.5934V110.789C127.588 111.28 127.754 111.69 128.097 112.046C128.928 112.905 129.758 113.76 130.589 114.615C131.42 115.47 132.25 116.325 133.081 117.183V129.352C132.257 130.412 131.433 131.474 130.609 132.537C129.786 133.599 128.962 134.662 128.138 135.721C128.138 140.086 102.552 140.074 102.431 135.73C102.431 135.722 102.431 135.714 102.431 135.706C102.429 135.704 102.427 135.701 102.425 135.699ZM129.57 136.324C129.329 137.353 128.498 138.038 127.79 138.451C126.895 138.972 125.721 139.354 124.456 139.64C121.902 140.218 118.571 140.493 115.294 140.491C112.017 140.489 108.684 140.209 106.127 139.629C104.861 139.341 103.686 138.958 102.789 138.437C102.08 138.024 101.247 137.341 101.002 136.312C100.264 135.363 99.5265 134.411 98.7896 133.461L98.78 133.448C97.958 132.388 97.1369 131.329 96.316 130.273L96 129.867V116.576L96.4221 116.14C97.254 115.28 98.0857 114.424 98.9163 113.569L98.9228 113.563C99.7506 112.711 100.577 111.86 101.404 111.006C101.456 110.951 101.472 110.917 101.478 110.902C101.484 110.887 101.496 110.851 101.496 110.773L101.496 89.5934C101.503 78.3048 101.956 67.0697 103.347 57.3013C104.731 47.5795 107.068 39.107 110.978 33.496C113.089 30.4654 117.498 30.2048 119.74 33.3317C123.533 38.622 125.83 47.2124 127.208 57.0602C128.594 66.9736 129.079 78.4109 129.085 89.5926V110.782C129.086 110.855 129.097 110.888 129.103 110.903C129.109 110.918 129.125 110.951 129.177 111.006C130.005 111.862 130.834 112.714 131.663 113.568L131.666 113.571C132.496 114.425 133.327 115.28 134.159 116.14L134.581 116.576V129.867L134.265 130.273C133.442 131.331 132.619 132.393 131.795 133.456C131.054 134.412 130.312 135.369 129.57 136.324Z" fill="black"/>
<path d="M127.585 89.5937C127.572 67.2967 125.652 44.1522 118.521 34.206C117.757 33.1403 116.634 32.6145 115.5 32.603V140.491L126 138.899L128.5 136.399L128.138 135.721C128.962 134.662 129.786 133.6 130.609 132.537C131.433 131.474 132.257 130.412 133.081 129.353V117.183C132.25 116.325 131.42 115.47 130.589 114.615C129.758 113.76 128.928 112.905 128.097 112.047C127.754 111.691 127.588 111.28 127.585 110.789V110.773V89.5937Z" fill="#404041"/>
<path fill-rule="evenodd" clip-rule="evenodd" d="M102.425 135.699C101.607 134.647 100.789 133.591 99.9709 132.536C99.1473 131.474 98.3236 130.411 97.5 129.352V117.183C98.3307 116.324 99.1614 115.47 99.992 114.615C100.823 113.76 101.653 112.905 102.484 112.046C102.83 111.686 102.996 111.271 102.996 110.773L102.996 89.5934C103.009 67.0751 104.807 44.9764 112.209 34.3535C113.772 32.1089 116.927 31.9825 118.521 34.2057C125.652 44.152 127.572 67.2964 127.585 89.5934V110.789C127.588 111.28 127.754 111.69 128.097 112.046C128.928 112.905 129.758 113.76 130.589 114.615C131.42 115.47 132.25 116.325 133.081 117.183V129.352C132.257 130.412 131.433 131.474 130.609 132.537C129.786 133.599 128.962 134.662 128.138 135.721C128.138 140.086 102.552 140.074 102.431 135.73C102.431 135.722 102.431 135.714 102.431 135.706C102.429 135.704 102.427 135.701 102.425 135.699ZM129.57 136.324C129.329 137.353 128.498 138.038 127.79 138.451C126.895 138.972 125.721 139.354 124.456 139.64C121.902 140.218 118.571 140.493 115.294 140.491C112.017 140.489 108.684 140.209 106.127 139.629C104.861 139.341 103.686 138.958 102.789 138.437C102.08 138.024 101.247 137.341 101.002 136.312C100.264 135.363 99.5265 134.411 98.7896 133.461L98.78 133.448C97.958 132.388 97.1369 131.329 96.316 130.273L96 129.867V116.576L96.4221 116.14C97.254 115.28 98.0857 114.424 98.9163 113.569L98.9228 113.563C99.7506 112.711 100.577 111.86 101.404 111.006C101.456 110.951 101.472 110.917 101.478 110.902C101.484 110.887 101.496 110.851 101.496 110.773L101.496 89.5934C101.503 78.3048 101.956 67.0697 103.347 57.3013C104.731 47.5795 107.068 39.107 110.978 33.496C113.089 30.4654 117.498 30.2048 119.74 33.3317C123.533 38.622 125.83 47.2124 127.208 57.0602C128.594 66.9736 129.079 78.4109 129.085 89.5926V110.782C129.086 110.855 129.097 110.888 129.103 110.903C129.109 110.918 129.125 110.951 129.177 111.006C130.005 111.862 130.834 112.714 131.663 113.568L131.666 113.571C132.496 114.425 133.327 115.28 134.159 116.14L134.581 116.576V129.867L134.265 130.273C133.442 131.331 132.619 132.393 131.795 133.456C131.054 134.412 130.312 135.369 129.57 136.324Z" fill="black"/>
<path d="M102.997 89.5937C103.01 67.2967 104.93 44.1522 112.061 34.206C112.826 33.1403 113.948 32.6145 115.082 32.603C110.163 37.8071 107.001 49.8989 105.501 63.8989C104.301 75.0989 104.335 101.232 104.501 112.899L99.0012 118.399V130.399L102.444 135.721C101.62 134.662 100.796 133.6 99.9726 132.537C99.1488 131.474 98.325 130.412 97.5011 129.353V117.183C98.3317 116.325 99.1624 115.47 99.993 114.615C100.824 113.76 101.654 112.905 102.485 112.047C102.828 111.691 102.994 111.28 102.997 110.789V110.773V89.5937Z" fill="#BBBDBF"/>
<path d="M127.585 89.5937C127.572 67.2967 125.652 44.1522 118.521 34.206C117.757 33.1403 116.634 32.6145 115.5 32.603C120.419 37.8071 123.581 49.8989 125.081 63.8989C126.281 75.0989 126.247 101.232 126.081 112.899L131.581 118.399V130.399L128.138 135.721C128.962 134.662 129.786 133.6 130.609 132.537C131.433 131.474 132.257 130.412 133.081 129.353V117.183C132.25 116.325 131.42 115.47 130.589 114.615C129.758 113.76 128.928 112.905 128.097 112.047C127.754 111.691 127.588 111.28 127.585 110.789V110.773V89.5937Z" fill="#231F20"/>
<rect x="108.051" y="99.2138" width="1.7" height="4.3" rx="0.65" fill="black" stroke="black" stroke-width="0.3"/>
<rect x="107.9" y="99.3638" width="1.4" height="4" rx="0.5" fill="#9E3E63"/>
<path fill-rule="evenodd" clip-rule="evenodd" d="M108.277 100.07H108.658C108.814 100.07 108.945 100.134 108.945 100.211V102.859C108.945 102.935 108.814 102.999 108.658 102.999H108.277C108.12 102.999 107.99 102.935 107.99 102.859V100.214C107.99 100.134 108.12 100.07 108.277 100.07Z" fill="#F39DB1"/>
<path d="M108.626 100.172C108.714 100.172 108.785 100.104 108.785 100.02C108.785 99.9365 108.714 99.8687 108.626 99.8687C108.538 99.8687 108.467 99.9365 108.467 100.02C108.467 100.104 108.538 100.172 108.626 100.172Z" fill="white"/>
<path d="M108.148 102.622V101.316C108.148 101.202 108.35 101.02 108.668 100.84C108.703 100.818 108.741 100.797 108.785 100.777C108.744 100.798 108.706 100.819 108.668 100.84C108.425 100.998 108.393 101.216 108.411 101.316L108.411 102.622C108.393 102.722 108.52 102.848 108.95 102.919C108.6 102.919 108.148 102.736 108.148 102.622Z" fill="white"/>
<rect x="0.15" y="-0.15" width="1.7" height="4.3" rx="0.65" transform="matrix(-1 0 0 1 122.698 99.3638)" fill="black" stroke="black" stroke-width="0.3"/>
<rect width="1.4" height="4" rx="0.5" transform="matrix(-1 0 0 1 122.699 99.3638)" fill="#9E3E63"/>
<path fill-rule="evenodd" clip-rule="evenodd" d="M122.323 100.07H121.941C121.785 100.07 121.655 100.134 121.655 100.211V102.859C121.655 102.935 121.785 102.999 121.941 102.999H122.323C122.479 102.999 122.609 102.935 122.609 102.859V100.214C122.609 100.134 122.479 100.07 122.323 100.07Z" fill="#F39DB1"/>
<path d="M121.974 100.172C121.886 100.172 121.815 100.104 121.815 100.02C121.815 99.9365 121.886 99.8687 121.974 99.8687C122.062 99.8687 122.133 99.9365 122.133 100.02C122.133 100.104 122.062 100.172 121.974 100.172Z" fill="white"/>
<path d="M122.451 102.622V101.316C122.451 101.202 122.25 101.02 121.931 100.84C121.897 100.818 121.858 100.797 121.815 100.777C121.855 100.798 121.894 100.819 121.931 100.84C122.175 100.998 122.207 101.216 122.188 101.316L122.188 102.622C122.207 102.722 122.079 102.848 121.65 102.919C122 102.919 122.451 102.736 122.451 102.622Z" fill="white"/>
<mask id="path-23-outside-3_1233_2887" maskUnits="userSpaceOnUse" x="108.584" y="41.8989" width="14" height="40" fill="black">
<rect fill="white" x="108.584" y="41.8989" width="14" height="40"/>
<path d="M115.4 42.8989C113.476 42.8989 112.076 46.457 111.148 51.8703C110.082 58.0312 109.584 74.0814 109.584 75.2402C109.584 76.3989 110.25 77.8837 111.025 78.6589C111.8 79.4342 113.85 80.1758 115.443 80.1758C117.035 80.1758 118.999 79.4342 119.774 78.6589C120.549 77.8837 121.215 76.3989 121.215 75.2402C121.215 74.0814 120.716 58.0312 119.65 51.8703C118.723 46.457 117.324 42.8989 115.4 42.8989Z"/>
</mask>
<path d="M115.4 42.8989C113.476 42.8989 112.076 46.457 111.148 51.8703C110.082 58.0312 109.584 74.0814 109.584 75.2402C109.584 76.3989 110.25 77.8837 111.025 78.6589C111.8 79.4342 113.85 80.1758 115.443 80.1758C117.035 80.1758 118.999 79.4342 119.774 78.6589C120.549 77.8837 121.215 76.3989 121.215 75.2402C121.215 74.0814 120.716 58.0312 119.65 51.8703C118.723 46.457 117.324 42.8989 115.4 42.8989Z" fill="#AA3964"/>
<path d="M115.4 42.8989C113.476 42.8989 112.076 46.457 111.148 51.8703C110.082 58.0312 109.584 74.0814 109.584 75.2402C109.584 76.3989 110.25 77.8837 111.025 78.6589C111.8 79.4342 113.85 80.1758 115.443 80.1758C117.035 80.1758 118.999 79.4342 119.774 78.6589C120.549 77.8837 121.215 76.3989 121.215 75.2402C121.215 74.0814 120.716 58.0312 119.65 51.8703C118.723 46.457 117.324 42.8989 115.4 42.8989Z" stroke="black" stroke-width="2" mask="url(#path-23-outside-3_1233_2887)"/>
<path fill-rule="evenodd" clip-rule="evenodd" d="M115.403 50.4189C114.088 50.4189 113.756 51.0281 113.133 53.2986C111.956 57.5767 111.264 65.2328 112.413 69.9954C112.953 72.2659 113.603 72.8751 115.417 72.8751C117.217 72.8751 117.867 72.2797 118.421 69.9954C119.557 65.2328 118.864 57.5767 117.701 53.2986C117.051 51.0281 116.718 50.4189 115.403 50.4189Z" fill="#DB5C87"/>
<path d="M119.881 76.0026C119.706 77.075 119.203 77.8835 118.757 77.8111C118.311 77.7386 118.091 76.811 118.269 75.7386C118.446 74.6662 118.949 73.8578 119.392 73.9325C119.836 74.0073 120.058 74.9325 119.881 76.0026Z" fill="white"/>
<path d="M112.357 74.8374C112.831 74.8374 113.215 74.419 113.215 73.9028C113.215 73.3867 112.831 72.9683 112.357 72.9683C111.884 72.9683 111.5 73.3867 111.5 73.9028C111.5 74.419 111.884 74.8374 112.357 74.8374Z" fill="white"/>
<path d="M113.808 77.0597C114.083 77.0597 114.306 76.8369 114.306 76.5621C114.306 76.2872 114.083 76.0645 113.808 76.0645C113.533 76.0645 113.311 76.2872 113.311 76.5621C113.311 76.8369 113.533 77.0597 113.808 77.0597Z" fill="white"/>
<path d="M118.929 56.3867C119.293 58.909 119.222 61.0061 118.773 61.0701C118.324 61.134 117.669 59.1423 117.308 56.6205C116.946 54.0987 117.013 52.0008 117.464 51.9372C117.915 51.8736 118.565 53.8645 118.929 56.3867Z" fill="white"/>
<path d="M119.714 64.3128C119.674 65.3985 119.278 66.2661 118.827 66.249C118.376 66.2319 118.045 65.341 118.08 64.2545C118.116 63.1679 118.516 62.3035 118.967 62.3206C119.417 62.3377 119.753 63.2294 119.714 64.3128Z" fill="white"/>
<path d="M116.176 46.2462C116.176 46.2462 117.277 48.43 116.477 51.8864C116.477 51.8864 114.987 49.6685 116.176 46.2462Z" fill="white"/>
<path d="M115.084 44.0991C113.429 44.0991 112.227 47.3994 111.429 52.4204C110.513 58.1349 110.072 66.1608 110.084 74.0968C110.084 74.6744 110.325 75.386 110.722 76.0991C110.07 72.8527 110.868 59.8147 111.804 54.7658C112.663 50.1281 114.42 45.1635 115.084 44.0991Z" fill="white"/>
<path d="M107.689 74.2839C107.689 74.2839 107.687 74.2012 107.686 74.0429C107.684 74.2559 107.683 74.6164 107.685 75.1049L106.949 75.8992C106.94 75.3004 106.934 74.6916 106.932 74.0726C106.932 74.127 106.931 74.1815 106.931 74.2361L106.931 74.819C106.931 74.6237 106.931 74.4294 106.931 74.2361L106.931 73.9179C106.931 73.7078 106.931 73.4964 106.931 73.2839L106.931 73.9179C106.931 73.9696 106.932 74.0211 106.932 74.0726C106.988 55.4801 110.593 46.0043 110.593 46.0043C107.67 57.7251 107.671 72.025 107.686 74.0429C107.687 73.8958 107.689 73.819 107.689 73.819L107.689 74.2839Z" fill="white"/>
<path d="M108.713 87.0873C107.399 80.6093 107.674 74.6728 107.674 74.6728L106.937 74.3051C106.933 74.5565 106.932 74.8109 106.932 75.0683C106.931 75.0148 106.929 74.9612 106.928 74.9076L106.934 75.4087C106.936 75.5256 106.937 75.6432 106.939 75.7613L106.934 75.4087C106.933 75.2947 106.933 75.1812 106.932 75.0683C107.142 81.7017 108.713 87.0873 108.713 87.0873Z" fill="white"/>
<path d="M122.092 87.0873C123.405 80.6093 123.131 74.6728 123.131 74.6728L123.868 74.3051C123.871 74.5565 123.873 74.8109 123.872 75.0683C123.874 75.0148 123.876 74.9612 123.877 74.9076L123.87 75.4087C123.869 75.5256 123.868 75.6432 123.865 75.7613L123.87 75.4087C123.871 75.2947 123.872 75.1812 123.872 75.0683C123.662 81.7017 122.092 87.0873 122.092 87.0873Z" fill="white"/>
<path d="M123.104 74.2839C123.104 74.2839 123.106 74.2012 123.107 74.0429C123.109 74.2559 123.11 74.6164 123.108 75.1049L123.844 75.8992C123.853 75.3004 123.859 74.6916 123.861 74.0726C123.861 74.127 123.862 74.1815 123.862 74.2361L123.862 74.819C123.862 74.6237 123.862 74.4294 123.862 74.2361L123.862 73.9179C123.862 73.7078 123.862 73.4964 123.862 73.2839L123.862 73.9179C123.862 73.9696 123.861 74.0211 123.861 74.0726C123.805 55.4801 120.2 46.0043 120.2 46.0043C123.123 57.7251 123.122 72.025 123.107 74.0429C123.106 73.8958 123.104 73.819 123.104 73.819L123.104 74.2839Z" fill="white"/>
<mask id="path-36-outside-4_1233_2887" maskUnits="userSpaceOnUse" x="108.637" y="80.8989" width="14" height="11" fill="black">
<rect fill="white" x="108.637" y="80.8989" width="14" height="11"/>
<path d="M120.512 81.9866C119.127 82.8035 116.981 83.3758 115.389 83.3758C113.797 83.3758 111.637 82.7758 110.225 81.959C109.865 81.7651 109.588 82.0697 109.644 82.4574C109.644 83.5649 110.53 87.2294 111.748 88.4477C112.842 89.5553 114.213 89.986 115.459 89.986C116.691 89.986 118.075 89.5415 119.169 88.4477C120.387 87.2294 121.273 83.5649 121.273 82.4574C121.329 82.042 120.872 81.779 120.512 81.9866Z"/>
</mask>
<path d="M120.512 81.9866C119.127 82.8035 116.981 83.3758 115.389 83.3758C113.797 83.3758 111.637 82.7758 110.225 81.959C109.865 81.7651 109.588 82.0697 109.644 82.4574C109.644 83.5649 110.53 87.2294 111.748 88.4477C112.842 89.5553 114.213 89.986 115.459 89.986C116.691 89.986 118.075 89.5415 119.169 88.4477C120.387 87.2294 121.273 83.5649 121.273 82.4574C121.329 82.042 120.872 81.779 120.512 81.9866Z" stroke="black" stroke-width="2" mask="url(#path-36-outside-4_1233_2887)"/>
<path d="M120.512 81.9866C119.127 82.8035 116.981 83.3758 115.389 83.3758C113.797 83.3758 111.637 82.7758 110.225 81.959C109.865 81.7651 109.588 82.0697 109.644 82.4574C109.644 83.5649 110.53 87.2294 111.748 88.4477C112.842 89.5553 114.213 89.986 115.459 89.986C116.691 89.986 118.075 89.5415 119.169 88.4477C120.387 87.2294 121.273 83.5649 121.273 82.4574C121.329 82.042 120.872 81.779 120.512 81.9866Z" fill="#AA3964"/>
<path d="M119.842 83.9423C118.653 84.3463 116.809 84.6294 115.442 84.6294C114.074 84.6294 112.218 84.3326 111.005 83.9286C110.696 83.8327 110.459 83.9834 110.506 84.1751C110.506 84.723 111.267 86.5355 112.314 87.1381C113.253 87.6859 114.431 87.8989 115.501 87.8989C116.56 87.8989 117.749 87.6791 118.689 87.1381C119.735 86.5355 120.496 84.723 120.496 84.1751C120.544 83.9697 120.151 83.8396 119.842 83.9423Z" fill="#DB5C87"/>
<path d="M117.989 87.487C117.395 88.3971 116.609 88.9334 116.23 88.6867C115.851 88.4401 116.025 87.5029 116.621 86.5938C117.217 85.6847 118.003 85.1484 118.379 85.3963C118.755 85.6441 118.584 86.5801 117.989 87.487Z" fill="white"/>
<path d="M113.998 86.2233C114.273 86.2233 114.495 86.0005 114.495 85.7257C114.495 85.4508 114.273 85.228 113.998 85.228C113.723 85.228 113.5 85.4508 113.5 85.7257C113.5 86.0005 113.723 86.2233 113.998 86.2233Z" fill="white"/>
<path d="M110.225 81.959C109.865 81.7651 109.588 82.0697 109.644 82.4574C109.644 83.5649 110.53 87.2294 111.748 88.4477C109 82.228 111.5 82.728 113.5 83.128C111.914 82.8108 111.214 82.4917 110.225 81.959Z" fill="white"/>
<path d="M112.801 36.9923C112.801 36.9923 113.916 34.5777 115.319 33.2993C115.319 33.2993 116.578 34.5777 117.801 36.8858L115.283 34.4356L112.801 36.9923Z" fill="white"/>
<path d="M97 128.899C97.0143 131.142 106.639 133.234 116 133.174C124.868 133.117 133.5 131.026 133.5 128.899" stroke="black"/>
<path d="M97 116.399C97.0143 118.642 106.639 120.734 116 120.674C124.868 120.617 133.5 118.526 133.5 116.399" stroke="black"/>
<path d="M102.5 110.798C102.528 115.166 128 115.171 128 110.798" stroke="black"/>
<mask id="path-46-inside-5_1233_2887" fill="white">
<path fill-rule="evenodd" clip-rule="evenodd" d="M115.319 122.899H110.197C109.186 122.899 108.369 123.716 108.369 124.726V128.88C108.369 129.891 109.186 130.707 110.197 130.707H115.319H120.442C121.452 130.707 122.269 129.891 122.269 128.88V124.726C122.269 123.716 121.452 122.899 120.442 122.899H115.319Z"/>
</mask>
<path fill-rule="evenodd" clip-rule="evenodd" d="M115.319 122.899H110.197C109.186 122.899 108.369 123.716 108.369 124.726V128.88C108.369 129.891 109.186 130.707 110.197 130.707H115.319H120.442C121.452 130.707 122.269 129.891 122.269 128.88V124.726C122.269 123.716 121.452 122.899 120.442 122.899H115.319Z" fill="#6D6E70" stroke="black" stroke-width="2" mask="url(#path-46-inside-5_1233_2887)"/>
<rect x="102.35" y="123.55" width="1.7" height="4.3" rx="0.65" fill="black" stroke="black" stroke-width="0.3"/>
<rect x="102.301" y="123.7" width="1.4" height="4" rx="0.5" fill="#9E3E63"/>
<path fill-rule="evenodd" clip-rule="evenodd" d="M102.677 124.406H103.059C103.215 124.406 103.345 124.47 103.345 124.547V127.195C103.345 127.271 103.215 127.335 103.059 127.335H102.677C102.521 127.335 102.391 127.271 102.391 127.195V124.55C102.391 124.47 102.521 124.406 102.677 124.406Z" fill="#F39DB1"/>
<path d="M103.026 124.508C103.114 124.508 103.185 124.44 103.185 124.356C103.185 124.272 103.114 124.205 103.026 124.205C102.938 124.205 102.867 124.272 102.867 124.356C102.867 124.44 102.938 124.508 103.026 124.508Z" fill="white"/>
<path d="M102.549 126.958V125.652C102.549 125.538 102.75 125.356 103.069 125.176C103.103 125.154 103.142 125.133 103.185 125.113C103.145 125.134 103.106 125.155 103.069 125.176C102.825 125.334 102.793 125.552 102.812 125.652L102.812 126.958C102.793 127.058 102.921 127.184 103.35 127.255C103 127.255 102.549 127.072 102.549 126.958Z" fill="white"/>
<rect x="126.35" y="123.55" width="1.7" height="4.3" rx="0.65" fill="black" stroke="black" stroke-width="0.3"/>
<rect x="126.699" y="123.7" width="1.4" height="4" rx="0.5" fill="#9E3E63"/>
<path fill-rule="evenodd" clip-rule="evenodd" d="M127.075 124.406H127.457C127.613 124.406 127.743 124.47 127.743 124.547V127.195C127.743 127.271 127.613 127.335 127.457 127.335H127.075C126.919 127.335 126.789 127.271 126.789 127.195V124.55C126.789 124.47 126.919 124.406 127.075 124.406Z" fill="#F39DB1"/>
<path d="M127.425 124.508C127.513 124.508 127.584 124.44 127.584 124.356C127.584 124.272 127.513 124.205 127.425 124.205C127.337 124.205 127.266 124.272 127.266 124.356C127.266 124.44 127.337 124.508 127.425 124.508Z" fill="white"/>
<path d="M126.947 126.958V125.652C126.947 125.538 127.149 125.356 127.467 125.176C127.502 125.154 127.54 125.133 127.584 125.113C127.543 125.134 127.504 125.155 127.467 125.176C127.224 125.334 127.192 125.552 127.21 125.652L127.21 126.958C127.192 127.058 127.319 127.184 127.749 127.255C127.399 127.255 126.947 127.072 126.947 126.958Z" fill="white"/>

    </svg>
