
    <svg width="230" height="230" viewBox="0 0 230 230" fill="none" xmlns="http://www.w3.org/2000/svg">
        
<path fill-rule="evenodd" clip-rule="evenodd" d="M62.8849 72.5518H66.6147C67.3025 72.5518 67.8668 73.1073 67.858 73.795L67.4876 109.885H62.8761C62.1883 109.885 61.6328 109.33 61.6328 108.642V73.795C61.6416 73.1073 62.206 72.5518 62.8849 72.5518Z" fill="#6D6E70"/>
<path d="M61.7577 78.1738L67.6406 78.1738L67.6406 75.8676L61.7577 75.8676L61.7577 78.1738Z" fill="#404041"/>
<path d="M61.7369 78.1738L67.6621 78.1738L67.6621 75.8676L61.7369 75.8676L61.7369 78.1738Z" stroke="black" stroke-width="0.429643"/>
<path d="M66.9117 78.0801L67.2266 78.0801L67.2266 76.2219L66.9117 76.2219L66.9117 78.0801Z" fill="black"/>
<path d="M66.2319 78.0801L66.5469 78.0801L66.5469 76.2219L66.2319 76.2219L66.2319 78.0801Z" fill="black"/>
<path d="M62.8491 78.0801L63.1641 78.0801L63.1641 76.2219L62.8491 76.2219L62.8491 78.0801Z" fill="black"/>
<path d="M62.1714 78.0801L62.4863 78.0801L62.4863 76.2219L62.1714 76.2219L62.1714 78.0801Z" fill="black"/>
<path d="M61.71 76.0581L62.8052 76.0581L67.6882 76.0581L68.1113 75.57L67.4371 71.9998L62.8052 71.9998L61.961 71.9998L61.2874 75.57L61.71 76.0581Z" fill="#6D6E70"/>
<path d="M61.7096 76.0581L62.7718 76.0581L62.3492 75.57L63.0234 71.9998L61.9607 71.9998L61.287 75.57L61.7096 76.0581Z" fill="white"/>
<path d="M66.2721 76.0581L67.6882 76.0581L68.1113 75.57L67.4371 71.9998L66.021 71.9998L66.6952 75.57L66.2721 76.0581Z" fill="#404041"/>
<path d="M61.71 76.0581L62.8052 76.0581L67.6882 76.0581L68.1113 75.57L67.4371 71.9998L62.8052 71.9998L61.961 71.9998L61.2874 75.57L61.71 76.0581Z" stroke="black" stroke-width="0.811667"/>
<path d="M61.432 74.8716L67.9648 74.8716L67.9648 74.1541L61.432 74.1541L61.432 74.8716Z" fill="black"/>
<path d="M61.2707 79.4902L68.125 79.4902L68.125 79.0032L61.2707 79.0032L61.2707 79.4902Z" fill="white"/>
<path d="M61.1991 113.662L68.1973 113.662L68.1973 77.6598L61.1991 77.6598L61.1991 113.662Z" fill="#6D6E70"/>
<path d="M61.1988 113.662L63.5078 113.662L63.5078 77.6598L61.1988 77.6598L61.1988 113.662Z" fill="white"/>
<path d="M68.1973 113.662L68.1973 77.6593L65.5999 77.6593L65.5999 113.662L68.1973 113.662Z" fill="#404041"/>
<path d="M61.1991 113.662L68.1973 113.662L68.1973 77.6598L61.1991 77.6598L61.1991 113.662Z" stroke="black" stroke-width="0.811667"/>
<path d="M61.2707 79.1655L68.125 79.1655L68.125 78.6785L61.2707 78.6785L61.2707 79.1655Z" fill="black"/>
<mask id="path-19-outside-1_1233_2887" maskUnits="userSpaceOnUse" x="58.3125" y="97.6016" width="49" height="56" fill="black">
<rect fill="white" x="58.3125" y="97.6016" width="49" height="56"/>
<path fill-rule="evenodd" clip-rule="evenodd" d="M70.433 119.86L75.0005 130L104.851 138.137V142.108C104.851 143.396 104.242 144.517 103.148 145.209L94.1628 150.886C93.5537 151.273 92.9445 151.453 92.2384 151.453C82.6994 151.453 73.1604 151.453 63.6352 151.453C61.8077 151.453 60.3125 149.958 60.3125 148.13V100.602L69.4777 105.655C69.4777 109.573 69.4777 113.477 69.4777 117.395C69.4777 118.35 69.7961 119.167 70.433 119.86Z"/>
</mask>
<path fill-rule="evenodd" clip-rule="evenodd" d="M70.433 119.86L75.0005 130L104.851 138.137V142.108C104.851 143.396 104.242 144.517 103.148 145.209L94.1628 150.886C93.5537 151.273 92.9445 151.453 92.2384 151.453C82.6994 151.453 73.1604 151.453 63.6352 151.453C61.8077 151.453 60.3125 149.958 60.3125 148.13V100.602L69.4777 105.655C69.4777 109.573 69.4777 113.477 69.4777 117.395C69.4777 118.35 69.7961 119.167 70.433 119.86Z" fill="#6D6E70"/>
<path fill-rule="evenodd" clip-rule="evenodd" d="M70.433 119.86L75.0005 130L104.851 138.137V142.108C104.851 143.396 104.242 144.517 103.148 145.209L94.1628 150.886C93.5537 151.273 92.9445 151.453 92.2384 151.453C82.6994 151.453 73.1604 151.453 63.6352 151.453C61.8077 151.453 60.3125 149.958 60.3125 148.13V100.602L69.4777 105.655C69.4777 109.573 69.4777 113.477 69.4777 117.395C69.4777 118.35 69.7961 119.167 70.433 119.86Z" stroke="black" stroke-width="3" mask="url(#path-19-outside-1_1233_2887)"/>
<path d="M69.3564 118L69.3008 142.035L71.3008 119.793L69.3564 118Z" fill="black"/>
<path d="M105 144L70 138L64.5 103.5L60 101V153.5L97.5 156L105 144Z" fill="#404041"/>
<path d="M61.4645 141.629L71.2876 151.452L61.7876 140.164V101.586L60 100.6V138.093C60 139.419 60.5268 140.691 61.4645 141.629Z" fill="white"/>
<path fill-rule="evenodd" clip-rule="evenodd" d="M47.2853 86.5518H51.0151C51.7029 86.5518 52.2672 87.1073 52.2584 87.795L51.888 123.885H47.2765C46.5887 123.885 46.0332 123.33 46.0332 122.642V87.795C46.042 87.1073 46.6063 86.5518 47.2853 86.5518Z" fill="#6D6E70"/>
<path d="M46.1581 92.1738L52.041 92.1738L52.041 89.8676L46.1581 89.8676L46.1581 92.1738Z" fill="#404041"/>
<path d="M46.1373 92.1738L52.0625 92.1738L52.0625 89.8676L46.1373 89.8676L46.1373 92.1738Z" stroke="black" stroke-width="0.429643"/>
<path d="M51.3121 92.0801L51.627 92.0801L51.627 90.2219L51.3121 90.2219L51.3121 92.0801Z" fill="black"/>
<path d="M50.6323 92.0801L50.9473 92.0801L50.9473 90.2219L50.6323 90.2219L50.6323 92.0801Z" fill="black"/>
<path d="M47.2495 92.0801L47.5645 92.0801L47.5645 90.2219L47.2495 90.2219L47.2495 92.0801Z" fill="black"/>
<path d="M46.5718 92.0801L46.8867 92.0801L46.8867 90.2219L46.5718 90.2219L46.5718 92.0801Z" fill="black"/>
<path d="M46.1104 90.0581L47.2056 90.0581L52.0886 90.0581L52.5117 89.57L51.8375 85.9998L47.2056 85.9998L46.3614 85.9998L45.6877 89.57L46.1104 90.0581Z" fill="#6D6E70"/>
<path d="M46.11 90.0581L47.1722 90.0581L46.7496 89.57L47.4238 85.9998L46.3611 85.9998L45.6874 89.57L46.11 90.0581Z" fill="white"/>
<path d="M50.6725 90.0581L52.0886 90.0581L52.5117 89.57L51.8375 85.9998L50.4214 85.9998L51.0956 89.57L50.6725 90.0581Z" fill="#404041"/>
<path d="M46.1104 90.0581L47.2056 90.0581L52.0886 90.0581L52.5117 89.57L51.8375 85.9998L47.2056 85.9998L46.3614 85.9998L45.6877 89.57L46.1104 90.0581Z" stroke="black" stroke-width="0.811667"/>
<path d="M45.8324 88.8716L52.3652 88.8716L52.3652 88.1541L45.8324 88.1541L45.8324 88.8716Z" fill="black"/>
<path d="M45.6711 93.4902L52.5254 93.4902L52.5254 93.0032L45.6711 93.0032L45.6711 93.4902Z" fill="white"/>
<path d="M45.5995 127.662L52.5977 127.662L52.5977 91.6598L45.5995 91.6598L45.5995 127.662Z" fill="#6D6E70"/>
<path d="M45.5992 127.662L47.9082 127.662L47.9082 91.6598L45.5992 91.6598L45.5992 127.662Z" fill="white"/>
<path d="M52.5977 127.662L52.5977 91.6593L50.0003 91.6593L50.0003 127.662L52.5977 127.662Z" fill="#404041"/>
<path d="M45.5995 127.662L52.5977 127.662L52.5977 91.6598L45.5995 91.6598L45.5995 127.662Z" stroke="black" stroke-width="0.811667"/>
<path d="M45.6711 93.1655L52.5254 93.1655L52.5254 92.6785L45.6711 92.6785L45.6711 93.1655Z" fill="black"/>
<mask id="path-41-outside-2_1233_2887" maskUnits="userSpaceOnUse" x="42.7129" y="111.602" width="78" height="56" fill="black">
<rect fill="white" x="42.7129" y="111.602" width="78" height="56"/>
<path d="M66.1722 146.278L54.8334 133.86C54.1965 133.167 53.8781 132.35 53.8781 131.395V119.655L44.7129 114.602V152.095C44.7129 153.421 45.2397 154.692 46.1774 155.63L54.2834 163.736C55.3676 164.82 56.8678 165.35 58.3906 165.171C67.3815 164.114 98.9969 160.453 105.639 160.453C106.345 160.453 106.954 160.273 107.563 159.886L116.548 154.209C117.642 153.517 118.251 152.396 118.251 151.108V142.137L66.1722 146.278Z"/>
</mask>
<path d="M66.1722 146.278L54.8334 133.86C54.1965 133.167 53.8781 132.35 53.8781 131.395V119.655L44.7129 114.602V152.095C44.7129 153.421 45.2397 154.692 46.1774 155.63L54.2834 163.736C55.3676 164.82 56.8678 165.35 58.3906 165.171C67.3815 164.114 98.9969 160.453 105.639 160.453C106.345 160.453 106.954 160.273 107.563 159.886L116.548 154.209C117.642 153.517 118.251 152.396 118.251 151.108V142.137L66.1722 146.278Z" fill="#6D6E70"/>
<path d="M66.1722 146.278L54.8334 133.86C54.1965 133.167 53.8781 132.35 53.8781 131.395V119.655L44.7129 114.602V152.095C44.7129 153.421 45.2397 154.692 46.1774 155.63L54.2834 163.736C55.3676 164.82 56.8678 165.35 58.3906 165.171C67.3815 164.114 98.9969 160.453 105.639 160.453C106.345 160.453 106.954 160.273 107.563 159.886L116.548 154.209C117.642 153.517 118.251 152.396 118.251 151.108V142.137L66.1722 146.278Z" stroke="black" stroke-width="3" mask="url(#path-41-outside-2_1233_2887)"/>
<path d="M118.25 142.136L66.1709 146.278L95.4991 161.152C100.105 160.729 103.813 160.453 105.637 160.453C106.344 160.453 106.953 160.273 107.562 159.885L116.547 154.209C117.641 153.517 118.25 152.395 118.25 151.108V142.136Z" fill="#404041"/>
<path d="M46.1774 155.63L56.0005 165.453L46.5005 154.166V115.587L44.7129 114.602V152.095C44.7129 153.421 45.2397 154.692 46.1774 155.63Z" fill="white"/>
<path d="M53.8564 131L53.8008 155.035L55.8008 132.793L53.8564 131Z" fill="black"/>
<path d="M44.0996 141.84C44.0996 141.84 47.3516 139.368 47.3516 137.254V127.271C47.3516 124.8 44.1321 123.206 44.1321 123.206L44.0996 141.84Z" fill="#404041"/>
<path d="M43.4285 123C43.4285 123 41 124.604 41 126.858V137.699C41 139.52 43.7746 141.644 43.7746 141.644L45.7699 136.441V127.252L43.4285 123Z" fill="#F39DB1"/>
<path d="M44.4692 124.889V133.84L42.4738 139.043C41.9448 138.622 41.4518 138.159 41 137.656V137.699C41 139.52 43.7746 141.644 43.7746 141.644L45.7699 136.441V127.253L44.4692 124.889Z" fill="#9E3E63"/>
<path d="M43.4285 123C43.4285 123 41 124.604 41 126.858V137.699C41 139.52 43.7746 141.644 43.7746 141.644C43.7746 141.644 45.7699 137.644 45.7699 136.441V127.252C45.7699 125.71 43.4285 123 43.4285 123Z" stroke="black"/>
<path d="M42.2583 132.929C42.2583 132.929 41.1526 125.602 43.2339 124.777C43.2339 124.781 42.3012 131.086 42.2583 132.929Z" fill="white"/>
<path d="M59.6328 125C59.6328 125 62.3946 122.901 62.3946 121.106V112.627C62.3946 110.528 59.6604 109.175 59.6604 109.175L59.6328 125Z" fill="#404041"/>
<path d="M59.0625 109C59.0625 109 57 110.362 57 112.277V121.483C57 123.03 59.3564 124.834 59.3564 124.834L61.051 120.415V112.611L59.0625 109Z" fill="#F39DB1"/>
<path d="M59.9463 110.604V118.206L58.2517 122.625C57.8024 122.268 57.3837 121.874 57 121.447V121.484C57 123.03 59.3564 124.834 59.3564 124.834L61.051 120.415V112.612L59.9463 110.604Z" fill="#9E3E63"/>
<path d="M59.0625 109C59.0625 109 57 110.362 57 112.277V121.483C57 123.03 59.3564 124.834 59.3564 124.834C59.3564 124.834 61.051 121.437 61.051 120.415V112.611C61.051 111.301 59.0625 109 59.0625 109Z" stroke="black"/>
<path d="M58.0676 117.433C58.0676 117.433 57.1285 111.21 58.8961 110.509C58.8961 110.513 58.104 115.867 58.0676 117.433Z" fill="white"/>
<path fill-rule="evenodd" clip-rule="evenodd" d="M167.67 72.5518H163.94C163.252 72.5518 162.688 73.1073 162.697 73.795L163.067 109.885H167.679C168.366 109.885 168.922 109.33 168.922 108.642V73.795C168.913 73.1073 168.349 72.5518 167.67 72.5518Z" fill="#6D6E70"/>
<path d="M168.797 78.1738L162.914 78.1738L162.914 75.8676L168.797 75.8676L168.797 78.1738Z" fill="#404041"/>
<path d="M168.818 78.1738L162.893 78.1738L162.893 75.8676L168.818 75.8676L168.818 78.1738Z" stroke="black" stroke-width="0.429643"/>
<path d="M163.643 78.0801L163.328 78.0801L163.328 76.2219L163.643 76.2219L163.643 78.0801Z" fill="black"/>
<path d="M164.323 78.0801L164.008 78.0801L164.008 76.2219L164.323 76.2219L164.323 78.0801Z" fill="black"/>
<path d="M167.706 78.0801L167.391 78.0801L167.391 76.2219L167.706 76.2219L167.706 78.0801Z" fill="black"/>
<path d="M168.383 78.0801L168.068 78.0801L168.068 76.2219L168.383 76.2219L168.383 78.0801Z" fill="black"/>
<path d="M168.845 76.0581L167.749 76.0581L162.867 76.0581L162.443 75.57L163.118 71.9998L167.749 71.9998L168.594 71.9998L169.267 75.57L168.845 76.0581Z" fill="#6D6E70"/>
<path d="M168.845 76.0581L167.783 76.0581L168.206 75.57L167.531 71.9998L168.594 71.9998L169.268 75.57L168.845 76.0581Z" fill="white"/>
<path d="M164.283 76.0581L162.867 76.0581L162.443 75.57L163.118 71.9998L164.534 71.9998L163.859 75.57L164.283 76.0581Z" fill="#404041"/>
<path d="M168.845 76.0581L167.749 76.0581L162.867 76.0581L162.443 75.57L163.118 71.9998L167.749 71.9998L168.594 71.9998L169.267 75.57L168.845 76.0581Z" stroke="black" stroke-width="0.811667"/>
<path d="M169.123 74.8716L162.59 74.8716L162.59 74.1541L169.123 74.1541L169.123 74.8716Z" fill="black"/>
<path d="M169.284 79.4902L162.43 79.4902L162.43 79.0032L169.284 79.0032L169.284 79.4902Z" fill="white"/>
<path d="M169.356 113.662L162.357 113.662L162.357 77.6598L169.356 77.6598L169.356 113.662Z" fill="#6D6E70"/>
<path d="M169.356 113.662L167.047 113.662L167.047 77.6598L169.356 77.6598L169.356 113.662Z" fill="white"/>
<path d="M162.357 113.662L162.357 77.6593L164.955 77.6593L164.955 113.662L162.357 113.662Z" fill="#404041"/>
<path d="M169.356 113.662L162.357 113.662L162.357 77.6598L169.356 77.6598L169.356 113.662Z" stroke="black" stroke-width="0.811667"/>
<path d="M169.284 79.1655L162.43 79.1655L162.43 78.6785L169.284 78.6785L169.284 79.1655Z" fill="black"/>
<mask id="path-73-outside-3_1233_2887" maskUnits="userSpaceOnUse" x="123.242" y="97.6016" width="49" height="56" fill="black">
<rect fill="white" x="123.242" y="97.6016" width="49" height="56"/>
<path fill-rule="evenodd" clip-rule="evenodd" d="M160.122 119.86L155.554 130L125.704 138.137V142.108C125.704 143.396 126.313 144.517 127.407 145.209L136.392 150.886C137.001 151.273 137.61 151.453 138.316 151.453C147.855 151.453 157.394 151.453 166.919 151.453C168.747 151.453 170.242 149.958 170.242 148.13V100.602L161.077 105.655C161.077 109.573 161.077 113.477 161.077 117.395C161.077 118.35 160.759 119.167 160.122 119.86Z"/>
</mask>
<path fill-rule="evenodd" clip-rule="evenodd" d="M160.122 119.86L155.554 130L125.704 138.137V142.108C125.704 143.396 126.313 144.517 127.407 145.209L136.392 150.886C137.001 151.273 137.61 151.453 138.316 151.453C147.855 151.453 157.394 151.453 166.919 151.453C168.747 151.453 170.242 149.958 170.242 148.13V100.602L161.077 105.655C161.077 109.573 161.077 113.477 161.077 117.395C161.077 118.35 160.759 119.167 160.122 119.86Z" fill="#6D6E70"/>
<path fill-rule="evenodd" clip-rule="evenodd" d="M160.122 119.86L155.554 130L125.704 138.137V142.108C125.704 143.396 126.313 144.517 127.407 145.209L136.392 150.886C137.001 151.273 137.61 151.453 138.316 151.453C147.855 151.453 157.394 151.453 166.919 151.453C168.747 151.453 170.242 149.958 170.242 148.13V100.602L161.077 105.655C161.077 109.573 161.077 113.477 161.077 117.395C161.077 118.35 160.759 119.167 160.122 119.86Z" stroke="black" stroke-width="3" mask="url(#path-73-outside-3_1233_2887)"/>
<path d="M161.198 118L161.254 142.035L159.254 119.793L161.198 118Z" fill="black"/>
<path d="M125.555 144L160.555 138L166.055 103.5L170.555 101V153.5L133.055 156L125.555 144Z" fill="#404041"/>
<path d="M169.09 141.629L159.267 151.452L168.767 140.164V101.586L170.555 100.6V138.093C170.555 139.419 170.028 140.691 169.09 141.629Z" fill="white"/>
<path fill-rule="evenodd" clip-rule="evenodd" d="M183.269 86.5518H179.54C178.852 86.5518 178.288 87.1073 178.296 87.795L178.667 123.885H183.278C183.966 123.885 184.521 123.33 184.521 122.642V87.795C184.513 87.1073 183.948 86.5518 183.269 86.5518Z" fill="#6D6E70"/>
<path d="M184.397 92.1738L178.514 92.1738L178.514 89.8676L184.397 89.8676L184.397 92.1738Z" fill="#404041"/>
<path d="M184.417 92.1738L178.492 92.1738L178.492 89.8676L184.417 89.8676L184.417 92.1738Z" stroke="black" stroke-width="0.429643"/>
<path d="M179.243 92.0801L178.928 92.0801L178.928 90.2219L179.243 90.2219L179.243 92.0801Z" fill="black"/>
<path d="M179.922 92.0801L179.607 92.0801L179.607 90.2219L179.922 90.2219L179.922 92.0801Z" fill="black"/>
<path d="M183.305 92.0801L182.99 92.0801L182.99 90.2219L183.305 90.2219L183.305 92.0801Z" fill="black"/>
<path d="M183.983 92.0801L183.668 92.0801L183.668 90.2219L183.983 90.2219L183.983 92.0801Z" fill="black"/>
<path d="M184.444 90.0581L183.349 90.0581L178.466 90.0581L178.043 89.57L178.717 85.9998L183.349 85.9998L184.193 85.9998L184.867 89.57L184.444 90.0581Z" fill="#6D6E70"/>
<path d="M184.445 90.0581L183.382 90.0581L183.805 89.57L183.131 85.9998L184.194 85.9998L184.867 89.57L184.445 90.0581Z" fill="white"/>
<path d="M179.882 90.0581L178.466 90.0581L178.043 89.57L178.717 85.9998L180.133 85.9998L179.459 89.57L179.882 90.0581Z" fill="#404041"/>
<path d="M184.444 90.0581L183.349 90.0581L178.466 90.0581L178.043 89.57L178.717 85.9998L183.349 85.9998L184.193 85.9998L184.867 89.57L184.444 90.0581Z" stroke="black" stroke-width="0.811667"/>
<path d="M184.722 88.8716L178.189 88.8716L178.189 88.1541L184.722 88.1541L184.722 88.8716Z" fill="black"/>
<path d="M184.884 93.4902L178.029 93.4902L178.029 93.0032L184.884 93.0032L184.884 93.4902Z" fill="white"/>
<path d="M184.955 127.662L177.957 127.662L177.957 91.6598L184.955 91.6598L184.955 127.662Z" fill="#6D6E70"/>
<path d="M184.955 127.662L182.646 127.662L182.646 91.6598L184.955 91.6598L184.955 127.662Z" fill="white"/>
<path d="M177.957 127.662L177.957 91.6593L180.554 91.6593L180.554 127.662L177.957 127.662Z" fill="#404041"/>
<path d="M184.955 127.662L177.957 127.662L177.957 91.6598L184.955 91.6598L184.955 127.662Z" stroke="black" stroke-width="0.811667"/>
<path d="M184.884 93.1655L178.029 93.1655L178.029 92.6785L184.884 92.6785L184.884 93.1655Z" fill="black"/>
<mask id="path-95-outside-4_1233_2887" maskUnits="userSpaceOnUse" x="109.842" y="111.602" width="78" height="56" fill="black">
<rect fill="white" x="109.842" y="111.602" width="78" height="56"/>
<path d="M164.382 146.278L175.721 133.86C176.358 133.167 176.677 132.35 176.677 131.395V119.655L185.842 114.602V152.095C185.842 153.421 185.315 154.692 184.377 155.63L176.271 163.736C175.187 164.82 173.687 165.35 172.164 165.171C163.173 164.114 131.558 160.453 124.916 160.453C124.21 160.453 123.601 160.273 122.991 159.886L114.006 154.209C112.913 153.517 112.303 152.396 112.303 151.108V142.137L164.382 146.278Z"/>
</mask>
<path d="M164.382 146.278L175.721 133.86C176.358 133.167 176.677 132.35 176.677 131.395V119.655L185.842 114.602V152.095C185.842 153.421 185.315 154.692 184.377 155.63L176.271 163.736C175.187 164.82 173.687 165.35 172.164 165.171C163.173 164.114 131.558 160.453 124.916 160.453C124.21 160.453 123.601 160.273 122.991 159.886L114.006 154.209C112.913 153.517 112.303 152.396 112.303 151.108V142.137L164.382 146.278Z" fill="#6D6E70"/>
<path d="M164.382 146.278L175.721 133.86C176.358 133.167 176.677 132.35 176.677 131.395V119.655L185.842 114.602V152.095C185.842 153.421 185.315 154.692 184.377 155.63L176.271 163.736C175.187 164.82 173.687 165.35 172.164 165.171C163.173 164.114 131.558 160.453 124.916 160.453C124.21 160.453 123.601 160.273 122.991 159.886L114.006 154.209C112.913 153.517 112.303 152.396 112.303 151.108V142.137L164.382 146.278Z" stroke="black" stroke-width="3" mask="url(#path-95-outside-4_1233_2887)"/>
<path d="M112.305 142.136L164.384 146.278L135.056 161.152C130.45 160.729 126.741 160.453 124.917 160.453C124.211 160.453 123.602 160.273 122.993 159.885L114.008 154.209C112.914 153.517 112.305 152.395 112.305 151.108V142.136Z" fill="#404041"/>
<path d="M184.377 155.63L174.554 165.453L184.054 154.166V115.587L185.842 114.602V152.095C185.842 153.421 185.315 154.692 184.377 155.63Z" fill="white"/>
<path d="M176.698 131L176.754 155.035L174.754 132.793L176.698 131Z" fill="black"/>
<path d="M186.455 141.84C186.455 141.84 183.203 139.368 183.203 137.254V127.271C183.203 124.8 186.423 123.206 186.423 123.206L186.455 141.84Z" fill="#404041"/>
<path d="M187.126 123C187.126 123 189.555 124.604 189.555 126.858V137.699C189.555 139.52 186.78 141.644 186.78 141.644L184.785 136.441V127.252L187.126 123Z" fill="#F39DB1"/>
<path d="M186.086 124.889V133.84L188.081 139.043C188.61 138.622 189.103 138.159 189.555 137.656V137.699C189.555 139.52 186.78 141.644 186.78 141.644L184.785 136.441V127.253L186.086 124.889Z" fill="#9E3E63"/>
<path d="M187.126 123C187.126 123 189.555 124.604 189.555 126.858V137.699C189.555 139.52 186.78 141.644 186.78 141.644C186.78 141.644 184.785 137.644 184.785 136.441V127.252C184.785 125.71 187.126 123 187.126 123Z" stroke="black"/>
<path d="M188.296 132.929C188.296 132.929 189.402 125.602 187.321 124.777C187.321 124.781 188.253 131.086 188.296 132.929Z" fill="white"/>
<path d="M170.922 125C170.922 125 168.16 122.901 168.16 121.106V112.627C168.16 110.528 170.894 109.175 170.894 109.175L170.922 125Z" fill="#404041"/>
<path d="M171.492 109C171.492 109 173.555 110.362 173.555 112.277V121.483C173.555 123.03 171.198 124.834 171.198 124.834L169.504 120.415V112.611L171.492 109Z" fill="#F39DB1"/>
<path d="M170.608 110.604V118.206L172.303 122.625C172.752 122.268 173.171 121.874 173.555 121.447V121.484C173.555 123.03 171.198 124.834 171.198 124.834L169.504 120.415V112.612L170.608 110.604Z" fill="#9E3E63"/>
<path d="M171.492 109C171.492 109 173.555 110.362 173.555 112.277V121.483C173.555 123.03 171.198 124.834 171.198 124.834C171.198 124.834 169.504 121.437 169.504 120.415V112.611C169.504 111.301 171.492 109 171.492 109Z" stroke="black"/>
<path d="M172.487 117.433C172.487 117.433 173.426 111.21 171.659 110.509C171.659 110.513 172.451 115.867 172.487 117.433Z" fill="white"/>

        
<mask id="path-1-outside-1_1233_2887" maskUnits="userSpaceOnUse" x="35" y="122" width="70" height="67" fill="black">
<rect fill="white" x="35" y="122" width="70" height="67"/>
<path d="M77.3712 187.177H37L103.178 126V143.096V168.778C103.178 170.01 102.624 171.076 101.613 171.782L81.58 185.848C80.2924 186.748 78.9495 187.177 77.3712 187.177Z"/>
</mask>
<path d="M77.3712 187.177H37L103.178 126V143.096V168.778C103.178 170.01 102.624 171.076 101.613 171.782L81.58 185.848C80.2924 186.748 78.9495 187.177 77.3712 187.177Z" fill="#6D6E70"/>
<path d="M37 187.177L35.9818 186.076C35.5284 186.495 35.3781 187.149 35.6032 187.724C35.8282 188.299 36.3826 188.677 37 188.677V187.177ZM81.58 185.848L82.4393 187.078L82.4419 187.076L81.58 185.848ZM101.613 171.782L100.754 170.552L100.751 170.554L101.613 171.782ZM103.178 126H104.678V122.571L102.16 124.899L103.178 126ZM37 188.677H77.3712V185.677H37V188.677ZM77.3712 188.677C79.2605 188.677 80.9027 188.152 82.4393 187.078L80.7207 184.619C79.6821 185.345 78.6385 185.677 77.3712 185.677V188.677ZM82.4419 187.076L102.475 173.01L100.751 170.554L80.718 184.621L82.4419 187.076ZM102.472 173.012C103.886 172.024 104.678 170.498 104.678 168.778H101.678C101.678 169.521 101.362 170.128 100.754 170.552L102.472 173.012ZM104.678 168.778V143.096H101.678V168.778H104.678ZM38.0182 188.279L104.196 127.101L102.16 124.899L35.9818 186.076L38.0182 188.279ZM101.678 126V143.096H104.678V126H101.678Z" fill="black" mask="url(#path-1-outside-1_1233_2887)"/>
<path d="M59.5891 183.229H66.2807C67.0097 183.229 68.3952 185.892 68.8649 187.142H71.0845C70.5064 184.007 68.4045 180.5 66.2807 180.5H59.5891C57.4652 180.5 55.1155 184.007 54.7852 187.142H57.0048C57.4744 185.892 58.8578 183.229 59.5891 183.229Z" fill="#404041"/>
<path d="M65.9284 182.719H59.94C57.9938 182.719 56.9961 186.378 56.9961 186.378H68.8723C68.8723 186.378 67.8653 182.719 65.9284 182.719Z" fill="black" stroke="black" stroke-width="1.63552"/>
<path d="M63.6021 184.443C63.6021 184.576 63.5629 184.705 63.4895 184.815C63.416 184.925 63.3117 185.01 63.1896 185.061C63.0675 185.111 62.9332 185.125 62.8036 185.099C62.674 185.073 62.5548 185.009 62.4613 184.916C62.3679 184.823 62.3042 184.704 62.2784 184.574C62.2527 184.444 62.266 184.31 62.3165 184.188C62.3671 184.066 62.4527 183.961 62.5626 183.888C62.6725 183.814 62.8017 183.775 62.9339 183.775C63.1111 183.775 63.2811 183.846 63.4064 183.971C63.5317 184.096 63.6021 184.266 63.6021 184.443Z" fill="#00ADEE"/>
<path d="M66.8833 184.443C66.8833 184.576 66.8441 184.705 66.7707 184.815C66.6973 184.925 66.593 185.01 66.4709 185.061C66.3488 185.111 66.2143 185.125 66.0847 185.099C65.9551 185.073 65.836 185.009 65.7426 184.916C65.6491 184.823 65.5855 184.704 65.5597 184.574C65.5339 184.444 65.5472 184.31 65.5978 184.188C65.6484 184.066 65.734 183.961 65.8439 183.888C65.9538 183.814 66.0829 183.775 66.2151 183.775C66.3923 183.775 66.5623 183.846 66.6877 183.971C66.813 184.096 66.8833 184.266 66.8833 184.443V184.443Z" fill="#00ADEE"/>
<path d="M60.3208 184.443C60.3208 184.576 60.2815 184.705 60.2081 184.815C60.1347 184.925 60.0304 185.01 59.9083 185.061C59.7862 185.111 59.6519 185.125 59.5222 185.099C59.3926 185.073 59.2736 185.009 59.1801 184.916C59.0866 184.823 59.023 184.704 58.9972 184.574C58.9714 184.444 58.9846 184.31 59.0352 184.188C59.0858 184.066 59.1714 183.961 59.2813 183.888C59.3912 183.814 59.5204 183.775 59.6525 183.775C59.8298 183.775 59.9997 183.846 60.1251 183.971C60.2504 184.096 60.3208 184.266 60.3208 184.443Z" fill="#00ADEE"/>
<path d="M81.5799 185.848C80.2923 186.748 78.9494 187.177 77.3711 187.177L93.6845 171.782V134.776L103.178 126V143.096V168.778C103.178 170.01 102.624 171.076 101.613 171.782L81.5799 185.848Z" fill="#404041"/>
<path d="M96.7923 169.355L96.7622 173.709L93.6852 175.771L95.8595 172.942L96.7923 169.355Z" fill="white"/>
<path d="M103.178 126L37 187.177H42.6846L103.178 126.548V126Z" fill="white"/>
<path d="M51.6836 173H76.6836L104.184 152.5" stroke="black"/>
<path d="M75.8597 149.031C75.8597 149.031 76.5212 151.301 76.6038 153.625C76.2717 154.489 74.5855 156.904 72.7556 158.161L70.1128 156.915L64.709 160.201C64.709 160.201 72.5648 149.658 75.8597 149.031Z" fill="#404041"/>
<path d="M73.9534 147.612C74.4589 147.725 74.9195 147.985 75.2768 148.36C75.419 148.983 75.5672 153.249 75.5672 153.249C75.5672 153.249 74.5966 155.327 72.6235 156.734L69.9596 155.468C69.9596 155.468 64.5365 159.968 63.9291 160.142C63.2432 159.631 63.1429 158.561 63.1429 158.561C63.1429 158.561 69.0624 150.015 73.9534 147.612Z" fill="#F39DB1"/>
<path d="M63.404 158.391C64.0101 158.217 69.9311 153.635 69.9311 153.635L72.4238 154.693C73.9392 153.61 74.9474 151.942 75.4803 151.097C75.5336 152.219 75.5694 153.249 75.5694 153.249C75.5694 153.249 74.5989 155.326 72.6258 156.733L69.9619 155.467C69.9619 155.467 64.5388 159.968 63.9314 160.142C63.2455 159.63 63.1452 158.56 63.1452 158.56C63.1452 158.56 63.1957 158.466 63.2968 158.299C63.3306 158.332 63.3664 158.362 63.404 158.391V158.391Z" fill="#9E3E63"/>
<path d="M73.9534 147.612C74.4589 147.725 74.9195 147.985 75.2768 148.36C75.419 148.983 75.5672 153.249 75.5672 153.249C75.5672 153.249 74.5966 155.327 72.6235 156.734L69.9596 155.468C69.9596 155.468 64.5365 159.968 63.9291 160.142C63.2432 159.631 63.1429 158.561 63.1429 158.561C63.1429 158.561 69.0624 150.015 73.9534 147.612Z" stroke="black"/>
<path d="M74.3467 148.954L73.6945 148.715C73.6945 148.715 68.9887 151.601 64.6435 157.755C64.6435 157.755 71.3598 150.634 74.3467 148.954Z" fill="white"/>
<path d="M75.0657 149.793L73.6472 151.328L75.3468 150.983L75.0657 149.793Z" fill="black"/>
<mask id="path-18-outside-2_1233_2887" maskUnits="userSpaceOnUse" x="124.984" y="122" width="70" height="67" fill="black">
<rect fill="white" x="124.984" y="122" width="70" height="67"/>
<path d="M152.613 187.177H192.984L126.807 126V143.096V168.778C126.807 170.01 127.36 171.076 128.371 171.782L148.404 185.848C149.692 186.748 151.035 187.177 152.613 187.177Z"/>
</mask>
<path d="M152.613 187.177H192.984L126.807 126V143.096V168.778C126.807 170.01 127.36 171.076 128.371 171.782L148.404 185.848C149.692 186.748 151.035 187.177 152.613 187.177Z" fill="#6D6E70"/>
<path d="M192.984 187.177L194.003 186.076C194.456 186.495 194.606 187.149 194.381 187.724C194.156 188.299 193.602 188.677 192.984 188.677V187.177ZM148.404 185.848L147.545 187.078L147.542 187.076L148.404 185.848ZM128.371 171.782L129.23 170.552L129.233 170.554L128.371 171.782ZM126.807 126H125.307V122.571L127.825 124.899L126.807 126ZM192.984 188.677H152.613V185.677H192.984V188.677ZM152.613 188.677C150.724 188.677 149.082 188.152 147.545 187.078L149.264 184.619C150.302 185.345 151.346 185.677 152.613 185.677V188.677ZM147.542 187.076L127.509 173.01L129.233 170.554L149.266 184.621L147.542 187.076ZM127.512 173.012C126.098 172.024 125.307 170.498 125.307 168.778H128.307C128.307 169.521 128.622 170.128 129.23 170.552L127.512 173.012ZM125.307 168.778V143.096H128.307V168.778H125.307ZM191.966 188.279L125.788 127.101L127.825 124.899L194.003 186.076L191.966 188.279ZM128.307 126V143.096H125.307V126H128.307Z" fill="black" mask="url(#path-18-outside-2_1233_2887)"/>
<path d="M170.395 183.229H163.704C162.975 183.229 161.589 185.892 161.12 187.142H158.9C159.478 184.007 161.58 180.5 163.704 180.5H170.395C172.519 180.5 174.869 184.007 175.199 187.142H172.98C172.51 185.892 171.127 183.229 170.395 183.229Z" fill="#404041"/>
<path d="M164.056 182.719H170.044C171.991 182.719 172.988 186.378 172.988 186.378H161.112C161.112 186.378 162.119 182.719 164.056 182.719Z" fill="black" stroke="black" stroke-width="1.63552"/>
<path d="M166.382 184.443C166.382 184.576 166.421 184.705 166.495 184.815C166.568 184.925 166.673 185.01 166.795 185.061C166.917 185.111 167.051 185.125 167.181 185.099C167.31 185.073 167.43 185.009 167.523 184.916C167.617 184.823 167.68 184.704 167.706 184.574C167.732 184.444 167.718 184.31 167.668 184.188C167.617 184.066 167.532 183.961 167.422 183.888C167.312 183.814 167.183 183.775 167.051 183.775C166.873 183.775 166.703 183.846 166.578 183.971C166.453 184.096 166.382 184.266 166.382 184.443Z" fill="#00ADEE"/>
<path d="M163.101 184.443C163.101 184.576 163.14 184.705 163.214 184.815C163.287 184.925 163.391 185.01 163.513 185.061C163.636 185.111 163.77 185.125 163.9 185.099C164.029 185.073 164.148 185.009 164.242 184.916C164.335 184.823 164.399 184.704 164.425 184.574C164.45 184.444 164.437 184.31 164.387 184.188C164.336 184.066 164.25 183.961 164.14 183.888C164.031 183.814 163.901 183.775 163.769 183.775C163.592 183.775 163.422 183.846 163.297 183.971C163.171 184.096 163.101 184.266 163.101 184.443V184.443Z" fill="#00ADEE"/>
<path d="M169.664 184.443C169.664 184.576 169.703 184.705 169.776 184.815C169.85 184.925 169.954 185.01 170.076 185.061C170.198 185.111 170.333 185.125 170.462 185.099C170.592 185.073 170.711 185.009 170.804 184.916C170.898 184.823 170.961 184.704 170.987 184.574C171.013 184.444 171 184.31 170.949 184.188C170.899 184.066 170.813 183.961 170.703 183.888C170.593 183.814 170.464 183.775 170.332 183.775C170.155 183.775 169.985 183.846 169.859 183.971C169.734 184.096 169.664 184.266 169.664 184.443Z" fill="#00ADEE"/>
<path d="M148.404 185.848C149.692 186.748 151.035 187.177 152.613 187.177L136.3 171.782V134.776L126.807 126V143.096V168.778C126.807 170.01 127.361 171.076 128.371 171.782L148.404 185.848Z" fill="#404041"/>
<path d="M133.192 169.355L133.222 173.709L136.299 175.771L134.125 172.942L133.192 169.355Z" fill="white"/>
<path d="M126.807 126L192.984 187.177H187.3L126.807 126.548V126Z" fill="white"/>
<path d="M178.301 173H153.301L125.801 152.5" stroke="black"/>
<path d="M154.125 149.031C154.125 149.031 153.463 151.301 153.381 153.625C153.713 154.489 155.399 156.904 157.229 158.161L159.872 156.915L165.275 160.201C165.275 160.201 157.42 149.658 154.125 149.031Z" fill="#404041"/>
<path d="M156.031 147.612C155.525 147.725 155.065 147.985 154.708 148.36C154.565 148.983 154.417 153.249 154.417 153.249C154.417 153.249 155.388 155.327 157.361 156.734L160.025 155.468C160.025 155.468 165.448 159.968 166.055 160.142C166.741 159.631 166.841 158.561 166.841 158.561C166.841 158.561 160.922 150.015 156.031 147.612Z" fill="#F39DB1"/>
<path d="M166.58 158.391C165.974 158.217 160.053 153.635 160.053 153.635L157.561 154.693C156.045 153.61 155.037 151.942 154.504 151.097C154.451 152.219 154.415 153.249 154.415 153.249C154.415 153.249 155.385 155.326 157.359 156.733L160.022 155.467C160.022 155.467 165.446 159.968 166.053 160.142C166.739 159.63 166.839 158.56 166.839 158.56C166.839 158.56 166.789 158.466 166.688 158.299C166.654 158.332 166.618 158.362 166.58 158.391V158.391Z" fill="#9E3E63"/>
<path d="M156.031 147.612C155.525 147.725 155.065 147.985 154.708 148.36C154.565 148.983 154.417 153.249 154.417 153.249C154.417 153.249 155.388 155.327 157.361 156.734L160.025 155.468C160.025 155.468 165.448 159.968 166.055 160.142C166.741 159.631 166.841 158.561 166.841 158.561C166.841 158.561 160.922 150.015 156.031 147.612Z" stroke="black"/>
<path d="M155.638 148.954L156.29 148.715C156.29 148.715 160.996 151.601 165.341 157.755C165.341 157.755 158.625 150.634 155.638 148.954Z" fill="white"/>
<path d="M154.919 149.793L156.337 151.328L154.638 150.983L154.919 149.793Z" fill="black"/>

        
<mask id="path-1-outside-1_1233_2887" maskUnits="userSpaceOnUse" x="96.9004" y="172.5" width="18" height="19" fill="black">
<rect fill="white" x="96.9004" y="172.5" width="18" height="19"/>
<path d="M98.9004 174.5H113.1L106 189.681L98.9004 174.5Z"/>
</mask>
<path d="M98.9004 174.5H113.1L106 189.681L98.9004 174.5Z" fill="#6D6E70"/>
<path d="M98.9004 174.5H113.1L106 189.681L98.9004 174.5Z" stroke="black" stroke-width="2.87827" stroke-linejoin="round" mask="url(#path-1-outside-1_1233_2887)"/>
<path d="M106 189.681L98.9004 174.5H101.875L106 189.681Z" fill="#BBBDBF"/>
<path d="M106.002 189.681L113.102 174.5H110.127L106.002 189.681Z" fill="#404041"/>
<mask id="path-4-outside-2_1233_2887" maskUnits="userSpaceOnUse" x="114.801" y="172.5" width="18" height="19" fill="black">
<rect fill="white" x="114.801" y="172.5" width="18" height="19"/>
<path d="M116.801 174.5H131L123.901 189.681L116.801 174.5Z"/>
</mask>
<path d="M116.801 174.5H131L123.901 189.681L116.801 174.5Z" fill="#6D6E70"/>
<path d="M116.801 174.5H131L123.901 189.681L116.801 174.5Z" stroke="black" stroke-width="2.87827" stroke-linejoin="round" mask="url(#path-4-outside-2_1233_2887)"/>
<path d="M123.901 189.681L116.801 174.5H119.775L123.901 189.681Z" fill="#BBBDBF"/>
<path d="M123.9 189.681L131 174.5H128.026L123.9 189.681Z" fill="#404041"/>
<mask id="path-7-outside-3_1233_2887" maskUnits="userSpaceOnUse" x="96.6992" y="171" width="18" height="13" fill="black">
<rect fill="white" x="96.6992" y="171" width="18" height="13"/>
<path fill-rule="evenodd" clip-rule="evenodd" d="M98.6992 173C98.6992 175.298 98.6992 177.61 98.6992 179.908C98.6992 183.051 113.195 183.051 113.195 179.908C113.195 177.61 113.195 175.298 113.195 173H98.6992Z"/>
</mask>
<path fill-rule="evenodd" clip-rule="evenodd" d="M98.6992 173C98.6992 175.298 98.6992 177.61 98.6992 179.908C98.6992 183.051 113.195 183.051 113.195 179.908C113.195 177.61 113.195 175.298 113.195 173H98.6992Z" fill="#6D6E70"/>
<path fill-rule="evenodd" clip-rule="evenodd" d="M98.6992 173C98.6992 175.298 98.6992 177.61 98.6992 179.908C98.6992 183.051 113.195 183.051 113.195 179.908C113.195 177.61 113.195 175.298 113.195 173H98.6992Z" stroke="black" stroke-width="3" mask="url(#path-7-outside-3_1233_2887)"/>
<path d="M98.6992 179.908V173H101.524V181.821C99.8599 181.435 98.6992 180.798 98.6992 179.908Z" fill="#BBBDBF"/>
<path d="M113.324 179.908V173H110.499V181.821C112.164 181.435 113.324 180.798 113.324 179.908Z" fill="#404041"/>
<mask id="path-10-outside-4_1233_2887" maskUnits="userSpaceOnUse" x="114.602" y="171" width="18" height="13" fill="black">
<rect fill="white" x="114.602" y="171" width="18" height="13"/>
<path fill-rule="evenodd" clip-rule="evenodd" d="M116.602 173C116.602 175.298 116.602 177.61 116.602 179.908C116.602 183.051 131.097 183.051 131.097 179.908C131.097 177.61 131.097 175.298 131.097 173H116.602Z"/>
</mask>
<path fill-rule="evenodd" clip-rule="evenodd" d="M116.602 173C116.602 175.298 116.602 177.61 116.602 179.908C116.602 183.051 131.097 183.051 131.097 179.908C131.097 177.61 131.097 175.298 131.097 173H116.602Z" fill="#6D6E70"/>
<path fill-rule="evenodd" clip-rule="evenodd" d="M116.602 173C116.602 175.298 116.602 177.61 116.602 179.908C116.602 183.051 131.097 183.051 131.097 179.908C131.097 177.61 131.097 175.298 131.097 173H116.602Z" stroke="black" stroke-width="3" mask="url(#path-10-outside-4_1233_2887)"/>
<path d="M116.602 179.908V173H119.427V181.821C117.762 181.435 116.602 180.798 116.602 179.908Z" fill="#BBBDBF"/>
<path d="M131.227 179.908V173H128.401V181.821C130.066 181.435 131.227 180.798 131.227 179.908Z" fill="#404041"/>
<mask id="path-13-outside-5_1233_2887" maskUnits="userSpaceOnUse" x="94.5293" y="137" width="41" height="41" fill="black">
<rect fill="white" x="94.5293" y="137" width="41" height="41"/>
<path fill-rule="evenodd" clip-rule="evenodd" d="M101.472 145.957C100.115 146.649 98.7721 147.341 97.4154 148.033C96.8477 148.324 96.5293 148.809 96.5293 149.376C96.5293 153.045 96.5293 156.728 96.5293 160.397C96.5293 160.826 96.6954 161.186 97.0415 161.49C97.6092 161.989 98.163 162.487 98.7306 162.972C98.7306 166.184 98.7306 169.41 98.7306 172.622C98.7306 176.996 131.127 176.996 131.127 172.622C131.127 169.41 131.127 166.184 131.127 162.972C131.681 162.473 132.249 161.975 132.816 161.49C133.162 161.186 133.329 160.826 133.329 160.397C133.329 156.728 133.329 153.045 133.329 149.376C133.329 148.809 133.01 148.324 132.442 148.033C131.086 147.341 129.743 146.649 128.386 145.957C128.386 140.488 128.386 146.019 128.386 140.564C128.386 139.706 127.569 139 126.558 139C118.805 139 111.066 139 103.313 139C102.303 139 101.486 139.706 101.486 140.564C101.472 146.019 101.472 140.488 101.472 145.957Z"/>
</mask>
<path fill-rule="evenodd" clip-rule="evenodd" d="M101.472 145.957C100.115 146.649 98.7721 147.341 97.4154 148.033C96.8477 148.324 96.5293 148.809 96.5293 149.376C96.5293 153.045 96.5293 156.728 96.5293 160.397C96.5293 160.826 96.6954 161.186 97.0415 161.49C97.6092 161.989 98.163 162.487 98.7306 162.972C98.7306 166.184 98.7306 169.41 98.7306 172.622C98.7306 176.996 131.127 176.996 131.127 172.622C131.127 169.41 131.127 166.184 131.127 162.972C131.681 162.473 132.249 161.975 132.816 161.49C133.162 161.186 133.329 160.826 133.329 160.397C133.329 156.728 133.329 153.045 133.329 149.376C133.329 148.809 133.01 148.324 132.442 148.033C131.086 147.341 129.743 146.649 128.386 145.957C128.386 140.488 128.386 146.019 128.386 140.564C128.386 139.706 127.569 139 126.558 139C118.805 139 111.066 139 103.313 139C102.303 139 101.486 139.706 101.486 140.564C101.472 146.019 101.472 140.488 101.472 145.957Z" fill="#6D6E70"/>
<path fill-rule="evenodd" clip-rule="evenodd" d="M101.472 145.957C100.115 146.649 98.7721 147.341 97.4154 148.033C96.8477 148.324 96.5293 148.809 96.5293 149.376C96.5293 153.045 96.5293 156.728 96.5293 160.397C96.5293 160.826 96.6954 161.186 97.0415 161.49C97.6092 161.989 98.163 162.487 98.7306 162.972C98.7306 166.184 98.7306 169.41 98.7306 172.622C98.7306 176.996 131.127 176.996 131.127 172.622C131.127 169.41 131.127 166.184 131.127 162.972C131.681 162.473 132.249 161.975 132.816 161.49C133.162 161.186 133.329 160.826 133.329 160.397C133.329 156.728 133.329 153.045 133.329 149.376C133.329 148.809 133.01 148.324 132.442 148.033C131.086 147.341 129.743 146.649 128.386 145.957C128.386 140.488 128.386 146.019 128.386 140.564C128.386 139.706 127.569 139 126.558 139C118.805 139 111.066 139 103.313 139C102.303 139 101.486 139.706 101.486 140.564C101.472 146.019 101.472 140.488 101.472 145.957Z" stroke="black" stroke-width="3" mask="url(#path-13-outside-5_1233_2887)"/>
<mask id="path-14-outside-6_1233_2887" maskUnits="userSpaceOnUse" x="94.5293" y="126" width="41" height="52" fill="black">
<rect fill="white" x="94.5293" y="126" width="41" height="52"/>
<path fill-rule="evenodd" clip-rule="evenodd" d="M101.472 145.957C100.115 146.649 98.7721 147.341 97.4154 148.033C96.8477 148.324 96.5293 148.809 96.5293 149.376C96.5293 153.045 96.5293 156.728 96.5293 160.397C96.5293 160.826 96.6954 161.186 97.0415 161.49C97.6092 161.989 98.163 162.487 98.7306 162.972C98.7306 166.184 98.7306 169.41 98.7306 172.622C98.7306 176.996 131.127 176.996 131.127 172.622C131.127 169.41 131.127 166.184 131.127 162.972C131.681 162.473 132.249 161.975 132.816 161.49C133.162 161.186 133.329 160.826 133.329 160.397C133.329 156.728 133.329 153.045 133.329 149.376C133.329 148.809 133.01 148.324 132.442 148.033C131.086 147.341 129.743 146.649 128.386 145.957C128.386 140.488 128.386 135.019 128.386 129.564C128.386 128.706 127.569 128 126.558 128C118.805 128 111.066 128 103.313 128C102.303 128 101.486 128.706 101.486 129.564C101.472 135.019 101.472 140.488 101.472 145.957Z"/>
</mask>
<path fill-rule="evenodd" clip-rule="evenodd" d="M101.472 145.957C100.115 146.649 98.7721 147.341 97.4154 148.033C96.8477 148.324 96.5293 148.809 96.5293 149.376C96.5293 153.045 96.5293 156.728 96.5293 160.397C96.5293 160.826 96.6954 161.186 97.0415 161.49C97.6092 161.989 98.163 162.487 98.7306 162.972C98.7306 166.184 98.7306 169.41 98.7306 172.622C98.7306 176.996 131.127 176.996 131.127 172.622C131.127 169.41 131.127 166.184 131.127 162.972C131.681 162.473 132.249 161.975 132.816 161.49C133.162 161.186 133.329 160.826 133.329 160.397C133.329 156.728 133.329 153.045 133.329 149.376C133.329 148.809 133.01 148.324 132.442 148.033C131.086 147.341 129.743 146.649 128.386 145.957C128.386 140.488 128.386 135.019 128.386 129.564C128.386 128.706 127.569 128 126.558 128C118.805 128 111.066 128 103.313 128C102.303 128 101.486 128.706 101.486 129.564C101.472 135.019 101.472 140.488 101.472 145.957Z" fill="#6D6E70"/>
<path fill-rule="evenodd" clip-rule="evenodd" d="M101.472 145.957C100.115 146.649 98.7721 147.341 97.4154 148.033C96.8477 148.324 96.5293 148.809 96.5293 149.376C96.5293 153.045 96.5293 156.728 96.5293 160.397C96.5293 160.826 96.6954 161.186 97.0415 161.49C97.6092 161.989 98.163 162.487 98.7306 162.972C98.7306 166.184 98.7306 169.41 98.7306 172.622C98.7306 176.996 131.127 176.996 131.127 172.622C131.127 169.41 131.127 166.184 131.127 162.972C131.681 162.473 132.249 161.975 132.816 161.49C133.162 161.186 133.329 160.826 133.329 160.397C133.329 156.728 133.329 153.045 133.329 149.376C133.329 148.809 133.01 148.324 132.442 148.033C131.086 147.341 129.743 146.649 128.386 145.957C128.386 140.488 128.386 135.019 128.386 129.564C128.386 128.706 127.569 128 126.558 128C118.805 128 111.066 128 103.313 128C102.303 128 101.486 128.706 101.486 129.564C101.472 135.019 101.472 140.488 101.472 145.957Z" stroke="black" stroke-width="3" mask="url(#path-14-outside-6_1233_2887)"/>
<path d="M131.128 162.972V172.622C131.128 174.812 123.009 175.905 114.9 175.903V128H126.559C127.57 128 128.386 128.706 128.386 129.564V145.957C129.743 146.649 131.086 147.341 132.443 148.033C133.011 148.324 133.329 148.809 133.329 149.376V160.397C133.329 160.826 133.163 161.186 132.817 161.49C132.249 161.975 131.682 162.473 131.128 162.972Z" fill="#404041"/>
<path d="M126.593 168.6C126.847 166.319 128.093 167.9 127.493 164.7L115.343 165L114.9 165.01V174.964C121.901 174.6 126.34 170.881 126.593 168.6Z" fill="#231F20"/>
<path d="M103.007 168.6C102.754 166.319 101.507 167.9 102.108 164.7L114.257 165L114.9 165.01V174.964C107.9 174.6 103.261 170.881 103.007 168.6Z" fill="#404041"/>
<mask id="path-18-inside-7_1233_2887" fill="white">
<path fill-rule="evenodd" clip-rule="evenodd" d="M114.887 173.88C111.454 173.88 108.842 172.91 105.935 171.055C104.702 170.266 103.982 168.909 103.982 167.345V164.991H125.193V167.345C125.193 168.909 124.473 170.266 123.24 171.055C120.333 172.91 118.321 173.88 114.887 173.88Z"/>
</mask>
<path fill-rule="evenodd" clip-rule="evenodd" d="M114.887 173.88C111.454 173.88 108.842 172.91 105.935 171.055C104.702 170.266 103.982 168.909 103.982 167.345V164.991H125.193V167.345C125.193 168.909 124.473 170.266 123.24 171.055C120.333 172.91 118.321 173.88 114.887 173.88Z" fill="#9E3E63" stroke="black" stroke-width="2" mask="url(#path-18-inside-7_1233_2887)"/>
<path d="M108.346 170.187C110.072 171.643 112.198 172.501 114.496 172.501C116.795 172.501 118.92 171.643 120.646 170.187C121.679 169.317 121.193 167.755 119.912 167.324L115.772 165.93C114.944 165.652 114.048 165.652 113.22 165.93L109.08 167.324C107.8 167.755 107.313 169.317 108.346 170.187Z" fill="#DB5C87"/>
<path d="M112.669 172.137C112.873 172.137 113.037 171.972 113.037 171.769C113.037 171.565 112.873 171.4 112.669 171.4C112.466 171.4 112.301 171.565 112.301 171.769C112.301 171.972 112.466 172.137 112.669 172.137Z" fill="white"/>
<path d="M113.543 169.446C112.098 168.576 110.799 168.107 110.642 168.402C110.485 168.697 111.53 169.639 112.974 170.511C114.419 171.383 115.718 171.849 115.875 171.555C116.032 171.26 114.988 170.318 113.543 169.446Z" fill="white"/>
<path d="M109.702 170.991C109.713 171.114 109.759 171.231 109.836 171.329C109.912 171.426 110.015 171.499 110.132 171.538C110.249 171.578 110.375 171.583 110.495 171.552C110.614 171.521 110.722 171.456 110.806 171.365C110.889 171.274 110.944 171.161 110.964 171.039C110.984 170.917 110.968 170.792 110.918 170.679C110.869 170.566 110.787 170.47 110.683 170.402C110.58 170.335 110.459 170.299 110.335 170.299C110.16 170.307 109.994 170.385 109.876 170.514C109.757 170.644 109.695 170.815 109.702 170.991Z" fill="white"/>
<path d="M117.768 171.336C117.565 171.336 117.4 171.171 117.4 170.968C117.4 170.765 117.565 170.6 117.768 170.6C117.972 170.6 118.137 170.765 118.137 170.968C118.137 171.171 117.972 171.336 117.768 171.336Z" fill="white"/>
<mask id="path-24-outside-8_1233_2887" maskUnits="userSpaceOnUse" x="99.4004" y="163.44" width="30" height="8" fill="black">
<rect fill="white" x="99.4004" y="163.44" width="30" height="8"/>
<path d="M105.339 166.819C107.9 168.314 110.434 169.587 114.587 169.587C118.74 169.587 121.274 168.314 123.835 166.819C125.067 166.099 124.307 166.5 125.773 165.44L114.587 166.14L103.4 165.44C104.507 166.24 104.106 166.099 105.339 166.819Z"/>
</mask>
<path d="M105.339 166.819C107.9 168.314 110.434 169.587 114.587 169.587C118.74 169.587 121.274 168.314 123.835 166.819C125.067 166.099 124.307 166.5 125.773 165.44L114.587 166.14L103.4 165.44C104.507 166.24 104.106 166.099 105.339 166.819Z" fill="#6D6E70"/>
<path d="M105.339 166.819C107.9 168.314 110.434 169.587 114.587 169.587C118.74 169.587 121.274 168.314 123.835 166.819C125.067 166.099 124.307 166.5 125.773 165.44L114.587 166.14L103.4 165.44C104.507 166.24 104.106 166.099 105.339 166.819Z" stroke="black" stroke-width="2" mask="url(#path-24-outside-8_1233_2887)"/>
<path d="M123.835 166.819C125.067 166.099 124.307 166.5 125.773 165.44L114.9 166.121V169.585C118.869 169.523 121.339 168.276 123.835 166.819Z" fill="#404041"/>
<path d="M97.4154 148.033C98.7721 147.341 100.115 146.649 101.472 145.957C101.472 140.488 101.472 135.019 101.486 129.564C101.486 128.706 102.303 128 103.313 128L104 146.967L98.7306 150.467V162.972L100.5 165.467V174.219C99.3818 173.774 98.7306 173.242 98.7306 172.622V162.972C98.163 162.487 97.6092 161.989 97.0415 161.49C96.6954 161.186 96.5293 160.826 96.5293 160.397V149.376C96.5293 148.809 96.8477 148.324 97.4154 148.033Z" fill="#BBBDBF"/>
<path d="M132.485 148.033C131.128 147.341 129.785 146.649 128.429 145.957C128.429 140.488 128.429 135.019 128.415 129.564C128.415 128.706 127.598 128 126.587 128L125.901 146.967L131.17 150.467V162.972L129.401 165.467V174.219C130.519 173.774 131.17 173.242 131.17 172.622V162.972C131.737 162.487 132.291 161.989 132.859 161.49C133.205 161.186 133.371 160.826 133.371 160.397V149.376C133.371 148.809 133.053 148.324 132.485 148.033Z" fill="#231F20"/>
<path d="M97.6309 162.421C97.6309 166.796 132.227 166.796 132.227 162.421" stroke="black" stroke-width="1.5"/>
<path d="M100.631 144.867C100.631 149.242 129.227 149.242 129.227 144.867" stroke="black"/>
<path d="M96 148.466C96 150.654 105.5 152.748 115 152.748C124.5 152.748 134 150.654 134 148.466" stroke="black"/>

        
<mask id="path-1-outside-1_1233_2887" maskUnits="userSpaceOnUse" x="97.1992" y="19.8989" width="17" height="32" fill="black">
<rect fill="white" x="97.1992" y="19.8989" width="17" height="32"/>
<path d="M99.244 42.9306L105.154 50.2787C105.2 50.3352 105.288 50.3261 105.321 50.2615L112.421 36.3602C112.428 36.3462 112.432 36.3306 112.432 36.3148V22.2449C112.432 22.1446 112.301 22.1067 112.247 22.1915L99.2373 42.8146C99.2145 42.8507 99.2172 42.8973 99.244 42.9306Z"/>
</mask>
<path d="M99.244 42.9306L105.154 50.2787C105.2 50.3352 105.288 50.3261 105.321 50.2615L112.421 36.3602C112.428 36.3462 112.432 36.3306 112.432 36.3148V22.2449C112.432 22.1446 112.301 22.1067 112.247 22.1915L99.2373 42.8146C99.2145 42.8507 99.2172 42.8973 99.244 42.9306Z" fill="#6D6E70"/>
<path d="M99.244 42.9306L105.154 50.2787C105.2 50.3352 105.288 50.3261 105.321 50.2615L112.421 36.3602C112.428 36.3462 112.432 36.3306 112.432 36.3148V22.2449C112.432 22.1446 112.301 22.1067 112.247 22.1915L99.2373 42.8146C99.2145 42.8507 99.2172 42.8973 99.244 42.9306Z" stroke="black" stroke-width="3" mask="url(#path-1-outside-1_1233_2887)"/>
<path d="M99.244 42.9306L105.251 50.399L100.729 42.9248C100.711 42.894 100.71 42.8556 100.728 42.8242L112.432 21.8989L99.2373 42.8146C99.2145 42.8507 99.2172 42.8973 99.244 42.9306Z" fill="white"/>
<path d="M105.321 50.2605L112.42 36.3601C112.427 36.3461 112.431 36.3305 112.431 36.3147V30.5908C112.431 30.4956 112.309 30.4563 112.25 30.5316C108.115 35.8647 106.166 38.5269 103.413 48.0188C103.404 48.0499 103.41 48.0845 103.431 48.1099L105.154 50.2773C105.199 50.3342 105.288 50.3253 105.321 50.2605Z" fill="#404041"/>
<mask id="path-4-outside-2_1233_2887" maskUnits="userSpaceOnUse" x="116.732" y="19.8989" width="17" height="32" fill="black">
<rect fill="white" x="116.732" y="19.8989" width="17" height="32"/>
<path d="M131.688 42.9306L125.777 50.2787C125.732 50.3352 125.643 50.3261 125.61 50.2615L118.511 36.3602C118.504 36.3462 118.5 36.3306 118.5 36.3148V22.2449C118.5 22.1446 118.631 22.1067 118.685 22.1915L131.694 42.8146C131.717 42.8507 131.714 42.8973 131.688 42.9306Z"/>
</mask>
<path d="M131.688 42.9306L125.777 50.2787C125.732 50.3352 125.643 50.3261 125.61 50.2615L118.511 36.3602C118.504 36.3462 118.5 36.3306 118.5 36.3148V22.2449C118.5 22.1446 118.631 22.1067 118.685 22.1915L131.694 42.8146C131.717 42.8507 131.714 42.8973 131.688 42.9306Z" fill="#6D6E70"/>
<path d="M131.688 42.9306L125.777 50.2787C125.732 50.3352 125.643 50.3261 125.61 50.2615L118.511 36.3602C118.504 36.3462 118.5 36.3306 118.5 36.3148V22.2449C118.5 22.1446 118.631 22.1067 118.685 22.1915L131.694 42.8146C131.717 42.8507 131.714 42.8973 131.688 42.9306Z" stroke="black" stroke-width="3" mask="url(#path-4-outside-2_1233_2887)"/>
<path d="M131.688 42.9306L125.681 50.399L130.202 42.9248C130.221 42.894 130.222 42.8556 130.204 42.8242L118.5 21.8989L131.694 42.8146C131.717 42.8507 131.714 42.8973 131.688 42.9306Z" fill="white"/>
<path d="M125.611 50.2605L118.512 36.3601C118.505 36.3461 118.501 36.3305 118.501 36.3147V30.5908C118.501 30.4956 118.623 30.4563 118.681 30.5316C122.817 35.8647 124.766 38.5269 127.519 48.0188C127.528 48.0499 127.521 48.0845 127.501 48.1099L125.778 50.2773C125.733 50.3342 125.644 50.3253 125.611 50.2605Z" fill="#404041"/>
<path d="M97.5 117.183C99.1614 115.467 100.823 113.764 102.484 112.047C102.83 111.687 102.996 111.272 102.996 110.773L102.996 89.5939C103.009 67.0756 104.807 44.9768 112.209 34.3539C113.772 32.1094 116.927 31.9829 118.521 34.2062C125.652 44.1524 127.572 67.2969 127.585 89.5939V110.789C127.588 111.28 127.754 111.691 128.097 112.047C129.758 113.764 131.42 115.467 133.081 117.183V129.353C131.433 131.471 129.786 133.603 128.138 135.721C128.138 140.094 102.459 140.074 102.431 135.706C100.787 133.593 99.1436 131.466 97.5 129.353V117.183Z" fill="#6D6E70"/>
<path fill-rule="evenodd" clip-rule="evenodd" d="M102.425 135.699C101.607 134.647 100.789 133.591 99.9709 132.536C99.1473 131.474 98.3236 130.411 97.5 129.352V117.183C98.3307 116.324 99.1614 115.47 99.992 114.615C100.823 113.76 101.653 112.905 102.484 112.046C102.83 111.686 102.996 111.271 102.996 110.773L102.996 89.5934C103.009 67.0751 104.807 44.9764 112.209 34.3535C113.772 32.1089 116.927 31.9825 118.521 34.2057C125.652 44.152 127.572 67.2964 127.585 89.5934V110.789C127.588 111.28 127.754 111.69 128.097 112.046C128.928 112.905 129.758 113.76 130.589 114.615C131.42 115.47 132.25 116.325 133.081 117.183V129.352C132.257 130.412 131.433 131.474 130.609 132.537C129.786 133.599 128.962 134.662 128.138 135.721C128.138 140.086 102.552 140.074 102.431 135.73C102.431 135.722 102.431 135.714 102.431 135.706C102.429 135.704 102.427 135.701 102.425 135.699ZM129.57 136.324C129.329 137.353 128.498 138.038 127.79 138.451C126.895 138.972 125.721 139.354 124.456 139.64C121.902 140.218 118.571 140.493 115.294 140.491C112.017 140.489 108.684 140.209 106.127 139.629C104.861 139.341 103.686 138.958 102.789 138.437C102.08 138.024 101.247 137.341 101.002 136.312C100.264 135.363 99.5265 134.411 98.7896 133.461L98.78 133.448C97.958 132.388 97.1369 131.329 96.316 130.273L96 129.867V116.576L96.4221 116.14C97.254 115.28 98.0857 114.424 98.9163 113.569L98.9228 113.563C99.7506 112.711 100.577 111.86 101.404 111.006C101.456 110.951 101.472 110.917 101.478 110.902C101.484 110.887 101.496 110.851 101.496 110.773L101.496 89.5934C101.503 78.3048 101.956 67.0697 103.347 57.3013C104.731 47.5795 107.068 39.107 110.978 33.496C113.089 30.4654 117.498 30.2048 119.74 33.3317C123.533 38.622 125.83 47.2124 127.208 57.0602C128.594 66.9736 129.079 78.4109 129.085 89.5926V110.782C129.086 110.855 129.097 110.888 129.103 110.903C129.109 110.918 129.125 110.951 129.177 111.006C130.005 111.862 130.834 112.714 131.663 113.568L131.666 113.571C132.496 114.425 133.327 115.28 134.159 116.14L134.581 116.576V129.867L134.265 130.273C133.442 131.331 132.619 132.393 131.795 133.456C131.054 134.412 130.312 135.369 129.57 136.324Z" fill="black"/>
<path d="M127.585 89.5937C127.572 67.2967 125.652 44.1522 118.521 34.206C117.757 33.1403 116.634 32.6145 115.5 32.603V140.491L126 138.899L128.5 136.399L128.138 135.721C128.962 134.662 129.786 133.6 130.609 132.537C131.433 131.474 132.257 130.412 133.081 129.353V117.183C132.25 116.325 131.42 115.47 130.589 114.615C129.758 113.76 128.928 112.905 128.097 112.047C127.754 111.691 127.588 111.28 127.585 110.789V110.773V89.5937Z" fill="#404041"/>
<path fill-rule="evenodd" clip-rule="evenodd" d="M102.425 135.699C101.607 134.647 100.789 133.591 99.9709 132.536C99.1473 131.474 98.3236 130.411 97.5 129.352V117.183C98.3307 116.324 99.1614 115.47 99.992 114.615C100.823 113.76 101.653 112.905 102.484 112.046C102.83 111.686 102.996 111.271 102.996 110.773L102.996 89.5934C103.009 67.0751 104.807 44.9764 112.209 34.3535C113.772 32.1089 116.927 31.9825 118.521 34.2057C125.652 44.152 127.572 67.2964 127.585 89.5934V110.789C127.588 111.28 127.754 111.69 128.097 112.046C128.928 112.905 129.758 113.76 130.589 114.615C131.42 115.47 132.25 116.325 133.081 117.183V129.352C132.257 130.412 131.433 131.474 130.609 132.537C129.786 133.599 128.962 134.662 128.138 135.721C128.138 140.086 102.552 140.074 102.431 135.73C102.431 135.722 102.431 135.714 102.431 135.706C102.429 135.704 102.427 135.701 102.425 135.699ZM129.57 136.324C129.329 137.353 128.498 138.038 127.79 138.451C126.895 138.972 125.721 139.354 124.456 139.64C121.902 140.218 118.571 140.493 115.294 140.491C112.017 140.489 108.684 140.209 106.127 139.629C104.861 139.341 103.686 138.958 102.789 138.437C102.08 138.024 101.247 137.341 101.002 136.312C100.264 135.363 99.5265 134.411 98.7896 133.461L98.78 133.448C97.958 132.388 97.1369 131.329 96.316 130.273L96 129.867V116.576L96.4221 116.14C97.254 115.28 98.0857 114.424 98.9163 113.569L98.9228 113.563C99.7506 112.711 100.577 111.86 101.404 111.006C101.456 110.951 101.472 110.917 101.478 110.902C101.484 110.887 101.496 110.851 101.496 110.773L101.496 89.5934C101.503 78.3048 101.956 67.0697 103.347 57.3013C104.731 47.5795 107.068 39.107 110.978 33.496C113.089 30.4654 117.498 30.2048 119.74 33.3317C123.533 38.622 125.83 47.2124 127.208 57.0602C128.594 66.9736 129.079 78.4109 129.085 89.5926V110.782C129.086 110.855 129.097 110.888 129.103 110.903C129.109 110.918 129.125 110.951 129.177 111.006C130.005 111.862 130.834 112.714 131.663 113.568L131.666 113.571C132.496 114.425 133.327 115.28 134.159 116.14L134.581 116.576V129.867L134.265 130.273C133.442 131.331 132.619 132.393 131.795 133.456C131.054 134.412 130.312 135.369 129.57 136.324Z" fill="black"/>
<path d="M102.997 89.5937C103.01 67.2967 104.93 44.1522 112.061 34.206C112.826 33.1403 113.948 32.6145 115.082 32.603C110.163 37.8071 107.001 49.8989 105.501 63.8989C104.301 75.0989 104.335 101.232 104.501 112.899L99.0012 118.399V130.399L102.444 135.721C101.62 134.662 100.796 133.6 99.9726 132.537C99.1488 131.474 98.325 130.412 97.5011 129.353V117.183C98.3317 116.325 99.1624 115.47 99.993 114.615C100.824 113.76 101.654 112.905 102.485 112.047C102.828 111.691 102.994 111.28 102.997 110.789V110.773V89.5937Z" fill="#BBBDBF"/>
<path d="M127.585 89.5937C127.572 67.2967 125.652 44.1522 118.521 34.206C117.757 33.1403 116.634 32.6145 115.5 32.603C120.419 37.8071 123.581 49.8989 125.081 63.8989C126.281 75.0989 126.247 101.232 126.081 112.899L131.581 118.399V130.399L128.138 135.721C128.962 134.662 129.786 133.6 130.609 132.537C131.433 131.474 132.257 130.412 133.081 129.353V117.183C132.25 116.325 131.42 115.47 130.589 114.615C129.758 113.76 128.928 112.905 128.097 112.047C127.754 111.691 127.588 111.28 127.585 110.789V110.773V89.5937Z" fill="#231F20"/>
<rect x="108.051" y="99.2138" width="1.7" height="4.3" rx="0.65" fill="black" stroke="black" stroke-width="0.3"/>
<rect x="107.9" y="99.3638" width="1.4" height="4" rx="0.5" fill="#9E3E63"/>
<path fill-rule="evenodd" clip-rule="evenodd" d="M108.277 100.07H108.658C108.814 100.07 108.945 100.134 108.945 100.211V102.859C108.945 102.935 108.814 102.999 108.658 102.999H108.277C108.12 102.999 107.99 102.935 107.99 102.859V100.214C107.99 100.134 108.12 100.07 108.277 100.07Z" fill="#F39DB1"/>
<path d="M108.626 100.172C108.714 100.172 108.785 100.104 108.785 100.02C108.785 99.9365 108.714 99.8687 108.626 99.8687C108.538 99.8687 108.467 99.9365 108.467 100.02C108.467 100.104 108.538 100.172 108.626 100.172Z" fill="white"/>
<path d="M108.148 102.622V101.316C108.148 101.202 108.35 101.02 108.668 100.84C108.703 100.818 108.741 100.797 108.785 100.777C108.744 100.798 108.706 100.819 108.668 100.84C108.425 100.998 108.393 101.216 108.411 101.316L108.411 102.622C108.393 102.722 108.52 102.848 108.95 102.919C108.6 102.919 108.148 102.736 108.148 102.622Z" fill="white"/>
<rect x="0.15" y="-0.15" width="1.7" height="4.3" rx="0.65" transform="matrix(-1 0 0 1 122.698 99.3638)" fill="black" stroke="black" stroke-width="0.3"/>
<rect width="1.4" height="4" rx="0.5" transform="matrix(-1 0 0 1 122.699 99.3638)" fill="#9E3E63"/>
<path fill-rule="evenodd" clip-rule="evenodd" d="M122.323 100.07H121.941C121.785 100.07 121.655 100.134 121.655 100.211V102.859C121.655 102.935 121.785 102.999 121.941 102.999H122.323C122.479 102.999 122.609 102.935 122.609 102.859V100.214C122.609 100.134 122.479 100.07 122.323 100.07Z" fill="#F39DB1"/>
<path d="M121.974 100.172C121.886 100.172 121.815 100.104 121.815 100.02C121.815 99.9365 121.886 99.8687 121.974 99.8687C122.062 99.8687 122.133 99.9365 122.133 100.02C122.133 100.104 122.062 100.172 121.974 100.172Z" fill="white"/>
<path d="M122.451 102.622V101.316C122.451 101.202 122.25 101.02 121.931 100.84C121.897 100.818 121.858 100.797 121.815 100.777C121.855 100.798 121.894 100.819 121.931 100.84C122.175 100.998 122.207 101.216 122.188 101.316L122.188 102.622C122.207 102.722 122.079 102.848 121.65 102.919C122 102.919 122.451 102.736 122.451 102.622Z" fill="white"/>
<mask id="path-23-outside-3_1233_2887" maskUnits="userSpaceOnUse" x="108.584" y="41.8989" width="14" height="40" fill="black">
<rect fill="white" x="108.584" y="41.8989" width="14" height="40"/>
<path d="M115.4 42.8989C113.476 42.8989 112.076 46.457 111.148 51.8703C110.082 58.0312 109.584 74.0814 109.584 75.2402C109.584 76.3989 110.25 77.8837 111.025 78.6589C111.8 79.4342 113.85 80.1758 115.443 80.1758C117.035 80.1758 118.999 79.4342 119.774 78.6589C120.549 77.8837 121.215 76.3989 121.215 75.2402C121.215 74.0814 120.716 58.0312 119.65 51.8703C118.723 46.457 117.324 42.8989 115.4 42.8989Z"/>
</mask>
<path d="M115.4 42.8989C113.476 42.8989 112.076 46.457 111.148 51.8703C110.082 58.0312 109.584 74.0814 109.584 75.2402C109.584 76.3989 110.25 77.8837 111.025 78.6589C111.8 79.4342 113.85 80.1758 115.443 80.1758C117.035 80.1758 118.999 79.4342 119.774 78.6589C120.549 77.8837 121.215 76.3989 121.215 75.2402C121.215 74.0814 120.716 58.0312 119.65 51.8703C118.723 46.457 117.324 42.8989 115.4 42.8989Z" fill="#AA3964"/>
<path d="M115.4 42.8989C113.476 42.8989 112.076 46.457 111.148 51.8703C110.082 58.0312 109.584 74.0814 109.584 75.2402C109.584 76.3989 110.25 77.8837 111.025 78.6589C111.8 79.4342 113.85 80.1758 115.443 80.1758C117.035 80.1758 118.999 79.4342 119.774 78.6589C120.549 77.8837 121.215 76.3989 121.215 75.2402C121.215 74.0814 120.716 58.0312 119.65 51.8703C118.723 46.457 117.324 42.8989 115.4 42.8989Z" stroke="black" stroke-width="2" mask="url(#path-23-outside-3_1233_2887)"/>
<path fill-rule="evenodd" clip-rule="evenodd" d="M115.403 50.4189C114.088 50.4189 113.756 51.0281 113.133 53.2986C111.956 57.5767 111.264 65.2328 112.413 69.9954C112.953 72.2659 113.603 72.8751 115.417 72.8751C117.217 72.8751 117.867 72.2797 118.421 69.9954C119.557 65.2328 118.864 57.5767 117.701 53.2986C117.051 51.0281 116.718 50.4189 115.403 50.4189Z" fill="#DB5C87"/>
<path d="M119.881 76.0026C119.706 77.075 119.203 77.8835 118.757 77.8111C118.311 77.7386 118.091 76.811 118.269 75.7386C118.446 74.6662 118.949 73.8578 119.392 73.9325C119.836 74.0073 120.058 74.9325 119.881 76.0026Z" fill="white"/>
<path d="M112.357 74.8374C112.831 74.8374 113.215 74.419 113.215 73.9028C113.215 73.3867 112.831 72.9683 112.357 72.9683C111.884 72.9683 111.5 73.3867 111.5 73.9028C111.5 74.419 111.884 74.8374 112.357 74.8374Z" fill="white"/>
<path d="M113.808 77.0597C114.083 77.0597 114.306 76.8369 114.306 76.5621C114.306 76.2872 114.083 76.0645 113.808 76.0645C113.533 76.0645 113.311 76.2872 113.311 76.5621C113.311 76.8369 113.533 77.0597 113.808 77.0597Z" fill="white"/>
<path d="M118.929 56.3867C119.293 58.909 119.222 61.0061 118.773 61.0701C118.324 61.134 117.669 59.1423 117.308 56.6205C116.946 54.0987 117.013 52.0008 117.464 51.9372C117.915 51.8736 118.565 53.8645 118.929 56.3867Z" fill="white"/>
<path d="M119.714 64.3128C119.674 65.3985 119.278 66.2661 118.827 66.249C118.376 66.2319 118.045 65.341 118.08 64.2545C118.116 63.1679 118.516 62.3035 118.967 62.3206C119.417 62.3377 119.753 63.2294 119.714 64.3128Z" fill="white"/>
<path d="M116.176 46.2462C116.176 46.2462 117.277 48.43 116.477 51.8864C116.477 51.8864 114.987 49.6685 116.176 46.2462Z" fill="white"/>
<path d="M115.084 44.0991C113.429 44.0991 112.227 47.3994 111.429 52.4204C110.513 58.1349 110.072 66.1608 110.084 74.0968C110.084 74.6744 110.325 75.386 110.722 76.0991C110.07 72.8527 110.868 59.8147 111.804 54.7658C112.663 50.1281 114.42 45.1635 115.084 44.0991Z" fill="white"/>
<path d="M107.689 74.2839C107.689 74.2839 107.687 74.2012 107.686 74.0429C107.684 74.2559 107.683 74.6164 107.685 75.1049L106.949 75.8992C106.94 75.3004 106.934 74.6916 106.932 74.0726C106.932 74.127 106.931 74.1815 106.931 74.2361L106.931 74.819C106.931 74.6237 106.931 74.4294 106.931 74.2361L106.931 73.9179C106.931 73.7078 106.931 73.4964 106.931 73.2839L106.931 73.9179C106.931 73.9696 106.932 74.0211 106.932 74.0726C106.988 55.4801 110.593 46.0043 110.593 46.0043C107.67 57.7251 107.671 72.025 107.686 74.0429C107.687 73.8958 107.689 73.819 107.689 73.819L107.689 74.2839Z" fill="white"/>
<path d="M108.713 87.0873C107.399 80.6093 107.674 74.6728 107.674 74.6728L106.937 74.3051C106.933 74.5565 106.932 74.8109 106.932 75.0683C106.931 75.0148 106.929 74.9612 106.928 74.9076L106.934 75.4087C106.936 75.5256 106.937 75.6432 106.939 75.7613L106.934 75.4087C106.933 75.2947 106.933 75.1812 106.932 75.0683C107.142 81.7017 108.713 87.0873 108.713 87.0873Z" fill="white"/>
<path d="M122.092 87.0873C123.405 80.6093 123.131 74.6728 123.131 74.6728L123.868 74.3051C123.871 74.5565 123.873 74.8109 123.872 75.0683C123.874 75.0148 123.876 74.9612 123.877 74.9076L123.87 75.4087C123.869 75.5256 123.868 75.6432 123.865 75.7613L123.87 75.4087C123.871 75.2947 123.872 75.1812 123.872 75.0683C123.662 81.7017 122.092 87.0873 122.092 87.0873Z" fill="white"/>
<path d="M123.104 74.2839C123.104 74.2839 123.106 74.2012 123.107 74.0429C123.109 74.2559 123.11 74.6164 123.108 75.1049L123.844 75.8992C123.853 75.3004 123.859 74.6916 123.861 74.0726C123.861 74.127 123.862 74.1815 123.862 74.2361L123.862 74.819C123.862 74.6237 123.862 74.4294 123.862 74.2361L123.862 73.9179C123.862 73.7078 123.862 73.4964 123.862 73.2839L123.862 73.9179C123.862 73.9696 123.861 74.0211 123.861 74.0726C123.805 55.4801 120.2 46.0043 120.2 46.0043C123.123 57.7251 123.122 72.025 123.107 74.0429C123.106 73.8958 123.104 73.819 123.104 73.819L123.104 74.2839Z" fill="white"/>
<mask id="path-36-outside-4_1233_2887" maskUnits="userSpaceOnUse" x="108.637" y="80.8989" width="14" height="11" fill="black">
<rect fill="white" x="108.637" y="80.8989" width="14" height="11"/>
<path d="M120.512 81.9866C119.127 82.8035 116.981 83.3758 115.389 83.3758C113.797 83.3758 111.637 82.7758 110.225 81.959C109.865 81.7651 109.588 82.0697 109.644 82.4574C109.644 83.5649 110.53 87.2294 111.748 88.4477C112.842 89.5553 114.213 89.986 115.459 89.986C116.691 89.986 118.075 89.5415 119.169 88.4477C120.387 87.2294 121.273 83.5649 121.273 82.4574C121.329 82.042 120.872 81.779 120.512 81.9866Z"/>
</mask>
<path d="M120.512 81.9866C119.127 82.8035 116.981 83.3758 115.389 83.3758C113.797 83.3758 111.637 82.7758 110.225 81.959C109.865 81.7651 109.588 82.0697 109.644 82.4574C109.644 83.5649 110.53 87.2294 111.748 88.4477C112.842 89.5553 114.213 89.986 115.459 89.986C116.691 89.986 118.075 89.5415 119.169 88.4477C120.387 87.2294 121.273 83.5649 121.273 82.4574C121.329 82.042 120.872 81.779 120.512 81.9866Z" stroke="black" stroke-width="2" mask="url(#path-36-outside-4_1233_2887)"/>
<path d="M120.512 81.9866C119.127 82.8035 116.981 83.3758 115.389 83.3758C113.797 83.3758 111.637 82.7758 110.225 81.959C109.865 81.7651 109.588 82.0697 109.644 82.4574C109.644 83.5649 110.53 87.2294 111.748 88.4477C112.842 89.5553 114.213 89.986 115.459 89.986C116.691 89.986 118.075 89.5415 119.169 88.4477C120.387 87.2294 121.273 83.5649 121.273 82.4574C121.329 82.042 120.872 81.779 120.512 81.9866Z" fill="#AA3964"/>
<path d="M119.842 83.9423C118.653 84.3463 116.809 84.6294 115.442 84.6294C114.074 84.6294 112.218 84.3326 111.005 83.9286C110.696 83.8327 110.459 83.9834 110.506 84.1751C110.506 84.723 111.267 86.5355 112.314 87.1381C113.253 87.6859 114.431 87.8989 115.501 87.8989C116.56 87.8989 117.749 87.6791 118.689 87.1381C119.735 86.5355 120.496 84.723 120.496 84.1751C120.544 83.9697 120.151 83.8396 119.842 83.9423Z" fill="#DB5C87"/>
<path d="M117.989 87.487C117.395 88.3971 116.609 88.9334 116.23 88.6867C115.851 88.4401 116.025 87.5029 116.621 86.5938C117.217 85.6847 118.003 85.1484 118.379 85.3963C118.755 85.6441 118.584 86.5801 117.989 87.487Z" fill="white"/>
<path d="M113.998 86.2233C114.273 86.2233 114.495 86.0005 114.495 85.7257C114.495 85.4508 114.273 85.228 113.998 85.228C113.723 85.228 113.5 85.4508 113.5 85.7257C113.5 86.0005 113.723 86.2233 113.998 86.2233Z" fill="white"/>
<path d="M110.225 81.959C109.865 81.7651 109.588 82.0697 109.644 82.4574C109.644 83.5649 110.53 87.2294 111.748 88.4477C109 82.228 111.5 82.728 113.5 83.128C111.914 82.8108 111.214 82.4917 110.225 81.959Z" fill="white"/>
<path d="M112.801 36.9923C112.801 36.9923 113.916 34.5777 115.319 33.2993C115.319 33.2993 116.578 34.5777 117.801 36.8858L115.283 34.4356L112.801 36.9923Z" fill="white"/>
<path d="M97 128.899C97.0143 131.142 106.639 133.234 116 133.174C124.868 133.117 133.5 131.026 133.5 128.899" stroke="black"/>
<path d="M97 116.399C97.0143 118.642 106.639 120.734 116 120.674C124.868 120.617 133.5 118.526 133.5 116.399" stroke="black"/>
<path d="M102.5 110.798C102.528 115.166 128 115.171 128 110.798" stroke="black"/>
<mask id="path-46-inside-5_1233_2887" fill="white">
<path fill-rule="evenodd" clip-rule="evenodd" d="M115.319 122.899H110.197C109.186 122.899 108.369 123.716 108.369 124.726V128.88C108.369 129.891 109.186 130.707 110.197 130.707H115.319H120.442C121.452 130.707 122.269 129.891 122.269 128.88V124.726C122.269 123.716 121.452 122.899 120.442 122.899H115.319Z"/>
</mask>
<path fill-rule="evenodd" clip-rule="evenodd" d="M115.319 122.899H110.197C109.186 122.899 108.369 123.716 108.369 124.726V128.88C108.369 129.891 109.186 130.707 110.197 130.707H115.319H120.442C121.452 130.707 122.269 129.891 122.269 128.88V124.726C122.269 123.716 121.452 122.899 120.442 122.899H115.319Z" fill="#6D6E70" stroke="black" stroke-width="2" mask="url(#path-46-inside-5_1233_2887)"/>
<rect x="102.35" y="123.55" width="1.7" height="4.3" rx="0.65" fill="black" stroke="black" stroke-width="0.3"/>
<rect x="102.301" y="123.7" width="1.4" height="4" rx="0.5" fill="#9E3E63"/>
<path fill-rule="evenodd" clip-rule="evenodd" d="M102.677 124.406H103.059C103.215 124.406 103.345 124.47 103.345 124.547V127.195C103.345 127.271 103.215 127.335 103.059 127.335H102.677C102.521 127.335 102.391 127.271 102.391 127.195V124.55C102.391 124.47 102.521 124.406 102.677 124.406Z" fill="#F39DB1"/>
<path d="M103.026 124.508C103.114 124.508 103.185 124.44 103.185 124.356C103.185 124.272 103.114 124.205 103.026 124.205C102.938 124.205 102.867 124.272 102.867 124.356C102.867 124.44 102.938 124.508 103.026 124.508Z" fill="white"/>
<path d="M102.549 126.958V125.652C102.549 125.538 102.75 125.356 103.069 125.176C103.103 125.154 103.142 125.133 103.185 125.113C103.145 125.134 103.106 125.155 103.069 125.176C102.825 125.334 102.793 125.552 102.812 125.652L102.812 126.958C102.793 127.058 102.921 127.184 103.35 127.255C103 127.255 102.549 127.072 102.549 126.958Z" fill="white"/>
<rect x="126.35" y="123.55" width="1.7" height="4.3" rx="0.65" fill="black" stroke="black" stroke-width="0.3"/>
<rect x="126.699" y="123.7" width="1.4" height="4" rx="0.5" fill="#9E3E63"/>
<path fill-rule="evenodd" clip-rule="evenodd" d="M127.075 124.406H127.457C127.613 124.406 127.743 124.47 127.743 124.547V127.195C127.743 127.271 127.613 127.335 127.457 127.335H127.075C126.919 127.335 126.789 127.271 126.789 127.195V124.55C126.789 124.47 126.919 124.406 127.075 124.406Z" fill="#F39DB1"/>
<path d="M127.425 124.508C127.513 124.508 127.584 124.44 127.584 124.356C127.584 124.272 127.513 124.205 127.425 124.205C127.337 124.205 127.266 124.272 127.266 124.356C127.266 124.44 127.337 124.508 127.425 124.508Z" fill="white"/>
<path d="M126.947 126.958V125.652C126.947 125.538 127.149 125.356 127.467 125.176C127.502 125.154 127.54 125.133 127.584 125.113C127.543 125.134 127.504 125.155 127.467 125.176C127.224 125.334 127.192 125.552 127.21 125.652L127.21 126.958C127.192 127.058 127.319 127.184 127.749 127.255C127.399 127.255 126.947 127.072 126.947 126.958Z" fill="white"/>

    </svg>
